<svg xmlns="http://www.w3.org/2000/svg" width="181.28" height="150" viewBox="0 0 181.28 150"><defs><style>.cls-1{isolation:isolate;}.cls-2{mix-blend-mode:multiply;}.cls-3{fill:#cce8ea;}.cls-4{fill:#231815;}</style></defs><title>body_make</title><g class="cls-1"><g id="レイヤー_2" data-name="レイヤー 2"><g id="レイヤー_1-2" data-name="レイヤー 1"><g class="cls-2"><path class="cls-3" d="M127.76,131a55.59,55.59,0,1,1,26.69-73.95A55.6,55.6,0,0,1,127.76,131"/></g><g class="cls-2"><path class="cls-3" d="M118.07,105.92A55.59,55.59,0,1,1,144.75,32a55.59,55.59,0,0,1-26.68,74"/></g><g class="cls-2"><path class="cls-3" d="M103.86,144.71a55.59,55.59,0,1,1,26.7-73.94,55.57,55.57,0,0,1-26.7,73.94"/></g><g class="cls-2"><path class="cls-3" d="M105.81,121.32A55.59,55.59,0,1,1,132.5,47.37a55.58,55.58,0,0,1-26.69,73.95"/></g><g class="cls-2"><path class="cls-3" d="M79.23,136.39a55.59,55.59,0,1,1,26.69-73.94,55.58,55.58,0,0,1-26.69,73.94"/></g><path d="M24,65V44.25H27.3a17.32,17.32,0,0,1,4.16.36,5.51,5.51,0,0,1,3,1.84,4.8,4.8,0,0,1,1.11,3.16,4.63,4.63,0,0,1-.5,2.15,5.59,5.59,0,0,1-1.63,1.82,6.43,6.43,0,0,1,2.76,2.22A5.58,5.58,0,0,1,37,59a5.84,5.84,0,0,1-.91,3.19A5.72,5.72,0,0,1,33.8,64.3a8.87,8.87,0,0,1-3.94.71Zm4-17v4.37h.86A3.19,3.19,0,0,0,31,51.78a2,2,0,0,0,.7-1.65A1.9,1.9,0,0,0,31,48.59,3,3,0,0,0,29,48Zm0,7.9v5.32h1a6.07,6.07,0,0,0,3.32-.62,2.07,2.07,0,0,0,.85-1.8,2.53,2.53,0,0,0-1-2.12,5.52,5.52,0,0,0-3.34-.78Z"/><path d="M47.6,49.26a8.2,8.2,0,0,1,4.09,1.08,8,8,0,0,1,4.05,7,8.1,8.1,0,0,1-1.08,4.07,7.78,7.78,0,0,1-2.94,3,8.13,8.13,0,0,1-4.11,1.07A7.7,7.7,0,0,1,42,63.06a8.15,8.15,0,0,1,.31-11.71A7.66,7.66,0,0,1,47.6,49.26Zm.06,3.63a3.94,3.94,0,0,0-3,1.25,4.39,4.39,0,0,0-1.19,3.19,4.51,4.51,0,0,0,1.18,3.25,3.92,3.92,0,0,0,3,1.24,4,4,0,0,0,3-1.25,4.51,4.51,0,0,0,1.2-3.24,4.45,4.45,0,0,0-1.18-3.21A4,4,0,0,0,47.66,52.89Z"/><path d="M70.23,43.72h3.85V65H70.23V63.39A7.62,7.62,0,0,1,68,64.94a6.45,6.45,0,0,1-2.46.47,6.83,6.83,0,0,1-5.15-2.31,8,8,0,0,1-2.17-5.74,8.26,8.26,0,0,1,2.1-5.83,6.67,6.67,0,0,1,5.1-2.27,6.49,6.49,0,0,1,2.6.52,7.08,7.08,0,0,1,2.24,1.57Zm-4,9.1a3.91,3.91,0,0,0-3,1.26,5,5,0,0,0,0,6.51,3.89,3.89,0,0,0,3,1.29,4,4,0,0,0,3-1.26,4.64,4.64,0,0,0,1.2-3.32,4.47,4.47,0,0,0-1.2-3.24A4,4,0,0,0,66.18,52.82Z"/><path d="M76.28,49.65h3.94l4,9.64,4.41-9.64h4l-9.62,21H79l3.16-6.76Z"/><path d="M102.81,49.65h3.86v1.77a6.23,6.23,0,0,1,4.83-2.16,4.9,4.9,0,0,1,2.6.7A5.12,5.12,0,0,1,116,52,6.33,6.33,0,0,1,118.22,50a6.14,6.14,0,0,1,2.92-.7A5.39,5.39,0,0,1,124,50a4.45,4.45,0,0,1,1.79,2,10.72,10.72,0,0,1,.54,4v9h-3.88V57.22a6.72,6.72,0,0,0-.65-3.54,2.23,2.23,0,0,0-1.95-.92,3,3,0,0,0-1.77.56,3.44,3.44,0,0,0-1.17,1.56,9.85,9.85,0,0,0-.38,3.2V65h-3.88V57.57a10.11,10.11,0,0,0-.31-3,2.65,2.65,0,0,0-.91-1.38,2.38,2.38,0,0,0-1.47-.45,2.93,2.93,0,0,0-1.75.57,3.45,3.45,0,0,0-1.17,1.6,9.91,9.91,0,0,0-.39,3.25V65h-3.86Z"/><path d="M141.36,49.65h3.85V65h-3.85V63.39a7.66,7.66,0,0,1-2.27,1.55,6.38,6.38,0,0,1-2.46.47,6.81,6.81,0,0,1-5.14-2.31,8,8,0,0,1-2.18-5.74,8.27,8.27,0,0,1,2.11-5.83,6.67,6.67,0,0,1,5.1-2.27,6.49,6.49,0,0,1,2.6.52,7.19,7.19,0,0,1,2.24,1.57Zm-4.05,3.17a3.88,3.88,0,0,0-3,1.26,5,5,0,0,0,0,6.51,3.89,3.89,0,0,0,3,1.29,4,4,0,0,0,3-1.26,4.64,4.64,0,0,0,1.2-3.32,4.47,4.47,0,0,0-1.2-3.24A4,4,0,0,0,137.31,52.82Z"/><path d="M149.14,43.72H153V56l5.68-6.34h4.84L156.89,57l7.41,8h-4.79L153,57.93V65h-3.85Z"/><path d="M181.27,58.45H168.89a4.09,4.09,0,0,0,1.43,2.6,4.48,4.48,0,0,0,3,1A5.15,5.15,0,0,0,177,60.51L180.25,62a7.65,7.65,0,0,1-2.91,2.55,9.07,9.07,0,0,1-4,.83,8,8,0,0,1-5.89-2.28,7.77,7.77,0,0,1-2.27-5.71,8,8,0,0,1,2.27-5.84,7.59,7.59,0,0,1,5.68-2.32,7.87,7.87,0,0,1,5.9,2.32,8.37,8.37,0,0,1,2.27,6.13Zm-3.85-3a3.94,3.94,0,0,0-1.51-2.09,4.41,4.41,0,0,0-2.61-.8,4.64,4.64,0,0,0-2.83.9,5,5,0,0,0-1.41,2Z"/><path class="cls-4" d="M30.07,77.61c-.07.19-.07.19-.11.32l-.11.38-.1.42a16.93,16.93,0,0,1-3.33,6.57,4.24,4.24,0,0,0-1.25-.82A12.3,12.3,0,0,0,28,79.8a9.85,9.85,0,0,0,.67-2.59Zm2.67-4.67A8.93,8.93,0,0,0,32.63,71h1.56a10.47,10.47,0,0,0-.1,2v1.24h4.8a13.1,13.1,0,0,0,2.22-.11v1.44a16,16,0,0,0-2.19-.09H34.09v9.47a10.93,10.93,0,0,0,.1,2H32.63a11.37,11.37,0,0,0,.11-2V75.46H28.08a16,16,0,0,0-2.19.09V74.11a12.89,12.89,0,0,0,2.21.11h4.64Zm5.35,4.29a13.09,13.09,0,0,0,.7,2.15,17.09,17.09,0,0,0,3,5.1,4.21,4.21,0,0,0-1.2.89,22.92,22.92,0,0,1-3.31-6.54c-.17-.52-.34-.94-.47-1.24Zm.55-7.06A15.52,15.52,0,0,1,40.58,73l-1,.55a15.46,15.46,0,0,0-1.92-2.93ZM41,69.46a16.59,16.59,0,0,1,2,3L42,73a14.37,14.37,0,0,0-1.94-3Z"/><path class="cls-4" d="M52.48,77.78c-.23,4.93-1.83,7.25-6.13,8.92a3.35,3.35,0,0,0-.89-1.23c3.93-1.32,5.42-3.35,5.57-7.69H45.87a16,16,0,0,0-2.18.09v-1.4a13.11,13.11,0,0,0,2.2.11H57a13,13,0,0,0,2.2-.11v1.4a16.07,16.07,0,0,0-2.18-.09Zm-6.87-6a10.21,10.21,0,0,0,2.19.13h5.74a16.31,16.31,0,0,0,2.19-.1v1.37c-.25,0-1,0-2.17-.05H47.78a14.21,14.21,0,0,0-2.17.09Zm11.15-1.6a14.93,14.93,0,0,1,1.87,3l-1,.54a14.33,14.33,0,0,0-1.84-3.09Zm2.34-.73a15.91,15.91,0,0,1,1.87,3L60,73a15,15,0,0,0-1.85-3.06Z"/><path class="cls-4" d="M73.21,75.15a2.34,2.34,0,0,0-.46.44,32.21,32.21,0,0,1-3.82,3.35v6.43A10,10,0,0,0,69,87.05H67.54a12.42,12.42,0,0,0,.07-1.66V79.74a22,22,0,0,1-5.84,2.62,3.45,3.45,0,0,0-.67-1.14,18.65,18.65,0,0,0,4.42-1.67,21.06,21.06,0,0,0,5.44-4A6.31,6.31,0,0,0,72,74.35Z"/><path class="cls-4" d="M89,71.9a4.9,4.9,0,0,0-.59,1.16,31.66,31.66,0,0,1-2.8,5.56A49.27,49.27,0,0,1,90,82.71L89,83.89a27.26,27.26,0,0,0-4.15-4.13,22.7,22.7,0,0,1-7.65,6.62,3.31,3.31,0,0,0-1-1.14,20.22,20.22,0,0,0,7.57-6.36,35.79,35.79,0,0,0-5.11-3.44l.95-1a56.09,56.09,0,0,1,5,3.31,27,27,0,0,0,2.24-4.43,8.59,8.59,0,0,0,.67-2Z"/><path class="cls-4" d="M107.22,71.9a3.86,3.86,0,0,0-.83.8,33.89,33.89,0,0,1-4.46,3.82v8.11a12.16,12.16,0,0,0,.1,2h-1.66a9.52,9.52,0,0,0,.12-2V77.44a30,30,0,0,1-7.35,3.33,4.57,4.57,0,0,0-.74-1.28,26.66,26.66,0,0,0,9.87-4.93,15.84,15.84,0,0,0,3.64-3.6Z"/><path class="cls-4" d="M115.6,71a3.84,3.84,0,0,0-.42.79c-.49,1-.67,1.35-.87,1.69.24-.06.24-.06,5.74-.15.67,0,.73,0,1-.14l.82.8c-.17.23-.17.25-.38.94A20.08,20.08,0,0,1,117.67,82a18.64,18.64,0,0,1-6.62,4.76,2.87,2.87,0,0,0-1-1.12,16.24,16.24,0,0,0,6.72-4.82,17.52,17.52,0,0,0,3.27-6.37l-6.41.11a18.38,18.38,0,0,1-4.55,5,2.71,2.71,0,0,0-1.07-1,14,14,0,0,0,4.78-5.22,8.8,8.8,0,0,0,1.2-2.77Z"/></g></g></g></svg>