<svg xmlns="http://www.w3.org/2000/svg" width="211.45" height="150" viewBox="0 0 211.45 150"><defs><style>.cls-1{isolation:isolate;}.cls-2{mix-blend-mode:multiply;}.cls-3{fill:#fadedc;fill-rule:evenodd;}.cls-4{fill:#231815;}</style></defs><title>dietary</title><g class="cls-1"><g id="レイヤー_2" data-name="レイヤー 2"><g id="レイヤー_1-2" data-name="レイヤー 1"><g class="cls-2"><path class="cls-3" d="M142.63,78.55A59.36,59.36,0,1,1,83.28,19.19a59.35,59.35,0,0,1,59.35,59.36"/></g><g class="cls-2"><path class="cls-3" d="M176.62,59.36A59.36,59.36,0,1,1,117.27,0a59.36,59.36,0,0,1,59.35,59.36"/></g><g class="cls-2"><path class="cls-3" d="M122.53,87A59.36,59.36,0,1,1,63.17,27.61,59.36,59.36,0,0,1,122.53,87"/></g><g class="cls-2"><path class="cls-3" d="M179.15,90.65A59.36,59.36,0,1,1,119.8,31.29a59.35,59.35,0,0,1,59.35,59.36"/></g><path d="M52.45,31.91h5.34q5.18,0,7.68,1.31a10.18,10.18,0,0,1,4.14,4.25,14,14,0,0,1,1.62,6.87,14,14,0,0,1-.91,5.14,10.59,10.59,0,0,1-2.51,3.89,8.75,8.75,0,0,1-3.47,2.13,23.87,23.87,0,0,1-6.47.6H52.45Zm4.48,4.44V51.61H59a10.2,10.2,0,0,0,4.49-.73,5.41,5.41,0,0,0,2.28-2.43,9.12,9.12,0,0,0,.88-4.22,8.09,8.09,0,0,0-2.11-6c-1.26-1.27-3.3-1.91-6.1-1.91Z"/><path d="M76.17,30.84a2.68,2.68,0,0,1,2,.86,3,3,0,0,1,0,4.12,2.73,2.73,0,0,1-4,0,2.89,2.89,0,0,1-.83-2.1,2.77,2.77,0,0,1,.82-2A2.64,2.64,0,0,1,76.17,30.84ZM74,38.21h4.4V56.1H74Z"/><path d="M99.34,48.45H85.21a4.82,4.82,0,0,0,1.63,3,5.08,5.08,0,0,0,3.39,1.13,5.81,5.81,0,0,0,4.24-1.76l3.71,1.78a8.87,8.87,0,0,1-3.32,3,10.22,10.22,0,0,1-4.59,1,9,9,0,0,1-6.72-2.66A9.14,9.14,0,0,1,81,47.25a9.44,9.44,0,0,1,2.59-6.8A8.59,8.59,0,0,1,90,37.75a8.93,8.93,0,0,1,6.74,2.7,9.91,9.91,0,0,1,2.59,7.15Zm-4.4-3.53a4.55,4.55,0,0,0-1.72-2.44,5,5,0,0,0-3-.93A5.21,5.21,0,0,0,87,42.6a5.82,5.82,0,0,0-1.61,2.32Z"/><path d="M102.83,31.62h4.4v6.59h2.61v3.86h-2.61v14h-4.4v-14h-2.25V38.21h2.25Z"/><path d="M124.54,38.21h4.4V56.1h-4.4V54.2A8.42,8.42,0,0,1,122,56a7.08,7.08,0,0,1-2.81.56,7.76,7.76,0,0,1-5.88-2.69,9.49,9.49,0,0,1-2.47-6.69,9.77,9.77,0,0,1,2.39-6.79A7.58,7.58,0,0,1,119,37.75a7.2,7.2,0,0,1,3,.61,8,8,0,0,1,2.56,1.82Zm-4.62,3.68a4.41,4.41,0,0,0-3.39,1.47,5.36,5.36,0,0,0-1.35,3.77A5.46,5.46,0,0,0,116.55,51a4.41,4.41,0,0,0,3.38,1.5A4.47,4.47,0,0,0,123.37,51a5.42,5.42,0,0,0,1.36-3.85,5.27,5.27,0,0,0-1.36-3.78A4.52,4.52,0,0,0,119.92,41.89Z"/><path d="M131.76,38.21h3.77v2.25a4.76,4.76,0,0,1,1.63-2,3.86,3.86,0,0,1,2.22-.69,4,4,0,0,1,1.79.46l-1.37,3.86a3,3,0,0,0-1.27-.39A2,2,0,0,0,136.81,43c-.47.85-.7,2.53-.7,5l0,.87V56.1h-4.37Z"/><path d="M140.81,38.21h4.49l4.55,11.22,5-11.22h4.51l-11,24.43h-4.55l3.61-7.88Z"/><path d="M0,62.47H4.4v2.06a7.33,7.33,0,0,1,2.51-1.89,7.1,7.1,0,0,1,3-.63,5.48,5.48,0,0,1,3,.82A6,6,0,0,1,15,65.23a7.17,7.17,0,0,1,2.57-2.4A6.85,6.85,0,0,1,20.91,62a6.09,6.09,0,0,1,3.29.89,5.13,5.13,0,0,1,2,2.32,12.67,12.67,0,0,1,.62,4.65V80.36H22.43V71.28a8,8,0,0,0-.74-4.12,2.55,2.55,0,0,0-2.23-1.07,3.38,3.38,0,0,0-2,.65,3.89,3.89,0,0,0-1.33,1.82,11.57,11.57,0,0,0-.43,3.73v8.07H11.25V71.69a12.37,12.37,0,0,0-.35-3.47,3.17,3.17,0,0,0-1-1.61,2.71,2.71,0,0,0-1.68-.52,3.31,3.31,0,0,0-2,.66,4.09,4.09,0,0,0-1.34,1.87A12,12,0,0,0,4.4,72.4v8H0Z"/><path d="M43.39,62.47h4.4V80.36h-4.4V78.47a8.78,8.78,0,0,1-2.58,1.8,7.22,7.22,0,0,1-2.81.55,7.74,7.74,0,0,1-5.87-2.69,9.45,9.45,0,0,1-2.48-6.68,9.7,9.7,0,0,1,2.4-6.79A7.54,7.54,0,0,1,37.87,62a7.2,7.2,0,0,1,3,.61,7.88,7.88,0,0,1,2.56,1.82Zm-4.62,3.68a4.41,4.41,0,0,0-3.39,1.47A5.39,5.39,0,0,0,34,71.4a5.45,5.45,0,0,0,1.37,3.81,4.42,4.42,0,0,0,3.38,1.5,4.5,4.5,0,0,0,3.44-1.47,5.45,5.45,0,0,0,1.37-3.86,5.29,5.29,0,0,0-1.37-3.78A4.56,4.56,0,0,0,38.77,66.15Z"/><path d="M51.64,62.47H56V64.3a10.91,10.91,0,0,1,2.71-1.79,6.55,6.55,0,0,1,2.49-.5,5.94,5.94,0,0,1,4.42,1.86,6.46,6.46,0,0,1,1.53,4.67V80.36H62.84V72.52a20.06,20.06,0,0,0-.28-4.25,3,3,0,0,0-1-1.6,2.69,2.69,0,0,0-1.73-.55,3.19,3.19,0,0,0-2.29.91,4.92,4.92,0,0,0-1.33,2.52A21.83,21.83,0,0,0,56,73.18v7.18h-4.4Z"/><path d="M83.79,62.47h4.4V80.36h-4.4V78.47a8.69,8.69,0,0,1-2.59,1.8,7.17,7.17,0,0,1-2.8.55,7.76,7.76,0,0,1-5.88-2.69A9.49,9.49,0,0,1,70,71.45a9.7,9.7,0,0,1,2.4-6.79A7.56,7.56,0,0,1,78.27,62a7.2,7.2,0,0,1,3,.61,8.1,8.1,0,0,1,2.56,1.82Zm-4.63,3.68a4.37,4.37,0,0,0-3.38,1.47,6,6,0,0,0,0,7.59,4.39,4.39,0,0,0,3.38,1.5,4.5,4.5,0,0,0,3.44-1.47A5.45,5.45,0,0,0,84,71.38a5.28,5.28,0,0,0-1.36-3.78A4.57,4.57,0,0,0,79.16,66.15Z"/><path d="M105,62.47h4.39V77.79c0,3-.6,5.25-1.79,6.68-1.6,1.93-4,2.89-7.24,2.89A12.36,12.36,0,0,1,96,86.7a7.73,7.73,0,0,1-3-1.93,7.86,7.86,0,0,1-1.78-3.1h4.84a4.1,4.1,0,0,0,1.66,1.15,7,7,0,0,0,2.41.38,6.12,6.12,0,0,0,2.85-.56,3.33,3.33,0,0,0,1.52-1.44,7.45,7.45,0,0,0,.44-3.06,7.27,7.27,0,0,1-2.43,1.7,7.5,7.5,0,0,1-2.88.52,7.88,7.88,0,0,1-6-2.6,9.24,9.24,0,0,1-2.43-6.58,9.28,9.28,0,0,1,2.58-6.84A7.62,7.62,0,0,1,99.43,62a7.23,7.23,0,0,1,2.86.57,9.1,9.1,0,0,1,2.7,1.86Zm-4.56,3.73A4.56,4.56,0,0,0,97,67.62a5,5,0,0,0-1.35,3.58A5.08,5.08,0,0,0,97,74.87a4.68,4.68,0,0,0,3.48,1.43,4.47,4.47,0,0,0,3.38-1.4,5.12,5.12,0,0,0,1.33-3.67,5,5,0,0,0-1.34-3.63A4.57,4.57,0,0,0,100.43,66.2Z"/><path d="M130.79,72.71H116.66a4.81,4.81,0,0,0,1.64,3,5,5,0,0,0,3.39,1.12,5.76,5.76,0,0,0,4.23-1.76l3.71,1.78a8.74,8.74,0,0,1-3.32,3,10.22,10.22,0,0,1-4.59,1A9,9,0,0,1,115,78.16a9.12,9.12,0,0,1-2.59-6.65,9.47,9.47,0,0,1,2.58-6.8,8.62,8.62,0,0,1,6.49-2.7,8.91,8.91,0,0,1,6.73,2.7,9.91,9.91,0,0,1,2.6,7.15Zm-4.4-3.53a4.5,4.5,0,0,0-1.72-2.44,4.93,4.93,0,0,0-3-.93,5.19,5.19,0,0,0-3.23,1,5.92,5.92,0,0,0-1.62,2.32Z"/><path d="M133.72,62.47h4.4v2.06a7.43,7.43,0,0,1,2.51-1.89,7.15,7.15,0,0,1,3-.63,5.47,5.47,0,0,1,3,.82,5.82,5.82,0,0,1,2.13,2.4,7.25,7.25,0,0,1,2.57-2.4,6.9,6.9,0,0,1,3.33-.82,6.07,6.07,0,0,1,3.29.89,5,5,0,0,1,2,2.32,12.46,12.46,0,0,1,.62,4.65V80.36h-4.43V71.28c0-2-.24-3.4-.74-4.12a2.52,2.52,0,0,0-2.22-1.07,3.36,3.36,0,0,0-2,.65,3.89,3.89,0,0,0-1.33,1.82,11.51,11.51,0,0,0-.44,3.73v8.07H145V71.69a12.37,12.37,0,0,0-.35-3.47,3.1,3.1,0,0,0-1-1.61,2.69,2.69,0,0,0-1.68-.52,3.28,3.28,0,0,0-2,.66,4,4,0,0,0-1.34,1.87,11.6,11.6,0,0,0-.45,3.78v8h-4.4Z"/><path d="M181.74,72.71H167.61a4.85,4.85,0,0,0,1.63,3,5.09,5.09,0,0,0,3.4,1.12,5.76,5.76,0,0,0,4.23-1.76l3.71,1.78a8.74,8.74,0,0,1-3.32,3,10.22,10.22,0,0,1-4.59,1A9,9,0,0,1,166,78.16a9.12,9.12,0,0,1-2.59-6.65,9.47,9.47,0,0,1,2.58-6.8,8.62,8.62,0,0,1,6.49-2.7,8.91,8.91,0,0,1,6.73,2.7,9.91,9.91,0,0,1,2.6,7.15Zm-4.4-3.53a4.5,4.5,0,0,0-1.72-2.44,4.94,4.94,0,0,0-3-.93,5.18,5.18,0,0,0-3.22,1,5.92,5.92,0,0,0-1.62,2.32Z"/><path d="M184.71,62.47h4.39V64.3a10.94,10.94,0,0,1,2.72-1.79,6.46,6.46,0,0,1,2.48-.5,6,6,0,0,1,4.43,1.86,6.5,6.5,0,0,1,1.52,4.67V80.36H195.9V72.52a20.06,20.06,0,0,0-.28-4.25,2.92,2.92,0,0,0-1-1.6,2.68,2.68,0,0,0-1.73-.55,3.19,3.19,0,0,0-2.29.91,4.91,4.91,0,0,0-1.32,2.52,20.38,20.38,0,0,0-.2,3.63v7.18h-4.39Z"/><path d="M204.45,55.88h4.39v6.59h2.61v3.86h-2.61v14h-4.39v-14h-2.26V62.47h2.26Z"/><path class="cls-4" d="M33.45,102.16V106a40,40,0,0,0,4.23-1l0,1a66.84,66.84,0,0,1-6.78,1.58c-.19,0-.35.07-.65.14l-.29-1.23a13.8,13.8,0,0,0,2.4-.28V98c0-.58,0-1.1-.05-1.45a21.82,21.82,0,0,1-2.51,1.19,3.35,3.35,0,0,0-.65-1.07,16,16,0,0,0,7.39-4.86h1.19a13.83,13.83,0,0,0,3.16,2.73,20,20,0,0,0,4.5,2.13,3.83,3.83,0,0,0-.67,1.12A23.48,23.48,0,0,1,42,96.49c0,.38,0,.72,0,1.28v3c0,.7,0,1,0,1.42-.42,0-.9,0-1.63,0H37.2a7.37,7.37,0,0,0,2.16,2.19,15.14,15.14,0,0,0,3.36-2.83l1,.67a28.4,28.4,0,0,1-3.44,2.72,13.57,13.57,0,0,0,4.77,1.67,4.63,4.63,0,0,0-.63,1.14,14.18,14.18,0,0,1-6.23-3,8.77,8.77,0,0,1-2.13-2.56Zm6.9-5.85a13.28,13.28,0,0,0,1.33,0,16.82,16.82,0,0,1-4.55-3.59,16.07,16.07,0,0,1-4.39,3.61c.46,0,.69,0,1.22,0h2.6v-.6a6.13,6.13,0,0,0-.11-1.33H37.7a6.78,6.78,0,0,0-.09,1.33v.6Zm-6.9,2.39h7.46V97.24H33.45Zm0,2.53h7.46v-1.6H33.45Z"/><path class="cls-4" d="M54.14,100.35H50a11.11,11.11,0,0,0-1.65.09V99.35a10.18,10.18,0,0,0,1.68.09h4.09V98.29H50.48a11.79,11.79,0,0,0-1.45.07,7.25,7.25,0,0,0,.08-1.17v-.77a7.72,7.72,0,0,0-.08-1.2,12.41,12.41,0,0,0,1.46.07h3.65V94.13H49.05a14.86,14.86,0,0,0-2,.11V93.08a13.17,13.17,0,0,0,2,.1h5A7,7,0,0,0,54,91.6h1.28a6,6,0,0,0-.12,1.58h5.37a13.49,13.49,0,0,0,2-.1v1.16a15.64,15.64,0,0,0-2-.11H55.2v1.16h4a11.83,11.83,0,0,0,1.44-.07,7.6,7.6,0,0,0-.07,1.2v.77a7.22,7.22,0,0,0,.07,1.17,11.54,11.54,0,0,0-1.43-.07h-4v1.15H59a17.75,17.75,0,0,0,2-.07c0,.36-.05.7-.05,1.45v.74a8.68,8.68,0,0,0,1.86-.11v1.11a11.9,11.9,0,0,0-1.86-.09v1.14a10.57,10.57,0,0,0,.1,1.76H59.9v-.72H55.2v1.46c0,1.21-.35,1.45-2.06,1.45-.37,0-.68,0-1.66-.07a3.07,3.07,0,0,0-.3-1.1,15.45,15.45,0,0,0,2.17.17c.64,0,.79-.08.79-.47v-1.44H49.91a11.8,11.8,0,0,0-1.72.09v-1.09a10.47,10.47,0,0,0,1.69.09h4.26v-1.27H48.88a12.8,12.8,0,0,0-1.92.09v-1.11a11.38,11.38,0,0,0,1.92.11h5.26Zm-4-4.2v1.3h4v-1.3Zm5,1.3h4.35v-1.3H55.2Zm4.7,4.11v-1.21H55.2v1.21Zm-4.7,2.18h4.7v-1.27H55.2Z"/><path class="cls-4" d="M67.12,94.05a12.84,12.84,0,0,1-1.65,1.72,2.84,2.84,0,0,0-.88-.71,7.86,7.86,0,0,0,2.81-3.49l1.1.35c-.3.54-.42.74-.72,1.21h3a8.33,8.33,0,0,0,1.5-.09V94.1a10,10,0,0,0-1.36,0H69.5a11.29,11.29,0,0,1,.78,1.49l-1,.42a8.81,8.81,0,0,0-.84-1.91Zm5.67,1a3.62,3.62,0,0,0-.69-.42,5.91,5.91,0,0,0,2-3l1.07.27a12,12,0,0,1-.61,1.26H78.7A8.71,8.71,0,0,0,80.23,93v1.09a8.86,8.86,0,0,0-1.49-.08H76.42a10.73,10.73,0,0,1,.83,1.45l-1,.42a9.59,9.59,0,0,0-.93-1.87H74a8.85,8.85,0,0,1-1,1.14.89.89,0,0,0-.14-.13,5.33,5.33,0,0,0,0,1v.3H78a17.3,17.3,0,0,0,1.77-.07,10.66,10.66,0,0,0-.05,1.11v.91a7.24,7.24,0,0,0,.07,1.16H78.69v-2.2H66.34v2.2H65.22a7.39,7.39,0,0,0,.07-1.14v-.92a7.11,7.11,0,0,0-.07-1.12,15.64,15.64,0,0,0,1.72.07H71.7V96a6.11,6.11,0,0,0-.07-1Zm-5.36,12.66a13.82,13.82,0,0,0,.11-1.78V99.58a9.43,9.43,0,0,0-.07-1.29,12.87,12.87,0,0,0,1.75.09h6.24a12.78,12.78,0,0,0,1.75-.09c0,.34,0,.71,0,1.29v1a9.36,9.36,0,0,0,.07,1.34,17.34,17.34,0,0,0-1.76-.07H68.59v1.28h7.66a13.49,13.49,0,0,0,1.61-.07,10,10,0,0,0-.09,1.58V106a9.59,9.59,0,0,0,.11,1.65H76.72v-.88H68.59v.88ZM68.59,101h7.53V99.29H68.59Zm0,4.94h8.13v-1.83H68.59Z"/><path class="cls-4" d="M83.41,93.76a7.47,7.47,0,0,0-1.39.09V92.68a7.32,7.32,0,0,0,1.47.1h2.67a7.05,7.05,0,0,0,1.44-.1v1.15a10.92,10.92,0,0,0-1.35-.07h-.86v4.13h.7a6,6,0,0,0,1.18-.09v1.11a8.91,8.91,0,0,0-1.18-.07h-.7v4.46c.86-.37,1.16-.51,2.06-1l.07,1.11c-1.73.84-2.06,1-4.57,2-.4.16-.49.2-.7.3l-.35-1.23a17.14,17.14,0,0,0,2.42-.75v-4.9h-.93a5.94,5.94,0,0,0-1.16.09V97.8a5.78,5.78,0,0,0,1.18.09h.91V93.76Zm6.86,6.69a21.45,21.45,0,0,0-2.17.07,5.44,5.44,0,0,0,0-.63c0-.45,0-.45,0-1.39V94.77c0-1.11,0-1.69-.08-2.23a17.33,17.33,0,0,0,2.26.08H95a16.52,16.52,0,0,0,2.25-.08,20.35,20.35,0,0,0-.07,2.21v3.53a19.47,19.47,0,0,0,.07,2.24c-.64,0-1.11-.07-2.11-.07h-2v2h2.6a11,11,0,0,0,1.72-.08v1.15a11.53,11.53,0,0,0-1.72-.08H93.1V106h3.26a10.74,10.74,0,0,0,1.72-.09v1.16a11.49,11.49,0,0,0-1.75-.09H88.48a11.26,11.26,0,0,0-1.74.09V106a10,10,0,0,0,1.67.09h3.65v-2.58H89.74a10.36,10.36,0,0,0-1.68.08v-1.15a10.08,10.08,0,0,0,1.68.08h2.32v-2Zm-1-6.86v2.49h2.84V93.59Zm0,3.42v2.48h2.84V97Zm3.88-.93h3V93.59h-3Zm0,3.41h3V97h-3Z"/><path class="cls-4" d="M110.9,94.12a2.06,2.06,0,0,1-.07-.51,2,2,0,1,1,2,2,2,2,0,0,1-.61-.09l0,.11a15.7,15.7,0,0,1-3.58,7,16.41,16.41,0,0,1-6.39,4.16,3.47,3.47,0,0,0-.86-1.21,13.17,13.17,0,0,0,9.5-10.24h-8.94a13,13,0,0,0-2,.1V94a12,12,0,0,0,2,.11h9Zm.67-.53a1.26,1.26,0,1,0,1.26-1.25A1.25,1.25,0,0,0,111.57,93.59Z"/><path class="cls-4" d="M118.16,105v1.24h-1.35a9.36,9.36,0,0,0,.07-1.31V95.34a9.22,9.22,0,0,0-.07-1.36c.35,0,.69,0,1.37,0h9.36a9.56,9.56,0,0,0,1.37,0,9.86,9.86,0,0,0,0,1.36v9.5a13,13,0,0,0,0,1.35h-1.33V105Zm9.42-9.76h-9.42v8.62h9.42Z"/><path class="cls-4" d="M138.62,92.55a3,3,0,0,0-.39.72,13.17,13.17,0,0,1-.81,1.55,2.32,2.32,0,0,1,.63,0l4.25-.08c.62,0,.67,0,.92-.12l1.05,1.11a1.68,1.68,0,0,0-.3.68,16.44,16.44,0,0,1-9.55,10.78,2.73,2.73,0,0,0-.88-1,15.11,15.11,0,0,0,9.22-10.31l-5.92.09a16.82,16.82,0,0,1-4.19,4.56,2.61,2.61,0,0,0-1-.89,13.52,13.52,0,0,0,4.41-4.83,7.94,7.94,0,0,0,1.11-2.55ZM144,92a12.13,12.13,0,0,1,1.79,2.65l-.88.53a11.8,11.8,0,0,0-1.79-2.71Zm2-1a14.13,14.13,0,0,1,1.81,2.67l-.88.51a12.1,12.1,0,0,0-1.79-2.69Z"/><path class="cls-4" d="M149.08,97.17a12.24,12.24,0,0,0,2,.11h9a2.84,2.84,0,0,0,1.14-.13l.65.76a4.9,4.9,0,0,0-.49,1.1c-1.49,4.09-3.92,6.34-8.46,7.87a3.85,3.85,0,0,0-.76-1.21,12.16,12.16,0,0,0,5.22-2.67,10.89,10.89,0,0,0,2.84-4.6h-9.17a16,16,0,0,0-2,.09Zm1.51-4.07a8.41,8.41,0,0,0,1.84.12h5.87a8.41,8.41,0,0,0,1.84-.12v1.35a11.69,11.69,0,0,0-1.83-.09h-5.9a11.55,11.55,0,0,0-1.82.09Z"/><path class="cls-4" d="M170.44,92.8a6.8,6.8,0,0,0-.47,1.26,95.17,95.17,0,0,1-3.65,10.27c2.33-.15,6.46-.7,8.53-1.1a33.54,33.54,0,0,0-2.7-4.55l1.08-.6a45.56,45.56,0,0,1,4.38,7.94l-1.23.67a24.89,24.89,0,0,0-1-2.37,107.24,107.24,0,0,1-10.8,1.45,13.64,13.64,0,0,0-1.49.2l-.17-1.46.49,0,1.49-.09a67,67,0,0,0,2.65-7,33.43,33.43,0,0,0,1.39-5.06Z"/></g></g></g></svg>