<svg xmlns="http://www.w3.org/2000/svg" width="470.13" height="133.26" viewBox="0 0 470.13 133.26"><defs><style>.cls-1{fill:#231815;}.cls-2{fill:red;}</style></defs><title>otameshi_price</title><g id="レイヤー_2" data-name="レイヤー 2"><g id="レイヤー_1-2" data-name="レイヤー 1"><path class="cls-1" d="M15.18,30.73A15.18,15.18,0,1,1,30.35,15.58,15.17,15.17,0,0,1,15.18,30.73Z"/><path class="cls-1" d="M51.26,30h-.78V25.84h.71c5.1,0,7.57-2.21,7.57-5.54,0-3.8-2.95-5.9-9.43-5.9h-.95v8.31c0,4.69-2.76,7-7,7-4.62,0-7.84-3.05-7.84-7.94,0-5.71,3.73-9.54,10.73-10.73V7.1H35V3.19h9.31V.71h4.11V3.19H56V7.1H48.38v3.53h.84c8.73,0,14,3,14,9.74C63.18,27.36,56.9,30,51.26,30Zm-7-15.17c-4.82,1-6.62,3.53-6.62,6.48,0,2.72,1.66,4.14,3.43,4.14,2.3,0,3.19-1.22,3.19-3.7Zm15.31-4.38a48.35,48.35,0,0,0-1-9.1h3.87a44.51,44.51,0,0,1,1,9.1Z"/><path class="cls-1" d="M66.91,8.83V5.36H78.62V8.83Zm.64-5.27v-3H78v3Zm0,10v-3H78v3Zm0,4.78V15.38H78v2.95Zm0,12.33V20.1H78V30.66Zm7.2-7.47h-4V27.6h4ZM89.11,10.56V7.88H79.84v-4h9.27V0h3.6V3.9h1.7L93.93.2h2.48l.51,3.7h1v4H92.71v2.68c0,7.26.91,12,5.19,15.45v5.06C90.64,26.79,89.11,18.64,89.11,10.56ZM79.84,30.08v-3.8c.88,0,1.8,0,2.72,0V16H79.84V12.19H89V16H86.12V25.9a15.38,15.38,0,0,0,4.28-1.22v4C88,29.91,84.15,30.08,79.84,30.08Z"/><path class="cls-1" d="M112.5,30c-8.73,0-12.19-3.57-12.19-11.65V1.22h4.45V17.76c0,5.84,2.3,7.8,8,7.8,6.08,0,10.46-4.2,10.63-14.32h4.52C127.57,24.11,121.63,30,112.5,30Z"/><path class="cls-1" d="M129.37,29.4V25.19h22.51V6.93H129.37V2.68h26.75V29.4Z"/><path class="cls-1" d="M160.56,18.54V14h27.87v4.55Z"/><path class="cls-1" d="M210.63,22.44c-4.75,4.31-11.47,6.79-19.18,7.37V25.56c11.68-1.08,21.59-7.46,21.9-19.08H192.44V2.21H218V4.82a23.71,23.71,0,0,1-4.38,14.29l6.89,5.67v5.54Z"/><path class="cls-1" d="M229.64,30.73a30.27,30.27,0,0,1-4.21-15.15A30.23,30.23,0,0,1,229.64.41h4.45a28.45,28.45,0,0,0-4.45,15.17,28.56,28.56,0,0,0,4.45,15.15Z"/><path class="cls-1" d="M254.59,28.55h-5c-6.31,0-9.37-3.09-9.37-8V10.19c0-6.29,3.23-9.07,9.44-9.07h5c6.21,0,8.72,2.82,8.72,7.54v.71H259V9.1c0-2.58-1.46-3.63-5.09-3.63h-3.7c-4,0-5.43,1.9-5.43,5v2.78a9.92,9.92,0,0,1,5.8-1.59H255c6.42,0,8.73,2.51,8.73,7.16V21C263.69,25.26,260.8,28.55,254.59,28.55Zm4.69-9.33c0-2.75-1.5-3.84-5.06-3.84h-4.45c-2.85,0-5,1-5,3.84v1c0,2.68,1.86,4,4.95,4h4.45c3.67,0,5.13-1.56,5.13-3.87Z"/><path class="cls-1" d="M279.23,28.55H277c-7.2,0-10.35-4-10.35-11.2V12.29c0-7.4,3.63-11.17,10.35-11.17h2.27c6.73,0,10.36,3.77,10.36,11.17v5.06C289.59,24.55,286.43,28.55,279.23,28.55Zm5.95-16.26c0-5.06-2.28-6.79-5.95-6.79H277c-3.63,0-5.94,1.73-5.94,6.79v5.06c0,4.85,2.14,6.82,5.94,6.82h2.27c3.81,0,5.95-2,5.95-6.82Z"/><path class="cls-1" d="M321.06,12.77V24.89c0,3.49-2.24,6.18-5.74,6.18h-6.08V26.92h5.5A2.22,2.22,0,0,0,317,24.55V16H306.22c-1.22,7.3-5.67,13.92-12.76,15.11V26.89c4.92-1.43,7.77-5.6,8.55-10.93h-7.3V13a20.11,20.11,0,0,1-2.07.64V9.27A13.46,13.46,0,0,0,301,0h4.55a19.4,19.4,0,0,1-9.1,12h23.29a19.51,19.51,0,0,1-9.1-12h4.58a13.35,13.35,0,0,0,8.39,9.24v4.34A18.46,18.46,0,0,1,321.06,12.77Z"/><path class="cls-1" d="M334.36,31h-4.45a29.47,29.47,0,0,0,4.45-15.38A29.31,29.31,0,0,0,329.91.17h4.45a31.44,31.44,0,0,1,4.21,15.41A31.3,31.3,0,0,1,334.36,31Z"/><path class="cls-1" d="M14,119.18H11.37v-4.79H3.8v-1.8l7.09-11.51H14v11.2h2.26v2.11H14Zm-7.57-6.9h4.95v-5.43c0-1,.05-2.12.12-3.15h-.1c-.55,1.15-1,2-1.51,3l-3.46,5.53Z"/><path class="cls-1" d="M21.87,115.45a34.45,34.45,0,0,1-2.81,6.9l-1.92.19a40.49,40.49,0,0,0,1.71-6.82Z"/><path class="cls-1" d="M34.2,101.08v2.31H27.86l-.6,4.3c.36,0,.7-.07,1.2-.07,3.29,0,6.13,1.92,6.13,5.62,0,3.49-2.67,6.2-6.61,6.2a8.57,8.57,0,0,1-4.23-1l.63-2.11a7.47,7.47,0,0,0,3.5.91,3.69,3.69,0,0,0,3.87-3.75c0-2.33-1.58-3.8-4.8-3.8a13.08,13.08,0,0,0-2.19.15l1.13-8.75Z"/><path class="cls-1" d="M37.12,110.16c0-5.91,2.23-9.37,6-9.37s5.74,3.7,5.74,9.18c0,6.13-2.21,9.47-5.93,9.47S37.12,115.72,37.12,110.16Zm8.91-.09c0-4.3-.91-7.07-3-7.07-1.82,0-3.07,2.55-3.07,7.07s1.1,7.14,3,7.14C45.31,117.21,46,113.82,46,110.07Z"/><path class="cls-1" d="M50.62,110.16c0-5.91,2.24-9.37,6-9.37s5.74,3.7,5.74,9.18c0,6.13-2.21,9.47-5.93,9.47S50.62,115.72,50.62,110.16Zm8.92-.09c0-4.3-.91-7.07-3-7.07-1.82,0-3.07,2.55-3.07,7.07s1.1,7.14,3,7.14C58.82,117.21,59.54,113.82,59.54,110.07Z"/><path class="cls-1" d="M85.24,100.41v18c0,2.59-1.21,2.83-5.7,2.83A7.58,7.58,0,0,0,78.7,119c.79,0,1.56,0,2.21,0,2,0,2,0,2-.63v-6.8H67.26v9.68H65v-20.9Zm-18,2.26v6.7h6.56v-6.7Zm8.82,6.7h6.85v-6.7H76.08Z"/><path class="cls-1" d="M87.77,111.05v-2h17.85a18,18,0,0,1-3.58-3.65l1.76-1A26.3,26.3,0,0,0,110,110a26.56,26.56,0,0,0-6.2,5.65l-1.76-1a18.08,18.08,0,0,1,3.58-3.66Z"/><path class="cls-1" d="M7.07,77.08a12.06,12.06,0,0,0,0,17.44v.09H5.64A12.69,12.69,0,0,1,5.64,77H7.07Z"/><path class="cls-1" d="M12.27,84.44v6.14c1.26,2.07,3.76,2.07,7.08,2.07,2.16,0,4.74-.06,6.42-.19a8.17,8.17,0,0,0-.58,1.75c-1.4.06-3.53.1-5.48.1-4.11,0-6.42,0-8.21-2.24-.93.79-1.89,1.56-2.68,2.16a.32.32,0,0,1-.22.36l-.91-1.9a32,32,0,0,0,2.86-2V86.1H7.92V84.44Zm-2.81-7a15.24,15.24,0,0,1,3.3,3l-1.34,1.28a14.33,14.33,0,0,0-3.2-3.16Zm6.31,11.16v3H14.09V81.75H19c-1-.49-2.19-1-3.16-1.38l1.14-1c.76.27,1.64.61,2.49,1a14.36,14.36,0,0,0,2.11-1.3H14.17V77.7h9.17l.26-.09,1.32.84a.46.46,0,0,1-.36.19A20,20,0,0,1,21,81.07c.49.25.94.47,1.3.68h2.37v8.19c0,1.54-.64,1.71-3.27,1.71A5.46,5.46,0,0,0,21,90.2c.47,0,.9,0,1.24,0,.73,0,.81,0,.81-.32V88.56H20.16v3H18.54v-3Zm2.77-5.47H15.77v1.39h2.77Zm-2.77,4.14h2.77V85.78H15.77ZM23,84.48V83.09H20.16v1.39Zm-2.86,2.75H23V85.78H20.16Z"/><path class="cls-1" d="M42.36,77.91c-.08.13-.23.17-.46.17-.32.47-.81,1.11-1.26,1.64h3.09v4.1H42V81.28H29.27v2.54H27.59v-4.1h2.79a14.34,14.34,0,0,0-1.28-1.93l1.58-.64a12.53,12.53,0,0,1,1.6,2.34l-.51.23H34.6V77l2.24.12c0,.17-.13.26-.45.32v2.3h2.84a3.8,3.8,0,0,0-.43-.19,15.57,15.57,0,0,0,1.5-2.41Zm.13,10.3V92c0,1.71-.85,1.83-4,1.83A6.11,6.11,0,0,0,38,92.27c.62,0,1.22,0,1.69,0,.93,0,1.08,0,1.08-.3v-2.2H36.39v4.82H34.6V89.81h-4v4.07H28.84V88.21H34.6V86.87h-4V82.52h10v4.35h-3.9a.57.57,0,0,1-.39.15v1.19ZM32.3,83.82v1.73h6.61V83.82Z"/><path class="cls-1" d="M47.59,84.72A19.88,19.88,0,0,1,46,87.08a15.57,15.57,0,0,0-.79-1.85,24.76,24.76,0,0,0,3.92-8.15l2,.66c-.05.13-.21.21-.47.21-.4,1.2-.87,2.42-1.39,3.61l.49.15c0,.13-.17.25-.44.28V94.67H47.59Zm15.59-4.55H59.41v3.39h3.43V94.29H61.13v-.94H52.58v1H50.92V83.56h3.3V80.17H50.64V78.55H63.18Zm-10.6,5V91.8h1.79V85.14Zm5.14-1.58V80.17H55.89v3.39Zm0,1.58H55.89V91.8h1.83Zm3.41,6.66V85.14H59.24V91.8Z"/><path class="cls-1" d="M79,79a2,2,0,0,0,.74-.08l1.17.55a.49.49,0,0,1-.23.24,14,14,0,0,1-3,4.92,13.61,13.61,0,0,0,4.56,2.43,9.5,9.5,0,0,0-1.13,1.48c-.17,0-.34-.13-.51-.18v6.19H78.94v-.69H74.19v.77H72.52V88.43c-.42.21-.85.38-1.28.55a8.65,8.65,0,0,0-.64-1,1.66,1.66,0,0,1-.25.28A25.76,25.76,0,0,0,69,85.87v8.74H67.34V86.29A18.28,18.28,0,0,1,65,91.14a7.48,7.48,0,0,0-.86-1.6,19.92,19.92,0,0,0,3-6.89H64.63V81h2.71V77l2.11.12c0,.17-.15.26-.43.32V81h2.33v1.16A15.34,15.34,0,0,0,74.59,77l2,.64c0,.13-.2.2-.47.2-.17.4-.35.81-.54,1.21ZM69,83.73c.52.62,2,2.65,2.39,3.16l-.23.3a15.4,15.4,0,0,0,4.18-2.54,15.57,15.57,0,0,1-1.81-2.47,13.59,13.59,0,0,1-1.73,1.87,8.76,8.76,0,0,0-1.28-1.13,3.65,3.65,0,0,0,.3-.27H69Zm10,3.86a14.42,14.42,0,0,1-2.46-1.77,16.94,16.94,0,0,1-2.41,1.77Zm-4.82,4.72h4.75v-3.2H74.19Zm.36-11.52a12.65,12.65,0,0,0,2,2.73,11.82,11.82,0,0,0,2-3H74.68Z"/><path class="cls-1" d="M82.83,94.52a12.06,12.06,0,0,0,0-17.44V77h1.44a12.72,12.72,0,0,1,0,17.63H82.83Z"/><path class="cls-1" d="M378.8,104.22a13.64,13.64,0,0,0,0,19.73v.1h-1.62a14.36,14.36,0,0,1,0-19.93h1.62Z"/><path class="cls-1" d="M380.75,110a17.07,17.07,0,0,1,4.05,2.19l-1.13,1.66a17.13,17.13,0,0,0-4-2.34Zm-.36,12.42a64.07,64.07,0,0,0,3.88-6.88l1.51,1.32a72.13,72.13,0,0,1-3.41,6.39.58.58,0,0,1,.13.34.5.5,0,0,1-.11.3Zm4.43-14.25a15.9,15.9,0,0,0-3.92-2.47l1.11-1.5a17.24,17.24,0,0,1,4,2.3Zm3.33-3.22a16.91,16.91,0,0,1,2.47,4.13l-1.77,1a17,17,0,0,0-2.34-4.24Zm10.31,5.64V121.8c0,2-.86,2.25-4.37,2.25a7.15,7.15,0,0,0-.64-1.89c.66,0,1.32,0,1.83,0,1.07,0,1.22,0,1.22-.43v-2.08h-7.08v4.39h-2V110.63h4.41v-6.54l2.54.15c0,.2-.15.3-.49.37v6Zm-2,1.9h-7.08v1.83h7.08ZM389.42,118h7.08v-1.87h-7.08Zm10.27-12.16c-.08.15-.27.21-.53.21a32,32,0,0,1-2.41,4l-1.68-.77a24.75,24.75,0,0,0,2.39-4.43Z"/><path class="cls-1" d="M404.07,120.82V114.3a14.5,14.5,0,0,1-1.78.38,6.64,6.64,0,0,0-1-1.55c2.72-.45,4.3-1.09,5.19-1.88H404.1l-.11.26-1.85-.11a34.27,34.27,0,0,0,1.3-3.68h4.23v-1.07h-5.36v-1.26h5.36v-1.27l2.33.15c0,.17-.17.27-.49.31v.81h2.94v-1.27l2.4.15c0,.17-.17.27-.49.34v.78h4.73V109h-4.73v1H419l.42,0,1.09.13-.07.49c-.19,2.13-.4,2.75-1.76,2.88a3.56,3.56,0,0,0-.43,0v7.35Zm5.65,1c-.13.13-.23.13-.53.13a40.05,40.05,0,0,1-6.48,2.11,11.72,11.72,0,0,0-1.34-1.39,28.47,28.47,0,0,0,6.28-1.87ZM404.93,109l-.37,1h2.86a3.86,3.86,0,0,0,.23-1Zm11.27,6v-1.11H406V115Zm0,2.3v-1.13H406v1.13Zm0,2.32v-1.15H406v1.15Zm-3.75-8.35h-3.52a5.07,5.07,0,0,1-1.15,1.39h4.67Zm0-1.25v-1h-3a10.33,10.33,0,0,1-.13,1Zm-2.94-3.35v1.07h2.94v-1.07Zm9,17.45a44.43,44.43,0,0,0-6-2.22l1.62-1a68.54,68.54,0,0,1,6.56,2.23Zm-1.23-17.45h-2.88v1.07h2.88Zm-.68,6a2.48,2.48,0,0,0-.22-.49c.47,0,.88.06,1.15.06.71,0,.84,0,1-1h-4.09v1.39Z"/><path class="cls-1" d="M427.71,113.17c.64.57,2.58,2.62,3,3.15l-1.18,1.58a25.41,25.41,0,0,0-1.83-2.73v8.88h-2v-8.77a22,22,0,0,1-2.57,5.17,10.57,10.57,0,0,0-1-1.89,22.43,22.43,0,0,0,3.17-6.37h-2.9v-1.9h3.28v-3c-.93.26-1.91.49-2.83.7a5.63,5.63,0,0,0-.62-1.47,28.61,28.61,0,0,0,6.8-2.4l1.68,1.47a.63.63,0,0,1-.49.08,18.25,18.25,0,0,1-2.58,1v3.6h2.77v1.9h-2.77Zm7.5,3.32c0,.17-.21.3-.49.34-.38,2.88-1.13,5.69-4.66,7.29a5.75,5.75,0,0,0-1.2-1.58c3.05-1.23,3.67-3.58,3.92-6.28Zm3.37,4.8c0,.59.06.66.44.66h1.11c.39,0,.47-.32.51-2.52a6.3,6.3,0,0,0,1.75.79c-.17,2.83-.68,3.58-2.05,3.58h-1.66c-1.68,0-2.06-.62-2.06-2.51v-5.44h-5.46v-7.39h2a15.64,15.64,0,0,0-1.79-3.6l1.64-.7a14.56,14.56,0,0,1,2,3.71l-1.27.59h4.85l-1.23-.55a25.75,25.75,0,0,0,1.92-3.82l2.3.92a.55.55,0,0,1-.54.19,29.64,29.64,0,0,1-2,3.26h2.34v7.39h-2.7Zm-5.5-11v3.81h6.2v-3.81Z"/><path class="cls-1" d="M448.6,112.55v6.86c1.5,2.34,4.41,2.34,7.76,2.34,2.43,0,5.41-.08,7.33-.21a9.13,9.13,0,0,0-.66,2.07c-1.47.06-3.63.1-5.63.1-4.83,0-7.58,0-9.69-2.55-1,.89-2,1.77-2.9,2.45a.35.35,0,0,1-.25.4l-1.07-2.24a34.09,34.09,0,0,0,3.13-2.23v-5.11h-2.79v-1.88Zm-3.13-7.92A16.15,16.15,0,0,1,449.2,108l-1.6,1.32a16,16,0,0,0-3.62-3.43Zm6.07.49h5.56c.45,6.41,2,11.56,6.35,13.8a8.71,8.71,0,0,0-1.57,1.53c-2.9-1.7-4.58-4.51-5.54-8.07-1.09,3.49-2.88,6.33-5.52,8.05a10.85,10.85,0,0,0-1.43-1.45c3-1.81,4.8-5.26,5.58-9.56l.77.15c-.13-.83-.23-1.66-.32-2.54h-3.88Z"/><path class="cls-1" d="M464.49,124a13.64,13.64,0,0,0,0-19.73v-.1h1.62a14.36,14.36,0,0,1,0,19.93h-1.62Z"/><path class="cls-2" d="M367.46,86.2l-5.9,33.47c-.85,4.81-3.16,5.26-11.5,5.26a12.09,12.09,0,0,0-.81-4.24c1.46,0,2.88.09,4.09.09,3.65,0,3.74,0,3.94-1.16L359.51,107H330.45l-3.17,18h-4.23l6.83-38.77Zm-34.08,4.19-2.19,12.43h12.16l2.2-12.43Zm14.16,12.43h12.71l2.19-12.43h-12.7Z"/><path class="cls-2" d="M135.82,89.65l.53-1.76a34.37,34.37,0,0,0,9.17-2.41,17.21,17.21,0,0,0,6.79-4.79,9.47,9.47,0,0,0,2.12-5.89,6.3,6.3,0,0,0-1.92-4.62,6.51,6.51,0,0,0-4.79-1.93,7.8,7.8,0,0,0-4.17,1.19,16.84,16.84,0,0,0-4.17,4.13l-1.64-.82a25,25,0,0,1,6.9-7.36,14.08,14.08,0,0,1,7.75-2.21,12.5,12.5,0,0,1,8.75,3.05,9.53,9.53,0,0,1,3.36,7.3,10.42,10.42,0,0,1-1.64,5.85A14,14,0,0,1,158,83.72a33.4,33.4,0,0,1-7.32,2.74q4.54,2,6.38,4.42a14.15,14.15,0,0,1,2.74,8.79q0,9.66-8.34,16a26,26,0,0,1-16.2,5.32q-4.9,0-7.41-1.84a4,4,0,0,1-1.71-3.35,4,4,0,0,1,1.31-3.11,4.73,4.73,0,0,1,5.11-.82,31.88,31.88,0,0,1,4.66,2.76q3.1,2.11,5.16,2.11a5.53,5.53,0,0,0,4.46-2.58,15.57,15.57,0,0,0,2.82-9.53,16.26,16.26,0,0,0-1.8-7.81,12.08,12.08,0,0,0-4.62-5A19.47,19.47,0,0,0,135.82,89.65Z"/><path class="cls-2" d="M165.6,133.26l-.94-1.72q6.26-3.57,7.77-5.4a4.52,4.52,0,0,0,1.19-2.87c0-1.06-.7-2.24-2.11-3.53a13.38,13.38,0,0,1-2.8-3.3,5.58,5.58,0,0,1-.53-2.62,6.17,6.17,0,0,1,2-4.58,6.66,6.66,0,0,1,4.81-1.92,6.3,6.3,0,0,1,4.76,2.17,7.59,7.59,0,0,1,2,5.4A16.12,16.12,0,0,1,177.85,125Q174,129.9,165.6,133.26Z"/><path class="cls-2" d="M217.63,63.18a10.37,10.37,0,0,1,6.79,2.31,12.82,12.82,0,0,1,4.07,6.16,24.3,24.3,0,0,1,1.25,7.61A55.84,55.84,0,0,1,228,92.68a56.56,56.56,0,0,1-4.72,12.72,43.31,43.31,0,0,1-6.71,9.73,20.25,20.25,0,0,1-5.66,4.14,15.15,15.15,0,0,1-6.82,1.67,9.6,9.6,0,0,1-5.87-2,13,13,0,0,1-4.15-5.73,21.36,21.36,0,0,1-1.51-8.06A55.46,55.46,0,0,1,196,86.34a53.28,53.28,0,0,1,7-13.57q4.19-5.7,7.65-7.65A14.14,14.14,0,0,1,217.63,63.18Zm.29,2.78a4.58,4.58,0,0,0-2.13.47,6.24,6.24,0,0,0-1.94,1.91,25.84,25.84,0,0,0-2.6,6.09q-2.9,8.5-6.42,20.78-2.7,9.45-3.23,12.11a33.79,33.79,0,0,0-.78,6.67,4.37,4.37,0,0,0,1.09,3.15,3.53,3.53,0,0,0,2.67,1.14,4.12,4.12,0,0,0,2.75-.9c1.44-1.22,2.64-3.3,3.6-6.21q3.34-10.28,8.46-28.27a49,49,0,0,0,2.25-12.48,4.67,4.67,0,0,0-1.08-3.27A3.44,3.44,0,0,0,217.92,66Z"/><path class="cls-2" d="M259.52,63.18a10.37,10.37,0,0,1,6.79,2.31,12.82,12.82,0,0,1,4.07,6.16,24.59,24.59,0,0,1,1.25,7.61,59.21,59.21,0,0,1-6.42,26.14,43.64,43.64,0,0,1-6.71,9.73,20.15,20.15,0,0,1-5.67,4.14,15.08,15.08,0,0,1-6.81,1.67,9.6,9.6,0,0,1-5.87-2,12.93,12.93,0,0,1-4.15-5.73,21.36,21.36,0,0,1-1.51-8.06,55.46,55.46,0,0,1,3.39-18.85,53,53,0,0,1,7-13.57q4.18-5.7,7.65-7.65A14.14,14.14,0,0,1,259.52,63.18Zm.29,2.78a4.58,4.58,0,0,0-2.13.47,6.24,6.24,0,0,0-1.94,1.91,25.84,25.84,0,0,0-2.6,6.09q-2.89,8.5-6.42,20.78-2.7,9.45-3.23,12.11a33.79,33.79,0,0,0-.78,6.67,4.41,4.41,0,0,0,1.08,3.15,3.57,3.57,0,0,0,2.68,1.14,4.09,4.09,0,0,0,2.74-.9c1.45-1.22,2.65-3.3,3.6-6.21q3.36-10.28,8.47-28.27a49,49,0,0,0,2.25-12.48,4.67,4.67,0,0,0-1.08-3.27A3.46,3.46,0,0,0,259.81,66Z"/><path class="cls-2" d="M301.41,63.18a10.37,10.37,0,0,1,6.79,2.31,12.89,12.89,0,0,1,4.07,6.16,24.59,24.59,0,0,1,1.25,7.61,59.21,59.21,0,0,1-6.42,26.14,43.64,43.64,0,0,1-6.71,9.73,20.3,20.3,0,0,1-5.67,4.14,15.08,15.08,0,0,1-6.81,1.67,9.6,9.6,0,0,1-5.87-2,12.93,12.93,0,0,1-4.15-5.73,21.36,21.36,0,0,1-1.51-8.06,55.46,55.46,0,0,1,3.39-18.85,53,53,0,0,1,7-13.57q4.18-5.7,7.65-7.65A14.11,14.11,0,0,1,301.41,63.18ZM301.7,66a4.58,4.58,0,0,0-2.13.47,6.24,6.24,0,0,0-1.94,1.91,25.84,25.84,0,0,0-2.6,6.09q-2.91,8.5-6.42,20.78-2.7,9.45-3.23,12.11a33.79,33.79,0,0,0-.78,6.67,4.41,4.41,0,0,0,1.08,3.15,3.55,3.55,0,0,0,2.68,1.14,4.09,4.09,0,0,0,2.74-.9c1.45-1.22,2.65-3.3,3.6-6.21q3.36-10.28,8.47-28.27a49,49,0,0,0,2.25-12.48,4.67,4.67,0,0,0-1.08-3.27A3.47,3.47,0,0,0,301.7,66Z"/></g></g></svg>