<svg xmlns="http://www.w3.org/2000/svg" width="283.61" height="232" viewBox="0 0 283.61 232"><defs><style>.cls-1{isolation:isolate;}.cls-2{mix-blend-mode:multiply;}.cls-3{fill:none;}.cls-4{fill:#cce8ea;}.cls-5{fill:#231815;}</style></defs><title>body_make_img</title><g class="cls-1"><g id="レイヤー_2" data-name="レイヤー 2"><g id="レイヤー_1-2" data-name="レイヤー 1"><g class="cls-2"><rect class="cls-3" x="75.06" y="38.8" width="172" height="172"/><path class="cls-4" d="M197.61,202.63A86,86,0,1,1,238.89,88.26a86,86,0,0,1-41.28,114.37"/></g><g class="cls-2"><rect class="cls-3" x="60.06" width="172" height="172"/><path class="cls-4" d="M182.61,163.82A86,86,0,1,1,223.89,49.45a86,86,0,0,1-41.28,114.37"/></g><g class="cls-2"><rect class="cls-3" x="38.1" y="60" width="172" height="171.99"/><path class="cls-4" d="M160.64,223.82a86,86,0,1,1,41.29-114.37,86,86,0,0,1-41.29,114.37"/></g><g class="cls-2"><rect class="cls-3" x="41.11" y="23.82" width="172" height="171.99"/><path class="cls-4" d="M163.66,187.64A86,86,0,1,1,204.94,73.27a86,86,0,0,1-41.28,114.37"/></g><g class="cls-2"><rect class="cls-3" y="47.13" width="172" height="172"/><path class="cls-4" d="M122.55,211A86,86,0,1,1,163.82,96.59,86,86,0,0,1,122.55,211"/></g><path class="cls-5" d="M40.4,100.55V68.43h5.05a26,26,0,0,1,6.42.57,8.58,8.58,0,0,1,4.59,2.84,7.44,7.44,0,0,1,1.71,4.89,7.23,7.23,0,0,1-.77,3.33,8.53,8.53,0,0,1-2.53,2.81,10,10,0,0,1,4.28,3.44,8.62,8.62,0,0,1,1.36,4.88,9.1,9.1,0,0,1-1.4,4.93,8.93,8.93,0,0,1-3.61,3.33,13.77,13.77,0,0,1-6.1,1.1Zm6.11-26.29V81h1.34a5,5,0,0,0,3.32-.94,3.19,3.19,0,0,0,1.08-2.55,3,3,0,0,0-1-2.39,4.7,4.7,0,0,0-3.13-.89Zm0,12.23v8.23H48q3.81,0,5.14-1A3.24,3.24,0,0,0,54.5,91,3.93,3.93,0,0,0,53,87.69q-1.56-1.2-5.17-1.2Z"/><path class="cls-5" d="M76.84,76.18a12.5,12.5,0,0,1,6.32,1.69,12.32,12.32,0,0,1,6.28,10.78,12.52,12.52,0,0,1-1.67,6.29,12.06,12.06,0,0,1-4.55,4.58,12.69,12.69,0,0,1-6.36,1.64,11.86,11.86,0,0,1-8.72-3.63,12.6,12.6,0,0,1,.47-18.11A11.91,11.91,0,0,1,76.84,76.18Zm.1,5.62a6.14,6.14,0,0,0-4.63,1.93,6.88,6.88,0,0,0-1.85,4.94,7,7,0,0,0,1.83,5,6.12,6.12,0,0,0,4.63,1.92,6.21,6.21,0,0,0,4.66-1.94,7,7,0,0,0,1.86-5,6.87,6.87,0,0,0-1.83-5A6.17,6.17,0,0,0,76.94,81.8Z"/><path class="cls-5" d="M111.84,67.62h6v32.93h-6V98a11.44,11.44,0,0,1-3.5,2.39,9.75,9.75,0,0,1-3.8.73,10.57,10.57,0,0,1-8-3.57,12.43,12.43,0,0,1-3.36-8.87,12.74,12.74,0,0,1,3.25-9,10.36,10.36,0,0,1,7.89-3.52,10.06,10.06,0,0,1,4,.81,10.91,10.91,0,0,1,3.46,2.43Zm-6.26,14.07a6,6,0,0,0-4.6,2,7.82,7.82,0,0,0,0,10.08,6.05,6.05,0,0,0,4.58,2,6.18,6.18,0,0,0,4.66-2,7.15,7.15,0,0,0,1.85-5.12,6.94,6.94,0,0,0-1.85-5A6.24,6.24,0,0,0,105.58,81.69Z"/><path class="cls-5" d="M121.2,76.8h6.09l6.17,14.9,6.81-14.9h6.11L131.5,109.24h-6.16l4.89-10.46Z"/><path class="cls-5" d="M162.24,76.8h6v2.73A10.14,10.14,0,0,1,171.6,77a10,10,0,0,1,4.08-.83,7.59,7.59,0,0,1,4,1.1,7.9,7.9,0,0,1,2.88,3.18,9.61,9.61,0,0,1,3.49-3.18,9.46,9.46,0,0,1,4.51-1.1A8.44,8.44,0,0,1,195,77.36a6.86,6.86,0,0,1,2.76,3.08,16.5,16.5,0,0,1,.84,6.18v13.93h-6v-12c0-2.69-.34-4.52-1-5.47a3.44,3.44,0,0,0-3-1.43,4.58,4.58,0,0,0-2.74.87,5.17,5.17,0,0,0-1.8,2.42,14.75,14.75,0,0,0-.59,4.94v10.72h-6V89.05a16,16,0,0,0-.47-4.62,4.09,4.09,0,0,0-1.41-2.13,3.7,3.7,0,0,0-2.28-.7,4.47,4.47,0,0,0-2.7.88A5.36,5.36,0,0,0,168.8,85a15.4,15.4,0,0,0-.6,5v10.57h-6Z"/><path class="cls-5" d="M221.85,76.8h6v23.75h-6V98a11.44,11.44,0,0,1-3.5,2.39,9.75,9.75,0,0,1-3.8.73,10.57,10.57,0,0,1-8-3.57,12.43,12.43,0,0,1-3.36-8.87,12.74,12.74,0,0,1,3.25-9,10.36,10.36,0,0,1,7.89-3.52,10.06,10.06,0,0,1,4,.81,10.91,10.91,0,0,1,3.46,2.43Zm-6.26,4.89a6,6,0,0,0-4.59,2,7,7,0,0,0-1.83,5A7.12,7.12,0,0,0,211,93.72a6,6,0,0,0,4.58,2,6.18,6.18,0,0,0,4.66-2,7.15,7.15,0,0,0,1.85-5.12,6.94,6.94,0,0,0-1.85-5A6.24,6.24,0,0,0,215.59,81.69Z"/><path class="cls-5" d="M233.89,67.62h6v19l8.77-9.79h7.49L245.88,88.18l11.46,12.37h-7.4l-10.09-11v11h-6Z"/><path class="cls-5" d="M283.58,90.4H264.43a6.41,6.41,0,0,0,2.22,4,6.93,6.93,0,0,0,4.6,1.49A7.94,7.94,0,0,0,277,93.59L282,96a11.86,11.86,0,0,1-4.5,3.94,14.06,14.06,0,0,1-6.22,1.27,12.27,12.27,0,0,1-9.1-3.52,12,12,0,0,1-3.52-8.83,12.41,12.41,0,0,1,3.5-9,11.77,11.77,0,0,1,8.79-3.6,12.18,12.18,0,0,1,9.13,3.6,13,13,0,0,1,3.52,9.48Zm-6-4.7a6,6,0,0,0-2.33-3.23,6.74,6.74,0,0,0-4-1.24,7.12,7.12,0,0,0-4.38,1.4,7.79,7.79,0,0,0-2.18,3.07Z"/><path class="cls-5" d="M49.74,120a4.06,4.06,0,0,0-.18.5l-.18.59-.14.65a26.27,26.27,0,0,1-5.16,10.15,6.38,6.38,0,0,0-1.94-1.26,18.85,18.85,0,0,0,4.33-7.24,15.06,15.06,0,0,0,1-4Zm4.12-7.21a12.82,12.82,0,0,0-.18-3h2.41a17.93,17.93,0,0,0-.14,3.06v1.91h7.41a20.24,20.24,0,0,0,3.45-.17v2.23a22.86,22.86,0,0,0-3.39-.14H56v14.65a18.81,18.81,0,0,0,.14,3.12H53.68a16,16,0,0,0,.18-3.09V116.71H46.65a22.86,22.86,0,0,0-3.39.14v-2.23a19.77,19.77,0,0,0,3.41.17h7.19Zm8.27,6.62a21,21,0,0,0,1.09,3.33,26,26,0,0,0,4.56,7.89A6.38,6.38,0,0,0,65.92,132a35.37,35.37,0,0,1-5.12-10.12c-.26-.8-.53-1.45-.73-1.92ZM63,108.52A23.58,23.58,0,0,1,66,113l-1.5.85a23.49,23.49,0,0,0-3-4.53Zm3.65-1.09a24.38,24.38,0,0,1,3,4.6l-1.47.85a21.67,21.67,0,0,0-3-4.62Z"/><path class="cls-5" d="M84.39,120.3c-.36,7.62-2.83,11.21-9.48,13.8a5.14,5.14,0,0,0-1.38-1.91c6.09-2,8.38-5.18,8.62-11.89h-8a24.56,24.56,0,0,0-3.38.14v-2.17a20.42,20.42,0,0,0,3.41.17H91.42a20.41,20.41,0,0,0,3.42-.17v2.17a24.83,24.83,0,0,0-3.39-.14ZM73.76,111a15.83,15.83,0,0,0,3.39.2H86a26.17,26.17,0,0,0,3.39-.15v2.12c-.38,0-1.5-.06-3.36-.08H77.12a20.5,20.5,0,0,0-3.36.14ZM91,108.49a23.16,23.16,0,0,1,2.88,4.65l-1.5.83a22.68,22.68,0,0,0-2.85-4.77Zm3.62-1.12A24.59,24.59,0,0,1,97.51,112l-1.5.82a23,23,0,0,0-2.85-4.74Z"/><path class="cls-5" d="M116.45,116.23a3.74,3.74,0,0,0-.71.68,49,49,0,0,1-5.92,5.18V132a15.45,15.45,0,0,0,.15,2.59h-2.29a18.52,18.52,0,0,0,.11-2.56v-8.74a34.39,34.39,0,0,1-9,4.06,5.53,5.53,0,0,0-1-1.77,28.59,28.59,0,0,0,6.82-2.59,32.15,32.15,0,0,0,8.42-6.12,9.16,9.16,0,0,0,1.65-1.91Z"/><path class="cls-5" d="M140.91,111.2A8.43,8.43,0,0,0,140,113a47.8,47.8,0,0,1-4.33,8.59,75.7,75.7,0,0,1,6.77,6.33l-1.65,1.82a42.17,42.17,0,0,0-6.41-6.38,35,35,0,0,1-11.84,10.24,5.15,5.15,0,0,0-1.53-1.77A31.29,31.29,0,0,0,132.73,122a55.44,55.44,0,0,0-7.92-5.32l1.47-1.56a81.61,81.61,0,0,1,7.66,5.12,40.79,40.79,0,0,0,3.47-6.86,12.92,12.92,0,0,0,1-3.12Z"/><path class="cls-5" d="M169.06,111.2a6.57,6.57,0,0,0-1.3,1.24,51.37,51.37,0,0,1-6.88,5.91v12.54A19.47,19.47,0,0,0,161,134h-2.56a15,15,0,0,0,.18-3.06V119.77a46.54,46.54,0,0,1-11.36,5.15,6.9,6.9,0,0,0-1.15-2,41.57,41.57,0,0,0,15.27-7.63,24.94,24.94,0,0,0,5.63-5.56Z"/><path class="cls-5" d="M182,109.76a5.64,5.64,0,0,0-.64,1.21,28.59,28.59,0,0,1-1.36,2.62c.39-.09.39-.09,8.89-.24a2.84,2.84,0,0,0,1.53-.21l1.27,1.24c-.27.35-.27.38-.59,1.44a31.22,31.22,0,0,1-5.89,11.07A28.78,28.78,0,0,1,175,134.25a4.44,4.44,0,0,0-1.47-1.74,25,25,0,0,0,10.39-7.45A27.07,27.07,0,0,0,189,115.2l-9.92.18a28.13,28.13,0,0,1-7,7.65,4.45,4.45,0,0,0-1.65-1.53,21.87,21.87,0,0,0,7.39-8.06,13.33,13.33,0,0,0,1.85-4.3Z"/></g></g></g></svg>