<svg xmlns="http://www.w3.org/2000/svg" xmlns:xlink="http://www.w3.org/1999/xlink" width="1440.19" height="98.2" viewBox="0 0 1440.19 98.2"><defs><style>.cls-1{fill:none;stroke:#231815;stroke-linecap:round;stroke-linejoin:round;stroke-width:7px;}.cls-2{fill:url(#linear-gradient);}</style><linearGradient id="linear-gradient" x1="720.1" y1="0.74" x2="720.1" y2="107.02" gradientUnits="userSpaceOnUse"><stop offset="0.01" stop-color="#fff"/><stop offset="0.45" stop-color="#fff000"/><stop offset="0.83" stop-color="#ee6f17"/><stop offset="1" stop-color="#e73820"/></linearGradient></defs><title>kininaru_katahe</title><g id="レイヤー_2" data-name="レイヤー 2"><g id="レイヤー_1-2" data-name="レイヤー 1"><path class="cls-1" d="M76,12.06a30.6,30.6,0,0,0,.48-5.55L91.83,4.25A44.23,44.23,0,0,1,91,12.06h11.82c4.21-3.29,6.48-5.27,9.33-7.81L125,6.6c-2.82,2.17-5.24,3.86-7.51,5.46h7.85a88.35,88.35,0,0,0,11-.57l-8.57,12.88A57,57,0,0,0,120,24h-6l7.92,3.19c-4.33,3.86-7.77,6.77-11.5,9.69h1.76a72.51,72.51,0,0,0,10-.47l-8.6,13a62,62,0,0,0-9.46-.47H37.67a82.67,82.67,0,0,0-10.23.47l9.83-13a58.52,58.52,0,0,0,9.38.47h1.67A37.76,37.76,0,0,0,50,27.19L61.84,24H57.36a81.56,81.56,0,0,0-8.7.37l9.72-12.88a67.85,67.85,0,0,0,10,.57ZM28,61.42c3.65-4.89,5.31-7.24,6.85-9.69a84,84,0,0,0,9,.38H92.93a90.08,90.08,0,0,0,9.59-.38c-1.8,2.26-3.48,4.61-6.9,9.69L81.75,82c-3.29,4.89-5.63,8.65-7.07,11.38H59l2.13-3.1H21.44l-2.26,3.1H3.5C6,90.57,8.86,87,12.38,82.29ZM64,36.88,73.36,24H65c-.13,2.91-.39,4.51-1.68,9.68l-12,3.2ZM39.1,66.12H77.8l2.59-3.76H41.85ZM29.21,79.66H68.47c.86-1.25,1.72-2.51,2.59-3.76H32ZM81.44,36.88,90.55,24H86.16L77,36.88Zm25,0-7.28-2.63A127.86,127.86,0,0,0,110.85,24h-7.5L94.43,36.88Z"/><path class="cls-1" d="M160.42,43.46a26.68,26.68,0,0,0,5.28.38,23.72,23.72,0,0,0-2-8.37l-2.38,3.85c-2.68-.18-4.66-.28-9.12-.28H140.82l-3.55,5.55H148.5a79.62,79.62,0,0,0,9.53-.28l-8.19,13.25c-2.73-.18-4.76-.28-9.31-.28H129.15l-4.58,7.15c10.64-.94,13.11-1.22,23.86-2.73l-7.37,12.13c-9.82,2-15.29,2.82-25.15,4.14q-1.64,2.53-3.25,5.07a112.39,112.39,0,0,0-6.09,10.44H90.7c3.08-4,4.88-6.39,7.46-10.34l2.28-3.48c-2.77.38-2.77.38-3.77.56l8.41-15a25.41,25.41,0,0,0,3,.19c.38,0,.48,0,1.69-.09l30.68-46.83C143.26,14.31,144,13,145.74,10A133.91,133.91,0,0,0,174.48,6a43.93,43.93,0,0,0,5.83-1.88c-.6,4.51-1.15,9-1.68,13.54-2.47.47-2.65.47-6.57,1.22-8.45,1.6-13.72,2.44-20.35,3.1-.92,1.44-1.84,2.89-2.77,4.33H160a77.33,77.33,0,0,0,9.43-.28l-4,6.48C171.74,29,177.33,23,183.29,13.18a36.47,36.47,0,0,0,3.11-5.83,49.93,49.93,0,0,0,5.84.29h17.32a46.68,46.68,0,0,0,6.81-.29c-1.27,1.89-2.49,3.86-4.23,6.87l-7.59,13.16c-.55.94-.43,1.22.58,1.22a3.07,3.07,0,0,0,2.54-1.22c1.12-1.31,2.88-4.23,5.84-9.4A18.36,18.36,0,0,0,221,22.31c-4.81,8.08-7.78,12.22-10.55,14.66C207,40.17,204,41,196.78,41c-10.63,0-12-1.23-8.4-7.24l7.66-13h-4.82a64.07,64.07,0,0,1-12.53,15,65.38,65.38,0,0,1-11,8.09h24.77a47.44,47.44,0,0,0,6.33-.29q1.39,3.11,2.84,6.21c-1.2,1.13-2.15,2-4.77,4.42A214.39,214.39,0,0,1,174.4,73.45c4.14,3,8.56,4.8,15.35,6a108,108,0,0,0-14.45,14c-8.5-2.91-13-5.64-17.11-10.25-10.23,5.08-19.37,8.18-32.82,11.1,1.58-5.74,2-8.56,1.48-13.54,11.64-2,17.37-3.57,26-7.15a34.57,34.57,0,0,1-1.37-12.88l13.08-3.85h-5a57.18,57.18,0,0,0-7.62.37Zm6.43,13.45c0,4.13.19,5.54,1.38,8.55a86.77,86.77,0,0,0,11.23-8.55Z"/><path class="cls-1" d="M240.78,66.21c-11.74,12-21.08,17.31-30,17.31-13.14,0-15.58-12-5.89-29.25A88.13,88.13,0,0,1,231.51,25.6c13-9,27-13.83,40.21-13.83,12.07,0,20.61,4.24,23.89,11.57,2.79,6.39,1.71,15.51-3.25,26.14a71.91,71.91,0,0,1-27.09,30.37c-9.37,5.73-18.6,8.74-33.41,10.81,1.1-6.77,1-10.15-.36-15.42,9.44-.66,16.19-2.16,22.69-4.79,9.34-3.86,17.26-11.76,22.12-21.82,3.88-8,4.17-14.38.88-18.52-1.47-1.88-3.06-2.73-6.08-3.29C261,43,251.65,55.12,240.78,66.21Zm1.81-34.41c-8.87,5.27-17.65,14-22.2,22.38-3.63,6.68-3.9,11.94-.54,11.94,2.4,0,6.66-3.29,13.27-10.44a212,212,0,0,0,22-28.67C251,27.57,247.32,29,242.59,31.8Z"/><path class="cls-1" d="M372.76,67.06c-8.09,5-13.05,7.8-18.46,10.53,4.95,1.51,10,2.26,19,2.63a104,104,0,0,0-11.67,14.11c-16.09-2.35-24.89-6-31.5-13.17-.87,2.14-1.75,4.27-2.62,6.4-13.95,2.44-24,4-42,6.3-2.34.37-3.61.56-5.71.84q2.39-7.47,4.8-15a21.08,21.08,0,0,0,2.58.1c.68,0,5.77-.28,9.1-.57q9.11-20.36,18.23-40.71c.33-.75.33-.75.46-1-4.24,1.78-6.66,2.63-11.91,4.51a52.24,52.24,0,0,0,1.22-14.67,125.25,125.25,0,0,0,24.86-9.12c8.9-4.32,14.67-7.9,20.86-13H364.9c2.23,5.54,5.34,9.49,10.77,13.54A46.7,46.7,0,0,0,393.32,27a108.33,108.33,0,0,0-11.08,14.76,56.5,56.5,0,0,1-8.62-4.52q-4.47,11.67-8.93,23.32c-.28.76-.28.75-.39,1Q368.5,64.34,372.76,67.06ZM326.39,42.8h31.38c.43-1.09.87-2.19,1.3-3.29H327.82C327.34,40.61,326.87,41.71,326.39,42.8Zm-5.61,13H352.6c.44-1.1.88-2.2,1.31-3.29H322.2C321.73,53.58,321.25,54.68,320.78,55.78Zm-4.47,10.34Q313.75,72,311.19,78c.52-.1.52-.1,1.24-.19,4.33-.38,10.51-1.22,13.8-1.69-2-3.2-2.41-4.42-3.7-10Zm25.94-40.05a30.65,30.65,0,0,0,1-2.92c-4,2.45-7.14,4.33-10.45,6h8.09ZM356,21.93a31.38,31.38,0,0,1-3.17-5.55,92.84,92.84,0,0,1-7.69,5.55Zm6.51,7.24A55.9,55.9,0,0,1,356.8,23c-.55,1.13-.82,1.79-1.4,3.2-.4,1-.81,2-1.22,3Zm-23.45,37A14.68,14.68,0,0,0,343,71.67a94.77,94.77,0,0,0,10.37-5.55Z"/><path class="cls-1" d="M421.57,53.71H399c-3.21,0-6.08.09-8.7.28q1.7-4.74,3.4-9.49a64.3,64.3,0,0,0,8.57.37h22.18c.28-.88.56-1.75.85-2.63H405.12c-3.36,0-5.82.09-8.22.28.86-1.88,1.68-4,2.55-6.39l2.2-6.21c.93-2.63,1.51-4.51,2.12-6.77,2.5.19,4.38.28,8.13.28h19.46c.3-.91.59-1.81.88-2.72H408.38a97.29,97.29,0,0,0-11.29.47l4.34-11.94A90.3,90.3,0,0,0,413,9.8h22.76a23.64,23.64,0,0,0,1-4.7h14.13a31.34,31.34,0,0,0-2,4.7h23.3a98.91,98.91,0,0,0,11.85-.56l-3.21,11.94a88.89,88.89,0,0,0-10.8-.47H445.54l-.84,2.72H465c3.74,0,5.69-.09,7.94-.28-.79,2.16-1.32,3.76-2.15,6.77q-.87,3.1-1.72,6.21c-.83,3-1.08,4.23-1.49,6.39-2.1-.19-4.4-.28-7.3-.28H438.9l-.81,2.63h21.53a77.74,77.74,0,0,0,9.62-.28,78,78,0,0,0-2.66,8.65c-.26,1-.53,1.94-.8,2.91a33.92,33.92,0,0,0,6.79-.56L469.5,67.06a44.08,44.08,0,0,0-6.58-.47c-.41,1.51-.83,3-1.24,4.51a84.86,84.86,0,0,0-2.43,10.63H444.54c.36-1.22.71-2.45,1.07-3.67H427.85c-.36,1.19-.73,2.38-1.1,3.57-3.18,10.35-6.29,12.13-21.1,12.13-2.66,0-5.39-.09-9.08-.28a34.57,34.57,0,0,0,.29-11.85c5,.47,8.41.76,11.83.76,3,0,3.69-.29,4.24-2,.25-.78.51-1.56.76-2.35H391.18c-4.36,0-6.53.1-9.83.38l3.46-9.69a70.37,70.37,0,0,0,9,.29h22.77l.91-2.83H390.8a73,73,0,0,0-10.71.47Q382,61.37,384,56.06a62.27,62.27,0,0,0,10.07.47h26.63C421,55.59,421.26,54.65,421.57,53.71Zm-7.18-22.28-1,2.82h14.43c.31-.94.61-1.88.92-2.82Zm27,2.82h14.89c.27-.94.55-1.88.82-2.82H442.24Zm10.47,22.28c.27-.94.55-1.88.82-2.82h-17.3l-.87,2.82ZM430.64,69h17.58l.82-2.83H431.51Z"/><path class="cls-1" d="M515.52,66.21c-8.17,12-16,17.31-24.85,17.31-13.13,0-19.13-12-14.53-29.25a58.07,58.07,0,0,1,18.1-28.67,54.47,54.47,0,0,1,36.13-13.83c12.07,0,21.86,4.24,27.3,11.57,4.68,6.39,6.29,15.51,4.49,26.14C560.08,61.7,553.52,72.8,544,79.85c-7.67,5.73-16,8.74-30.21,10.81-.9-6.77-2-10.15-4.92-15.42,9.24-.66,15.55-2.16,21.28-4.79,8.2-3.86,13.78-11.76,15.67-21.82,1.5-8-.09-14.38-4.61-18.52a12.25,12.25,0,0,0-7-3.29C528.84,43,523.11,55.12,515.52,66.21ZM507.16,31.8c-7.32,5.27-13.51,14-15.58,22.38-1.66,6.68-.37,11.94,3,11.94,2.39,0,5.68-3.29,10.18-10.44A143.7,143.7,0,0,0,518.29,27,23.52,23.52,0,0,0,507.16,31.8Z"/><path class="cls-1" d="M642.29,29.73c6.07,0,7.92-.09,10.51-.28a42.77,42.77,0,0,0-.71,5.92c-.2,2.67-.39,5.33-.59,8a36.6,36.6,0,0,0-.08,6.3h-13c-.2,2.35-.41,4.7-.61,7-.3,3.38-.38,5.45-.37,7.52-2-.09-4-.19-6.29-.19H591.78l-.41,3H635c3,0,4.8-.09,6.92-.28a59.82,59.82,0,0,0-1,7.14Q640.5,79.47,640,85a74.46,74.46,0,0,0-.21,8.46h-15l.33-3.38H588.23c-.15,1.13-.3,2.25-.46,3.38H572.69a105,105,0,0,0,2.24-11.56l4.89-32.25h-12a43.16,43.16,0,0,0,1.4-6.21q.63-3.9,1.28-7.8a48.63,48.63,0,0,0,.74-6.21c1.53.19,2.55.19,4.74.28l-.63-1.22a39.7,39.7,0,0,0-5.94-7.9c7.94-5,12.89-10.15,15.76-16.64l13.14,2c-1.06,1.79-1.41,2.45-2.26,4h9.54a38,38,0,0,0,8.44-.56c-.27,2.22-.53,4.45-.8,6.68,4.52-4.52,6.27-7.34,7.77-12l13.32,1.88c-1,2-1,2-2.09,4H646.4a63.44,63.44,0,0,0,9.75-.47q-.45,6.45-.91,12.89a56.68,56.68,0,0,0-9.09-.48h-4.83c1.16,2.45,1.38,3,2.22,5.08l-13.7,2.16a42,42,0,0,0-2.57-7.24h-3.19a47.55,47.55,0,0,1-5.73,5.55l-.27,2.35Zm-55.14-8a54.77,54.77,0,0,1-9,8h26.23c.06-.44.12-.87.17-1.31a19.44,19.44,0,0,0,.28-3.67h8.24c-1.46-1.6-1.6-1.88-2.66-2.92-1.18-.09-1.73-.09-2.64-.09h-4.92a36.58,36.58,0,0,1,1.61,4.51l-13.19,2.54a39.89,39.89,0,0,0-1.37-7Zm50.91,18.34H583.41L583,42.9c1.48.09,2.23.09,3.82.09h45.67a48.68,48.68,0,0,0,5.34-.19ZM593,55.21h31l.33-3.19H593.42C593.28,53.08,593.13,54.15,593,55.21Zm-3.36,24.64h36.45c.11-1.1.21-2.2.32-3.29H590.08Z"/><path class="cls-1" d="M664.48,22a54.48,54.48,0,0,0-6.41.38q.46-6.91.94-13.82a70.91,70.91,0,0,0,8.59.47h11.87A68.65,68.65,0,0,0,688,8.58l-.48,13.82a48.19,48.19,0,0,0-6.28-.38h-1.19l-.63,14.67H680a35.76,35.76,0,0,0,5.67-.38l-.47,13.17c-2.16-.19-3.66-.28-5.73-.28h-.56l-.57,13.16c3.2-1.32,4.17-1.69,7.65-3.39l-.39,14c-7.87,3.77-13.66,6.21-27.46,11.57-.7.28-.79.28-2.21.94q-1.23-7.38-2.4-14.76A67.35,67.35,0,0,0,664,67.62q.54-9.21,1.07-18.42H664a46.91,46.91,0,0,0-6.6.37q.43-6.63.88-13.26a44.62,44.62,0,0,0,6.74.38h.84q.42-7.33.85-14.67Zm42.75,50.87h-8.88a86.63,86.63,0,0,0-10.72.38q.21-6.63.43-13.26a79,79,0,0,0,10.46.38h8.85l.06-4.71H699c-6.35,0-8.34.1-10.9.29a123.9,123.9,0,0,0,.78-12.6q.36-11.29.73-22.57a118.36,118.36,0,0,0,0-13.26A113.06,113.06,0,0,0,702.23,8h25.68c7.09,0,9.7-.09,11.84-.47-.2,2.92-.26,7.62-.11,13.92q.27,10.62.52,21.25c.18,7.24.34,10.25.8,13.16-2.85-.19-3.7-.19-9.29-.19H720.78c0,1.57,0,3.14,0,4.71h10.09a74.7,74.7,0,0,0,10.84-.47q.18,6.72.35,13.44a79.61,79.61,0,0,0-10.82-.47H720.83c0,1.82,0,3.64,0,5.45h13a77.13,77.13,0,0,0,11-.47l.39,13.83a86.62,86.62,0,0,0-12.41-.57H694.23a92.46,92.46,0,0,0-12.61.57q.25-6.92.53-13.83a70.07,70.07,0,0,0,10.36.47h14.65C707.18,76.53,707.21,74.71,707.23,72.89Zm-5-52c0,1.85-.06,3.7-.1,5.55h5.6l.06-5.55ZM702,37.44c0,2-.07,3.89-.11,5.83h5.7c0-1.94,0-3.88.07-5.83Zm18.71-11h5.6l-.06-5.55h-5.55C720.68,22.74,720.69,24.59,720.69,26.44Zm0,16.83h5.7c0-1.94,0-3.88-.05-5.83h-5.66C720.73,39.39,720.74,41.33,720.74,43.27Z"/><path class="cls-1" d="M746.17,28.79a3,3,0,0,0,.83.1c2.94,0,11.65-.76,17.66-1.6,1-9.78,1.27-15.33,1.1-18.52,0-.38,0-.94-.09-1.6L782,8.77a9.77,9.77,0,0,0-.38,2.25c-.07.28-.1,1.13-.15,1.69-.13,1.13-.25,2.26-.39,3.39-.47,4.79-.84,8.65-1,10.15a30.68,30.68,0,0,1,3.93-.18c5.68,0,10,1.22,13.35,3.76,5,3.85,7.45,9.59,8.47,20.21,1.43,14.67.39,26.8-2.93,33.38A13.85,13.85,0,0,1,797.13,89a18.77,18.77,0,0,1-7.55,1.32c-4.52,0-9-.66-15.77-2.45a41.19,41.19,0,0,0,0-5.45,44.74,44.74,0,0,0-2.11-11.29c5.62,2.17,10.64,3.39,13.44,3.39,2,0,3.19-1.22,4-4.23,1.14-4.14,1.53-13.64,1-20.88-.3-4-1.05-6.2-2.36-7.52-1.12-1.22-2.45-1.6-5.71-1.6a32.76,32.76,0,0,0-3.71.19A184.66,184.66,0,0,1,764.12,88c-.7,1.78-.88,2.07-1.41,3.48q-8.31-4.1-16.48-8.18c6-7.9,13.26-26.52,16.29-41.66a121,121,0,0,0-14.46,2.73C747.43,39.2,746.79,34,746.17,28.79ZM804.89,9.14a73.64,73.64,0,0,1,10.38,13.45L807,26.91a74,74,0,0,0-10.32-13.73Q800.82,11.17,804.89,9.14Zm13.8,16.27c6.79,8.27,13.51,20.5,18.32,33.38q-7.32,3.66-14.76,7.33c-3.38-11.94-10.53-26.89-16.39-34.22Q812.33,28.65,818.69,25.41ZM816.21,3.5a82.65,82.65,0,0,1,10.54,13.07L818.9,20.8A80.77,80.77,0,0,0,808.57,7.35C811.13,6.07,813.67,4.79,816.21,3.5Z"/><path class="cls-1" d="M851.84,30.86a64.77,64.77,0,0,1-7.17,9.31c-4.94-5.36-6.82-7.05-11.59-10.44C840,23.06,843.9,17,846.22,10.18A20.65,20.65,0,0,0,847.55,4l15,1.79c-.12.37-.64,2.07-1.51,5h39.18a83.81,83.81,0,0,0,11-.56q1.54,6.95,3.08,13.91c-3.36-.28-6.78-.47-11.35-.47H856c-.56,1.13-.78,1.51-1.48,2.92h43.56a89.92,89.92,0,0,0,10.37-.38l2.52,11.75c-3-.28-5.84-.37-10.66-.37H861.84a81.9,81.9,0,0,0-8.94.37Q852.36,34.39,851.84,30.86Zm41.27,26.61c-.58.94-.86,1.41-2.43,4.23a59.67,59.67,0,0,1-5.49,8.75c7.87,5.17,10.34,7,17.13,11.84q-4.05,5.5-8.21,11c-5.88-4.7-10.2-8-17.7-13.25-6.52,5.83-12.68,9.59-23.62,14.57a59.57,59.57,0,0,0-11.48-12.32c11.32-4.23,15.81-6.58,21.85-11.19-6.19-3.95-8.92-5.54-15.95-9.4q4.24-4.37,8.41-8.74h-2a114.74,114.74,0,0,0-11.84.47q-.88-6.63-1.79-13.26a47.75,47.75,0,0,0,7.32.38h50.2c6.43,0,8.27-.1,11.12-.29a75.65,75.65,0,0,0,1.49,9.31c3,14,6.12,22.76,9.9,26.8.63-1.6.25-5.55-.76-10.25-.13-.56-.25-1.13-.37-1.69a47.94,47.94,0,0,0,11.77,6.77c1.2,9.49,1.08,14.57-.23,18a7.34,7.34,0,0,1-7.26,4.6c-5,0-11-4.23-15.4-10.9-4.94-7.62-8.14-16.18-10.91-29.9H882.06Q887.57,55.21,893.11,57.47ZM855.9,53c7.4,3.95,10.75,5.83,16.27,9.21A35.15,35.15,0,0,0,877.43,53Z"/><path class="cls-1" d="M944,10.36c-.72,10.72.93,28.31,4.55,45.42l7.93,2.44a92,92,0,0,0,3,26.33A29.21,29.21,0,0,0,961,89.16l-16.7.75a41.35,41.35,0,0,0-1.67-5c-4.84-12.6-7.41-20.78-9.5-29.72a218.16,218.16,0,0,1-5-36.2A78.74,78.74,0,0,0,927,9Zm36.65,41.09c-2.75,5.55-3.63,9.59-2.68,13,1.21,4.32,6.2,6.67,14.39,6.67a62.56,62.56,0,0,0,22.75-3.85q3.14,8.32,6.29,16.64c-2.45.28-2.45.28-7.95,1.13a116.63,116.63,0,0,1-16.55,1.22c-9.1,0-15.51-1.22-21.33-3.95-6.28-3-11.29-8.84-12.89-15a26.15,26.15,0,0,1,.67-14.67c.74-2.16,1.06-3.1,2.59-6.76ZM953.14,17.51a79,79,0,0,0,16.56,1.41c12.09,0,20.79-.75,26.35-2.35l5.73,16.08c-.83,0-1.72.09-6.63.66a186.59,186.59,0,0,1-19.2,1,157,157,0,0,1-16.11-.75c-.77-.1-1.41-.1-2.73-.19Q955.13,25.45,953.14,17.51Z"/><path class="cls-1" d="M1039,7.45c.08,1.69,0,1.69,1,7.52.38,2.26.51,3.1.84,5.27,5.59-.66,9.25-1.32,11.8-2.26l6.06,15.23c-2.14.19-2.14.19-6.55.75-2.39.29-7.31.76-9.56.94a139.62,139.62,0,0,1-.54,27.27c-.49,4.33-.75,6-2,13.35a27.08,27.08,0,0,0-.59,3.67Q1030.21,75,1021,70.82c4-8.93,6-22.28,5.6-35.54h-5.18c-2.13,0-2.13,0-4.29-.09h-3.61l-4.95-15a77.4,77.4,0,0,0,13.61.94c1,0,1.46,0,3.25-.09a33.14,33.14,0,0,1-.56-3.95,68.66,68.66,0,0,0-2.55-11.19Zm71.32,79.26a94.91,94.91,0,0,0-16.72-10.25c1.47,4.42,1.4,7.15-.21,9.78-2.36,3.67-8.42,5.83-16.3,5.83s-15.41-2.25-20.82-6.2a24.76,24.76,0,0,1-9-11.66c-3.79-10.91,2.71-18.53,15.84-18.53a42.88,42.88,0,0,1,6.84.57c-1.65-3.58-2.43-5.36-3.25-7.52-1.48-3.86-2.44-6.87-3.69-11.1l15.58.66a50.08,50.08,0,0,0,3.22,10.62A111,111,0,0,0,1087,59.82a119.15,119.15,0,0,1,18.13,8.37c.37.19,2.41,1.41,6.25,3.67Q1110.9,79.29,1110.35,86.71ZM1068.65,69c-4.51,0-6.7,1.88-5.63,4.79,1,2.73,4.37,4.51,8.55,4.51,4.86,0,6.59-2.06,5.07-6a13.37,13.37,0,0,0-1-2.07A20.72,20.72,0,0,0,1068.65,69Zm24.42-26.43a212.06,212.06,0,0,0-34.21-13.54q1.35-6.48,2.57-13a247.1,247.1,0,0,1,32.63,12.69Q1093.61,35.71,1093.07,42.61Z"/><path class="cls-1" d="M1098.54,10.36a103.45,103.45,0,0,0,13.26.66c8,0,17.85-.37,26.58-1.13,3.82-.28,4.85-.56,6.19-1.31q6.47,5.68,13,11.37c-1.7,1.41-1.58,1.41-8.73,12.32a76.57,76.57,0,0,1-7.95,10.25,36.65,36.65,0,0,1,12-1.69,42.72,42.72,0,0,1,23.15,6.39,40.84,40.84,0,0,1,15.16,16.27c4.86,9.49,4.17,17-2.21,22.09-4.87,3.76-13.29,5.93-23.13,5.93-16.68,0-29.58-6.3-34.15-16.74-3.82-8.74,1.29-15,12.29-15,6.85,0,14.17,2.63,20.51,7.24a45.53,45.53,0,0,1,8,7.42c4.12-2.25,5-5.45,2.58-10.24-3.26-6.59-11.68-10.63-22.15-10.63-10,0-19.14,3.1-25.27,8.65a38.62,38.62,0,0,0-6.1,7q-7.58-7.14-15-14.29c7.08-4,20.08-19.46,25.9-31-4.58.57-8.15.76-20.76,1.41-2.44.1-4.09.29-5.84.47Q1102.21,18.07,1098.54,10.36Zm50.6,61.31c-2.22,0-3.19,1.22-2.34,3.1,1.16,2.54,5,4.14,10.24,4.14a13.69,13.69,0,0,0,3.08-.28C1156.73,74.11,1152.9,71.67,1149.14,71.67Z"/><path class="cls-1" d="M1204.28,12.71a68,68,0,0,0-4.55-7.24h15.49a55.75,55.75,0,0,0,3.6,7.24q1.26,2.22,2.53,4.42h22.32a80.51,80.51,0,0,0,12.11-.65q4.6,7.51,9.2,15a107.93,107.93,0,0,0-12.51-.56h-32.8c2.46,4.88,2.57,5.07,3.87,7.89h27.15a75,75,0,0,0,9.44-.37c1.72,3.48,2.06,4,7.39,13.54,9.56,17,14.18,27,14.9,32.62,1,6.21-2.26,8.28-12.42,8.28-2.46,0-6.9-.19-12.87-.47a75.7,75.7,0,0,0-12.2-14.58,133.18,133.18,0,0,0,14.75,1c5,0,5.51-1.22,3.13-7a190.82,190.82,0,0,0-9.88-19.56h-23.78a58.86,58.86,0,0,1,3,17.49c.07,9.22-3,16.46-10.51,24.07a85.94,85.94,0,0,0-17.48-12.5c10.33-8.47,12.72-16.08,9.5-28.68-1.77-6.58-4.42-13-9.14-21.81h-11.42a119.12,119.12,0,0,0-12.52.56l-7.78-15a107.73,107.73,0,0,0,12.86.65h21Z"/><path class="cls-1" d="M1279.94,52.58c2.07-2.91,3.81-8.56,5.29-19.09,1.11-7.71,1.14-8.18,2-10.15,1.08-2.73,3.73-4.23,7.37-4.23s8.26,1.5,13.12,4.42c3.6,2.07,3.54,2.07,16.76,11,12.48,8.37,29.38,18.61,44.66,26.89a105.88,105.88,0,0,0,12.39,6q2.36,9.21,4.54,18.43c-2.13-1.23-3-1.7-5.76-3.2-21.16-11.57-34.24-19.46-65.09-40.15-5.49-3.67-6.65-4.32-8-4.32s-1.48.09-2.2,8.83a102.62,102.62,0,0,1-2.78,16.27c-.62,2.35-.62,2.35-1,3.76-.22,1-.21,1-.43,2.07Q1290.26,60.85,1279.94,52.58Z"/><path class="cls-1" d="M1401,64.24c-1.2-1.88-1.82-2.73-2.93-4.23-1.31-1.79-1.32-1.79-5.78-7.34q-11.91-14.89-23.77-29.8c-3-3.86-6.58-8.09-10.4-12.69h21c1.37,2.16,5.81,8.74,8.51,12.69q10.37,14.89,20.64,29.8c2.8,3.95,4.12,5.83,5.17,7.25.72.93,1.49,2,3.36,4.32Zm16,24.16-13.06-17.77h19.35q6.7,8.9,13.42,17.77Z"/><path class="cls-2" d="M76,12.06a30.6,30.6,0,0,0,.48-5.55L91.83,4.25A44.23,44.23,0,0,1,91,12.06h11.82c4.21-3.29,6.48-5.27,9.33-7.81L125,6.6c-2.82,2.17-5.24,3.86-7.51,5.46h7.85a88.35,88.35,0,0,0,11-.57l-8.57,12.88A57,57,0,0,0,120,24h-6l7.92,3.19c-4.33,3.86-7.77,6.77-11.5,9.69h1.76a72.51,72.51,0,0,0,10-.47l-8.6,13a62,62,0,0,0-9.46-.47H37.67a82.67,82.67,0,0,0-10.23.47l9.83-13a58.52,58.52,0,0,0,9.38.47h1.67A37.76,37.76,0,0,0,50,27.19L61.84,24H57.36a81.56,81.56,0,0,0-8.7.37l9.72-12.88a67.85,67.85,0,0,0,10,.57ZM28,61.42c3.65-4.89,5.31-7.24,6.85-9.69a84,84,0,0,0,9,.38H92.93a90.08,90.08,0,0,0,9.59-.38c-1.8,2.26-3.48,4.61-6.9,9.69L81.75,82c-3.29,4.89-5.63,8.65-7.07,11.38H59l2.13-3.1H21.44l-2.26,3.1H3.5C6,90.57,8.86,87,12.38,82.29ZM64,36.88,73.36,24H65c-.13,2.91-.39,4.51-1.68,9.68l-12,3.2ZM39.1,66.12H77.8l2.59-3.76H41.85ZM29.21,79.66H68.47c.86-1.25,1.72-2.51,2.59-3.76H32ZM81.44,36.88,90.55,24H86.16L77,36.88Zm25,0-7.28-2.63A127.86,127.86,0,0,0,110.85,24h-7.5L94.43,36.88Z"/><path class="cls-2" d="M160.42,43.46a26.68,26.68,0,0,0,5.28.38,23.72,23.72,0,0,0-2-8.37l-2.38,3.85c-2.68-.18-4.66-.28-9.12-.28H140.82l-3.55,5.55H148.5a79.62,79.62,0,0,0,9.53-.28l-8.19,13.25c-2.73-.18-4.76-.28-9.31-.28H129.15l-4.58,7.15c10.64-.94,13.11-1.22,23.86-2.73l-7.37,12.13c-9.82,2-15.29,2.82-25.15,4.14q-1.64,2.53-3.25,5.07a112.39,112.39,0,0,0-6.09,10.44H90.7c3.08-4,4.88-6.39,7.46-10.34l2.28-3.48c-2.77.38-2.77.38-3.77.56l8.41-15a25.41,25.41,0,0,0,3,.19c.38,0,.48,0,1.69-.09l30.68-46.83C143.26,14.31,144,13,145.74,10A133.91,133.91,0,0,0,174.48,6a43.93,43.93,0,0,0,5.83-1.88c-.6,4.51-1.15,9-1.68,13.54-2.47.47-2.65.47-6.57,1.22-8.45,1.6-13.72,2.44-20.35,3.1-.92,1.44-1.84,2.89-2.77,4.33H160a77.33,77.33,0,0,0,9.43-.28l-4,6.48C171.74,29,177.33,23,183.29,13.18a36.47,36.47,0,0,0,3.11-5.83,49.93,49.93,0,0,0,5.84.29h17.32a46.68,46.68,0,0,0,6.81-.29c-1.27,1.89-2.49,3.86-4.23,6.87l-7.59,13.16c-.55.94-.43,1.22.58,1.22a3.07,3.07,0,0,0,2.54-1.22c1.12-1.31,2.88-4.23,5.84-9.4A18.36,18.36,0,0,0,221,22.31c-4.81,8.08-7.78,12.22-10.55,14.66C207,40.17,204,41,196.78,41c-10.63,0-12-1.23-8.4-7.24l7.66-13h-4.82a64.07,64.07,0,0,1-12.53,15,65.38,65.38,0,0,1-11,8.09h24.77a47.44,47.44,0,0,0,6.33-.29q1.39,3.11,2.84,6.21c-1.2,1.13-2.15,2-4.77,4.42A214.39,214.39,0,0,1,174.4,73.45c4.14,3,8.56,4.8,15.35,6a108,108,0,0,0-14.45,14c-8.5-2.91-13-5.64-17.11-10.25-10.23,5.08-19.37,8.18-32.82,11.1,1.58-5.74,2-8.56,1.48-13.54,11.64-2,17.37-3.57,26-7.15a34.57,34.57,0,0,1-1.37-12.88l13.08-3.85h-5a57.18,57.18,0,0,0-7.62.37Zm6.43,13.45c0,4.13.19,5.54,1.38,8.55a86.77,86.77,0,0,0,11.23-8.55Z"/><path class="cls-2" d="M240.78,66.21c-11.74,12-21.08,17.31-30,17.31-13.14,0-15.58-12-5.89-29.25A88.13,88.13,0,0,1,231.51,25.6c13-9,27-13.83,40.21-13.83,12.07,0,20.61,4.24,23.89,11.57,2.79,6.39,1.71,15.51-3.25,26.14a71.91,71.91,0,0,1-27.09,30.37c-9.37,5.73-18.6,8.74-33.41,10.81,1.1-6.77,1-10.15-.36-15.42,9.44-.66,16.19-2.16,22.69-4.79,9.34-3.86,17.26-11.76,22.12-21.82,3.88-8,4.17-14.38.88-18.52-1.47-1.88-3.06-2.73-6.08-3.29C261,43,251.65,55.12,240.78,66.21Zm1.81-34.41c-8.87,5.27-17.65,14-22.2,22.38-3.63,6.68-3.9,11.94-.54,11.94,2.4,0,6.66-3.29,13.27-10.44a212,212,0,0,0,22-28.67C251,27.57,247.32,29,242.59,31.8Z"/><path class="cls-2" d="M372.76,67.06c-8.09,5-13.05,7.8-18.46,10.53,4.95,1.51,10,2.26,19,2.63a104,104,0,0,0-11.67,14.11c-16.09-2.35-24.89-6-31.5-13.17-.87,2.14-1.75,4.27-2.62,6.4-13.95,2.44-24,4-42,6.3-2.34.37-3.61.56-5.71.84q2.39-7.47,4.8-15a21.08,21.08,0,0,0,2.58.1c.68,0,5.77-.28,9.1-.57q9.11-20.36,18.23-40.71c.33-.75.33-.75.46-1-4.24,1.78-6.66,2.63-11.91,4.51a52.24,52.24,0,0,0,1.22-14.67,125.25,125.25,0,0,0,24.86-9.12c8.9-4.32,14.67-7.9,20.86-13H364.9c2.23,5.54,5.34,9.49,10.77,13.54A46.7,46.7,0,0,0,393.32,27a108.33,108.33,0,0,0-11.08,14.76,56.5,56.5,0,0,1-8.62-4.52q-4.47,11.67-8.93,23.32c-.28.76-.28.75-.39,1Q368.5,64.34,372.76,67.06ZM326.39,42.8h31.38c.43-1.09.87-2.19,1.3-3.29H327.82C327.34,40.61,326.87,41.71,326.39,42.8Zm-5.61,13H352.6c.44-1.1.88-2.2,1.31-3.29H322.2C321.73,53.58,321.25,54.68,320.78,55.78Zm-4.47,10.34Q313.75,72,311.19,78c.52-.1.52-.1,1.24-.19,4.33-.38,10.51-1.22,13.8-1.69-2-3.2-2.41-4.42-3.7-10Zm25.94-40.05a30.65,30.65,0,0,0,1-2.92c-4,2.45-7.14,4.33-10.45,6h8.09ZM356,21.93a31.38,31.38,0,0,1-3.17-5.55,92.84,92.84,0,0,1-7.69,5.55Zm6.51,7.24A55.9,55.9,0,0,1,356.8,23c-.55,1.13-.82,1.79-1.4,3.2-.4,1-.81,2-1.22,3Zm-23.45,37A14.68,14.68,0,0,0,343,71.67a94.77,94.77,0,0,0,10.37-5.55Z"/><path class="cls-2" d="M421.57,53.71H399c-3.21,0-6.08.09-8.7.28q1.7-4.74,3.4-9.49a64.3,64.3,0,0,0,8.57.37h22.18c.28-.88.56-1.75.85-2.63H405.12c-3.36,0-5.82.09-8.22.28.86-1.88,1.68-4,2.55-6.39l2.2-6.21c.93-2.63,1.51-4.51,2.12-6.77,2.5.19,4.38.28,8.13.28h19.46c.3-.91.59-1.81.88-2.72H408.38a97.29,97.29,0,0,0-11.29.47l4.34-11.94A90.3,90.3,0,0,0,413,9.8h22.76a23.64,23.64,0,0,0,1-4.7h14.13a31.34,31.34,0,0,0-2,4.7h23.3a98.91,98.91,0,0,0,11.85-.56l-3.21,11.94a88.89,88.89,0,0,0-10.8-.47H445.54l-.84,2.72H465c3.74,0,5.69-.09,7.94-.28-.79,2.16-1.32,3.76-2.15,6.77q-.87,3.1-1.72,6.21c-.83,3-1.08,4.23-1.49,6.39-2.1-.19-4.4-.28-7.3-.28H438.9l-.81,2.63h21.53a77.74,77.74,0,0,0,9.62-.28,78,78,0,0,0-2.66,8.65c-.26,1-.53,1.94-.8,2.91a33.92,33.92,0,0,0,6.79-.56L469.5,67.06a44.08,44.08,0,0,0-6.58-.47c-.41,1.51-.83,3-1.24,4.51a84.86,84.86,0,0,0-2.43,10.63H444.54c.36-1.22.71-2.45,1.07-3.67H427.85c-.36,1.19-.73,2.38-1.1,3.57-3.18,10.35-6.29,12.13-21.1,12.13-2.66,0-5.39-.09-9.08-.28a34.57,34.57,0,0,0,.29-11.85c5,.47,8.41.76,11.83.76,3,0,3.69-.29,4.24-2,.25-.78.51-1.56.76-2.35H391.18c-4.36,0-6.53.1-9.83.38l3.46-9.69a70.37,70.37,0,0,0,9,.29h22.77l.91-2.83H390.8a73,73,0,0,0-10.71.47Q382,61.37,384,56.06a62.27,62.27,0,0,0,10.07.47h26.63C421,55.59,421.26,54.65,421.57,53.71Zm-7.18-22.28-1,2.82h14.43c.31-.94.61-1.88.92-2.82Zm27,2.82h14.89c.27-.94.55-1.88.82-2.82H442.24Zm10.47,22.28c.27-.94.55-1.88.82-2.82h-17.3l-.87,2.82ZM430.64,69h17.58l.82-2.83H431.51Z"/><path class="cls-2" d="M515.52,66.21c-8.17,12-16,17.31-24.85,17.31-13.13,0-19.13-12-14.53-29.25a58.07,58.07,0,0,1,18.1-28.67,54.47,54.47,0,0,1,36.13-13.83c12.07,0,21.86,4.24,27.3,11.57,4.68,6.39,6.29,15.51,4.49,26.14C560.08,61.7,553.52,72.8,544,79.85c-7.67,5.73-16,8.74-30.21,10.81-.9-6.77-2-10.15-4.92-15.42,9.24-.66,15.55-2.16,21.28-4.79,8.2-3.86,13.78-11.76,15.67-21.82,1.5-8-.09-14.38-4.61-18.52a12.25,12.25,0,0,0-7-3.29C528.84,43,523.11,55.12,515.52,66.21ZM507.16,31.8c-7.32,5.27-13.51,14-15.58,22.38-1.66,6.68-.37,11.94,3,11.94,2.39,0,5.68-3.29,10.18-10.44A143.7,143.7,0,0,0,518.29,27,23.52,23.52,0,0,0,507.16,31.8Z"/><path class="cls-2" d="M642.29,29.73c6.07,0,7.92-.09,10.51-.28a42.77,42.77,0,0,0-.71,5.92c-.2,2.67-.39,5.33-.59,8a36.6,36.6,0,0,0-.08,6.3h-13c-.2,2.35-.41,4.7-.61,7-.3,3.38-.38,5.45-.37,7.52-2-.09-4-.19-6.29-.19H591.78l-.41,3H635c3,0,4.8-.09,6.92-.28a59.82,59.82,0,0,0-1,7.14Q640.5,79.47,640,85a74.46,74.46,0,0,0-.21,8.46h-15l.33-3.38H588.23c-.15,1.13-.3,2.25-.46,3.38H572.69a105,105,0,0,0,2.24-11.56l4.89-32.25h-12a43.16,43.16,0,0,0,1.4-6.21q.63-3.9,1.28-7.8a48.63,48.63,0,0,0,.74-6.21c1.53.19,2.55.19,4.74.28l-.63-1.22a39.7,39.7,0,0,0-5.94-7.9c7.94-5,12.89-10.15,15.76-16.64l13.14,2c-1.06,1.79-1.41,2.45-2.26,4h9.54a38,38,0,0,0,8.44-.56c-.27,2.22-.53,4.45-.8,6.68,4.52-4.52,6.27-7.34,7.77-12l13.32,1.88c-1,2-1,2-2.09,4H646.4a63.44,63.44,0,0,0,9.75-.47q-.45,6.45-.91,12.89a56.68,56.68,0,0,0-9.09-.48h-4.83c1.16,2.45,1.38,3,2.22,5.08l-13.7,2.16a42,42,0,0,0-2.57-7.24h-3.19a47.55,47.55,0,0,1-5.73,5.55l-.27,2.35Zm-55.14-8a54.77,54.77,0,0,1-9,8h26.23c.06-.44.12-.87.17-1.31a19.44,19.44,0,0,0,.28-3.67h8.24c-1.46-1.6-1.6-1.88-2.66-2.92-1.18-.09-1.73-.09-2.64-.09h-4.92a36.58,36.58,0,0,1,1.61,4.51l-13.19,2.54a39.89,39.89,0,0,0-1.37-7Zm50.91,18.34H583.41L583,42.9c1.48.09,2.23.09,3.82.09h45.67a48.68,48.68,0,0,0,5.34-.19ZM593,55.21h31l.33-3.19H593.42C593.28,53.08,593.13,54.15,593,55.21Zm-3.36,24.64h36.45c.11-1.1.21-2.2.32-3.29H590.08Z"/><path class="cls-2" d="M664.48,22a54.48,54.48,0,0,0-6.41.38q.46-6.91.94-13.82a70.91,70.91,0,0,0,8.59.47h11.87A68.65,68.65,0,0,0,688,8.58l-.48,13.82a48.19,48.19,0,0,0-6.28-.38h-1.19l-.63,14.67H680a35.76,35.76,0,0,0,5.67-.38l-.47,13.17c-2.16-.19-3.66-.28-5.73-.28h-.56l-.57,13.16c3.2-1.32,4.17-1.69,7.65-3.39l-.39,14c-7.87,3.77-13.66,6.21-27.46,11.57-.7.28-.79.28-2.21.94q-1.23-7.38-2.4-14.76A67.35,67.35,0,0,0,664,67.62q.54-9.21,1.07-18.42H664a46.91,46.91,0,0,0-6.6.37q.43-6.63.88-13.26a44.62,44.62,0,0,0,6.74.38h.84q.42-7.33.85-14.67Zm42.75,50.87h-8.88a86.63,86.63,0,0,0-10.72.38q.21-6.63.43-13.26a79,79,0,0,0,10.46.38h8.85l.06-4.71H699c-6.35,0-8.34.1-10.9.29a123.9,123.9,0,0,0,.78-12.6q.36-11.29.73-22.57a118.36,118.36,0,0,0,0-13.26A113.06,113.06,0,0,0,702.23,8h25.68c7.09,0,9.7-.09,11.84-.47-.2,2.92-.26,7.62-.11,13.92q.27,10.62.52,21.25c.18,7.24.34,10.25.8,13.16-2.85-.19-3.7-.19-9.29-.19H720.78c0,1.57,0,3.14,0,4.71h10.09a74.7,74.7,0,0,0,10.84-.47q.18,6.72.35,13.44a79.61,79.61,0,0,0-10.82-.47H720.83c0,1.82,0,3.64,0,5.45h13a77.13,77.13,0,0,0,11-.47l.39,13.83a86.62,86.62,0,0,0-12.41-.57H694.23a92.46,92.46,0,0,0-12.61.57q.25-6.92.53-13.83a70.07,70.07,0,0,0,10.36.47h14.65C707.18,76.53,707.21,74.71,707.23,72.89Zm-5-52c0,1.85-.06,3.7-.1,5.55h5.6l.06-5.55ZM702,37.44c0,2-.07,3.89-.11,5.83h5.7c0-1.94,0-3.88.07-5.83Zm18.71-11h5.6l-.06-5.55h-5.55C720.68,22.74,720.69,24.59,720.69,26.44Zm0,16.83h5.7c0-1.94,0-3.88-.05-5.83h-5.66C720.73,39.39,720.74,41.33,720.74,43.27Z"/><path class="cls-2" d="M746.17,28.79a3,3,0,0,0,.83.1c2.94,0,11.65-.76,17.66-1.6,1-9.78,1.27-15.33,1.1-18.52,0-.38,0-.94-.09-1.6L782,8.77a9.77,9.77,0,0,0-.38,2.25c-.07.28-.1,1.13-.15,1.69-.13,1.13-.25,2.26-.39,3.39-.47,4.79-.84,8.65-1,10.15a30.68,30.68,0,0,1,3.93-.18c5.68,0,10,1.22,13.35,3.76,5,3.85,7.45,9.59,8.47,20.21,1.43,14.67.39,26.8-2.93,33.38A13.85,13.85,0,0,1,797.13,89a18.77,18.77,0,0,1-7.55,1.32c-4.52,0-9-.66-15.77-2.45a41.19,41.19,0,0,0,0-5.45,44.74,44.74,0,0,0-2.11-11.29c5.62,2.17,10.64,3.39,13.44,3.39,2,0,3.19-1.22,4-4.23,1.14-4.14,1.53-13.64,1-20.88-.3-4-1.05-6.2-2.36-7.52-1.12-1.22-2.45-1.6-5.71-1.6a32.76,32.76,0,0,0-3.71.19A184.66,184.66,0,0,1,764.12,88c-.7,1.78-.88,2.07-1.41,3.48q-8.31-4.1-16.48-8.18c6-7.9,13.26-26.52,16.29-41.66a121,121,0,0,0-14.46,2.73C747.43,39.2,746.79,34,746.17,28.79ZM804.89,9.14a73.64,73.64,0,0,1,10.38,13.45L807,26.91a74,74,0,0,0-10.32-13.73Q800.82,11.17,804.89,9.14Zm13.8,16.27c6.79,8.27,13.51,20.5,18.32,33.38q-7.32,3.66-14.76,7.33c-3.38-11.94-10.53-26.89-16.39-34.22Q812.33,28.65,818.69,25.41ZM816.21,3.5a82.65,82.65,0,0,1,10.54,13.07L818.9,20.8A80.77,80.77,0,0,0,808.57,7.35C811.13,6.07,813.67,4.79,816.21,3.5Z"/><path class="cls-2" d="M851.84,30.86a64.77,64.77,0,0,1-7.17,9.31c-4.94-5.36-6.82-7.05-11.59-10.44C840,23.06,843.9,17,846.22,10.18A20.65,20.65,0,0,0,847.55,4l15,1.79c-.12.37-.64,2.07-1.51,5h39.18a83.81,83.81,0,0,0,11-.56q1.54,6.95,3.08,13.91c-3.36-.28-6.78-.47-11.35-.47H856c-.56,1.13-.78,1.51-1.48,2.92h43.56a89.92,89.92,0,0,0,10.37-.38l2.52,11.75c-3-.28-5.84-.37-10.66-.37H861.84a81.9,81.9,0,0,0-8.94.37Q852.36,34.39,851.84,30.86Zm41.27,26.61c-.58.94-.86,1.41-2.43,4.23a59.67,59.67,0,0,1-5.49,8.75c7.87,5.17,10.34,7,17.13,11.84q-4.05,5.5-8.21,11c-5.88-4.7-10.2-8-17.7-13.25-6.52,5.83-12.68,9.59-23.62,14.57a59.57,59.57,0,0,0-11.48-12.32c11.32-4.23,15.81-6.58,21.85-11.19-6.19-3.95-8.92-5.54-15.95-9.4q4.24-4.37,8.41-8.74h-2a114.74,114.74,0,0,0-11.84.47q-.88-6.63-1.79-13.26a47.75,47.75,0,0,0,7.32.38h50.2c6.43,0,8.27-.1,11.12-.29a75.65,75.65,0,0,0,1.49,9.31c3,14,6.12,22.76,9.9,26.8.63-1.6.25-5.55-.76-10.25-.13-.56-.25-1.13-.37-1.69a47.94,47.94,0,0,0,11.77,6.77c1.2,9.49,1.08,14.57-.23,18a7.34,7.34,0,0,1-7.26,4.6c-5,0-11-4.23-15.4-10.9-4.94-7.62-8.14-16.18-10.91-29.9H882.06Q887.57,55.21,893.11,57.47ZM855.9,53c7.4,3.95,10.75,5.83,16.27,9.21A35.15,35.15,0,0,0,877.43,53Z"/><path class="cls-2" d="M944,10.36c-.72,10.72.93,28.31,4.55,45.42l7.93,2.44a92,92,0,0,0,3,26.33A29.21,29.21,0,0,0,961,89.16l-16.7.75a41.35,41.35,0,0,0-1.67-5c-4.84-12.6-7.41-20.78-9.5-29.72a218.16,218.16,0,0,1-5-36.2A78.74,78.74,0,0,0,927,9Zm36.65,41.09c-2.75,5.55-3.63,9.59-2.68,13,1.21,4.32,6.2,6.67,14.39,6.67a62.56,62.56,0,0,0,22.75-3.85q3.14,8.32,6.29,16.64c-2.45.28-2.45.28-7.95,1.13a116.63,116.63,0,0,1-16.55,1.22c-9.1,0-15.51-1.22-21.33-3.95-6.28-3-11.29-8.84-12.89-15a26.15,26.15,0,0,1,.67-14.67c.74-2.16,1.06-3.1,2.59-6.76ZM953.14,17.51a79,79,0,0,0,16.56,1.41c12.09,0,20.79-.75,26.35-2.35l5.73,16.08c-.83,0-1.72.09-6.63.66a186.59,186.59,0,0,1-19.2,1,157,157,0,0,1-16.11-.75c-.77-.1-1.41-.1-2.73-.19Q955.13,25.45,953.14,17.51Z"/><path class="cls-2" d="M1039,7.45c.08,1.69,0,1.69,1,7.52.38,2.26.51,3.1.84,5.27,5.59-.66,9.25-1.32,11.8-2.26l6.06,15.23c-2.14.19-2.14.19-6.55.75-2.39.29-7.31.76-9.56.94a139.62,139.62,0,0,1-.54,27.27c-.49,4.33-.75,6-2,13.35a27.08,27.08,0,0,0-.59,3.67Q1030.21,75,1021,70.82c4-8.93,6-22.28,5.6-35.54h-5.18c-2.13,0-2.13,0-4.29-.09h-3.61l-4.95-15a77.4,77.4,0,0,0,13.61.94c1,0,1.46,0,3.25-.09a33.14,33.14,0,0,1-.56-3.95,68.66,68.66,0,0,0-2.55-11.19Zm71.32,79.26a94.91,94.91,0,0,0-16.72-10.25c1.47,4.42,1.4,7.15-.21,9.78-2.36,3.67-8.42,5.83-16.3,5.83s-15.41-2.25-20.82-6.2a24.76,24.76,0,0,1-9-11.66c-3.79-10.91,2.71-18.53,15.84-18.53a42.88,42.88,0,0,1,6.84.57c-1.65-3.58-2.43-5.36-3.25-7.52-1.48-3.86-2.44-6.87-3.69-11.1l15.58.66a50.08,50.08,0,0,0,3.22,10.62A111,111,0,0,0,1087,59.82a119.15,119.15,0,0,1,18.13,8.37c.37.19,2.41,1.41,6.25,3.67Q1110.9,79.29,1110.35,86.71ZM1068.65,69c-4.51,0-6.7,1.88-5.63,4.79,1,2.73,4.37,4.51,8.55,4.51,4.86,0,6.59-2.06,5.07-6a13.37,13.37,0,0,0-1-2.07A20.72,20.72,0,0,0,1068.65,69Zm24.42-26.43a212.06,212.06,0,0,0-34.21-13.54q1.35-6.48,2.57-13a247.1,247.1,0,0,1,32.63,12.69Q1093.61,35.71,1093.07,42.61Z"/><path class="cls-2" d="M1098.54,10.36a103.45,103.45,0,0,0,13.26.66c8,0,17.85-.37,26.58-1.13,3.82-.28,4.85-.56,6.19-1.31q6.47,5.68,13,11.37c-1.7,1.41-1.58,1.41-8.73,12.32a76.57,76.57,0,0,1-7.95,10.25,36.65,36.65,0,0,1,12-1.69,42.72,42.72,0,0,1,23.15,6.39,40.84,40.84,0,0,1,15.16,16.27c4.86,9.49,4.17,17-2.21,22.09-4.87,3.76-13.29,5.93-23.13,5.93-16.68,0-29.58-6.3-34.15-16.74-3.82-8.74,1.29-15,12.29-15,6.85,0,14.17,2.63,20.51,7.24a45.53,45.53,0,0,1,8,7.42c4.12-2.25,5-5.45,2.58-10.24-3.26-6.59-11.68-10.63-22.15-10.63-10,0-19.14,3.1-25.27,8.65a38.62,38.62,0,0,0-6.1,7q-7.58-7.14-15-14.29c7.08-4,20.08-19.46,25.9-31-4.58.57-8.15.76-20.76,1.41-2.44.1-4.09.29-5.84.47Q1102.21,18.07,1098.54,10.36Zm50.6,61.31c-2.22,0-3.19,1.22-2.34,3.1,1.16,2.54,5,4.14,10.24,4.14a13.69,13.69,0,0,0,3.08-.28C1156.73,74.11,1152.9,71.67,1149.14,71.67Z"/><path class="cls-2" d="M1204.28,12.71a68,68,0,0,0-4.55-7.24h15.49a55.75,55.75,0,0,0,3.6,7.24q1.26,2.22,2.53,4.42h22.32a80.51,80.51,0,0,0,12.11-.65q4.6,7.51,9.2,15a107.93,107.93,0,0,0-12.51-.56h-32.8c2.46,4.88,2.57,5.07,3.87,7.89h27.15a75,75,0,0,0,9.44-.37c1.72,3.48,2.06,4,7.39,13.54,9.56,17,14.18,27,14.9,32.62,1,6.21-2.26,8.28-12.42,8.28-2.46,0-6.9-.19-12.87-.47a75.7,75.7,0,0,0-12.2-14.58,133.18,133.18,0,0,0,14.75,1c5,0,5.51-1.22,3.13-7a190.82,190.82,0,0,0-9.88-19.56h-23.78a58.86,58.86,0,0,1,3,17.49c.07,9.22-3,16.46-10.51,24.07a85.94,85.94,0,0,0-17.48-12.5c10.33-8.47,12.72-16.08,9.5-28.68-1.77-6.58-4.42-13-9.14-21.81h-11.42a119.12,119.12,0,0,0-12.52.56l-7.78-15a107.73,107.73,0,0,0,12.86.65h21Z"/><path class="cls-2" d="M1279.94,52.58c2.07-2.91,3.81-8.56,5.29-19.09,1.11-7.71,1.14-8.18,2-10.15,1.08-2.73,3.73-4.23,7.37-4.23s8.26,1.5,13.12,4.42c3.6,2.07,3.54,2.07,16.76,11,12.48,8.37,29.38,18.61,44.66,26.89a105.88,105.88,0,0,0,12.39,6q2.36,9.21,4.54,18.43c-2.13-1.23-3-1.7-5.76-3.2-21.16-11.57-34.24-19.46-65.09-40.15-5.49-3.67-6.65-4.32-8-4.32s-1.48.09-2.2,8.83a102.62,102.62,0,0,1-2.78,16.27c-.62,2.35-.62,2.35-1,3.76-.22,1-.21,1-.43,2.07Q1290.26,60.85,1279.94,52.58Z"/><path class="cls-2" d="M1401,64.24c-1.2-1.88-1.82-2.73-2.93-4.23-1.31-1.79-1.32-1.79-5.78-7.34q-11.91-14.89-23.77-29.8c-3-3.86-6.58-8.09-10.4-12.69h21c1.37,2.16,5.81,8.74,8.51,12.69q10.37,14.89,20.64,29.8c2.8,3.95,4.12,5.83,5.17,7.25.72.93,1.49,2,3.36,4.32Zm16,24.16-13.06-17.77h19.35q6.7,8.9,13.42,17.77Z"/></g></g></svg>