<svg xmlns="http://www.w3.org/2000/svg" width="1154.9" height="166.06" viewBox="0 0 1154.9 166.06"><defs><style>.cls-1{fill:#170504;}</style></defs><title>lp_pr1</title><g id="レイヤー_2" data-name="レイヤー 2"><g id="レイヤー_1-2" data-name="レイヤー 1"><path class="cls-1" d="M18.66,5.5A40.43,40.43,0,0,0,18.38.42h7.85A36.07,36.07,0,0,0,26,5.5V16.88h8.32l-5.4-3.15A48.53,48.53,0,0,0,35.31,2.12l6.91,3.15A88.52,88.52,0,0,1,35.4,16.88h2.44a30.42,30.42,0,0,0,3.81-.19,35.36,35.36,0,0,0-.19,4.23V39a45.53,45.53,0,0,0,.29,5.93H34.22V42.78H8.37a47,47,0,0,0-5.83.28V36a40.49,40.49,0,0,0,5.5.24H34.32V32.91H9.12c-2.4,0-3.62.05-4.84.14V26.47A37.46,37.46,0,0,0,9,26.66H34.32V23.55H8.23c-2.26,0-3.72.05-5.31.19V16.6a47,47,0,0,0,5.31.28H9.4a56.41,56.41,0,0,0-7-11.29L8.65,2.12A65.84,65.84,0,0,1,16,13.68L10,16.88h8.69Z"/><path class="cls-1" d="M64.31,2.77A12.32,12.32,0,0,0,64.12.33h7.76a12.13,12.13,0,0,0-.19,2.54V4.28H82A58.71,58.71,0,0,0,88.62,4v7.24c-1.89-.15-4.42-.24-6.49-.24H55.61v2.07c0,16.31-1.5,24.82-5.54,31.69a23.65,23.65,0,0,0-5.79-5.88c3.2-5.74,4.09-11.89,4.09-27.55,0-3.53,0-5.64-.14-7.29,1.84.14,3.86.24,6.21.24h9.87Zm2.11,14.39A43.61,43.61,0,0,0,66.24,12h7.28c-.09.94-.14,1.64-.18,3.19h9.12A44,44,0,0,0,87.77,15v7c-1.6-.15-3.34-.24-5.08-.24H73.34V25.1h8.18a33.93,33.93,0,0,0,4.32-.18,44.28,44.28,0,0,0-.23,5.26v8a54.52,54.52,0,0,0,.28,6.45H78.41V42.78H63.84v1.79H56.46a47.26,47.26,0,0,0,.28-6V29.15c0-1.79-.05-3.06-.14-4.23a34.61,34.61,0,0,0,4.28.18h5.54ZM63.84,36.29H78.41v-4.6H63.84Z"/><path class="cls-1" d="M103.61,2.59a26.81,26.81,0,0,0-1.36,4.65A85.4,85.4,0,0,0,100,25.48l3.62,1.22a42.77,42.77,0,0,0-2,14.34c0,.24,0,.85.14,1.88l-8,.33c0-.84,0-.84-.37-3.71a91.66,91.66,0,0,1-1-14.25,93.52,93.52,0,0,1,1.88-19,29.15,29.15,0,0,0,.57-4.09V2Zm1.69,7.66a42,42,0,0,0,8.79.75c1,0,1.79,0,3.39-.05V4.84a12.27,12.27,0,0,0-.24-2.63l8.14,0a54.16,54.16,0,0,0-.38,8.23,43.41,43.41,0,0,0,7.48-1.46l.28,7.48a11.48,11.48,0,0,0-1.74.28c-1.46.33-3.57.61-5.92.89,0,3.67.09,4.61.42,10a37,37,0,0,1,7.57,4.28,7.18,7.18,0,0,0,.89.56l-3,8a24,24,0,0,0-5.6-4.47v.38c0,4-4.09,6.68-10.1,6.68-6.91,0-11-3.29-11-8.75a8.27,8.27,0,0,1,3.57-6.91,12.45,12.45,0,0,1,7.24-1.93,13.71,13.71,0,0,1,2.73.29c0-1.32,0-1.56-.15-3.76,0-1.6,0-2.26-.09-3.91-1.08.05-1.74.05-2.68.05-1.41,0-4.14-.09-8.09-.23-.56-.05-.94-.05-1.08-.05h-.56ZM118,32.63a7.45,7.45,0,0,0-2.87-.57c-2.16,0-3.48.85-3.48,2.17s1.22,2,3.1,2c2.26,0,3.29-.85,3.29-2.73Z"/><path class="cls-1" d="M140.51,13.68a64.87,64.87,0,0,1,13.12,6.63l-4,7.38a53.9,53.9,0,0,0-13.44-7.29Zm-3,20.55a47.26,47.26,0,0,0,14.53-3.11A28.32,28.32,0,0,0,165.24,21a36.34,36.34,0,0,0,5.17-10.34,29.53,29.53,0,0,0,6.87,5.83c-2.4,5.64-4.33,8.89-7.34,12.27A38.33,38.33,0,0,1,151.8,40.29a63.48,63.48,0,0,1-8.56,2.07,32.73,32.73,0,0,0-3.34.75ZM144,2.16a79.55,79.55,0,0,1,13.49,6.16l-4.18,7.19a58.55,58.55,0,0,0-13.5-6.72Z"/><path class="cls-1" d="M187,13.45a20.89,20.89,0,0,0-1-4l7.71-1.13a20.84,20.84,0,0,0,.43,4l.56,2.83,13.87-2.31a5.67,5.67,0,0,0,2.77-.89l4.42,4a6.54,6.54,0,0,0-1.17,2.54,29.62,29.62,0,0,1-9.41,13.35,20.5,20.5,0,0,0-6-4.51A20.93,20.93,0,0,0,206.24,20l-10.35,1.79,2.78,14.48a39.75,39.75,0,0,0,1.55,6.53L192,44.19a48.41,48.41,0,0,0-.85-6.53L188.65,23l-3.05.52a34.54,34.54,0,0,0-4.66,1.08l-1.27-7.2a41.79,41.79,0,0,0,5-.51l2.82-.47Z"/><path class="cls-1" d="M220.34,22.57a43.54,43.54,0,0,0,.28-6.16V9.17c0-2.68-.05-3.43-.14-4.8a38.5,38.5,0,0,0,5.36.28h24.3a8.13,8.13,0,0,0,4-.61l4.14,3.81a4.46,4.46,0,0,0-.76,2.4c-1.17,9.82-2.77,15.09-6,20.12A31.89,31.89,0,0,1,240,40.57a48.67,48.67,0,0,1-6.63,3.1,28.94,28.94,0,0,0-5.6-7.8,33.24,33.24,0,0,0,9.55-3.95c7-4.42,10.1-9.82,11-19.51H229.08v4.14a35.82,35.82,0,0,0,.24,6Z"/><path class="cls-1" d="M260.91,17.91a66.48,66.48,0,0,0,9.63.42H293a76.93,76.93,0,0,0,9.63-.42V27A88.53,88.53,0,0,0,293,26.7H270.59c-5.26,0-6.82.05-9.68.29Z"/><path class="cls-1" d="M310.12,28A60.23,60.23,0,0,1,321.6,38.55l-6,6.07a60.54,60.54,0,0,0-11.1-11.19Z"/><path class="cls-1" d="M338.05,38.93v3.24h-8.56a58.38,58.38,0,0,0,.38-7.66V10.34c0-2-.05-3.48-.19-5.4a56.08,56.08,0,0,0,5.69.18h25.34a55.87,55.87,0,0,0,5.83-.18c-.1,1.64-.14,3.33-.14,5.54V34.32a62.38,62.38,0,0,0,.33,7.76h-8.51V38.93Zm20.17-26.28H338.05V31.4h20.17Z"/><path class="cls-1" d="M379,12.18a58.86,58.86,0,0,1,4.56,11.89l-7.33,2.21a59.31,59.31,0,0,0-4.19-12.18Zm27.36.8a19.62,19.62,0,0,0-.7,2.86c-1.41,6.63-3.24,11.43-5.88,15.33A34.06,34.06,0,0,1,390,40.71a62,62,0,0,1-5.69,3.15,24.24,24.24,0,0,0-5.17-6.63c9.45-3.66,14.57-8.36,17.49-16.17a33,33,0,0,0,2.07-9.92Zm-17-2.78A48.51,48.51,0,0,1,394,21.67l-7.2,2.21a55,55,0,0,0-4.23-11.8Z"/><path class="cls-1" d="M424.92,9.78c.15-1.83.24-4.56.24-6A13.24,13.24,0,0,0,425,1.41l8.84.24c-.24,1.08-.24,1.22-.52,5.68,0,1.27,0,1.27-.14,2.4h10.25a6.72,6.72,0,0,0,3.15-.52l3.66,3.2c-.51.94-.61,1.32-.65,3.48-.33,10.06-1,17.91-2,21-1.36,4.37-3.62,5.87-8.84,5.87a57,57,0,0,1-6.16-.37A23,23,0,0,0,431,34.13a27,27,0,0,0,6.11.94c2.25,0,2.82-.75,3.43-4.84a108.63,108.63,0,0,0,.89-13.12h-9a38.55,38.55,0,0,1-.7,4.7c-2.07,9.5-6.54,15.61-16.08,21.91a27.3,27.3,0,0,0-6.11-7.14c6.25-3.29,9.87-6.63,12.22-11.38a24.86,24.86,0,0,0,2.35-8H418.3a49.12,49.12,0,0,0-6.35.28l-.05-8a36.6,36.6,0,0,0,6.54.38Z"/><path class="cls-1" d="M454.17,17.91a66.4,66.4,0,0,0,9.63.42h22.47a77,77,0,0,0,9.64-.42V27a88.53,88.53,0,0,0-9.68-.29H463.85a96.78,96.78,0,0,0-9.68.29Z"/><path class="cls-1" d="M514.38,3.29c-.18,1.6-.18,1.6-.51,10.91-.28,9.82-1.22,15-3.48,20.17a31.38,31.38,0,0,1-6.54,9.4,25.26,25.26,0,0,0-6.72-6.58,21.1,21.1,0,0,0,5.6-7.48c2.21-4.61,3-10.43,3-22.61a34.74,34.74,0,0,0-.19-4.33Zm13.31-.75A34.18,34.18,0,0,0,527.31,8l-.23,24.64a18.18,18.18,0,0,0,5.64-5.17,24,24,0,0,0,3.67-8,31.3,31.3,0,0,0,6.25,6.2c-2.12,5.27-4.56,8.89-8.13,11.94-2.82,2.4-5.13,3.62-9.88,5.36a10.36,10.36,0,0,0-2.3,1l-4-4.23a10.36,10.36,0,0,0,.51-4L519,7.9V6.21a28.1,28.1,0,0,0-.19-3.67Z"/><path class="cls-1" d="M543.67,17.91a66.64,66.64,0,0,0,9.64.42h22.47a77.11,77.11,0,0,0,9.64-.42V27a88.86,88.86,0,0,0-9.69-.29H553.36c-5.27,0-6.82.05-9.69.29Z"/><path class="cls-1" d="M611.56,3.38a18.8,18.8,0,0,0-1.23,3.48c-3.66,12.18-5.69,18.15-8.74,26A142.38,142.38,0,0,0,617.71,31a78.28,78.28,0,0,0-5.92-11.19L619.17,17a101.19,101.19,0,0,1,11.19,22.47l-8,4.09a34.78,34.78,0,0,0-1.74-5.26c-6.72,1.17-11.52,1.83-18.8,2.58l-10.77,1a25.2,25.2,0,0,0-2.58.42l-1.23-8.79c.9,0,1.27,0,1.51,0a11.15,11.15,0,0,0,1.17,0l1.46-.05a10.32,10.32,0,0,0,1.18,0,217.69,217.69,0,0,0,7.8-23.37,41.83,41.83,0,0,0,1.83-8.41Z"/><path class="cls-1" d="M637.41,27.88a41,41,0,0,0-5.36.23V21.2a37.75,37.75,0,0,0,5.36.24h31.17a36.39,36.39,0,0,0,5.22-.24v6.91a40.35,40.35,0,0,0-5.32-.23h-7.75V36.2c0,1.08.51,1.27,3.29,1.27,2.58,0,3.43-.24,3.76-1a18.19,18.19,0,0,0,.42-3.85,8.37,8.37,0,0,0,0-.9,24.31,24.31,0,0,0,6.76,1.79c-.18,5.5-.94,7.94-2.91,9.36-1.46,1-3.53,1.26-9.64,1.26-7.43,0-8.88-.7-8.88-4.41V27.88H650c-.42,4.46-1.13,6.86-2.87,9.45a18.49,18.49,0,0,1-7.85,6.11,28.53,28.53,0,0,1-5,1.69,23.83,23.83,0,0,0-3.76-6.72,19.35,19.35,0,0,0,8.65-3.34c2.12-1.55,3.2-3.67,3.53-7.19ZM648.79,3.71A20.92,20.92,0,0,0,648.6.52h7.9a17.91,17.91,0,0,0-.24,3.15v.56h12.13c2.63,0,4.18-.05,5.69-.19A28,28,0,0,0,673.89,8V12.6a24.54,24.54,0,0,0,.24,4H667V10.67H638.87v5.88h-7.2a23.86,23.86,0,0,0,.29-4V8A29.68,29.68,0,0,0,631.77,4c1.46.14,3,.19,5.59.19h11.43Zm-8.79,9a43.39,43.39,0,0,0,4.79.19h16.27a43.94,43.94,0,0,0,4.84-.19v6.63a43.47,43.47,0,0,0-4.84-.19H644.79a42.81,42.81,0,0,0-4.79.19Z"/><path class="cls-1" d="M700.45,37v2.4a27.27,27.27,0,0,0,.24,5.22H694a38.15,38.15,0,0,0,.24-5.22V25.29a69,69,0,0,1-1.18,9.26,35.21,35.21,0,0,1-3.1,10,29.88,29.88,0,0,0-3.76-5,36,36,0,0,0,.28,5.13H679a42.57,42.57,0,0,0,.28-5.41V27.6c0-1,0-2.07.1-5.22a25.19,25.19,0,0,1-2.21,3.1,46.07,46.07,0,0,0-2.35-8.7,28.2,28.2,0,0,0,5.59-9.07A31.65,31.65,0,0,0,682.68,0l7.1,1.65c-.19.61-.24.8-.52,1.59,1.32.1,2.68.14,4.56.14h.75V2.77a10.15,10.15,0,0,0-.18-2.35h7.19a17.14,17.14,0,0,0-.14,2.31v.65h4.7V2.77A13.39,13.39,0,0,0,706,.42h7.14A16.61,16.61,0,0,0,713,2.73v.65h1.41a30.91,30.91,0,0,0,5-.28V9.59a47.38,47.38,0,0,0-5-.14H713v2.26h1.65a48.14,48.14,0,0,0,5.26-.19V18a39.45,39.45,0,0,0-4.37-.19H694.62v1.36c1.22.1,2.49.15,4.7.15h15a36.42,36.42,0,0,0,4.37-.19A40.34,40.34,0,0,0,718.5,24V39.87c0,3.76-1.08,4.42-7.71,4.56a23.06,23.06,0,0,0-1.12-5.17c.61,0,1.12.09,1.64.09.71,0,.8-.14.8-.94V37h-3v1.79a44.92,44.92,0,0,0,.19,5.31h-6.26a39.9,39.9,0,0,0,.24-5.31V37Zm-14.24-1.46a24.94,24.94,0,0,0,1.17-4.65,108.72,108.72,0,0,0,.71-13.59c0-2.77-.05-4-.19-5.78,1.88.14,2.63.19,5.17.19h1.5V9.45h-.75c-2.77,0-3.52.05-4.93.14v-5a40.69,40.69,0,0,1-2.68,6.91Zm17.11-11.33h-2.87v1.93h2.87Zm0,6.25h-2.87v2h2.87Zm2.82-18.75V9.45h-4.7v2.26Zm6,14.43V24.21h-3v1.93Zm0,6.3v-2h-3v2Z"/><path class="cls-1" d="M739,35.78a8.93,8.93,0,1,1-8.93-8.94A8.93,8.93,0,0,1,739,35.78Zm-13,0a4.09,4.09,0,1,0,4.09-4.09A4.1,4.1,0,0,0,726,35.78Z"/><path class="cls-1" d="M6.68,103.6A69.5,69.5,0,0,0,7,96.41V69a44.7,44.7,0,0,0-.33-6.81H15.7a60.51,60.51,0,0,0-.23,6.86v6.44a100.36,100.36,0,0,1,21.39,9.78l-4.47,8a87.18,87.18,0,0,0-14.81-8.18,11.64,11.64,0,0,1-2.11-.94V96.41a68.41,68.41,0,0,0,.28,7.19Z"/><path class="cls-1" d="M53,63.22A44.6,44.6,0,0,0,52.7,69l-.28,24.91c9.49-2.11,16.55-7.47,20.82-16a26,26,0,0,0,6.35,6.77c-6.82,10.53-15.51,16-29.38,18.38a6.88,6.88,0,0,0-2.82.85L43.2,99c.47-1,.52-1.51.57-3.86L44,69v-.75a36.86,36.86,0,0,0-.29-5.12Z"/><path class="cls-1" d="M81.84,78.35a66.24,66.24,0,0,0,9.64.43H114a76.71,76.71,0,0,0,9.64-.43v9.08a88.64,88.64,0,0,0-9.68-.29H91.53c-5.27,0-6.82,0-9.69.29Z"/><path class="cls-1" d="M126.83,90.29a49.88,49.88,0,0,0,7.85.38H159a49.31,49.31,0,0,0,8.32-.38v8.8a75.9,75.9,0,0,0-8.18-.24H134.54a72.14,72.14,0,0,0-7.71.24Zm4.75-23.36a49.91,49.91,0,0,0,7.34.33h15.93a61.25,61.25,0,0,0,7.81-.33v8.6c-2.68-.19-3.91-.23-7.71-.23H138.82c-3.48,0-5.59.09-7.24.23Z"/><path class="cls-1" d="M176.15,64.44a68.93,68.93,0,0,1,12.93,9.21L183.53,81a50.23,50.23,0,0,0-12.79-9.92Zm-4.94,29.19a47.06,47.06,0,0,0,14.15-3.38,28.29,28.29,0,0,0,13.78-11.61,43.39,43.39,0,0,0,4.6-9.22,30.8,30.8,0,0,0,6.91,6.3c-4.27,9.26-8.74,14.81-15.32,19-5.08,3.29-9.54,5-18.29,7-1.83.43-2.12.47-3.38.85Z"/><path class="cls-1" d="M250.71,72.67a20,20,0,0,0-1.22,3.19C245,90,237.07,98.71,223,105.06a24,24,0,0,0-5.64-7.2C229.74,93.4,237.4,85.92,240.88,75l-12.5.14a45.68,45.68,0,0,1-10.67,11.8A24,24,0,0,0,211,81.27a37.55,37.55,0,0,0,12.5-14.34,17.82,17.82,0,0,0,2-5.64l8.88,1.6c-.23.47-.28.51-.56,1.12,0,.15-.19.43-.33.76s-.38.84-.43,1c-.32.71-.51,1.18-.56,1.23a5.6,5.6,0,0,1-.38.8l10.68-.1h1a28.12,28.12,0,0,0-2.68-4.51l4.66-1.51a28.28,28.28,0,0,1,3.9,7.2l-1.46.51Zm1.74-13a31.59,31.59,0,0,1,3.9,7l-4.47,1.65A34.43,34.43,0,0,0,248,61.15Z"/><path class="cls-1" d="M289.21,69c2.25,0,2.87-.09,3.85-.52l3.58,3.62a5.94,5.94,0,0,0-.8,2.87C295,80.7,294,84.42,292.22,88a29.06,29.06,0,0,1-12.09,12.65,48.48,48.48,0,0,1-9.4,4.09,26,26,0,0,0-5.26-8c7-1.6,11.61-3.71,15-7,3.62-3.43,5.64-7.71,6.3-13.49H266.45v4.19a45.78,45.78,0,0,0,.19,4.93h-8.79a41.39,41.39,0,0,0,.28-5.17V73.75c0-1.93-.09-3.25-.23-5.08a48.23,48.23,0,0,0,5.87.28h8.42V66.08a31,31,0,0,0-.28-4.32h9a28.71,28.71,0,0,0-.18,4.28V69Z"/><path class="cls-1" d="M321.69,95.33H329a45.33,45.33,0,0,0,6.34-.29v7.15c-1.69-.14-3-.19-6.34-.19H307.17a59.65,59.65,0,0,0-6.4.19V95a40.91,40.91,0,0,0,6.35.29h7.05v-14h-4.32a53.26,53.26,0,0,0-6.12.23V74.36a43,43,0,0,0,6.07.33h16.41a42.45,42.45,0,0,0,6.15-.33v7.19a60.88,60.88,0,0,0-6.15-.23h-4.52Z"/><path class="cls-1" d="M381.68,68.76a6,6,0,0,0-1.46,2.45A31.78,31.78,0,0,1,367.1,86.77a24.55,24.55,0,0,0-5.26-5.13c-.28,4.89-1.08,8.33-2.73,11.43a23.3,23.3,0,0,1-7.33,7.94,42.18,42.18,0,0,1-6.63,3.62A23.58,23.58,0,0,0,339.79,97c5.17-1.65,8.56-3.72,10.77-6.54s3.05-6.25,3.05-12.5a13.07,13.07,0,0,0-.28-3.25h8.84a25.59,25.59,0,0,0-.24,4s0,1.17,0,1.64a5.52,5.52,0,0,1,1.08-.56,17.85,17.85,0,0,0,7.9-8H348.44a64,64,0,0,0-7.47.32V64a44.66,44.66,0,0,0,7.61.42h24.64c2.63,0,3,0,4-.52Z"/><path class="cls-1" d="M410.87,82.3a24.43,24.43,0,0,0,7.76-1.5c2.72,3.52,3.9,6.67,3.9,10.53a11.7,11.7,0,0,1-4.8,9.31c-2.91,2.21-6.81,3.33-11.42,3.33-4.84,0-8.65-1.26-11.33-3.71-2.26-2.11-3.29-4.89-3.29-8.74,0-1,.05-2.07.14-3.48a54.32,54.32,0,0,1-6.06-.94,10.81,10.81,0,0,0-2-.28l.56-7.53c2.16.8,3.9,1.13,8.18,1.65.05-.47.28-2.07.66-4.7a63.7,63.7,0,0,1-6.49-1.08L385,74.83l.51-7.29a39.24,39.24,0,0,0,8.51,1.6,41.27,41.27,0,0,0,.71-6.72v-.66l8.7.7c-.52,1.51-.71,2.54-1.37,6.87a45.26,45.26,0,0,0,10.2-1.18L412,76l-3.38.28a70.58,70.58,0,0,1-7.71.33,21.18,21.18,0,0,1-.33,2.3c-.1.61-.14,1-.33,2.54h1a40,40,0,0,0,9.73-1.08Zm-.14,5.6c-.47,0-.52,0-1.5.18a60.67,60.67,0,0,1-7.39.47c-.47,0-.8,0-2.11,0-.05.61-.1,1.5-.1,2.25a5.07,5.07,0,0,0,1.46,4,7.4,7.4,0,0,0,5.08,1.55c5.12,0,8.18-2.26,8.18-6,0-2.4-1.18-4.93-3.48-7.47Z"/><path class="cls-1" d="M438.56,63.22a44.6,44.6,0,0,0-.33,5.78L438,93.91c9.49-2.11,16.55-7.47,20.82-16a26,26,0,0,0,6.35,6.77c-6.82,10.53-15.51,16-29.38,18.38a6.88,6.88,0,0,0-2.82.85L428.73,99c.47-1,.52-1.51.57-3.86L429.49,69v-.75a36.86,36.86,0,0,0-.29-5.12Z"/><path class="cls-1" d="M471,64.44a68.93,68.93,0,0,1,12.93,9.21L478.33,81a50.23,50.23,0,0,0-12.79-9.92ZM466,93.63a47.06,47.06,0,0,0,14.15-3.38,28.29,28.29,0,0,0,13.78-11.61,43.89,43.89,0,0,0,4.61-9.22,30.37,30.37,0,0,0,6.91,6.3c-4.28,9.26-8.75,14.81-15.33,19-5.08,3.29-9.54,5-18.29,7-1.83.43-2.11.47-3.38.85Z"/><path class="cls-1" d="M529,62.51c-.05.09-.7,1.41-2,4.09l12.65-.14a5.17,5.17,0,0,0,2.86-.61L546.64,70a4.17,4.17,0,0,0-1.08,2c-2.78,8.37-5.27,13.44-8.75,18.14a45,45,0,0,1-11.42,10.63,54.87,54.87,0,0,1-8.09,4.32,26.43,26.43,0,0,0-5.5-7c7.15-2.54,11.71-5.31,15.94-9.64A51.23,51.23,0,0,0,519,82.58l4.94-5.92A61.61,61.61,0,0,1,532.58,82a32.89,32.89,0,0,0,4-8.6l-13,.09a49.22,49.22,0,0,1-10.72,12.74,22.84,22.84,0,0,0-6.77-5.31c5.55-4.37,8.93-8.27,11.71-13.49a30.89,30.89,0,0,0,2.73-6.59Z"/><path class="cls-1" d="M562.34,63.73c-.19,1.6-.19,1.6-.52,10.91-.28,9.82-1.22,15-3.48,20.17a31.27,31.27,0,0,1-6.53,9.4,25.44,25.44,0,0,0-6.73-6.58,21,21,0,0,0,5.6-7.48c2.21-4.6,3-10.43,3-22.61a34.45,34.45,0,0,0-.19-4.32Zm13.3-.75a33.19,33.19,0,0,0-.37,5.45L575,93.07a18.18,18.18,0,0,0,5.64-5.17,23.83,23.83,0,0,0,3.67-8,31,31,0,0,0,6.25,6.2C588.48,91.33,586,95,582.46,98c-2.82,2.4-5.13,3.62-9.87,5.36a10.28,10.28,0,0,0-2.31,1l-4-4.23a10.34,10.34,0,0,0,.52-4L567,68.34V66.65A26.45,26.45,0,0,0,566.8,63Z"/><path class="cls-1" d="M597.88,72.19a40,40,0,0,1-3.34,2.68,20.9,20.9,0,0,0-4.51-5c4-2.68,6.44-5,8.27-7.75A11.11,11.11,0,0,0,599.38,60l7.52,1.22a7.65,7.65,0,0,0-.84,1.27c-.29.52-.71,1.13-1.13,1.74h21.81a48.05,48.05,0,0,0,6-.28v7a34.7,34.7,0,0,0-4.18-.28v4.32h1.26a30.09,30.09,0,0,0,4.66-.23v7a30.17,30.17,0,0,0-4.66-.24h-1.26v4.47H629a32.07,32.07,0,0,0,4.47-.19v6.91A26.82,26.82,0,0,0,629,92.6c2.07,2.49,2.58,3.24,5.59,8.46l-6.39,4a52.76,52.76,0,0,0-5.59-10.34l4.32-2.07H597.36l5,2.44a31.27,31.27,0,0,1-6,10.25l-5.79-4.42a23.26,23.26,0,0,0,5.55-8.27h-.38a23.69,23.69,0,0,0-4,.23v-7a30.67,30.67,0,0,0,4.66.23h.94V81.64h-1.65a30.91,30.91,0,0,0-4.65.24v-7a30,30,0,0,0,4.65.23h2.17Zm6,32.91c.09-1.27.09-1.64.09-2.54a77.8,77.8,0,0,0-.42-8.27l6.53-.61a72.94,72.94,0,0,1,1.08,10.91Zm-.1-30h2.17V70.74h-2.17Zm0,11h2.17V81.64h-2.17Zm8.14-11h2.21V70.74h-2.21Zm0,11h2.21V81.64h-2.21ZM615,105a71.24,71.24,0,0,0-2-10.34l6.53-1.36a67.76,67.76,0,0,1,2.73,10.24Zm7.29-29.9V70.74H620v4.32Zm0,11V81.64H620v4.47Z"/><path class="cls-1" d="M655,90.91c-.52,1.41-.76,2.16-1.27,3.9a21.69,21.69,0,0,1-3.58-4.61,34.49,34.49,0,0,1,.15,3.67v6.77a28.67,28.67,0,0,0,.23,4.56H643.1a33.2,33.2,0,0,0,.28-4.75V96.22c0-1.69,0-2.73.1-3.86-1.93,4-2.92,5.55-4.89,7.71a31.7,31.7,0,0,0-3.06-7.1,28.36,28.36,0,0,0,7-10.29h-1.79a27.9,27.9,0,0,0-4.42.23V76a23.87,23.87,0,0,0,4.37.24h2.63V65.1a33,33,0,0,0-.18-4.19h7.28a30.81,30.81,0,0,0-.18,4.14v6.82a52.55,52.55,0,0,0,2.39-8.75l4.89,2.35a53.56,53.56,0,0,1-3.66,10.2l-3.62-2.16v2.73h2.21a17,17,0,0,0,3.66-.24v3.48l3.76-4.14a51.46,51.46,0,0,1,8,6.68l-4.33,5.31a50.68,50.68,0,0,0-7.43-6.67v2.25a22.32,22.32,0,0,0-3.85-.23h-1.55a24,24,0,0,0,5.5,5.4c-.47,1-.62,1.37-.94,2.12a36.79,36.79,0,0,0,4.27-.56l9.08-1.88V71L665,75.53a49.69,49.69,0,0,0-8-7l4.47-4.94a47.88,47.88,0,0,1,7.24,5.73V66.88a37.11,37.11,0,0,0-.29-5.92h7.76a38.65,38.65,0,0,0-.28,5.92V86.3a32.78,32.78,0,0,0,3.81-1l.47,7.34c-1.08.14-2.31.33-4.28.75v5.88a39.87,39.87,0,0,0,.28,6h-7.76a39,39,0,0,0,.29-6V94.81l-8.42,1.74a41,41,0,0,0-4.56,1.08ZM640.66,63.07a66.29,66.29,0,0,1,2.63,10.06l-4.84,2.45a48.15,48.15,0,0,0-2.54-10Z"/><path class="cls-1" d="M680.66,66.51c.8,0,1.41,0,1.79,0,1.22,0,2.91-.09,8-.42,6.77-.42,11.33-.66,20.26-1l4.84-.18,2-.1c1.59,0,1.88-.09,2.11-.09a4,4,0,0,0,1.08-.19l.42,8.51a6.63,6.63,0,0,0-1.31-.1,22,22,0,0,0-10.77,3.3c-4.7,2.86-7.47,6.81-7.47,10.67,0,2.72,1.27,4.56,4,5.83a24.81,24.81,0,0,0,9,1.69c.37,0,.7,0,1.41,0l-1.08,8.93a11.76,11.76,0,0,0-1.74-.23c-5.36-.47-8.89-1.27-11.9-2.63-5.55-2.59-8.41-6.92-8.41-12.89a16.08,16.08,0,0,1,4-10.62,19.22,19.22,0,0,1,4.61-4l-2.21.24c-1,.09-2.68.23-11.47.94a52.86,52.86,0,0,0-6.63.89ZM714,77.22A30.66,30.66,0,0,1,718.55,84L714,86.11a29.53,29.53,0,0,0-4.56-7Zm6.3-2.72a32.5,32.5,0,0,1,4.61,6.63l-4.37,2a33.81,33.81,0,0,0-4.47-6.77Z"/><path class="cls-1" d="M723.72,66.83a27.73,27.73,0,0,0,2.87.15c1.27,0,13.92-.33,18.29-.47a27.3,27.3,0,0,0-.33-5h8.32a31.82,31.82,0,0,0-.23,4.8c7.8,0,11.28-.14,13.16-.33l.05,7.71a77.46,77.46,0,0,0-8.47-.24c-2.49,0-2.82,0-4.7.05v7a14.88,14.88,0,0,1,1.88,7.85c0,5.26-2.72,9.87-7.75,13a38.36,38.36,0,0,1-9.45,3.81,21.15,21.15,0,0,0-4.47-7.43c4.75-.7,7.43-1.46,9.69-2.87a7.76,7.76,0,0,0,3.47-3.71,8.55,8.55,0,0,1-6.3,2.21c-5.45,0-9.3-3.57-9.3-8.6,0-5.36,4.42-9,10.9-9a10.51,10.51,0,0,1,3.67.52V74.78a7.21,7.21,0,0,0,0-1.13c-9.73.28-17.39.71-21,1.22Zm14.62,17.54c0,1.46,1.32,2.54,3.11,2.54,2,0,3.57-1.22,3.57-2.82s-1.22-2.45-3.1-2.45C739.85,81.64,738.34,82.77,738.34,84.37Z"/><path class="cls-1" d="M788.08,91.42c-2.73,6-5.88,8.65-10.15,8.65-6.3,0-10.72-6-10.72-14.62a20.93,20.93,0,0,1,5.4-14.34c4.14-4.51,10.11-6.91,17-6.91,6.3,0,11.85,2.12,15.33,5.79,3,3.19,4.61,7.75,4.61,13.06a20.24,20.24,0,0,1-6.26,15.19c-3.19,2.87-6.91,4.37-13.49,5.41a23,23,0,0,0-4-7.71,24.61,24.61,0,0,0,9.88-2.4c3.62-1.93,5.64-5.88,5.64-10.91,0-4-1.41-7.19-4.14-9.26a8,8,0,0,0-4-1.65C792.22,79.81,790.62,85.88,788.08,91.42ZM780,74.22a15.2,15.2,0,0,0-5.12,11.19c0,3.33,1.27,6,2.92,6,1.17,0,2.39-1.65,3.8-5.22a60.92,60.92,0,0,0,3.53-14.34A9.4,9.4,0,0,0,780,74.22Z"/><path class="cls-1" d="M811.16,66.51c.8,0,1.41,0,1.79,0,1.22,0,2.91-.09,8-.42,6.77-.42,11.33-.66,20.26-1l4.84-.18,2-.1c1.59,0,1.88-.09,2.11-.09a4,4,0,0,0,1.08-.19l.42,8.51a6.63,6.63,0,0,0-1.31-.1,22,22,0,0,0-10.77,3.3c-4.7,2.86-7.47,6.81-7.47,10.67,0,2.72,1.27,4.56,4,5.83a24.81,24.81,0,0,0,9,1.69c.37,0,.7,0,1.41,0l-1.08,8.93a11.76,11.76,0,0,0-1.74-.23c-5.36-.47-8.89-1.27-11.9-2.63-5.55-2.59-8.41-6.92-8.41-12.89a16.08,16.08,0,0,1,4-10.62,19.22,19.22,0,0,1,4.61-4l-2.21.24c-1,.09-2.68.23-11.47.94a52.86,52.86,0,0,0-6.63.89Zm33.33,10.71A30.66,30.66,0,0,1,849.05,84l-4.51,2.07a29.53,29.53,0,0,0-4.56-7Zm6.3-2.72a32.5,32.5,0,0,1,4.61,6.63l-4.37,2a33.81,33.81,0,0,0-4.47-6.77Z"/><path class="cls-1" d="M859.68,88.46A60.51,60.51,0,0,1,871.15,99l-6,6.07a60.85,60.85,0,0,0-11.1-11.19Z"/><path class="cls-1" d="M10.11,138.18a42.29,42.29,0,0,1-6.58,3.2A30.89,30.89,0,0,0,0,134.47a35.8,35.8,0,0,0,10.81-5.17,27.91,27.91,0,0,0,7.9-7.62h7.62a27.63,27.63,0,0,0,7.94,7.24,40.37,40.37,0,0,0,11.24,5.22,31.31,31.31,0,0,0-3.29,7.43,43.53,43.53,0,0,1-7-3.43v2.68a38.47,38.47,0,0,0-4.46-.19H14.53a41.16,41.16,0,0,0-4.42.19ZM8,149.89a48.52,48.52,0,0,0-5.73.28V143c1.64.14,3.57.23,5.73.23H37.52c2.25,0,4-.09,5.68-.23v7.19a47.72,47.72,0,0,0-5.68-.28H32.86A102.63,102.63,0,0,1,42.78,162l-6.49,4-2.21-3.47c-5.45.61-5.45.61-8,.84-3.1.33-15.79,1.41-17.77,1.51-1.64.14-3,.28-4.13.47l-.9-7.85c1.23.09,2.07.14,3.11.14.51,0,.51,0,3.29-.1a57.28,57.28,0,0,0,4.09-7.66Zm21.25-15.61A35,35,0,0,1,22.66,128,32.89,32.89,0,0,1,16,134.28ZM22,149.89a59.35,59.35,0,0,1-4.09,7.43c6.87-.28,6.87-.28,11.75-.71-1.31-1.6-2-2.35-4-4.51l5.55-2.21Z"/><path class="cls-1" d="M59.37,160.56a46.09,46.09,0,0,0,.19,5H52a35.48,35.48,0,0,0,.28-5.17v-9.54a32.51,32.51,0,0,1-4.18,3,26.31,26.31,0,0,0-3-7,28.34,28.34,0,0,0,7.33-5.36,20.65,20.65,0,0,0,4.89-6.53H50.72a32.25,32.25,0,0,0-4.09.18v-6.95a24.94,24.94,0,0,0,3.62.18h2.12v-3.47a23.08,23.08,0,0,0-.28-3.58h7.47a20.18,20.18,0,0,0-.23,3.62v3.43H60.6a16,16,0,0,0,2.72-.14l3.06,3.25a15.1,15.1,0,0,0-1.08,2.21,39.13,39.13,0,0,1-4.23,7.66,22.75,22.75,0,0,0,7.52,5.64,33.05,33.05,0,0,0-3.53,6.72,21.93,21.93,0,0,1-5.69-4.84Zm20.74-3.29h3.76A51.65,51.65,0,0,0,89.6,157v7.38c-2-.19-3.85-.29-5.69-.29H68.63a53.48,53.48,0,0,0-5.5.29V157a52.82,52.82,0,0,0,5.65.23h3.9V140.06H70.23c-1.6,0-3.1.1-4.6.24V133a30.51,30.51,0,0,0,4.6.24h2.45V126.9a41.84,41.84,0,0,0-.33-5.55h8a38,38,0,0,0-.28,5.55v6.35h3.71a30.42,30.42,0,0,0,4.65-.24v7.29c-1.55-.14-3-.24-4.65-.24H80.11Z"/><path class="cls-1" d="M104.64,151.39a26.85,26.85,0,0,0,.15-3.33v-4.23c0-1.18,0-1.6-.05-2.17-.47,6.07-1.13,9.4-2.63,13.31a29.25,29.25,0,0,1-6.44,10.72,18.91,18.91,0,0,0-4.89-6,22.52,22.52,0,0,0,6.15-10.34c1.09-3.91,1.51-8.61,1.51-17.63,0-6.45-.1-8.28-.38-10.11h7.29a43.21,43.21,0,0,0-.24,5.92v3.29c0,3.86,0,6.26-.28,9.64,1,.09,2.17.14,3.9.14h21.86a32.17,32.17,0,0,0,4.19-.19c-.09,1-.14,2-.14,3.25V148a30.18,30.18,0,0,0,.19,3.38h-2.4v6.77c0,3.67-1.55,4.75-7,4.75h-1.13a14.54,14.54,0,0,0-1.36-5.64,14.36,14.36,0,0,0,1.88.19c.8,0,.94-.1.94-.71v-2.86h-3.15v6.34c0,2.45,0,4,.19,5.41h-7.15a48.85,48.85,0,0,0,.19-5.45v-6.3h-2.73v4.74a43.64,43.64,0,0,0,.19,4.52H106.1c.14-1.55.24-3.25.24-5.36v-6.4Zm-13.77-4.18a35.67,35.67,0,0,0,.23-4.37V130.47a28.26,28.26,0,0,0-.28-4.32h6.11a24.13,24.13,0,0,0-.23,4v13.12c0,2,0,2.91.14,3.9Zm34.32-19.51H111.93c-1.36,0-3.76,0-4.93.14v-5.45c1.55.14,3,.19,5.07.19h15.56a43.63,43.63,0,0,0,4.66-.19c-.1,1.31-.14,2.07-.14,4.13v9.27a27,27,0,0,0,.14,3.57c-.8-.05-1.93-.1-3.43-.1h-17c-1.36,0-3.47.05-4.88.15v-4.89a44.15,44.15,0,0,0,4.74.14h13.45v-1.27H112.07c-1.36,0-2.54.05-4.32.09v-4.56c1.22.1,1.78.1,4.18.1h13.26Zm-9.31,20.59v-1.88h-4.65v1.88Zm11.89,0v-1.88h-5.12v1.88Z"/><path class="cls-1" d="M149.63,122.72a62.35,62.35,0,0,0-1.92,10.06c3-5.5,6.86-8.14,11.89-8.14a11.1,11.1,0,0,1,8.51,4.28c2.63,3.29,3.9,7.57,3.9,13.07q0,11.56-7.19,17.21a28.45,28.45,0,0,1-10.72,4.89,48.34,48.34,0,0,1-5.55,1.08,27.94,27.94,0,0,0-3.76-8c13.49-.8,19-5.22,19-15.37,0-5.88-1.88-9.12-5.22-9.12-1.74,0-3.34.84-5.08,2.72a20,20,0,0,0-5.22,10.91,24.25,24.25,0,0,0-.19,3.85l-7.89.1a6.38,6.38,0,0,0,0-.8v-.94c-.09-1.83-.14-4.65-.14-6a136,136,0,0,1,1.08-17.16,23.55,23.55,0,0,0,.19-2.59v-.37Z"/><path class="cls-1" d="M205.34,143.35a7.17,7.17,0,1,1-7.15-7.14A7.16,7.16,0,0,1,205.34,143.35Z"/><path class="cls-1" d="M229.36,128.17a33.06,33.06,0,0,0-2.82-4.84l6.91-1.41a48.89,48.89,0,0,1,3.57,6.25h3.15a28.5,28.5,0,0,0-2.44-5.45l7.15-1.27a39.85,39.85,0,0,1,2.77,6.72h2.77a33.26,33.26,0,0,0,2.92-6.54l7.19,1.56a55,55,0,0,1-2.63,5h.94c2.91,0,4.28,0,5.87-.19a29.86,29.86,0,0,0-.18,4v5.22a31.64,31.64,0,0,0,.23,3.85h-7.14v-6.62H229.5V141h-7.14a22.89,22.89,0,0,0,.23-3.9v-5.17a31,31,0,0,0-.19-4c1.7.14,2.92.19,5.79.19ZM247.65,160c0,4.56-1.6,5.59-8.89,5.59-.8,0-2.06,0-4.27-.14a28,28,0,0,0-2.07-6.91c2.58.24,4.37.38,5.69.38,1.88,0,2.2-.14,2.2-1v-4.46H228.84a58.44,58.44,0,0,0-6.48.28v-7.15a51.08,51.08,0,0,0,6.39.33h11.56a13.81,13.81,0,0,0-.14-2.21h2.59a17.32,17.32,0,0,0,3.2-2.4h-9.74a48,48,0,0,0-5,.19v-6.34c1.55.14,2.78.18,5,.18h14.06a23.56,23.56,0,0,0,3.71-.18l3.43,3.9c-.51.42-.7.61-1.41,1.27a76.88,76.88,0,0,1-6.58,5.59h8.7a60.19,60.19,0,0,0,6.63-.33v7.15a61.07,61.07,0,0,0-6.72-.28H247.65Z"/><path class="cls-1" d="M303.31,132.82a20,20,0,0,0,1.93,3.06,28.6,28.6,0,0,0,5.68,5.69,28.24,28.24,0,0,0-3.85,6.25c-1.18-1-1.69-1.46-2.4-2.07a38,38,0,0,1-4.09,7.29,27.69,27.69,0,0,0,10.53,5.26,31.1,31.1,0,0,0-3.48,7.39A34.54,34.54,0,0,1,296,158.4a33.13,33.13,0,0,1-11.33,7.38,24.21,24.21,0,0,0-4-6.53c5.17-1.74,7.66-3.11,10.91-6.07a36.88,36.88,0,0,1-3.9-7.1c-.71.75-1,1.08-1.93,2a21,21,0,0,0-2.63-3.86,33.08,33.08,0,0,0-1.84,5.17,18.68,18.68,0,0,1-2.35-4.09c.1,2.64.14,4,.14,4.94v9.45a44.2,44.2,0,0,0,.29,6.06h-7.48a50.23,50.23,0,0,0,.33-6.06v-6.16c0-1.69.05-3.24.09-4.61a23.41,23.41,0,0,1-3.66,7.57,41.06,41.06,0,0,0-2.92-7.9,29.84,29.84,0,0,0,5.93-12.78h-.95a23.59,23.59,0,0,0-3.76.23v-7a21.77,21.77,0,0,0,3.76.24h1.46v-3.06a34,34,0,0,0-.28-4.89h7.43a34.43,34.43,0,0,0-.24,4.89v3.06h1.18a14.89,14.89,0,0,0,2.58-.19V136a14.32,14.32,0,0,0-2.44-.18h-1.27a16.41,16.41,0,0,0,3.38,5.59,22.32,22.32,0,0,0,6-8.56,42.12,42.12,0,0,0-4.85.29v-7.24a44.2,44.2,0,0,0,5.55.28h3.39v-1.36a16.8,16.8,0,0,0-.24-3.3h7.66a19.71,19.71,0,0,0-.18,3.15v1.51h4.7a46,46,0,0,0,5.59-.28v7.24a48.44,48.44,0,0,0-5.64-.29Zm-10.2,9.41a23.86,23.86,0,0,0,2.86,5.69,22.68,22.68,0,0,0,2.68-5.88l4.56,2.25a34.17,34.17,0,0,1-6-9.16l3.95-2.31H290.38l4.56,2.35a44,44,0,0,1-5.69,9Z"/><path class="cls-1" d="M325.31,151.39a29.54,29.54,0,0,0,.14-3.33v-4.23c0-1.18,0-1.6-.05-2.17-.47,6.07-1.13,9.4-2.63,13.31a29.11,29.11,0,0,1-6.44,10.72,18.64,18.64,0,0,0-4.89-6,22.63,22.63,0,0,0,6.16-10.34c1.08-3.91,1.5-8.61,1.5-17.63,0-6.45-.09-8.28-.37-10.11H326a45.45,45.45,0,0,0-.23,5.92v3.29c0,3.86,0,6.26-.28,9.64,1,.09,2.16.14,3.9.14h21.86a32,32,0,0,0,4.18-.19c-.09,1-.14,2-.14,3.25V148a30.18,30.18,0,0,0,.19,3.38h-2.4v6.77c0,3.67-1.55,4.75-7,4.75H345a14.36,14.36,0,0,0-1.37-5.64,14.51,14.51,0,0,0,1.88.19c.8,0,.94-.1.94-.71v-2.86h-3.15v6.34c0,2.45.05,4,.19,5.41h-7.14a49.57,49.57,0,0,0,.18-5.45v-6.3h-2.72v4.74a41,41,0,0,0,.19,4.52h-7.24c.14-1.55.23-3.25.23-5.36v-6.4Zm-13.78-4.18a35.37,35.37,0,0,0,.24-4.37V130.47a29.6,29.6,0,0,0-.28-4.32h6.11a22.93,22.93,0,0,0-.24,4v13.12c0,2,.05,2.91.14,3.9Zm34.32-19.51H332.59c-1.36,0-3.76,0-4.93.14v-5.45c1.55.14,3,.19,5.08.19H348.3a43.43,43.43,0,0,0,4.65-.19c-.09,1.31-.14,2.07-.14,4.13v9.27a27,27,0,0,0,.14,3.57c-.8-.05-1.93-.1-3.43-.1h-17c-1.37,0-3.48.05-4.89.15v-4.89a44.45,44.45,0,0,0,4.75.14h13.44v-1.27H332.74c-1.37,0-2.54.05-4.33.09v-4.56c1.22.1,1.79.1,4.18.1h13.26Zm-9.31,20.59v-1.88h-4.65v1.88Zm11.9,0v-1.88h-5.13v1.88Z"/><path class="cls-1" d="M370.3,122.72a62,62,0,0,0-1.93,10.06c3.05-5.5,6.86-8.14,11.89-8.14a11.1,11.1,0,0,1,8.51,4.28c2.64,3.29,3.9,7.57,3.9,13.07q0,11.56-7.19,17.21a28.45,28.45,0,0,1-10.72,4.89,48.34,48.34,0,0,1-5.55,1.08,27.42,27.42,0,0,0-3.76-8c13.5-.8,18.95-5.22,18.95-15.37,0-5.88-1.88-9.12-5.22-9.12-1.74,0-3.34.84-5.08,2.72a19.92,19.92,0,0,0-5.21,10.91,24.25,24.25,0,0,0-.19,3.85l-7.9.1a5.12,5.12,0,0,0,.05-.8v-.94c-.1-1.83-.14-4.65-.14-6a136,136,0,0,1,1.08-17.16,23.55,23.55,0,0,0,.19-2.59v-.37Z"/><path class="cls-1" d="M410.49,123.94c-1.83,5.36-3.24,14.15-3.57,22.71l3.62,1.22A46.09,46.09,0,0,0,408.7,161a13.19,13.19,0,0,0,.14,2.3l-8.08.38a19.19,19.19,0,0,0-.24-2.49,99.73,99.73,0,0,1-1.22-14.86,102,102,0,0,1,1.79-18.1,38.33,38.33,0,0,0,.7-5Zm13,20.54c-2.17,2.78-3.15,4.8-3.15,6.49,0,2.16,2.11,3.34,6.11,3.34a34.89,34.89,0,0,0,11.7-1.93l.47,8.32c-1.22.14-1.22.14-4,.57a58.6,58.6,0,0,1-8.14.61c-4.37,0-7.28-.61-9.73-2a8.7,8.7,0,0,1-4.32-7.47,14.81,14.81,0,0,1,2.25-7.34c.66-1.08.94-1.55,2.21-3.38Zm-9.22-17a39.23,39.23,0,0,0,8.37.71c6.25,0,10.86-.38,14-1.18l.33,8c-.42,0-.9,0-3.48.33-3.24.33-6.68.52-9.92.52a78.22,78.22,0,0,1-8.09-.38c-.37-.05-.7-.05-1.36-.09Z"/><path class="cls-1" d="M469.25,142.74a24.43,24.43,0,0,0,7.76-1.5c2.73,3.53,3.9,6.68,3.9,10.53a11.69,11.69,0,0,1-4.79,9.31c-2.92,2.21-6.82,3.34-11.43,3.34-4.84,0-8.65-1.27-11.33-3.72-2.25-2.11-3.29-4.89-3.29-8.74,0-1,.05-2.07.14-3.48a52.37,52.37,0,0,1-6.06-.94,10.7,10.7,0,0,0-2-.28l.56-7.52a33.16,33.16,0,0,0,8.18,1.64c.05-.47.29-2.07.66-4.7A64.16,64.16,0,0,1,445,135.6l-1.69-.33.52-7.29a39.12,39.12,0,0,0,8.51,1.6,42,42,0,0,0,.7-6.72v-.66l8.7.7c-.52,1.51-.71,2.54-1.36,6.87a45.42,45.42,0,0,0,10.2-1.18l-.28,7.81-3.39.28a70.47,70.47,0,0,1-7.71.33,21.18,21.18,0,0,1-.33,2.3c-.09.61-.14,1-.33,2.54h1a39.88,39.88,0,0,0,9.73-1.08Zm-.14,5.6c-.47,0-.51,0-1.5.19a62.57,62.57,0,0,1-7.38.47c-.47,0-.8,0-2.12-.05,0,.61-.09,1.5-.09,2.26a5,5,0,0,0,1.46,4,7.36,7.36,0,0,0,5.07,1.55c5.13,0,8.18-2.26,8.18-6,0-2.4-1.17-4.93-3.48-7.47Z"/><path class="cls-1" d="M511.05,135.32a17.14,17.14,0,0,0-1.79.28c-1.83.33-4.8.7-7.1.94v4.13a27.55,27.55,0,0,1,6.86-.79c5.79,0,10.11,1.45,12.84,4.27a11.79,11.79,0,0,1,3.2,8.33,11.4,11.4,0,0,1-11.71,11.61c-5.83,0-9.22-3.9-9.22-10.67v-1.18a27.89,27.89,0,0,0,7.15-2.87c0,1-.09,1.51-.09,2.49a7.88,7.88,0,0,0,.37,3,2.21,2.21,0,0,0,2.07,1.41c2,0,3.39-1.65,3.39-4.05a5,5,0,0,0-2.31-4.13,10.48,10.48,0,0,0-5.59-1.23,25.24,25.24,0,0,0-6.91.94l0,8.33v1.22c0,2.87-.18,3.9-.89,4.89a5.66,5.66,0,0,1-4.79,2.07,16.73,16.73,0,0,1-10.16-3.72,8.13,8.13,0,0,1-3.05-6.11c0-2.54,1.55-5.31,4.37-7.8a24.84,24.84,0,0,1,7-4.19v-5.55l-3.57.1-4.56-.1a8.83,8.83,0,0,0-1,.05l-.09-7.38A35.74,35.74,0,0,0,492,130h1.79c.65,0,.65,0,.94,0v-1.51a34.55,34.55,0,0,0-.33-6.34h8.13a36.38,36.38,0,0,0-.28,5.87v1.51a51.81,51.81,0,0,0,8.6-1.6Zm-16.32,14.9c-2.21,1-3.9,2.87-3.9,4.18a1.85,1.85,0,0,0,1,1.51,4.69,4.69,0,0,0,2.12.75c.61,0,.75-.33.75-1.88ZM521,139.88a41.05,41.05,0,0,0-9.26-11l6.21-4.19A40,40,0,0,1,527.22,135Z"/><path class="cls-1" d="M536.9,134.19a43.65,43.65,0,0,1-4.32,4.65,24,24,0,0,0-5.18-5.22,30.83,30.83,0,0,0,8.18-9.78,11.34,11.34,0,0,0,1.18-3.1l7.76.89c-.1.19-.52,1-1.23,2.5h20.46a46,46,0,0,0,5.78-.29v7c-1.7-.14-3.43-.23-5.78-.23H539.58c-.37.56-.52.75-1,1.46h22.33a48.48,48.48,0,0,0,5.36-.19v5.87c-1.5-.14-2.91-.18-5.36-.18H541.46a43,43,0,0,0-4.56.18Zm18.48,13.3c-.38.47-.57.71-1.6,2.12A41.19,41.19,0,0,1,550.3,154c3.38,2.59,4.42,3.48,7.24,5.92l-4.94,5.5a98.26,98.26,0,0,0-7.38-6.62,51.5,51.5,0,0,1-12.41,7.28,23.41,23.41,0,0,0-4.7-6.16c5.73-2.11,8.09-3.29,11.38-5.59a81.33,81.33,0,0,0-7.15-4.7l4.8-4.37h-1c-2.77,0-4.47.09-5.92.23v-6.63a23.66,23.66,0,0,0,3.66.19h25.34c3.25,0,4.19-.05,5.64-.14a37.79,37.79,0,0,0-.23,4.65c0,7,.66,11.38,2.07,13.4.47-.8.7-2.77.7-5.12V151a17.9,17.9,0,0,0,5,3.39c-.47,4.74-1.08,7.28-2.07,9a4.51,4.51,0,0,1-4,2.31c-2.39,0-4.79-2.12-6.3-5.45-1.64-3.81-2.39-8.09-2.44-14.95H550.3Zm-18.1-2.25c3.38,2,4.89,2.91,7.33,4.6a23.06,23.06,0,0,0,3.39-4.6Z"/><path class="cls-1" d="M612,157.93a33.91,33.91,0,0,0,4.94-.24v7a34.6,34.6,0,0,0-4.94-.23H598.39a36.86,36.86,0,0,0-5,.23v-5a23.91,23.91,0,0,0-2.68-.09H587.3v1.88a36.23,36.23,0,0,0,.23,4.18h-7a32.6,32.6,0,0,0,.28-4.56v-1.5h-3.2a29,29,0,0,0-4.56.23v-6.49a28.05,28.05,0,0,0,4.56.24h3.2v-1.69h-1.65c-2.3,0-3,0-4.93.09.14-1.64.19-3.34.19-5.92v-7.9c0-2.59,0-3.71-.19-5.41,1.45.1,2.25.14,4.93.14h1.65v-1.74h-2.87a42.15,42.15,0,0,0-4.61.19v-6.34a30.26,30.26,0,0,0,4.61.23h2.87a18.53,18.53,0,0,0-.28-3.85h7.05a18.71,18.71,0,0,0-.28,3.85h2a29.93,29.93,0,0,0,4.56-.23v6.3a35.86,35.86,0,0,0-4.56-.15h-2v1.74H590c2.35,0,2.86,0,3.9-.09a32,32,0,0,0-.19,4.8v1.88a33.5,33.5,0,0,0,6-2.78,39.47,39.47,0,0,1-4.47-5.17l4.38-2.26h-.33a36.85,36.85,0,0,0-4.56.19v-6.86a37.51,37.51,0,0,0,5.45.23H609a22.83,22.83,0,0,0,3.66-.18l4,3.85c-.37.66-.61,1-1.31,2.26a40.32,40.32,0,0,1-5.46,7.66,34.57,34.57,0,0,0,7.81,2.63,27.56,27.56,0,0,0-3,6.44,39.44,39.44,0,0,1-9.78-4.65,26.17,26.17,0,0,1-3.15,2.11h6.44A31.54,31.54,0,0,0,608,147v.29h3.72a21.64,21.64,0,0,0,4-.24v6.77a36.62,36.62,0,0,0-4.19-.19H608v4.33Zm-32.43-20V140h2V138Zm0,6.49v2.21h2v-2.21Zm9-4.42V138h-2V140Zm0,6.63v-2.21h-2v2.21Zm12.5,6.95h-1.88a40.45,40.45,0,0,0-4.47.19v-6.72a39.26,39.26,0,0,0,4.66.19h1.69V147c0-1.73-.05-2.58-.14-3.66a36.66,36.66,0,0,1-4.89,2.25,27.52,27.52,0,0,0-2.35-4.27v5.07a55,55,0,0,0,.19,5.55c-1.08-.09-1.6-.09-4.09-.09H587.3v1.69H591a27.55,27.55,0,0,0,3.53-.14v4.46c1.22.1,1.78.1,3.38.1h3.15Zm.19-24.4a18.21,18.21,0,0,0,3.24,3.67,20.29,20.29,0,0,0,2.78-3.67Z"/><path class="cls-1" d="M631.77,123.94c-1.84,5.36-3.25,14.15-3.58,22.71l3.62,1.22A46.45,46.45,0,0,0,630,161a13.19,13.19,0,0,0,.14,2.3l-8.08.38a19.19,19.19,0,0,0-.24-2.49,99.73,99.73,0,0,1-1.22-14.86,101.07,101.07,0,0,1,1.79-18.1,38.33,38.33,0,0,0,.7-5Zm13,20.54c-2.16,2.78-3.15,4.8-3.15,6.49,0,2.16,2.12,3.34,6.11,3.34a34.91,34.91,0,0,0,11.71-1.93l.47,8.32c-1.22.14-1.22.14-4,.57a58.34,58.34,0,0,1-8.13.61c-4.37,0-7.29-.61-9.73-2a8.71,8.71,0,0,1-4.33-7.47,14.73,14.73,0,0,1,2.26-7.34c.66-1.08.94-1.55,2.21-3.38Zm-9.21-17a39.23,39.23,0,0,0,8.37.71c6.25,0,10.86-.38,14-1.18l.33,8c-.43,0-.9,0-3.48.33-3.25.33-6.68.52-9.92.52a78.22,78.22,0,0,1-8.09-.38c-.38-.05-.71-.05-1.36-.09Z"/><path class="cls-1" d="M689.87,135.32a18,18,0,0,0-1.79.28c-1.83.33-4.79.7-7.09.94v4.13a27.5,27.5,0,0,1,6.86-.79c5.78,0,10.11,1.45,12.83,4.27a11.79,11.79,0,0,1,3.2,8.33,11.4,11.4,0,0,1-11.7,11.61c-5.83,0-9.22-3.9-9.22-10.67v-1.18a28.19,28.19,0,0,0,7.15-2.87c-.05,1-.1,1.51-.1,2.49a7.84,7.84,0,0,0,.38,3,2.21,2.21,0,0,0,2.07,1.41c2,0,3.38-1.65,3.38-4.05a5,5,0,0,0-2.3-4.13,10.5,10.5,0,0,0-5.6-1.23,25.29,25.29,0,0,0-6.91.94l.05,8.33v1.22c0,2.87-.19,3.9-.89,4.89a5.68,5.68,0,0,1-4.8,2.07,16.7,16.7,0,0,1-10.15-3.72,8.14,8.14,0,0,1-3.06-6.11c0-2.54,1.55-5.31,4.37-7.8a24.91,24.91,0,0,1,7-4.19v-5.55L670,137l-4.56-.1a8.64,8.64,0,0,0-1,.05l-.1-7.38a35.94,35.94,0,0,0,6.45.42h1.78c.66,0,.66,0,.94,0v-1.51a34.55,34.55,0,0,0-.33-6.34h8.14A36.11,36.11,0,0,0,681,128v1.51a51.74,51.74,0,0,0,8.61-1.6Zm-16.31,14.9c-2.21,1-3.9,2.87-3.9,4.18a1.85,1.85,0,0,0,1,1.51,4.65,4.65,0,0,0,2.12.75c.61,0,.75-.33.75-1.88Zm26.28-10.34a41.05,41.05,0,0,0-9.26-11l6.2-4.19A39.85,39.85,0,0,1,706,135Z"/><path class="cls-1" d="M729.69,157a113.23,113.23,0,0,0,4.94-15,39.25,39.25,0,0,0,1.41-6.91l8.22,2.21c-.47,1.41-.47,1.41-1.78,5.73a135.41,135.41,0,0,1-5.08,14h6.3a55.61,55.61,0,0,0,6.77-.33v7.47a56.16,56.16,0,0,0-6.77-.33h-30a57.22,57.22,0,0,0-6.86.33v-7.47a56.22,56.22,0,0,0,6.86.33Zm-5.08-32.21a18.34,18.34,0,0,0-.28-3.34h8.09a17.6,17.6,0,0,0-.29,3.34v2.54h10.11a59.82,59.82,0,0,0,6.68-.33v7.48a51.11,51.11,0,0,0-6.68-.33H715.07a50.77,50.77,0,0,0-6.63.33V127a58.82,58.82,0,0,0,6.63.33h9.54Zm-4.32,10.39a152.08,152.08,0,0,1,5.59,18.15L718.41,156a100.27,100.27,0,0,0-5.27-18.14Z"/><path class="cls-1" d="M753,128.22a48.53,48.53,0,0,0,10.15.8,35.05,35.05,0,0,0,1.08-7.1l8.75.7c-.52,1.69-.52,1.69-1.65,6.3,9.26-.37,14.67-1,17.49-1.93l.33,8c-1.22.05-1.69.05-3.34.24-6.58.66-10.9.94-16.36,1.08a49.67,49.67,0,0,1-2.72,7.05A22.7,22.7,0,0,1,777,141.29c4.42,0,7.66.8,10.16,2.49a9.51,9.51,0,0,1,3.94,7.94c0,7.62-7.19,12.37-18.75,12.37a49,49,0,0,1-11.94-1.51,33.3,33.3,0,0,0-.8-8.13,42.58,42.58,0,0,0,12.64,2.16c6.3,0,10.25-1.93,10.25-5,0-2.21-2.35-3.43-6.63-3.43a20.55,20.55,0,0,0-9.59,2.16,7,7,0,0,0-3,2.44l-7.94-2.53a69.53,69.53,0,0,0,6-14.06c-.47,0-.47,0-1.74-.05-.94,0-1,0-4.66-.28-.66,0-1.17,0-1.55,0a2.45,2.45,0,0,0-.52,0Z"/><path class="cls-1" d="M804.44,136.73c-2.36,0-3.67,0-5.27.18v-2.39H794.7a23.07,23.07,0,0,0,.29-3.81v-3.2a28.35,28.35,0,0,0-.19-3.71c1.64.14,3.05.19,5.59.19h11.66a12.44,12.44,0,0,0-.19-2.54h7.71a12.86,12.86,0,0,0-.18,2.54h12.22c2.54,0,3.95,0,5.64-.19a25.63,25.63,0,0,0-.19,3.71v3.2a22.78,22.78,0,0,0,.24,3.76h-4.47v2.44c-1.5-.14-3.05-.18-5.36-.18h-4.75c3.34,1.64,7,2.3,13,2.35-1.08,1.59-1.46,2.21-2.35,3.76,1.88-.05,3.15-.1,4.61-.24V149c-1.79-.14-3.34-.23-5.5-.23v10.81c0,2.63-.52,4-1.84,4.89-1.17.75-2.82,1-6.11,1-1.13,0-2.44,0-4.51-.09a16.47,16.47,0,0,0-.57-3H806.55v2h-7.19a26.15,26.15,0,0,0,.23-4V153.6a23.36,23.36,0,0,0-.18-3.43c1.31.05,2.2.1,3.62.1h15.42a33.14,33.14,0,0,0,3.76-.1,26.9,26.9,0,0,0-.19,3.62v5.36c.47,0,1.27,0,1.46,0,1.41,0,1.83-.24,1.83-1v-9.35H799.64c-2.16,0-3.76.09-5.45.23V142.6c1.31.14,2.44.19,4.32.24a25.64,25.64,0,0,0-2.3-3.43c5.78-.19,9-.94,11.89-2.68ZM801.85,130v1.69c.75,0,1.18,0,2,0h7.81a10.51,10.51,0,0,0,.23-1.74Zm4.65,27.45h8.79V155.2H806.5Zm16.27-14.57a20.35,20.35,0,0,1-7.24-4.47,15.27,15.27,0,0,1-6.72,4.47ZM818.82,130a13.23,13.23,0,0,1-.28,1.74h9.68c.85,0,1.18,0,1.88,0V130Z"/><path class="cls-1" d="M852.71,122.72a63.51,63.51,0,0,0-1.92,10.06c3.05-5.5,6.86-8.14,11.89-8.14a11.1,11.1,0,0,1,8.51,4.28c2.63,3.29,3.9,7.57,3.9,13.07q0,11.56-7.19,17.21a28.45,28.45,0,0,1-10.72,4.89,48.34,48.34,0,0,1-5.55,1.08,27.94,27.94,0,0,0-3.76-8c13.49-.8,19-5.22,19-15.37,0-5.88-1.88-9.12-5.22-9.12-1.74,0-3.34.84-5.08,2.72a20,20,0,0,0-5.22,10.91,24.6,24.6,0,0,0-.18,3.85l-7.9.1a6.38,6.38,0,0,0,0-.8v-.94c-.09-1.83-.14-4.65-.14-6a134.17,134.17,0,0,1,1.09-17.16,22.91,22.91,0,0,0,.18-2.59v-.37Z"/><path class="cls-1" d="M890,125.63a58.52,58.52,0,0,0-.52,8.51c0,10.53,1.51,18.48,3.48,18.48.52,0,1-.62,1.51-1.84a47.67,47.67,0,0,0,2.44-8.13,29.28,29.28,0,0,0,6.54,5.92,39.88,39.88,0,0,1-3.58,9.08c-1.74,3.1-4.28,4.79-7.14,4.79-2.64,0-4.89-1.36-6.73-4-2.44-3.48-3.71-8.18-4.32-15.66-.24-3.29-.42-7.24-.52-13.77a28.89,28.89,0,0,0-.19-3.34Zm21.67,1.69c6.11,7.39,9.55,16,10.86,27.36l-8.41,3.11c-.52-10.53-3.76-19.79-9.59-27.18Z"/><path class="cls-1" d="M949.27,134.85a79.23,79.23,0,0,1,12.46-.71c.33,0,1.32,0,2.31.05l.14,7.94a42.75,42.75,0,0,0-6.16-.33A63.31,63.31,0,0,0,944.81,143l-.47-6.68c-2.26.24-2.82.28-4.28.38-.8,4.42-1.65,7.9-3,12.79-1.18,4.13-1.46,5.17-3.48,11.23-.75,2.26-.75,2.26-1.08,3.39l-8.65-3.15c3.1-6,6.16-15.38,7.9-24.07H931c-1.5,0-2.49-.05-4.51-.14h-.47c-.38,0-.56,0-1.08,0l.14-7.66a49.11,49.11,0,0,0,7.14.47h.9a45.47,45.47,0,0,0,.8-7.05v-.71l8.79.66a15.18,15.18,0,0,0-.61,2.73c0,.28-.33,1.64-.75,4a53.61,53.61,0,0,0,7.71-1.22Zm1.65,12.92c-1.79,2.12-2.54,3.67-2.54,5.13,0,2.16,1.93,3.2,5.88,3.2a35.43,35.43,0,0,0,11.09-1.84l.57,8.23c-.94.09-1.37.14-2.5.28a57.67,57.67,0,0,1-9.16.75q-13.83,0-13.82-8.88c0-2.73,1.08-5.36,3.66-9.12Z"/><path class="cls-1" d="M993.18,135.32a75,75,0,0,1,12.46-.71c.33,0,1.32,0,2.3,0l.14,7.94a42.53,42.53,0,0,0-6.15-.33,63.24,63.24,0,0,0-13.21,1.18l-.47-6.68c-2.26.24-2.92.29-4.28.38-1.84,9.35-2.87,13.16-7.52,27.41l-8.66-3.15a99.43,99.43,0,0,0,7.9-24.07h-.75c-1.08,0-2.35-.05-3.24-.1-1.23,0-1.41,0-1.79,0a10.15,10.15,0,0,0-1,0l.14-7.66a49.11,49.11,0,0,0,7.14.47h.9a46.82,46.82,0,0,0,.8-7v-.76l8.79.66a15.83,15.83,0,0,0-.61,2.73c-.19,1-.43,2.35-.76,4A50.19,50.19,0,0,0,993,128.5Zm1.65,12.92c-1.79,2.12-2.59,3.67-2.59,5.13,0,2.16,1.93,3.2,5.88,3.2a35.5,35.5,0,0,0,11.14-1.84l.56,8.23c-.94.09-1.27.14-2.53.28a57,57,0,0,1-9.17.75q-13.83,0-13.82-8.88c0-2.73,1.08-5.36,3.71-9.12Zm5.5-24.86a32.51,32.51,0,0,1,4.75,7l-4.47,2.17a32.22,32.22,0,0,0-4.75-7.1Zm6.25-2.83a35.42,35.42,0,0,1,4.8,6.77l-4.33,2.12a35.58,35.58,0,0,0-4.7-7Z"/><path class="cls-1" d="M1025,123.94a76.48,76.48,0,0,0-2.49,13.35,98.48,98.48,0,0,0-.47,10.81s0,.43,0,1.74a33.56,33.56,0,0,1,2.39-5.78l5.5,2.73c-3,4.93-5.69,12-6,16l-7.57.28c-.14-1-.14-1-.65-3.71a83.8,83.8,0,0,1-1.32-14.91c0-5.17.19-7.38,1.6-17.49a24.35,24.35,0,0,0,.28-3.71Zm2,8.18a48.25,48.25,0,0,0,8.46.66,38.9,38.9,0,0,0,4.28-.19c-.33-8-.33-8.09-.7-9.78l8.36-.09a17.28,17.28,0,0,0-.14,1.78,7.1,7.1,0,0,0,0,.9c0,.89.09,3.1.19,6.48a27.36,27.36,0,0,0,6.58-1.59l.42,7.85c-.8.09-1.08.14-2.72.42a30.41,30.41,0,0,1-4,.61c0,2.26,0,2.73,0,3.81,0,6-.94,10.77-2.77,13.91-2.07,3.62-4.42,5.83-9.22,8.61a29.78,29.78,0,0,0-6.44-6.25c4.89-2.12,8-4.94,9.36-8.33.89-2.25,1.22-5,1.22-10.53v-.56c-1.83.14-3,.19-5,.19-1.79,0-3.29-.05-4.94-.14s-1.55-.1-3-.1Z"/><path class="cls-1" d="M1057.35,126.57a67.35,67.35,0,0,0,13.54,1c.56,0,1.18,0,2.59,0a32.5,32.5,0,0,0-.29-5.12h8.28a28.41,28.41,0,0,0-.38,4.89c6.25-.38,10.63-.9,13.35-1.65l.24,7.19c-1.37.1-1.65.1-4.14.43a92.78,92.78,0,0,1-9.45.8v3a74.73,74.73,0,0,0,12.13-1.41l.19,7.19c-1,.05-1,.05-3,.24s-6.63.56-9.21.65c0,2.17,0,2.17.14,4.14a26.91,26.91,0,0,1,6.44,2.54,47.22,47.22,0,0,1,6.3,3.9c.7.47,1,.66,1.78,1.13l-4.46,7.57a25.41,25.41,0,0,0-3.2-3,24.14,24.14,0,0,0-6.68-4.18,8.14,8.14,0,0,1-1.12,4.74c-1.56,2.4-5.13,3.72-10.25,3.72-7.71,0-12.08-3.15-12.08-8.61,0-3.43,2.16-6.25,5.92-7.66a23.9,23.9,0,0,1,8.37-1.27h1.45c0-1.6-.09-2.54-.09-2.77-1,0-2.91.05-3.62.05-2.73,0-4.89-.05-7.57-.19-2.07-.1-2.3-.14-3.71-.14l.09-7a71.85,71.85,0,0,0,11.57.75c1,0,1.69,0,3.15,0v-.71c0-.09,0-.09,0-1.22v-1.13c-1.08.05-1.55.05-2,.05-2.53,0-3.33-.05-8.74-.28-1.79-.05-1.79-.05-3.53-.14-.65,0-1.12,0-1.26,0h-.8Zm13.59,26.8c-2.87,0-4.52.8-4.52,2.25,0,1.18,1.32,1.89,3.67,1.89,2.63,0,3.76-.9,3.76-3,0-.29,0-.8,0-.8A10.15,10.15,0,0,0,1070.94,153.37Z"/><path class="cls-1" d="M1097.78,127.28c1.17.09,1.69.14,2.87.14s13.91-.33,18.28-.47a26.68,26.68,0,0,0-.32-5h8.32a31.56,31.56,0,0,0-.24,4.8c7.81-.05,11.28-.14,13.16-.33l.05,7.71a78.17,78.17,0,0,0-8.46-.23c-2.49,0-2.82,0-4.7,0v7a15,15,0,0,1,1.88,7.85c0,5.27-2.73,9.87-7.76,13a37.64,37.64,0,0,1-9.45,3.81,21.13,21.13,0,0,0-4.46-7.43c4.74-.7,7.42-1.45,9.68-2.86a7.79,7.79,0,0,0,3.48-3.72,8.57,8.57,0,0,1-6.3,2.21c-5.45,0-9.31-3.57-9.31-8.6,0-5.36,4.42-9,10.91-9a10.59,10.59,0,0,1,3.67.52v-1.46a7.21,7.21,0,0,0,0-1.13c-9.73.29-17.4.71-21,1.23Zm14.62,17.53c0,1.46,1.32,2.54,3.1,2.54,2,0,3.58-1.22,3.58-2.82s-1.23-2.44-3.11-2.44C1113.9,142.09,1112.4,143.21,1112.4,144.81Z"/><path class="cls-1" d="M1154.9,156.66a8.94,8.94,0,1,1-8.94-8.93A8.93,8.93,0,0,1,1154.9,156.66Zm-13,0a4.09,4.09,0,1,0,4.09-4.09A4.09,4.09,0,0,0,1141.87,156.66Z"/></g></g></svg>