<svg xmlns="http://www.w3.org/2000/svg" xmlns:xlink="http://www.w3.org/1999/xlink" width="1170" height="237.09" viewBox="0 0 1170 237.09"><defs><style>.cls-1{fill:url(#radial-gradient);}.cls-2{fill:url(#radial-gradient-2);}.cls-3{isolation:isolate;}.cls-4{mask:url(#mask);}.cls-5,.cls-8{mix-blend-mode:multiply;}.cls-5{fill:url(#linear-gradient);}.cls-6{fill:#ff6f6f;}.cls-7{mask:url(#mask-2);}.cls-8{fill:url(#linear-gradient-2);}.cls-9{fill:#fff;}.cls-10{fill:#ccc;}</style><radialGradient id="radial-gradient" cx="-1579.41" cy="-784.05" r="26.16" gradientTransform="translate(-28599.53 -8117.2) rotate(180) scale(18.43 10.61)" gradientUnits="userSpaceOnUse"><stop offset="0" stop-color="#fff"/><stop offset="0.16" stop-color="#fcfcfc"/><stop offset="0.29" stop-color="#f2f2f2"/><stop offset="0.41" stop-color="#e1e1e1"/><stop offset="0.52" stop-color="#c9c9c9"/><stop offset="0.63" stop-color="#aaa"/><stop offset="0.74" stop-color="#848484"/><stop offset="0.84" stop-color="#575757"/><stop offset="0.94" stop-color="#242424"/><stop offset="1"/></radialGradient><radialGradient id="radial-gradient-2" cx="-2312.83" cy="-785.27" r="26.16" gradientTransform="translate(-13155.65 -8117.2) rotate(180) scale(6.13 10.61)" xlink:href="#radial-gradient"/><mask id="mask" x="0" y="160.16" width="989.2" height="88.34" maskUnits="userSpaceOnUse"><rect class="cls-1" x="11.78" y="161.21" width="977.42" height="87.3"/></mask><linearGradient id="linear-gradient" x1="13612.78" y1="1319.55" x2="13612.78" y2="1391.09" gradientTransform="translate(-13124.07 -1165.03)" gradientUnits="userSpaceOnUse"><stop offset="0" stop-color="#9a9e99"/><stop offset="0.03" stop-color="#a8aca8"/><stop offset="0.11" stop-color="#c3c6c3"/><stop offset="0.19" stop-color="#d9dbd9"/><stop offset="0.29" stop-color="#eaebea"/><stop offset="0.41" stop-color="#f6f7f6"/><stop offset="0.57" stop-color="#fdfdfd"/><stop offset="1" stop-color="#fff"/></linearGradient><mask id="mask-2" x="856.91" y="173.08" width="329.13" height="88.34" maskUnits="userSpaceOnUse"><rect class="cls-2" x="860.83" y="174.12" width="325.21" height="87.3"/></mask><linearGradient id="linear-gradient-2" x1="14137.53" y1="1332.46" x2="14137.53" y2="1404.01" xlink:href="#linear-gradient"/></defs><title>lp_taisya</title><g class="cls-3"><g id="レイヤー_2" data-name="レイヤー 2"><g id="レイヤー_1-2" data-name="レイヤー 1"><g class="cls-4"><rect class="cls-5" y="160.16" width="977.42" height="64.01"/></g><rect class="cls-6" width="1169.89" height="162.04"/><g class="cls-7"><rect class="cls-8" x="856.91" y="173.08" width="313.09" height="64.01"/></g><polygon class="cls-9" points="1170 32.56 979.72 32.56 856.91 175.81 1170 175.81 1170 32.56"/><path class="cls-10" d="M1132.13,64.89h-29.84a71.08,71.08,0,0,1,10.32-16.73,2.65,2.65,0,0,0-.18-3.75,2.68,2.68,0,0,0-3.76.15,73.45,73.45,0,0,0-12.19,20.33h-51a2.68,2.68,0,0,0-2.66,2.69v34.19a2.67,2.67,0,0,0,2.66,2.65h47.9a69.19,69.19,0,0,0,9.07,20.75c.93,1.43,2,3.2,3.18,5.1a114.47,114.47,0,0,1-42.4,8h0a114.18,114.18,0,0,1-43.78-8.6c1-1.67,2-3.23,2.84-4.53,27.52-42.74-5.94-80.22-6.28-80.61a2.7,2.7,0,0,0-3.78-.15,2.67,2.67,0,0,0-.15,3.75c1.27,1.4,31,34.87,5.73,74.11-5.18,8-14.8,23-13.18,40a2.69,2.69,0,0,0,2.65,2.43.74.74,0,0,0,.26,0,2.64,2.64,0,0,0,2.4-2.89c-1-10.24,2.79-19.83,6.83-27.34a118.92,118.92,0,0,0,46.46,9.23h0a120,120,0,0,0,45-8.65c3.91,7.4,7.46,16.78,6.52,26.76a2.64,2.64,0,0,0,2.39,2.89.72.72,0,0,0,.26,0,2.65,2.65,0,0,0,2.64-2.43c1.64-17-8-32-13.16-40a63.5,63.5,0,0,1-8.05-17.82h33.3a2.69,2.69,0,0,0,2.68-2.68V67.55a2.68,2.68,0,0,0-2.68-2.66Zm-2.66,34.19h-5.58V88.16a2.67,2.67,0,0,0-5.34,0V99.08h-7.45V88.16a2.66,2.66,0,1,0-5.32,0V99.08h-7.45V88.16a2.67,2.67,0,0,0-5.34,0V99.08h-7.45V88.16a2.68,2.68,0,0,0-5.35,0V99.08h-7.42V88.16a2.7,2.7,0,0,0-2.69-2.66,2.67,2.67,0,0,0-2.65,2.66V99.08H1060V88.16a2.67,2.67,0,0,0-5.34,0V99.08h-6.54V70.23h81.38Zm-67.18,27.64a5.64,5.64,0,1,1,5.63-5.65,5.66,5.66,0,0,1-5.63,5.65Zm-59.57-34.89V86.16h-9V72h9V66.27l12.8,12.79Z"/><path class="cls-9" d="M50.73,51.07c0-3.24,0-4.51.12-6.43a36.64,36.64,0,0,1-4.5,5.41,41.33,41.33,0,0,0-3.79-10.46A50.41,50.41,0,0,0,53.14,22.76a32.4,32.4,0,0,0,2.22-7.63l9.38,3.06a105.38,105.38,0,0,1-4.81,12V64.59a66,66,0,0,0,.36,7.46H50.37a64.48,64.48,0,0,0,.36-7.46ZM81.69,40a47.77,47.77,0,0,0,3.48,12.74,27.43,27.43,0,0,0,4.09,6.56A5.37,5.37,0,0,0,91,60.69c.79,0,1.51-3.79,1.93-10.28a32,32,0,0,0,7.93,5.17c-.78,6.85-1.74,10.46-3.48,13.28a6.27,6.27,0,0,1-5.53,3.25c-3.07,0-6.07-1.93-9.5-6.07-5.11-6.25-8.42-14.61-10-25.61l-4.75.3a52.82,52.82,0,0,0-6.07.6l-.06-9.19c1.75.06,1.93.06,2.59.06,1,0,3.12-.06,4.14-.12l3.25-.18c-.24-3.61-.24-3.61-.42-10.52a33,33,0,0,0-.36-5.11l10.1-.18a28.53,28.53,0,0,0-.3,5.11c0,3.43.06,5.77.36,10.1l8.41-.48a70.72,70.72,0,0,0-8-9.74l7.33-4.93a76.65,76.65,0,0,1,8.78,9.74L90.76,30.7l1.63-.07a55.65,55.65,0,0,0,7.09-.78l.06,9.38A20.92,20.92,0,0,0,97,39.11a33.6,33.6,0,0,0-3.84.18Z"/><path class="cls-9" d="M101.59,25.53a29,29,0,0,0,4.32.24h8.36a42.58,42.58,0,0,0,4.75-.18V33.4a29.29,29.29,0,0,0-4.69-.18h-8.42a27.62,27.62,0,0,0-4.32.18ZM119,59.61a57.94,57.94,0,0,0,7.45-7.4c-4.93.78-4.93.78-6.37,1.09l-1.08-8c.18,0,.3.06.42.06h.42a2.07,2.07,0,0,0,.54-.06V25.77a50.34,50.34,0,0,0-.24-5.17,30.94,30.94,0,0,0,4.93.24,25.24,25.24,0,0,0,1.74-6.07L135.3,16l-.78,2c-.36.9-.36.9-1.26,2.89h1.26a29.27,29.27,0,0,0,4.75-.24,40.34,40.34,0,0,0-.24,5.11V38.15L141,39.53l2.46-1.68A71.1,71.1,0,0,1,147,48.73V34.24h-2.59a28.64,28.64,0,0,0-4,.24V25.65a24.58,24.58,0,0,0,4,.24H147V23.48a65.23,65.23,0,0,0-.36-7.69h9.19a51.41,51.41,0,0,0-.36,7.69v2.41a17.91,17.91,0,0,0,3-.3v8.89c-1.14-.12-1.56-.18-3-.24V63.51c0,6.73-1.92,8.3-10.1,8.3-.9,0-1.86,0-3.78-.12a35.29,35.29,0,0,0-1.87-8.6,38.24,38.24,0,0,0,5.11.3c1.74,0,2.17-.3,2.17-1.56v-8.6l-4.87,3.19a62,62,0,0,0-2.95-11.78l-.18.42V64.41c0,5.65-1.8,7.22-8.59,7.22-1.51,0-2.11,0-3.91-.06a24.66,24.66,0,0,0-1.32-7.28c-1.45,1.57-2,2.11-3.91,3.85A54.18,54.18,0,0,0,119,62.91V66.4c0,2,.06,3.72.12,4.81h-6.62V69.58h-2.94v2.53h-7.09a52.78,52.78,0,0,0,.3-5.83V56.84c0-1.68-.06-2.52-.18-4.69a31.7,31.7,0,0,0,3.84.12h8.66c1.56,0,2.88,0,4-.06-.06,1.26-.06,1.5-.06,4.57ZM103.33,16.75a27.72,27.72,0,0,0,4.27.24h6.67a28.25,28.25,0,0,0,4.33-.24v7.33a29.51,29.51,0,0,0-4.33-.18H107.6a38.28,38.28,0,0,0-4.27.18Zm0,18.33a32.63,32.63,0,0,0,4.27.12H114a43.09,43.09,0,0,0,4.57-.12v6.8c-2.17-.13-2.17-.13-4.57-.13H107.6c-2.11,0-3.19.06-4.27.13Zm0,8.54a32.63,32.63,0,0,0,4.27.12H114a39.39,39.39,0,0,0,4.57-.12v6.79c-1.81-.12-2.35-.12-4.57-.12H107.6c-2.17,0-3.19.06-4.27.12Zm6.19,19.05h3V58.82h-3Zm22.06-5.83a71.6,71.6,0,0,1-5.77,6.85A39.35,39.35,0,0,0,130,64c1.26,0,1.62-.18,1.62-1Zm0-29.63h-4v2.34h4Zm-4,9.62h4V34.54h-4Zm0,7.87c2.41-.3,2.83-.36,4-.54V41.81h-4Z"/><path class="cls-9" d="M161.76,21.8c2.58.6,6.19.84,12.44.84h1.68A21.76,21.76,0,0,0,177.74,16l11,.84a17.25,17.25,0,0,0-1.26,2.83c-.78,1.74-1.14,2.7-1.2,2.82.6-.06.6-.06,3.66-.24a88.22,88.22,0,0,0,15.21-1.92l.36,9.55-5.41.54c-4.27.43-11.78.85-17.91,1a32.51,32.51,0,0,1-2.88,4.44,17.71,17.71,0,0,1,7.63-1.8c5,0,8,1.92,9.2,5.83,1-.36,1-.36,4.2-1.44.18-.06,1.81-.6,3.73-1.2,3.43-1.15,3.85-1.27,4.81-1.81l3.66,9.5A98.76,98.76,0,0,0,197.22,49c.06,1.62.06,1.68.06,4.32a37.3,37.3,0,0,0,.24,5.17l-9.8.3a49.33,49.33,0,0,0,.3-6.37l-.54.24c-2.76,1.33-3.13,1.57-4.21,2.53a4.14,4.14,0,0,0-1.56,3.06c0,2.29,2.22,3.19,8,3.19a56.77,56.77,0,0,0,19.24-3l.66,10.82a39,39,0,0,0-5.35.54,118.9,118.9,0,0,1-14.49.9c-6.79,0-11-.84-14.3-2.76a9.66,9.66,0,0,1-4.75-8.54,11.17,11.17,0,0,1,2.95-7.57,26.49,26.49,0,0,1,8.65-6.43c1.44-.72,2-1,4.45-2a2.48,2.48,0,0,0-2.4-1.5c-3.07,0-7.22,2.1-11.42,5.76a38.22,38.22,0,0,0-5.77,6.07l-7.64-7.57A40.44,40.44,0,0,0,166,39.89c1.33-1.62,3.73-5.11,4.63-6.55s.9-1.5,1.14-1.92h-1.92c-2.58,0-2.58,0-5.17-.06-.84-.06-1.26-.06-2.1-.06h-.9Z"/><path class="cls-9" d="M246.09,61h14.84a85.34,85.34,0,0,0,9.38-.42v10a83.61,83.61,0,0,0-9.2-.43H224.87c-3.07,0-6.43.12-9.56.43v-10a86.66,86.66,0,0,0,9.56.42h11.3V24a59.31,59.31,0,0,0-.36-7.57h10.64a71.32,71.32,0,0,0-.36,7.57V32H259c2.76,0,5.11-.12,7.69-.36v9.67c-2.64-.24-5-.36-7.69-.36H246.09Z"/><path class="cls-9" d="M288,18.85a96.13,96.13,0,0,0-3.18,17.07,126.24,126.24,0,0,0-.6,13.89c0,.18,0,.18.06,2.22a43.66,43.66,0,0,1,3.06-7.39l7,3.49C290.75,53.71,287,64,286.78,68.56L277.1,69c-.12-.84-.18-1.14-.3-1.86,0-.24-.12-.78-.24-1.56l-.3-1.39a106.67,106.67,0,0,1-1.68-19.05c0-6.55.24-9.38,2-22.36a31.3,31.3,0,0,0,.36-4.69Zm28.13-.18c-.3-.66-.48-1-1-1.92l4.45-1.32a48.17,48.17,0,0,1,4,9.62l-4.74,1.56a64.54,64.54,0,0,0-2.29-6.85v.9c0,.72,0,.72.12,3,0,.24,0,1.21.06,2.71,0,.42.06,1.44.06,2.7a35.22,35.22,0,0,0,8.42-2l.54,10c-1,.12-1.32.18-3.49.6a48.3,48.3,0,0,1-5.17.78c.06,4.09.06,4.09.06,4.81a63.73,63.73,0,0,1-.78,9.67,23.52,23.52,0,0,1-7.27,13.95A32.06,32.06,0,0,1,301.87,72a38.07,38.07,0,0,0-8.24-7.94c6.25-2.76,10.22-6.31,12-10.7,1.15-2.82,1.57-6.37,1.57-13.4v-.72c-2.35.12-3.91.18-6.37.18-2.23,0-4.27-.06-6.38-.18-1.92-.12-2.1-.12-3.84-.12l.06-9.8a56.1,56.1,0,0,0,10.82.84c2.22,0,3.72-.06,5.47-.18-.06-1.32-.12-2.52-.12-2.94-.18-4.75-.36-6.79-.73-8.23Zm10,5.89a44.2,44.2,0,0,0-3.85-9.37l4.33-1.32a36.68,36.68,0,0,1,3.91,9.07Z"/><path class="cls-9" d="M329.88,22.88c1,.06,1.8.06,2.28.06,1.57,0,3.73-.12,10.28-.54,9.38-.6,13.77-.84,32.1-1.5,5-.18,5.53-.24,6.61-.48l.54,10.88a9.12,9.12,0,0,0-1.68-.12,28.23,28.23,0,0,0-13.77,4.2c-6,3.67-9.55,8.78-9.55,13.71,0,3.42,1.62,5.77,5.05,7.39,2.46,1.2,7.57,2.16,11.48,2.16a10.36,10.36,0,0,0,1.8-.12L373.64,70a18.64,18.64,0,0,0-2.23-.3c-6.85-.66-11.36-1.62-15.2-3.36-7.1-3.31-10.76-8.84-10.76-16.47a20.53,20.53,0,0,1,5.11-13.58,24.23,24.23,0,0,1,5.89-5.11L335.65,33a36,36,0,0,0-5.17.78Z"/><path class="cls-9" d="M60.17,92a72.46,72.46,0,0,0-.3,8v12a79,79,0,0,0,.3,8.6H48.51a62.58,62.58,0,0,0,.36-8.78V100A60.23,60.23,0,0,0,48.51,92Zm28,0c-.24,3.36-.3,4.27-.3,8.11v7c0,8.23-.48,14-1.38,17.49-1.81,6.55-5.89,11.48-12.51,15.26-3.42,2-6.61,3.25-12.5,4.93a27.41,27.41,0,0,0-6.13-10.28c5.77-1.08,8.84-2,11.9-3.66,5.29-2.83,8-6.37,9-11.66a102.45,102.45,0,0,0,.66-12.75v-6.25A58.28,58.28,0,0,0,76.46,92Z"/><path class="cls-9" d="M118.12,96.41a4.35,4.35,0,0,0-.19,1,8.52,8.52,0,0,0-.24,1.68l-.18,1.2-.24,1.39c-2.4,18.39-7,30.89-14.9,40.63a42.38,42.38,0,0,0-9.8-7.16c8.17-8.29,13.82-24.7,14.13-40.75Zm17.55-2.11v.24a79,79,0,0,0,2.16,13c3,11.6,6.79,19.41,13.16,27.1a41.84,41.84,0,0,0-9.49,7.58c-8-10.46-13.23-24.41-15.51-41.23-.06-.61-.12-1-.12-1.15l-.42-2.28-.06-.6-.24-.72ZM141,91.24a47.86,47.86,0,0,1,3.85,9.67l-4.75,1.51a51.5,51.5,0,0,0-3.6-9.92Zm6.32,9a51.24,51.24,0,0,0-3.73-9.43l4.45-1.39a37.47,37.47,0,0,1,3.78,9.14Z"/><path class="cls-9" d="M194,99.35c2.89,0,3.67-.12,4.93-.66l4.57,4.63c-.6,1-.72,1.44-1,3.67-1,7.39-2.35,12.14-4.63,16.7a37,37,0,0,1-15.45,16.17,61.35,61.35,0,0,1-12,5.23,33.3,33.3,0,0,0-6.73-10.16c9-2,14.84-4.74,19.23-8.89,4.63-4.39,7.21-9.86,8.06-17.25h-26v5.35a58.52,58.52,0,0,0,.24,6.31H153.94a53.58,53.58,0,0,0,.36-6.61v-8.36c0-2.46-.12-4.14-.3-6.49a60.68,60.68,0,0,0,7.51.36h10.76V95.69a40,40,0,0,0-.36-5.53h11.54a36.88,36.88,0,0,0-.24,5.47v3.72Z"/><path class="cls-9" d="M213.75,93.58c7.57,4.45,11.48,7.21,16.53,11.78l-7.09,9.38a64.07,64.07,0,0,0-16.35-12.68Zm-6.31,37.33a60.41,60.41,0,0,0,18.09-4.33,36.16,36.16,0,0,0,17.61-14.85A54.73,54.73,0,0,0,249,100c2.95,3.55,4.33,4.75,8.84,8.06-5.47,11.84-11.18,18.93-19.6,24.34-6.49,4.21-12.2,6.43-23.38,9-2.34.55-2.7.61-4.33,1.09Z"/><path class="cls-9" d="M266.35,143.65c.24-2.53.3-4.27.36-9.2v-35a62.89,62.89,0,0,0-.42-8.71h11.6c-.24,1.56-.24,2.52-.31,8.77v8.24a127.51,127.51,0,0,1,27.35,12.5l-5.71,10.22A112.41,112.41,0,0,0,280.29,120a18.32,18.32,0,0,1-2.16-.9,1.8,1.8,0,0,1-.55-.3v15.62a75.1,75.1,0,0,0,.37,9.2Zm27.16-49.53a42.64,42.64,0,0,1,5.95,8.6l-5.71,2.76a40.42,40.42,0,0,0-5.95-8.77Zm8-3.6a42.39,42.39,0,0,1,6,8.35L302,101.58A46.43,46.43,0,0,0,296.1,93Z"/><path class="cls-9" d="M320.62,104.58a45.09,45.09,0,0,1-4.75,7.51,21.62,21.62,0,0,0-7-6.43,33.14,33.14,0,0,0,7.27-13.1,16.63,16.63,0,0,0,1-4.21l9.13,1.93a27.75,27.75,0,0,0-1,3.06c-.3.9-.48,1.56-1,2.83h7.87a39,39,0,0,0,5.95-.3v8.95a56.05,56.05,0,0,0-5.95-.24H331c-.12,5.65-.12,5.65-.24,7.81h2.1a34.83,34.83,0,0,0,5.59-.3V121a51.88,51.88,0,0,0-6-.24h-2.64c-.06.3-.06.42-.12.72,2.64,4.27,5.11,6.91,9.92,10.52V99.47c0-2.46-.06-4.51-.24-6.37a36.7,36.7,0,0,0,5.59.3h13.34a40.61,40.61,0,0,0,5.71-.3,48.69,48.69,0,0,0-.3,6.37V136.2c0,2.7.12,5.16.36,7.87h-9.26v-4h-6.37V144h-9.13c.18-2.1.3-4.75.3-7v-3.85a42.62,42.62,0,0,0-4.09,8.17,36.19,36.19,0,0,1-8.78-10.45c-2.52,5.65-5.41,9.19-11.42,13.94a23.89,23.89,0,0,0-6.43-7.63c6.85-4.09,10.34-8.9,11.9-16.41h-3.72a40.8,40.8,0,0,0-6.85.36V112a40.66,40.66,0,0,0,7,.36h4.56c.12-2.4.12-2.4.24-7.81Zm28.07,27.11h6.19v-30h-6.19Z"/><path class="cls-9" d="M384.22,102.66a131.48,131.48,0,0,0-2.59,14.6c5.05-3.24,10.34-4.68,17.19-4.68,10.7,0,17.79,5.58,17.79,14.12a15.18,15.18,0,0,1-6.79,12.74c-4.33,2.95-9.8,4.33-17.19,4.33a64.41,64.41,0,0,1-15.09-1.8,41.29,41.29,0,0,0-1.38-10.7,55.87,55.87,0,0,0,16,2.82c7.93,0,13.22-2.82,13.22-7.09,0-3.19-3.12-5-8.53-5a25.91,25.91,0,0,0-13.16,3.61,10.37,10.37,0,0,0-3.37,2.7l-10-.42a7.2,7.2,0,0,0,.18-1.2c.3-2.89,1.57-12.5,2.77-20.8a34.91,34.91,0,0,0,.36-3.84Zm-1.09-13.23A60.18,60.18,0,0,0,395.4,93.7c4.08,1.08,9.25,2.17,12.08,2.59L404.29,106c-10.88-2.22-18.93-4.62-26-7.87Z"/><path class="cls-9" d="M464.52,88.77a32.11,32.11,0,0,1,3.55,7.64c.78,0,1.68-.06,2.7-.06a37.59,37.59,0,0,0-3.3-7.58l4.93-1.26a29.47,29.47,0,0,1,4,9l-3.36.9.06,8.65a108.45,108.45,0,0,0-11-.3c-2.17,0-3.43,0-5.83.06v8.84a19.27,19.27,0,0,1,2.4,10c0,6.79-3.48,12.62-9.92,16.64-2.94,1.87-6.37,3.25-12.08,4.93a27.34,27.34,0,0,0-5.65-9.49c9.44-1.27,14.85-4,16.77-8.48a10.94,10.94,0,0,1-8.05,2.83c-7,0-11.9-4.57-11.9-10.94,0-6.85,5.65-11.54,13.94-11.54a14.16,14.16,0,0,1,4.75.66,5.08,5.08,0,0,1-.06-.78v-1.81a4.5,4.5,0,0,0-.06-.72c-11.06.24-24.64,1.09-26.87,1.57l-.3-10.28c1.51.12,2.17.18,3.67.18s18.51-.42,23.38-.6a33.35,33.35,0,0,0-.42-6.37h10.64a40.68,40.68,0,0,0-.3,6.13c2,0,4,0,5.95-.06a35.08,35.08,0,0,0-2.95-6.37ZM437.9,119.61c0,1.86,1.68,3.24,4,3.24,2.53,0,4.51-1.56,4.51-3.6,0-1.87-1.56-3.07-4-3.07C439.82,116.18,437.9,117.62,437.9,119.61Z"/><path class="cls-9" d="M501.43,128.08c-3.49,7.7-7.51,11.06-13,11.06-8.06,0-13.71-7.69-13.71-18.69a26.72,26.72,0,0,1,6.92-18.33c5.28-5.77,12.92-8.84,21.75-8.84,8.06,0,15.15,2.71,19.6,7.39,3.84,4.09,5.89,9.92,5.89,16.71,0,7.82-2.95,14.91-8,19.42-4.08,3.66-8.83,5.59-17.25,6.91a29.42,29.42,0,0,0-5.11-9.86c5.65-.42,9.38-1.38,12.63-3.06,4.62-2.47,7.21-7.52,7.21-13.95,0-5.11-1.8-9.19-5.29-11.84a10.05,10.05,0,0,0-5.05-2.1C506.72,113.24,504.68,121,501.43,128.08Zm-10.34-22a19.45,19.45,0,0,0-6.55,14.31c0,4.27,1.62,7.63,3.73,7.63,1.5,0,3.06-2.1,4.87-6.67a78,78,0,0,0,4.5-18.33A12.06,12.06,0,0,0,491.09,106.08Z"/><path class="cls-9" d="M550.72,101c.18-2.34.3-5.83.3-7.69a16.79,16.79,0,0,0-.18-3l11.3.3c-.3,1.38-.3,1.56-.66,7.27-.06,1.62-.06,1.62-.18,3.06h13.1a8.72,8.72,0,0,0,4-.66l4.69,4.09c-.67,1.2-.79,1.68-.85,4.45-.42,12.86-1.32,22.9-2.52,26.87-1.74,5.58-4.63,7.51-11.3,7.51a70.41,70.41,0,0,1-7.87-.48,29.42,29.42,0,0,0-2.05-10.58,34.52,34.52,0,0,0,7.82,1.2c2.88,0,3.6-1,4.38-6.19a139,139,0,0,0,1.15-16.77H560.4a48.6,48.6,0,0,1-.91,6c-2.64,12.14-8.35,20-20.55,28a34.84,34.84,0,0,0-7.82-9.14c8-4.2,12.63-8.47,15.63-14.54,1.5-3.07,2.17-5.23,3-10.28h-7.52a61.66,61.66,0,0,0-8.11.36l-.06-10.28a47,47,0,0,0,8.35.48Z"/><path class="cls-9" d="M588.65,106.56a63.52,63.52,0,0,0,9.68.49H628.5c2.88,0,3.31-.06,4.81-.67l4.69,5.05a12,12,0,0,0-1.69,3.79c-3.12,9-7.45,15.69-13.34,20.62-4.57,3.84-8.9,6.19-17.13,9.37a33.7,33.7,0,0,0-6.73-9.86c7.21-1.86,11.54-3.78,15.87-7a26.13,26.13,0,0,0,9.25-12h-26a90.38,90.38,0,0,0-9.56.36Zm5-15a54.85,54.85,0,0,0,8.83.48h19.18a57.61,57.61,0,0,0,9.43-.48v10.1c-2.28-.18-5.1-.3-9.25-.3H602.35a78.55,78.55,0,0,0-8.71.3Z"/><path class="cls-9" d="M689.87,103a14.07,14.07,0,0,0-1.68,4.15c-6.37,18.81-16.89,30.41-34.74,38.4a33.64,33.64,0,0,0-7-9c8.54-2.95,15.63-7.22,20.38-12.32a66,66,0,0,0-11.18-7.46l6.31-7.57A84,84,0,0,1,673,116.06a45.81,45.81,0,0,0,5.17-11l-16.65.12a64.73,64.73,0,0,1-13.7,16.29,30.2,30.2,0,0,0-8.66-6.79C648.28,107.77,655,98.33,657.59,89l10.76,2.11c-.6,1.14-1.44,2.82-2.58,5.23l13.94-.12h1a38,38,0,0,0-2.7-5l6.07-1.63a39.51,39.51,0,0,1,4.27,9.08l-2,.6Zm2.76-15.57a43.43,43.43,0,0,1,4.33,8.9l-5.83,1.8A48.38,48.38,0,0,0,686.86,89Z"/><path class="cls-9" d="M695.82,119.37c2.47-1.87,5.77-5.47,11.06-12.2,3.91-4.93,4.15-5.23,5.53-6.5a9.86,9.86,0,0,1,6.67-2.7,9.6,9.6,0,0,1,6.74,2.82c1.44,1.33,1.44,1.33,6.13,7A170.4,170.4,0,0,0,748.66,125a27.16,27.16,0,0,0,5.1,3.84l-5.28,11.78c-.79-.78-1.15-1.08-2.17-2-8.11-7.39-12.8-12.44-23.8-25.66-2-2.35-2.46-2.77-3.37-2.77s-1,.06-5.1,5.65c-2.35,3.19-6.08,7.87-8.36,10.4l-2.1,2.4L702.5,130Z"/><path class="cls-9" d="M772.82,126.52a27.21,27.21,0,0,0,.12-3.13c0-.66,0-.66-.24-4.26l-1.2-19.06c-.18-3-.48-6.25-.72-8.11h14c-.3,2.34-.48,4.87-.72,8.11l-1.2,19.06c-.12,2.4-.18,3.78-.18,4.74a26.28,26.28,0,0,0,.12,2.65Zm-1,15.45V130.61h12.08V142Z"/></g></g></g></svg>