<svg xmlns="http://www.w3.org/2000/svg" width="1170" height="325" viewBox="0 0 1170 325"><defs><style>.cls-1{fill:#333;}.cls-2{fill:#ccc;}.cls-3{fill:none;}</style></defs><title>lp_utukushiibody</title><g id="レイヤー_2" data-name="レイヤー 2"><g id="レイヤー_1-2" data-name="レイヤー 1"><path class="cls-1" d="M174.65,27.78a117.35,117.35,0,0,1,18.2-1c.48,0,1.92,0,3.36.07l.21,11.6a62.18,62.18,0,0,0-9-.48,91.82,91.82,0,0,0-19.3,1.72l-.69-9.75c-3.29.34-4.12.41-6.24.55C160,36.91,158.79,42,156.87,49.14c-1.72,6-2.13,7.55-5.08,16.41-1.1,3.29-1.1,3.29-1.58,4.94l-12.63-4.6c4.53-8.79,9-22.45,11.53-35.16H148c-2.19,0-3.64-.07-6.59-.2h-.69a13.62,13.62,0,0,0-1.58.07l.21-11.2a70.36,70.36,0,0,0,10.44.69h1.3a65.35,65.35,0,0,0,1.17-10.3v-1l12.84,1a21.65,21.65,0,0,0-.89,4c-.07.42-.48,2.41-1.1,5.91a76.47,76.47,0,0,0,11.26-1.79Zm2.41,18.88c-2.61,3.09-3.71,5.36-3.71,7.49,0,3.16,2.82,4.67,8.58,4.67a51.67,51.67,0,0,0,16.21-2.68l.82,12c-1.37.13-2,.2-3.64.41a84.4,84.4,0,0,1-13.39,1.1q-20.19,0-20.18-13c0-4,1.57-7.83,5.35-13.32Z"/><path class="cls-1" d="M238.79,28.47a108.58,108.58,0,0,1,18.2-1c.48,0,1.92,0,3.36.07l.21,11.6a62.24,62.24,0,0,0-9-.48,91.73,91.73,0,0,0-19.29,1.72l-.69-9.75c-3.29.34-4.26.41-6.25.55-2.68,13.66-4.19,19.22-11,40l-12.64-4.6c4.6-9,9.2-23,11.54-35.16h-1.1c-1.58,0-3.43-.07-4.74-.14-1.79-.07-2.06-.07-2.61-.07a12.52,12.52,0,0,0-1.51.07l.21-11.19a71.49,71.49,0,0,0,10.43.69h1.31a68.73,68.73,0,0,0,1.17-10.23V9.45l12.84,1a23.15,23.15,0,0,0-.9,4c-.27,1.44-.61,3.43-1.1,5.91a74.74,74.74,0,0,0,11.27-1.79Zm2.4,18.88c-2.61,3.09-3.77,5.36-3.77,7.48,0,3.16,2.81,4.67,8.58,4.67a51.72,51.72,0,0,0,16.27-2.67l.83,12c-1.38.14-1.86.21-3.71.41A82.15,82.15,0,0,1,246,70.35q-20.19,0-20.19-13c0-4,1.58-7.83,5.43-13.33Zm8-36.32a47.07,47.07,0,0,1,6.93,10.16l-6.52,3.16A48,48,0,0,0,242.71,14Zm9.13-4.12a51.68,51.68,0,0,1,7,9.88l-6.31,3.09a51.94,51.94,0,0,0-6.87-10.16Z"/><path class="cls-1" d="M329.64,41.72c-3.23,9.13-4.12,11.19-6.94,15.66a33.7,33.7,0,0,0,9.2,5,39.16,39.16,0,0,0-4.39,10A45.78,45.78,0,0,1,317,64.86a43,43,0,0,1-10.3,8,35.87,35.87,0,0,0-5.83-8.65,32.23,32.23,0,0,0,10-6.38,54.72,54.72,0,0,1-4.67-8.31v7c-2.68,1-3.36,1.24-6,2.13v5.7c0,3.78.07,6,.27,8.17H290.7a65,65,0,0,0,.42-8.17V61.56c-.9.28-.9.28-2.41.83V67c-6.52,1.78-8.51,2.26-17.09,4.05-1.65.34-2.2.48-4,1L265.5,61.7h.76a55.72,55.72,0,0,0,8-.89V43.3h-1.65a55.71,55.71,0,0,0-6,.34V34.1a40.85,40.85,0,0,0,6,.34h1.65V31.63a20.72,20.72,0,0,0-3.16.2V29a35.38,35.38,0,0,1-2.88,2.54,43,43,0,0,0-3.71-10A28.63,28.63,0,0,0,275.05,8.35h9.06a23.31,23.31,0,0,0,7,8.79c0-2.27-.07-3-.21-5A35.33,35.33,0,0,0,303.48,7.8l5.14,6.8a25.32,25.32,0,0,0-.27-4.81,36.5,36.5,0,0,0,4.33.21h8a27.26,27.26,0,0,0,4.6-.21,39.61,39.61,0,0,0-.21,4.67V25.38c0,.55.14.68.76.68.82,0,.89-.34.89-4.25,0-1.93,0-2.75-.07-4.67a16.44,16.44,0,0,0,4.88,2.4c-.21,7.14-.27,9.2-.55,11-.48,3.22-1.85,4-6.8,4-5.15,0-6.18-.83-6.18-5.15V19.06H315.7c-.07,8.31-1.38,13.32-4.47,17.72H321.6a30,30,0,0,0,4.33-.21Zm-61.05,18.2a65.66,65.66,0,0,0-3.15-12.36l6-2.68a71.77,71.77,0,0,1,2.75,12.36Zm15.18-36.47a27.17,27.17,0,0,1-3.85-6,30.11,30.11,0,0,1-3.84,6Zm-.89,11h1.44a27,27,0,0,0,4.94-.27v9.4a30.06,30.06,0,0,0-4.94-.27h-1.44v10a44.27,44.27,0,0,0,2.54-8.44l4.67,2.47c-1,2.68-1.1,3.23-1.65,4.6.82-.07,1.58-.21,2.68-.41V19.47c-.83,1.31-1,1.44-2.48,4.12v8.24a31.21,31.21,0,0,0-4-.2h-1.78ZM287.54,54c-.48,1.1-.75,1.65-1.64,3.37l-3-2.2V59.3c1.85-.28,1.85-.28,5.21-1Zm18.34-24.24c2-4.05,2.47-6.52,2.68-13.52a48.42,48.42,0,0,1-8.38,2.95v4h1a25.88,25.88,0,0,0,4.74-.27Zm5.7,15.86a23.78,23.78,0,0,0-4.33.21V36.57a21.08,21.08,0,0,0,3.5.21,21.57,21.57,0,0,0-5.15-4.67,25.4,25.4,0,0,0-4.53-.28h-.89v4h.89a19.44,19.44,0,0,0,4.81-.34v9.27a28.7,28.7,0,0,0-4.81-.27h-.89v4.87a62.49,62.49,0,0,0,6-1.78v1.51Zm1.92,0a29.7,29.7,0,0,0,3,5.36,22.85,22.85,0,0,0,2.4-5.36Z"/><path class="cls-1" d="M338.29,27.3c1.92.14,2.68.21,4.12.21a241.36,241.36,0,0,0,25.82-1.58,27.19,27.19,0,0,0,6.39-1.1l6.17,8a38.33,38.33,0,0,0-5.69,4.67c-2.75,2.47-9.34,8.17-10.85,9.34a7.23,7.23,0,0,1,2.74-.48A6.69,6.69,0,0,1,372.76,49c1.17,1.71,1.37,2.47,1.72,7.41.27,3.44,1.16,4.47,3.84,4.47a38.23,38.23,0,0,0,14.22-2.82l1.16,12a58.17,58.17,0,0,0-6.45.69,61.76,61.76,0,0,1-10.44.89c-6.11,0-9.54-1.31-11.53-4.4-1.1-1.71-1.38-3.09-1.58-7.07-.14-2.68-.35-3.71-.9-4.39a3,3,0,0,0-2.33-.9c-2.82,0-5.77,2-11.19,7.42a121.63,121.63,0,0,0-9,9.82l-8.86-10.16c4.33-2.82,11.95-9.27,23.62-20,3.1-2.89,4-3.71,6.32-5.77-3.77.62-7.48,1-16.68,1.85-2.47.21-3.85.41-5.77.69Zm8.93-18.54c7.55,2.2,17.71,3.3,29.94,3.3l-1.72,10.71c-15.45-.62-22-1.31-31.45-3.5Z"/><path class="cls-1" d="M400.78,11.85a77.4,77.4,0,0,0,9.89.48c6.11,0,13.73-.27,20.66-.82,3-.21,3.92-.41,5.22-1l5.63,8.3c-1.78,1-1.78,1-11.05,9-3.64,3.09-4.88,4.12-9.48,7.48a32.93,32.93,0,0,1,9.41-1.23c6.45,0,11.06,1.51,14.69,4.67a15.22,15.22,0,0,1,5,11.88c0,6.93-3.23,12.42-9.48,16.13-4.74,2.75-11.33,4.33-18.19,4.33-11.61,0-18.68-4.6-18.68-12.22,0-6.39,5.7-11,13.66-11a15.81,15.81,0,0,1,15.45,10.71c3.71-1.65,5.43-4,5.43-7.48,0-4.81-4.67-7.76-12.29-7.76a39.49,39.49,0,0,0-21.15,6.31,51.14,51.14,0,0,0-6.59,5.15L392.54,44.4c6.32-3,20.8-14.22,29.32-22.66-3.64.41-6.39.55-16.07,1-1.85.07-3.16.2-4.53.34Zm17,44.77c-1.58,0-2.68.89-2.68,2.27,0,1.85,2.2,3,5.91,3a10.18,10.18,0,0,0,2.26-.21C422.41,58.41,420.49,56.62,417.81,56.62Z"/><path class="cls-1" d="M479.75,9c.27,4.53,1.85,12.77,3.91,20.32,3.09-1.1,5.08-1.78,7.9-2.54,6.52-1.92,6.52-1.92,9-2.68a13.87,13.87,0,0,0,2.82-1l3.91,12.23a154.66,154.66,0,0,0-24.58,6.38c-8.79,3.09-13.32,6.73-13.32,10.78s4.12,6,13.66,6a100.5,100.5,0,0,0,20.12-2.19,32.26,32.26,0,0,0,3.64-1l.89,13c-1.71.07-2.47.14-6,.55A151.8,151.8,0,0,1,484.42,70c-9.89,0-16.83-1.44-21.36-4.33-3.91-2.54-6.32-7.48-6.32-12.91a18.39,18.39,0,0,1,7.08-14.14,44.25,44.25,0,0,1,8.58-5.22c-1.65-6-2-7.62-4-18.06a35.34,35.34,0,0,0-1.1-4.53Z"/><path class="cls-1" d="M528.91,14.32a85.9,85.9,0,0,0-.75,12.43c0,15.38,2.2,27,5.08,27,.76,0,1.51-.9,2.2-2.68A70.5,70.5,0,0,0,539,39.18a43.5,43.5,0,0,0,9.54,8.65,57.64,57.64,0,0,1-5.22,13.25c-2.54,4.53-6.24,7-10.43,7-3.85,0-7.14-2-9.82-5.91-3.57-5.08-5.43-12-6.32-22.86-.34-4.81-.62-10.58-.75-20.12a47.4,47.4,0,0,0-.28-4.88Zm31.66,2.47c8.93,10.78,13.94,23.35,15.86,40l-12.29,4.53c-.76-15.38-5.49-28.91-14-39.69Z"/><path class="cls-1" d="M579.87,31.08c2.12,0,2.12,0,9.06-1.17A132.8,132.8,0,0,1,612,27.78c9,0,14.83,2.4,18.06,7.55a17.14,17.14,0,0,1,2.61,9.27c0,8.45-5.43,16.41-14.35,21.08-6,3.16-12.16,4.81-23.42,6.18a38,38,0,0,0-4.73-11.81c8-.34,14.07-1.37,19.08-3.36,4.6-1.72,7.69-4,9.27-6.94a10.14,10.14,0,0,0,1.31-4.67c0-4.12-3-6.24-8.72-6.24-8,0-21.56,2.33-28.57,4.94ZM591.13,8.62a96.88,96.88,0,0,0,28.42,3.78c1.24,0,2.41,0,4.74-.07L622.78,24c-13.94-.41-24.31-1.64-35.22-4.18Z"/><path class="cls-1" d="M656,38.29c-1.65.06-2.13.06-3.57.2v-2.4a68.24,68.24,0,0,1-10.71,5.42,26.58,26.58,0,0,0-5.36-9,50.78,50.78,0,0,0,10.51-4.4,52.4,52.4,0,0,0-8.93-8.58l7.9-5.56c1.92,1.72,2.54,2.27,3.7,3.29V9.17a36.2,36.2,0,0,0,6.32.35h12a35.11,35.11,0,0,0,5.7-.28,15,15,0,0,0,3.16,5.7,31.72,31.72,0,0,0,5-6l8.58,4.53a8.83,8.83,0,0,0-1,1.1,60.57,60.57,0,0,1-6.11,6.52c1.3,1,1.51,1.17,2.47,1.85a37.55,37.55,0,0,0,6.46-7.41L700.72,20c-.48.55-.48.55-2.68,3.16a54.92,54.92,0,0,1-4.53,4.53,47.6,47.6,0,0,0,9.06,3.57A33.89,33.89,0,0,0,698,41a73,73,0,0,1-10.23-4.87v2.33c-2-.2-3.23-.2-5.77-.27v5.15h9.41a46.67,46.67,0,0,0,7.69-.41V53a62.1,62.1,0,0,0-7.69-.34H682V60.4c0,1.78.62,2.12,3.92,2.12,2.67,0,3.91-.34,4.46-1.23a8.83,8.83,0,0,0,.55-2.75c.07-.41.07-.75.14-1.92,0-.34,0-.82.06-1.51A38,38,0,0,0,701.4,58c-.61,6.59-1.16,9-2.61,10.71-2,2.34-5.69,3.16-14.07,3.16-5.43,0-8.38-.34-10.16-1.23-2.13-1.1-2.75-2.34-2.75-5.63V52.64h-6.39a21.59,21.59,0,0,1-7.89,13.66c-3.37,2.89-6.39,4.46-12.84,6.8a27.57,27.57,0,0,0-6.53-9.55c5.43-1.37,8.52-2.6,11.61-4.6a11.56,11.56,0,0,0,5.08-6.31h-7.48a57.85,57.85,0,0,0-7.56.34V43a44.45,44.45,0,0,0,7.56.41H656Zm-2.68-19.92c-.89,0-1.65,0-2.54.07,1.85,1.86,2.75,2.82,4.19,4.47A22.87,22.87,0,0,0,660,18.37Zm24.31,11a42.17,42.17,0,0,1-7.76-7.9,52.9,52.9,0,0,1-7.76,7.9Zm-11.47,14h5.7V38.22h-5.63Z"/><path class="cls-1" d="M735.74,46.87a19.1,19.1,0,0,1,.14-1.92l.07-1.79V32.66a34.5,34.5,0,0,0-4.33,8.92,33.28,33.28,0,0,1-6.18-6.25c.07,2.48.14,4.54.14,5.57v2.19a30.89,30.89,0,0,0,.27,4.88H715.14a28.89,28.89,0,0,0,.34-4.74V41.17c0-1.1.07-3.16.21-5.08A42.62,42.62,0,0,1,708,45.56a49,49,0,0,0-5.56-9.13A29.07,29.07,0,0,0,713.7,24.35h-2.06a67,67,0,0,0-7.14.27v-10a49.53,49.53,0,0,0,7.34.34h3.64V13a34.57,34.57,0,0,0-.34-4.81h10.78a30.34,30.34,0,0,0-.34,5.22v1.58h2.54a42,42,0,0,0,6.18-.34v10c-2.13-.2-3.92-.27-6-.27h-1.64A21.88,21.88,0,0,0,736,32.11V15.9a51,51,0,0,0-.28-6,49.2,49.2,0,0,0,6.25.27h17.23a48,48,0,0,0,6.11-.27,58.38,58.38,0,0,0-.27,6V41.17a60.12,60.12,0,0,0,.27,6.52c-1.16-.07-1.64-.07-2.26-.07a25.69,25.69,0,0,1-3.16-.13H742.06a77,77,0,0,1,5.42,7.34l-2.27,1.31a33.92,33.92,0,0,0,8.45,1.92c-1-1.92-1.65-2.88-3.43-5.63l9-4.19a107.12,107.12,0,0,1,9.55,16.34L759.36,70a101.07,101.07,0,0,0-4.94-10.57c-.42,6.11-1.24,8.85-3.23,10.5s-5.56,2.13-14.49,2.13c-6,0-8.79-.14-10.85-.62-4.32-1-5.7-2.54-5.7-6.93V56.14a40,40,0,0,0-.34-6.66h11a48.2,48.2,0,0,0-.27,6.66v4.32c0,1.79.76,2,6.87,2,6.45,0,6.73-.21,6.93-5.84l-5.56,3.16a57.5,57.5,0,0,0-7.21-10.92ZM703,64.45c3.63-5.08,4.87-8.17,6.52-15.73l8.86,4.05c-2.06,8.59-2.89,11-6.59,18Zm42.84-43.4H755V18.37h-9.2Zm0,9.2H755V27.57h-9.2Zm0,9.13H755v-2.6h-9.2Z"/><path class="cls-1" d="M788.82,11.16a38.45,38.45,0,0,0-2,6.8,125.37,125.37,0,0,0-3.3,26.64l5.29,1.79c-2.13,6.66-2.88,12.22-2.88,20.94,0,.34.06,1.24.2,2.75l-11.6.48c-.07-1.24-.07-1.24-.55-5.43a133.85,133.85,0,0,1-1.51-20.8c0-9.68.61-15.73,2.74-27.74a43.3,43.3,0,0,0,.83-6v-.34Zm2.47,11.2a61.87,61.87,0,0,0,12.84,1.09c1.44,0,2.61,0,5-.06V14.46a18.58,18.58,0,0,0-.35-3.85l11.88-.06a80.46,80.46,0,0,0-.55,12A63.36,63.36,0,0,0,831,20.43l.41,10.92a19.55,19.55,0,0,0-2.54.41c-2.13.48-5.22.9-8.65,1.31.07,5.35.14,6.73.62,14.62a55.57,55.57,0,0,1,11,6.25,8.7,8.7,0,0,0,1.31.83l-4.33,11.67c-1.58-1.92-4.26-4-8.17-6.52v.54c0,5.84-6,9.76-14.76,9.76-10.1,0-16.07-4.81-16.07-12.78a12.08,12.08,0,0,1,5.22-10.09c2.61-1.85,6.25-2.82,10.57-2.82a19.74,19.74,0,0,1,4,.42c-.06-1.93-.06-2.27-.2-5.5-.07-2.33-.07-3.29-.14-5.7-1.58.07-2.54.07-3.91.07-2.06,0-6-.13-11.81-.34-.83-.07-1.38-.07-1.58-.07h-.83ZM809.83,55a11,11,0,0,0-4.19-.82c-3.16,0-5.08,1.23-5.08,3.16,0,1.78,1.79,2.95,4.53,2.95,3.3,0,4.81-1.24,4.81-4Z"/><path class="cls-1" d="M863.87,9.72a30.27,30.27,0,0,0-1.3,5.49c-.35,1.65-.48,2.27-.83,3.85a52.49,52.49,0,0,0,9.55-1.65l.2,11.13c-1.64.13-1.64.13-5.08.55-1.85.2-5.63.54-7.34.68a141.79,141.79,0,0,1-7.49,19.91c-1.44,3.16-2.06,4.4-4.74,9.76a27.07,27.07,0,0,0-1.3,2.67L834.35,56c4.87-6.52,9.61-16.27,12.7-25.95h-3.84c-1.58,0-1.58,0-3.16-.07h-2.68V19a56.14,56.14,0,0,0,10,.69c.76,0,1.1,0,2.48-.07a20.41,20.41,0,0,1,.61-2.88,46,46,0,0,0,1-8.18ZM893.4,67.61a36.71,36.71,0,0,0-8.86-7.49c-.21,3.23-1,5.22-2.88,7.14-2.68,2.68-7.49,4.26-13,4.26s-10.16-1.65-13-4.53a12,12,0,0,1-3.43-8.52c0-8,6.66-13.52,16.2-13.52a28.42,28.42,0,0,1,4.81.41c-.21-2.61-.28-3.92-.28-5.49,0-2.82.14-5,.42-8.11l11.33.48A31.93,31.93,0,0,0,884,40a61.68,61.68,0,0,0,.55,8,50.3,50.3,0,0,1,10.58,6.11c.2.14,1.3,1,3.36,2.68ZM868.82,54.7c-3.23,0-5.29,1.37-5.29,3.5s1.92,3.3,4.87,3.3c3.44,0,5.22-1.52,5.22-4.4a7.76,7.76,0,0,0-.13-1.51A11.92,11.92,0,0,0,868.82,54.7Zm25.26-19.3a97.26,97.26,0,0,0-21.35-9.89l5.7-9.47a114.64,114.64,0,0,1,20.67,9.27Z"/><path class="cls-1" d="M920.46,10.89c-.76,4.32-1.58,22.66-1.58,34.13,0,6.86.27,8.92,1.44,10.78,1.3,2.06,4.26,3.29,8,3.29,7.07,0,12.57-4.19,15.24-11.6a52,52,0,0,0,2.75-12.43c5.08,4,7.35,5.42,11.74,7.21-2.61,10.3-4.87,15.31-8.65,19.5-5.42,5.9-12.56,8.86-21.56,8.86-7,0-12.22-1.72-15.93-5.22-3.91-3.78-5.22-8.17-5.22-17.79,0-1.78,0-1.78.35-15.58.13-6.94.27-13.46.27-16.14a32.79,32.79,0,0,0-.34-5.22Z"/><path class="cls-1" d="M980.27,11.85c-2.68,7.83-4.74,20.67-5.22,33.17l5.28,1.78A68,68,0,0,0,977.66,66a19.75,19.75,0,0,0,.2,3.36l-11.81.55a28.73,28.73,0,0,0-.34-3.64,145.73,145.73,0,0,1-1.79-21.7,149,149,0,0,1,2.61-26.43,54.21,54.21,0,0,0,1-7.35Zm19,30c-3.16,4-4.6,7-4.6,9.47,0,3.16,3.09,4.88,8.92,4.88a50.91,50.91,0,0,0,17.1-2.82l.69,12.16c-1.79.2-1.79.2-5.84.82a84,84,0,0,1-11.88.89c-6.38,0-10.64-.89-14.21-2.88a12.72,12.72,0,0,1-6.32-10.92,21.52,21.52,0,0,1,3.3-10.71c1-1.58,1.37-2.27,3.22-4.94ZM985.76,17.07a57.17,57.17,0,0,0,12.22,1c9.13,0,15.86-.55,20.46-1.72l.48,11.74c-.61,0-1.3.07-5.08.48a143.31,143.31,0,0,1-14.48.76,114,114,0,0,1-11.82-.55c-.54-.07-1-.07-2-.14Z"/><path class="cls-1" d="M1039.94,51.2a27,27,0,0,0,.13-3.09c0-1.31,0-1.31-.27-5.36L1038.43,21c-.14-2.81-.48-5.9-.83-9.27h16c-.2,1.58-.62,6.39-.82,9.27l-1.38,21.77c-.13,2.88-.2,4.26-.2,5.29,0,.68,0,1.44.07,3.16Zm-1.24,17.64v-13h13.8v13Z"/><path class="cls-1" d="M71,294.26A111.64,111.64,0,0,1,60.73,302a58.6,58.6,0,0,0,14.15,1.92,44.73,44.73,0,0,0-4.54,10.3c-11.81-1.72-19-4.4-25.68-9.62v4.67C35.6,311,29,312.11,17.2,313.82c-1.51.28-2.34.42-3.71.62l-1.44-10.92a15.74,15.74,0,0,0,1.85.07c.48,0,4-.2,6.25-.41V272.69c-2.54,1.31-4,1.93-7.28,3.3a43.72,43.72,0,0,0-4.12-10.71,62,62,0,0,0,15.59-6.66c5.28-3.16,8.51-5.77,11.6-9.48H47.41A41.33,41.33,0,0,0,59.7,259a54.25,54.25,0,0,0,15.59,6,47.16,47.16,0,0,0-4.19,10.78,67.84,67.84,0,0,1-7.62-3.29v17.78ZM30.31,276.54H53.38v-2.4H30.31Zm0,9.48H53.38v-2.41H30.31Zm0,7.55v8.65c.35-.07.35-.07.83-.14,3-.27,7.07-.89,9.27-1.23-2.34-2.34-3-3.23-5.63-7.28Zm6.46-29.25a18.08,18.08,0,0,0-.14-2.13,64.26,64.26,0,0,1-5.91,4.39h6.05Zm9.06-3a46.59,46.59,0,0,1-4.12-4.05,38.62,38.62,0,0,1-4.05,4.05Zm7.07,5.28c-3-2.06-4.39-3.09-6.18-4.53-.07.83-.07,1.31-.07,2.34v2.19Zm-6.25,27a19.58,19.58,0,0,0,4.4,4.05,41.64,41.64,0,0,0,5.83-4.05Z"/><path class="cls-1" d="M102.89,284.5H86.48c-2.33,0-4.39.07-6.25.21v-6.93a50.9,50.9,0,0,0,6.39.27h16.27v-1.92H88.06c-2.47,0-4.26.07-6,.2a46,46,0,0,0,.2-4.67v-4.53c0-1.92-.06-3.29-.2-4.94,1.92.14,3.36.21,6.18.21h14.62v-2h-18a71.2,71.2,0,0,0-8.37.35V252a76.06,76.06,0,0,0,9,.41h17.37a15.33,15.33,0,0,0-.41-3.43h10.85a17.15,17.15,0,0,0-.41,3.43H130.7a75.74,75.74,0,0,0,8.93-.41v8.72a71,71,0,0,0-8.24-.35H112.92v2h15.24c2.82,0,4.26-.07,5.91-.21a48.78,48.78,0,0,0-.21,4.94v4.53a43,43,0,0,0,.21,4.67c-1.58-.13-3.3-.2-5.43-.2H112.92v1.92h15.79a54.16,54.16,0,0,0,7-.21,50.38,50.38,0,0,0-.2,6.32v2.13a23.6,23.6,0,0,0,4.81-.41v8.38a32.7,32.7,0,0,0-4.81-.35v3.3a60,60,0,0,0,.34,7.76H125.48v-2.68H112.92v2.61c0,7.55-1.79,8.86-12.09,8.86-1.85,0-3.77-.07-6.38-.21a29.19,29.19,0,0,0-2.61-8.65c3.64.34,6.11.55,8.51.55,2.13,0,2.54-.21,2.54-1.44v-1.72H87a67.08,67.08,0,0,0-6.86.27v-7.07a51.46,51.46,0,0,0,6.52.21h16.27v-2.06H83.74a49,49,0,0,0-7.56.34v-7.76a47.15,47.15,0,0,0,7.42.34h19.29ZM92.18,268.23v2.06h10.71v-2.06Zm20.74,2.06h11v-2.06h-11Zm12.56,16.27V284.5H112.92v2.06Zm-12.56,9.14h12.56v-2.06H112.92Z"/><path class="cls-1" d="M144.71,256.15c3,.68,7.08,1,14.22,1h1.92a25.14,25.14,0,0,0,2.13-7.62l12.56,1a21.76,21.76,0,0,0-1.44,3.22c-.89,2-1.3,3.09-1.37,3.23.69-.07.69-.07,4.19-.27a101.37,101.37,0,0,0,17.37-2.2l.41,10.92q-3.19.3-6.18.62c-4.87.48-13.46,1-20.46,1.16a36.86,36.86,0,0,1-3.3,5.08,20.34,20.34,0,0,1,8.72-2.06c5.7,0,9.14,2.2,10.51,6.66,1.17-.41,1.17-.41,4.81-1.64.2-.07,2.06-.69,4.25-1.38,3.92-1.3,4.4-1.44,5.5-2.06l4.19,10.85a114.17,114.17,0,0,0-17.51,4.67c.06,1.86.06,1.92.06,4.95a41.76,41.76,0,0,0,.28,5.9l-11.19.34a58,58,0,0,0,.34-7.27l-.62.27c-3.16,1.51-3.57,1.79-4.8,2.88a4.74,4.74,0,0,0-1.79,3.51c0,2.61,2.54,3.63,9.2,3.63,8.24,0,16.14-1.23,22-3.43l.76,12.36a44.59,44.59,0,0,0-6.11.62,134.79,134.79,0,0,1-16.55,1c-7.76,0-12.63-1-16.34-3.16a11,11,0,0,1-5.43-9.75,12.74,12.74,0,0,1,3.37-8.65,30.28,30.28,0,0,1,9.89-7.35c1.64-.82,2.33-1.1,5.08-2.33a2.84,2.84,0,0,0-2.75-1.72c-3.5,0-8.24,2.4-13,6.59a44.13,44.13,0,0,0-6.59,6.94L142.24,284a47.24,47.24,0,0,0,7.28-7.15c1.51-1.85,4.26-5.83,5.29-7.48s1-1.72,1.3-2.2h-2.19c-3,0-3,0-5.91-.07-1-.06-1.44-.06-2.4-.06h-1Z"/><path class="cls-1" d="M216.06,275.92a91.62,91.62,0,0,0-9.89.41v-9.95a85,85,0,0,0,9.82.41h13v-3.23h-8.45a74.33,74.33,0,0,0-8.1.28V254a61,61,0,0,0,8,.41H229V254a26,26,0,0,0-.42-4.88h11a23.39,23.39,0,0,0-.41,4.88v.41h3.5a61.66,61.66,0,0,0,8-.41v5.28a46.69,46.69,0,0,0,6.53-9.06l9.47,6.25a29.71,29.71,0,0,0-3,3.23,93.81,93.81,0,0,1-6.8,7.07h2.75a73.47,73.47,0,0,0,9.06-.41v9.95a81.72,81.72,0,0,0-9.2-.41h-13.8c-2.54,1.79-4.19,2.89-6.32,4.19,8.24-.41,16.76-1.72,20.4-3.09l6.59,8c-9.34,1.72-18.88,2.61-32.41,3-.21.61-.41,1.3-.69,1.92h22.25a37.43,37.43,0,0,0,6.59-.28c-.14,1.17-.2,1.58-.41,4-.76,8.73-1.85,13.67-3.5,16-2,2.82-4.47,3.51-12.57,3.51-2.4,0-3,0-8.65-.35a22.17,22.17,0,0,0-2.33-9.82c4.8.48,7.82.69,10.3.69,3.08,0,4.05-.14,4.6-.69s1-2,1.23-4.6H230.2c-.68,1.51-1,2.2-2.06,4.33l-11.53-1.38a60.58,60.58,0,0,0,6-12.15c-4.53,2.06-7.21,3.16-12.36,5.08a31.05,31.05,0,0,0-5.76-8.79,128,128,0,0,0,24.85-9.68Zm26.71-9.13c1.85-1.58,2.4-2.06,3.71-3.23H239.2v3.23Z"/><path class="cls-1" d="M277.38,268.3c1.92.14,2.68.21,4.12.21a241.36,241.36,0,0,0,25.82-1.58,27,27,0,0,0,6.38-1.1l6.18,8a38.74,38.74,0,0,0-5.7,4.67c-2.74,2.47-9.33,8.17-10.85,9.34a7.31,7.31,0,0,1,2.75-.48,6.69,6.69,0,0,1,5.77,2.68c1.17,1.71,1.37,2.47,1.72,7.41.27,3.44,1.16,4.47,3.84,4.47a38.17,38.17,0,0,0,14.21-2.82L332.79,311a58.17,58.17,0,0,0-6.45.69,61.76,61.76,0,0,1-10.44.89c-6.11,0-9.54-1.31-11.54-4.4-1.09-1.71-1.37-3.09-1.57-7.07-.14-2.68-.35-3.71-.9-4.39a3,3,0,0,0-2.33-.9c-2.82,0-5.77,2-11.19,7.42a121.63,121.63,0,0,0-9,9.82l-8.86-10.16c4.33-2.82,11.95-9.27,23.62-20.05,3.09-2.89,4-3.71,6.32-5.77-3.78.62-7.48,1-16.68,1.85-2.48.21-3.85.41-5.77.69Zm8.93-18.54c7.55,2.2,17.71,3.3,29.93,3.3l-1.71,10.71c-15.45-.62-22-1.31-31.45-3.5Z"/><path class="cls-1" d="M341.45,289.31a88.07,88.07,0,0,1,16.75,15.38l-8.72,8.86a89.06,89.06,0,0,0-16.2-16.34Z"/><path class="cls-1" d="M413.2,270.15a56.76,56.76,0,0,0,18,23.76,49,49,0,0,0-6.18,10.3,66.86,66.86,0,0,1-6.73-7.62v4.81a41.47,41.47,0,0,0-4.46-.21H409.7v4.46a75.73,75.73,0,0,0,.41,8H399.33a78.3,78.3,0,0,0,.41-8v-4.39h-4a42.53,42.53,0,0,0-4.32.21v-4.67a47.6,47.6,0,0,1-6.05,6.93,39.13,39.13,0,0,0-3.84-7v9.06a48.5,48.5,0,0,0,.41,7.9H370.77a51,51,0,0,0,.41-7.9V289.86c0-3.91,0-4.46.14-7.07a37,37,0,0,1-3.71,4.67,80.33,80.33,0,0,0-3.3-12.77,51,51,0,0,0,10.37-17.17,45.21,45.21,0,0,0,2.54-9.06l10.51,2.67c-.41,1.31-.41,1.31-3.23,9.07,1.92.2,4.88.27,7.35.27h7.76v-5.08a59.45,59.45,0,0,0-.35-6.32h10.92c-.2,2.2-.34,4.12-.34,6.39v5h10.85a85.42,85.42,0,0,0,8.79-.41V270.5c-3.16-.21-6-.35-8.45-.35Zm-21.63,0c-2,0-4.8.14-7.76.35V262c-.89,2.13-1.16,2.82-2.26,5.22v24.93a56.49,56.49,0,0,0,15-22Zm8.17,19.37c0-3.71.07-6.46.14-8.1a62.84,62.84,0,0,1-5.15,10.36h5ZM415,291.78a77.67,77.67,0,0,1-5.43-10.36c.07,3.15.14,5.56.14,7.69v2.67H415Z"/><path class="cls-1" d="M434.15,256.15c3,.68,7.07,1,14.21,1h1.93a24.8,24.8,0,0,0,2.12-7.62l12.57,1a19.78,19.78,0,0,0-1.44,3.22c-.9,2-1.31,3.09-1.38,3.23.69-.07.69-.07,4.19-.27a101.23,101.23,0,0,0,17.37-2.2l.42,10.92q-3.19.3-6.18.62c-4.88.48-13.46,1-20.46,1.16a36.86,36.86,0,0,1-3.3,5.08,20.31,20.31,0,0,1,8.72-2.06c5.7,0,9.13,2.2,10.51,6.66,1.16-.41,1.16-.41,4.8-1.64.21-.07,2.06-.69,4.26-1.38,3.91-1.3,4.39-1.44,5.49-2.06l4.19,10.85a114.17,114.17,0,0,0-17.51,4.67c.07,1.86.07,1.92.07,4.95a43.7,43.7,0,0,0,.27,5.9l-11.19.34a55.12,55.12,0,0,0,.35-7.27l-.62.27c-3.16,1.51-3.57,1.79-4.81,2.88a4.73,4.73,0,0,0-1.78,3.51c0,2.61,2.54,3.63,9.2,3.63,8.24,0,16.13-1.23,22-3.43l.76,12.36a44.55,44.55,0,0,0-6.12.62,134.79,134.79,0,0,1-16.55,1c-7.75,0-12.63-1-16.34-3.16a11,11,0,0,1-5.42-9.75,12.77,12.77,0,0,1,3.36-8.65,30.28,30.28,0,0,1,9.89-7.35c1.65-.82,2.34-1.1,5.08-2.33a2.83,2.83,0,0,0-2.74-1.72c-3.51,0-8.24,2.4-13.05,6.59a43.67,43.67,0,0,0-6.59,6.94L431.68,284a47.24,47.24,0,0,0,7.28-7.15c1.51-1.85,4.25-5.83,5.28-7.48l1.31-2.2h-2.2c-3,0-3,0-5.9-.07-1-.06-1.45-.06-2.41-.06h-1Z"/><path class="cls-1" d="M551.71,262.19a56.75,56.75,0,0,0,6.72-.28c-.27,3-.27,3-.41,13.6-.27,20.32-1.23,30.49-3.23,33.92-1.71,3-4.25,3.78-12.29,3.78-.48,0-1.23,0-2.12-.07a31.1,31.1,0,0,0-1.17-7.62,49.41,49.41,0,0,1-5.5,9,37.09,37.09,0,0,0-3.63-4.26c-13.87,1.38-15.87,1.51-29.46,2.41-1.24.07-2.54.2-4.53.41l-1.51-9.61c1.51.13,2.4.13,5.7.13,2.81,0,4.73,0,9.13-.13v-2.61h-6.59c-2.41,0-4.47.07-6.66.2v-7.69a56,56,0,0,0,6.72.28h6.53v-2.06h-5.49c-3.37,0-4.88,0-7,.13a51.52,51.52,0,0,0,.28-6.52v-9.06a51.33,51.33,0,0,0-.28-6.39c2.06.14,3.85.21,7,.21h5.49v-2h-7.62a61.25,61.25,0,0,0-6.66.27v-8.1a60.55,60.55,0,0,0,6.66.27h7.62v-2c-5.15.21-8.86.28-11.06.35a34.52,34.52,0,0,0-3.15-7.21c15.17-.14,27.05-1.17,31.17-2.82l5.15,7.76c-.35.07-.48.07-1,.14l-1,.07a16.66,16.66,0,0,0-2.13.27c-2.27.28-3.09.34-9.07.89v2.54h6.6a51.78,51.78,0,0,0,6.59-.27V262a23.6,23.6,0,0,0,3.64.21h.89v-6.46a28.56,28.56,0,0,0-.41-6.24h10.92c-.35,1.92-.35,1.92-.48,12.7Zm-45.94,13.59v2.34h3.64v-2.34Zm0,7.56v2.47h3.64v-2.47ZM530.35,300c3.36-6.31,4.81-13.8,5.49-28.08a39.78,39.78,0,0,0-4.32.21v-4a20.54,20.54,0,0,0-4.33-.2h-8.86v2h6.73a51.21,51.21,0,0,0,5.5-.14,40.47,40.47,0,0,0-.21,6v9.89c0,2.54.07,4.33.14,6-1.72-.07-2.47-.07-6-.07h-6.18v2.06h5.36c3.5,0,4.81-.07,6.66-.21Zm-12-21.9H522v-2.34h-3.64Zm0,7.69H522v-2.47h-3.64Zm0,17.37c4.95-.2,4.95-.2,10.44-.62.41-.68.55-.82,1-1.51a21.25,21.25,0,0,0-3.29-.2h-8.11Zm27.47-31.24c-.55,13.87-2.2,23.07-5.56,31.17a20.36,20.36,0,0,0,3,.28c2.82,0,3.36-.83,4-6,.69-5,1-9.41,1.44-25.41Z"/><path class="cls-1" d="M561.12,265.9h.61c2.2,0,8.79-.55,13.26-1.1,1.09-7.21,1.57-11.26,1.57-13.6V250L589,251.2a34.84,34.84,0,0,0-1.1,5.43c-.55,3.16-1,5.77-1.3,7.34,1.17-.06,2-.13,2.95-.13,4.26,0,7.42.89,9.75,2.74,3.5,2.82,4.88,7,4.88,14.77,0,10.71-1.58,19.63-4.33,24.37a11,11,0,0,1-4.39,4.12,13.12,13.12,0,0,1-5.36,1A39.39,39.39,0,0,1,579.17,309a30,30,0,0,0,.21-4,31.48,31.48,0,0,0-1-8.17c3.91,1.51,7.42,2.47,9.41,2.47,1.44,0,2.33-.89,3.09-3.09,1-3,1.85-10,1.85-15.25,0-2.95-.41-4.6-1.3-5.56s-1.72-1.16-4.12-1.16a26.34,26.34,0,0,0-2.75.13,136.49,136.49,0,0,1-4.88,17.1,147.42,147.42,0,0,1-7.27,17.72c-.55,1.16-.69,1.51-1.1,2.47l-11.33-6c4.39-5.83,10.16-19.5,12.91-30.35a85.36,85.36,0,0,0-10.72,1.93Zm50.94-7.35a71.27,71.27,0,0,1,14,29.32l-11.26,5.36c-2.27-12.57-6.52-22.53-12.84-30Z"/><path class="cls-1" d="M646.4,251.89c-.76,4.32-1.58,22.66-1.58,34.13,0,6.86.27,8.92,1.44,10.78,1.31,2.06,4.26,3.29,8,3.29,7.07,0,12.56-4.19,15.24-11.6a52.48,52.48,0,0,0,2.75-12.43c5.08,4,7.34,5.42,11.74,7.21-2.61,10.3-4.88,15.31-8.65,19.5-5.43,5.9-12.57,8.86-21.56,8.86-7,0-12.23-1.72-15.94-5.22-3.91-3.78-5.21-8.17-5.21-17.79,0-1.78,0-1.78.34-15.58.14-6.94.27-13.46.27-16.14a31.66,31.66,0,0,0-.34-5.22Z"/><path class="cls-1" d="M693.85,289.31a88.07,88.07,0,0,1,16.75,15.38l-8.72,8.86a89.06,89.06,0,0,0-16.2-16.34Z"/><path class="cls-1" d="M726.6,285.05c-2.88,0-5.35.14-7.83.35v-9.2a64.42,64.42,0,0,0,7.83.41h17.86v-2.54H729.83a60.07,60.07,0,0,0-6.39.27v-8.1a53.94,53.94,0,0,0,6.39.27h14.63V264H728.59c-3.57,0-5.35.07-7.82.28v-9.06a64.24,64.24,0,0,0,7.82.41h6.53a44,44,0,0,0-3.44-4.88l10.24-2.54a85.74,85.74,0,0,1,4.32,7.42h7.35a39.17,39.17,0,0,0,3.71-7.21l10.43,2.33a55.78,55.78,0,0,1-3.22,4.88h6.79a59.85,59.85,0,0,0,7.83-.41v9.06c-2.26-.21-4.26-.28-7.83-.28H754.89v2.54H770a54.39,54.39,0,0,0,6.38-.27v8.1a59,59,0,0,0-6.38-.27H754.89v2.54h18.4a59.74,59.74,0,0,0,7.83-.41v9.2a56.59,56.59,0,0,0-7.83-.35h-18.6c-.14,1.24-.21,1.65-.35,2.68H772.4c3.78,0,5.49-.07,7.83-.27v9.47a83,83,0,0,0-8.72-.41H759.22a23.73,23.73,0,0,0,8.92,4.81c4.19,1.37,8,1.92,14.42,2.06A48.55,48.55,0,0,0,778.31,314c-7.21-1-11.88-2.27-17.24-4.87a36.76,36.76,0,0,1-12-8.59c-5.76,7.56-13.32,11.26-27.26,13.39a41.63,41.63,0,0,0-4.32-10.16c11.33-1,17-2.88,21.56-7.28H728.25a80.69,80.69,0,0,0-8.65.41v-9.47c2.4.2,4.46.27,7.76.27h16.27a22.49,22.49,0,0,0,.34-2.68Z"/><path class="cls-1" d="M803.85,251.89c-.75,4.32-1.58,22.66-1.58,34.13,0,6.86.28,8.92,1.44,10.78,1.31,2.06,4.26,3.29,8,3.29,7.07,0,12.56-4.19,15.24-11.6a52,52,0,0,0,2.75-12.43c5.08,4,7.35,5.42,11.74,7.21-2.61,10.3-4.87,15.31-8.65,19.5-5.43,5.9-12.57,8.86-21.56,8.86-7,0-12.22-1.72-15.93-5.22-3.92-3.78-5.22-8.17-5.22-17.79,0-1.78,0-1.78.34-15.58.14-6.94.28-13.46.28-16.14a31.64,31.64,0,0,0-.35-5.22Z"/><path class="cls-1" d="M859.47,255.32a85.9,85.9,0,0,0-.75,12.43c0,15.38,2.2,27,5.08,27,.76,0,1.51-.9,2.2-2.68a70.5,70.5,0,0,0,3.57-11.88,43.5,43.5,0,0,0,9.54,8.65,57.64,57.64,0,0,1-5.22,13.25c-2.54,4.53-6.24,7-10.43,7-3.85,0-7.14-2-9.82-5.91-3.57-5.08-5.43-11.95-6.32-22.86-.34-4.81-.62-10.58-.75-20.12a47.4,47.4,0,0,0-.28-4.88Zm31.66,2.47c8.92,10.78,13.94,23.35,15.86,40l-12.29,4.53c-.76-15.38-5.49-28.91-14-39.69Z"/><path class="cls-1" d="M929.79,278.53c-.21,1.1-.69,3.3-1.37,6.59-2.48,9.62-5.36,16.55-9.75,23a54,54,0,0,0-11.33-5.63c5.35-6.8,9.75-17.86,10.64-26.72ZM934,258.76a51,51,0,0,0-.41-7.63h13c-.2,1.65-.27,3.92-.34,7.76v2.54h13a64.46,64.46,0,0,0,10.78-.55v11.68a86.62,86.62,0,0,0-10.58-.35H946.2V302.5c0,5.83.07,8,.41,10.16H933.5a64,64,0,0,0,.48-10.3V272.21H921.21a80.23,80.23,0,0,0-10.37.35V260.88a62.09,62.09,0,0,0,10.43.55H934Zm27.74,16.89a73.85,73.85,0,0,0,11.12,26.23,90.45,90.45,0,0,0-11.33,6.38c-4.67-8.37-7.28-15.17-10.16-26.36a20.91,20.91,0,0,0-1-3.37Zm-2.27-26.23a36.43,36.43,0,0,1,5.22,9.61l-6.8,2.06a40.43,40.43,0,0,0-5.15-9.82Zm9.82-2.2a34.3,34.3,0,0,1,5.22,9.54l-6.39,2.06a50,50,0,0,0-5.21-9.75Z"/><path class="cls-1" d="M1012.67,281.35c-.48,7.82-1.85,12.63-4.94,17.71-3.58,6-9.21,10.3-18.41,13.94a33.59,33.59,0,0,0-8-10.85c12.36-3.57,17.92-9.82,18.54-20.8H985.75a84.57,84.57,0,0,0-10.37.34V270.15c2.68.42,4.54.55,10.58.55h38.25c6.31,0,8.1-.07,10.91-.48v11.47a92,92,0,0,0-10.71-.34Zm-1.51-28.29a87.39,87.39,0,0,0,10.16-.42c-.2-.41-.27-.48-.55-1l5.56-1.78a44.92,44.92,0,0,1,5,11l-5.91,2.13a52.19,52.19,0,0,0-4-10.16v11.26c-2.06-.2-2.47-.2-10.1-.34H993.1a102.46,102.46,0,0,0-10.71.34v-11.6c2.81.48,4.46.55,10.92.55ZM1034.3,260a49,49,0,0,0-4.81-10.92l5.36-1.85a46.53,46.53,0,0,1,4.8,10.64Z"/><path class="cls-1" d="M1091,267.89a18.34,18.34,0,0,0-2.4,2.4,77,77,0,0,1-12.71,11.19v21.15a66.91,66.91,0,0,0,.42,9.48H1064a62.21,62.21,0,0,0,.48-9.48V288.28c-5.83,3.5-8,4.46-17.92,8.1a34.34,34.34,0,0,0-5.83-9.75,86.75,86.75,0,0,0,27.81-13c5.83-4.19,10.64-8.79,12.77-12.29Z"/><path class="cls-1" d="M1095.14,283.68c2.82-2.13,6.59-6.25,12.63-13.94,4.47-5.63,4.74-6,6.32-7.41a11.21,11.21,0,0,1,7.62-3.09,10.9,10.9,0,0,1,7.69,3.22c1.65,1.51,1.65,1.51,7,8a196.13,196.13,0,0,0,19.09,19.64,31.08,31.08,0,0,0,5.83,4.39l-6,13.46c-.89-.89-1.3-1.24-2.47-2.34-9.27-8.44-14.63-14.21-27.19-29.32-2.27-2.67-2.82-3.15-3.85-3.15s-1.16.06-5.83,6.45c-2.68,3.64-6.94,9-9.55,11.88-1.51,1.72-1.51,1.72-2.4,2.75l-1.24,1.51Z"/><path class="cls-2" d="M638,116.26H608.18a70.87,70.87,0,0,1,10.31-16.73,2.64,2.64,0,0,0-.18-3.75,2.67,2.67,0,0,0-3.75.15,73.62,73.62,0,0,0-12.2,20.33h-51a2.68,2.68,0,0,0-2.66,2.69v34.18a2.66,2.66,0,0,0,2.66,2.65h47.89a69.08,69.08,0,0,0,9.07,20.75c.94,1.43,2,3.2,3.18,5.1a114.38,114.38,0,0,1-42.39,8h0a114.18,114.18,0,0,1-43.78-8.6c1-1.67,2-3.23,2.85-4.53,27.51-42.74-5.94-80.21-6.28-80.6a2.71,2.71,0,0,0-3.78-.15,2.66,2.66,0,0,0-.16,3.75c1.28,1.4,31,34.86,5.73,74.1-5.18,8-14.8,23-13.18,40A2.68,2.68,0,0,0,513.1,216a1.14,1.14,0,0,0,.26,0,2.63,2.63,0,0,0,2.39-2.89c-1-10.24,2.79-19.83,6.83-27.34A118.92,118.92,0,0,0,569,195h0a120,120,0,0,0,45-8.65c3.91,7.4,7.46,16.78,6.52,26.76A2.64,2.64,0,0,0,623,216a1,1,0,0,0,.26,0,2.64,2.64,0,0,0,2.63-2.42c1.64-17-8-31.94-13.16-40a64.26,64.26,0,0,1-8-17.83H638a2.68,2.68,0,0,0,2.68-2.67V118.92a2.68,2.68,0,0,0-2.68-2.66Zm-2.66,34.18h-5.57V139.53a2.68,2.68,0,0,0-5.35,0v10.91H617V139.53a2.66,2.66,0,1,0-5.31,0v10.91h-7.46V139.53a2.67,2.67,0,0,0-5.34,0v10.91h-7.45V139.53a2.67,2.67,0,0,0-5.34,0v10.91h-7.43V139.53a2.67,2.67,0,0,0-5.34,0v10.91h-7.45V139.53a2.67,2.67,0,0,0-5.34,0v10.91H554V121.6h81.37Zm-67.17,27.65a5.65,5.65,0,1,1,5.63-5.66,5.67,5.67,0,0,1-5.63,5.66ZM508.62,143.2v-5.67h-9.05V123.35h9.05v-5.71l12.79,12.79Z"/><path class="cls-2" d="M424.73,109v22.75c0,7.28-5.08,13.2-11.3,13.2h-.7v41.92a6.85,6.85,0,1,1-13.69,0V144.91h-.71c-6.24,0-11.3-5.92-11.3-13.2V109a4.56,4.56,0,1,1,9.12,0v22.75c0,2.45,1.31,4.08,2.18,4.08h3V109a4.57,4.57,0,0,1,9.13,0v26.83h3c.87,0,2.18-1.63,2.18-4.08V109a4.57,4.57,0,1,1,9.13,0Zm30.33,4.23a10.17,10.17,0,0,0-20.3.91c0,.23-.06.47-.06.71v72a6.85,6.85,0,0,0,13.69,0V164a6.86,6.86,0,0,0,6.85-6.86V114.64a8.58,8.58,0,0,0-.18-1.45Z"/><path class="cls-2" d="M661.34,190.51s14,1.69,18.73,1.69c4.33,0,10.78.18,20.7-7.27a24.15,24.15,0,0,0,9.84,14.23s2.75,5.3,5.9,10.84h54.63a77.79,77.79,0,0,0-.91-13.38s11.87-22.55,5-37.1a48.13,48.13,0,0,0,29.3-27.21s9.29-8.15,4.2-13.27c0,0-5.6-10-21.4-16.73,0,0-10.47-6-12.07-8.15,0,0-4.42-7-20.46,4.92,0,0-2.79,9,2.54,13,0,0,8.14,1.39,11.87-5.81,0,0,.66-.94-.7-1.39a5.14,5.14,0,0,0,4.63-2.79,20.23,20.23,0,0,1,10.23,11.17c3.27,8.34,2.78,9,4.66,10.44,0,0-14.4,4-17.68,14.89,0,0-15.58,2.54-18.12,12.32,0,0-12.32,1.85-9.78-9.78,0,0,2.12-2.54,7.75-2.24,0,0,2.84.15.79-5.26-.19-.52.48-1.12.84-2s0-1-1.54-2.3c-.52-.42.42-1.39.82-2.42.21-.61-.82-2.88-.82-2.88s2.42-1.87,2.33-2.78c-.27-2.12-5.9-3.21-6.84-5.12-.36-.75,1-2.45.79-3.24-.64-3-3.76-9.2-8-11.62-5.72-3.3-21.37-4.32-28.18,9.48-1.85,3.72-.37,12.74,1.24,16.58,1.48,3.64,8.23,13.44,8.23,13.44.33.94,2.48,14.59-9.29,18,0,0-10.71-.61-18.46,6.5,0,0-13.17-1-16.71,6.7,0,0-.94-13.51,7.6-21.71,0,0,4.93,1.22,7,0,0,0,1.54,5,5,3.08,0,0,2.42.71,2.79-1.53,0,0,3.57-.24,2.87-3.73,0,0,1.79-5-1.09-6.35,0,0,.12-4.33-3.72-4.18,0,0-7,.52-9.38.31a12.22,12.22,0,0,0-11.62,6.5l-11.33,15.83s-7.89,10.53-9,20.91c0,0-3.24,7.75,6.84,9.45Z"/><rect class="cls-3" width="1170" height="325"/></g></g></svg>