<svg xmlns="http://www.w3.org/2000/svg" xmlns:xlink="http://www.w3.org/1999/xlink" width="1170" height="237.64" viewBox="0 0 1170 237.64"><defs><style>.cls-1{fill:url(#radial-gradient);}.cls-2{fill:url(#radial-gradient-2);}.cls-3{isolation:isolate;}.cls-4{mask:url(#mask);}.cls-5,.cls-8{mix-blend-mode:multiply;}.cls-5{fill:url(#linear-gradient);}.cls-6{fill:#ff6f6f;}.cls-7{mask:url(#mask-2);}.cls-8{fill:url(#linear-gradient-2);}.cls-9{fill:#fff;}.cls-10{fill:#ccc;}</style><radialGradient id="radial-gradient" cx="-1579.41" cy="-446.46" r="26.16" gradientTransform="translate(-28599.53 -4536.32) rotate(180) scale(18.43 10.61)" gradientUnits="userSpaceOnUse"><stop offset="0" stop-color="#fff"/><stop offset="0.16" stop-color="#fcfcfc"/><stop offset="0.29" stop-color="#f2f2f2"/><stop offset="0.41" stop-color="#e1e1e1"/><stop offset="0.52" stop-color="#c9c9c9"/><stop offset="0.63" stop-color="#aaa"/><stop offset="0.74" stop-color="#848484"/><stop offset="0.84" stop-color="#575757"/><stop offset="0.94" stop-color="#242424"/><stop offset="1"/></radialGradient><radialGradient id="radial-gradient-2" cx="-2310.86" cy="-447.68" r="26.16" gradientTransform="translate(-13155.65 -4536.32) rotate(180) scale(6.13 10.61)" xlink:href="#radial-gradient"/><mask id="mask" x="0" y="160.71" width="989.2" height="88.34" maskUnits="userSpaceOnUse"><rect class="cls-1" x="11.78" y="161.76" width="977.42" height="87.3"/></mask><linearGradient id="linear-gradient" x1="13612.78" y1="1320.1" x2="13612.78" y2="1391.64" gradientTransform="translate(-13124.07 -1165.03)" gradientUnits="userSpaceOnUse"><stop offset="0" stop-color="#9a9e99"/><stop offset="0.03" stop-color="#a8aca8"/><stop offset="0.11" stop-color="#c3c6c3"/><stop offset="0.19" stop-color="#d9dbd9"/><stop offset="0.29" stop-color="#eaebea"/><stop offset="0.41" stop-color="#f6f7f6"/><stop offset="0.57" stop-color="#fdfdfd"/><stop offset="1" stop-color="#fff"/></linearGradient><mask id="mask-2" x="844.78" y="173.63" width="329.13" height="88.34" maskUnits="userSpaceOnUse"><rect class="cls-2" x="848.7" y="174.67" width="325.21" height="87.3"/></mask><linearGradient id="linear-gradient-2" x1="14131.46" y1="1333.01" x2="14131.46" y2="1404.56" xlink:href="#linear-gradient"/></defs><title>lp_yaseru</title><g class="cls-3"><g id="レイヤー_2" data-name="レイヤー 2"><g id="レイヤー_1-2" data-name="レイヤー 1"><g class="cls-4"><rect class="cls-5" y="160.71" width="977.42" height="64.01"/></g><rect class="cls-6" width="1169.89" height="162.04"/><g class="cls-7"><rect class="cls-8" x="844.78" y="173.63" width="325.21" height="64.01"/></g><polygon class="cls-9" points="1170 33.11 979.72 33.11 856.91 176.37 1170 176.37 1170 33.11"/><path class="cls-9" d="M115.69,102.12a128.78,128.78,0,0,1-12,9c4.56,1.28,9,1.92,16.5,2.24a52.24,52.24,0,0,0-5.28,12c-13.79-2-22.12-5.13-30-11.22v5.45c-10.58,2.08-18.27,3.37-32,5.37-1.77.32-2.73.48-4.33.72l-1.68-12.74A18.79,18.79,0,0,0,49,113c.56,0,4.65-.24,7.29-.48V77c-3,1.52-4.72,2.24-8.49,3.84A50.6,50.6,0,0,0,43,68.3a72.5,72.5,0,0,0,18.19-7.77c6.17-3.69,9.94-6.73,13.55-11.06H88.12A48.41,48.41,0,0,0,102.46,61a63.55,63.55,0,0,0,18.2,7,54.25,54.25,0,0,0-4.89,12.58,80.06,80.06,0,0,1-8.9-3.84V97.47ZM68.16,81.44H95.09v-2.8H68.16Zm0,11.06H95.09V89.7H68.16Zm0,8.82v10.1c.41-.08.41-.08,1-.16,3.44-.32,8.25-1.05,10.82-1.45-2.73-2.72-3.53-3.76-6.58-8.49ZM75.7,67.18a21.52,21.52,0,0,0-.16-2.48,77.33,77.33,0,0,1-6.89,5.12h7Zm10.58-3.53a50,50,0,0,1-4.81-4.73,43.89,43.89,0,0,1-4.73,4.73Zm8.25,6.17c-3.53-2.4-5.13-3.6-7.21-5.29-.08,1-.08,1.53-.08,2.73v2.56Zm-7.29,31.5a22.8,22.8,0,0,0,5.13,4.73,50.2,50.2,0,0,0,6.81-4.73Z"/><path class="cls-9" d="M120,90.9c2.8-1.92,7.37-7,14.74-16.27,5.21-6.65,5.53-7,7.38-8.73a13.28,13.28,0,0,1,9-3.61,12.72,12.72,0,0,1,8.9,3.77c1.92,1.76,1.92,1.76,8.17,9.45,7.37,9.22,25.17,26.45,29.09,28.05l-7.05,15.71c-1-1-1.36-1.36-2.88-2.73-9.94-9-18.6-18.35-31.74-34.29-2.64-3.13-3.29-3.69-4.49-3.69s-1.36.08-6.81,7.53c-2.8,3.93-8.41,10.9-11.14,14-1.12,1.28-1.84,2.08-2,2.24l-1.28,1.6c-.16.16-.49.56-1,1ZM175.8,60a54,54,0,0,1,7.93,11.46l-7.37,4a51.69,51.69,0,0,0-7.94-11.7Zm10.25-5.37a56.15,56.15,0,0,1,8,11.14l-7.14,3.92a54.67,54.67,0,0,0-7.85-11.46Z"/><path class="cls-9" d="M198,59.08c1.36.09,2.4.09,3,.09,2.09,0,5-.17,13.71-.73,12.5-.8,18.35-1.12,42.79-2,6.65-.24,7.38-.32,8.82-.64l.72,14.5a12.21,12.21,0,0,0-2.25-.16c-5.6,0-12.82,2.17-18.35,5.61-8,4.89-12.74,11.7-12.74,18.28,0,4.56,2.16,7.69,6.73,9.85,3.29,1.61,10.1,2.89,15.31,2.89a13.82,13.82,0,0,0,2.4-.16l-1.84,15.3a24.23,24.23,0,0,0-3-.4c-9.14-.88-15.15-2.16-20.28-4.48-9.46-4.41-14.35-11.79-14.35-22A27.43,27.43,0,0,1,225.57,77c2.08-2.57,4-4.17,7.85-6.82l-27.73,2.49a47.83,47.83,0,0,0-6.89,1Z"/><path class="cls-9" d="M340.73,104c-1.36,1.12-1.36,1.12-3.85,3.29a85,85,0,0,1-9.05,6.33,137.89,137.89,0,0,0,14.26.8h3.61c-3,6.81-3.13,7.29-4,11-13.62-1.44-19.71-2.64-27.08-5.37-7.62,2.65-13.31,3.77-26.53,5.13a33.23,33.23,0,0,0-3.69-10,44.27,44.27,0,0,1-6.89,9.38,59.1,59.1,0,0,0-8.65-10.18,31.36,31.36,0,0,0,6.73-8.81,34.82,34.82,0,0,0,3.2-9.86c-2.16,1.28-3.44,2-5.85,3.2a21.56,21.56,0,0,0-2.08,1.21l-3-11.86a13.11,13.11,0,0,0,2.89-.73,53.22,53.22,0,0,0,9.46-4.24c.08-1.85.16-3,.24-6.89l-6.42,4.8a53.39,53.39,0,0,0-6.17-14.42l7.62-5.45a75.21,75.21,0,0,1,5.05,10.1c0-10.74-.16-14.83-.64-17.95a90.69,90.69,0,0,0,10.65.4h15.15a26.07,26.07,0,0,0-.32-4.81h13.7a25,25,0,0,0-.32,4.81H334a98.76,98.76,0,0,0,10.34-.48V64.53c-2.65-.16-5.85-.24-10.1-.24H322.7V66.7h11.62c4.25,0,5,0,7-.16-.16,2.08-.24,3.52-.24,7V87.45c0,3.85.08,6.34.24,8.1-2.32-.16-3.36-.16-7.05-.16H322.7v2.32h5.77a53.8,53.8,0,0,0,5.77-.24Zm-48.8-39.67c.08,2.49.08,3.29.08,5.37,0,22.92-1.93,34.78-7.22,44.8a120.43,120.43,0,0,0,17.07-1,39.19,39.19,0,0,1-6.33-3.93l8.58-3.12h-6a47.52,47.52,0,0,0-6.89.24V97.47a45.06,45.06,0,0,0,6.89.24h13.62V95.39H301c-3.44,0-4.65,0-6.89.16.16-1.76.16-2.81.16-6.89V73.51c0-4.17,0-5.13-.16-7,2.24.16,3,.16,6.89.16h10.74V64.29Zm13.38,10.1v3h6.41v-3Zm0,10.42v3h6.41v-3Zm2.32,21.56a28.72,28.72,0,0,0,7.7,3.84,51,51,0,0,0,7.93-3.84Zm22-28.93v-3H322.7v3Zm0,10.42v-3H322.7v3Z"/><path class="cls-9" d="M374,52.59c-.56,3.37-.72,6.9-.8,14.51,8.26-.32,11.46-.48,20.36-.88v-.88c0-4.89-.32-11-.64-13.71h13.78a57.19,57.19,0,0,0-.4,7.54v6.57c11.86-.48,11.86-.48,14.5-.8l.09,13.62c-2.73-.16-4.17-.24-6.74-.24-1,0-1.28,0-7.85.08,0,11.94-.88,16.51-3.93,19.95-2,2.17-5.21,3.29-9.69,3.29a37.92,37.92,0,0,1-12.19-2.48v-2a58,58,0,0,0-1-11.06c4,1.93,8.1,3.13,10.82,3.13s3.05-1.52,3.21-10.58c-7.38.24-14.19.56-20.52.88,0,17.39.08,21.24.64,23.56,1,4.17,4.09,5.29,14.43,5.29,9.78,0,19.31-1.36,25.08-3.61l.88,14.75c-3.36.24-3.36.24-7.93.8a163.25,163.25,0,0,1-18.67,1.12c-7.7,0-13.47-.72-16.91-2-6-2.32-8.82-6.09-10-13.3-.48-3.13-.72-9.7-.72-21.08V80.16a120.15,120.15,0,0,0-13.63,1.2L345.38,68a18.15,18.15,0,0,0,2.73.16c1.2,0,5.05-.16,11.7-.48v-2.4c0-7-.08-9.22-.64-12.67Z"/><path class="cls-9" d="M431.94,53.8a89.77,89.77,0,0,0,11.54.56c7.13,0,16-.32,24.12-1,3.53-.24,4.57-.49,6.09-1.13l6.57,9.7c-2.08,1.2-2.08,1.2-12.9,10.5-4.25,3.6-5.69,4.81-11.06,8.73a38.41,38.41,0,0,1,11-1.44c7.53,0,12.9,1.76,17.15,5.45,3.85,3.45,5.85,8.09,5.85,13.86,0,8.1-3.77,14.51-11.06,18.84-5.53,3.2-13.22,5-21.24,5-13.54,0-21.79-5.37-21.79-14.27,0-7.45,6.65-12.82,15.94-12.82a18.41,18.41,0,0,1,18,12.5c4.33-1.92,6.34-4.65,6.34-8.73,0-5.61-5.45-9.06-14.35-9.06A46.06,46.06,0,0,0,437.47,98a60.62,60.62,0,0,0-7.7,6l-7.45-12.18c7.37-3.44,24.28-16.59,34.22-26.44-4.25.48-7.45.64-18.75,1.2-2.17.08-3.69.24-5.29.4Zm19.87,52.25c-1.84,0-3.12,1-3.12,2.64,0,2.17,2.56,3.53,6.89,3.53a12.14,12.14,0,0,0,2.64-.24C457.18,108.13,454.94,106.05,451.81,106.05Z"/><path class="cls-9" d="M519.62,99.32a36.42,36.42,0,0,0,.16-4.17c0-.88,0-.88-.32-5.69l-1.61-25.41c-.24-4-.64-8.33-1-10.81h18.67c-.4,3.12-.64,6.49-1,10.81L533,89.46c-.16,3.2-.24,5.05-.24,6.33a35.23,35.23,0,0,0,.16,3.53Zm-1.37,20.59V104.76h16.11v15.15Z"/><path class="cls-10" d="M1067.85,63.64V86.39c0,7.28-5.08,13.2-11.31,13.2h-.7v41.93a6.85,6.85,0,1,1-13.69,0V99.59h-.71c-6.24,0-11.3-5.92-11.3-13.2V63.64a4.56,4.56,0,1,1,9.12,0V86.39c0,2.45,1.31,4.08,2.18,4.08h3V63.64a4.57,4.57,0,0,1,9.13,0V90.47h3c.87,0,2.18-1.63,2.18-4.08V63.64a4.57,4.57,0,1,1,9.14,0Zm30.32,4.22a10.17,10.17,0,0,0-20.3.92c0,.23-.06.47-.06.71v72a6.85,6.85,0,0,0,13.69,0V118.69a6.85,6.85,0,0,0,6.85-6.85V69.32a7,7,0,0,0-.18-1.46Z"/></g></g></g></svg>