<svg xmlns="http://www.w3.org/2000/svg" xmlns:xlink="http://www.w3.org/1999/xlink" width="414" height="107.64" viewBox="0 0 414 107.64"><defs><style>.cls-1{fill:none;}.cls-2{isolation:isolate;}.cls-3{fill:#ccc;}.cls-4{fill:#fff;}.cls-5{clip-path:url(#clip-path);}.cls-6{fill:url(#linear-gradient);}.cls-7{opacity:0.5;mix-blend-mode:multiply;}</style><clipPath id="clip-path"><path class="cls-1" d="M28.11,0c-3.95,0-6.58,3.19-6.58,7.11V107.64L52.16,87.26,82.8,107.64V7.11C82.8,3.19,80.31,0,76.37,0Z"/></clipPath><linearGradient id="linear-gradient" x1="-1152.97" y1="291.81" x2="-1151.93" y2="291.81" gradientTransform="matrix(0, 103.58, 103.58, 0, -30175.09, 119429.38)" gradientUnits="userSpaceOnUse"><stop offset="0" stop-color="#f89f1e"/><stop offset="0.07" stop-color="#ffffae"/><stop offset="0.15" stop-color="#fcee21"/><stop offset="0.9" stop-color="#f89d1e"/><stop offset="1" stop-color="#f7931e"/></linearGradient></defs><title>bn_access</title><g class="cls-2"><g id="レイヤー_2" data-name="レイヤー 2"><g id="レイヤー_1-2" data-name="レイヤー 1"><rect class="cls-3" y="16.56" width="414" height="67.9"/><rect class="cls-4" y="8.28" width="414" height="72.86"/><g class="cls-5"><rect class="cls-6" x="21.53" width="61.27" height="107.64"/></g><g class="cls-7"><path d="M215.37,44.53a8.72,8.72,0,0,0-.1,1.62c-.06,3.87-.71,6.17-2.29,8.16a12.61,12.61,0,0,1-5.93,4A4.53,4.53,0,0,0,206,56.77a11,11,0,0,0,4.24-2.13c2.46-2,3.36-4.34,3.36-8.86a6.09,6.09,0,0,0-.09-1.25Zm9.15-2.92a3.88,3.88,0,0,0-.55.93,13.9,13.9,0,0,1-6.77,6.6,4.45,4.45,0,0,0-1.14-1.32,10,10,0,0,0,3.66-2.2,12.25,12.25,0,0,0,2.6-3.45H209.16a23.19,23.19,0,0,0-2.74.11V40.5a17.8,17.8,0,0,0,2.76.16h12.44c1.56,0,1.56,0,2-.16Z"/><path d="M238.32,39.2a4.24,4.24,0,0,0-.51.95,20.38,20.38,0,0,1-1.07,2.06c.3-.07.3-.07,7-.18a2.28,2.28,0,0,0,1.21-.17l1,1c-.2.28-.2.3-.46,1.13a24.37,24.37,0,0,1-4.64,8.72,22.73,22.73,0,0,1-8.06,5.79,3.48,3.48,0,0,0-1.16-1.36,19.67,19.67,0,0,0,8.18-5.87,21.2,21.2,0,0,0,4-7.76l-7.81.14a22.39,22.39,0,0,1-5.54,6,3.44,3.44,0,0,0-1.3-1.2A17.22,17.22,0,0,0,235,42.1a10.65,10.65,0,0,0,1.46-3.39Z"/><path d="M256.87,41.73a12.43,12.43,0,0,0-.1-2.14h1.88a13.85,13.85,0,0,0-.11,2.14v3.38L268,43.86a2.55,2.55,0,0,0,1.32-.33l1.13.95c-.16.26-.18.31-.37.65a15.59,15.59,0,0,1-1.76,3,17.71,17.71,0,0,1-3.94,3.61,4,4,0,0,0-1.39-1.11,12.8,12.8,0,0,0,5.26-5.37l-.53.11-.28,0c-3.25.44-6.21.86-8.85,1.23v5.47c0,2.15.09,2.64.58,3.06s1.46.58,3.36.58a26.28,26.28,0,0,0,6.74-.82l.12,1.88a12.81,12.81,0,0,0-1.39.12,41.47,41.47,0,0,1-5.5.41c-2.64,0-4-.32-4.73-1.08s-.85-1.47-.85-3.83V46.83l-2.81.39a15.89,15.89,0,0,0-2.27.39l-.21-1.74h.35c.39,0,1.2-.07,2-.16l3-.39Z"/><path d="M292.5,57.81a42.84,42.84,0,0,0-7.42-7.16,25.27,25.27,0,0,1-4.43,4.15,29.72,29.72,0,0,1-4.54,2.78A5.1,5.1,0,0,0,275,56.05a18.48,18.48,0,0,0,4.71-2.67A25,25,0,0,0,288,42.93c.05-.14.07-.16.12-.28a.37.37,0,0,0,.07-.16,4.62,4.62,0,0,1-.56,0l-7.74.12a16.22,16.22,0,0,0-2.39.18l0-1.87a11.17,11.17,0,0,0,1.83.11h.6l8.28-.09a4.48,4.48,0,0,0,1.48-.18l1,1a4.59,4.59,0,0,0-.65,1.14,27.85,27.85,0,0,1-3.82,6.49,57,57,0,0,1,7.72,7Z"/></g><path class="cls-3" d="M215.37,45.82a8.72,8.72,0,0,0-.1,1.62c-.06,3.87-.71,6.17-2.29,8.16a12.68,12.68,0,0,1-5.93,4A4.53,4.53,0,0,0,206,58.06a10.84,10.84,0,0,0,4.24-2.14c2.46-2,3.36-4.33,3.36-8.85a6.09,6.09,0,0,0-.09-1.25Zm9.15-2.92a3.88,3.88,0,0,0-.55.93,13.9,13.9,0,0,1-6.77,6.6,4.45,4.45,0,0,0-1.14-1.32,10.1,10.1,0,0,0,3.66-2.2,12.25,12.25,0,0,0,2.6-3.45H209.16a23.19,23.19,0,0,0-2.74.11V41.79a17.8,17.8,0,0,0,2.76.16h12.44c1.56,0,1.56,0,2-.16Z"/><path class="cls-3" d="M238.32,40.49a4.24,4.24,0,0,0-.51.95,20.38,20.38,0,0,1-1.07,2.06c.3-.07.3-.07,7-.18a2.28,2.28,0,0,0,1.21-.17l1,1c-.2.28-.2.3-.46,1.13A24.37,24.37,0,0,1,240.84,54a22.73,22.73,0,0,1-8.06,5.79,3.48,3.48,0,0,0-1.16-1.36,19.67,19.67,0,0,0,8.18-5.87,21.28,21.28,0,0,0,4-7.76l-7.81.14a22.39,22.39,0,0,1-5.54,6,3.44,3.44,0,0,0-1.3-1.2A17.22,17.22,0,0,0,235,43.39,10.65,10.65,0,0,0,236.42,40Z"/><path class="cls-3" d="M256.87,43a12.37,12.37,0,0,0-.1-2.13h1.88a13.79,13.79,0,0,0-.11,2.13V46.4L268,45.15a2.65,2.65,0,0,0,1.32-.33l1.13,1c-.16.26-.18.3-.37.65a15.59,15.59,0,0,1-1.76,3A17.71,17.71,0,0,1,264.33,53a4,4,0,0,0-1.39-1.11,12.82,12.82,0,0,0,5.26-5.38l-.53.12-.28,0c-3.25.44-6.21.85-8.85,1.23v5.47c0,2.15.09,2.64.58,3s1.46.58,3.36.58a26.31,26.31,0,0,0,6.74-.81l.12,1.88a12.81,12.81,0,0,0-1.39.12,41.47,41.47,0,0,1-5.5.41c-2.64,0-4-.32-4.73-1.09s-.85-1.46-.85-3.82V48.11l-2.81.4a15.89,15.89,0,0,0-2.27.39l-.21-1.74h.35c.39,0,1.2-.07,2-.16l3-.39Z"/><path class="cls-3" d="M292.5,59.1a42.84,42.84,0,0,0-7.42-7.16,25.27,25.27,0,0,1-4.43,4.15,29.72,29.72,0,0,1-4.54,2.78A5.1,5.1,0,0,0,275,57.34a18.79,18.79,0,0,0,4.71-2.67A25,25,0,0,0,288,44.22c.05-.14.07-.16.12-.28a.37.37,0,0,0,.07-.16,4.62,4.62,0,0,1-.56,0l-7.74.12a16.22,16.22,0,0,0-2.39.18l0-1.87a11.17,11.17,0,0,0,1.83.11h.6l8.28-.09a4.16,4.16,0,0,0,1.48-.19l1,1a4.59,4.59,0,0,0-.65,1.14,27.85,27.85,0,0,1-3.82,6.49,56.39,56.39,0,0,1,7.72,7Z"/></g></g></g></svg>