<svg xmlns="http://www.w3.org/2000/svg" xmlns:xlink="http://www.w3.org/1999/xlink" width="414" height="107.64" viewBox="0 0 414 107.64"><defs><style>.cls-1{fill:none;}.cls-2{isolation:isolate;}.cls-3{fill:#ccc;}.cls-4{fill:#fff;}.cls-5{clip-path:url(#clip-path);}.cls-6{fill:url(#linear-gradient);}.cls-7{opacity:0.5;mix-blend-mode:multiply;}</style><clipPath id="clip-path"><path class="cls-1" d="M28.11,0c-3.95,0-6.58,3.19-6.58,7.11V107.64L52.16,87.26,82.8,107.64V7.11C82.8,3.19,80.31,0,76.37,0Z"/></clipPath><linearGradient id="linear-gradient" x1="-1157.82" y1="793.81" x2="-1156.78" y2="793.81" gradientTransform="matrix(0, 103.58, 103.58, 0, -82174.25, 119931.38)" gradientUnits="userSpaceOnUse"><stop offset="0" stop-color="#f89f1e"/><stop offset="0.07" stop-color="#ffffae"/><stop offset="0.15" stop-color="#fcee21"/><stop offset="0.9" stop-color="#f89d1e"/><stop offset="1" stop-color="#f7931e"/></linearGradient></defs><title>bn_body_make</title><g class="cls-2"><g id="レイヤー_2" data-name="レイヤー 2"><g id="レイヤー_1-2" data-name="レイヤー 1"><rect class="cls-3" y="16.56" width="414" height="67.9"/><rect class="cls-4" y="8.28" width="414" height="72.86"/><g class="cls-5"><rect class="cls-6" x="21.53" width="61.27" height="107.64"/></g><g class="cls-7"><path d="M187.55,47.29a4,4,0,0,0-.14.39l-.14.47-.12.51a20.6,20.6,0,0,1-4.05,8,5.18,5.18,0,0,0-1.53-1A14.72,14.72,0,0,0,185,50a11.8,11.8,0,0,0,.82-3.15Zm3.24-5.68a10,10,0,0,0-.14-2.36h1.9a13.77,13.77,0,0,0-.11,2.41v1.5h5.84A14.73,14.73,0,0,0,201,43v1.77a16.85,16.85,0,0,0-2.66-.12h-5.89V56.21a14.48,14.48,0,0,0,.11,2.46h-1.9a12.27,12.27,0,0,0,.14-2.44V44.67h-5.68a16.85,16.85,0,0,0-2.66.12V43a14.48,14.48,0,0,0,2.69.14h5.65Zm6.52,5.21a15.93,15.93,0,0,0,.85,2.62,20.56,20.56,0,0,0,3.6,6.22,4.73,4.73,0,0,0-1.46,1.09,27.63,27.63,0,0,1-4-8c-.21-.62-.41-1.13-.58-1.5Zm.67-8.59a18.33,18.33,0,0,1,2.36,3.5l-1.18.67a19,19,0,0,0-2.34-3.57Zm2.87-.86A20,20,0,0,1,203.24,41l-1.16.68A17,17,0,0,0,199.72,38Z"/><path d="M216.13,47.5c-.28,6-2.22,8.83-7.46,10.87a4,4,0,0,0-1.09-1.51c4.8-1.6,6.6-4.08,6.79-9.36h-6.28a19,19,0,0,0-2.67.11V45.9a16,16,0,0,0,2.69.14h13.56a15.88,15.88,0,0,0,2.69-.14v1.71a19,19,0,0,0-2.67-.11Zm-8.37-7.35a12.07,12.07,0,0,0,2.67.16h7a21.55,21.55,0,0,0,2.66-.11v1.66c-.3,0-1.18,0-2.64-.07h-7a16.42,16.42,0,0,0-2.65.12Zm13.59-1.95a18.73,18.73,0,0,1,2.27,3.66l-1.18.65a17.86,17.86,0,0,0-2.25-3.75Zm2.85-.88A19.76,19.76,0,0,1,226.47,41l-1.18.65A18.42,18.42,0,0,0,223,37.9Z"/><path d="M244.85,44.3a2.7,2.7,0,0,0-.55.53,38.46,38.46,0,0,1-4.66,4.08v7.84a11.41,11.41,0,0,0,.12,2H238a13.19,13.19,0,0,0,.09-2V49.88a26.81,26.81,0,0,1-7.12,3.2,4.31,4.31,0,0,0-.81-1.39,22.32,22.32,0,0,0,5.38-2,25.53,25.53,0,0,0,6.63-4.82,7.26,7.26,0,0,0,1.3-1.51Z"/><path d="M267.74,40.33a6.56,6.56,0,0,0-.72,1.42,38.6,38.6,0,0,1-3.41,6.77,59.14,59.14,0,0,1,5.33,5l-1.3,1.44a32.62,32.62,0,0,0-5.05-5A27.52,27.52,0,0,1,253.27,58a4.15,4.15,0,0,0-1.2-1.39,24.69,24.69,0,0,0,9.22-7.74,43.33,43.33,0,0,0-6.23-4.19l1.16-1.23a66.49,66.49,0,0,1,6,4,31.4,31.4,0,0,0,2.74-5.4,10.13,10.13,0,0,0,.81-2.46Z"/><path d="M292.68,40.33a5.41,5.41,0,0,0-1,1A41.18,41.18,0,0,1,286.24,46v9.87a16,16,0,0,0,.11,2.46h-2a12.54,12.54,0,0,0,.14-2.41V47.08a36.67,36.67,0,0,1-9,4.06,5.28,5.28,0,0,0-.9-1.56,32.72,32.72,0,0,0,12-6,19.54,19.54,0,0,0,4.42-4.38Z"/><path d="M307.87,39.2a4.24,4.24,0,0,0-.51.95,20.38,20.38,0,0,1-1.07,2.06c.3-.07.3-.07,7-.18a2.28,2.28,0,0,0,1.21-.17l1,1c-.21.28-.21.3-.47,1.13a24.51,24.51,0,0,1-4.63,8.72,22.86,22.86,0,0,1-8.07,5.79,3.48,3.48,0,0,0-1.16-1.36,19.67,19.67,0,0,0,8.18-5.87,21.2,21.2,0,0,0,4-7.76l-7.81.14a22.39,22.39,0,0,1-5.54,6,3.44,3.44,0,0,0-1.3-1.2,17.22,17.22,0,0,0,5.82-6.35A10.65,10.65,0,0,0,306,38.71Z"/></g><path class="cls-3" d="M187.55,48.58a4,4,0,0,0-.14.39l-.14.47-.12.5a20.57,20.57,0,0,1-4.05,8,5.2,5.2,0,0,0-1.53-1,14.6,14.6,0,0,0,3.4-5.7,11.89,11.89,0,0,0,.82-3.15Zm3.24-5.68a10.15,10.15,0,0,0-.14-2.37h1.9a14,14,0,0,0-.11,2.42v1.5h5.84a14.73,14.73,0,0,0,2.71-.14v1.76a18.62,18.62,0,0,0-2.66-.11h-5.89V57.5a14.63,14.63,0,0,0,.11,2.46h-1.9a12.33,12.33,0,0,0,.14-2.44V46h-5.68a18.62,18.62,0,0,0-2.66.11V44.31a14.48,14.48,0,0,0,2.69.14h5.65Zm6.52,5.21a15.93,15.93,0,0,0,.85,2.62,20.49,20.49,0,0,0,3.6,6.21A5.07,5.07,0,0,0,200.3,58a27.56,27.56,0,0,1-4-8c-.21-.62-.41-1.14-.58-1.51Zm.67-8.6a19,19,0,0,1,2.36,3.5l-1.18.68a19,19,0,0,0-2.34-3.57Zm2.87-.85a20,20,0,0,1,2.39,3.61l-1.16.68a17,17,0,0,0-2.36-3.64Z"/><path class="cls-3" d="M216.13,48.79c-.28,6-2.22,8.83-7.46,10.87a3.93,3.93,0,0,0-1.09-1.51c4.8-1.6,6.6-4.08,6.79-9.36h-6.28a19,19,0,0,0-2.67.11V47.19a16,16,0,0,0,2.69.14h13.56a15.88,15.88,0,0,0,2.69-.14V48.9a19,19,0,0,0-2.67-.11Zm-8.37-7.35a12.07,12.07,0,0,0,2.67.16h7a19.47,19.47,0,0,0,2.66-.12v1.67c-.3,0-1.18,0-2.64-.07h-7a16.42,16.42,0,0,0-2.65.12Zm13.59-1.95a18.73,18.73,0,0,1,2.27,3.66l-1.18.65a17.86,17.86,0,0,0-2.25-3.75Zm2.85-.88a19.76,19.76,0,0,1,2.27,3.66l-1.18.65A18.42,18.42,0,0,0,223,39.19Z"/><path class="cls-3" d="M244.85,45.59a2.7,2.7,0,0,0-.55.53,38.46,38.46,0,0,1-4.66,4.08V58a11.54,11.54,0,0,0,.12,2H238a13.19,13.19,0,0,0,.09-2V51.17a26.81,26.81,0,0,1-7.12,3.2,4.31,4.31,0,0,0-.81-1.39,22.32,22.32,0,0,0,5.38-2,25.53,25.53,0,0,0,6.63-4.82,7.26,7.26,0,0,0,1.3-1.51Z"/><path class="cls-3" d="M267.74,41.62A6.32,6.32,0,0,0,267,43a38.6,38.6,0,0,1-3.41,6.77,59.14,59.14,0,0,1,5.33,5l-1.3,1.44a32.62,32.62,0,0,0-5.05-5,27.63,27.63,0,0,1-9.32,8.06,4.15,4.15,0,0,0-1.2-1.39,24.69,24.69,0,0,0,9.22-7.74,43.33,43.33,0,0,0-6.23-4.19l1.16-1.23a64.45,64.45,0,0,1,6,4,31.77,31.77,0,0,0,2.74-5.4,10.27,10.27,0,0,0,.81-2.46Z"/><path class="cls-3" d="M292.68,41.62a5.41,5.41,0,0,0-1,1,41.18,41.18,0,0,1-5.42,4.66v9.87a16,16,0,0,0,.11,2.46h-2a12.61,12.61,0,0,0,.14-2.41V48.37a36.3,36.3,0,0,1-9,4.05,5.35,5.35,0,0,0-.9-1.55,32.72,32.72,0,0,0,12-6,19.54,19.54,0,0,0,4.42-4.38Z"/><path class="cls-3" d="M307.87,40.49a4.24,4.24,0,0,0-.51.95,20.38,20.38,0,0,1-1.07,2.06c.3-.07.3-.07,7-.18a2.28,2.28,0,0,0,1.21-.17l1,1c-.21.28-.21.3-.47,1.13A24.51,24.51,0,0,1,310.4,54a22.86,22.86,0,0,1-8.07,5.79,3.58,3.58,0,0,0-1.16-1.37,19.57,19.57,0,0,0,8.18-5.86,21.2,21.2,0,0,0,4-7.76l-7.81.14a22.39,22.39,0,0,1-5.54,6,3.44,3.44,0,0,0-1.3-1.2,17.22,17.22,0,0,0,5.82-6.35A10.65,10.65,0,0,0,306,40Z"/></g></g></g></svg>