<svg xmlns="http://www.w3.org/2000/svg" xmlns:xlink="http://www.w3.org/1999/xlink" width="414" height="107.64" viewBox="0 0 414 107.64"><defs><style>.cls-1{fill:none;}.cls-2{isolation:isolate;}.cls-3{fill:#ccc;}.cls-4{fill:#fff;}.cls-5{clip-path:url(#clip-path);}.cls-6{fill:url(#linear-gradient);}.cls-7{opacity:0.5;mix-blend-mode:multiply;}</style><clipPath id="clip-path"><path class="cls-1" d="M28.11,0c-3.95,0-6.58,3.19-6.58,7.11V107.64L52.16,87.26,82.8,107.64V7.11C82.8,3.19,80.31,0,76.37,0Z"/></clipPath><linearGradient id="linear-gradient" x1="-1159.01" y1="916.81" x2="-1157.97" y2="916.81" gradientTransform="matrix(0, 103.58, 103.58, 0, -94915.09, 120054.38)" gradientUnits="userSpaceOnUse"><stop offset="0" stop-color="#f89f1e"/><stop offset="0.07" stop-color="#ffffae"/><stop offset="0.15" stop-color="#fcee21"/><stop offset="0.9" stop-color="#f89d1e"/><stop offset="1" stop-color="#f7931e"/></linearGradient></defs><title>bn_concept</title><g class="cls-2"><g id="レイヤー_2" data-name="レイヤー 2"><g id="レイヤー_1-2" data-name="レイヤー 1"><rect class="cls-3" y="16.56" width="414" height="67.9"/><rect class="cls-4" y="8.28" width="414" height="72.86"/><g class="cls-5"><rect class="cls-6" x="21.53" width="61.27" height="107.64"/></g><g class="cls-7"><path d="M198.07,55.93a19.39,19.39,0,0,0-2.48.1V54.19a11.21,11.21,0,0,0,2.53.17h11V43.16H198.61a19.83,19.83,0,0,0-2.67.12V41.42a12.51,12.51,0,0,0,2.67.17h11.12c.3,0,.63,0,1.21-.05-.05.58-.05,1-.05,1.81V55.21a15.23,15.23,0,0,0,.12,2.11h-1.86V55.93Z"/><path d="M218.24,55.59A20.16,20.16,0,0,0,225,53.8a17.53,17.53,0,0,0,9.46-10.31,4.54,4.54,0,0,0,1.41,1.36,20.35,20.35,0,0,1-7.07,8.86,23.45,23.45,0,0,1-8.65,3.45,14.1,14.1,0,0,0-1.39.37Zm1.49-14.37a30.15,30.15,0,0,1,5.58,4.35L224.11,47a25.53,25.53,0,0,0-5.52-4.54Z"/><path d="M245.27,41.73a13.8,13.8,0,0,0-.09-2.14h1.88a13.65,13.65,0,0,0-.12,2.14v3.38l9.41-1.25a2.62,2.62,0,0,0,1.32-.33l1.14.95a6.82,6.82,0,0,0-.37.65,16.13,16.13,0,0,1-1.76,3,17.71,17.71,0,0,1-3.94,3.61,4,4,0,0,0-1.39-1.11,12.86,12.86,0,0,0,5.26-5.37l-.53.11-.28,0c-3.25.44-6.21.85-8.86,1.23v5.47c0,2.15.1,2.64.58,3.06s1.46.57,3.36.57a26.39,26.39,0,0,0,6.75-.81l.12,1.88a13.22,13.22,0,0,0-1.4.12,41.23,41.23,0,0,1-5.49.41c-2.64,0-4-.32-4.73-1.09s-.86-1.46-.86-3.82V46.82l-2.8.4a15.89,15.89,0,0,0-2.27.39L240,45.87h.35c.39,0,1.2-.07,2-.16l2.94-.39Z"/><path d="M279,41.4a2.42,2.42,0,0,1-.1-.67,2.64,2.64,0,1,1,2.62,2.62,2.89,2.89,0,0,1-.81-.12l0,.14c-1.14,4.13-2.62,7-4.73,9.23a21.62,21.62,0,0,1-8.44,5.49,4.62,4.62,0,0,0-1.13-1.6,18.71,18.71,0,0,0,8.48-5.26A18.81,18.81,0,0,0,278.93,43H267.14a16.21,16.21,0,0,0-2.6.14V41.26a16,16,0,0,0,2.62.14H279Zm.88-.69a1.66,1.66,0,1,0,1.67-1.65A1.66,1.66,0,0,0,279.91,40.71Z"/><path d="M291.39,58.32a15.2,15.2,0,0,0,.14-2.43V41.49a13.94,13.94,0,0,0-.14-2.36h2a14.71,14.71,0,0,0-.12,2.41v4.33a58,58,0,0,1,10.32,4.89l-1,1.72a46.9,46.9,0,0,0-8.64-4.59,2.64,2.64,0,0,1-.72-.39l-.05,0a8.07,8.07,0,0,1,.09,1.37v7a16,16,0,0,0,.12,2.46Z"/></g><path class="cls-3" d="M198.07,57.22a23.22,23.22,0,0,0-2.48.09V55.48a11.21,11.21,0,0,0,2.53.17h11V44.45H198.61a18.27,18.27,0,0,0-2.67.12V42.71a12.51,12.51,0,0,0,2.67.17h11.12c.3,0,.63,0,1.21-.05-.05.58-.05,1-.05,1.81V56.5a15.23,15.23,0,0,0,.12,2.11h-1.86V57.22Z"/><path class="cls-3" d="M218.24,56.87A19.9,19.9,0,0,0,225,55.09a17.53,17.53,0,0,0,9.46-10.31,4.65,4.65,0,0,0,1.41,1.36A20.35,20.35,0,0,1,228.79,55a23.45,23.45,0,0,1-8.65,3.45,14.1,14.1,0,0,0-1.39.37Zm1.49-14.37a30.59,30.59,0,0,1,5.58,4.36l-1.2,1.44a25.24,25.24,0,0,0-5.52-4.54Z"/><path class="cls-3" d="M245.27,43a13.72,13.72,0,0,0-.09-2.13h1.88a13.5,13.5,0,0,0-.12,2.13V46.4l9.41-1.25a2.62,2.62,0,0,0,1.32-.33l1.14,1a6.82,6.82,0,0,0-.37.65,16.13,16.13,0,0,1-1.76,3A17.71,17.71,0,0,1,252.74,53a4,4,0,0,0-1.39-1.11,12.88,12.88,0,0,0,5.26-5.38l-.53.12-.28,0-8.86,1.22v5.47c0,2.16.1,2.65.58,3.06s1.46.58,3.36.58a26.39,26.39,0,0,0,6.75-.81l.12,1.88a13.22,13.22,0,0,0-1.4.12,41.23,41.23,0,0,1-5.49.41c-2.64,0-4-.32-4.73-1.09s-.86-1.46-.86-3.82V48.11l-2.8.4a15.89,15.89,0,0,0-2.27.39L240,47.16h.35c.39,0,1.2-.07,2-.16l2.94-.39Z"/><path class="cls-3" d="M279,42.69a2.47,2.47,0,0,1-.1-.67,2.64,2.64,0,1,1,2.62,2.62,2.89,2.89,0,0,1-.81-.12l0,.14c-1.14,4.13-2.62,7-4.73,9.22a21.53,21.53,0,0,1-8.44,5.5,4.53,4.53,0,0,0-1.13-1.6,18.71,18.71,0,0,0,8.48-5.26,18.81,18.81,0,0,0,4.05-8.25H267.14a17.85,17.85,0,0,0-2.6.13V42.55a16,16,0,0,0,2.62.14H279Zm.88-.7a1.66,1.66,0,1,0,1.67-1.64A1.66,1.66,0,0,0,279.91,42Z"/><path class="cls-3" d="M291.39,59.61a15.2,15.2,0,0,0,.14-2.43V42.78a13.94,13.94,0,0,0-.14-2.36h2a14.71,14.71,0,0,0-.12,2.41v4.33a58,58,0,0,1,10.32,4.89l-1,1.72a46.9,46.9,0,0,0-8.64-4.59,2.64,2.64,0,0,1-.72-.39l-.05,0a8.07,8.07,0,0,1,.09,1.37v7a16,16,0,0,0,.12,2.46Z"/></g></g></g></svg>