<svg xmlns="http://www.w3.org/2000/svg" xmlns:xlink="http://www.w3.org/1999/xlink" width="414" height="107.64" viewBox="0 0 414 107.64"><defs><style>.cls-1{fill:none;}.cls-2{isolation:isolate;}.cls-3{fill:#ccc;}.cls-4{fill:#fff;}.cls-5{clip-path:url(#clip-path);}.cls-6{fill:url(#linear-gradient);}.cls-7{opacity:0.5;mix-blend-mode:multiply;}</style><clipPath id="clip-path"><path class="cls-1" d="M28.11,0c-3.95,0-6.58,3.19-6.58,7.11V107.64L52.16,87.26,82.8,107.64V7.11C82.8,3.19,80.31,0,76.37,0Z"/></clipPath><linearGradient id="linear-gradient" x1="-1155.39" y1="542.81" x2="-1154.36" y2="542.81" gradientTransform="matrix(0, 103.58, 103.58, 0, -56174.67, 119680.38)" gradientUnits="userSpaceOnUse"><stop offset="0" stop-color="#f89f1e"/><stop offset="0.07" stop-color="#ffffae"/><stop offset="0.15" stop-color="#fcee21"/><stop offset="0.9" stop-color="#f89d1e"/><stop offset="1" stop-color="#f7931e"/></linearGradient></defs><title>bn_fee</title><g class="cls-2"><g id="レイヤー_2" data-name="レイヤー 2"><g id="レイヤー_1-2" data-name="レイヤー 1"><rect class="cls-3" y="16.56" width="414" height="67.9"/><rect class="cls-4" y="8.28" width="414" height="72.86"/><g class="cls-5"><rect class="cls-6" x="21.53" width="61.27" height="107.64"/></g><g class="cls-7"><path d="M230.35,47.64a11.84,11.84,0,0,0-2,.11V46.24a9.86,9.86,0,0,0,2,.12h1.83V40.89a16.68,16.68,0,0,0-.14-2.48h1.69a15.82,15.82,0,0,0-.14,2.46v5.49H235a11.22,11.22,0,0,0,1.72-.09v1.46a12.27,12.27,0,0,0-1.74-.09h-1.28A13.86,13.86,0,0,0,237,51.92a7.48,7.48,0,0,0-.81,1.25,13.6,13.6,0,0,1-2.71-4.07c0,.92.11,3,.11,3.43v4.33a19.53,19.53,0,0,0,.14,2.55H232a21,21,0,0,0,.14-2.57V52.9c0-1.07,0-2.37.11-3.6a17.42,17.42,0,0,1-3.57,6.63,4.76,4.76,0,0,0-.88-1.29,14.78,14.78,0,0,0,2.76-3.9,18.91,18.91,0,0,0,1.3-3.1Zm-.7-7.77a27,27,0,0,1,1.55,5l-1.22.53a21,21,0,0,0-1.53-5Zm7.6.44a26.5,26.5,0,0,1-1.87,5l-1.14-.53a17,17,0,0,0,1.69-5Zm7.51.56a14,14,0,0,0-.14-2.44h1.77a15.66,15.66,0,0,0-.14,2.41V51.51l.34-.07a14.82,14.82,0,0,0,2.14-.65l.27,1.62a18.45,18.45,0,0,0-2.22.39l-.53.14v3.87a16.89,16.89,0,0,0,.14,2.53h-1.77a13.27,13.27,0,0,0,.14-2.55v-3.5l-6.09,1.48a16.08,16.08,0,0,0-2.16.63l-.3-1.65a12.33,12.33,0,0,0,2.23-.37l6.32-1.5Zm-6.19,5.05a20.31,20.31,0,0,1,4.15,3.52l-1,1.16a16.82,16.82,0,0,0-4.2-3.61Zm.7-5.79a23.71,23.71,0,0,1,4.17,3.61L242.49,45a19.53,19.53,0,0,0-4.22-3.76Z"/><path d="M257.89,46.41a14.53,14.53,0,0,0-2.16.11V45.13a21.73,21.73,0,0,1-4.22,2.25,5,5,0,0,0-1-1.37c4.52-1.71,7.88-4.24,9.78-7.34h1.79a15.7,15.7,0,0,0,4.14,4.19A21,21,0,0,0,272.3,46a7,7,0,0,0-.92,1.48,24.74,24.74,0,0,1-4.52-2.36v1.43a13.85,13.85,0,0,0-2.14-.11H261.9v3.15h6.46a15.26,15.26,0,0,0,2.28-.14V51a16.25,16.25,0,0,0-2.28-.14H261.9V57h6.79a18,18,0,0,0,2.52-.14v1.67a17.71,17.71,0,0,0-2.54-.16H254.06a21.37,21.37,0,0,0-2.64.16V56.88a20.11,20.11,0,0,0,2.64.14h6.33V50.9h-6a15.94,15.94,0,0,0-2.24.14V49.42a15.4,15.4,0,0,0,2.27.14h6V46.41Zm-2.11,5.21a23.8,23.8,0,0,1,2,4.2l-1.35.53a18,18,0,0,0-2-4.13Zm8.94-6.49a14.9,14.9,0,0,0,2-.09A21.11,21.11,0,0,1,261.23,40,19.29,19.29,0,0,1,255.89,45a14.11,14.11,0,0,0,2,.09Zm3.37,7.14a27.68,27.68,0,0,1-2.48,4.31l-1.3-.53a15.91,15.91,0,0,0,2.32-4.38Z"/></g><path class="cls-3" d="M230.35,48.92a11.64,11.64,0,0,0-2,.12V47.53a9.86,9.86,0,0,0,2,.12h1.83V42.18A16.68,16.68,0,0,0,232,39.7h1.69a15.73,15.73,0,0,0-.14,2.46v5.49H235a11.22,11.22,0,0,0,1.72-.09V49a12.09,12.09,0,0,0-1.74-.1h-1.28A13.79,13.79,0,0,0,237,53.21a7.48,7.48,0,0,0-.81,1.25,13.52,13.52,0,0,1-2.71-4.08c0,.93.11,3,.11,3.43v4.34a19.53,19.53,0,0,0,.14,2.55H232a21,21,0,0,0,.14-2.57V54.19c0-1.07,0-2.37.11-3.6a17.42,17.42,0,0,1-3.57,6.63,5,5,0,0,0-.88-1.3A14.57,14.57,0,0,0,230.6,52a19,19,0,0,0,1.3-3.11Zm-.7-7.76a27,27,0,0,1,1.55,5l-1.22.53a21,21,0,0,0-1.53-5Zm7.6.44a26.5,26.5,0,0,1-1.87,5l-1.14-.53a17.06,17.06,0,0,0,1.69-5Zm7.51.56a14,14,0,0,0-.14-2.44h1.77a15.66,15.66,0,0,0-.14,2.41V52.8l.34-.07a14.82,14.82,0,0,0,2.14-.65L249,53.7a16.64,16.64,0,0,0-2.22.39l-.53.14V58.1a16.89,16.89,0,0,0,.14,2.53h-1.77a13.27,13.27,0,0,0,.14-2.55v-3.5l-6.09,1.48a16.08,16.08,0,0,0-2.16.63l-.3-1.65a12.33,12.33,0,0,0,2.23-.37l6.32-1.5Zm-6.19,5.05a20.31,20.31,0,0,1,4.15,3.52l-1,1.16a16.82,16.82,0,0,0-4.2-3.61Zm.7-5.79A23.71,23.71,0,0,1,243.44,45l-.95,1.21a19.53,19.53,0,0,0-4.22-3.76Z"/><path class="cls-3" d="M257.89,47.7a14.53,14.53,0,0,0-2.16.11V46.42a21.73,21.73,0,0,1-4.22,2.25,5,5,0,0,0-1-1.37c4.52-1.71,7.88-4.24,9.78-7.35h1.79a15.58,15.58,0,0,0,4.14,4.2,21,21,0,0,0,6.05,3.11,7,7,0,0,0-.92,1.48,24.74,24.74,0,0,1-4.52-2.36v1.43a13.85,13.85,0,0,0-2.14-.11H261.9v3.15h6.46a15.26,15.26,0,0,0,2.28-.14v1.62a16.25,16.25,0,0,0-2.28-.14H261.9v6.12h6.79a18,18,0,0,0,2.52-.14v1.67a17.71,17.71,0,0,0-2.54-.16H254.06a21.37,21.37,0,0,0-2.64.16V58.17a20.11,20.11,0,0,0,2.64.14h6.33V52.19h-6a15.94,15.94,0,0,0-2.24.14V50.71a15.4,15.4,0,0,0,2.27.14h6V47.7Zm-2.11,5.21a23.46,23.46,0,0,1,2,4.2l-1.35.53a18,18,0,0,0-2-4.13Zm8.94-6.49a14.9,14.9,0,0,0,2-.09,21.11,21.11,0,0,1-5.53-5.08,19.29,19.29,0,0,1-5.34,5.08,14.11,14.11,0,0,0,2,.09Zm3.37,7.14a27.68,27.68,0,0,1-2.48,4.31l-1.3-.53A15.91,15.91,0,0,0,266.63,53Z"/></g></g></g></svg>