<svg xmlns="http://www.w3.org/2000/svg" xmlns:xlink="http://www.w3.org/1999/xlink" width="414" height="107.64" viewBox="0 0 414 107.64"><defs><style>.cls-1{fill:none;}.cls-2{isolation:isolate;}.cls-3{fill:#ccc;}.cls-4{fill:#fff;}.cls-5{clip-path:url(#clip-path);}.cls-6{fill:url(#linear-gradient);}.cls-7{opacity:0.5;mix-blend-mode:multiply;}</style><clipPath id="clip-path"><path class="cls-1" d="M28.11,0c-3.95,0-6.58,3.19-6.58,7.11V107.64L52.16,87.26,82.8,107.64V7.11C82.8,3.19,80.31,0,76.37,0Z"/></clipPath><linearGradient id="linear-gradient" x1="-1156.6" y1="667.81" x2="-1155.56" y2="667.81" gradientTransform="matrix(0, 103.58, 103.58, 0, -69122.67, 119805.38)" gradientUnits="userSpaceOnUse"><stop offset="0" stop-color="#f89f1e"/><stop offset="0.07" stop-color="#ffffae"/><stop offset="0.15" stop-color="#fcee21"/><stop offset="0.9" stop-color="#f89d1e"/><stop offset="1" stop-color="#f7931e"/></linearGradient></defs><title>bn_kairo</title><g class="cls-2"><g id="レイヤー_2" data-name="レイヤー 2"><g id="レイヤー_1-2" data-name="レイヤー 1"><rect class="cls-3" y="16.56" width="414" height="67.9"/><rect class="cls-4" y="8.28" width="414" height="72.86"/><g class="cls-5"><rect class="cls-6" x="21.53" width="61.27" height="107.64"/></g><g class="cls-7"><path d="M143.78,43.6c.09-1.18.13-2.45.13-3.47a6.22,6.22,0,0,0-.09-1.21l1.88,0a20.46,20.46,0,0,0-.19,3c0,.72,0,1-.11,1.64l5.79,0a3.67,3.67,0,0,0,1.53-.16l.86.74a3.54,3.54,0,0,0-.19,1.39,62,62,0,0,1-.64,8.11c-.58,3.18-1.28,4-3.37,4a13,13,0,0,1-2.87-.39V57a4,4,0,0,0-.25-1.46,9.65,9.65,0,0,0,3,.6c1.13,0,1.5-.55,1.94-2.85a50.41,50.41,0,0,0,.58-8.23l-6.49,0a17.42,17.42,0,0,1-1.85,6.83,16.85,16.85,0,0,1-6.07,6.15,4.77,4.77,0,0,0-1.19-1.37,13.57,13.57,0,0,0,6-6.1,15.19,15.19,0,0,0,1.44-5.51l-4.22,0a13.56,13.56,0,0,0-2.46.12l0-1.77a12.59,12.59,0,0,0,2.5.17Z"/><path d="M176.76,40.33a5.73,5.73,0,0,0-1,1A41.18,41.18,0,0,1,170.32,46v9.87a14.52,14.52,0,0,0,.12,2.46h-2a11.82,11.82,0,0,0,.14-2.41V47.08a36.67,36.67,0,0,1-8.95,4.06,5.28,5.28,0,0,0-.9-1.56,32.57,32.57,0,0,0,12-6,19.54,19.54,0,0,0,4.42-4.38Z"/><path d="M185.58,55.7v1.65h-1.79a12.1,12.1,0,0,0,.09-1.74V43a11.74,11.74,0,0,0-.09-1.8c.47,0,.91.06,1.81.06H198a13.94,13.94,0,0,0,1.81-.06,12.32,12.32,0,0,0-.07,1.8V55.56c0,.7,0,1.3.07,1.79H198V55.7ZM198,42.81H185.58V54.19H198Z"/><path d="M221.07,41.4a2.42,2.42,0,0,1-.1-.67,2.64,2.64,0,1,1,2.62,2.62,2.89,2.89,0,0,1-.81-.12l0,.14c-1.14,4.13-2.62,7-4.73,9.23a21.62,21.62,0,0,1-8.44,5.49,4.62,4.62,0,0,0-1.13-1.6,18.71,18.71,0,0,0,8.48-5.26A18.81,18.81,0,0,0,221,43H209.18a16.21,16.21,0,0,0-2.6.14V41.26a16,16,0,0,0,2.62.14h11.87Zm.88-.69a1.66,1.66,0,1,0,1.67-1.65A1.66,1.66,0,0,0,222,40.71Z"/><path d="M229.76,45.43a16.35,16.35,0,0,0,2.72.14h11.89a3.88,3.88,0,0,0,1.5-.16l.86,1a6.82,6.82,0,0,0-.65,1.46c-2,5.4-5.17,8.36-11.17,10.38a5,5,0,0,0-1-1.6,15.9,15.9,0,0,0,6.89-3.52,14.29,14.29,0,0,0,3.75-6.07h-12.1a22.18,22.18,0,0,0-2.69.11Zm2-5.37a10.56,10.56,0,0,0,2.43.16h7.74a10.65,10.65,0,0,0,2.44-.16v1.78a16,16,0,0,0-2.41-.11h-7.79a15.92,15.92,0,0,0-2.41.11Z"/><path d="M261.5,39.2a4.24,4.24,0,0,0-.51.95,20.38,20.38,0,0,1-1.07,2.06c.31-.07.31-.07,7-.18a2.23,2.23,0,0,0,1.21-.17l1,1c-.21.28-.21.3-.47,1.13A24.51,24.51,0,0,1,264,52.69,22.68,22.68,0,0,1,256,58.48a3.4,3.4,0,0,0-1.16-1.36A19.67,19.67,0,0,0,263,51.25a21.2,21.2,0,0,0,4-7.76l-7.81.14a22.23,22.23,0,0,1-5.54,6,3.3,3.3,0,0,0-1.3-1.2,17.22,17.22,0,0,0,5.82-6.35,10.65,10.65,0,0,0,1.46-3.39Z"/><path d="M285.75,47.54A22.77,22.77,0,0,1,285.5,50a9.16,9.16,0,0,1-3.13,6.12,13.56,13.56,0,0,1-4.08,2.29,4.08,4.08,0,0,0-1.09-1.5c3-1,4.91-2.46,5.86-4.57a13.2,13.2,0,0,0,.93-4.8h-6.28a21.62,21.62,0,0,0-2.67.12V45.94a16.23,16.23,0,0,0,2.69.14h13.56a16.23,16.23,0,0,0,2.69-.14v1.72a21.62,21.62,0,0,0-2.67-.12Zm-8.37-7.34a13.59,13.59,0,0,0,2.67.16h9a13.48,13.48,0,0,0,2.66-.16V42a17.41,17.41,0,0,0-2.64-.12H280a17.56,17.56,0,0,0-2.65.12Z"/><path d="M314.4,44.3a2.7,2.7,0,0,0-.55.53,38.46,38.46,0,0,1-4.66,4.08v7.83a11.54,11.54,0,0,0,.12,2H307.5a13.19,13.19,0,0,0,.09-2V49.88a26.81,26.81,0,0,1-7.12,3.2,4.31,4.31,0,0,0-.81-1.39,22.32,22.32,0,0,0,5.38-2,25.53,25.53,0,0,0,6.63-4.82,7.26,7.26,0,0,0,1.3-1.51Z"/><path d="M325.1,44.88A26.15,26.15,0,0,1,327.39,50l-1.58.54a18.79,18.79,0,0,0-2.18-5.2Zm13.07-.14a13.26,13.26,0,0,0-.51,1.88,21.08,21.08,0,0,1-2,5.19,16.83,16.83,0,0,1-7.67,6.7,4.7,4.7,0,0,0-1.07-1.3c3.57-1.6,5.75-3.39,7.35-6.05a17.62,17.62,0,0,0,2-5,9.89,9.89,0,0,0,.25-1.58v-.23ZM329.82,44a23.08,23.08,0,0,1,2.25,5l-1.53.54a20.28,20.28,0,0,0-2.13-5.08Z"/><path d="M354.24,39.2a4.24,4.24,0,0,0-.51.95c-.61,1.25-.82,1.64-1.07,2.06.3-.07.3-.07,7-.18a2.21,2.21,0,0,0,1.2-.17l1,1c-.21.28-.21.3-.46,1.13a24.69,24.69,0,0,1-4.64,8.72,22.73,22.73,0,0,1-8.06,5.79,3.48,3.48,0,0,0-1.16-1.36,19.74,19.74,0,0,0,8.18-5.87,21.51,21.51,0,0,0,4-7.76l-7.82.14a22.19,22.19,0,0,1-5.53,6,3.44,3.44,0,0,0-1.3-1.2,17.3,17.3,0,0,0,5.82-6.35,10.34,10.34,0,0,0,1.45-3.39Z"/></g><path class="cls-3" d="M143.78,44.89c.09-1.18.13-2.46.13-3.47a6.22,6.22,0,0,0-.09-1.21l1.88,0a20.46,20.46,0,0,0-.19,3c0,.71,0,1-.11,1.64l5.79,0a3.67,3.67,0,0,0,1.53-.16l.86.74a3.54,3.54,0,0,0-.19,1.39,62,62,0,0,1-.64,8.11c-.58,3.18-1.28,4-3.37,4a13.66,13.66,0,0,1-2.87-.39v-.28a4,4,0,0,0-.25-1.46,9.65,9.65,0,0,0,3,.6c1.13,0,1.5-.56,1.94-2.85a50.41,50.41,0,0,0,.58-8.23l-6.49,0a17.42,17.42,0,0,1-1.85,6.83,16.75,16.75,0,0,1-6.07,6.14A4.86,4.86,0,0,0,136.17,58a13.57,13.57,0,0,0,6-6.1,15.19,15.19,0,0,0,1.44-5.51l-4.22,0a14.77,14.77,0,0,0-2.46.11l0-1.76a12.69,12.69,0,0,0,2.5.16Z"/><path class="cls-3" d="M176.76,41.62a5.38,5.38,0,0,0-1,1,41.18,41.18,0,0,1-5.42,4.66v9.87a14.52,14.52,0,0,0,.12,2.46h-2a11.82,11.82,0,0,0,.14-2.41V48.37a36.3,36.3,0,0,1-8.95,4.05,5.35,5.35,0,0,0-.9-1.55,32.57,32.57,0,0,0,12-6,19.54,19.54,0,0,0,4.42-4.38Z"/><path class="cls-3" d="M185.58,57v1.65h-1.79a12.1,12.1,0,0,0,.09-1.74V44.31a12,12,0,0,0-.09-1.81,15.92,15.92,0,0,0,1.81.07H198a12,12,0,0,0,1.81-.07,12.55,12.55,0,0,0-.07,1.81V56.85c0,.7,0,1.3.07,1.79H198V57ZM198,44.1H185.58V55.48H198Z"/><path class="cls-3" d="M221.07,42.69A2.47,2.47,0,0,1,221,42a2.64,2.64,0,1,1,2.62,2.62,2.89,2.89,0,0,1-.81-.12l0,.14c-1.14,4.13-2.62,7-4.73,9.22a21.53,21.53,0,0,1-8.44,5.5,4.53,4.53,0,0,0-1.13-1.6,18.71,18.71,0,0,0,8.48-5.26A18.81,18.81,0,0,0,221,44.27H209.18a17.85,17.85,0,0,0-2.6.13V42.55a16,16,0,0,0,2.62.14h11.87ZM222,42a1.66,1.66,0,1,0,1.67-1.64A1.66,1.66,0,0,0,222,42Z"/><path class="cls-3" d="M229.76,46.72a16.35,16.35,0,0,0,2.72.14h11.89a3.88,3.88,0,0,0,1.5-.16l.86,1a6.82,6.82,0,0,0-.65,1.46c-2,5.4-5.17,8.36-11.17,10.38a5,5,0,0,0-1-1.6,15.9,15.9,0,0,0,6.89-3.52,14.29,14.29,0,0,0,3.75-6.07h-12.1a22.18,22.18,0,0,0-2.69.11Zm2-5.37a11.17,11.17,0,0,0,2.43.16h7.74a11.27,11.27,0,0,0,2.44-.16v1.78A15.68,15.68,0,0,0,242,43h-7.79a15.6,15.6,0,0,0-2.41.12Z"/><path class="cls-3" d="M261.5,40.49a4.24,4.24,0,0,0-.51.95,20.38,20.38,0,0,1-1.07,2.06c.31-.07.31-.07,7-.18a2.23,2.23,0,0,0,1.21-.17l1,1c-.21.27-.21.3-.47,1.13A24.51,24.51,0,0,1,264,54,22.68,22.68,0,0,1,256,59.77a3.5,3.5,0,0,0-1.16-1.37A19.57,19.57,0,0,0,263,52.54a21.28,21.28,0,0,0,4-7.76l-7.81.13a22.12,22.12,0,0,1-5.54,6,3.3,3.3,0,0,0-1.3-1.2,17.17,17.17,0,0,0,5.82-6.36A10.62,10.62,0,0,0,259.6,40Z"/><path class="cls-3" d="M285.75,48.83a23,23,0,0,1-.25,2.46,9.18,9.18,0,0,1-3.13,6.12,13.56,13.56,0,0,1-4.08,2.29,4.08,4.08,0,0,0-1.09-1.5c3-1,4.91-2.46,5.86-4.57a13.2,13.2,0,0,0,.93-4.8h-6.28A19.8,19.8,0,0,0,275,49V47.23a16.23,16.23,0,0,0,2.69.14h13.56a16.23,16.23,0,0,0,2.69-.14V49a19.8,19.8,0,0,0-2.67-.12Zm-8.37-7.35a12.68,12.68,0,0,0,2.67.17h9a12.57,12.57,0,0,0,2.66-.17v1.77a17.41,17.41,0,0,0-2.64-.12H280a17.56,17.56,0,0,0-2.65.12Z"/><path class="cls-3" d="M314.4,45.59a2.7,2.7,0,0,0-.55.53,38.46,38.46,0,0,1-4.66,4.08V58a11.54,11.54,0,0,0,.12,2H307.5a13.19,13.19,0,0,0,.09-2V51.17a26.81,26.81,0,0,1-7.12,3.2,4.31,4.31,0,0,0-.81-1.39,23.19,23.19,0,0,0,5.38-2,25.53,25.53,0,0,0,6.63-4.82,7.26,7.26,0,0,0,1.3-1.51Z"/><path class="cls-3" d="M325.1,46.17a25.88,25.88,0,0,1,2.29,5.14l-1.58.53a18.85,18.85,0,0,0-2.18-5.19ZM338.17,46a13.33,13.33,0,0,0-.51,1.87,21,21,0,0,1-2,5.2A16.81,16.81,0,0,1,328,59.79a4.81,4.81,0,0,0-1.07-1.29c3.57-1.6,5.75-3.39,7.35-6a17.57,17.57,0,0,0,2-5,9.66,9.66,0,0,0,.25-1.57v-.23Zm-8.35-.79a23.08,23.08,0,0,1,2.25,5l-1.53.54a20.28,20.28,0,0,0-2.13-5.08Z"/><path class="cls-3" d="M354.24,40.49a4.24,4.24,0,0,0-.51.95c-.61,1.25-.82,1.64-1.07,2.06.3-.07.3-.07,7-.18a2.21,2.21,0,0,0,1.2-.17l1,1c-.21.27-.21.3-.46,1.13A24.69,24.69,0,0,1,356.76,54a22.73,22.73,0,0,1-8.06,5.79,3.58,3.58,0,0,0-1.16-1.37,19.63,19.63,0,0,0,8.18-5.86,21.59,21.59,0,0,0,4-7.76l-7.82.13a22.08,22.08,0,0,1-5.53,6,3.44,3.44,0,0,0-1.3-1.2,17.26,17.26,0,0,0,5.82-6.36A10.31,10.31,0,0,0,352.33,40Z"/></g></g></g></svg>