<svg xmlns="http://www.w3.org/2000/svg" xmlns:xlink="http://www.w3.org/1999/xlink" width="414" height="133" viewBox="0 0 414 133"><defs><style>.cls-1{fill:#f6ad1b;}.cls-1,.cls-2{fill-rule:evenodd;}.cls-2{fill:url(#GradientFill_1);}.cls-3{fill:#ccc;}.cls-4{fill:#fff;}</style><linearGradient id="GradientFill_1" x1="278.21" y1="133" x2="278.21" gradientUnits="userSpaceOnUse"><stop offset="0" stop-color="#231f20"/><stop offset="1" stop-color="#808284"/></linearGradient></defs><title>bn_meal</title><g id="レイヤー_2" data-name="レイヤー 2"><g id="レイヤー_1-2" data-name="レイヤー 1"><path class="cls-1" d="M135.79,0H16.22C6.88,0,0,7.48,0,16.62v99.76C0,125.52,6.88,133,16.22,133H135.79Z"/><path class="cls-2" d="M277.46,0H396.27C405.61,0,414,7.48,414,16.62v99.77c0,9.13-8.39,16.61-17.73,16.61H142.42V0Z"/><path class="cls-3" d="M202.45,90.17V75.94h4.9a11.54,11.54,0,0,1,2.53.21,4.62,4.62,0,0,1,2.08,1,5.74,5.74,0,0,1,1.69,2.43,9.54,9.54,0,0,1,.56,3.38,10,10,0,0,1-.38,2.87,7.38,7.38,0,0,1-1,2.07,5.12,5.12,0,0,1-1.3,1.29,5.28,5.28,0,0,1-1.7.71,9.2,9.2,0,0,1-2.28.25Zm1.88-1.68h3a7.53,7.53,0,0,0,2.21-.26,3.18,3.18,0,0,0,1.28-.74,4.62,4.62,0,0,0,1-1.8,8.77,8.77,0,0,0,.37-2.74,6.6,6.6,0,0,0-.73-3.43,3.68,3.68,0,0,0-1.78-1.61,7.42,7.42,0,0,0-2.43-.29h-3Z"/><path class="cls-3" d="M216.58,78v-2h1.75v2Zm0,12.22V79.86h1.75V90.17Z"/><path class="cls-3" d="M228,86.85l1.81.22a4.41,4.41,0,0,1-1.59,2.46,5.36,5.36,0,0,1-6.53-.52,5.46,5.46,0,0,1-1.32-3.91,5.68,5.68,0,0,1,1.33-4,4.54,4.54,0,0,1,3.48-1.44A4.38,4.38,0,0,1,228.59,81a5.54,5.54,0,0,1,1.32,4c0,.1,0,.25,0,.46h-7.69a3.91,3.91,0,0,0,1,2.6,2.87,2.87,0,0,0,2.16.9,2.61,2.61,0,0,0,1.63-.5A3.27,3.27,0,0,0,228,86.85ZM222.31,84h5.75a3.57,3.57,0,0,0-.66-2,2.68,2.68,0,0,0-2.16-1,2.78,2.78,0,0,0-2,.8A3.24,3.24,0,0,0,222.31,84Z"/><path class="cls-3" d="M235.85,88.6l.26,1.55a6.83,6.83,0,0,1-1.32.15,3,3,0,0,1-1.48-.3,1.66,1.66,0,0,1-.74-.79,6.34,6.34,0,0,1-.21-2.06V81.22h-1.28V79.86h1.28V77.31l1.74-1v3.6h1.75v1.36H234.1v6a3.18,3.18,0,0,0,.09,1,.75.75,0,0,0,.3.34,1.22,1.22,0,0,0,.6.12A4.94,4.94,0,0,0,235.85,88.6Z"/><path class="cls-3" d="M249.81,88.9a6.59,6.59,0,0,1-1.87,1.16,5.33,5.33,0,0,1-1.93.34,3.77,3.77,0,0,1-2.61-.83,2.73,2.73,0,0,1-.91-2.12,2.91,2.91,0,0,1,.34-1.38,3,3,0,0,1,.91-1,4.32,4.32,0,0,1,1.25-.57,12.05,12.05,0,0,1,1.56-.26,16.19,16.19,0,0,0,3.11-.6c0-.24,0-.39,0-.46a1.92,1.92,0,0,0-.49-1.5,2.9,2.9,0,0,0-2-.59,3.07,3.07,0,0,0-1.82.43A2.61,2.61,0,0,0,244.5,83l-1.71-.24a4.24,4.24,0,0,1,.77-1.77,3.39,3.39,0,0,1,1.54-1,6.93,6.93,0,0,1,2.34-.36,6.09,6.09,0,0,1,2.14.31,2.92,2.92,0,0,1,1.22.78,2.78,2.78,0,0,1,.54,1.19,9.53,9.53,0,0,1,.09,1.61v2.33a23.73,23.73,0,0,0,.11,3.08,3.84,3.84,0,0,0,.44,1.24h-1.82A3.55,3.55,0,0,1,249.81,88.9Zm-.15-3.9a13.76,13.76,0,0,1-2.85.66,6.87,6.87,0,0,0-1.52.34,1.5,1.5,0,0,0-.69.57,1.45,1.45,0,0,0-.25.83,1.5,1.5,0,0,0,.53,1.17,2.28,2.28,0,0,0,1.55.46,3.62,3.62,0,0,0,1.79-.44,2.71,2.71,0,0,0,1.16-1.21,4.13,4.13,0,0,0,.28-1.74Z"/><path class="cls-3" d="M254.13,90.17V79.86h1.58v1.47a3.7,3.7,0,0,1,3.28-1.7,4.34,4.34,0,0,1,1.71.33,2.78,2.78,0,0,1,1.17.88,3.27,3.27,0,0,1,.54,1.29,9.45,9.45,0,0,1,.1,1.7v6.34h-1.75V83.9a4.94,4.94,0,0,0-.2-1.6,1.7,1.7,0,0,0-.73-.84,2.28,2.28,0,0,0-1.21-.32,2.84,2.84,0,0,0-1.93.71,3.5,3.5,0,0,0-.81,2.69v5.63Z"/><path class="cls-3" d="M271.87,90.17v-1.3A3.2,3.2,0,0,1,269,90.4a4.08,4.08,0,0,1-2.27-.68,4.48,4.48,0,0,1-1.6-1.9,6.51,6.51,0,0,1-.56-2.8,7.34,7.34,0,0,1,.51-2.79,4,4,0,0,1,3.84-2.6,3.45,3.45,0,0,1,1.66.39,3.38,3.38,0,0,1,1.18,1V75.94h1.74V90.17ZM266.35,85a4.51,4.51,0,0,0,.83,3,2.51,2.51,0,0,0,2,1,2.47,2.47,0,0,0,2-.93,4.36,4.36,0,0,0,.8-2.86,4.82,4.82,0,0,0-.82-3.11,2.51,2.51,0,0,0-2-1,2.4,2.4,0,0,0-1.95,1A4.67,4.67,0,0,0,266.35,85Z"/><path class="cls-3" d="M282,90.17V75.94h1.93l7.48,11.17V75.94h1.8V90.17h-1.93L283.77,79V90.17Z"/><path class="cls-3" d="M302.86,90.17V88.65a3.76,3.76,0,0,1-3.27,1.75,4.24,4.24,0,0,1-1.7-.35,2.74,2.74,0,0,1-1.17-.88,3.15,3.15,0,0,1-.54-1.29,9,9,0,0,1-.11-1.63V79.86h1.75v5.72a10.5,10.5,0,0,0,.1,1.84,1.84,1.84,0,0,0,.7,1.08,2.2,2.2,0,0,0,1.32.4,2.87,2.87,0,0,0,1.48-.41,2.22,2.22,0,0,0,1-1.09,5.57,5.57,0,0,0,.29-2V79.86h1.75V90.17Z"/><path class="cls-3" d="M311,88.6l.26,1.55a6.67,6.67,0,0,1-1.32.15,3,3,0,0,1-1.48-.3,1.63,1.63,0,0,1-.73-.79,6,6,0,0,1-.22-2.06V81.22H306.2V79.86h1.28V77.31l1.74-1v3.6H311v1.36h-1.75v6a3.18,3.18,0,0,0,.09,1,.75.75,0,0,0,.3.34,1.22,1.22,0,0,0,.6.12A4.94,4.94,0,0,0,311,88.6Z"/><path class="cls-3" d="M312.66,90.17V79.86h1.58v1.56A4.19,4.19,0,0,1,315.35,80a2,2,0,0,1,1.12-.35,3.43,3.43,0,0,1,1.79.56l-.6,1.62a2.52,2.52,0,0,0-1.28-.38,1.69,1.69,0,0,0-1,.35,1.91,1.91,0,0,0-.65,1,7,7,0,0,0-.29,2v5.4Z"/><path class="cls-3" d="M319.31,78v-2h1.75v2Zm0,12.22V79.86h1.75V90.17Z"/><path class="cls-3" d="M327.53,88.6l.25,1.55a6.67,6.67,0,0,1-1.32.15A3,3,0,0,1,325,90a1.66,1.66,0,0,1-.74-.79,6.34,6.34,0,0,1-.21-2.06V81.22h-1.29V79.86H324V77.31l1.73-1v3.6h1.76v1.36h-1.76v6a3.18,3.18,0,0,0,.09,1,.84.84,0,0,0,.31.34,1.16,1.16,0,0,0,.59.12A5.05,5.05,0,0,0,327.53,88.6Z"/><path class="cls-3" d="M329.25,78v-2H331v2Zm0,12.22V79.86H331V90.17Z"/><path class="cls-3" d="M333,85a5.33,5.33,0,0,1,1.59-4.24,4.82,4.82,0,0,1,3.24-1.14A4.63,4.63,0,0,1,341.31,81a5.3,5.3,0,0,1,1.35,3.85,6.78,6.78,0,0,1-.6,3.13,4.24,4.24,0,0,1-1.74,1.77,5.06,5.06,0,0,1-2.49.63A4.6,4.6,0,0,1,334.34,89,5.54,5.54,0,0,1,333,85Zm1.8,0a4.39,4.39,0,0,0,.86,3A2.88,2.88,0,0,0,340,88a4.51,4.51,0,0,0,.86-3,4.26,4.26,0,0,0-.87-2.9,2.88,2.88,0,0,0-4.33,0A4.31,4.31,0,0,0,334.8,85Z"/><path class="cls-3" d="M344.7,90.17V79.86h1.58v1.47a3.69,3.69,0,0,1,3.27-1.7,4.36,4.36,0,0,1,1.72.33,2.78,2.78,0,0,1,1.17.88,3.27,3.27,0,0,1,.54,1.29,10.51,10.51,0,0,1,.1,1.7v6.34h-1.75V83.9a4.94,4.94,0,0,0-.2-1.6,1.7,1.7,0,0,0-.73-.84,2.28,2.28,0,0,0-1.21-.32,2.84,2.84,0,0,0-1.93.71,3.5,3.5,0,0,0-.81,2.69v5.63Z"/><path class="cls-4" d="M234.06,59.32V62.7c1.9-.3,2.06-.32,3.87-.72v1.91c-2.11.5-3.65.79-7.21,1.39-.26.06-.52.1-.92.2l-.37-2.29h.3c.25,0,1.45-.1,2.24-.19V54c0-.24,0-.38,0-.9a24.27,24.27,0,0,1-2.48,1.13,9.64,9.64,0,0,0-1-2.16A17.15,17.15,0,0,0,236.6,47h2.34a13.44,13.44,0,0,0,3.54,3,19.29,19.29,0,0,0,4.83,2.09,9.29,9.29,0,0,0-1,2.2,19.41,19.41,0,0,1-2.62-1.17v4.85c0,.4,0,.58,0,.89.16-.18.2-.24.38-.43l2,1.07a31.76,31.76,0,0,1-3.54,2.74,16.3,16.3,0,0,0,4.51,1,11.07,11.07,0,0,0-1,2.21,15.4,15.4,0,0,1-7-2.86,11.25,11.25,0,0,1-2.9-3.24Zm2.7-7.33v-.58a4.73,4.73,0,0,0-.1-1.19h2.18a7.48,7.48,0,0,0-.08,1.19V52h3.06a18.09,18.09,0,0,1-4-3.32A17.39,17.39,0,0,1,233.88,52Zm-2.7,2.78h7.55v-1h-7.55Zm0,2.8h7.55V56.46h-7.55Zm4.51,1.75a7.21,7.21,0,0,0,2.06,1.93,15.71,15.71,0,0,0,2.55-1.91c-.44,0-.78,0-1.22,0Z"/><path class="cls-4" d="M256.57,57h-4.71A16.54,16.54,0,0,0,250,57V55.31a14.89,14.89,0,0,0,1.87.08h4.67v-.76h-4.21c-.72,0-1.21,0-1.67.06,0-.42.06-.83.06-1.33V52.05c0-.56,0-.92-.06-1.39.52,0,.93.06,1.69.06h4.19V50h-5.44a19.11,19.11,0,0,0-2.33.12v-2a20.74,20.74,0,0,0,2.45.11h5.32a7.36,7.36,0,0,0-.12-1.35h2.41a5.62,5.62,0,0,0-.14,1.35h5.58a20.79,20.79,0,0,0,2.44-.11v2a18.93,18.93,0,0,0-2.32-.12h-5.7v.76h4.49c.75,0,1.19,0,1.67-.06a13.4,13.4,0,0,0-.06,1.39v1.31a12.44,12.44,0,0,0,.06,1.33c-.44,0-1-.06-1.59-.06h-4.57v.76h4.45c1.17,0,1.57,0,2.12-.06a13.19,13.19,0,0,0-.06,1.8v.7a11.15,11.15,0,0,0,1.73-.1v1.89a11.72,11.72,0,0,0-1.73-.1v1.15a15,15,0,0,0,.1,2.15h-2.22V62h-4.39v1.11c0,1.79-.5,2.17-2.92,2.17-.48,0-1.28,0-1.91-.08a5.71,5.71,0,0,0-.62-2,22.53,22.53,0,0,0,2.53.18c.61,0,.77-.1.77-.45V62H251.9a13.33,13.33,0,0,0-2,.1V60.29a14.17,14.17,0,0,0,1.88.08h4.75v-.85h-5.7a14.25,14.25,0,0,0-2.19.1V57.73a13.65,13.65,0,0,0,2.15.1h5.74Zm-3.71-4.69v.81h3.71v-.81Zm5.86.81h4v-.81h-4Zm4.39,4.75V57h-4.39v.87Zm-4.39,2.54h4.39v-.85h-4.39Z"/><path class="cls-4" d="M280,56.12a2.37,2.37,0,1,1-2.37-2.36A2.36,2.36,0,0,1,280,56.12Z"/><path class="cls-4" d="M303.94,55.56a13.39,13.39,0,0,0,2.31-.11v2.22a18.76,18.76,0,0,0-2.31-.12h-4.29a15.76,15.76,0,0,0,7.19,4.89,7.47,7.47,0,0,0-1.62,1.93A17.71,17.71,0,0,1,301.44,62a12.93,12.93,0,0,1-3-3.14c0,.5.06,1.51.06,1.85v2.76a10.83,10.83,0,0,0,.12,1.91H296.2a10.87,10.87,0,0,0,.13-1.89V60.67c0-.73,0-1.21.05-1.83a14.24,14.24,0,0,1-3,3.2,18.83,18.83,0,0,1-3.57,2.27,6.13,6.13,0,0,0-1.57-1.83,16.29,16.29,0,0,0,6.91-4.93h-4a19.88,19.88,0,0,0-2.32.12V55.45a14.63,14.63,0,0,0,2.3.11h5.2V54.37a11.17,11.17,0,0,0-.09-1.47h2.34a9.36,9.36,0,0,0-.08,1.47v1.19ZM292.32,50.5a11.3,11.3,0,0,0-1.67-2.6l2.07-.8A15.72,15.72,0,0,1,294.49,50l-1.63.54h4a13.4,13.4,0,0,0-1.57-2.92l2.05-.66a24.65,24.65,0,0,1,1.65,3l-1.73.58h3.2a14.38,14.38,0,0,0,1.82-3.42l2.13.6a30.23,30.23,0,0,1-1.69,2.82H304a19.82,19.82,0,0,0,2.13-.08,12.48,12.48,0,0,0-.08,1.69v1a12.58,12.58,0,0,0,.08,1.59h-2.17V52.35H291.17v2.34H289a13.16,13.16,0,0,0,.1-1.55V52.07c0-.7,0-1.15-.08-1.65.66.06,1.22.08,2.11.08Z"/><path class="cls-4" d="M318.15,64.11c-2.84.53-4.25.75-7.45,1.15a5.39,5.39,0,0,0-1,.18l-.32-2,.16,0h.34c.3,0,.83-.06,1.85-.16V58.23a17.27,17.27,0,0,1-2.7,1.55,6.12,6.12,0,0,0-1.16-1.87,11.11,11.11,0,0,0,3.38-1.69,7.68,7.68,0,0,0,1.65-1.55H310.5a13,13,0,0,0-2,.1V53a12.1,12.1,0,0,0,2,.1h5.73v-.81h-4.35a15.1,15.1,0,0,0-1.87.08V50.74a13.62,13.62,0,0,0,1.87.08h4.35V50h-5.05a15.11,15.11,0,0,0-2,.1V48.31a10.67,10.67,0,0,0,2,.12h2.15A9,9,0,0,0,312.27,47l2.15-.44a13.72,13.72,0,0,1,1.27,1.83h3.48a10.87,10.87,0,0,0,1-1.83l2.23.4c-.12.22-.12.22-.36.62a9.5,9.5,0,0,1-.54.81h2.17a10.73,10.73,0,0,0,2-.12V50.1a14.63,14.63,0,0,0-2-.1h-5.33v.82H323a14.29,14.29,0,0,0,1.87-.08v1.63a15.51,15.51,0,0,0-1.87-.08h-4.67v.81h6a12.76,12.76,0,0,0,2-.1v1.77a14.39,14.39,0,0,0-2-.1H322a10.48,10.48,0,0,0,5,2.92,7.4,7.4,0,0,0-1.11,1.89,14.61,14.61,0,0,1-3.26-1.87v2c0,.57,0,.81,0,1.23.36-.34.54-.52,1-1l1.61,1.07A19.71,19.71,0,0,1,322.41,63a21.77,21.77,0,0,0,4.37.55,7.35,7.35,0,0,0-1.12,2c-3.45-.4-5.58-1.09-7.53-2.46ZM313.74,58h7v-.68h-7Zm0,1.91h7v-.68h-7Zm0,3.23a34.82,34.82,0,0,0,3.78-.55,8.12,8.12,0,0,1-1.31-1.31h-2.47Zm2.63-7.19a3.63,3.63,0,0,0-.08-.87h2.16a3.08,3.08,0,0,0-.1.87h2.37a14,14,0,0,1-1.1-1.23h-4.43a10,10,0,0,1-.95,1.23Zm2.18,5.33a7.83,7.83,0,0,0,1.91,1.13c.87-.54,1.19-.74,1.69-1.11-.38,0-.78,0-.86,0Z"/><path class="cls-4" d="M65.7,44.42A12.55,12.55,0,1,1,53.16,31.87,12.53,12.53,0,0,1,65.7,44.42Z"/><path class="cls-4" d="M103.35,41.28a3.14,3.14,0,1,1-3.14-3.13,3.14,3.14,0,0,1,3.14,3.13Z"/><path class="cls-4" d="M82.5,77.2,71.86,61.55c-1.53-1.53-8.85-1.47-10-1.47L53.11,94.6,44.66,60.1a38.51,38.51,0,0,0-6.57.42v43.81H71.21V77.72l8,10.21a4.71,4.71,0,0,0,3.42,1.47,4.84,4.84,0,0,0,3.48-1.47L96.94,73c2-2,12.68-3.45,12.68-6.76H90.81Z"/><path class="cls-4" d="M117.46,56.3h-1.89c-1.45-6.62-7.78-12.54-15.36-12.54S86.3,49.68,84.85,56.3H83c-.87,0-1.82,1.37-1.82,2.24v3.14c0,.86,1,1.25,1.82,1.25h34.5c.87,0,1.77-.39,1.77-1.25V58.54c0-.87-.9-2.24-1.77-2.24Z"/></g></g></svg>