<svg xmlns="http://www.w3.org/2000/svg" xmlns:xlink="http://www.w3.org/1999/xlink" width="414" height="55" viewBox="0 0 414 55"><defs><style>.cls-1{fill:#f58466;}.cls-2{fill:url(#GradientFill_1);}.cls-3{fill:#ccc;}.cls-4{fill:#fff;}</style><linearGradient id="GradientFill_1" x1="278" y1="55" x2="278" gradientUnits="userSpaceOnUse"><stop offset="0" stop-color="#231f20"/><stop offset="1" stop-color="#808284"/></linearGradient></defs><title>bn_meal_sm</title><g id="レイヤー_2" data-name="レイヤー 2"><g id="レイヤー_1-2" data-name="レイヤー 1"><path class="cls-1" d="M10,0H135a0,0,0,0,1,0,0V55a0,0,0,0,1,0,0H10A10,10,0,0,1,0,45V10A10,10,0,0,1,10,0Z"/><path class="cls-2" d="M142,0H404a10,10,0,0,1,10,10V45a10,10,0,0,1-10,10H142a0,0,0,0,1,0,0V0A0,0,0,0,1,142,0Z"/><path class="cls-3" d="M212.82,44.8V32.63H217a9.88,9.88,0,0,1,2.17.18,4.13,4.13,0,0,1,1.78.87,5,5,0,0,1,1.44,2.08,8.11,8.11,0,0,1,.48,2.89,8.68,8.68,0,0,1-.32,2.46,6.33,6.33,0,0,1-.83,1.77A4.49,4.49,0,0,1,220.62,44a4.76,4.76,0,0,1-1.46.61,8.67,8.67,0,0,1-1.95.2Zm1.61-1.43H217a6.3,6.3,0,0,0,1.89-.23,2.75,2.75,0,0,0,1.09-.63A3.77,3.77,0,0,0,220.9,41a7.56,7.56,0,0,0,.32-2.34,5.68,5.68,0,0,0-.63-2.94,3.14,3.14,0,0,0-1.52-1.37,6.18,6.18,0,0,0-2.08-.25h-2.56Z"/><path class="cls-3" d="M224.91,34.35V32.63h1.5v1.72Zm0,10.45V36h1.5V44.8Z"/><path class="cls-3" d="M234.72,42l1.54.2a3.75,3.75,0,0,1-1.35,2.1,4.13,4.13,0,0,1-2.53.74,4,4,0,0,1-3.06-1.19,4.63,4.63,0,0,1-1.14-3.34A4.84,4.84,0,0,1,229.33,37a3.86,3.86,0,0,1,3-1.23,3.78,3.78,0,0,1,2.89,1.2,4.77,4.77,0,0,1,1.12,3.39c0,.09,0,.22,0,.4h-6.57a3.35,3.35,0,0,0,.82,2.22,2.42,2.42,0,0,0,1.84.77,2.24,2.24,0,0,0,1.4-.43A2.85,2.85,0,0,0,234.72,42Zm-4.91-2.41h4.92a3,3,0,0,0-.56-1.67,2.3,2.3,0,0,0-1.85-.86,2.35,2.35,0,0,0-1.73.69A2.71,2.71,0,0,0,229.81,39.55Z"/><path class="cls-3" d="M241.4,43.47l.21,1.32a5.37,5.37,0,0,1-1.13.13,2.57,2.57,0,0,1-1.26-.26,1.4,1.4,0,0,1-.63-.67,5.46,5.46,0,0,1-.18-1.77V37.15h-1.1V36h1.1V33.81l1.49-.9V36h1.5v1.16h-1.5v5.16a2.84,2.84,0,0,0,.07.82.66.66,0,0,0,.26.29,1,1,0,0,0,.51.11A4.7,4.7,0,0,0,241.4,43.47Z"/><path class="cls-3" d="M253.33,43.72a5.41,5.41,0,0,1-1.59,1,4.51,4.51,0,0,1-1.65.29,3.16,3.16,0,0,1-2.23-.71,2.51,2.51,0,0,1-.49-3,2.38,2.38,0,0,1,.77-.86,3.54,3.54,0,0,1,1.08-.49,11.18,11.18,0,0,1,1.33-.23,13.42,13.42,0,0,0,2.66-.51c0-.21,0-.34,0-.39a1.63,1.63,0,0,0-.43-1.29,2.47,2.47,0,0,0-1.7-.5,2.58,2.58,0,0,0-1.55.37,2.21,2.21,0,0,0-.75,1.3l-1.46-.2A3.62,3.62,0,0,1,248,37a2.81,2.81,0,0,1,1.32-.89,5.8,5.8,0,0,1,2-.31,5.47,5.47,0,0,1,1.83.26,2.43,2.43,0,0,1,1,.67,2.41,2.41,0,0,1,.47,1,8.49,8.49,0,0,1,.07,1.38v2a19.67,19.67,0,0,0,.1,2.64,3.38,3.38,0,0,0,.37,1h-1.56A3.42,3.42,0,0,1,253.33,43.72Zm-.12-3.34a10.83,10.83,0,0,1-2.44.56,5.7,5.7,0,0,0-1.3.3,1.3,1.3,0,0,0-.59.49,1.31,1.31,0,0,0,.24,1.7,1.92,1.92,0,0,0,1.33.4,3.09,3.09,0,0,0,1.53-.37,2.36,2.36,0,0,0,1-1,3.6,3.6,0,0,0,.24-1.49Z"/><path class="cls-3" d="M257,44.8V36h1.34v1.25a3.17,3.17,0,0,1,2.81-1.45,3.49,3.49,0,0,1,1.46.29,2.26,2.26,0,0,1,1,.75,2.89,2.89,0,0,1,.47,1.1,9.28,9.28,0,0,1,.08,1.45V44.8h-1.49V39.44a3.86,3.86,0,0,0-.18-1.36,1.38,1.38,0,0,0-.62-.73,1.94,1.94,0,0,0-1-.27,2.48,2.48,0,0,0-1.65.61,3,3,0,0,0-.69,2.3V44.8Z"/><path class="cls-3" d="M272.21,44.8V43.69A2.73,2.73,0,0,1,269.75,45a3.43,3.43,0,0,1-1.94-.58,3.83,3.83,0,0,1-1.37-1.62,5.53,5.53,0,0,1-.49-2.4,6.32,6.32,0,0,1,.44-2.39,3.47,3.47,0,0,1,1.32-1.65,3.55,3.55,0,0,1,2-.57,3,3,0,0,1,1.42.33,3.08,3.08,0,0,1,1,.88V32.63h1.49V44.8Zm-4.72-4.4a3.89,3.89,0,0,0,.71,2.54,2.15,2.15,0,0,0,1.69.83,2.09,2.09,0,0,0,1.66-.8,3.66,3.66,0,0,0,.69-2.44,4.19,4.19,0,0,0-.7-2.66,2.16,2.16,0,0,0-1.72-.84,2.06,2.06,0,0,0-1.66.81A4,4,0,0,0,267.49,40.4Z"/><path class="cls-3" d="M280.84,44.8V32.63h1.66l6.39,9.56V32.63h1.54V44.8h-1.65l-6.39-9.56V44.8Z"/><path class="cls-3" d="M298.72,44.8V43.51A3.23,3.23,0,0,1,295.93,45a3.57,3.57,0,0,1-1.46-.3,2.45,2.45,0,0,1-1-.75,3,3,0,0,1-.46-1.11,7.59,7.59,0,0,1-.09-1.39V36h1.5v4.89a8.73,8.73,0,0,0,.09,1.57,1.5,1.5,0,0,0,.6.93,1.86,1.86,0,0,0,1.12.34,2.51,2.51,0,0,0,1.27-.35,1.89,1.89,0,0,0,.83-.94,4.73,4.73,0,0,0,.25-1.72V36h1.49V44.8Z"/><path class="cls-3" d="M305.66,43.47l.22,1.32a5.44,5.44,0,0,1-1.13.13,2.57,2.57,0,0,1-1.26-.26,1.4,1.4,0,0,1-.63-.67,5.37,5.37,0,0,1-.19-1.77V37.15h-1.09V36h1.09V33.81l1.49-.9V36h1.5v1.16h-1.5v5.16a2.73,2.73,0,0,0,.08.82.61.61,0,0,0,.26.29,1,1,0,0,0,.51.11A4.7,4.7,0,0,0,305.66,43.47Z"/><path class="cls-3" d="M307.11,44.8V36h1.34v1.34a3.59,3.59,0,0,1,.95-1.24,1.65,1.65,0,0,1,1-.3,2.94,2.94,0,0,1,1.54.48l-.52,1.39a2.09,2.09,0,0,0-1.09-.33,1.4,1.4,0,0,0-.88.3,1.57,1.57,0,0,0-.56.82,5.67,5.67,0,0,0-.25,1.74V44.8Z"/><path class="cls-3" d="M312.79,34.35V32.63h1.5v1.72Zm0,10.45V36h1.5V44.8Z"/><path class="cls-3" d="M319.82,43.47l.22,1.32a5.44,5.44,0,0,1-1.13.13,2.57,2.57,0,0,1-1.26-.26A1.4,1.4,0,0,1,317,44a5.46,5.46,0,0,1-.18-1.77V37.15h-1.1V36h1.1V33.81l1.48-.9V36h1.5v1.16h-1.5v5.16a2.73,2.73,0,0,0,.08.82.61.61,0,0,0,.26.29,1,1,0,0,0,.51.11A4.7,4.7,0,0,0,319.82,43.47Z"/><path class="cls-3" d="M321.29,34.35V32.63h1.5v1.72Zm0,10.45V36h1.5V44.8Z"/><path class="cls-3" d="M324.51,40.4a4.52,4.52,0,0,1,1.36-3.63,4.1,4.1,0,0,1,2.77-1,4,4,0,0,1,3,1.19,4.52,4.52,0,0,1,1.15,3.29,5.83,5.83,0,0,1-.51,2.68,3.59,3.59,0,0,1-1.48,1.51,4.32,4.32,0,0,1-2.13.54,4,4,0,0,1-3-1.18A4.77,4.77,0,0,1,324.51,40.4Zm1.53,0a3.76,3.76,0,0,0,.74,2.53,2.47,2.47,0,0,0,3.71,0,3.87,3.87,0,0,0,.74-2.58,3.67,3.67,0,0,0-.74-2.48,2.48,2.48,0,0,0-3.71,0A3.78,3.78,0,0,0,326,40.4Z"/><path class="cls-3" d="M334.52,44.8V36h1.34v1.25a3.17,3.17,0,0,1,2.81-1.45,3.49,3.49,0,0,1,1.46.29,2.26,2.26,0,0,1,1,.75,2.89,2.89,0,0,1,.47,1.1,9.28,9.28,0,0,1,.08,1.45V44.8h-1.49V39.44a3.86,3.86,0,0,0-.18-1.36,1.38,1.38,0,0,0-.62-.73,1.94,1.94,0,0,0-1-.27,2.46,2.46,0,0,0-1.65.61A3,3,0,0,0,336,40V44.8Z"/><path class="cls-4" d="M239.86,21.58v2.89c1.63-.25,1.77-.27,3.32-.61v1.63c-1.81.43-3.13.68-6.17,1.19-.23.06-.45.09-.79.17l-.32-2h.26c.22,0,1.24-.09,1.92-.17V17.06c0-.2,0-.32,0-.76a21.58,21.58,0,0,1-2.13,1,8,8,0,0,0-.83-1.85A14.81,14.81,0,0,0,242,11.05h2a11.5,11.5,0,0,0,3,2.53,16.53,16.53,0,0,0,4.13,1.78,8,8,0,0,0-.85,1.89,16.84,16.84,0,0,1-2.24-1V20.4c0,.34,0,.49,0,.76l.33-.37,1.71.91a25.64,25.64,0,0,1-3,2.35,14.18,14.18,0,0,0,3.86.87,9.89,9.89,0,0,0-.87,1.88,13,13,0,0,1-5.95-2.44,9.58,9.58,0,0,1-2.48-2.78Zm2.31-6.27v-.49a4,4,0,0,0-.08-1H244a5.59,5.59,0,0,0-.07,1v.49h2.62a15.31,15.31,0,0,1-3.45-2.84,15.18,15.18,0,0,1-3.35,2.84Zm-2.31,2.38h6.46v-.85h-6.46Zm0,2.4h6.46v-.95h-6.46Zm3.86,1.49a6,6,0,0,0,1.77,1.65,12.56,12.56,0,0,0,2.17-1.63c-.37,0-.66,0-1,0Z"/><path class="cls-4" d="M259.12,19.56h-4a14.28,14.28,0,0,0-1.56.07V18.15a12.87,12.87,0,0,0,1.6.07h4v-.65h-3.6c-.61,0-1,0-1.43.05,0-.35,0-.71,0-1.13V15.36c0-.47,0-.78,0-1.19.44,0,.8.05,1.45.05h3.58v-.64h-4.66a15.86,15.86,0,0,0-2,.1V12a15.37,15.37,0,0,0,2.09.1h4.55a6.46,6.46,0,0,0-.1-1.16h2.06A4.32,4.32,0,0,0,261,12.1h4.77a15.84,15.84,0,0,0,2.1-.1v1.68a16.14,16.14,0,0,0-2-.1H261v.64h3.84a13.9,13.9,0,0,0,1.43-.05,10.25,10.25,0,0,0-.05,1.19v1.13a9.17,9.17,0,0,0,.05,1.13c-.38,0-.82-.05-1.36-.05H261v.65h3.81c1,0,1.34,0,1.81,0a11.6,11.6,0,0,0-.05,1.54v.6a9.94,9.94,0,0,0,1.48-.08v1.61a10.1,10.1,0,0,0-1.48-.09v1a12.5,12.5,0,0,0,.09,1.84h-1.91v-.67H261v1c0,1.53-.43,1.85-2.5,1.85-.41,0-1.09,0-1.63-.07A4.83,4.83,0,0,0,256.3,25a19.74,19.74,0,0,0,2.16.15c.53,0,.66-.08.66-.39v-.82h-4a11.27,11.27,0,0,0-1.69.09V22.42a12.51,12.51,0,0,0,1.62.07h4.06v-.74h-4.88a11.8,11.8,0,0,0-1.87.09V20.23a13.11,13.11,0,0,0,1.84.08h4.91Zm-3.18-4v.7h3.18v-.7Zm5,.7h3.41v-.7H261Zm3.75,4.06v-.75H261v.75ZM261,22.49h3.75v-.74H261Z"/><path class="cls-4" d="M279.2,18.85a2,2,0,1,1-2-2A2,2,0,0,1,279.2,18.85Z"/><path class="cls-4" d="M299.65,18.37a10.82,10.82,0,0,0,2-.1v1.9a17.86,17.86,0,0,0-2-.1H296a13.42,13.42,0,0,0,6.15,4.18,6.86,6.86,0,0,0-1.39,1.65,15.38,15.38,0,0,1-3.23-2,11.11,11.11,0,0,1-2.57-2.69c0,.42.05,1.29.05,1.58V25.1a9.94,9.94,0,0,0,.1,1.64H293a8.93,8.93,0,0,0,.12-1.62V22.74c0-.63,0-1,0-1.56a12,12,0,0,1-2.58,2.73,16,16,0,0,1-3.06,1.94,5.26,5.26,0,0,0-1.34-1.56,13.91,13.91,0,0,0,5.91-4.22h-3.4a19.42,19.42,0,0,0-2,.1v-1.9a12.06,12.06,0,0,0,2,.1h4.45v-1a8.2,8.2,0,0,0-.09-1.26h2a8.15,8.15,0,0,0-.07,1.26v1ZM289.71,14a10.32,10.32,0,0,0-1.43-2.23l1.77-.68a12.69,12.69,0,0,1,1.51,2.45l-1.4.46h3.45a11.42,11.42,0,0,0-1.34-2.5L294,11a19.23,19.23,0,0,1,1.41,2.56L294,14h2.73a12.5,12.5,0,0,0,1.57-2.93l1.81.51A23.43,23.43,0,0,1,298.63,14h1a17.34,17.34,0,0,0,1.82-.07,9.38,9.38,0,0,0-.07,1.45v.84a9.25,9.25,0,0,0,.07,1.36h-1.86v-2H288.72v2h-1.87a11.41,11.41,0,0,0,.08-1.32v-.92c0-.59,0-1-.06-1.41.56,0,1,.07,1.8.07Z"/><path class="cls-4" d="M311.8,25.68c-2.43.46-3.63.65-6.37,1a4.48,4.48,0,0,0-.88.15l-.28-1.72.14,0h.29c.25,0,.71-.05,1.58-.14V20.65A14.05,14.05,0,0,1,304,22a5.29,5.29,0,0,0-1-1.6,9.4,9.4,0,0,0,2.89-1.45,6.63,6.63,0,0,0,1.41-1.32h-2a11.22,11.22,0,0,0-1.72.08V16.18a10.42,10.42,0,0,0,1.72.08h4.9v-.69h-3.73a11.25,11.25,0,0,0-1.59.07v-1.4a11.68,11.68,0,0,0,1.59.07h3.73v-.7h-4.32a12.47,12.47,0,0,0-1.7.09V12.17a9.56,9.56,0,0,0,1.7.1h1.83a7,7,0,0,0-.9-1.19l1.84-.37a11.89,11.89,0,0,1,1.09,1.56h3a8.26,8.26,0,0,0,.85-1.56l1.91.34-.31.52c-.19.31-.26.41-.46.7h1.85a9.81,9.81,0,0,0,1.72-.1V13.7a12.32,12.32,0,0,0-1.72-.09H312v.7h4a12.35,12.35,0,0,0,1.6-.07v1.4a11.49,11.49,0,0,0-1.6-.07h-4v.69h5.15a10.77,10.77,0,0,0,1.73-.08v1.51a12.07,12.07,0,0,0-1.73-.08h-2a9.11,9.11,0,0,0,4.3,2.5,6.16,6.16,0,0,0-.95,1.61,12.31,12.31,0,0,1-2.79-1.6v1.7c0,.5,0,.7,0,1.06.31-.29.46-.45.85-.87l1.38.92a16.63,16.63,0,0,1-2.47,1.77,18.43,18.43,0,0,0,3.74.47,6.26,6.26,0,0,0-.95,1.68,12.91,12.91,0,0,1-6.44-2.1ZM308,20.41h6v-.58h-6ZM308,22h6v-.57h-6Zm0,2.77c1.46-.15,1.48-.17,3.23-.47a7,7,0,0,1-1.12-1.12h-2.11Zm2.24-6.15a3.18,3.18,0,0,0-.07-.75h1.86a2.72,2.72,0,0,0-.09.75h2c-.34-.36-.49-.51-.93-1.05h-3.79a10.46,10.46,0,0,1-.82,1.05Zm1.87,4.56a6.63,6.63,0,0,0,1.63,1,14.47,14.47,0,0,0,1.45-1h-3.08Z"/><path class="cls-4" d="M59.05,12.06a8.18,8.18,0,1,1-8.18-8.19,8.18,8.18,0,0,1,8.18,8.19Z"/><path class="cls-4" d="M83.6,10a2,2,0,1,1-2-2,2,2,0,0,1,2,2Z"/><path class="cls-4" d="M70,33.44l-7-10.21c-1-1-5.77-1-6.51-1L50.84,44.78l-5.52-22.5a26.14,26.14,0,0,0-4.28.27V51.13h21.6V33.77l5.24,6.66a3.07,3.07,0,0,0,2.23,1,3.16,3.16,0,0,0,2.27-1l7-9.73c1.28-1.29,8.27-2.25,8.27-4.41H75.42Z"/><path class="cls-4" d="M92.8,19.81H91.57a10.22,10.22,0,0,0-20,0H70.31c-.57,0-1.19.89-1.19,1.45v2c0,.57.62.82,1.19.82H92.8c.57,0,1.16-.25,1.16-.82v-2c0-.56-.59-1.45-1.16-1.45Z"/></g></g></svg>