<svg xmlns="http://www.w3.org/2000/svg" xmlns:xlink="http://www.w3.org/1999/xlink" width="414" height="148" viewBox="0 0 414 148"><defs><style>.cls-1{fill:url(#新規グラデーションスウォッチ_1);}.cls-2{fill:url(#新規グラデーションスウォッチ_1-2);}.cls-3{clip-path:url(#clip-path);}.cls-4{fill:url(#linear-gradient);}.cls-5{fill:none;}.cls-6{fill:#fff;}</style><linearGradient id="新規グラデーションスウォッチ_1" y1="74" x2="414" y2="74" gradientUnits="userSpaceOnUse"><stop offset="0" stop-color="#2bc4f3"/><stop offset="0.5" stop-color="#00aeee"/><stop offset="1" stop-color="#0095da"/></linearGradient><linearGradient id="新規グラデーションスウォッチ_1-2" x1="14.1" y1="73.98" x2="399.87" y2="73.98" xlink:href="#新規グラデーションスウォッチ_1"/><clipPath id="clip-path"><path class="cls-1" d="M14.1,92V57.3c0-23.46,18.18-43,41.33-43H357.68c23.15,0,42.23,19.55,42.23,43V92c0,23.46-19.08,41.68-42.23,41.68H55.43C32.28,133.71,14.1,115.49,14.1,92M55.43,0C24.55,0,0,26,0,57.3V92c0,31.3,24.55,56,55.43,56H357.68A56,56,0,0,0,414,92V57.3C414,26,388.56,0,357.68,0Z"/></clipPath><linearGradient id="linear-gradient" x1="1279.93" y1="-600.3" x2="1281.69" y2="-600.3" gradientTransform="matrix(235, 0, 0, -235, -300783.17, -140996.67)" gradientUnits="userSpaceOnUse"><stop offset="0" stop-color="#fff"/><stop offset="0.13" stop-color="#a2a4a7"/><stop offset="0.29" stop-color="#a2a4a7"/><stop offset="0.64" stop-color="#c3c5c7"/><stop offset="0.8" stop-color="#d9dbdc"/><stop offset="1" stop-color="#939598"/></linearGradient></defs><title>bn_otameshi_sm</title><g id="レイヤー_2" data-name="レイヤー 2"><g id="レイヤー_1-2" data-name="レイヤー 1"><path class="cls-2" d="M55.42,14.29c-23.14,0-41.32,19.55-41.32,43V92c0,23.45,18.18,41.67,41.32,41.67H357.65c23.14,0,42.22-18.22,42.22-41.67V57.3c0-23.46-19.08-43-42.22-43Z"/><path class="cls-1" d="M14.1,92V57.3c0-23.46,18.18-43,41.33-43H357.68c23.15,0,42.23,19.55,42.23,43V92c0,23.46-19.08,41.68-42.23,41.68H55.43C32.28,133.71,14.1,115.49,14.1,92M55.43,0C24.55,0,0,26,0,57.3V92c0,31.3,24.55,56,55.43,56H357.68A56,56,0,0,0,414,92V57.3C414,26,388.56,0,357.68,0Z"/><g class="cls-3"><rect class="cls-4" width="414" height="148"/></g><path class="cls-5" d="M55.43,0C24.55,0,0,26,0,57.3V92c0,31.3,24.55,56,55.43,56H357.68A56,56,0,0,0,414,92V57.3C414,26,388.56,0,357.68,0Z"/><path class="cls-6" d="M142.76,17.87A7.64,7.64,0,0,1,149.33,21a17.84,17.84,0,0,1,2.64-.24c2.65-.05,6.13.94,5.88,3.72-.19,3.58-6,5-9.75,5-2.74,0-6.07-.45-8-1.84-3.09,2.78-5.54,6.9-5.54,9.93,0,2.49,1,4.72,5.1,4.52a14.21,14.21,0,0,0,6.86-2.73c1.12-.79,2.15-1.79,3.13-2.63.44-.4.69-.5.78-.4s-.09.4-.68.95c-1,.94-2.21,2-3.28,2.78a15,15,0,0,1-7.7,3c-5.09.4-8.47-1.34-8.62-5.27-.15-4.32,2.5-8.54,7.59-12.12a4.48,4.48,0,0,1-1.22-3.13c0-2.73,2.65-4.67,6.17-4.67Zm.05.7c-3,0-5.68,1.39-5.68,4a4.24,4.24,0,0,0,1,2.83A32.35,32.35,0,0,1,148.4,21.2a7.11,7.11,0,0,0-5.54-2.63Zm5.39,10.48c3.14,0,6.91-1.39,7.35-4.77.15-2.13-1.47-3.08-3.67-3.08a10.34,10.34,0,0,0-2.36.25,7.61,7.61,0,0,1,.59,2.73c0,1.19-.15,1.89-.24,1.84s0-.6-.15-1.54a6.72,6.72,0,0,0-1-2.78,23.21,23.21,0,0,0-8.23,5.61c1.81,1.24,5.14,1.74,7.69,1.74Z"/><path class="cls-6" d="M164.62,32.83c1.56,0,1.81.19,1.32.79-1,1.19-1.62,2-2.6,3.28a23.92,23.92,0,0,0-1.66,2.43c-.2.35-.2.75,0,.9s.78.1,1.22-.1A10.26,10.26,0,0,0,165,38.74c1-.85,1.91-1.64,2.4-2.09.15-.15.49-.45.64-.3s-.25.55-.44.75c-.59.59-2,1.84-2.94,2.58-2.11,1.64-3.34,2.19-4.9,2.19-1.28,0-2-.45-2.21-1.29a2.33,2.33,0,0,1,.44-1.74l0-.05c-1.27,1.14-3.67,3.08-6.27,3.08-1.76,0-2.94-.5-2.94-1.94a4.66,4.66,0,0,1,1.57-3l0-.05-.44.4c-.44.39-.69.49-.78.39s0-.34.34-.64a13.69,13.69,0,0,1,1.91-1.54,19.37,19.37,0,0,1,3.48-1.89,12.87,12.87,0,0,1,4.75-1c1.62,0,1.91.89,1.86,1.59C162.61,32.83,162.7,32.83,164.62,32.83Zm-4.71.34c-.93,0-2.79,1.49-4.6,3.28s-2.75,3.28-2.7,3.93a.57.57,0,0,0,.64.49c.93,0,2.79-1.09,4.11-2.33,1.52-1.39,3.43-3.68,3.48-4.47s-.34-.9-.88-.9Z"/><path class="cls-6" d="M174.27,32.58c1.52,0,2,.59,2,1.34a4.37,4.37,0,0,1-1.08,2.18c-.73,1-1.52,1.94-2.25,2.84l.09.1c.59-.5,2.41-2,4.66-3.63,1.67-1.19,3.87-2.83,6.17-2.83,1.91,0,2.06,1,2,1.74a7.31,7.31,0,0,1-1.57,2.83c-.68.89-1.17,1.54-1.37,1.79l.1.1c.88-.8,2.6-2.14,4.46-3.53,1.42-1,4.07-2.93,6.52-2.93,1.42,0,2.15.59,2.1,1.59a7.72,7.72,0,0,1-1.76,3,21,21,0,0,0-1.47,2c-.34.55-.39,1-.1,1.15s.78,0,1.23-.25a14.54,14.54,0,0,0,2.1-1.44c.69-.55,1.86-1.59,2.35-2,.3-.25.45-.35.59-.2s.05.25-.14.45c-.59.55-2.26,2-3.24,2.78a9.49,9.49,0,0,1-4.8,2.09c-2.25.05-2.6-1.1-2.45-2s.49-1.44,1.67-2.88c.68-.85,1.42-1.74,2-2.44.19-.24.19-.54-.1-.64s-.79,0-1.52.45A31.37,31.37,0,0,0,187,36.55c-2.25,1.69-3.58,2.73-5.59,4.42a5.57,5.57,0,0,1-2.45.55c-1.56,0-1.61-.15-1.37-.8a25.55,25.55,0,0,1,2.6-3.87c.73-1,1.42-1.84,1.76-2.44.2-.29.15-.54,0-.64s-1,.2-1.47.45a34.45,34.45,0,0,0-3.23,2.23c-2.25,1.69-3.58,2.73-5.63,4.42a4,4,0,0,1-2.45.65c-1.57.1-1.77-.1-1.47-.8a21.19,21.19,0,0,1,2.25-3.32c.83-1.1,1.52-1.89,2.11-2.74.19-.29.29-.54.09-.69s-.39,0-.73.2a18.54,18.54,0,0,0-1.76,1.24c-.74.59-1.72,1.44-2.21,1.89s-.68.54-.83.39,0-.24.34-.59c.69-.65,1.72-1.54,2.55-2.19S172.46,32.58,174.27,32.58Z"/><path class="cls-6" d="M198.33,37.35c-.44.39-.54.44-.69.29s0-.29.25-.54c.78-.75,2.74-2.59,3.72-3.48s2.7-2.48,4.31-4a4.39,4.39,0,0,1,2.94-1.15c1.23-.05,1.67.25.84,1.25-2.8,3.42-7.84,9.93-12.55,16.44-4.36,5.91-5.49,7.55-8.77,12.76-.44.7-.39.9-.29,1s.39-.05.59-.3c.63-.75,2.45-3.33,3.87-5.36,1-1.45,3.28-4.53,5.63-7.7,2-2.69,4-5.32,5.88-7.55a29.45,29.45,0,0,1,4.31-4.28,9,9,0,0,1,5.2-2.18c1.71,0,2.4.74,2.25,1.69s-1.13,2-1.91,3a16.87,16.87,0,0,0-1.52,2c-.29.5-.34.85-.15,1s.79,0,1.18-.15a14.44,14.44,0,0,0,2.16-1.39c.88-.7,1.91-1.64,2.35-2,.24-.25.54-.5.68-.35s0,.3-.14.5a42.44,42.44,0,0,1-3.24,2.78,8.83,8.83,0,0,1-5.09,2.09c-1.42,0-2.11-.65-2.16-1.49,0-1.1.83-2.29,1.67-3.38.68-.89,1.66-2,2.1-2.48.25-.35.15-.6-.05-.65a1.51,1.51,0,0,0-1,.2A17.27,17.27,0,0,0,205.63,38c-1.37,1.54-4.56,5.47-7.2,9-2.4,3.23-4.46,6.06-5.93,8.2a38.15,38.15,0,0,1-4.26,5.61,3.44,3.44,0,0,1-2.36.8c-1,0-1.56-.55-1.56-1.34,0-1.05.83-2.64,1.86-4.18,2.59-3.92,4-6,6.76-9.78,2.35-3.28,7.84-10.53,10.34-13.66C201,34.81,198.87,36.85,198.33,37.35Z"/><path class="cls-6" d="M232.82,32.83c1.57,0,1.82.19,1.33.79-1,1.19-1.62,2-2.6,3.28a26.25,26.25,0,0,0-1.67,2.43c-.19.35-.19.75,0,.9s.79.1,1.23-.1a10.26,10.26,0,0,0,2.06-1.39c1-.85,1.91-1.64,2.4-2.09.14-.15.49-.45.63-.3s-.24.55-.44.75c-.59.59-2,1.84-2.94,2.58-2.1,1.64-3.33,2.19-4.9,2.19-1.27,0-2-.45-2.2-1.29a2.33,2.33,0,0,1,.44-1.74l0-.05c-1.27,1.14-3.67,3.08-6.27,3.08-1.76,0-2.94-.5-2.94-1.94a4.66,4.66,0,0,1,1.57-3l-.05-.05-.44.4c-.44.39-.69.49-.79.39s.05-.34.35-.64a13.69,13.69,0,0,1,1.91-1.54,18.71,18.71,0,0,1,3.48-1.89,12.83,12.83,0,0,1,4.75-1c1.62,0,1.91.89,1.86,1.59C230.81,32.83,230.91,32.83,232.82,32.83Zm-4.7.34c-.93,0-2.79,1.49-4.61,3.28s-2.74,3.28-2.69,3.93a.56.56,0,0,0,.64.49c.93,0,2.79-1.09,4.11-2.33,1.52-1.39,3.43-3.68,3.48-4.47s-.34-.9-.88-.9Z"/><path class="cls-6" d="M237.53,35.61c-.74.59-1.52,1.29-2,1.74-.34.29-.59.49-.74.34s.05-.34.35-.64a30.09,30.09,0,0,1,3.52-2.83,8.12,8.12,0,0,1,4.51-1.44c2,0,2.26.19,1.72.79-1.23,1.34-1.91,2.14-2.84,3.33a13.29,13.29,0,0,0-1.62,2.43c-.3.6-.34,1-.15,1.1s.54,0,1-.2a12.66,12.66,0,0,0,2.16-1.49c1-.85,1.51-1.34,2.3-2,.34-.3.54-.45.69-.3s-.1.35-.4.65c-.58.59-2.05,1.93-2.89,2.58A8.28,8.28,0,0,1,238,41.82c-1.67,0-2.16-.65-2.16-1.44a3.88,3.88,0,0,1,.69-1.89,20.43,20.43,0,0,1,4.16-4.82A11.67,11.67,0,0,0,237.53,35.61Zm10.09-9.69c1,0,1.42.75.64,1.79a5.73,5.73,0,0,1-3.38,2,3.17,3.17,0,0,1,0-2.44c.49-1.14,1.47-1.34,2.74-1.34Z"/><path class="cls-6" d="M255.51,32.58c1.62,0,2,1,1.81,1.69l.05,0c1.37-1.44,1.52-1.49,3.43-1.49,1.52,0,1.57.29,1.23.74-.89,1-1.62,2-2.6,3.33-.83,1.09-2.65,3.58-4.12,5.61A52.12,52.12,0,0,0,261,38.74c1-.8,2-1.64,2.45-2.09.19-.2.49-.35.59-.2s-.1.4-.49.75c-.64.59-1.72,1.49-2.94,2.43a64.53,64.53,0,0,1-5.88,3.83c-1.23,1.93-2.55,4-4.07,6.06a34.44,34.44,0,0,1-13.87,11.07,10.18,10.18,0,0,1-3.87.9c-1.91,0-2.74-.75-2.74-2.09,0-3,4.95-6.7,9.6-9.44s7.16-3.52,10.34-5.56c.93-1.24,2.84-4.17,3.63-5.36L253.7,39c-1.28,1.15-3.58,2.89-6,2.89-1.76,0-2.94-.5-2.94-1.94a5.24,5.24,0,0,1,1.57-3l-.05-.05-.44.4c-.39.34-.69.49-.78.39s0-.34.34-.64a14.48,14.48,0,0,1,1.91-1.54,19.37,19.37,0,0,1,3.48-1.89A12.87,12.87,0,0,1,255.51,32.58Zm-14.8,18c-4.11,2.78-7.69,6.21-7.93,8.79-.05.8.24,1.29.73,1.39A4.8,4.8,0,0,0,236.6,60c2.4-1.34,5.09-3.93,9-8.94,2-2.54,3.14-4.33,4.12-5.72C247.38,46.73,245.27,47.53,240.71,50.61ZM256,33.17c-.93,0-2.79,1.49-4.6,3.28s-2.75,3.28-2.7,3.93a.56.56,0,0,0,.64.49c.93,0,2.79-1.09,4.11-2.33,1.52-1.39,3.43-3.68,3.48-4.47s-.34-.9-.88-.9Z"/><path class="cls-6" d="M274.77,39.68a6.51,6.51,0,0,1,1.66-2.83c.69-.85,1.47-1.74,2-2.44.2-.24.2-.54-.1-.64a2.36,2.36,0,0,0-1.51.4,28.48,28.48,0,0,0-3.53,2.28c-2.31,1.69-3.58,2.73-5.64,4.42a4,4,0,0,1-2.45.65c-1.56.1-1.76-.1-1.47-.8A21.33,21.33,0,0,1,266,37.4c.83-1.1,1.52-1.89,2.1-2.74.2-.29.3-.54.1-.69s-.39,0-.78.2a16.8,16.8,0,0,0-1.72,1.24c-.73.59-1.71,1.44-2.2,1.89s-.69.54-.83.39,0-.24.34-.59c.68-.65,1.71-1.59,2.55-2.24,1.37-1.09,3.08-2.28,4.9-2.28,1.51,0,2,.59,2,1.34a4.37,4.37,0,0,1-1.08,2.18c-.74,1-1.52,1.94-2.26,2.84l.1.1c.88-.8,2.65-2.19,4.66-3.63,1.66-1.19,4.11-2.83,6.56-2.83,1.42,0,2.16.59,2.11,1.59s-1,2-1.77,3-1.17,1.49-1.47,2-.39,1-.09,1.15.78,0,1.22-.25a13.49,13.49,0,0,0,2-1.34c.69-.55,2-1.69,2.45-2.14.29-.25.44-.35.59-.2s.05.25-.15.45c-.59.55-2.25,2-3.23,2.78a9.26,9.26,0,0,1-4.8,2.09C274.91,41.77,274.62,40.58,274.77,39.68Z"/><path class="cls-6" d="M45.26,77.59l1.66.39-.16.53a36.63,36.63,0,0,1-2.17,11.07,19.34,19.34,0,0,1,2.84,2.78L45.57,94.9a20.93,20.93,0,0,0-2.36-2.52,14.29,14.29,0,0,1-4.73,4.86,10.78,10.78,0,0,0-1.86-2.5,11.1,11.1,0,0,0,4.27-4.35c-.47-.39-1-.73-1.43-1.1l-.2.84-2.54-1.34c.59-2.18,1.24-5.14,1.86-8.21h-2V77.67h2.59c.33-1.84.64-3.62.9-5.25l3.52.37c0,.24-.23.39-.67.42-.26,1.36-.55,2.88-.86,4.46h2.72Zm-3.83,3c-.41,2-.85,4-1.27,5.8.62.39,1.29.84,2,1.31a32.35,32.35,0,0,0,1.55-7.11Zm19.36,3.33v3h-5.7v6.77c0,2.6-.88,3.54-5.72,3.49a14.67,14.67,0,0,0-1.08-3.1c1,0,2,0,2.58,0,.88,0,1.09,0,1.09-.47V86.9H46.45v-3H52v-4l1,0a22.76,22.76,0,0,0,2.51-3.27h-8V73.73h10.3l.52-.15,2.41,1.47a1,1,0,0,1-.63.36,38.6,38.6,0,0,1-4.89,6v2.49Z"/><path class="cls-6" d="M72.45,76.78v2.49H62.23V76.78Zm-1,11v8H66v1H63.4V87.74Zm-8-4.88V80.47h8v2.39Zm0,3.6V84.09h8v2.37Zm8-13.22v2.38H63.58V73.24Zm-2.67,17H66v3H68.8Zm17.86-4.74v3h-5.8v8.68h-3V88.48H72v-3h5.77V76.65H73V73.71h13.2v2.94H80.86v8.84Zm-12.42-.9a30.38,30.38,0,0,0-1.06-6.21l2.48-.55A32.34,32.34,0,0,1,76.88,84Zm12.11-6.11c-.08.19-.31.32-.67.32a46.56,46.56,0,0,1-1.74,5.85c-.75-.24-1.6-.53-2.35-.74a41.71,41.71,0,0,0,1.5-6.32Z"/><path class="cls-6" d="M102.6,78.64a.87.87,0,0,1-.78.45c-1.06,9-3.65,14.16-8.1,14.16-2.82,0-4.86-2.41-4.86-6.87a11.56,11.56,0,0,1,11.87-11.65c7.33,0,11.08,4.41,11.08,10.1,0,6.16-3.13,9.36-9.65,11a17.92,17.92,0,0,0-2.07-2.78c5.9-1.18,8.25-4,8.25-8.21s-2.9-7.08-7.66-7.08a11.38,11.38,0,0,0-1.32.1Zm-4.12-.53A8.35,8.35,0,0,0,92,86.25c0,2.2.65,3.75,1.79,3.75C96.36,90,98,84.25,98.48,78.11Z"/><path class="cls-6" d="M129,79.48a26.86,26.86,0,0,1-4.48.89c0,1.23,0,2.49,0,3.59a19,19,0,0,1,4.94-.86c4.25,0,7.51,2.18,7.51,6.4,0,3.8-2.13,6.58-6.55,6.58a6.11,6.11,0,0,1-4.84-2.33,19.3,19.3,0,0,0,1.6-2.52A4.21,4.21,0,0,0,130.47,93c2.09,0,3.2-1.49,3.2-3.51s-1.5-3.6-4.27-3.6a17.79,17.79,0,0,0-4.86.9V92a4.35,4.35,0,0,1-4.71,4.54c-2.25,0-4.81-1.29-4.81-4.49,0-1.78,1.19-3.62,3.13-5.06a17.12,17.12,0,0,1,3.28-1.86V80.63c-1.7.11-3.62.13-5.72.13l0-3.14c2.15,0,4.07,0,5.77-.11V73.05l4.09.11c0,.31-.26.55-.67.6-.08,1-.13,2.23-.18,3.44a19.13,19.13,0,0,0,4-1Zm-7.61,8.63C119.93,89,118,90.21,118,92a1.75,1.75,0,1,0,3.49-.1C121.46,91.2,121.46,89.66,121.43,88.11ZM136,82a20.06,20.06,0,0,0-5.82-3.49l1.58-2.72a19.48,19.48,0,0,1,6.08,3.41Z"/><path class="cls-6" d="M149.3,76.78v2.49h-9.45V76.78Zm-.62,11v8h-5.15v1H141V87.74Zm-.05-7.27v2.39h-7.58V80.47Zm-7.58,6V84.09h7.58v2.37Zm7.53-13.22v2.38h-7.46V73.24Zm-2.49,17h-2.56v3h2.56Zm8.83,1.58,2.45-.45.24,2.62c-2.54.55-5.15,1.13-6.86,1.47a.5.5,0,0,1-.41.42l-1.14-3.12c.83-.1,1.78-.26,2.84-.45V85.9H150V83.15h6.91V85.9h-2Zm9.18-11.54h-3.83c.16,6.71.68,13.48,1.89,13.48.31,0,.52-1.71.7-3.52A9,9,0,0,0,164.7,92c-.31,3.46-1.45,5.11-2.9,5.11-3,0-4.19-5.25-4.53-16.86h-7.56V77.41h7.51c-.05-1.71-.05-3.39-.08-5l3.86.19c0,.28-.23.44-.75.55v.55l2-1a16.49,16.49,0,0,1,2.23,3.23l-2.23,1.26a17.13,17.13,0,0,0-2-3.17v3.41h3.85Z"/><path class="cls-6" d="M175.64,73.68c0,.32-.28.53-.78.61-.23,3.48-.49,9.62-.49,13.48,0,3.35,1.69,4.93,4.45,4.93,2.57,0,5.41-1.34,8.36-4.33a22.72,22.72,0,0,0,1.89,3c-3.23,3.26-6.65,4.78-10.27,4.78-5.75,0-8-3.18-8-8.34,0-3.52.18-11.12.36-14.3Z"/><path class="cls-6" d="M212.77,76.72V95h-3.39V93.62H194.32V90.5h15.06V79.85H194.53V76.72Z"/><path class="cls-6" d="M218.72,82.73h21.61V86H219.81a1.25,1.25,0,0,1-.88.49Z"/><path class="cls-6" d="M263.36,76.17a.8.8,0,0,1-.47.45,42.5,42.5,0,0,1-4.84,8.68,105.74,105.74,0,0,1,8.65,8.08L263.82,96a82.6,82.6,0,0,0-7.89-8,42.46,42.46,0,0,1-9.16,8,17.2,17.2,0,0,0-2.41-2.51,33.82,33.82,0,0,0,14-15.32H246.72V74.94h13.53l.55-.18Z"/><path class="cls-6" d="M394.09,80.6c-1.25-9.68-12.72-23.16-12.72-23.16-3-7.79-10.69-5.19-10.69-5.19l-5.16,1.4c-5.09,1.57-4.85,8.33-2.64,9.7,1,.59,3.82.76,4.65,0,.25-.23.05-1.33.05-1.33,5.42.3,5.81-2.88,5.81-2.88l1.84-.37c1.84-1,2.25,3.31,2.25,3.31-1.25,12.27,4,16.78,4,16.78a3,3,0,0,1-3.41,2c-8.39-4.41-14.6,3.94-14.6,3.94-4.76-4.09-14.53,3.16-14.53,3.16-5.49,1.1-5.8-5.59-5.8-5.59s-.26-4.26-.45-4.65c-.25-.67,1.18-.34,1.18-.34,4.82-8.89,0-7.7,0-7.7,1.17-15.36-12.11-12.12-12.11-12.12-10.21,2.82-6.47,13.13-6.47,13.13-2.25-.54-1.16,2.84-1.16,2.84.57,5.2,2.4,4,2.4,4a22.45,22.45,0,0,0,1.25,4.34l.15,4.16c-1.14,6.94-8.37,1.2-8.37,1.2-4.24-6-14.86-2.67-14.86-2.67C299.22,76.26,290.58,81,290.58,81c.92-2.06-.15-12.28-.15-12.28,1.07-1.27,3.23-8.43,3.23-8.43.92,1.27,5.07,1.5,5.07,1.5a3.91,3.91,0,0,0,1.66,2.67c2.82,1.18,1.66-8.19,1.66-8.19.73-3-4-3.7-4-3.7-8.24-2.3-10.14,3-10.14,3l-2.15,4.75c-3.06,3.38-8.81,15-8.81,15-3.32,9.21-.15,10.88-.15,10.88l6,4.69c10.14,10,16.26,8.52,16.26,8.52,8.15-.15,7.48,5.19,7.48,5.19.32,8.19,6,16.69,6,16.69.42,1.42.72,2.94,1,4.43h38.64a27.66,27.66,0,0,1,2.12-4.07c3.17-4.53,7.49-10.39,9.07-14.3,3.14-7.64,4.61-7.47,4.61-7.47a22.77,22.77,0,0,0,17.28-8.19c1.82-2.35,4.59-5.29,6.61-6.45a4.6,4.6,0,0,0,2.27-4.55Z"/><path class="cls-6" d="M91,118.28V101.91h2.54a13.11,13.11,0,0,1,3.23.29,4.34,4.34,0,0,1,2.31,1.45,3.86,3.86,0,0,1,.86,2.49,3.67,3.67,0,0,1-.39,1.7,4.3,4.3,0,0,1-1.27,1.43,5.07,5.07,0,0,1,2.15,1.75,4.51,4.51,0,0,1,.68,2.49,4.69,4.69,0,0,1-.7,2.52,4.53,4.53,0,0,1-1.82,1.69,6.8,6.8,0,0,1-3.06.56Zm3.07-13.39v3.45h.68a2.48,2.48,0,0,0,1.67-.48,1.67,1.67,0,0,0,.54-1.31,1.5,1.5,0,0,0-.52-1.21,2.34,2.34,0,0,0-1.57-.45Zm0,6.23v4.19h.77a4.72,4.72,0,0,0,2.59-.49,1.65,1.65,0,0,0,.66-1.42,2,2,0,0,0-.78-1.67,4.27,4.27,0,0,0-2.6-.61Z"/><path class="cls-6" d="M109.32,105.86a6.27,6.27,0,0,1,3.18.86,6.11,6.11,0,0,1,2.32,2.33,6.27,6.27,0,0,1,.84,3.17,6.4,6.4,0,0,1-.84,3.2,6.13,6.13,0,0,1-2.29,2.34,6.27,6.27,0,0,1-3.2.84,5.9,5.9,0,0,1-4.38-1.86,6.48,6.48,0,0,1,.23-9.23A6,6,0,0,1,109.32,105.86Zm.05,2.86a3,3,0,0,0-2.32,1,3.95,3.95,0,0,0,0,5.08,3,3,0,0,0,2.32,1,3.07,3.07,0,0,0,2.34-1,3.93,3.93,0,0,0,0-5.08A3.08,3.08,0,0,0,109.37,108.72Z"/><path class="cls-6" d="M126.92,101.5h3v16.78h-3V117a5.85,5.85,0,0,1-1.76,1.21,4.86,4.86,0,0,1-1.91.38,5.27,5.27,0,0,1-4-1.82,6.39,6.39,0,0,1-1.69-4.53,6.53,6.53,0,0,1,1.63-4.59,5.16,5.16,0,0,1,4-1.8,4.91,4.91,0,0,1,2,.42,5.33,5.33,0,0,1,1.74,1.23Zm-3.15,7.17a3,3,0,0,0-2.31,1,4,4,0,0,0,0,5.13,3,3,0,0,0,2.3,1,3.07,3.07,0,0,0,2.34-1,3.69,3.69,0,0,0,.93-2.61,3.55,3.55,0,0,0-.93-2.56A3.11,3.11,0,0,0,123.77,108.67Z"/><path class="cls-6" d="M131.62,106.18h3.06l3.11,7.59,3.42-7.59h3.07l-7.48,16.53h-3.09l2.45-5.33Z"/><path class="cls-6" d="M152.26,106.18h3v1.39a5.12,5.12,0,0,1,1.7-1.28,5,5,0,0,1,2-.43,3.77,3.77,0,0,1,2,.56,3.92,3.92,0,0,1,1.45,1.63,4.79,4.79,0,0,1,1.76-1.63,4.7,4.7,0,0,1,2.26-.56,4.21,4.21,0,0,1,2.25.61,3.51,3.51,0,0,1,1.39,1.57,8.48,8.48,0,0,1,.42,3.14v7.1h-3v-6.14a5.3,5.3,0,0,0-.51-2.79,1.72,1.72,0,0,0-1.51-.72,2.27,2.27,0,0,0-1.38.44,2.64,2.64,0,0,0-.9,1.23,7.63,7.63,0,0,0-.3,2.52v5.46h-3v-5.86a8.21,8.21,0,0,0-.24-2.35A2.07,2.07,0,0,0,159,109a1.8,1.8,0,0,0-1.14-.35,2.18,2.18,0,0,0-1.36.45,2.65,2.65,0,0,0-.91,1.26,8,8,0,0,0-.3,2.56v5.38h-3Z"/><path class="cls-6" d="M182.23,106.18h3v12.1h-3V117a6,6,0,0,1-1.76,1.21,4.86,4.86,0,0,1-1.91.38,5.31,5.31,0,0,1-4-1.82,6.44,6.44,0,0,1-1.69-4.53,6.53,6.53,0,0,1,1.64-4.59,5.16,5.16,0,0,1,4-1.8,4.86,4.86,0,0,1,2,.42,5.48,5.48,0,0,1,1.75,1.23Zm-3.15,2.49a3,3,0,0,0-2.31,1,4,4,0,0,0,0,5.13,3,3,0,0,0,2.3,1,3.07,3.07,0,0,0,2.34-1,3.69,3.69,0,0,0,.93-2.61,3.55,3.55,0,0,0-.93-2.56A3.11,3.11,0,0,0,179.08,108.67Z"/><path class="cls-6" d="M188.28,101.5h3v9.67l4.42-5h3.76l-5.14,5.8,5.76,6.3h-3.72l-5.08-5.58v5.58h-3Z"/><path class="cls-6" d="M213.26,113.11h-9.62a3.23,3.23,0,0,0,1.11,2,3.44,3.44,0,0,0,2.31.76,4,4,0,0,0,2.89-1.19l2.52,1.21a6,6,0,0,1-2.26,2,6.91,6.91,0,0,1-3.13.66,6.09,6.09,0,0,1-6.34-6.3,6.34,6.34,0,0,1,1.76-4.6,5.85,5.85,0,0,1,4.42-1.84,6.07,6.07,0,0,1,4.59,1.84,6.69,6.69,0,0,1,1.76,4.83Zm-3-2.39a3,3,0,0,0-1.17-1.65,3.4,3.4,0,0,0-2-.63,3.51,3.51,0,0,0-2.2.71,3.81,3.81,0,0,0-1.1,1.57Z"/></g></g></svg>