<svg xmlns="http://www.w3.org/2000/svg" xmlns:xlink="http://www.w3.org/1999/xlink" width="414" height="414" viewBox="0 0 414 414"><defs><style>.cls-1{fill:none;}.cls-2{clip-path:url(#clip-path);}.cls-3{fill:url(#linear-gradient);}.cls-4{fill:url(#新規グラデーションスウォッチ_1);}.cls-5{opacity:0.2;}.cls-6{clip-path:url(#clip-path-2);}.cls-10,.cls-7{fill:#fff;}.cls-7{fill-rule:evenodd;}.cls-8{opacity:0.3;}.cls-9{clip-path:url(#clip-path-3);}</style><clipPath id="clip-path"><path class="cls-1" d="M14.1,358.79V56.53c0-23.14,18.18-42.44,41.33-42.44H357.68c23.15,0,42.23,19.3,42.23,42.44V358.79c0,23.14-19.08,41.12-42.23,41.12H55.43c-23.15,0-41.33-18-41.33-41.12M55.43,0C24.55,0,0,25.65,0,56.53V358.79A54.91,54.91,0,0,0,55.43,414H357.68c30.88,0,56.32-24.33,56.32-55.21V56.53C414,25.65,388.56,0,357.68,0Z"/></clipPath><linearGradient id="linear-gradient" x1="-1152.68" y1="1805.44" x2="-1150.91" y2="1805.44" gradientTransform="matrix(235, 0, 0, -235, 270878.83, 424485.56)" gradientUnits="userSpaceOnUse"><stop offset="0" stop-color="#fff"/><stop offset="0.13" stop-color="#a2a4a7"/><stop offset="0.29" stop-color="#a2a4a7"/><stop offset="0.64" stop-color="#c3c5c7"/><stop offset="0.8" stop-color="#d9dbdc"/><stop offset="1" stop-color="#939598"/></linearGradient><linearGradient id="新規グラデーションスウォッチ_1" x1="14.1" y1="206.98" x2="399.87" y2="206.98" gradientUnits="userSpaceOnUse"><stop offset="0" stop-color="#2bc4f3"/><stop offset="0.5" stop-color="#00aeee"/><stop offset="1" stop-color="#0095da"/></linearGradient><clipPath id="clip-path-2"><rect class="cls-1" x="35.15" y="35.2" width="338.3" height="170.01"/></clipPath><clipPath id="clip-path-3"><rect class="cls-1" x="67.06" y="278.94" width="308.85" height="96.46"/></clipPath></defs><title>bn_otameshi</title><g id="レイヤー_2" data-name="レイヤー 2"><g id="レイヤー_1-2" data-name="レイヤー 1"><g class="cls-2"><rect class="cls-3" width="414" height="414"/></g><path class="cls-4" d="M55.42,14.09c-23.14,0-41.32,19.29-41.32,42.43V358.75c0,23.14,18.18,41.12,41.32,41.12H357.65c23.14,0,42.22-18,42.22-41.12V56.52c0-23.14-19.08-42.43-42.22-42.43Z"/><g class="cls-5"><g class="cls-6"><path class="cls-7" d="M35.24,205.21V57.11s-3-21.88,26-21.88H347.35s26.1-2.3,26.1,31v44.26s-239.57-4.73-338.21,94.69"/></g></g><g class="cls-8"><g class="cls-9"><path class="cls-7" d="M373.11,278.94s34.46,101.55-306,96.26H347.35s22.54-3.72,26.89-22.56-1.13-73.7-1.13-73.7"/></g></g><path class="cls-10" d="M100.62,34.46c5.12,0,8.93,2.19,10.88,5.11a30.3,30.3,0,0,1,4.38-.4c4.38-.08,10.14,1.54,9.74,6.08-.33,5.85-10,8.2-16.15,8.2-4.55,0-10.06-.73-13.23-3C91.13,55,87.07,61.73,87.07,66.68c0,4,1.71,7.71,8.44,7.38a23.86,23.86,0,0,0,11.36-4.46c1.87-1.3,3.57-2.92,5.2-4.3.73-.65,1.13-.81,1.29-.65s-.16.65-1.13,1.54a68.85,68.85,0,0,1-5.44,4.54A24.75,24.75,0,0,1,94.05,75.6c-8.44.65-14-2.19-14.28-8.6-.24-7.06,4.14-14,12.58-19.8a7.23,7.23,0,0,1-2-5.11c0-4.46,4.38-7.63,10.22-7.63Zm.08,1.14c-5,0-9.41,2.27-9.41,6.49A7,7,0,0,0,93,46.72a53.89,53.89,0,0,1,17-6.82c-1.3-2.11-5.28-4.3-9.17-4.3Zm8.93,17.12c5.19,0,11.44-2.27,12.17-7.79.25-3.49-2.43-5-6.08-5a17.73,17.73,0,0,0-3.9.4,12.66,12.66,0,0,1,1,4.47c.08,1.95-.25,3.08-.41,3s0-1-.24-2.52a11,11,0,0,0-1.71-4.54c-4.22,1.3-10.63,5.84-13.63,9.17,3,2,8.52,2.84,12.74,2.84Z"/><path class="cls-10" d="M136.81,58.89c2.6,0,3,.32,2.19,1.3-1.62,1.94-2.67,3.24-4.3,5.35a43.46,43.46,0,0,0-2.76,4c-.32.57-.32,1.21,0,1.46s1.3.16,2-.16a16.46,16.46,0,0,0,3.41-2.28c1.7-1.38,3.17-2.67,4-3.4.24-.25.81-.73,1-.49s-.4.89-.73,1.22c-1,1-3.33,3-4.87,4.22-3.49,2.67-5.52,3.57-8.11,3.57-2.11,0-3.33-.73-3.65-2.11a3.72,3.72,0,0,1,.73-2.84l-.08-.09c-2.11,1.87-6.09,5-10.39,5-2.92,0-4.87-.82-4.87-3.17,0-1.38.81-3,2.6-4.87l-.08-.08-.73.65c-.73.65-1.14.81-1.3.65s.08-.57.57-1.06a23.81,23.81,0,0,1,3.16-2.51,31.87,31.87,0,0,1,5.76-3.08,21.54,21.54,0,0,1,7.87-1.71c2.68,0,3.17,1.46,3.09,2.6C133.49,58.89,133.65,58.89,136.81,58.89Zm-7.79.57c-1.54,0-4.62,2.43-7.62,5.35s-4.55,5.36-4.47,6.41A.93.93,0,0,0,118,72c1.54,0,4.62-1.78,6.81-3.81,2.52-2.27,5.68-6,5.76-7.3.09-1.06-.56-1.46-1.46-1.46Z"/><path class="cls-10" d="M152.8,58.48c2.51,0,3.32,1,3.32,2.19s-1.05,2.6-1.78,3.57c-1.22,1.63-2.52,3.17-3.73,4.63l.16.16c1-.81,4-3.25,7.71-5.92,2.76-2,6.41-4.63,10.22-4.63,3.17,0,3.41,1.71,3.25,2.84s-1.14,2.76-2.6,4.63l-2.27,2.92.16.16c1.46-1.3,4.3-3.49,7.39-5.76,2.35-1.71,6.73-4.79,10.79-4.79,2.35,0,3.57,1,3.49,2.6-.16,1.46-1.63,3.33-2.92,5a36.75,36.75,0,0,0-2.44,3.24c-.57.9-.65,1.55-.16,1.87s1.3,0,2-.41a23.83,23.83,0,0,0,3.49-2.35c1.13-.89,3.08-2.6,3.89-3.33.49-.4.73-.56,1-.32s.08.41-.25.73c-1,.89-3.73,3.33-5.35,4.54-1.79,1.3-5,3.33-8,3.41-3.73.08-4.3-1.78-4.05-3.24s.81-2.36,2.76-4.71c1.13-1.38,2.35-2.84,3.24-4,.33-.4.33-.89-.16-1s-1.3.08-2.52.73A53.56,53.56,0,0,0,173.81,65c-3.73,2.76-5.92,4.47-9.25,7.23a9.46,9.46,0,0,1-4.05.89c-2.6.08-2.68-.25-2.28-1.3a41.52,41.52,0,0,1,4.31-6.33c1.21-1.62,2.35-3,2.92-4,.32-.48.24-.89-.09-1-.56-.24-1.7.32-2.43.73a57.58,57.58,0,0,0-5.36,3.65c-3.73,2.76-5.92,4.46-9.33,7.22-.89.73-1.94.9-4.05,1.06-2.6.16-2.93-.16-2.44-1.3a34.77,34.77,0,0,1,3.73-5.44c1.38-1.78,2.52-3.08,3.49-4.46.33-.49.49-.89.17-1.14s-.65,0-1.22.33a31.29,31.29,0,0,0-2.92,2c-1.22,1-2.84,2.35-3.65,3.08s-1.14.89-1.38.65c-.09-.16,0-.41.56-1,1.14-1.06,2.84-2.52,4.22-3.57S149.79,58.48,152.8,58.48Z"/><path class="cls-10" d="M192.64,66.27c-.73.65-.89.73-1.14.49s0-.49.41-.89c1.3-1.22,4.54-4.22,6.17-5.68,1.46-1.38,4.46-4.06,7.14-6.5a7.32,7.32,0,0,1,4.86-1.86c2-.08,2.76.4,1.38,2-4.62,5.6-13,16.23-20.77,26.86-7.22,9.65-9.09,12.33-14.52,20.85-.73,1.14-.65,1.46-.49,1.62s.65-.08,1-.48c1.06-1.22,4.06-5.44,6.41-8.77,1.63-2.35,5.44-7.38,9.34-12.58,3.24-4.38,6.65-8.68,9.73-12.33a48.17,48.17,0,0,1,7.14-7c2.28-1.62,5.12-3.57,8.6-3.57,2.84,0,4,1.22,3.74,2.76-.16,1.38-1.87,3.25-3.17,4.87a25.25,25.25,0,0,0-2.51,3.33c-.49.81-.57,1.38-.25,1.62s1.3.08,1.95-.24a22.32,22.32,0,0,0,3.57-2.28c1.46-1.13,3.17-2.67,3.9-3.32.4-.41.89-.81,1.13-.57s.08.49-.24.81c-1.06,1-3.57,3.25-5.36,4.54s-4.7,3.41-8.43,3.41c-2.36,0-3.49-1-3.58-2.43-.08-1.79,1.38-3.73,2.76-5.52,1.14-1.46,2.76-3.25,3.49-4.06.41-.57.25-1-.08-1a2.6,2.6,0,0,0-1.7.32,28.82,28.82,0,0,0-8.36,6.74c-2.27,2.51-7.55,8.92-11.93,14.77-4,5.27-7.38,9.9-9.82,13.39-2.59,3.81-5.52,7.87-7.06,9.16A5.69,5.69,0,0,1,172,106c-1.63,0-2.6-.89-2.6-2.19,0-1.7,1.38-4.3,3.08-6.81,4.31-6.41,6.66-9.82,11.2-16,3.9-5.36,13-17.2,17.12-22.31C197.1,62.13,193.53,65.46,192.64,66.27Z"/><path class="cls-10" d="M249.76,58.89c2.6,0,3,.32,2.19,1.3-1.62,1.94-2.67,3.24-4.3,5.35a41,41,0,0,0-2.75,4c-.33.57-.33,1.21,0,1.46s1.29.16,2-.16a16.2,16.2,0,0,0,3.41-2.28c1.71-1.38,3.17-2.67,4-3.4.24-.25.81-.73,1.05-.49s-.4.89-.73,1.22c-1,1-3.32,3-4.87,4.22-3.49,2.67-5.51,3.57-8.11,3.57-2.11,0-3.33-.73-3.65-2.11a3.72,3.72,0,0,1,.73-2.84l-.08-.09c-2.11,1.87-6.09,5-10.39,5-2.92,0-4.87-.82-4.87-3.17,0-1.38.81-3,2.6-4.87l-.08-.08-.73.65c-.73.65-1.14.81-1.3.65s.08-.57.57-1.06a23.81,23.81,0,0,1,3.16-2.51,31.87,31.87,0,0,1,5.76-3.08,21.54,21.54,0,0,1,7.87-1.71c2.68,0,3.17,1.46,3.09,2.6C246.44,58.89,246.6,58.89,249.76,58.89Zm-7.79.57c-1.54,0-4.62,2.43-7.62,5.35s-4.55,5.36-4.47,6.41a.93.93,0,0,0,1.06.81c1.54,0,4.62-1.78,6.81-3.81,2.52-2.27,5.68-6,5.77-7.3.08-1.06-.57-1.46-1.46-1.46Z"/><path class="cls-10" d="M257.55,63.43c-1.22,1-2.51,2.11-3.32,2.84-.57.49-1,.81-1.22.57s.08-.57.57-1.06a49.15,49.15,0,0,1,5.84-4.62,13.56,13.56,0,0,1,7.46-2.35c3.25,0,3.74.32,2.84,1.29-2,2.2-3.16,3.49-4.7,5.44a22.6,22.6,0,0,0-2.68,4c-.49,1-.57,1.54-.24,1.78s.89.08,1.7-.32a20.17,20.17,0,0,0,3.57-2.44c1.71-1.38,2.52-2.19,3.82-3.32.56-.49.89-.73,1.13-.49s-.16.57-.65,1A62.1,62.1,0,0,1,266.88,70c-2.67,2-5.19,3.57-8.6,3.57-2.76,0-3.57-1-3.57-2.35a6.2,6.2,0,0,1,1.14-3.08c1.62-2.76,5.68-7.22,6.9-7.87A19.44,19.44,0,0,0,257.55,63.43Zm16.72-15.82c1.7,0,2.35,1.22,1.05,2.92a9.44,9.44,0,0,1-5.6,3.24,5.17,5.17,0,0,1-.08-4c.81-1.87,2.44-2.19,4.55-2.19Z"/><path class="cls-10" d="M287.33,58.48c2.68,0,3.33,1.71,3,2.76l.09.08c2.27-2.35,2.51-2.43,5.68-2.43,2.51,0,2.59.48,2,1.21-1.46,1.71-2.67,3.33-4.3,5.44-1.37,1.79-4.38,5.84-6.81,9.17a86.57,86.57,0,0,0,9.41-6.17c1.7-1.29,3.25-2.67,4.06-3.4.32-.33.81-.57,1-.33s-.16.65-.81,1.22c-1.05,1-2.84,2.43-4.87,4A99.11,99.11,0,0,1,286,76.25c-2,3.17-4.22,6.58-6.73,9.9a57.08,57.08,0,0,1-23,18.1,17.22,17.22,0,0,1-6.41,1.46c-3.16,0-4.54-1.22-4.54-3.41,0-5,8.2-11,15.91-15.42s11.84-5.76,17.12-9.09c1.54-2,4.7-6.81,6-8.76l-.08-.08c-2.11,1.87-5.92,4.71-10,4.71-2.92,0-4.87-.82-4.87-3.17,0-1.38,1.14-3.33,2.6-4.87l-.08-.08s-.57.49-.73.65c-.65.57-1.14.81-1.3.65s.08-.57.57-1.06a25.32,25.32,0,0,1,3.16-2.51,31.87,31.87,0,0,1,5.76-3.08A21.54,21.54,0,0,1,287.33,58.48Zm-24.5,29.46c-6.82,4.54-12.74,10.14-13.15,14.36-.08,1.3.41,2.11,1.22,2.27,1.3.33,3.24-.32,5.11-1.38,4-2.19,8.44-6.41,14.85-14.6,3.33-4.14,5.19-7.06,6.82-9.34C273.86,81.61,270.37,82.91,262.83,87.94Zm25.23-28.48c-1.54,0-4.62,2.43-7.62,5.35s-4.55,5.36-4.47,6.41A.93.93,0,0,0,277,72c1.54,0,4.62-1.78,6.81-3.81,2.52-2.27,5.68-6,5.76-7.3.09-1.06-.56-1.46-1.46-1.46Z"/><path class="cls-10" d="M319.22,70.09c.24-1.38,1.06-2.52,2.76-4.63,1.14-1.38,2.43-2.84,3.25-4,.32-.4.32-.89-.17-1a4,4,0,0,0-2.51.65,47.94,47.94,0,0,0-5.84,3.73c-3.82,2.76-5.93,4.46-9.34,7.22-.89.73-1.94.9-4.05,1.06-2.6.16-2.92-.16-2.44-1.3a34.22,34.22,0,0,1,3.74-5.44c1.37-1.78,2.51-3.08,3.48-4.46.33-.49.49-.89.17-1.14s-.65-.08-1.3.33a31.22,31.22,0,0,0-2.84,2c-1.22,1-2.84,2.35-3.65,3.08s-1.14.89-1.38.65c-.08-.16,0-.41.56-1,1.14-1.06,2.84-2.6,4.22-3.66,2.28-1.78,5.12-3.73,8.12-3.73,2.51,0,3.25,1,3.25,2.19s-1.06,2.6-1.79,3.57c-1.22,1.63-2.52,3.17-3.73,4.63l.16.16c1.46-1.3,4.38-3.57,7.71-5.92,2.76-2,6.81-4.63,10.87-4.63,2.36,0,3.57,1,3.49,2.6-.08,1.46-1.62,3.33-2.92,5a34.25,34.25,0,0,0-2.43,3.24c-.57.9-.65,1.55-.17,1.87a2.54,2.54,0,0,0,2-.41,20.65,20.65,0,0,0,3.33-2.19c1.14-.89,3.24-2.76,4.06-3.49.48-.4.73-.56,1-.32s.08.41-.24.73c-1,.89-3.74,3.33-5.36,4.54-1.87,1.38-5,3.33-8,3.41C319.46,73.49,319,71.55,319.22,70.09Z"/><path class="cls-10" d="M146.62,133l.84,7.23-3.23.34-.79-7.18-8.72,1.15-.35-2.91,8.74-1.12-.52-4.34-7.1.91-.35-2.9,7.13-1-.52-4.49,3.95-.15c0,.25-.18.5-.65.62l.37,3.63,6.91-.92.35,3-6.91.9.5,4.32L155,129l.34,2.88Z"/><path class="cls-10" d="M178.14,127.38a.63.63,0,0,1-.4.25,22.61,22.61,0,0,1-4.45,6.8,10.44,10.44,0,0,0-2.06-1.44,18.42,18.42,0,0,0,3.06-4.12l-5,1.09,2.26,10.09-2.54.52-2.23-10-5.05,1.17-.57-2.33,5.14-1.12-1.16-4.92,3.25-.35c0,.27-.2.45-.5.6l.92,4.1,7.16-1.54.25-.15Z"/><path class="cls-10" d="M186.38,120.25a32.16,32.16,0,0,1,7.28,3.28L192,126.36a36.27,36.27,0,0,0-7.1-3.4Zm-.84,16.82c8.37-2.59,14.13-7.46,17-14.29a18.19,18.19,0,0,0,2.9,1.84c-3.08,6.78-9,12.07-17.24,15a.89.89,0,0,1-.42.65Z"/><path class="cls-10" d="M207.67,130.66c1.82-1.84,5.22-5.72,6.83-7.5a3.51,3.51,0,0,1,2.51-1.27,4.37,4.37,0,0,1,2.66,1.32,118,118,0,0,1,11.53,12.44l-2.66,2.56a111.56,111.56,0,0,0-10.31-12.12c-.52-.48-.82-.75-1.12-.75s-.57.3-1,.77c-.84,1-3.85,4.65-5.41,6.43a1,1,0,0,1-.33.87Zm18.76-12.32a2.7,2.7,0,0,1,0,5.39,2.7,2.7,0,1,1,0-5.39Zm1.74,2.68a1.75,1.75,0,0,0-1.74-1.77,1.77,1.77,0,1,0,0,3.53A1.74,1.74,0,0,0,228.17,121Z"/><path class="cls-10" d="M233.73,127.63h20.74v3.13h-19.7a1.22,1.22,0,0,1-.84.47Z"/><path class="cls-10" d="M260.9,120.25a32.16,32.16,0,0,1,7.28,3.28l-1.64,2.83a36.27,36.27,0,0,0-7.1-3.4Zm-.84,16.82c8.37-2.59,14.13-7.46,17-14.29a18.19,18.19,0,0,0,2.9,1.84c-3.08,6.78-9,12.07-17.24,15a.89.89,0,0,1-.42.65Z"/><path class="cls-10" d="M143.49,165.88l3.6.85-.33,1.13c-.68,9.57-2.14,17.45-4.73,23.76a42.58,42.58,0,0,1,6.19,6l-4.05,5.47a42.8,42.8,0,0,0-5.13-5.41,30.93,30.93,0,0,1-10.3,10.42,22.29,22.29,0,0,0-4.06-5.35,23.86,23.86,0,0,0,9.29-9.35c-1-.84-2.08-1.58-3.09-2.36l-.45,1.8-5.52-2.87c1.29-4.68,2.7-11,4.05-17.63h-4.44v-6.25h5.63c.73-3.94,1.4-7.77,2-11.26l7.65.79c-.05.51-.5.85-1.46.9-.56,2.93-1.18,6.2-1.86,9.57h5.91Zm-8.33,6.42c-.9,4.23-1.86,8.51-2.76,12.45,1.35.84,2.81,1.8,4.28,2.81a68.59,68.59,0,0,0,3.38-15.26Zm42.11,7.15v6.42H164.89V200.4c0,5.57-1.92,7.6-12.45,7.49a31,31,0,0,0-2.36-6.65c2.08.06,4.28.12,5.63.12,1.91,0,2.36,0,2.36-1V185.87h-12v-6.42h12v-8.67l2.09.12a50.81,50.81,0,0,0,5.46-7H148.11v-6.25h22.41l1.12-.34,5.24,3.15a2,2,0,0,1-1.35.79,85.18,85.18,0,0,1-10.64,12.89v5.35Z"/><path class="cls-10" d="M202.67,164.14v5.35H180.42v-5.35Zm-2.09,23.53V204.9H188.7v2.2H183V187.67ZM183.13,177.2v-5.12h17.51v5.12Zm0,7.72v-5.07h17.51v5.07Zm17.4-28.38v5.12H183.35v-5.12ZM194.73,193h-6v6.53h6Zm38.85-10.19v6.42H221v18.64h-6.64V189.25H201.76v-6.42h12.56v-19H203.79v-6.31h28.72v6.31H221v19Zm-27-1.91a64.55,64.55,0,0,0-2.31-13.35l5.41-1.18a69.82,69.82,0,0,1,2.64,13.23ZM232.9,167.8c-.17.39-.67.67-1.46.67A99.3,99.3,0,0,1,227.66,181c-1.63-.51-3.49-1.13-5.12-1.58a90,90,0,0,0,3.27-13.57Z"/><path class="cls-10" d="M268.26,168.14a1.88,1.88,0,0,1-1.69,1c-2.31,19.26-7.94,30.41-17.62,30.41-6.14,0-10.59-5.18-10.59-14.75,0-14.42,11.49-25,25.85-25,15.93,0,24.09,9.46,24.09,21.67,0,13.24-6.81,20.11-21,23.71a37.76,37.76,0,0,0-4.5-6c12.84-2.53,18-8.67,18-17.62s-6.31-15.21-16.67-15.21a24.33,24.33,0,0,0-2.87.23ZM259.31,167a18,18,0,0,0-14,17.46c0,4.72,1.41,8.05,3.88,8.05C254.69,192.52,258.35,180.19,259.31,167Z"/><path class="cls-10" d="M72.43,231.21a57.74,57.74,0,0,1-9.74,1.91c0,2.65,0,5.35,0,7.72A41.28,41.28,0,0,1,73.39,239c9.24,0,16.33,4.67,16.33,13.74,0,8.16-4.62,14.13-14.24,14.13a13.34,13.34,0,0,1-10.53-5,41,41,0,0,0,3.49-5.4c2.08,2.53,4.5,3.82,7.09,3.82,4.56,0,7-3.21,7-7.54,0-4.51-3.26-7.71-9.29-7.71a38.52,38.52,0,0,0-10.58,1.91v11.15c0,5.18-3.32,9.74-10.25,9.74-4.9,0-10.47-2.76-10.47-9.63,0-3.83,2.59-7.77,6.81-10.87a37.68,37.68,0,0,1,7.15-4v-9.63c-3.72.22-7.88.28-12.44.28l-.11-6.76c4.67,0,8.83-.05,12.55-.22v-9.57l8.9.22c0,.68-.57,1.18-1.47,1.3-.17,2.19-.28,4.78-.39,7.37a40.83,40.83,0,0,0,8.61-2.08ZM55.88,249.73c-3.26,2-7.54,4.51-7.54,8.28a3.47,3.47,0,0,0,3.82,3.77c2.31,0,3.78-1.29,3.78-4C55.94,256.38,55.94,253.06,55.88,249.73Zm31.7-13.06a43.74,43.74,0,0,0-12.67-7.49l3.44-5.85a43,43,0,0,1,13.23,7.32Z"/><path class="cls-10" d="M116.52,225.41v5.35H96v-5.35ZM115.17,249v17.23H104v2.19H98.39V249Zm-.11-15.6v5.12H98.56v-5.12Zm-16.5,12.84v-5.07h16.5v5.07Zm16.38-28.38v5.12H98.73v-5.12Zm-5.4,36.49H104v6.53h5.58Zm19.2,3.37,5.35-.95.5,5.63c-5.51,1.18-11.2,2.42-14.92,3.15a1.06,1.06,0,0,1-.9.9l-2.48-6.7c1.81-.22,3.89-.56,6.2-1V245H118v-5.92h15V245h-4.28Zm20-24.77h-8.34c.34,14.41,1.47,28.94,4.11,28.94.68,0,1.13-3.66,1.52-7.54a19.33,19.33,0,0,0,4,3.82c-.67,7.44-3.15,11-6.3,11-6.54,0-9.13-11.26-9.86-36.2H117.42v-6.14h16.33c-.11-3.66-.11-7.26-.17-10.7l8.39.4c-.06.62-.51,1-1.63,1.18v1.18l4.28-2.19a35.27,35.27,0,0,1,4.84,6.92l-4.84,2.71a37.08,37.08,0,0,0-4.28-6.82v7.32h8.39Z"/><path class="cls-10" d="M173.84,218.77c-.12.67-.62,1.12-1.69,1.29-.51,7.49-1.07,20.67-1.07,28.94,0,7.21,3.66,10.59,9.68,10.59,5.58,0,11.77-2.87,18.19-9.29a47.27,47.27,0,0,0,4.11,6.36c-7,7-14.47,10.25-22.35,10.25-12.5,0-17.34-6.82-17.34-17.91,0-7.54.39-23.87.78-30.68Z"/><path class="cls-10" d="M254.63,225.3v39.13h-7.37v-2.87H214.49v-6.7h32.77V232H214.94v-6.7Z"/><path class="cls-10" d="M267.58,238.19h47v7.1H270a2.77,2.77,0,0,1-1.92,1.07Z"/><path class="cls-10" d="M364.71,224.12a1.71,1.71,0,0,1-1,.95,90.83,90.83,0,0,1-10.53,18.64A224.94,224.94,0,0,1,372,261.05l-6.25,5.52a177.64,177.64,0,0,0-17.17-17.29c-5.29,6-12.61,12.84-19.93,17.23a36.45,36.45,0,0,0-5.24-5.4c14-7.6,25.45-21.12,30.52-32.88H328.5v-6.76H358l1.18-.39Z"/><path class="cls-10" d="M324.09,312.55c-1.25-9.55-12.72-22.84-12.72-22.84-3-7.69-10.69-5.13-10.69-5.13L295.52,286c-5.09,1.55-4.85,8.23-2.64,9.57,1,.59,3.82.76,4.65,0,.25-.22.05-1.31.05-1.31,5.42.3,5.81-2.84,5.81-2.84l1.84-.37c1.84-1,2.25,3.27,2.25,3.27-1.25,12.11,4,16.55,4,16.55-.76,2.42-3.41,1.94-3.41,1.94-8.39-4.35-14.6,3.89-14.6,3.89-4.76-4-14.53,3.11-14.53,3.11-5.49,1.09-5.8-5.51-5.8-5.51s-.26-4.2-.45-4.59c-.25-.66,1.18-.33,1.18-.33,4.82-8.78,0-7.6,0-7.6,1.17-15.15-12.11-12-12.11-12-10.21,2.78-6.47,13-6.47,13-2.25-.54-1.16,2.8-1.16,2.8.57,5.13,2.4,4,2.4,4a21.83,21.83,0,0,0,1.25,4.27l.15,4.11c-1.14,6.84-8.37,1.18-8.37,1.18-4.24-6-14.86-2.63-14.86-2.63-5.48-8.17-14.12-3.51-14.12-3.51.92-2-.15-12.11-.15-12.11,1.07-1.25,3.23-8.31,3.23-8.31.92,1.25,5.07,1.47,5.07,1.47a3.83,3.83,0,0,0,1.66,2.64c2.82,1.16,1.66-8.07,1.66-8.07.73-2.95-4-3.66-4-3.66-8.24-2.26-10.14,2.94-10.14,2.94l-2.15,4.68c-3.06,3.34-8.81,14.75-8.81,14.75-3.32,9.08-.15,10.72-.15,10.72l6,4.63C222.92,332.44,229,331,229,331c8.15-.15,7.48,5.12,7.48,5.12.32,8.08,6,16.47,6,16.47.42,1.4.72,2.89,1,4.36h38.64a27.65,27.65,0,0,1,2.12-4c3.17-4.47,7.49-10.25,9.07-14.11,3.14-7.54,4.61-7.37,4.61-7.37a22.87,22.87,0,0,0,17.28-8.07c1.82-2.33,4.59-5.22,6.61-6.37a4.52,4.52,0,0,0,2.27-4.49Z"/><path class="cls-10" d="M55,302.69V286.54h2.54a13.11,13.11,0,0,1,3.23.29,4.3,4.3,0,0,1,2.31,1.42,3.78,3.78,0,0,1,.86,2.46,3.59,3.59,0,0,1-.39,1.68,4.35,4.35,0,0,1-1.27,1.41,5,5,0,0,1,2.15,1.73,4.39,4.39,0,0,1,.68,2.45,4.56,4.56,0,0,1-.7,2.48,4.51,4.51,0,0,1-1.82,1.68,7,7,0,0,1-3.06.55Zm3.07-13.22v3.41h.68a2.44,2.44,0,0,0,1.66-.48,1.58,1.58,0,0,0,.55-1.28,1.47,1.47,0,0,0-.52-1.2,2.34,2.34,0,0,0-1.57-.45Zm0,6.15v4.14h.77a4.83,4.83,0,0,0,2.59-.48,1.65,1.65,0,0,0,.66-1.41,2,2,0,0,0-.78-1.65,4.35,4.35,0,0,0-2.6-.6Z"/><path class="cls-10" d="M73.32,290.44a6.36,6.36,0,0,1,3.18.84,6.24,6.24,0,0,1,3.16,5.43,6.28,6.28,0,0,1-.84,3.16,6.09,6.09,0,0,1-2.29,2.3,6.36,6.36,0,0,1-3.2.83A5.94,5.94,0,0,1,69,301.17a6.34,6.34,0,0,1,.23-9.11A6,6,0,0,1,73.32,290.44Zm.05,2.82a3,3,0,0,0-2.32,1,3.85,3.85,0,0,0,0,5,3,3,0,0,0,2.32,1,3.1,3.1,0,0,0,2.34-1,3.84,3.84,0,0,0,0-5A3.11,3.11,0,0,0,73.37,293.26Z"/><path class="cls-10" d="M90.92,286.13h3v16.56h-3v-1.26a6.13,6.13,0,0,1-1.76,1.2,5,5,0,0,1-1.91.37,5.32,5.32,0,0,1-4-1.8,6.26,6.26,0,0,1-1.68-4.46,6.39,6.39,0,0,1,1.63-4.53,5.2,5.2,0,0,1,4-1.77,5.06,5.06,0,0,1,2,.4,5.62,5.62,0,0,1,1.74,1.22Zm-3.15,7.07a3,3,0,0,0-2.31,1,3.91,3.91,0,0,0,0,5.06,3,3,0,0,0,2.3,1,3.07,3.07,0,0,0,2.34-1,3.57,3.57,0,0,0,.93-2.57,3.49,3.49,0,0,0-.93-2.53A3.14,3.14,0,0,0,87.77,293.2Z"/><path class="cls-10" d="M95.62,290.75h3.07l3.1,7.49,3.42-7.49h3.07l-7.48,16.31H97.71l2.45-5.26Z"/><path class="cls-10" d="M116.26,290.75h3v1.37a5,5,0,0,1,1.71-1.26,5,5,0,0,1,2.05-.42,3.76,3.76,0,0,1,2,.55,3.9,3.9,0,0,1,1.45,1.6,4.79,4.79,0,0,1,1.76-1.6,4.69,4.69,0,0,1,2.26-.55,4.29,4.29,0,0,1,2.25.59,3.51,3.51,0,0,1,1.39,1.55,8.34,8.34,0,0,1,.42,3.11v7h-3v-6.06a5.15,5.15,0,0,0-.51-2.75,1.72,1.72,0,0,0-1.51-.72,2.34,2.34,0,0,0-1.38.44,2.58,2.58,0,0,0-.9,1.21,7.5,7.5,0,0,0-.3,2.49v5.39h-3V296.9a8.06,8.06,0,0,0-.24-2.32,2,2,0,0,0-.71-1.07,1.86,1.86,0,0,0-1.14-.35,2.24,2.24,0,0,0-1.36.45,2.59,2.59,0,0,0-.91,1.24,7.76,7.76,0,0,0-.31,2.53v5.31h-3Z"/><path class="cls-10" d="M146.23,290.75h3v11.94h-3v-1.26a6.13,6.13,0,0,1-1.76,1.2,5.05,5.05,0,0,1-1.92.37,5.31,5.31,0,0,1-4-1.8,6.27,6.27,0,0,1-1.69-4.46,6.4,6.4,0,0,1,1.64-4.53,5.2,5.2,0,0,1,4-1.77,5,5,0,0,1,2,.4,5.78,5.78,0,0,1,1.75,1.22Zm-3.15,2.45a3,3,0,0,0-2.31,1,3.91,3.91,0,0,0,0,5.06,3,3,0,0,0,2.3,1,3.07,3.07,0,0,0,2.34-1,3.57,3.57,0,0,0,.93-2.57,3.49,3.49,0,0,0-.93-2.53A3.14,3.14,0,0,0,143.08,293.2Z"/><path class="cls-10" d="M152.28,286.13h3v9.54l4.42-4.92h3.76l-5.14,5.72,5.76,6.22h-3.72l-5.08-5.5v5.5h-3Z"/><path class="cls-10" d="M177.26,297.58h-9.62a3.18,3.18,0,0,0,1.11,2,3.49,3.49,0,0,0,2.31.75,4,4,0,0,0,2.89-1.17l2.52,1.18a5.82,5.82,0,0,1-2.26,2,7,7,0,0,1-3.13.65,6.17,6.17,0,0,1-4.58-1.78,6.05,6.05,0,0,1-1.76-4.44,6.23,6.23,0,0,1,1.76-4.54,5.93,5.93,0,0,1,4.42-1.8,6.15,6.15,0,0,1,4.59,1.8,6.53,6.53,0,0,1,1.76,4.77Zm-3-2.36a3,3,0,0,0-1.18-1.62,3.35,3.35,0,0,0-2-.63,3.58,3.58,0,0,0-2.2.71,3.82,3.82,0,0,0-1.1,1.54Z"/><path class="cls-1" d="M55.43,0C24.55,0,0,25.65,0,56.53V358.79A54.91,54.91,0,0,0,55.43,414H357.68c30.88,0,56.32-24.33,56.32-55.21V56.53C414,25.65,388.56,0,357.68,0Z"/></g></g></svg>