<svg xmlns="http://www.w3.org/2000/svg" xmlns:xlink="http://www.w3.org/1999/xlink" width="414" height="55" viewBox="0 0 414 55"><defs><style>.cls-1{fill:#f58466;}.cls-2{fill:url(#GradientFill_1);}.cls-3{fill:#ccc;}.cls-4{fill:#fff;}</style><linearGradient id="GradientFill_1" x1="278" y1="55" x2="278" gradientUnits="userSpaceOnUse"><stop offset="0" stop-color="#231f20"/><stop offset="1" stop-color="#808284"/></linearGradient></defs><title>bn_sleep_sm</title><g id="レイヤー_2" data-name="レイヤー 2"><g id="レイヤー_1-2" data-name="レイヤー 1"><path class="cls-1" d="M10,0H135a0,0,0,0,1,0,0V55a0,0,0,0,1,0,0H10A10,10,0,0,1,0,45V10A10,10,0,0,1,10,0Z"/><path class="cls-2" d="M142,0H404a10,10,0,0,1,10,10V45a10,10,0,0,1-10,10H142a0,0,0,0,1,0,0V0A0,0,0,0,1,142,0Z"/><path class="cls-3" d="M220.39,44.8V32.63h5.4a7.12,7.12,0,0,1,2.47.33,2.73,2.73,0,0,1,1.36,1.16,3.53,3.53,0,0,1,.5,1.84,3.05,3.05,0,0,1-.84,2.18,4.25,4.25,0,0,1-2.59,1.13,3.89,3.89,0,0,1,1,.6A8.26,8.26,0,0,1,229,41.49l2.12,3.31h-2l-1.61-2.53c-.47-.73-.86-1.29-1.16-1.68a3.83,3.83,0,0,0-.82-.81,2.46,2.46,0,0,0-.73-.32,4.75,4.75,0,0,0-.9-.06H222v5.4ZM222,38h3.46a5.27,5.27,0,0,0,1.73-.22,1.91,1.91,0,0,0,.95-.73,2,2,0,0,0,.32-1.09,1.8,1.8,0,0,0-.63-1.42,2.91,2.91,0,0,0-2-.56H222Z"/><path class="cls-3" d="M238.49,42l1.54.2a3.75,3.75,0,0,1-1.35,2.1,4.12,4.12,0,0,1-2.52.74,4,4,0,0,1-3.07-1.19A4.63,4.63,0,0,1,232,40.47,4.88,4.88,0,0,1,233.1,37a3.89,3.89,0,0,1,3-1.23A3.78,3.78,0,0,1,239,37a4.77,4.77,0,0,1,1.12,3.39c0,.09,0,.22,0,.4H233.5a3.4,3.4,0,0,0,.82,2.22,2.42,2.42,0,0,0,1.84.77,2.29,2.29,0,0,0,1.41-.43A2.91,2.91,0,0,0,238.49,42Zm-4.91-2.41h4.93a3,3,0,0,0-.57-1.67,2.3,2.3,0,0,0-1.85-.86,2.37,2.37,0,0,0-1.73.69A2.71,2.71,0,0,0,233.58,39.55Z"/><path class="cls-3" d="M241.31,42.17l1.48-.23a2,2,0,0,0,.69,1.36,3,3,0,0,0,3.12.06,1.27,1.27,0,0,0,.5-1,.9.9,0,0,0-.44-.79,6.07,6.07,0,0,0-1.53-.51,14.2,14.2,0,0,1-2.28-.72,2.19,2.19,0,0,1-1.29-2,2.26,2.26,0,0,1,.27-1.09,2.37,2.37,0,0,1,.73-.84,3.24,3.24,0,0,1,.95-.43,4.59,4.59,0,0,1,1.3-.18,5.11,5.11,0,0,1,1.82.3,2.51,2.51,0,0,1,1.16.81,3.2,3.2,0,0,1,.51,1.36l-1.46.2a1.6,1.6,0,0,0-.58-1.06,2.09,2.09,0,0,0-1.35-.38,2.45,2.45,0,0,0-1.47.34,1,1,0,0,0-.44.8.85.85,0,0,0,.19.52,1.34,1.34,0,0,0,.57.4c.15.05.59.18,1.32.38a18,18,0,0,1,2.21.69,2.09,2.09,0,0,1,1.34,2.06,2.51,2.51,0,0,1-.43,1.41,2.8,2.8,0,0,1-1.26,1,4.61,4.61,0,0,1-1.86.36,4.17,4.17,0,0,1-2.62-.71A3.35,3.35,0,0,1,241.31,42.17Z"/><path class="cls-3" d="M253.67,43.47l.22,1.32a5.44,5.44,0,0,1-1.13.13,2.55,2.55,0,0,1-1.26-.26,1.4,1.4,0,0,1-.63-.67,5.1,5.1,0,0,1-.19-1.77V37.15h-1.09V36h1.09V33.81l1.49-.9V36h1.5v1.16h-1.5v5.16a2.42,2.42,0,0,0,.08.82.64.64,0,0,0,.25.29,1,1,0,0,0,.52.11A4.7,4.7,0,0,0,253.67,43.47Z"/><path class="cls-3" d="M265.61,43.72a5.58,5.58,0,0,1-1.6,1,4.48,4.48,0,0,1-1.65.29,3.16,3.16,0,0,1-2.23-.71,2.32,2.32,0,0,1-.78-1.81,2.45,2.45,0,0,1,.29-1.18,2.4,2.4,0,0,1,.78-.86,3.38,3.38,0,0,1,1.07-.49,11.57,11.57,0,0,1,1.33-.23,13.42,13.42,0,0,0,2.66-.51c0-.21,0-.34,0-.39a1.67,1.67,0,0,0-.42-1.29,2.48,2.48,0,0,0-1.7-.5,2.6,2.6,0,0,0-1.56.37,2.25,2.25,0,0,0-.74,1.3l-1.46-.2a3.62,3.62,0,0,1,.65-1.51,2.91,2.91,0,0,1,1.32-.89,5.84,5.84,0,0,1,2-.31,5.53,5.53,0,0,1,1.84.26,2.39,2.39,0,0,1,1,.67,2.29,2.29,0,0,1,.47,1,8.49,8.49,0,0,1,.07,1.38v2a21.66,21.66,0,0,0,.1,2.64,3.16,3.16,0,0,0,.38,1h-1.56A3,3,0,0,1,265.61,43.72Zm-.13-3.34a10.69,10.69,0,0,1-2.44.56,5.7,5.7,0,0,0-1.3.3,1.3,1.3,0,0,0-.59.49,1.31,1.31,0,0,0,.24,1.7,2,2,0,0,0,1.33.4,3.07,3.07,0,0,0,1.53-.37,2.36,2.36,0,0,0,1-1,3.6,3.6,0,0,0,.24-1.49Z"/><path class="cls-3" d="M269.31,44.8V36h1.34v1.25a3.18,3.18,0,0,1,2.81-1.45,3.57,3.57,0,0,1,1.47.29,2.38,2.38,0,0,1,1,.75,2.88,2.88,0,0,1,.46,1.1,8.16,8.16,0,0,1,.08,1.45V44.8H275V39.44a3.86,3.86,0,0,0-.18-1.36,1.4,1.4,0,0,0-.61-.73,2,2,0,0,0-1.05-.27,2.43,2.43,0,0,0-1.64.61,3,3,0,0,0-.7,2.3V44.8Z"/><path class="cls-3" d="M284.48,44.8V43.69A2.73,2.73,0,0,1,282,45a3.45,3.45,0,0,1-1.94-.58,3.83,3.83,0,0,1-1.37-1.62,5.68,5.68,0,0,1-.49-2.4,6.32,6.32,0,0,1,.44-2.39A3.53,3.53,0,0,1,280,36.36a3.57,3.57,0,0,1,2-.57A2.89,2.89,0,0,1,284.38,37V32.63h1.49V44.8Zm-4.72-4.4a3.89,3.89,0,0,0,.71,2.54,2.15,2.15,0,0,0,1.69.83,2.08,2.08,0,0,0,1.66-.8,3.66,3.66,0,0,0,.69-2.44,4.13,4.13,0,0,0-.7-2.66,2.15,2.15,0,0,0-1.72-.84,2.06,2.06,0,0,0-1.66.81A4,4,0,0,0,279.76,40.4Z"/><path class="cls-3" d="M292.58,40.89l1.52-.13a3.37,3.37,0,0,0,.51,1.5,2.8,2.8,0,0,0,1.22,1,4.65,4.65,0,0,0,1.87.36,4.39,4.39,0,0,0,1.63-.28,2.23,2.23,0,0,0,1.05-.75,1.79,1.79,0,0,0,.34-1,1.6,1.6,0,0,0-.33-1,2.48,2.48,0,0,0-1.1-.72,21.24,21.24,0,0,0-2.16-.59,10.84,10.84,0,0,1-2.35-.76,3.32,3.32,0,0,1-1.3-1.13,2.77,2.77,0,0,1-.43-1.52,3.07,3.07,0,0,1,.52-1.72,3.24,3.24,0,0,1,1.53-1.22,5.9,5.9,0,0,1,2.23-.41,6.14,6.14,0,0,1,2.39.43,3.41,3.41,0,0,1,1.59,1.29,3.69,3.69,0,0,1,.6,1.91l-1.55.12a2.46,2.46,0,0,0-.84-1.74,3.25,3.25,0,0,0-2.12-.59,3.47,3.47,0,0,0-2.13.53,1.6,1.6,0,0,0-.67,1.29,1.37,1.37,0,0,0,.48,1.08,6.44,6.44,0,0,0,2.42.87,15.69,15.69,0,0,1,2.7.78,3.65,3.65,0,0,1,1.57,1.24,3.06,3.06,0,0,1,.5,1.73,3.34,3.34,0,0,1-.55,1.83,3.64,3.64,0,0,1-1.6,1.33,5.58,5.58,0,0,1-2.35.48,7.05,7.05,0,0,1-2.77-.48,3.89,3.89,0,0,1-1.75-1.45A4.19,4.19,0,0,1,292.58,40.89Z"/><path class="cls-3" d="M304.25,44.8V32.63h1.49V44.8Z"/><path class="cls-3" d="M314.09,42l1.55.2a3.82,3.82,0,0,1-1.36,2.1,4.12,4.12,0,0,1-2.52.74,4,4,0,0,1-3.07-1.19,4.67,4.67,0,0,1-1.13-3.34A4.84,4.84,0,0,1,308.71,37a3.86,3.86,0,0,1,3-1.23,3.78,3.78,0,0,1,2.89,1.2,4.81,4.81,0,0,1,1.12,3.39c0,.09,0,.22,0,.4H309.1a3.35,3.35,0,0,0,.83,2.22,2.41,2.41,0,0,0,1.84.77,2.26,2.26,0,0,0,1.4-.43A2.77,2.77,0,0,0,314.09,42Zm-4.9-2.41h4.92a3,3,0,0,0-.57-1.67,2.29,2.29,0,0,0-1.85-.86,2.38,2.38,0,0,0-1.73.69A2.75,2.75,0,0,0,309.19,39.55Z"/><path class="cls-3" d="M323.55,42l1.54.2a3.75,3.75,0,0,1-1.35,2.1,4.13,4.13,0,0,1-2.53.74,4,4,0,0,1-3.06-1.19A4.63,4.63,0,0,1,317,40.47,4.89,4.89,0,0,1,318.16,37a3.86,3.86,0,0,1,3-1.23A3.78,3.78,0,0,1,324,37a4.77,4.77,0,0,1,1.12,3.39c0,.09,0,.22,0,.4h-6.57a3.35,3.35,0,0,0,.82,2.22,2.42,2.42,0,0,0,1.84.77,2.29,2.29,0,0,0,1.41-.43A2.91,2.91,0,0,0,323.55,42Zm-4.91-2.41h4.92a3,3,0,0,0-.56-1.67,2.3,2.3,0,0,0-1.85-.86,2.35,2.35,0,0,0-1.73.69A2.71,2.71,0,0,0,318.64,39.55Z"/><path class="cls-3" d="M327,48.18V36h1.36v1.14a3.46,3.46,0,0,1,1.09-1,3,3,0,0,1,1.46-.33,3.48,3.48,0,0,1,2,.58,3.57,3.57,0,0,1,1.3,1.64,6,6,0,0,1,.44,2.32,5.84,5.84,0,0,1-.49,2.44,3.66,3.66,0,0,1-1.41,1.66,3.62,3.62,0,0,1-1.94.57,2.79,2.79,0,0,1-1.34-.31,3.1,3.1,0,0,1-1-.8v4.29Zm1.35-7.73A3.82,3.82,0,0,0,329,43a2.11,2.11,0,0,0,1.67.81,2.15,2.15,0,0,0,1.7-.84,4,4,0,0,0,.71-2.61,3.91,3.91,0,0,0-.69-2.52,2.08,2.08,0,0,0-1.66-.84,2.17,2.17,0,0,0-1.69.89A4,4,0,0,0,328.32,40.45Z"/><path class="cls-4" d="M241.8,16.3a5,5,0,0,0-.8.07V14.62a11.85,11.85,0,0,0,1.68.08h2.13V13.43c-.29,0-.55.05-.68.05-1,.1-1,.1-2.53.17a8.2,8.2,0,0,0-.68-1.45c3.38,0,7-.59,8.41-1.26l1.17,1.59-.59.11c-1.18.24-2.33.45-3.4.6V14.7H249a13.42,13.42,0,0,0,1.67-.08v1.75a7.64,7.64,0,0,0-1-.07v1.58a10.24,10.24,0,0,0,1.43-.07V19.6a8,8,0,0,0-1.43-.09v1.8a7.24,7.24,0,0,0,1,0V23a13.91,13.91,0,0,0-1.62-.07h-2.56v1.58h2.58a17.29,17.29,0,0,0,1.84-.08v1.82a13.82,13.82,0,0,0-1.89-.11h-6.29a13.72,13.72,0,0,0-1.89.11V24.39a12.65,12.65,0,0,0,1.7.1h2.25V22.91h-2.23A12.2,12.2,0,0,0,241,23V21.26c.24,0,.39,0,.8,0v-1.8h-1.33v4.27c0,.63,0,1,.05,1.37H239v-.74h-1.5V26h-1.68c.05-.61.07-1.19.07-1.9V13.43a14.88,14.88,0,0,0-.07-1.7c.29,0,.7,0,1.33,0h2c.65,0,1.06,0,1.36,0,0,.34-.05.71-.05,1.63v4.52h1.33Zm-4.37-.87H239v-2h-1.53Zm0,3.59H239V16.94h-1.53Zm0,3.77H239V20.53h-1.53Zm7.38-4.91V16.3h-1.36v1.58Zm-1.36,3.43h1.36v-1.8h-1.36ZM248,17.88V16.3h-1.49v1.58Zm-1.49,3.43H248v-1.8h-1.49Z"/><path class="cls-4" d="M260.79,20.4v3.87a29.26,29.26,0,0,0,2.9-.8v1.68c-2.09.67-2.19.68-4.92,1.36l-.82.21-.29-1.51h-1.22v-.68h-1.75V26h-1.77a14.17,14.17,0,0,0,.08-1.89V13.77a18.6,18.6,0,0,0-.07-1.89c.33,0,.67,0,1.31,0h2.52c.56,0,1,0,1.29,0,0,.37-.05,1-.05,1.73v10c0,.53,0,.84,0,1.18a8.7,8.7,0,0,0,1-.16V13.53c0-.75,0-1.24-.06-1.8a14.49,14.49,0,0,0,1.63.06h5a9.91,9.91,0,0,0,1.58-.08c0,.32-.05,1-.05,1.65V15.5c0,.65,0,1.24.05,1.48a13.5,13.5,0,0,0-1.5-.07h-1.12a16.53,16.53,0,0,0,.09,1.82l1.83,0a12.3,12.3,0,0,0,1.62-.11l0,1.75c-.66,0-1-.05-1.51-.05h-.14l-1.63,0a10.76,10.76,0,0,0,.78,2.72,3.88,3.88,0,0,0,.89,1.32c.06,0,.13-.15.18-.44s0-.29.16-1.78a6,6,0,0,0,1.47,1.1c-.27,2.33-.73,3.25-1.58,3.25-.66,0-1.41-.61-2.12-1.72a12.27,12.27,0,0,1-1.51-4.44Zm-6.1-4.82h1.75v-2h-1.75Zm0,3.59h1.75v-2h-1.75Zm0,3.76h1.75V20.72h-1.75Zm6.1-7.62h4.55V13.43h-4.55Zm2.14,3.44c-.05-.7-.05-.7-.09-1.84h-2v1.87Z"/><path class="cls-4" d="M279.2,18.85a2,2,0,1,1-2-2A2,2,0,0,1,279.2,18.85Z"/><path class="cls-4" d="M289.88,24.7a17.3,17.3,0,0,0,.08,2h-2a16.7,16.7,0,0,0,.1-2V19.9c0-.85,0-1.2,0-1.9a11.2,11.2,0,0,1-1.38,1.88,9.82,9.82,0,0,0-.77-2.07,13.35,13.35,0,0,0,2.66-4,11.78,11.78,0,0,0,1-3l1.94.58c-.2.51-.29.71-.48,1.22a23.12,23.12,0,0,1-1.13,2.77v7.21a16.1,16.1,0,0,0,4.58-6.44h-1.93a15.72,15.72,0,0,0-1.84.1v-2c.51.05,1.17.08,1.84.08H295v-1.6a10,10,0,0,0-.12-1.65h2a10.92,10.92,0,0,0-.1,1.65v1.6H300a16.16,16.16,0,0,0,1.92-.1v2a15.19,15.19,0,0,0-1.87-.1h-2.66a13.64,13.64,0,0,0,1.93,3.39,16.36,16.36,0,0,0,3.05,3.06,9,9,0,0,0-1.26,1.84A15.58,15.58,0,0,1,299,22.2a15,15,0,0,1-2.23-3.88c0,.55,0,1,0,1.72v4.74a11.78,11.78,0,0,0,.11,1.9h-2A18.57,18.57,0,0,0,295,24.8V20.28c0-.57,0-1.23,0-1.79A15.14,15.14,0,0,1,291,24.42a5.77,5.77,0,0,0-1.1-1.54Z"/><path class="cls-4" d="M311.8,25.68c-2.43.46-3.63.65-6.37,1a4.48,4.48,0,0,0-.88.15l-.28-1.72.14,0h.29c.25,0,.71-.05,1.58-.14V20.65A14.05,14.05,0,0,1,304,22a5.29,5.29,0,0,0-1-1.6,9.4,9.4,0,0,0,2.89-1.45,6.63,6.63,0,0,0,1.41-1.32h-2a11.22,11.22,0,0,0-1.72.08V16.18a10.42,10.42,0,0,0,1.72.08h4.9v-.69h-3.73a11.25,11.25,0,0,0-1.59.07v-1.4a11.68,11.68,0,0,0,1.59.07h3.73v-.7h-4.32a12.47,12.47,0,0,0-1.7.09V12.17a9.56,9.56,0,0,0,1.7.1h1.83a7,7,0,0,0-.9-1.19l1.84-.37a11.89,11.89,0,0,1,1.09,1.56h3a8.26,8.26,0,0,0,.85-1.56l1.91.34-.31.52c-.19.31-.26.41-.46.7h1.85a9.81,9.81,0,0,0,1.72-.1V13.7a12.32,12.32,0,0,0-1.72-.09H312v.7h4a12.35,12.35,0,0,0,1.6-.07v1.4a11.49,11.49,0,0,0-1.6-.07h-4v.69h5.15a10.77,10.77,0,0,0,1.73-.08v1.51a12.07,12.07,0,0,0-1.73-.08h-2a9.11,9.11,0,0,0,4.3,2.5,6.16,6.16,0,0,0-.95,1.61,12.31,12.31,0,0,1-2.79-1.6v1.7c0,.5,0,.7,0,1.06.31-.29.46-.45.85-.87l1.38.92a16.63,16.63,0,0,1-2.47,1.77,18.43,18.43,0,0,0,3.74.47,6.26,6.26,0,0,0-.95,1.68,12.91,12.91,0,0,1-6.44-2.1ZM308,20.41h6v-.58h-6ZM308,22h6v-.57h-6Zm0,2.77c1.46-.15,1.48-.17,3.23-.47a7,7,0,0,1-1.12-1.12h-2.11Zm2.24-6.15a3.18,3.18,0,0,0-.07-.75h1.86a2.72,2.72,0,0,0-.09.75h2c-.34-.36-.49-.51-.93-1.05h-3.79a10.46,10.46,0,0,1-.82,1.05Zm1.87,4.56a6.63,6.63,0,0,0,1.63,1,14.47,14.47,0,0,0,1.45-1h-3.08Z"/><path class="cls-4" d="M99.59,33.06l-4.35-8.5a6.55,6.55,0,0,1-3.14,5.36l1,1.86H84.68a6.09,6.09,0,0,0-.84-3.45,3.6,3.6,0,0,0-.26-.57c-3.52-6-10-6.59-16.22-7.63-3.31-.55-4.72,4.5-1.4,5.06,1.55.25,3.25.43,4.93.72H58.42l-4.88-4.41a2.65,2.65,0,0,0-3.7,0l-7.65,8.74a2.65,2.65,0,0,0-.67,1.51H37.64c-3.39,0-3.39,5.24,0,5.24H57.57v0h21.7l.37,0H97.31a2.38,2.38,0,0,0,2.41-1.79,2.57,2.57,0,0,0-.13-2.17Zm-51.77-1.3,4.08-4.67,4.71,4.24a2.52,2.52,0,0,0,.63.43Z"/><path class="cls-4" d="M94.25,23.53A5.57,5.57,0,1,1,88.68,18a5.58,5.58,0,0,1,5.57,5.57Z"/></g></g></svg>