<svg xmlns="http://www.w3.org/2000/svg" xmlns:xlink="http://www.w3.org/1999/xlink" width="414" height="107.64" viewBox="0 0 414 107.64"><defs><style>.cls-1{fill:none;}.cls-2{isolation:isolate;}.cls-3{fill:#ccc;}.cls-4{fill:#fff;}.cls-5{clip-path:url(#clip-path);}.cls-6{fill:url(#linear-gradient);}.cls-7{opacity:0.5;mix-blend-mode:multiply;}</style><clipPath id="clip-path"><path class="cls-1" d="M28.11,0c-3.95,0-6.58,3.19-6.58,7.11V107.64L52.16,87.26,82.8,107.64V7.11C82.8,3.19,80.31,0,76.37,0Z"/></clipPath><linearGradient id="linear-gradient" x1="-1154.17" y1="415.81" x2="-1153.13" y2="415.81" gradientTransform="matrix(0, 103.58, 103.58, 0, -43019.5, 119553.38)" gradientUnits="userSpaceOnUse"><stop offset="0" stop-color="#f89f1e"/><stop offset="0.07" stop-color="#ffffae"/><stop offset="0.15" stop-color="#fcee21"/><stop offset="0.9" stop-color="#f89d1e"/><stop offset="1" stop-color="#f7931e"/></linearGradient></defs><title>bn_staff</title><g class="cls-2"><g id="レイヤー_2" data-name="レイヤー 2"><g id="レイヤー_1-2" data-name="レイヤー 1"><rect class="cls-3" y="16.56" width="414" height="67.9"/><rect class="cls-4" y="8.28" width="414" height="72.86"/><g class="cls-5"><rect class="cls-6" x="21.53" width="61.27" height="107.64"/></g><g class="cls-7"><path d="M199.76,57.81a43.12,43.12,0,0,0-7.41-7.16,25.63,25.63,0,0,1-4.43,4.15,30.21,30.21,0,0,1-4.54,2.78,5.27,5.27,0,0,0-1.14-1.53A19,19,0,0,0,187,53.38a25.1,25.1,0,0,0,8.27-10.45c.05-.14.07-.16.12-.28a1.11,1.11,0,0,0,.07-.16,4.62,4.62,0,0,1-.56,0l-7.74.12a16,16,0,0,0-2.39.18l-.05-1.87a11.31,11.31,0,0,0,1.83.11h.61l8.27-.09a4.27,4.27,0,0,0,1.49-.19l1,1a4.3,4.3,0,0,0-.65,1.14,28.56,28.56,0,0,1-3.82,6.49,56.9,56.9,0,0,1,7.71,7Z"/><path d="M215,39a7.74,7.74,0,0,0-.81,1.53,11.67,11.67,0,0,1-.72,1.27c.33,0,.33,0,7.16-.11a4,4,0,0,0,1.35-.23l1,1a5.23,5.23,0,0,0-.67,1.53,26.43,26.43,0,0,1-6,10A25.91,25.91,0,0,1,209,58.76a4.17,4.17,0,0,0-1.14-1.44,20.77,20.77,0,0,0,4.8-2.52,16.49,16.49,0,0,0,4-3.67,29.37,29.37,0,0,0-5.19-3.75l1.06-1.18a32.54,32.54,0,0,1,5.12,3.59,27.82,27.82,0,0,0,3.23-6.72l-8.12.11a22.92,22.92,0,0,1-5.51,6.17,4.19,4.19,0,0,0-1.35-1.11,20,20,0,0,0,5.91-6.61,12.17,12.17,0,0,0,1.37-3.17Z"/><path d="M232.36,44.88a25.54,25.54,0,0,1,2.3,5.14l-1.58.54a19.1,19.1,0,0,0-2.18-5.2Zm13.07-.14a13.26,13.26,0,0,0-.51,1.88,20.69,20.69,0,0,1-2,5.19,16.79,16.79,0,0,1-7.67,6.7,4.49,4.49,0,0,0-1.06-1.3c3.57-1.6,5.74-3.39,7.34-6.05a17,17,0,0,0,2-5,8.94,8.94,0,0,0,.26-1.57v-.23ZM237.09,44a23.08,23.08,0,0,1,2.25,5l-1.53.54a20.66,20.66,0,0,0-2.13-5.08Z"/><path d="M269.71,42.17c-.17.25-.17.25-.49,1.43a19.74,19.74,0,0,1-5.82,10.06A21.26,21.26,0,0,1,256.12,58,4.25,4.25,0,0,0,255,56.4a17.48,17.48,0,0,0,5.24-2.46c3.8-2.53,6-5.84,7.3-11h-11.8a15.74,15.74,0,0,0-2.6.14V41.17a14,14,0,0,0,2.62.16h11.41a3.16,3.16,0,0,0,1.48-.18Z"/><path d="M276.71,51.32a22.25,22.25,0,0,1-1.37,6.75l-1.29-.58A16.91,16.91,0,0,0,275.42,51Zm-2.62-2.92c.3,0,.58.05,1.05.05H276c.77-1,.86-1.14,1.44-2a26.8,26.8,0,0,0-3.34-3.87l.84-1.07c.51.54.6.65,1,1a15.35,15.35,0,0,0,2.16-4.41l1.48.67a11.89,11.89,0,0,0-1,1.79c-.49.9-1,1.76-1.76,2.92.67.79.79.93,1.46,1.78a22.66,22.66,0,0,0,2.43-4.31l1.37.81c-.12.12-.63.93-1.55,2.39-.72,1.11-1.72,2.5-3,4.13,1.71-.12,2.43-.19,3.78-.37a18.48,18.48,0,0,0-1-2l1-.51a29.05,29.05,0,0,1,2,4.35l-1.13.63c-.19-.63-.26-.83-.42-1.32l-2.25.28v7.67a16.35,16.35,0,0,0,.14,2.32h-1.69a16.87,16.87,0,0,0,.14-2.32V49.54c-.74.07-1.12.09-1.72.13a15.65,15.65,0,0,0-2,.19Zm7.54,2.53a25.35,25.35,0,0,1,1.13,5.51l-1.3.37a24.86,24.86,0,0,0-1-5.54Zm3.54-10.43a16.41,16.41,0,0,0-2.36.13V39.08a17.55,17.55,0,0,0,2.39.14h7.18c.95,0,1.65,0,2.09-.07,0,.26-.05.53-.07,1.32a33.77,33.77,0,0,1-.67,5.89,1.69,1.69,0,0,1-1.42,1.41,7.27,7.27,0,0,1-1.37.07c-.6,0-.88,0-1.87-.09a3.78,3.78,0,0,0-.37-1.58,13,13,0,0,0,2.5.33c.72,0,1-.16,1.11-.67a23.08,23.08,0,0,0,.6-5.33h-4.33a9,9,0,0,1-4.89,8.08,3.23,3.23,0,0,0-1-1.2,7.5,7.5,0,0,0,3.48-3.08,8.29,8.29,0,0,0,1-3.8Zm.23,18.75h-1.55A21.18,21.18,0,0,0,284,57V51.74c0-.91,0-1.51-.09-2.16a12.74,12.74,0,0,0,1.85.09h6.49a12.43,12.43,0,0,0,1.83-.09,17.26,17.26,0,0,0-.09,2.16v5.33a16.23,16.23,0,0,0,.11,2.29H292.5V57.88h-7.1Zm0-2.69h7.1V51h-7.1Z"/><path d="M308.52,38.62a17.8,17.8,0,0,0,4.22,4.89,26,26,0,0,0,5.86,3.71,5.92,5.92,0,0,0-1,1.48,30.12,30.12,0,0,1-6.14-4.26A19.65,19.65,0,0,1,307.68,40a20.47,20.47,0,0,1-3.4,4.17,24.94,24.94,0,0,1-6.17,4.53,6,6,0,0,0-1-1.4,22.16,22.16,0,0,0,9.64-8.64Zm-3.62,7.65a19.4,19.4,0,0,0-.14,2.18c-.07,5.72-1.57,8.5-5.91,10.87A4.21,4.21,0,0,0,297.62,58a8.76,8.76,0,0,0,3.95-2.85c1.13-1.5,1.66-3.59,1.66-6.63a13,13,0,0,0-.16-2.22Zm7.3,0a16.05,16.05,0,0,0-.16,2.39v7.92A17.74,17.74,0,0,0,312.2,59h-1.85a16.49,16.49,0,0,0,.16-2.44V48.66a15,15,0,0,0-.16-2.39Z"/></g><path class="cls-3" d="M199.76,59.1a43.12,43.12,0,0,0-7.41-7.16,25.63,25.63,0,0,1-4.43,4.15,30.21,30.21,0,0,1-4.54,2.78,5.27,5.27,0,0,0-1.14-1.53A19,19,0,0,0,187,54.67a25.1,25.1,0,0,0,8.27-10.45c.05-.14.07-.16.12-.28a1.11,1.11,0,0,0,.07-.16,4.62,4.62,0,0,1-.56,0l-7.74.12a16,16,0,0,0-2.39.18l-.05-1.87a11.31,11.31,0,0,0,1.83.11h.61l8.27-.09a4.27,4.27,0,0,0,1.49-.19l1,1a4.3,4.3,0,0,0-.65,1.14,28.56,28.56,0,0,1-3.82,6.49,56.9,56.9,0,0,1,7.71,7Z"/><path class="cls-3" d="M215,40.28a7.74,7.74,0,0,0-.81,1.53,11.67,11.67,0,0,1-.72,1.27c.33,0,.33,0,7.16-.11a4,4,0,0,0,1.35-.23l1,1a5.23,5.23,0,0,0-.67,1.53,26.43,26.43,0,0,1-6,10A25.91,25.91,0,0,1,209,60.05a4.17,4.17,0,0,0-1.14-1.44,20.77,20.77,0,0,0,4.8-2.52,16.49,16.49,0,0,0,4-3.67,29.37,29.37,0,0,0-5.19-3.75l1.06-1.18a32.54,32.54,0,0,1,5.12,3.59,27.82,27.82,0,0,0,3.23-6.72l-8.12.11a22.92,22.92,0,0,1-5.51,6.17,4.32,4.32,0,0,0-1.35-1.11,20,20,0,0,0,5.91-6.61,12.17,12.17,0,0,0,1.37-3.17Z"/><path class="cls-3" d="M232.36,46.17a25.54,25.54,0,0,1,2.3,5.14l-1.58.54a19.1,19.1,0,0,0-2.18-5.2ZM245.43,46a13.26,13.26,0,0,0-.51,1.88,20.69,20.69,0,0,1-2,5.19,16.79,16.79,0,0,1-7.67,6.7,4.49,4.49,0,0,0-1.06-1.3c3.57-1.6,5.74-3.39,7.34-6a17,17,0,0,0,2-5,8.94,8.94,0,0,0,.26-1.57v-.23Zm-8.34-.79a23.08,23.08,0,0,1,2.25,5l-1.53.54a20.66,20.66,0,0,0-2.13-5.08Z"/><path class="cls-3" d="M269.71,43.46c-.17.25-.17.25-.49,1.43A19.74,19.74,0,0,1,263.4,55a21.26,21.26,0,0,1-7.28,4.36A4.25,4.25,0,0,0,255,57.69a17.48,17.48,0,0,0,5.24-2.46c3.8-2.53,6-5.84,7.3-11h-11.8a15.74,15.74,0,0,0-2.6.14V42.46a14,14,0,0,0,2.62.16h11.41a3.16,3.16,0,0,0,1.48-.18Z"/><path class="cls-3" d="M276.71,52.61a22.25,22.25,0,0,1-1.37,6.75l-1.29-.58a16.91,16.91,0,0,0,1.37-6.47Zm-2.62-2.92c.3,0,.58.05,1.05.05H276c.77-1,.86-1.14,1.44-2a26.8,26.8,0,0,0-3.34-3.87l.84-1.07c.51.54.6.65,1,1a15.35,15.35,0,0,0,2.16-4.41l1.48.67a11.89,11.89,0,0,0-1,1.79c-.49.9-1,1.76-1.76,2.92.67.79.79.93,1.46,1.78a22.66,22.66,0,0,0,2.43-4.31l1.37.81c-.12.12-.63.93-1.55,2.39-.72,1.11-1.72,2.5-3,4.13,1.71-.12,2.43-.19,3.78-.37a18.48,18.48,0,0,0-1-2l1-.51a29.05,29.05,0,0,1,2,4.35l-1.13.63c-.19-.63-.26-.83-.42-1.32l-2.25.28v7.67a16.35,16.35,0,0,0,.14,2.32h-1.69a16.87,16.87,0,0,0,.14-2.32V50.83c-.74.07-1.12.09-1.72.13a15.65,15.65,0,0,0-2,.19Zm7.54,2.53a25.35,25.35,0,0,1,1.13,5.51l-1.3.37a24.86,24.86,0,0,0-1-5.54Zm3.54-10.43a16.41,16.41,0,0,0-2.36.13V40.37a17.55,17.55,0,0,0,2.39.14h7.18c.95,0,1.65,0,2.09-.07,0,.26-.05.53-.07,1.32a33.77,33.77,0,0,1-.67,5.89,1.69,1.69,0,0,1-1.42,1.41,7.27,7.27,0,0,1-1.37.07c-.6,0-.88,0-1.87-.09a3.82,3.82,0,0,0-.37-1.58,13,13,0,0,0,2.5.33c.72,0,1-.16,1.11-.67a23.08,23.08,0,0,0,.6-5.33h-4.33a9,9,0,0,1-4.89,8.09,3.19,3.19,0,0,0-1-1.21,7.5,7.5,0,0,0,3.48-3.08,8.29,8.29,0,0,0,1-3.8Zm.23,18.75h-1.55a21.18,21.18,0,0,0,.12-2.27V53c0-.91,0-1.51-.09-2.16a12.74,12.74,0,0,0,1.85.09h6.49a12.43,12.43,0,0,0,1.83-.09A17.26,17.26,0,0,0,294,53v5.33a16.23,16.23,0,0,0,.11,2.29H292.5V59.17h-7.1Zm0-2.69h7.1V52.29h-7.1Z"/><path class="cls-3" d="M308.52,39.91a17.8,17.8,0,0,0,4.22,4.89,26,26,0,0,0,5.86,3.71,5.92,5.92,0,0,0-1,1.48,30.12,30.12,0,0,1-6.14-4.26,19.65,19.65,0,0,1-3.81-4.48,20.47,20.47,0,0,1-3.4,4.17A24.94,24.94,0,0,1,298.11,50a6,6,0,0,0-1-1.4,22.16,22.16,0,0,0,9.64-8.64Zm-3.62,7.65a19.4,19.4,0,0,0-.14,2.18c-.07,5.72-1.57,8.5-5.91,10.87a4.21,4.21,0,0,0-1.23-1.35,8.76,8.76,0,0,0,3.95-2.85c1.13-1.5,1.66-3.59,1.66-6.63a13,13,0,0,0-.16-2.22Zm7.3,0A16.05,16.05,0,0,0,312,50v7.92a17.74,17.74,0,0,0,.16,2.46h-1.85a16.49,16.49,0,0,0,.16-2.44V50a15,15,0,0,0-.16-2.39Z"/></g></g></g></svg>