<svg xmlns="http://www.w3.org/2000/svg" xmlns:xlink="http://www.w3.org/1999/xlink" width="414" height="133" viewBox="0 0 414 133"><defs><style>.cls-1{fill:#a6ce39;}.cls-1,.cls-2{fill-rule:evenodd;}.cls-2{fill:url(#GradientFill_1);}.cls-3{fill:#ccc;}.cls-4{fill:#fff;}</style><linearGradient id="GradientFill_1" x1="278.43" y1="133" x2="278.43" gradientUnits="userSpaceOnUse"><stop offset="0" stop-color="#231f20"/><stop offset="1" stop-color="#808284"/></linearGradient></defs><title>bn_sleep</title><g id="レイヤー_2" data-name="レイヤー 2"><g id="レイヤー_1-2" data-name="レイヤー 1"><path class="cls-1" d="M135.79,0H17A16.84,16.84,0,0,0,0,16.62v99.76A16.84,16.84,0,0,0,17,133H135.79Z"/><path class="cls-2" d="M278.22,0H397a16.85,16.85,0,0,1,17,16.62v99.77A16.85,16.85,0,0,1,397,133H142.87V0Z"/><path class="cls-3" d="M213.71,90.17V75.94H220a8.24,8.24,0,0,1,2.89.39,3.09,3.09,0,0,1,1.58,1.35,4,4,0,0,1,.6,2.14,3.62,3.62,0,0,1-1,2.56,5,5,0,0,1-3,1.31,4.72,4.72,0,0,1,1.13.71,10.5,10.5,0,0,1,1.57,1.89l2.47,3.88h-2.37l-1.88-3c-.55-.86-1-1.51-1.36-2a4,4,0,0,0-.95-1,2.94,2.94,0,0,0-.86-.38,5.32,5.32,0,0,0-1.05-.07H215.6v6.32Zm1.89-8h4a6,6,0,0,0,2-.27,2.18,2.18,0,0,0,1.11-.85,2.33,2.33,0,0,0,.37-1.28,2.13,2.13,0,0,0-.73-1.66,3.44,3.44,0,0,0-2.31-.65h-4.5Z"/><path class="cls-3" d="M234.87,86.85l1.8.22a4.4,4.4,0,0,1-1.58,2.46,5.38,5.38,0,0,1-6.54-.52,5.46,5.46,0,0,1-1.32-3.91,5.73,5.73,0,0,1,1.34-4A4.55,4.55,0,0,1,232,79.63,4.4,4.4,0,0,1,235.42,81,5.57,5.57,0,0,1,236.73,85c0,.11,0,.26,0,.47H229a4,4,0,0,0,1,2.6,2.85,2.85,0,0,0,2.15.9,2.64,2.64,0,0,0,1.64-.5A3.41,3.41,0,0,0,234.87,86.85ZM229.13,84h5.76a3.57,3.57,0,0,0-.66-2,2.7,2.7,0,0,0-2.17-1,2.75,2.75,0,0,0-2,.81A3.2,3.2,0,0,0,229.13,84Z"/><path class="cls-3" d="M238.17,87.09l1.72-.27a2.45,2.45,0,0,0,.81,1.59,2.83,2.83,0,0,0,1.86.55,2.73,2.73,0,0,0,1.79-.49,1.48,1.48,0,0,0,.58-1.15,1.06,1.06,0,0,0-.52-.93,7.86,7.86,0,0,0-1.78-.59A15.88,15.88,0,0,1,240,85a2.54,2.54,0,0,1-1.5-2.36,2.66,2.66,0,0,1,.31-1.28,2.86,2.86,0,0,1,.86-1,3.6,3.6,0,0,1,1.11-.51,5.25,5.25,0,0,1,1.51-.21,6,6,0,0,1,2.13.35,2.91,2.91,0,0,1,1.35.94,3.72,3.72,0,0,1,.6,1.6l-1.7.23a1.85,1.85,0,0,0-.68-1.24,2.43,2.43,0,0,0-1.57-.45,2.88,2.88,0,0,0-1.72.4,1.19,1.19,0,0,0-.52.93,1,1,0,0,0,.22.62,1.52,1.52,0,0,0,.67.46c.17.07.69.22,1.54.45a21.51,21.51,0,0,1,2.59.81,2.62,2.62,0,0,1,1.15.92,2.59,2.59,0,0,1,.41,1.49,2.91,2.91,0,0,1-.51,1.64,3.26,3.26,0,0,1-1.47,1.2,5.35,5.35,0,0,1-2.17.42,4.81,4.81,0,0,1-3.06-.84A3.85,3.85,0,0,1,238.17,87.09Z"/><path class="cls-3" d="M252.61,88.6l.26,1.55a6.85,6.85,0,0,1-1.33.15,3,3,0,0,1-1.47-.3,1.66,1.66,0,0,1-.74-.79,6.34,6.34,0,0,1-.21-2.06V81.22h-1.28V79.86h1.28V77.31l1.74-1v3.6h1.75v1.36h-1.75v6a3.18,3.18,0,0,0,.09,1,.75.75,0,0,0,.3.34,1.22,1.22,0,0,0,.6.12A4.94,4.94,0,0,0,252.61,88.6Z"/><path class="cls-3" d="M266.57,88.9a6.59,6.59,0,0,1-1.87,1.16,5.33,5.33,0,0,1-1.93.34,3.77,3.77,0,0,1-2.61-.83,2.73,2.73,0,0,1-.91-2.12,2.88,2.88,0,0,1,.34-1.38,2.78,2.78,0,0,1,.91-1,4.32,4.32,0,0,1,1.25-.57,12.05,12.05,0,0,1,1.56-.26,16.35,16.35,0,0,0,3.11-.6c0-.24,0-.39,0-.46a1.92,1.92,0,0,0-.49-1.5,2.9,2.9,0,0,0-2-.6,3,3,0,0,0-1.82.44,2.61,2.61,0,0,0-.87,1.52l-1.71-.23a4.24,4.24,0,0,1,.77-1.77,3.39,3.39,0,0,1,1.54-1,6.93,6.93,0,0,1,2.34-.36,6.09,6.09,0,0,1,2.14.31,2.92,2.92,0,0,1,1.22.78,2.78,2.78,0,0,1,.54,1.19,9.53,9.53,0,0,1,.09,1.61v2.33a23.73,23.73,0,0,0,.11,3.08,3.84,3.84,0,0,0,.44,1.24h-1.82A3.55,3.55,0,0,1,266.57,88.9ZM266.42,85a12.57,12.57,0,0,1-2.85.66A7,7,0,0,0,262,86a1.53,1.53,0,0,0-.68.57,1.45,1.45,0,0,0-.25.83,1.52,1.52,0,0,0,.53,1.17,2.28,2.28,0,0,0,1.55.46,3.62,3.62,0,0,0,1.79-.44,2.71,2.71,0,0,0,1.16-1.21,4.16,4.16,0,0,0,.28-1.74Z"/><path class="cls-3" d="M270.89,90.17V79.86h1.58v1.47a3.68,3.68,0,0,1,3.28-1.7,4.34,4.34,0,0,1,1.71.33,2.78,2.78,0,0,1,1.17.88,3.27,3.27,0,0,1,.54,1.29,9.45,9.45,0,0,1,.1,1.7v6.34h-1.75V83.9a4.9,4.9,0,0,0-.2-1.6,1.7,1.7,0,0,0-.73-.84,2.28,2.28,0,0,0-1.21-.32,2.84,2.84,0,0,0-1.93.71,3.5,3.5,0,0,0-.81,2.69v5.63Z"/><path class="cls-3" d="M288.63,90.17v-1.3a3.2,3.2,0,0,1-2.88,1.53,4.08,4.08,0,0,1-2.27-.68,4.41,4.41,0,0,1-1.6-1.9,6.51,6.51,0,0,1-.56-2.8,7.42,7.42,0,0,1,.51-2.8,4.06,4.06,0,0,1,1.54-1.92,4.1,4.1,0,0,1,2.3-.67,3.45,3.45,0,0,1,1.66.39,3.28,3.28,0,0,1,1.18,1V75.94h1.74V90.17ZM283.11,85a4.51,4.51,0,0,0,.83,3,2.51,2.51,0,0,0,2,1,2.47,2.47,0,0,0,1.95-.93,4.36,4.36,0,0,0,.8-2.86,4.82,4.82,0,0,0-.82-3.11,2.49,2.49,0,0,0-2-1,2.41,2.41,0,0,0-1.95,1A4.67,4.67,0,0,0,283.11,85Z"/><path class="cls-3" d="M297.82,87.09l1.73-.27a2.36,2.36,0,0,0,.81,1.59,2.81,2.81,0,0,0,1.86.55,2.7,2.7,0,0,0,1.78-.49,1.45,1.45,0,0,0,.58-1.15,1.07,1.07,0,0,0-.51-.93,8,8,0,0,0-1.79-.59,15.69,15.69,0,0,1-2.66-.84,2.51,2.51,0,0,1-1.12-1,2.57,2.57,0,0,1-.39-1.38,2.67,2.67,0,0,1,.32-1.28,2.76,2.76,0,0,1,.86-1,3.6,3.6,0,0,1,1.11-.51,5.25,5.25,0,0,1,1.51-.21A6.1,6.1,0,0,1,304,80a2.91,2.91,0,0,1,1.35.94,3.72,3.72,0,0,1,.6,1.6l-1.71.23a1.84,1.84,0,0,0-.67-1.24,2.46,2.46,0,0,0-1.58-.45,2.92,2.92,0,0,0-1.72.4,1.17,1.17,0,0,0-.51.93A1,1,0,0,0,300,83a1.65,1.65,0,0,0,.67.46c.18.07.69.22,1.55.45a21.8,21.8,0,0,1,2.58.81,2.57,2.57,0,0,1,1.15.92,2.52,2.52,0,0,1,.42,1.49,2.91,2.91,0,0,1-.51,1.64A3.26,3.26,0,0,1,304.4,90a5.38,5.38,0,0,1-2.17.42,4.86,4.86,0,0,1-3.07-.84A3.85,3.85,0,0,1,297.82,87.09Z"/><path class="cls-3" d="M308.42,90.17V75.94h1.74V90.17Z"/><path class="cls-3" d="M319.92,86.85l1.81.22a4.45,4.45,0,0,1-1.58,2.46,4.78,4.78,0,0,1-2.95.87A4.72,4.72,0,0,1,313.61,89a5.46,5.46,0,0,1-1.32-3.91,5.68,5.68,0,0,1,1.34-4,4.55,4.55,0,0,1,3.47-1.43A4.41,4.41,0,0,1,320.48,81,5.57,5.57,0,0,1,321.79,85c0,.11,0,.26,0,.47h-7.69a4,4,0,0,0,1,2.6,2.88,2.88,0,0,0,2.16.9,2.66,2.66,0,0,0,1.64-.5A3.33,3.33,0,0,0,319.92,86.85ZM314.19,84h5.75a3.41,3.41,0,0,0-.66-2,2.66,2.66,0,0,0-2.16-1,2.75,2.75,0,0,0-2,.81A3.2,3.2,0,0,0,314.19,84Z"/><path class="cls-3" d="M331,86.85l1.8.22a4.4,4.4,0,0,1-1.58,2.46,5.38,5.38,0,0,1-6.54-.52,5.46,5.46,0,0,1-1.32-3.91,5.73,5.73,0,0,1,1.34-4,4.55,4.55,0,0,1,3.47-1.43A4.4,4.4,0,0,1,331.53,81,5.57,5.57,0,0,1,332.84,85c0,.11,0,.26,0,.47h-7.69a4,4,0,0,0,1,2.6,2.88,2.88,0,0,0,2.16.9,2.64,2.64,0,0,0,1.64-.5A3.41,3.41,0,0,0,331,86.85ZM325.24,84H331a3.49,3.49,0,0,0-.67-2,2.66,2.66,0,0,0-2.16-1,2.75,2.75,0,0,0-2,.81A3.2,3.2,0,0,0,325.24,84Z"/><path class="cls-3" d="M335,94.12V79.86h1.59V81.2A4,4,0,0,1,337.83,80a3.55,3.55,0,0,1,1.72-.39,4.09,4.09,0,0,1,2.33.68,4.24,4.24,0,0,1,1.53,1.91,7.08,7.08,0,0,1,.51,2.72,6.83,6.83,0,0,1-.57,2.84,4.29,4.29,0,0,1-3.92,2.62,3.22,3.22,0,0,1-1.57-.37,3.75,3.75,0,0,1-1.14-.93v5Zm1.58-9.05a4.45,4.45,0,0,0,.81,2.94,2.46,2.46,0,0,0,1.95.95,2.49,2.49,0,0,0,2-1,4.65,4.65,0,0,0,.83-3,4.54,4.54,0,0,0-.81-3,2.41,2.41,0,0,0-1.93-1,2.51,2.51,0,0,0-2,1A4.69,4.69,0,0,0,336.55,85.07Z"/><path class="cls-4" d="M237.08,53.14a5.48,5.48,0,0,0-.94.08v-2a12.44,12.44,0,0,0,2,.1h2.48V49.78c-.34,0-.63.06-.79.06-1.21.12-1.21.12-3,.2a8.86,8.86,0,0,0-.8-1.69c4-.06,8.17-.69,9.84-1.47l1.37,1.85-.7.14c-1.37.28-2.72.52-4,.69v1.71h2.94a14,14,0,0,0,1.95-.1v2a8.32,8.32,0,0,0-1.22-.08V55a11.69,11.69,0,0,0,1.67-.08V57a9.6,9.6,0,0,0-1.67-.1V59a9.63,9.63,0,0,0,1.22-.06v2a16.1,16.1,0,0,0-1.89-.08h-3v1.85h3a19.71,19.71,0,0,0,2.15-.1v2.12a16.73,16.73,0,0,0-2.21-.12h-7.35a16.52,16.52,0,0,0-2.21.12V62.6a15,15,0,0,0,2,.12h2.62V60.87H238a14.14,14.14,0,0,0-1.85.08v-2c.28,0,.46,0,.94.06V56.9h-1.55v5a16,16,0,0,0,.06,1.61h-1.83v-.87H232v1.83h-2c.06-.72.08-1.4.08-2.23V49.78a17,17,0,0,0-.08-2c.34,0,.82,0,1.55,0H234c.75,0,1.23,0,1.59,0a18.21,18.21,0,0,0-.06,1.9V55h1.55Zm-5.11-1h1.79V49.74H232Zm0,4.19h1.79V53.9H232Zm0,4.41h1.79V58.09H232ZM240.59,55V53.14H239V55ZM239,59h1.59V56.9H239Zm5.33-4V53.14h-1.75V55Zm-1.75,4h1.75V56.9h-1.75Z"/><path class="cls-4" d="M259.27,57.93v4.53a35,35,0,0,0,3.4-.94v2c-2.44.78-2.56.8-5.76,1.59l-1,.24-.34-1.77h-1.43v-.79h-2.05v1.69h-2.07a16.82,16.82,0,0,0,.1-2.21V50.18c0-.89,0-1.43-.08-2.2a13.89,13.89,0,0,0,1.53.06h2.94a14.23,14.23,0,0,0,1.51-.06c0,.43-.06,1.13-.06,2V61.7c0,.62,0,1,0,1.37.38,0,.54-.06,1.16-.17v-13c0-.87,0-1.45-.08-2.1a16.18,16.18,0,0,0,1.9.08h5.89a11.62,11.62,0,0,0,1.84-.1c0,.37-.06,1.13-.06,1.92v2.51a17,17,0,0,0,.06,1.73c-.32,0-1.07-.08-1.75-.08h-1.31a19.72,19.72,0,0,0,.1,2.12l2.15,0a14.31,14.31,0,0,0,1.89-.12l0,2c-.78,0-1.18-.06-1.77-.06h-.16l-1.91,0a12.9,12.9,0,0,0,.91,3.18,4.55,4.55,0,0,0,1,1.55c.08,0,.16-.18.22-.52s0-.34.18-2.08a7.29,7.29,0,0,0,1.72,1.29c-.31,2.72-.85,3.79-1.84,3.79-.78,0-1.65-.71-2.49-2A14.59,14.59,0,0,1,262,57.87Zm-7.13-5.62h2.05V49.92h-2.05Zm0,4.19h2.05V54.11h-2.05Zm0,4.39h2.05V58.31h-2.05Zm7.13-8.9h5.33V49.78h-5.33Zm2.51,4c-.06-.81-.06-.81-.1-2.14h-2.41V56Z"/><path class="cls-4" d="M280.79,56.12a2.36,2.36,0,1,1-2.36-2.36A2.36,2.36,0,0,1,280.79,56.12Z"/><path class="cls-4" d="M293.28,63a18.47,18.47,0,0,0,.1,2.3H291a19.75,19.75,0,0,0,.12-2.32V57.35c0-1,0-1.41,0-2.22a12.9,12.9,0,0,1-1.61,2.2,12.37,12.37,0,0,0-.89-2.42,15.83,15.83,0,0,0,3.1-4.65,14.29,14.29,0,0,0,1.15-3.54l2.26.68c-.24.6-.33.83-.55,1.43a29.05,29.05,0,0,1-1.33,3.24v8.42A18.82,18.82,0,0,0,298.64,53h-2.26a18.71,18.71,0,0,0-2.15.12v-2.3c.6.06,1.37.1,2.15.1h2.93V49a12.35,12.35,0,0,0-.13-1.93h2.38a11.91,11.91,0,0,0-.12,1.93v1.87h3.7a19.17,19.17,0,0,0,2.24-.12v2.32A18.12,18.12,0,0,0,305.2,53h-3.12a16.15,16.15,0,0,0,2.26,4,19.4,19.4,0,0,0,3.56,3.57,9.88,9.88,0,0,0-1.47,2.15A18.6,18.6,0,0,1,304,60a17.35,17.35,0,0,1-2.6-4.53c0,.64.06,1.18.06,2v5.54a14.67,14.67,0,0,0,.12,2.23h-2.38a19.6,19.6,0,0,0,.13-2.21V57.79c0-.66,0-1.43,0-2.09a17.9,17.9,0,0,1-4.76,6.94,6.82,6.82,0,0,0-1.29-1.81Z"/><path class="cls-4" d="M318.91,64.11c-2.84.53-4.25.75-7.45,1.15a5.13,5.13,0,0,0-1,.18l-.32-2,.16,0h.33c.3,0,.84-.06,1.85-.16V58.23a16.82,16.82,0,0,1-2.7,1.55,6.29,6.29,0,0,0-1.15-1.87A11.23,11.23,0,0,0,312,56.22a7.62,7.62,0,0,0,1.64-1.55h-2.36a13.18,13.18,0,0,0-2,.1V53a12.24,12.24,0,0,0,2,.1H317v-.81h-4.35a15.3,15.3,0,0,0-1.87.08V50.74a13.71,13.71,0,0,0,1.87.08H317V50h-5a14.92,14.92,0,0,0-2,.1V48.31a10.61,10.61,0,0,0,2,.12h2.14A9.57,9.57,0,0,0,313,47l2.14-.44a13.82,13.82,0,0,1,1.28,1.83h3.47a10.21,10.21,0,0,0,1-1.83l2.22.4c-.12.22-.12.22-.36.62s-.3.47-.53.81h2.16a10.85,10.85,0,0,0,2-.12V50.1a14.78,14.78,0,0,0-2-.1h-5.32v.82h4.67a14,14,0,0,0,1.86-.08v1.63a15.23,15.23,0,0,0-1.86-.08h-4.67v.81h6a12.61,12.61,0,0,0,2-.1v1.77a14.24,14.24,0,0,0-2-.1h-2.35a10.47,10.47,0,0,0,5,2.92,6.87,6.87,0,0,0-1.11,1.89,14.39,14.39,0,0,1-3.26-1.87v2c0,.57,0,.81,0,1.23.36-.34.53-.52,1-1L326,60.89A19.71,19.71,0,0,1,323.16,63a21.77,21.77,0,0,0,4.37.55,7.3,7.3,0,0,0-1.11,2c-3.46-.4-5.58-1.09-7.53-2.47ZM314.5,58h6.95v-.68H314.5Zm0,1.91h6.95v-.68H314.5Zm0,3.23a34.33,34.33,0,0,0,3.77-.55A9,9,0,0,1,317,61.23h-2.46Zm2.62-7.19a3.63,3.63,0,0,0-.08-.87h2.17a3.08,3.08,0,0,0-.1.87h2.36a14.17,14.17,0,0,1-1.09-1.23H316a11.06,11.06,0,0,1-1,1.23Zm2.19,5.33a7.76,7.76,0,0,0,1.9,1.13,20,20,0,0,0,1.69-1.11c-.38,0-.77,0-.85,0Z"/><path class="cls-4" d="M120.5,79.46q-3.33-6.51-6.68-13a10,10,0,0,1-4.8,8.22l1.46,2.85H97.63a9.26,9.26,0,0,0-1.29-5.29,4.16,4.16,0,0,0-.39-.87C90.56,62.2,80.59,61.23,71.07,59.63c-5.06-.85-7.23,6.9-2.13,7.76,2.37.39,5,.66,7.55,1.1l-19.11,0q-3.75-3.39-7.49-6.76c-1.54-1.4-4.19-1.72-5.68,0L32.49,75.15a4,4,0,0,0-1,2.32H25.51c-5.19,0-5.19,8,0,8H56.06v0l33.28,0,.58,0H117a3.66,3.66,0,0,0,3.69-2.76,3.91,3.91,0,0,0-.2-3.32Zm-79.38-2c2.08-2.4,4.17-4.78,6.26-7.17l7.21,6.51a4.51,4.51,0,0,0,1,.66Z"/><path class="cls-4" d="M112.31,64.84a8.54,8.54,0,1,1-8.54-8.54,8.54,8.54,0,0,1,8.54,8.54Z"/></g></g></svg>