<svg xmlns="http://www.w3.org/2000/svg" xmlns:xlink="http://www.w3.org/1999/xlink" width="414" height="133" viewBox="0 0 414 133"><defs><style>.cls-1{fill:#f58466;}.cls-1,.cls-2{fill-rule:evenodd;}.cls-2{fill:url(#GradientFill_1);}.cls-3{fill:#ccc;}.cls-4{fill:#fff;}</style><linearGradient id="GradientFill_1" x1="278.21" y1="133" x2="278.21" gradientUnits="userSpaceOnUse"><stop offset="0" stop-color="#231f20"/><stop offset="1" stop-color="#808284"/></linearGradient></defs><title>bn_weight</title><g id="レイヤー_2" data-name="レイヤー 2"><g id="レイヤー_1-2" data-name="レイヤー 1"><path class="cls-1" d="M135.79,0H16.22C6.88,0,0,6.72,0,15.87v99.76C0,124.78,6.88,133,16.22,133H135.79Z"/><path class="cls-2" d="M277.46,0H396.27C405.61,0,414,6.72,414,15.87v99.77c0,9.14-8.39,17.36-17.73,17.36H142.42V0Z"/><path class="cls-3" d="M212.84,89.42,209.07,75.2H211l2.16,9.32q.36,1.47.6,2.91l.64-2.63,2.71-9.6h2.27l2,7.2a38.75,38.75,0,0,1,1.11,5c.18-.9.41-1.93.7-3.09l2.24-9.14h1.89l-3.9,14.22h-1.82l-3-10.84c-.25-.9-.4-1.46-.44-1.66-.15.65-.29,1.2-.42,1.66l-3,10.84Z"/><path class="cls-3" d="M235.59,86.1l1.8.23a4.37,4.37,0,0,1-1.58,2.45,5.34,5.34,0,0,1-6.54-.52,5.45,5.45,0,0,1-1.32-3.9,5.71,5.71,0,0,1,1.34-4,4.51,4.51,0,0,1,3.47-1.43,4.39,4.39,0,0,1,3.38,1.4,5.61,5.61,0,0,1,1.31,4c0,.1,0,.26,0,.47h-7.69a4,4,0,0,0,1,2.6,2.88,2.88,0,0,0,2.16.9,2.71,2.71,0,0,0,1.64-.5A3.44,3.44,0,0,0,235.59,86.1Zm-5.74-2.82h5.76a3.51,3.51,0,0,0-.66-2,2.7,2.7,0,0,0-2.17-1,2.75,2.75,0,0,0-2,.81A3.16,3.16,0,0,0,229.85,83.28Z"/><path class="cls-3" d="M239.59,77.21v-2h1.75v2Zm0,12.21V79.12h1.75v10.3Z"/><path class="cls-3" d="M243.68,90.28l1.7.25a1.59,1.59,0,0,0,.59,1.14,2.84,2.84,0,0,0,1.77.49,3.09,3.09,0,0,0,1.88-.49,2.38,2.38,0,0,0,.89-1.35,11.75,11.75,0,0,0,.13-2.25,3.61,3.61,0,0,1-2.86,1.35,3.91,3.91,0,0,1-3.29-1.53,5.94,5.94,0,0,1-1.16-3.68,6.94,6.94,0,0,1,.53-2.72,4.33,4.33,0,0,1,1.55-1.93,4.2,4.2,0,0,1,2.38-.67,3.7,3.7,0,0,1,3,1.47V79.12h1.61V88a8.4,8.4,0,0,1-.49,3.41A3.58,3.58,0,0,1,250.37,93a5.37,5.37,0,0,1-2.62.58,5,5,0,0,1-3-.82A2.82,2.82,0,0,1,243.68,90.28Zm1.44-6.19a4.47,4.47,0,0,0,.81,3,2.56,2.56,0,0,0,2,.93,2.59,2.59,0,0,0,2-.93,4.36,4.36,0,0,0,.81-2.91,4.22,4.22,0,0,0-.84-2.85,2.59,2.59,0,0,0-2-1,2.52,2.52,0,0,0-2,1A4.21,4.21,0,0,0,245.12,84.09Z"/><path class="cls-3" d="M255.05,89.42V75.2h1.75v5.1a3.89,3.89,0,0,1,3.08-1.41,4.15,4.15,0,0,1,2,.45,2.64,2.64,0,0,1,1.21,1.24,5.8,5.8,0,0,1,.36,2.31v6.53H261.7V82.89a2.66,2.66,0,0,0-.57-1.9,2.1,2.1,0,0,0-1.61-.6,2.84,2.84,0,0,0-1.46.4,2.27,2.27,0,0,0-1,1.09,4.94,4.94,0,0,0-.29,1.91v5.63Z"/><path class="cls-3" d="M269.92,87.86l.25,1.54a6.06,6.06,0,0,1-1.32.16,3,3,0,0,1-1.48-.3,1.68,1.68,0,0,1-.73-.79,6,6,0,0,1-.22-2.06V80.48h-1.28V79.12h1.28V76.57l1.74-1v3.6h1.76v1.36h-1.76v6a3.09,3.09,0,0,0,.09,1,.71.71,0,0,0,.3.34,1.11,1.11,0,0,0,.6.13A5.16,5.16,0,0,0,269.92,87.86Z"/><path class="cls-3" d="M280.63,89.42V76.88h-4.69V75.2h11.28v1.68h-4.71V89.42Z"/><path class="cls-3" d="M288.17,89.42V79.12h1.57v1.56a4.36,4.36,0,0,1,1.11-1.45,1.94,1.94,0,0,1,1.12-.34,3.38,3.38,0,0,1,1.8.56l-.6,1.62a2.55,2.55,0,0,0-1.29-.38,1.69,1.69,0,0,0-1,.34,1.78,1.78,0,0,0-.65,1,6.62,6.62,0,0,0-.29,2v5.39Z"/><path class="cls-3" d="M301.53,88.15a6.64,6.64,0,0,1-1.87,1.17,5.54,5.54,0,0,1-1.92.34,3.78,3.78,0,0,1-2.62-.83,2.77,2.77,0,0,1-.91-2.12,2.84,2.84,0,0,1,.35-1.39,2.9,2.9,0,0,1,.9-1,4.26,4.26,0,0,1,1.26-.57,13.38,13.38,0,0,1,1.55-.27,14.76,14.76,0,0,0,3.11-.6c0-.24,0-.39,0-.45a1.94,1.94,0,0,0-.49-1.51,3,3,0,0,0-2-.59,3.15,3.15,0,0,0-1.82.43,2.68,2.68,0,0,0-.87,1.53l-1.71-.23a4.24,4.24,0,0,1,.77-1.77,3.37,3.37,0,0,1,1.54-1,7,7,0,0,1,2.34-.36,6.15,6.15,0,0,1,2.15.31,2.7,2.7,0,0,1,1.21.78,2.67,2.67,0,0,1,.54,1.19,9.44,9.44,0,0,1,.09,1.61V85.1a25.93,25.93,0,0,0,.11,3.09,3.94,3.94,0,0,0,.44,1.23h-1.82A3.64,3.64,0,0,1,301.53,88.15Zm-.15-3.9a12.57,12.57,0,0,1-2.85.66,6.22,6.22,0,0,0-1.52.35,1.49,1.49,0,0,0-.93,1.4,1.49,1.49,0,0,0,.52,1.16,2.3,2.3,0,0,0,1.55.47,3.66,3.66,0,0,0,1.8-.44,2.74,2.74,0,0,0,1.15-1.21,4.22,4.22,0,0,0,.28-1.75Z"/><path class="cls-3" d="M305.87,77.21v-2h1.74v2Zm0,12.21V79.12h1.74v10.3Z"/><path class="cls-3" d="M310.27,89.42V79.12h1.57v1.46a3.71,3.71,0,0,1,3.28-1.69,4.39,4.39,0,0,1,1.72.33,2.61,2.61,0,0,1,1.16.88,3.28,3.28,0,0,1,.55,1.29,10.42,10.42,0,0,1,.1,1.7v6.33H316.9V83.15a4.83,4.83,0,0,0-.2-1.59,1.72,1.72,0,0,0-.73-.85,2.28,2.28,0,0,0-1.22-.31,2.83,2.83,0,0,0-1.92.71,3.49,3.49,0,0,0-.81,2.68v5.63Z"/><path class="cls-3" d="M321.33,77.21v-2h1.75v2Zm0,12.21V79.12h1.75v10.3Z"/><path class="cls-3" d="M325.74,89.42V79.12h1.57v1.46a3.71,3.71,0,0,1,3.28-1.69,4.34,4.34,0,0,1,1.71.33,2.7,2.7,0,0,1,1.17.88,3.43,3.43,0,0,1,.55,1.29,10.76,10.76,0,0,1,.09,1.7v6.33h-1.74V83.15a4.53,4.53,0,0,0-.21-1.59,1.65,1.65,0,0,0-.72-.85,2.31,2.31,0,0,0-1.22-.31,2.86,2.86,0,0,0-1.93.71,3.49,3.49,0,0,0-.8,2.68v5.63Z"/><path class="cls-3" d="M336.47,90.28l1.7.25a1.62,1.62,0,0,0,.59,1.14,2.87,2.87,0,0,0,1.78.49,3.08,3.08,0,0,0,1.87-.49,2.33,2.33,0,0,0,.89-1.35,11.75,11.75,0,0,0,.13-2.25,3.61,3.61,0,0,1-2.86,1.35,3.88,3.88,0,0,1-3.28-1.53,5.89,5.89,0,0,1-1.17-3.68,6.94,6.94,0,0,1,.53-2.72,4.4,4.4,0,0,1,1.55-1.93,4.2,4.2,0,0,1,2.38-.67,3.7,3.7,0,0,1,3,1.47V79.12h1.61V88a8.4,8.4,0,0,1-.49,3.41A3.53,3.53,0,0,1,343.16,93a5.36,5.36,0,0,1-2.61.58,4.94,4.94,0,0,1-3-.82A2.8,2.8,0,0,1,336.47,90.28Zm1.45-6.19a4.48,4.48,0,0,0,.8,3,2.56,2.56,0,0,0,2,.93,2.59,2.59,0,0,0,2-.93,4.36,4.36,0,0,0,.81-2.91,4.22,4.22,0,0,0-.84-2.85,2.59,2.59,0,0,0-2-1,2.52,2.52,0,0,0-2,1A4.21,4.21,0,0,0,337.92,84.09Z"/><path class="cls-4" d="M196.14,50.83a3.12,3.12,0,0,0-.3,1.09,16.91,16.91,0,0,1-1.25,4.81,11.71,11.71,0,0,1-4.91,5.48,17.86,17.86,0,0,1-4,1.79,7.38,7.38,0,0,0-1.59-2.36A13.29,13.29,0,0,0,188.37,60a9.84,9.84,0,0,0,4.77-8h-9.7v2.56q0,.93.06,1.59h-2.66a14.56,14.56,0,0,0,.1-1.67V51.62a16.32,16.32,0,0,0-.08-1.89,15.24,15.24,0,0,0,2.14.1h3.9v-1.7a7.53,7.53,0,0,0-.1-1.45h2.76a8.91,8.91,0,0,0-.1,1.43v1.7H193a4.82,4.82,0,0,0,1.94-.15Z"/><path class="cls-4" d="M209.23,59.45H214a14.08,14.08,0,0,0,2.58-.14v2.5a20.18,20.18,0,0,0-2.54-.1H202.16a20.18,20.18,0,0,0-2.54.1v-2.5a14.08,14.08,0,0,0,2.58.14h4.49V51.28h-3a20.18,20.18,0,0,0-2.54.1V48.9a14.21,14.21,0,0,0,2.58.14h8.84a14.4,14.4,0,0,0,2.59-.14v2.48a20.26,20.26,0,0,0-2.55-.1h-3.34Z"/><path class="cls-4" d="M235.52,48.38a9.69,9.69,0,0,0-.73.7,34.89,34.89,0,0,1-4.69,4.09v8.49a14.9,14.9,0,0,0,.1,2.2h-2.78a11.13,11.13,0,0,0,.12-2.15v-7a32.26,32.26,0,0,1-7.1,3.22,7.2,7.2,0,0,0-1.33-2.26,29.16,29.16,0,0,0,10.43-5.17,15.84,15.84,0,0,0,3.7-3.72Z"/><path class="cls-4" d="M243.2,63.82a13.21,13.21,0,0,0,.12-2.22V48.86a12.8,12.8,0,0,0-.12-2h2.72a13.33,13.33,0,0,0-.08,2.09v3.7a58,58,0,0,1,9,4.19l-1.39,2.34a47.72,47.72,0,0,0-7-3.79,6.46,6.46,0,0,1-.68-.34,10.19,10.19,0,0,1,.08,1.35v5.25a21.55,21.55,0,0,0,.08,2.2Z"/><path class="cls-4" d="M263.07,63.82a13.21,13.21,0,0,0,.12-2.22V48.86a12.8,12.8,0,0,0-.12-2h2.72a13.33,13.33,0,0,0-.08,2.09v3.7a58,58,0,0,1,9,4.19l-1.39,2.34a47.19,47.19,0,0,0-7-3.79,6.46,6.46,0,0,1-.68-.34,10.19,10.19,0,0,1,.08,1.35v5.25a21.55,21.55,0,0,0,.08,2.2Z"/><path class="cls-4" d="M284.47,47.31a15.3,15.3,0,0,0-.12,2l-.1,11.34a14.38,14.38,0,0,0,5.43-2.18,11.81,11.81,0,0,0,4.05-4.55,9,9,0,0,0,1.89,2,14.83,14.83,0,0,1-4.43,4.63A18.1,18.1,0,0,1,284,63.3a5.73,5.73,0,0,0-1.2.34l-1.27-1.53a6.89,6.89,0,0,0,.18-2l.08-10.73a9.67,9.67,0,0,0-.1-2.05Z"/><path class="cls-4" d="M299,53.93a19.35,19.35,0,0,0,3.22.14h10.59a19.5,19.5,0,0,0,3.22-.14v2.76a21.78,21.78,0,0,0-3.24-.1H302.2a21.61,21.61,0,0,0-3.24.1Z"/><path class="cls-4" d="M319.09,58.87a13.71,13.71,0,0,0,2.54.14H333a13.78,13.78,0,0,0,2.54-.14v2.67a19.56,19.56,0,0,0-2.5-.1H321.59a19.56,19.56,0,0,0-2.5.1Zm2-9.67a12.21,12.21,0,0,0,2.34.14h7.81a12.21,12.21,0,0,0,2.34-.14v2.62a16.92,16.92,0,0,0-2.32-.1h-7.85a16.92,16.92,0,0,0-2.32.1Z"/><path class="cls-4" d="M339.68,60.54a18.8,18.8,0,0,0,5.88-1.47,13.29,13.29,0,0,0,5.9-4.86,16.7,16.7,0,0,0,2-4,8.72,8.72,0,0,0,2.11,2,17.51,17.51,0,0,1-6.3,7.79,21.51,21.51,0,0,1-7.57,3,8.32,8.32,0,0,0-1.31.33Zm1.69-12.33A28.24,28.24,0,0,1,346.49,52l-1.71,2.17a21.16,21.16,0,0,0-5.06-4Z"/><path class="cls-4" d="M374.11,50.59a3.86,3.86,0,0,0-.49,1.19,19.6,19.6,0,0,1-4,7.51,20,20,0,0,1-7.07,5,6.69,6.69,0,0,0-1.69-2.09A16,16,0,0,0,371,51.52l-6,.08a19.63,19.63,0,0,1-4.65,5.11A5.22,5.22,0,0,0,358.46,55a15.7,15.7,0,0,0,5.14-5.76,7.61,7.61,0,0,0,1-2.64l2.72.55a2.39,2.39,0,0,0-.34.6c-.16.36-.34.75-.54,1.15-.1.18-.1.2-.14.28l-.15.3c.23,0,.55,0,.95,0l4.35-.06a9.43,9.43,0,0,0,1,0,12.29,12.29,0,0,0-1.45-2.49l1.47-.49a12.55,12.55,0,0,1,1.77,3.14l-.85.31Zm1.29-1.43a13.74,13.74,0,0,0-1.71-3.08l1.43-.5a11.41,11.41,0,0,1,1.75,3Z"/><path class="cls-4" d="M35,61.27h3.08v7.09c0,2,2.26,3.61,4.25,3.61.64,0,2.37-.17,2.37-.45v1.75c0,2,2.15,3.61,4.14,3.61S53,75.26,53,73.27v-12h2.59l4-3V54.65H53V44.84c0-2-2.15-3.6-4.14-3.6s-4.14,1.61-4.14,3.6v1.75c0-.28-1.73-.45-2.37-.45-2,0-4.25,1.61-4.25,3.6v4.91H35a3.32,3.32,0,0,0,0,6.62Z"/><path class="cls-4" d="M108.31,54.65h-4V49.74c0-2-2.26-3.6-4.26-3.6-.62,0-2.37.17-2.37.45V44.84c0-2-2.15-3.6-4.14-3.6s-4.14,1.61-4.14,3.6V55.27h0v6.94h0V73.27c0,2,2.15,3.61,4.15,3.61s4.13-1.62,4.13-3.61V71.52c0,.28,1.75.45,2.37.45,2,0,4.26-1.61,4.26-3.61V61.27h4a3.32,3.32,0,0,0,0-6.62Z"/><path class="cls-4" d="M65.42,44.12a2.54,2.54,0,0,0-2.49,2.77V58.15L58,62.86A6.54,6.54,0,0,0,57.3,71l3.27,4.57a12.2,12.2,0,0,1,2.14,5.84c0,2.58,2.43,4.7,5.49,4.7H79.12a5.41,5.41,0,0,0,5.34-5.59V79.31c0-2,1.37-5.27,2.13-7.21a11.07,11.07,0,0,0,.76-2.79,9.59,9.59,0,0,0-.88-3.63c0-.08-.36-.16-.36-.23V51.84a2.5,2.5,0,1,0-5,0v7.64A14,14,0,0,0,78,58.86,13.52,13.52,0,0,0,71.4,60.4a4,4,0,0,0-2.21,3,5.46,5.46,0,0,0,1.43,4.56c.18.19.36.4.53.59l-.06,0a14.63,14.63,0,0,1-5.19-4.92l3.59-5.4C70,57.55,71,56.3,71.73,56.3h6.36c1.53,0,2.66-.48,2.66-2,0-.93-1.26-1-1.26-1.49V48.64a2.5,2.5,0,1,0-5,0v2.7H72.86v-2.7a2.5,2.5,0,1,0-5,0v3.79q0,.09-.27.24a2.35,2.35,0,0,0,.27,0V46.89a2.54,2.54,0,0,0-2.48-2.77Z"/><path class="cls-4" d="M84.46,98.2V92.65c0-2.29-1-3.23-3.26-3.23H64.91c-2.3,0-3.64.94-3.64,3.23V98.2c0,2.3,1.34,4.47,3.64,4.47H81.2c2.29,0,3.26-2.18,3.26-4.47Z"/></g></g></svg>