<svg xmlns="http://www.w3.org/2000/svg" xmlns:xlink="http://www.w3.org/1999/xlink" width="414" height="55" viewBox="0 0 414 55"><defs><style>.cls-1{fill:#f58466;}.cls-2{fill:url(#GradientFill_1);}.cls-3{fill:#fff;}.cls-4{fill:#ccc;}</style><linearGradient id="GradientFill_1" x1="278" y1="55" x2="278" gradientUnits="userSpaceOnUse"><stop offset="0" stop-color="#231f20"/><stop offset="1" stop-color="#808284"/></linearGradient></defs><title>bn_weight_sm</title><g id="レイヤー_2" data-name="レイヤー 2"><g id="レイヤー_1-2" data-name="レイヤー 1"><path class="cls-1" d="M10,0H135a0,0,0,0,1,0,0V55a0,0,0,0,1,0,0H10A10,10,0,0,1,0,45V10A10,10,0,0,1,10,0Z"/><path class="cls-2" d="M142,0H404a10,10,0,0,1,10,10V45a10,10,0,0,1-10,10H142a0,0,0,0,1,0,0V0A0,0,0,0,1,142,0Z"/><path class="cls-3" d="M38.91,19.17h2.4V24.7c0,1.55,1.77,2.82,3.32,2.82.5,0,1.85-.14,1.85-.36v1.36c0,1.56,1.68,2.82,3.23,2.82s3.23-1.26,3.23-2.82V19.17h2l3.15-2.35V14H52.94V6.36c0-1.56-1.68-2.82-3.23-2.82S46.48,4.8,46.48,6.36V7.72c0-.22-1.35-.36-1.85-.36-1.55,0-3.32,1.26-3.32,2.81V14h-2.4a2.59,2.59,0,0,0,0,5.17Z"/><path class="cls-3" d="M96.09,14H93V10.17c0-1.55-1.76-2.81-3.32-2.81-.49,0-1.85.14-1.85.36V6.36c0-1.56-1.68-2.82-3.23-2.82a3.19,3.19,0,0,0-3.22,2.82v8.13h0V19.9h0v8.62a3.25,3.25,0,0,0,6.45,0V27.16c0,.22,1.36.36,1.85.36,1.56,0,3.32-1.27,3.32-2.82V19.17h3.11a2.59,2.59,0,0,0,0-5.17Z"/><path class="cls-3" d="M62.63,5.79A2,2,0,0,0,60.69,8v8.79l-3.82,3.67a5.1,5.1,0,0,0-.57,6.35l2.55,3.56a9.55,9.55,0,0,1,1.67,4.56c0,2,1.89,3.66,4.28,3.66h8.52a4.21,4.21,0,0,0,4.16-4.35v-.95c0-1.59,1.07-4.11,1.67-5.62a9.21,9.21,0,0,0,.59-2.18,7.53,7.53,0,0,0-.69-2.84c0-.05-.28-.12-.28-.17V11.81a1.95,1.95,0,1,0-3.87,0v6a10.69,10.69,0,0,0-2.45-.48,10.53,10.53,0,0,0-5.16,1.19,3.22,3.22,0,0,0-1.72,2.32,4.27,4.27,0,0,0,1.12,3.56c.14.15.28.3.41.46l0,0A11.54,11.54,0,0,1,63,21l2.81-4.21c.36-.47,1.15-1.45,1.74-1.45h5c1.19,0,2.08-.37,2.08-1.57,0-.72-1-.76-1-1.16V9.31a2,2,0,1,0-3.88,0v2.11H68.44V9.31a2,2,0,1,0-3.88,0v3c0,.05-.07.11-.21.19h.21V8a2,2,0,0,0-1.93-2.16Z"/><path class="cls-3" d="M77.48,48V43.64c0-1.79-.75-2.51-2.54-2.51H62.24c-1.8,0-2.84.72-2.84,2.51V48c0,1.79,1,3.49,2.84,3.49h12.7c1.79,0,2.54-1.7,2.54-3.49Z"/><path class="cls-4" d="M221.71,44.8l-3.23-12.17h1.66l1.85,8q.3,1.26.51,2.49c.31-1.3.49-2.05.55-2.25l2.32-8.22h1.94l1.74,6.16A33.54,33.54,0,0,1,230,43.1c.15-.77.35-1.65.6-2.65l1.91-7.82h1.62L230.79,44.8h-1.55l-2.56-9.27c-.22-.77-.35-1.25-.39-1.43-.12.56-.24,1-.35,1.43l-2.58,9.27Z"/><path class="cls-4" d="M241.17,42l1.54.2a3.75,3.75,0,0,1-1.35,2.1,4.12,4.12,0,0,1-2.52.74,4,4,0,0,1-3.07-1.19,4.63,4.63,0,0,1-1.13-3.34A4.88,4.88,0,0,1,235.78,37a3.89,3.89,0,0,1,3-1.23,3.76,3.76,0,0,1,2.89,1.2,4.77,4.77,0,0,1,1.12,3.39v.4h-6.58A3.4,3.4,0,0,0,237,43a2.45,2.45,0,0,0,1.85.77,2.28,2.28,0,0,0,1.4-.43A2.84,2.84,0,0,0,241.17,42Zm-4.91-2.41h4.93a3,3,0,0,0-.57-1.67,2.29,2.29,0,0,0-1.85-.86,2.37,2.37,0,0,0-1.73.69A2.71,2.71,0,0,0,236.26,39.55Z"/><path class="cls-4" d="M244.6,34.35V32.63h1.49v1.72Zm0,10.45V36h1.49V44.8Z"/><path class="cls-4" d="M248.09,45.53l1.46.22a1.37,1.37,0,0,0,.5,1,2.47,2.47,0,0,0,1.52.41,2.63,2.63,0,0,0,1.6-.41,2.07,2.07,0,0,0,.77-1.16,10.11,10.11,0,0,0,.1-1.92,3.05,3.05,0,0,1-2.44,1.15,3.3,3.3,0,0,1-2.81-1.31,5.06,5.06,0,0,1-1-3.14,5.91,5.91,0,0,1,.46-2.33,3.7,3.7,0,0,1,1.32-1.65,3.57,3.57,0,0,1,2-.58,3.18,3.18,0,0,1,2.58,1.26V36h1.37v7.62a7.26,7.26,0,0,1-.42,2.92,3.07,3.07,0,0,1-1.32,1.35,4.55,4.55,0,0,1-2.24.5,4.25,4.25,0,0,1-2.55-.71A2.39,2.39,0,0,1,248.09,45.53Zm1.24-5.29a3.82,3.82,0,0,0,.69,2.53,2.26,2.26,0,0,0,3.45,0,3.64,3.64,0,0,0,.7-2.48,3.61,3.61,0,0,0-.72-2.44,2.21,2.21,0,0,0-1.73-.82,2.17,2.17,0,0,0-1.69.8A3.61,3.61,0,0,0,249.33,40.24Z"/><path class="cls-4" d="M257.82,44.8V32.63h1.5V37A3.31,3.31,0,0,1,262,35.79a3.64,3.64,0,0,1,1.7.38,2.31,2.31,0,0,1,1,1.07,4.9,4.9,0,0,1,.31,2V44.8h-1.49V39.22a2.27,2.27,0,0,0-.49-1.63,1.8,1.8,0,0,0-1.37-.51,2.42,2.42,0,0,0-1.25.34,2,2,0,0,0-.84.93,4.49,4.49,0,0,0-.24,1.63V44.8Z"/><path class="cls-4" d="M270.54,43.47l.21,1.32a5.37,5.37,0,0,1-1.13.13,2.57,2.57,0,0,1-1.26-.26,1.4,1.4,0,0,1-.63-.67,5.46,5.46,0,0,1-.18-1.77V37.15h-1.1V36h1.1V33.81l1.49-.9V36h1.5v1.16H269v5.16a2.84,2.84,0,0,0,.07.82.66.66,0,0,0,.26.29,1,1,0,0,0,.51.11A4.7,4.7,0,0,0,270.54,43.47Z"/><path class="cls-4" d="M279.7,44.8V34.07h-4V32.63h9.65v1.44h-4V44.8Z"/><path class="cls-4" d="M286.15,44.8V36h1.35v1.34a3.59,3.59,0,0,1,.95-1.24,1.65,1.65,0,0,1,1-.3,2.91,2.91,0,0,1,1.53.48l-.51,1.39a2.12,2.12,0,0,0-1.1-.33,1.4,1.4,0,0,0-.88.3,1.56,1.56,0,0,0-.55.82,5.67,5.67,0,0,0-.25,1.74V44.8Z"/><path class="cls-4" d="M297.58,43.72a5.32,5.32,0,0,1-1.6,1,4.46,4.46,0,0,1-1.64.29,3.19,3.19,0,0,1-2.24-.71,2.32,2.32,0,0,1-.78-1.81,2.35,2.35,0,0,1,.3-1.18,2.29,2.29,0,0,1,.77-.86,3.6,3.6,0,0,1,1.07-.49,12,12,0,0,1,1.33-.23,13.4,13.4,0,0,0,2.67-.51c0-.21,0-.34,0-.39a1.67,1.67,0,0,0-.43-1.29,2.48,2.48,0,0,0-1.7-.5,2.64,2.64,0,0,0-1.56.37,2.25,2.25,0,0,0-.74,1.3l-1.46-.2a3.5,3.5,0,0,1,.66-1.51,2.81,2.81,0,0,1,1.32-.89,5.8,5.8,0,0,1,2-.31,5.47,5.47,0,0,1,1.83.26,2.43,2.43,0,0,1,1,.67,2.28,2.28,0,0,1,.46,1,8.16,8.16,0,0,1,.08,1.38v2a22.53,22.53,0,0,0,.09,2.64,3.4,3.4,0,0,0,.38,1h-1.56A3.42,3.42,0,0,1,297.58,43.72Zm-.12-3.34a10.83,10.83,0,0,1-2.44.56,5.82,5.82,0,0,0-1.31.3,1.36,1.36,0,0,0-.59.49,1.33,1.33,0,0,0-.2.71,1.25,1.25,0,0,0,.45,1,1.91,1.91,0,0,0,1.32.4,3.11,3.11,0,0,0,1.54-.37,2.36,2.36,0,0,0,1-1,3.6,3.6,0,0,0,.24-1.49Z"/><path class="cls-4" d="M301.29,34.35V32.63h1.5v1.72Zm0,10.45V36h1.5V44.8Z"/><path class="cls-4" d="M305.06,44.8V36h1.35v1.25a3.15,3.15,0,0,1,2.8-1.45,3.57,3.57,0,0,1,1.47.29,2.32,2.32,0,0,1,1,.75,2.88,2.88,0,0,1,.46,1.1,8.16,8.16,0,0,1,.08,1.45V44.8h-1.49V39.44a4.16,4.16,0,0,0-.17-1.36,1.47,1.47,0,0,0-.62-.73,2,2,0,0,0-1-.27,2.44,2.44,0,0,0-1.65.61,3,3,0,0,0-.69,2.3V44.8Z"/><path class="cls-4" d="M314.52,34.35V32.63H316v1.72Zm0,10.45V36H316V44.8Z"/><path class="cls-4" d="M318.29,44.8V36h1.35v1.25a3.15,3.15,0,0,1,2.8-1.45,3.57,3.57,0,0,1,1.47.29,2.32,2.32,0,0,1,1,.75,2.88,2.88,0,0,1,.46,1.1,7.91,7.91,0,0,1,.09,1.45V44.8H324V39.44a4.16,4.16,0,0,0-.17-1.36,1.42,1.42,0,0,0-.62-.73,2,2,0,0,0-1-.27,2.44,2.44,0,0,0-1.65.61,3,3,0,0,0-.69,2.3V44.8Z"/><path class="cls-4" d="M327.47,45.53l1.46.22a1.41,1.41,0,0,0,.5,1,2.47,2.47,0,0,0,1.52.41,2.63,2.63,0,0,0,1.6-.41,2.07,2.07,0,0,0,.77-1.16,10.11,10.11,0,0,0,.1-1.92A3.05,3.05,0,0,1,331,44.8a3.3,3.3,0,0,1-2.81-1.31,5.06,5.06,0,0,1-1-3.14,5.91,5.91,0,0,1,.46-2.33A3.77,3.77,0,0,1,329,36.37a3.57,3.57,0,0,1,2-.58,3.18,3.18,0,0,1,2.58,1.26V36h1.37v7.62a7.26,7.26,0,0,1-.42,2.92,3,3,0,0,1-1.32,1.35,4.55,4.55,0,0,1-2.24.5,4.25,4.25,0,0,1-2.55-.71A2.39,2.39,0,0,1,327.47,45.53Zm1.24-5.29a3.82,3.82,0,0,0,.69,2.53,2.26,2.26,0,0,0,3.45,0,3.64,3.64,0,0,0,.7-2.48,3.61,3.61,0,0,0-.72-2.44A2.21,2.21,0,0,0,331.1,37a2.17,2.17,0,0,0-1.69.8A3.61,3.61,0,0,0,328.71,40.24Z"/><path class="cls-3" d="M207.42,15a2.62,2.62,0,0,0-.25.93A14.07,14.07,0,0,1,206.1,20a9.94,9.94,0,0,1-4.2,4.7,15.79,15.79,0,0,1-3.38,1.53,6.29,6.29,0,0,0-1.36-2,11,11,0,0,0,3.62-1.41A8.44,8.44,0,0,0,204.86,16h-8.3v2.19c0,.53,0,1,.05,1.36h-2.27a13,13,0,0,0,.08-1.43V15.64a14.13,14.13,0,0,0-.07-1.62,12.85,12.85,0,0,0,1.84.09h3.33V12.64a7.36,7.36,0,0,0-.08-1.24h2.36a7.87,7.87,0,0,0-.09,1.23v1.46h3.06c1.26,0,1.26,0,1.67-.14Z"/><path class="cls-3" d="M218.63,22.33h4.11a11.44,11.44,0,0,0,2.21-.12v2.15a16.75,16.75,0,0,0-2.17-.09h-10.2a16.83,16.83,0,0,0-2.18.09V22.21a11.44,11.44,0,0,0,2.21.12h3.84v-7h-2.6a17.19,17.19,0,0,0-2.17.08V13.31a12.39,12.39,0,0,0,2.21.12h7.56a12.46,12.46,0,0,0,2.21-.12v2.12a17.18,17.18,0,0,0-2.18-.08h-2.85Z"/><path class="cls-3" d="M241.12,12.87a5.93,5.93,0,0,0-.63.59,30.11,30.11,0,0,1-4,3.5v7.26a12.84,12.84,0,0,0,.08,1.89h-2.38a9.11,9.11,0,0,0,.11-1.84v-6A27.67,27.67,0,0,1,228.22,21a6.69,6.69,0,0,0-1.14-1.94A24.72,24.72,0,0,0,236,14.68a13.4,13.4,0,0,0,3.16-3.18Z"/><path class="cls-3" d="M247.68,26.07a10.9,10.9,0,0,0,.1-1.9V13.27a10.71,10.71,0,0,0-.1-1.73H250a11,11,0,0,0-.07,1.78v3.17a49.28,49.28,0,0,1,7.72,3.58l-1.19,2a40.12,40.12,0,0,0-6-3.25,5.67,5.67,0,0,1-.58-.29,7.53,7.53,0,0,1,.07,1.16v4.49a18.77,18.77,0,0,0,.07,1.88Z"/><path class="cls-3" d="M264.68,26.07a10.9,10.9,0,0,0,.1-1.9V13.27a10.71,10.71,0,0,0-.1-1.73H267a11,11,0,0,0-.07,1.78v3.17a49.28,49.28,0,0,1,7.72,3.58l-1.19,2a40.12,40.12,0,0,0-6-3.25,5.67,5.67,0,0,1-.58-.29,7.53,7.53,0,0,1,.07,1.16v4.49a18.77,18.77,0,0,0,.07,1.88Z"/><path class="cls-3" d="M283,12a13.34,13.34,0,0,0-.1,1.71l-.09,9.71a12.24,12.24,0,0,0,4.64-1.87,10,10,0,0,0,3.47-3.89,8,8,0,0,0,1.62,1.73,12.77,12.77,0,0,1-3.79,4,15.56,15.56,0,0,1-6.19,2.33,5,5,0,0,0-1,.29l-1.09-1.31a6,6,0,0,0,.15-1.75l.07-9.18a8.76,8.76,0,0,0-.08-1.75Z"/><path class="cls-3" d="M295.38,17.61a16.94,16.94,0,0,0,2.76.12h9.06a16.87,16.87,0,0,0,2.75-.12V20a17.65,17.65,0,0,0-2.77-.09h-9a17.65,17.65,0,0,0-2.77.09Z"/><path class="cls-3" d="M312.6,21.84a12.08,12.08,0,0,0,2.18.12h9.76a12,12,0,0,0,2.17-.12v2.28a16.13,16.13,0,0,0-2.14-.09h-9.82a16.4,16.4,0,0,0-2.15.09Zm1.72-8.28a10.72,10.72,0,0,0,2,.12H323a10.66,10.66,0,0,0,2-.12v2.25a14.17,14.17,0,0,0-2-.09h-6.71a14.17,14.17,0,0,0-2,.09Z"/><path class="cls-3" d="M330.22,23.27a16.37,16.37,0,0,0,5-1.26,11.48,11.48,0,0,0,5.05-4.16,14.66,14.66,0,0,0,1.73-3.4,7.51,7.51,0,0,0,1.8,1.66,14.84,14.84,0,0,1-5.39,6.66A18.24,18.24,0,0,1,332,25.32a6.85,6.85,0,0,0-1.12.29Zm1.44-10.56A24.4,24.4,0,0,1,336.05,16l-1.47,1.86a17.72,17.72,0,0,0-4.33-3.46Z"/><path class="cls-3" d="M359.68,14.75a3.34,3.34,0,0,0-.43,1,16.71,16.71,0,0,1-3.42,6.43,17.14,17.14,0,0,1-6.05,4.3,5.53,5.53,0,0,0-1.44-1.79A13.67,13.67,0,0,0,357,15.55l-5.11.07a17,17,0,0,1-4,4.37,4.41,4.41,0,0,0-1.65-1.46,13.39,13.39,0,0,0,4.4-4.93,6.52,6.52,0,0,0,.87-2.27l2.33.48a1.91,1.91,0,0,0-.29.51c-.13.31-.29.65-.46,1-.08.15-.08.17-.12.23l-.13.26q.3,0,.81,0l3.73-.06a7.88,7.88,0,0,0,.88,0,10.61,10.61,0,0,0-1.24-2.12l1.26-.43a10.91,10.91,0,0,1,1.51,2.69l-.73.27Zm1.1-1.22a12.54,12.54,0,0,0-1.46-2.64l1.22-.42a9.92,9.92,0,0,1,1.5,2.58Z"/></g></g></svg>