<svg xmlns="http://www.w3.org/2000/svg" width="194.73" height="74.5" viewBox="0 0 194.73 74.5"><defs><style>.cls-1{fill:#fff;}</style></defs><title>logo_white</title><g id="レイヤー_2" data-name="レイヤー 2"><g id="レイヤー_1-2" data-name="レイヤー 1"><path class="cls-1" d="M0,55.91a18.17,18.17,0,0,1,6-14,18.68,18.68,0,0,1,13-5.1q9.57,0,14,7.92v-7h4.65v36l-4.65,0V66.84a13.59,13.59,0,0,1-6.12,5.76,18,18,0,0,1-8.25,1.9A18.12,18.12,0,0,1,5.35,69.18,17.93,17.93,0,0,1,0,55.91Zm4.91-1.08a15.35,15.35,0,0,0,3.8,10.44,12.62,12.62,0,0,0,10,4.52,14.2,14.2,0,0,0,10.1-4.05A13,13,0,0,0,33,55.91a14.14,14.14,0,0,0-3.94-10.14,13,13,0,0,0-9.77-4.14A14,14,0,0,0,8.94,46.05Q4.91,50.15,4.91,54.83Z"/><path class="cls-1" d="M44.56,55.64a18.16,18.16,0,0,1,5.82-13.88,17.67,17.67,0,0,1,12.41-5A21.56,21.56,0,0,1,73.4,39.41a17.41,17.41,0,0,1,8,9.13h-5.5q-4.1-6.9-13.1-6.91A12.56,12.56,0,0,0,52.94,46a14,14,0,0,0-3.6,9.65,13.76,13.76,0,0,0,4,10,13.47,13.47,0,0,0,10,4.1q8.38,0,12.67-6.65h5.37A21.22,21.22,0,0,1,74,71.65a19.7,19.7,0,0,1-23.59-2.39,17.5,17.5,0,0,1-6-13.42Z"/><path class="cls-1" d="M92,73.68V42.16H84.6V37.74H92V25.07h4.84V37.74h8.25v4.42H96.87V73.68Z"/><path class="cls-1" d="M110,33.41V25.07h4.85v8.34Zm0,40.27V37.74h4.85V73.68Z"/><path class="cls-1" d="M134.36,73.68l-15-35.94h5.17l12.36,29.77,12.34-29.77h5.22L139.34,73.68Z"/><path class="cls-1" d="M157.77,55.51a18.45,18.45,0,0,1,30.9-13.88q6.06,5.53,6.06,14.8v1H162.55a11.17,11.17,0,0,0,4.68,9.37,14.19,14.19,0,0,0,8.77,3,14.65,14.65,0,0,0,7.53-2.2,11,11,0,0,0,5.21-5.73h5a18.6,18.6,0,0,1-7.79,9.66,18.87,18.87,0,0,1-10.18,3,16.86,16.86,0,0,1-13-5.63A19,19,0,0,1,157.77,55.51ZM190,53a14,14,0,0,0-4.85-8.21,13.3,13.3,0,0,0-8.87-3.31,13,13,0,0,0-10.54,4.88A12.79,12.79,0,0,0,162.55,53Z"/><path class="cls-1" d="M39.56,15.15V.25h3.87c3.92,0,5.88,1.41,5.9,4.21,0,.07,0,.15,0,.25a1.77,1.77,0,0,1,0,.19,3.74,3.74,0,0,1-1.57,3.19,5.83,5.83,0,0,1-3.52,1H41.05v6ZM41.05,1.58V7.8h3c2.5,0,3.76-1.11,3.76-3.34q0-2.88-4.24-2.88Z"/><path class="cls-1" d="M51.12,15.15V4.09h1.37V5.74a3.27,3.27,0,0,1,3.19-1.9V5.37a3,3,0,0,0-2.06.82,2.77,2.77,0,0,0-1,2.16v6.8Z"/><path class="cls-1" d="M57.1,2.81V.25h1.48V2.81Zm0,12.34v-11h1.48v11Z"/><path class="cls-1" d="M64.56,15.15,60,4.13h1.59l3.78,9.13,3.78-9.13h1.6l-4.64,11Z"/><path class="cls-1" d="M71.71,9.7a5.54,5.54,0,0,1,1.84-4.29,5.71,5.71,0,0,1,4-1.57,4.55,4.55,0,0,1,4.28,2.43V4.13h1.43v11H81.83v-2.1A4.17,4.17,0,0,1,80,14.82,5.66,5.66,0,0,1,71.71,9.7Zm1.5-.33a4.68,4.68,0,0,0,1.17,3.2A3.85,3.85,0,0,0,77.43,14a4.36,4.36,0,0,0,3.09-1.24,4,4,0,0,0,1.31-3,4.3,4.3,0,0,0-1.21-3.1,3.94,3.94,0,0,0-3-1.27,4.32,4.32,0,0,0-3.18,1.35A3.78,3.78,0,0,0,73.21,9.37Z"/><path class="cls-1" d="M87,15.15V5.49H84.75V4.13H87V.25h1.48V4.13H91V5.49H88.51v9.66Z"/><path class="cls-1" d="M92.15,9.58a5.48,5.48,0,0,1,1.78-4.23,5.43,5.43,0,0,1,3.84-1.51,5.54,5.54,0,0,1,3.85,1.49,5.86,5.86,0,0,1,1.85,4.53v.3H93.61A3.43,3.43,0,0,0,95,13a4.33,4.33,0,0,0,2.69.93,4.5,4.5,0,0,0,2.31-.68,3.38,3.38,0,0,0,1.6-1.75h1.52a5.9,5.9,0,0,1-5.51,3.87,5.17,5.17,0,0,1-4-1.72A5.87,5.87,0,0,1,92.15,9.58ZM102,8.82a4.33,4.33,0,0,0-1.49-2.52,4.1,4.1,0,0,0-2.72-1,4,4,0,0,0-3.23,1.49,4,4,0,0,0-1,2Z"/><path class="cls-1" d="M110.69,7.71A7.31,7.31,0,0,1,113.15,2a7.57,7.57,0,0,1,5.2-2,8.42,8.42,0,0,1,4.14,1,6.76,6.76,0,0,1,3,3.18h-1.7a5.13,5.13,0,0,0-2.22-2.08,6.88,6.88,0,0,0-3.15-.71,5.91,5.91,0,0,0-4.61,2,6.24,6.24,0,0,0-1.67,4.28,5.89,5.89,0,0,0,2.1,4.61A6.19,6.19,0,0,0,118.39,14a7,7,0,0,0,3.45-.95,5.29,5.29,0,0,0,2.74-3.43h-8.21V8.27h10a7.73,7.73,0,0,1-7.94,7.12A7.59,7.59,0,0,1,113,13.15,7.31,7.31,0,0,1,110.69,7.71Z"/><path class="cls-1" d="M131.5,14.78,127.35,4.13h1.54l3.52,8.78,3.7-8.78h1.55L131.36,19h-1.57Z"/><path class="cls-1" d="M139.07,4.13h1.39V5.61a3,3,0,0,1,1.22-1.28,3.35,3.35,0,0,1,1.7-.45A4.19,4.19,0,0,1,147.21,6a4.09,4.09,0,0,1,1.49-1.49,3.82,3.82,0,0,1,2-.57,4.56,4.56,0,0,1,3.2,1.23,4.07,4.07,0,0,1,1.36,3.12v6.88h-1.44V8.51A3.1,3.1,0,0,0,153,6.24a3,3,0,0,0-2.23-.87,2.75,2.75,0,0,0-2,.77,2.7,2.7,0,0,0-.78,2v7h-1.52V8.39a2.89,2.89,0,0,0-.89-2.2,3.12,3.12,0,0,0-2.23-.82,2.65,2.65,0,0,0-1.91.72,3,3,0,0,0-.85,2.26v6.8h-1.48Z"/></g></g></svg>