<svg xmlns="http://www.w3.org/2000/svg" xmlns:xlink="http://www.w3.org/1999/xlink" width="441.96" height="199.4" viewBox="0 0 441.96 199.4"><defs><style>.cls-1{fill:#fff;}.cls-2{clip-path:url(#clip-path);}.cls-3,.cls-6,.cls-8{fill:none;}.cls-3,.cls-8{stroke:#231815;}.cls-3{stroke-miterlimit:8;stroke-width:0.82px;}.cls-4{fill:#231815;}.cls-5{fill:#888;}.cls-6{stroke:#888;stroke-linecap:round;stroke-linejoin:round;stroke-width:4.36px;}.cls-7{fill:#cf121b;}.cls-8{stroke-miterlimit:10;stroke-width:0.82px;}</style><clipPath id="clip-path"><rect class="cls-1" x="19.95" y="24.4" width="414" height="175"/></clipPath></defs><title>map</title><g id="レイヤー_2" data-name="レイヤー 2"><g id="レイヤー_1-2" data-name="レイヤー 1"><rect class="cls-1" x="19.95" y="24.4" width="414" height="175"/><g class="cls-2"><rect class="cls-3" x="20.65" y="178.01" width="412.6" height="4"/><rect class="cls-4" x="20.65" y="178.01" width="15.88" height="4"/><rect class="cls-4" x="52.4" y="178.01" width="15.88" height="4"/><rect class="cls-4" x="84.16" y="178.01" width="15.88" height="4"/><rect class="cls-4" x="115.91" y="178.01" width="15.88" height="4"/><rect class="cls-4" x="147.66" y="178.01" width="15.88" height="4"/><rect class="cls-4" x="179.42" y="178.01" width="15.88" height="4"/><rect class="cls-4" x="211.17" y="178.01" width="15.88" height="4"/><rect class="cls-4" x="242.92" y="178.01" width="15.88" height="4"/><rect class="cls-4" x="274.68" y="178.01" width="15.88" height="4"/><rect class="cls-4" x="306.43" y="178.01" width="15.88" height="4"/><rect class="cls-4" x="338.18" y="178.01" width="15.88" height="4"/><rect class="cls-4" x="369.93" y="178.01" width="15.88" height="4"/><rect class="cls-4" x="401.69" y="178.01" width="15.88" height="4"/><rect class="cls-4" x="311.35" y="165.26" width="86.58" height="27.11"/><path class="cls-1" d="M329,181.55c0,3-1.42,3.87-3.28,3.87a4.2,4.2,0,0,1-1.44-.24l.18-1a3.38,3.38,0,0,0,1.17.2c1.34,0,2.1-.59,2.1-2.89v-7.8H329Z"/><path class="cls-1" d="M335.94,179.68a2.91,2.91,0,0,1,1.7,2.42,18.12,18.12,0,0,0,.85,3.14h-1.3a14.49,14.49,0,0,1-.75-2.8c-.34-1.62-1-2.33-2.35-2.33h-1.41v5.13h-1.27V173.8a14,14,0,0,1,2.64-.24,4.4,4.4,0,0,1,3.18.94,2.94,2.94,0,0,1,.87,2.17,3,3,0,0,1-2.16,3Zm-1.77-.55c1.61,0,2.65-.91,2.65-2.31,0-1.72-1.29-2.26-2.71-2.26a6,6,0,0,0-1.43.13v4.44Z"/><path class="cls-1" d="M347,181.2v3.9h6.15V186H339.91v-.92h6v-3.9h-5.32v-.91h5.32v-2.13h-3.28v-.87A22.11,22.11,0,0,1,340,179a5.29,5.29,0,0,0-.64-.81,17.78,17.78,0,0,0,6.49-5.91l1.49.09a.36.36,0,0,1-.3.23,19.47,19.47,0,0,0,6.58,5.39,6,6,0,0,0-.69.9,21.61,21.61,0,0,1-6.53-5.54,17.56,17.56,0,0,1-3.73,3.85h7.66v.93H347v2.13h5.44v.91Zm-3.59,3.64A10.83,10.83,0,0,0,342,182l.83-.31a10.18,10.18,0,0,1,1.5,2.81Zm7.83-2.74a.32.32,0,0,1-.34.12,21.66,21.66,0,0,1-1.75,2.65l-.76-.38a18.11,18.11,0,0,0,1.7-2.89Z"/><path class="cls-1" d="M361.81,173.18v10.44h-5.75v1.18h-.9V173.18Zm-3.79.93h-2v3.73h2Zm-2,4.64v3.95h2v-3.95Zm4.83-.91v-3.73h-2v3.73Zm-2,4.86h2v-3.95h-2Zm10.05-8.44v1h-2.24v9.87c0,1.4-.63,1.41-3.64,1.41a4.77,4.77,0,0,0-.38-1l1.61,0c1.37,0,1.37,0,1.37-.41v-9.87h-3.58v-1Z"/><path class="cls-1" d="M371.16,182a7.94,7.94,0,0,1-.85,3.78l-.6-.35a7.46,7.46,0,0,0,.79-3.55Zm4.77-1.93.48.07v.31c-.22,3.92-.38,5.28-.78,5.74s-.59.41-1.28.41l-1,0a2.25,2.25,0,0,0-.24-.85c.58,0,1.09.06,1.31.06.44,0,.67-.06.88-2.23l-.52.23a8.86,8.86,0,0,0-.93-2l.52-.2a10.71,10.71,0,0,1,.92,1.92h0c.06-.65.12-1.48.18-2.51h-4v.39h-.88V173h5.68v.88H374v1.46h2v.84h-2v1.48h2v.83h-2v1.53h1.73Zm-2.84-6.11h-1.6v1.46h1.6Zm0,3.78v-1.48h-1.6v1.48Zm-1.6.83v1.53h1.6v-1.53Zm.32,6.46a16.15,16.15,0,0,0-.22-2.85l.56-.07a14.44,14.44,0,0,1,.27,2.83Zm1.47-3.14a9.89,9.89,0,0,1,.68,2.47l-.58.15a10.58,10.58,0,0,0-.64-2.5Zm10.2-2.59H381c.47,2.94,1.42,5.37,3.21,6.51a3.8,3.8,0,0,0-.7.83c-1.95-1.4-2.94-4-3.42-7.34h-1.56c0,2.32-.28,5.3-1.75,7.3a3.3,3.3,0,0,0-.82-.53c1.48-2,1.61-4.89,1.61-7.13V173h6Zm-1-5.26h-4v4.3h4Z"/><rect class="cls-5" x="324.13" y="127.68" width="61.42" height="37.58"/><path class="cls-1" d="M345.26,143.54v-3.69l1.36.1c0,.1-.11.18-.31.21v13.41h-1.05V150c-1.42.61-2.82,1.2-3.76,1.58a.27.27,0,0,1-.18.26l-.55-1.16c1.14-.38,2.82-1,4.49-1.7v-4.47h-4v-1Zm4.78,7.84c0,.79.15,1,.84,1h2.41c.74,0,.85-.67.95-3.24a2.62,2.62,0,0,0,1,.47c-.14,2.8-.42,3.78-1.89,3.78h-2.56c-1.39,0-1.8-.43-1.8-2V139.85l1.37.1c0,.1-.1.18-.32.21v5a24.06,24.06,0,0,0,4-2.88l.88,1a.24.24,0,0,1-.18.06.3.3,0,0,1-.13,0,32.4,32.4,0,0,1-4.53,2.93Z"/><path class="cls-1" d="M357.27,140.92h12v12.61h-1.1v-1.31h-9.85v1.38h-1.05Zm1.05,10.26h9.85v-9.24h-9.85Z"/><path class="cls-6" d="M324.13,149.09H188.62c-15.49,0-56.34-26.65-56.34-26.65L27.36,18.75"/><path class="cls-4" d="M171.84,160.5a4.76,4.76,0,1,1-4.76-4.75A4.76,4.76,0,0,1,171.84,160.5Z"/><path class="cls-4" d="M320.8,159.08a4.76,4.76,0,1,1-4.76-4.76A4.76,4.76,0,0,1,320.8,159.08Z"/><path class="cls-4" d="M248,137.67a4.76,4.76,0,1,1-4.76-4.76A4.76,4.76,0,0,1,248,137.67Z"/><path class="cls-4" d="M120.92,91.21a4.76,4.76,0,1,1-4.76-4.76A4.76,4.76,0,0,1,120.92,91.21Z"/><path class="cls-7" d="M98.55,65.45a6.9,6.9,0,1,1-6.9-6.9A6.89,6.89,0,0,1,98.55,65.45Z"/><path class="cls-4" d="M184.78,162l.17,0,.45.08,0,.24c-.17,2.44-.35,3.35-.67,3.69s-.63.31-1.1.31l-1,0a1.58,1.58,0,0,0-.16-.61,1.34,1.34,0,0,1-.81.17H179c-1.18,0-1.48-.18-1.48-1v-1.62a10,10,0,0,1-1.6,1.2,2.18,2.18,0,0,0-.53-.52,8.94,8.94,0,0,0,2.88-2.61h-1.1V158h7.41v3.25h-5.26s-.09.05-.18.06c-.14.21-.29.41-.46.63Zm-1.57-5.39H186v.68h-2.76v.57h-.75v-.57h-3.23v.57h-.76v-.57h-2.66v-.68h2.66v-.93l1,.05c0,.08-.08.14-.22.16v.72h3.23v-.93l1,.05c0,.08-.07.14-.23.16Zm-5.27,2v.82h5.9v-.82Zm0,1.33v.85h5.9v-.85Zm.3,4.93c0,.3.11.36.8.36h2.51c.47,0,.56-.1.61-.81a2.25,2.25,0,0,0,.64.25,1.62,1.62,0,0,1-.29.92c.5,0,1,.05,1.14.05s.31,0,.4-.12.38-1,.52-2.88h-6.42l-.19.2.49,0c0,.08-.06.13-.21.15v.82a20.6,20.6,0,0,0,3.49-.79l.6.53a.2.2,0,0,1-.11,0h-.1a24.14,24.14,0,0,1-3.88.77Z"/><path class="cls-4" d="M188.46,164.62l1.83-.42a11.78,11.78,0,0,0-.88-1.06l.58-.32a10.52,10.52,0,0,1,1.87,2.53l-.62.37a7.87,7.87,0,0,0-.55-1c-1.19.33-2.41.65-3.21.84a.19.19,0,0,1-.14.17l-.36-.82.79-.17v-5.94c-.12.12-.23.23-.35.33a2.15,2.15,0,0,0-.55-.49,10.19,10.19,0,0,0,2.36-3l.91.13c0,.09-.09.14-.22.15a14.48,14.48,0,0,1,2,1.78l-.55.5a13.33,13.33,0,0,0-1.77-1.71,13.7,13.7,0,0,1-1.64,2.19h1.29v-1.09l.88.05c0,.08-.07.13-.22.15v.89h1.46v3.72h-2.89Zm2.18-5.35h-2.18v.93h2.18Zm-2.18,2.51h2.18v-1h-2.18Zm9.1-3.79h-2.48v1.65h2.11v4.09c0,.66-.28.78-1.33.78a2.19,2.19,0,0,0-.23-.65c.8,0,.83,0,.83-.13v-3.38h-1.38v5.88h-.73v-5.88H193v4.19h-.71v-4.88a3.76,3.76,0,0,1-.32.46,4.21,4.21,0,0,0-.5-.54,11.22,11.22,0,0,0,1.52-4l.93.25q0,.12-.24.12c-.1.44-.22.87-.35,1.29h4.19Zm-3.21,1.65V158h-1.23a9.72,9.72,0,0,1-.79,1.65Z"/><path class="cls-4" d="M200.66,162.68l1.32-.52.15.66c-1.19.55-2.46,1.08-3.26,1.42a.21.21,0,0,1-.12.2l-.4-.87c.43-.15,1-.37,1.58-.59v-3.79h-1.39v-.73h1.39v-2.73l.95.07c0,.08-.08.12-.22.15v2.51H202v.73h-1.29Zm3,1.83c0,.62.14.77.94.77h2.91c.69,0,.8-.32.89-1.69a1.91,1.91,0,0,0,.7.31c-.13,1.58-.38,2.08-1.57,2.08h-3c-1.29,0-1.65-.29-1.65-1.49v-3.84l-1.16.49-.29-.69,1.45-.61v-3.13l1,.07c0,.08-.08.14-.22.16v2.58l1.65-.71v-3.18l.95.05c0,.08-.07.14-.22.16v2.66l1.83-.78.16-.13.63.23a.28.28,0,0,1-.12.12,43.16,43.16,0,0,1-.12,4.41c-.11.7-.5.81-1.71.81a2.59,2.59,0,0,0-.18-.69c.29,0,.69,0,.81,0s.31-.06.37-.33a35.09,35.09,0,0,0,.09-3.62l-1.76.75v4.38h-.73v-4.06l-1.65.71Z"/><path class="cls-4" d="M220.34,164.83v.73h-9.11v.69h-.77v-9.89h9.62v.74h-8.85v7.73ZM213,158.42c.9.54,1.87,1.19,2.78,1.87a16.51,16.51,0,0,0,1.83-2.76l.92.39c0,.08-.15.11-.28.09a19.7,19.7,0,0,1-1.86,2.74,20.18,20.18,0,0,1,2.67,2.43l-.61.57a17.72,17.72,0,0,0-2.54-2.42,17.4,17.4,0,0,1-3.28,2.91c-.15-.14-.42-.38-.61-.52a15.61,15.61,0,0,0,3.28-2.87,32.56,32.56,0,0,0-2.83-1.95Z"/><path class="cls-4" d="M231.14,158.55a.47.47,0,0,1-.19.14,12.06,12.06,0,0,1-2.38,3.72,6.3,6.3,0,0,0-.69-.42,8.17,8.17,0,0,0,2-2.83l-4.38,1.15v2.95c0,1.12.68,1.5,1.59,1.5h1.86a15.61,15.61,0,0,0,1.7-.13c0,.25,0,.56,0,.8a16,16,0,0,1-1.68.09H227c-1.44,0-2.4-.67-2.4-2.25v-2.76l-2.87.74-.2-.76,3.07-.77v-3.47l1.11.05c0,.14-.13.21-.29.23v3l4.83-1.25.13-.09Z"/><path class="cls-4" d="M233.23,156.87a14.26,14.26,0,0,1,3.4,1.55l-.43.72a14.38,14.38,0,0,0-3.34-1.58Zm0,7.91c4.06-1.25,6.75-3.53,8.12-6.69a4.34,4.34,0,0,0,.74.47,13.08,13.08,0,0,1-8.08,6.85.38.38,0,0,1-.16.26Z"/><path class="cls-4" d="M251.33,157.87a.17.17,0,0,1-.13.13,14.91,14.91,0,0,1-1.68,3.78,16.17,16.17,0,0,1,1.47.95l-.48.75a16.37,16.37,0,0,0-1.47-1,10.84,10.84,0,0,1-4.12,3.47,2.4,2.4,0,0,0-.63-.6,10.74,10.74,0,0,0,4-3.29,19.72,19.72,0,0,0-2.52-1.18l.43-.64a19,19,0,0,1,2.57,1.15,11.5,11.5,0,0,0,1.38-3h-3.87a12.52,12.52,0,0,1-2.63,3.14A7,7,0,0,0,243,161a11.82,11.82,0,0,0,3.59-5.14l1.09.25a.26.26,0,0,1-.31.14c-.16.38-.42.94-.64,1.36h3.79l.16,0Z"/><path class="cls-4" d="M253.46,160.32H263v.81h-9.1a.49.49,0,0,1-.36.21Z"/><path class="cls-4" d="M30.85,194.84h4.81v.73H25.35v-.73h4.71v-2.39h-3.7v-.71h3.7V190l1,.07c0,.08-.08.14-.23.16v1.49h3.86v.71H30.85Zm4-4.17a8.66,8.66,0,0,0-.81-.85c-2.83.11-5.88.21-7.74.26a.21.21,0,0,1-.18.16l-.26-.94,1.78,0a18.66,18.66,0,0,0,1.24-2.35H25.6v-.72h9.88v.72H30a.28.28,0,0,1-.25.09,22.75,22.75,0,0,1-1.27,2.24c1.46,0,3.14-.07,4.79-.12-.56-.48-1.16-.95-1.72-1.35l.63-.44a19.61,19.61,0,0,1,3.3,2.83Z"/><path class="cls-4" d="M42.23,194.61c0,.59,0,.79.86.79h2.68c.56,0,.66-.23.73-1.28a2.36,2.36,0,0,0,.68.27c-.1,1.24-.33,1.61-1.39,1.61H43c-1.37,0-1.57-.35-1.57-1.39H38.33v.64h-.74v-4h3.88v-.57H38.12v-2.53a10.4,10.4,0,0,1-.95.61,2.62,2.62,0,0,0-.54-.51,8.11,8.11,0,0,0,3.16-2.84l1,.16c0,.08-.09.14-.24.14s-.18.26-.29.4H43l.11,0,.58.36a.19.19,0,0,1-.16.09,6.53,6.53,0,0,1-.68.95h2.89v3.2H42.23v.57h4.1v3.34Zm-.76-2.78H38.33v.84h3.14Zm-3.14,2.22h3.14v-.85H38.33Zm3.14-5.21V188H38.85v.81Zm-2.62,1.33h2.62v-.83H38.85Zm3.07-2.67a4.66,4.66,0,0,0,.56-.76H39.73c-.23.25-.49.51-.76.76Zm3,1.34V188H42.23v.81Zm0,1.33v-.83H42.23v.83Zm.66,1.66H42.23v.84h3.35Zm-3.35,2.22h3.35v-.85H42.23Z"/><path class="cls-4" d="M58.4,187.72H52.18c-.22.48-.46.94-.72,1.4H57v5.94c0,1-.46,1-2.5,1a2.92,2.92,0,0,0-.26-.77c.4,0,.77,0,1.08,0,.82,0,.91,0,.91-.26v-1.3H51.38v2.31h-.77V190.4a9.4,9.4,0,0,1-2,2,5.69,5.69,0,0,0-.51-.61,10.27,10.27,0,0,0,3.24-4.11h-3V187h3.32a15.85,15.85,0,0,0,.5-1.52l1,.25c0,.08-.11.12-.25.12-.11.38-.24.76-.39,1.15H58.4Zm-2.2,3.38v-1.28H51.38v1.28Zm-4.82,2H56.2v-1.3H51.38Z"/><path class="cls-4" d="M404,194.84h4.82v.73H398.49v-.73h4.71v-2.39h-3.7v-.71h3.7V190l1,.07c0,.08-.08.14-.23.16v1.49h3.86v.71H404Zm4-4.17a8.66,8.66,0,0,0-.81-.85c-2.83.11-5.88.21-7.74.26a.21.21,0,0,1-.18.16l-.26-.94,1.78,0a18.66,18.66,0,0,0,1.24-2.35h-3.26v-.72h9.88v.72h-5.45a.28.28,0,0,1-.25.09,22.75,22.75,0,0,1-1.27,2.24c1.46,0,3.14-.07,4.79-.12-.56-.48-1.16-.95-1.72-1.35l.63-.44a19.61,19.61,0,0,1,3.3,2.83Z"/><path class="cls-4" d="M412.39,189.77c.37.4,1.37,1.68,1.61,2l-.49.6c-.2-.37-.71-1.13-1.12-1.7V196h-.74v-5.69a12.78,12.78,0,0,1-1.63,3.51,3,3,0,0,0-.42-.69,12.91,12.91,0,0,0,2-4.49h-1.68V188h1.77v-2.51l1,.06c0,.08-.07.13-.22.15V188h1.54v.72h-1.54Zm4.23-3.91c0,.08-.11.12-.24.11a11.68,11.68,0,0,1-2,4.48,3.46,3.46,0,0,0-.6-.47,10.23,10.23,0,0,0,1.91-4.39Zm.87,4.39c0,.08-.13.13-.27.14a43.3,43.3,0,0,1-1.6,4.35l3.47-.17a18.34,18.34,0,0,0-1.28-2.16l.67-.32a21.11,21.11,0,0,1,2,3.62l-.72.37c-.1-.25-.21-.53-.36-.84l-5.22.35a.24.24,0,0,1-.18.16l-.27-.94,1.1-.05a32.09,32.09,0,0,0,1.62-4.82Zm1-4.68a13.37,13.37,0,0,0,2,4.24,3.31,3.31,0,0,0-.63.61,17.22,17.22,0,0,1-2.06-4.62Z"/><path class="cls-4" d="M430.58,188.24v4.65h-.78v-.62h-6.47a6.32,6.32,0,0,1-1.62,3.84,2.72,2.72,0,0,0-.6-.53,6.42,6.42,0,0,0,1.51-4.7v-2.64Zm-9.1-2.06h10v.74h-10ZM429.8,189h-6.4v1.92c0,.22,0,.43,0,.66h6.41Z"/><path class="cls-4" d="M132.66,93.43h-3.09a11.39,11.39,0,0,0,4.28,2.68,3.07,3.07,0,0,0-.53.66,12.25,12.25,0,0,1-4.42-3.07v3.24h-.79v-3.2a12.33,12.33,0,0,1-4.33,3,2.91,2.91,0,0,0-.53-.63,11.66,11.66,0,0,0,4.2-2.68h-2.91V89.22h3.57v-1h-4.59v-.73h4.59v-1.1l1,.05c0,.08-.07.14-.23.16v.89h4.71v.73H128.9v1h3.76Zm-7.37-3.58V91h2.82V89.85Zm0,1.77v1.2h2.82v-1.2Zm6.6-1.77h-3V91h3Zm0,3v-1.2h-3v1.2Z"/><path class="cls-4" d="M137.83,94a.24.24,0,0,1-.25.1,10.13,10.13,0,0,1-2.23,2.44,3.38,3.38,0,0,0-.62-.45,7.58,7.58,0,0,0,2.15-2.4ZM145,87.72v.74H134.89v-.74h4.64v-1.4l1,.06c0,.09-.06.15-.22.16v1.18Zm-1.39,5.22h-3.32V96c0,.92-.4.93-2.56.93a3.6,3.6,0,0,0-.27-.73l1.27,0c.7,0,.76,0,.76-.23V92.94h-3.16V89.57h7.28Zm-6.52-2.69v2h5.72v-2Zm7.19,6.31A19,19,0,0,0,142.15,94l.69-.34a21.58,21.58,0,0,1,2.22,2.49Z"/><path class="cls-4" d="M146.34,95.29h10v.78h-10Zm.67-7.84h8.73v.78H147Zm.74,3.8h7.1V92h-7.1Z"/><path class="cls-4" d="M165.63,93.13l.54.29a.27.27,0,0,1-.12.09,5.79,5.79,0,0,1-2.41,2,16.54,16.54,0,0,0,4.35.75,3.34,3.34,0,0,0-.4.65,15.2,15.2,0,0,1-4.78-1,19.2,19.2,0,0,1-5,1,2.51,2.51,0,0,0-.3-.67,18.39,18.39,0,0,0,4.46-.77,5.51,5.51,0,0,1-1.54-1.28,10.17,10.17,0,0,1-1.87.87,2.08,2.08,0,0,0-.45-.53,7.55,7.55,0,0,0,3.66-2.26l.91.17c0,.08-.09.13-.24.13a4.26,4.26,0,0,1-.51.54h3.54Zm-4.41-2,.46,0c0,.07-.09.12-.21.14-.43,1.05-1.27,1.73-3.54,2.08a2.52,2.52,0,0,0-.39-.59c2-.26,2.86-.75,3.19-1.69h-3.08v-.64h4.72v-.88H159V89h3.33v-.76l1,.06c0,.08-.06.14-.21.16V89h3.52v.62h-3.52v.88h4.79v.64h-3.34V92c0,.23.07.26.54.26h1.71c.34,0,.41,0,.44-.64a1.54,1.54,0,0,0,.62.23c-.08.81-.3,1-1,1h-1.84c-1,0-1.21-.16-1.21-.87v-.8h-2.66Zm-.81-2.5v-.77h-2.75v-.68h2.75v-.87l1,0c0,.08-.07.14-.22.16v.66h3.19v-.87l1,0c0,.09-.07.14-.22.16v.66h2.8v.68h-2.8v.8h-.76v-.8h-3.19v.77Zm.82,5.08-.22.15a5,5,0,0,0,1.78,1.33A5.49,5.49,0,0,0,165,93.74Z"/><path class="cls-4" d="M175.46,92.48c0,2.61-1.35,3.63-3.09,3.63s-2.91-1-2.91-3.58V87.28h.95v5.26c0,2,.87,2.78,2,2.78s2.09-.85,2.09-2.78V87.28h1Z"/><path class="cls-4" d="M177.4,96v-8.7h4.38v.8h-3.43v3.09h3.16V92h-3.16v4Z"/><path class="cls-4" d="M186,93.21c0,2.22-1.06,2.9-2.45,2.9a3,3,0,0,1-1.09-.19l.14-.77a2.61,2.61,0,0,0,.88.14c1,0,1.57-.44,1.57-2.16V87.28h1Z"/><path class="cls-4" d="M192,94.83l0,.65-4.27.82a.19.19,0,0,1-.16.16l-.26-.87c.57-.08,1.27-.19,2-.33V91.89H187.4V91.2h1.95V89.9h-1.29v-.28c-.14.15-.27.3-.42.44a2.65,2.65,0,0,0-.54-.52,10,10,0,0,0,2.28-3.22l.94.15c0,.08-.09.14-.23.14h0a17.57,17.57,0,0,1,2.08,1.95,5.23,5.23,0,0,0-.47.6,16,16,0,0,0-1.94-1.93,12.32,12.32,0,0,1-1.36,2h3v.68h-1.37v1.3h1.86v.69h-1.86v3.26Zm-3.74,0a9.41,9.41,0,0,0-.51-2.17l.57-.15a9,9,0,0,1,.53,2.14Zm3.66-2.14c0,.07-.11.1-.23.1a15.32,15.32,0,0,1-.69,1.93l-.53-.19a15.74,15.74,0,0,0,.67-2.11Zm3.19-.88a10.4,10.4,0,0,0,.61,1.86,11.68,11.68,0,0,0,1.54-1.37l.67.6a.27.27,0,0,1-.25,0,18.69,18.69,0,0,1-1.67,1.3,4.71,4.71,0,0,0,2,2.07,2.4,2.4,0,0,0-.5.64c-1.62-.92-2.58-2.82-3.07-5.15h-1.14v3.87c.74-.12,1.55-.28,2.36-.43l.06.67c-1.33.3-2.7.59-3.57.77a.23.23,0,0,1-.16.17l-.3-.89.87-.15v-9h4.76v5Zm1.49-4.28h-3.28V89h3.28Zm-3.28,2.1v1.47h3.28V89.62Z"/><path class="cls-4" d="M202.17,86.71c0,.06-.11.11-.25.08a15.91,15.91,0,0,1-2.86,2.64,4.44,4.44,0,0,0-.45-.62,11,11,0,0,0,2.67-2.47Zm-1.74,10.23v-5a16,16,0,0,1-1.31,1.3,4.45,4.45,0,0,0-.49-.6,14.4,14.4,0,0,0,3.13-3.82l.89.37a.24.24,0,0,1-.26.09A16.36,16.36,0,0,1,201.21,91l.21.07c0,.07-.09.12-.23.15v5.75Zm8.82-6.56v.74h-1.82V96c0,1-.36,1-2.67,1a2.6,2.6,0,0,0-.25-.76l1.33,0c.74,0,.82,0,.82-.27V91.12h-4v-.74Zm-.44-3.33v.73h-5.69v-.73Z"/><path class="cls-4" d="M259.33,135.78a.32.32,0,0,1-.33.2,22.19,22.19,0,0,1-.51,2.33c.62.26,1.27.56,1.92.89l-.36.76c-.62-.3-1.21-.6-1.8-.85a6.55,6.55,0,0,1-2.54,3.64,4.55,4.55,0,0,0-.65-.48,6,6,0,0,0,2.46-3.49,11.32,11.32,0,0,0-3-.85c-.79,2.88-1.5,3.63-2.87,3.63a1.58,1.58,0,0,1-1.63-1.79c0-1.77,1.84-2.59,3.88-2.6a27.59,27.59,0,0,0,.62-3.22l-3.23.23a.41.41,0,0,1-.24.16l-.11-.93c1,0,3.11-.17,3.79-.24a.4.4,0,0,0,.25-.12l.71.42a.47.47,0,0,1-.28.18c-.19,1.27-.46,2.58-.71,3.56a11.9,11.9,0,0,1,3.07.81,20.14,20.14,0,0,0,.49-2.48Zm-5.65,2.11c-1.65,0-3,.67-3,1.88,0,.64.31,1.07.85,1.07C252.4,140.84,253,140.56,253.68,137.89Z"/><path class="cls-4" d="M267.94,132.84c0,.11-.08.2-.3.23,0,.33,0,1,0,1.54l3.71-.09v.76c-1,0-2.4,0-3.68.05,0,.42.05,2.07.09,2.37a5.61,5.61,0,0,1,.16,1.26,3.38,3.38,0,0,1-.14,1,4.62,4.62,0,0,1-3.31,3.18,4.27,4.27,0,0,0-.57-.63,4.16,4.16,0,0,0,3-2.6h0a1.35,1.35,0,0,1-1.16.59,1.89,1.89,0,0,1-1.91-2,2.07,2.07,0,0,1,2.07-2.14,1.49,1.49,0,0,1,1.05.39c0-.21-.06-1.25-.06-1.48l-2.58.1c-.74,0-1.81.05-2.56.09l0-.76c.68,0,1.67,0,2.54-.07l2.6-.08-.06-1.85Zm-.86,5.77c0-.15,0-.36,0-.57a1.18,1.18,0,0,0-1.16-.92,1.35,1.35,0,0,0-1.34,1.46,1.3,1.3,0,0,0,1.25,1.33A1.25,1.25,0,0,0,267.08,138.61Zm3-4.23a8,8,0,0,0-1.35-1.62l.43-.31a8.51,8.51,0,0,1,1.38,1.6Zm1.67-.32a9.23,9.23,0,0,0-1.35-1.61l.41-.32a8.73,8.73,0,0,1,1.38,1.59Z"/><path class="cls-4" d="M273.86,142.41a12,12,0,0,1-.54-3.87,28.21,28.21,0,0,1,.69-5.4l1.1.2a.31.31,0,0,1-.31.19,23.63,23.63,0,0,0-.72,5,13.22,13.22,0,0,0,.13,2.07,23.16,23.16,0,0,1,.91-2.34l.5.47a10.74,10.74,0,0,0-1.09,3,1.38,1.38,0,0,0,.09.49Zm3-8.72h1.54a18.8,18.8,0,0,0,3.77-.31l.09.73a17.57,17.57,0,0,1-2,.22h.16c0,.09-.09.14-.22.16,0,.47,0,1.28.08,2.1a13.07,13.07,0,0,0,2.31-.38l.09.74a12.72,12.72,0,0,1-2.37.35l.15,2.42a9.66,9.66,0,0,1,2.33,1.45l-.43.7a10.74,10.74,0,0,0-1.9-1.32c.07,1.21-.3,2-1.8,2-1.27,0-2.24-.56-2.24-1.59s1-1.59,2.25-1.59a4,4,0,0,1,1,.15c0-.56-.08-1.41-.12-2.17-.55,0-2.29,0-2.91,0v-.71h1.8c.35,0,.72,0,1.06,0,0-.83-.08-1.67-.1-2.28-.33,0-.73,0-1.06,0h-1.52Zm2.89,6.56a3.09,3.09,0,0,0-1.06-.22c-.87,0-1.53.32-1.53.94s.63.94,1.49.94,1.11-.4,1.11-1.18Z"/><path class="cls-4" d="M288.78,141l0,.65-4.27.82a.19.19,0,0,1-.16.16l-.26-.87c.57-.08,1.28-.19,2.05-.33V138h-1.95v-.7h1.95V136h-1.29v-.28c-.14.15-.27.3-.42.44a2.65,2.65,0,0,0-.54-.52,10.32,10.32,0,0,0,2.29-3.21l.93.14c0,.08-.09.14-.23.14h0a16.82,16.82,0,0,1,2.08,2,6.75,6.75,0,0,0-.47.6,16,16,0,0,0-1.94-1.93,12.84,12.84,0,0,1-1.36,2h3V136h-1.37v1.3h1.86v.7h-1.86v3.25ZM285,141a9.41,9.41,0,0,0-.51-2.17l.57-.15a9,9,0,0,1,.53,2.15Zm3.66-2.14a.22.22,0,0,1-.22.11,17.73,17.73,0,0,1-.7,1.92l-.53-.19a15.29,15.29,0,0,0,.67-2.11Zm3.19-.88a10.14,10.14,0,0,0,.61,1.86,13.32,13.32,0,0,0,1.55-1.36l.66.59a.27.27,0,0,1-.25.06c-.43.37-1.11.91-1.67,1.3a4.79,4.79,0,0,0,2,2.06,2.57,2.57,0,0,0-.5.64c-1.62-.92-2.58-2.82-3.07-5.15H290.1v3.87c.74-.12,1.55-.28,2.36-.43l.06.67c-1.33.3-2.7.6-3.57.77a.22.22,0,0,1-.15.17l-.31-.89.88-.15v-9h4.76v5Zm1.49-4.28H290.1v1.43h3.28Zm-3.28,2.1v1.48h3.28v-1.48Z"/><path class="cls-4" d="M299,132.85c0,.06-.11.11-.25.08a15.55,15.55,0,0,1-2.86,2.64,3.76,3.76,0,0,0-.45-.62,10.77,10.77,0,0,0,2.67-2.47Zm-1.74,10.23v-5a16,16,0,0,1-1.31,1.3,3.83,3.83,0,0,0-.49-.59,14.62,14.62,0,0,0,3.13-3.83l.89.37c0,.07-.12.11-.26.09a16.36,16.36,0,0,1-1.18,1.71l.21.07c0,.07-.09.13-.23.15v5.75Zm8.82-6.56v.74h-1.82v4.83c0,1-.36,1-2.67,1a2.45,2.45,0,0,0-.25-.75l1.33,0c.74,0,.82,0,.82-.26v-4.82h-4v-.74Zm-.43-3.32v.73H300v-.73Z"/><path class="cls-4" d="M239.55,106.66a.35.35,0,0,1-.17.12,19.37,19.37,0,0,1-4.62,4.59,21.24,21.24,0,0,1,2.34,2.22l-.69.61a23.86,23.86,0,0,0-5.38-4.42l.55-.58a21.51,21.51,0,0,1,2.54,1.69,17,17,0,0,0,4-3.9h-8.38v-.77h9l.13-.07Z"/><path class="cls-4" d="M242,106.17a14.28,14.28,0,0,1,1.09,3l-.76.25a14.94,14.94,0,0,0-1.08-3Zm8.54.14c0,.1-.14.15-.29.15-1.2,4-3.07,6.49-6.65,8.06a5,5,0,0,0-.54-.63c3.49-1.48,5.28-3.77,6.41-7.92Zm-4.93-.79a18.76,18.76,0,0,1,.61,3.24l-.81.13a18.43,18.43,0,0,0-.6-3.23Z"/><path class="cls-4" d="M256.41,109.88v2.58c0,.61.29,1,1.12,1h2.1a12.48,12.48,0,0,0,1.38-.08c0,.21,0,.6,0,.77a10.67,10.67,0,0,1-1.4.07h-2.16c-1.39,0-1.88-.73-1.88-1.78v-2.58h-3.26v-.75h3.26v-2.82h-2.44v-.75h7.35v.75h-4.09v2.82h5.17v.75Z"/><path class="cls-4" d="M270,110.86a41.83,41.83,0,0,0-4-1.86v5.71h-.85v-9.92l1.15.07c0,.13-.1.2-.3.24v3.33l.18-.24a39.8,39.8,0,0,1,4.29,1.91Z"/><path class="cls-4" d="M277.67,111.07l.41,3.58-.82.09-.4-3.57-4.28.55-.1-.75,4.3-.55-.3-2.57-3.58.47-.1-.77,3.59-.45-.25-2.26,1.12,0c0,.12-.1.21-.26.25l.2,1.94,3.47-.45.09.77-3.47.45.3,2.55,4.29-.53.1.75Z"/><path class="cls-4" d="M291.07,105.72v8.81h-.8v-.65h-6.53v-.76h6.53v-3h-5.94v-.76h5.94v-2.86h-6.2v-.76Z"/><path class="cls-4" d="M293.77,108.07a16.24,16.24,0,0,1,3.07,1l-.34.72a17.49,17.49,0,0,0-3.07-1Zm.68,5.58c3.71-1.25,6.25-3.22,7.76-6.65.18.15.53.39.7.51a12.51,12.51,0,0,1-7.68,6.74.27.27,0,0,1-.14.29Zm.57-8.41a18.38,18.38,0,0,1,3.06,1.11l-.37.7a17.55,17.55,0,0,0-3-1.15Z"/><rect class="cls-5" x="314.14" y="78.21" width="59.33" height="44.24"/><path class="cls-1" d="M327.1,103.27H324a11.49,11.49,0,0,0,4.28,2.67,3.46,3.46,0,0,0-.54.66,12.29,12.29,0,0,1-4.41-3.07v3.24h-.79v-3.2a12.49,12.49,0,0,1-4.33,3,2.74,2.74,0,0,0-.53-.64,11.77,11.77,0,0,0,4.2-2.67H319V99.05h3.57V98H318v-.74h4.59v-1.1l1,.06c0,.08-.07.13-.23.15v.89h4.71V98h-4.71v1h3.76Zm-7.37-3.59v1.18h2.82V99.68Zm0,1.77v1.2h2.82v-1.2Zm6.6-1.77h-3v1.18h3Zm0,3v-1.2h-3v1.2Z"/><path class="cls-1" d="M330.65,99.58v-.22a10.09,10.09,0,0,1-1,.73,2.61,2.61,0,0,0-.55-.55,8.62,8.62,0,0,0,3.13-3.41l1,.16c0,.08-.1.14-.24.14-.12.19-.23.4-.37.62H336l.13,0,.59.39a.28.28,0,0,1-.16.09,12.34,12.34,0,0,1-1,1.43h2.55v4h-4.41a6.88,6.88,0,0,1,1.84,1.09l-.51.56a7.75,7.75,0,0,0-2.1-1.27l.36-.38h-2.89v-.67h7v-1h-6.6v-.62h6.6v-1Zm.79,4.38a4.1,4.1,0,0,1-1.67,2.41l-.63-.46a3.79,3.79,0,0,0,1.61-2.2Zm3.22-5a9.62,9.62,0,0,0,.84-1.21h-3.31a11.33,11.33,0,0,1-1.05,1.21Zm-1.78,6.65c0,.3.11.34.69.34h2c.49,0,.58-.16.62-1.33a2.42,2.42,0,0,0,.68.27c-.1,1.4-.34,1.74-1.24,1.74h-2.12c-1.11,0-1.38-.22-1.38-1v-1.73l1,0c0,.08-.07.14-.22.16Zm6.14.79a10.56,10.56,0,0,0-2.11-2.4l.63-.36a10.3,10.3,0,0,1,2.16,2.34Z"/><path class="cls-1" d="M348.43,97.66a.25.25,0,0,1-.15.13,17.17,17.17,0,0,1-2.28,3.92,43.83,43.83,0,0,1,4.18,3.87l-.7.61a36.27,36.27,0,0,0-4-3.84,17.87,17.87,0,0,1-4.39,3.84,4.85,4.85,0,0,0-.59-.62,16.35,16.35,0,0,0,6.69-7.45h-5.61v-.78h6.05l.15-.06Z"/><path class="cls-1" d="M358.16,102.56a40.57,40.57,0,0,0-4-1.86v5.7h-.85V96.49l1.15.06c0,.13-.1.21-.3.24v3.34l.17-.24a40,40,0,0,1,4.29,1.9Z"/><path class="cls-1" d="M369.92,97.53a.44.44,0,0,1-.15.1,9.76,9.76,0,0,1-2.71,3.65,5.58,5.58,0,0,0-.69-.47A6.87,6.87,0,0,0,368.64,98h-8.17V97.2h8.6l.13,0Zm-4.45,2.07a.32.32,0,0,1-.27.2c-.33,2.69-1.25,5.26-3.6,6.62a5.54,5.54,0,0,0-.68-.53c2.33-1.28,3.17-3.66,3.44-6.41Z"/><polyline class="cls-6" points="380.77 130.53 380.77 66.16 439.79 66.16"/><line class="cls-6" x1="380.77" y1="91.05" x2="439.78" y2="91.05"/><line class="cls-6" x1="380.77" y1="117.45" x2="439.78" y2="117.45"/><line class="cls-6" x1="383.18" y1="149.09" x2="439.78" y2="149.09"/><line class="cls-6" x1="14.99" y1="78.21" x2="89.51" y2="16.84"/><line class="cls-6" x1="74.62" y1="63.54" x2="149.14" y2="2.18"/><line class="cls-6" x1="98.55" y1="89.23" x2="180.68" y2="20.26"/><polygon class="cls-5" points="54.15 53.47 125.83 126.73 156.75 145.28 156.75 161.45 57.23 161.56 0 97.86 54.15 53.47"/><polyline class="cls-8" points="316.04 155.75 303.26 117.45 230 117.45"/><polygon class="cls-4" points="127.25 36.35 127.25 46.63 97.6 61.97 127.25 58.84 127.25 75.35 373.47 75.35 373.47 36.35 127.25 36.35"/><path class="cls-1" d="M134.89,63.8a6.54,6.54,0,0,1,2.17-5.06,6.76,6.76,0,0,1,4.71-1.85,5.39,5.39,0,0,1,5.06,2.87V57.24h1.67v13h-1.67V67.75a5,5,0,0,1-2.22,2.09,6.62,6.62,0,0,1-3,.68,6.55,6.55,0,0,1-4.81-1.92A6.48,6.48,0,0,1,134.89,63.8Zm1.77-.39A5.58,5.58,0,0,0,138,67.19a4.57,4.57,0,0,0,3.6,1.63,5.16,5.16,0,0,0,3.65-1.46,4.73,4.73,0,0,0,1.55-3.56,5.12,5.12,0,0,0-1.43-3.66,4.68,4.68,0,0,0-3.53-1.5,5.11,5.11,0,0,0-3.75,1.6A4.48,4.48,0,0,0,136.66,63.41Z"/><path class="cls-1" d="M151,63.71a6.57,6.57,0,0,1,2.1-5,6.38,6.38,0,0,1,4.49-1.8,7.8,7.8,0,0,1,3.83,1,6.29,6.29,0,0,1,2.89,3.3h-2a5.09,5.09,0,0,0-4.73-2.5A4.55,4.55,0,0,0,154,60.22a5.07,5.07,0,0,0-1.3,3.49,5,5,0,0,0,1.45,3.63,4.84,4.84,0,0,0,3.61,1.48,5.1,5.1,0,0,0,4.58-2.4h1.94a7.67,7.67,0,0,1-2.68,3.07,7.13,7.13,0,0,1-8.53-.86,6.34,6.34,0,0,1-2.15-4.85Z"/><path class="cls-1" d="M168.14,70.23V58.83h-2.68V57.24h2.68V52.66h1.76v4.58h3v1.59h-3v11.4Z"/><path class="cls-1" d="M174.64,55.68v-3h1.75v3Zm0,14.55v-13h1.75v13Z"/><path class="cls-1" d="M183.44,70.23l-5.41-13h1.88L184.37,68l4.46-10.75h1.89l-5.48,13Z"/><path class="cls-1" d="M191.9,63.66a6.63,6.63,0,0,1,6.64-6.77,6.53,6.53,0,0,1,4.53,1.75A6.91,6.91,0,0,1,205.26,64v.36H193.63a4,4,0,0,0,1.69,3.38,5.1,5.1,0,0,0,3.17,1.09,5.29,5.29,0,0,0,2.72-.79A4,4,0,0,0,203.09,66h1.8a6.79,6.79,0,0,1-2.81,3.49,6.93,6.93,0,0,1-3.68,1.07,6.12,6.12,0,0,1-4.69-2A6.93,6.93,0,0,1,191.9,63.66Zm11.66-.9a5.09,5.09,0,0,0-1.76-3,4.81,4.81,0,0,0-3.2-1.19,4.71,4.71,0,0,0-3.81,1.76,4.58,4.58,0,0,0-1.16,2.4Z"/><path class="cls-1" d="M160.25,42.53a.28.28,0,0,1-.12.08,8.26,8.26,0,0,1-2.26,3,3.27,3.27,0,0,0-.58-.39,5.79,5.79,0,0,0,1.9-2.36h-6.82v-.65h7.18l.1,0Zm-3.71,1.73c0,.07-.1.14-.22.16-.28,2.25-1,4.39-3,5.52a5.47,5.47,0,0,0-.56-.44c1.94-1.06,2.64-3,2.86-5.35Z"/><path class="cls-1" d="M167.74,43.47a.86.86,0,0,1-.14.13,10,10,0,0,1-5.19,6.4,2.64,2.64,0,0,0-.49-.52,9,9,0,0,0,4.83-5.64h-3.4a9.67,9.67,0,0,1-2.13,2.35,5.29,5.29,0,0,0-.55-.44,9.63,9.63,0,0,0,3-4.13l.91.26c0,.09-.16.12-.28.12-.19.42-.39.82-.61,1.2h3.35l.12-.06Z"/><path class="cls-1" d="M176.82,45.4H173.6l.16.05c0,.06-.09.1-.19.11a5.19,5.19,0,0,1-2.94,4.35,6.1,6.1,0,0,0-.52-.47,4.51,4.51,0,0,0,2.75-4h-3.7v-.64h7.66Zm-.95-2.68H170v-.64h5.84Z"/><path class="cls-1" d="M183.84,43.89a.24.24,0,0,1-.17.06l-.13,0a18.62,18.62,0,0,1-2.09,1.77l.21.08a.28.28,0,0,1-.17.11V50h-.58v-4a25.54,25.54,0,0,1-3.13,1.82,3,3,0,0,0-.34-.45,19,19,0,0,0,5.74-4Z"/><path class="cls-1" d="M191.76,42.79a10.26,10.26,0,0,0-.92-1l.33-.26a7.37,7.37,0,0,1,1.22,1.37l-.18.13.07,0a.22.22,0,0,1-.13.1c-.73,3.59-2.59,5.74-5.7,6.83a5,5,0,0,0-.44-.55,7.47,7.47,0,0,0,5.31-5.94h-6.06v-.65h6.31l.12-.09Zm1.47,0a6.86,6.86,0,0,0-1.17-1.38l.36-.27a7.22,7.22,0,0,1,1.19,1.37Z"/><path class="cls-1" d="M218.66,45.89l.47.27c0,.05-.07.08-.13.1a6.15,6.15,0,0,1-2.21,2.4,12.58,12.58,0,0,0,3.65,1,2.67,2.67,0,0,0-.41.62A11.85,11.85,0,0,1,216.14,49a13.32,13.32,0,0,1-3.78,1.23,2.38,2.38,0,0,0-.39-.6,13.08,13.08,0,0,0,3.55-1,6.67,6.67,0,0,1-1.93-2l.51-.21h-1v-.58h5.4Zm-6-1.14v1.44H212v-2h1.55a6.38,6.38,0,0,0-.65-1.27l.57-.17a5.87,5.87,0,0,1,.7,1.32l-.36.12h4a13.72,13.72,0,0,0,1-1.69l.76.28c0,.06-.1.08-.2.08a15.06,15.06,0,0,1-.84,1.33h1.72v2h-.63V44.75Zm7.08-2.8a.18.18,0,0,1-.11,0l-.09,0a54.39,54.39,0,0,1-7.24.72,2.33,2.33,0,0,0-.15-.56,50.6,50.6,0,0,0,7.1-.72Zm-5.51,4.54a5.84,5.84,0,0,0,2,1.83,5.45,5.45,0,0,0,2-1.83Zm1.81-3.9a6.53,6.53,0,0,1,.54,1.42l-.62.16a6.49,6.49,0,0,0-.5-1.46Z"/><path class="cls-1" d="M222.61,44.77a10.21,10.21,0,0,1-1.23,1.63,4,4,0,0,0-.34-.6,12.15,12.15,0,0,0,2.47-4.34l.78.25a.23.23,0,0,1-.22.1,16.5,16.5,0,0,1-.91,2l.27.08q0,.09-.18.12v6.22h-.64Zm7.45-1.23v.64h-1.34v5.15c0,.51-.14.71-.47.81a7,7,0,0,1-1.95.12,3.47,3.47,0,0,0-.25-.65l1.09,0c.89,0,1,0,1-.3V44.18h-4v-.64h4v-2l.82,0c0,.07,0,.12-.19.14v1.85Zm-4.87,1.68a10.18,10.18,0,0,1,1.49,2.39l-.59.3a10.87,10.87,0,0,0-1.45-2.42Z"/><path class="cls-1" d="M233.77,42v6.3h-2.09v.77h-.61V42Zm-.6.59h-1.49v2.24h1.49Zm-1.49,5.12h1.49v-2.3h-1.49Zm5.38-3.27h2.5V45h-5.62v-.58h2.49V43.15h-2.08v-.57h2.08V41.4l.82.05c0,.07-.07.11-.19.13v1h2.12v.57h-2.12Zm1.51.84c0,.07-.06.12-.18.13v.82h1.15v.57h-1.15v2.66c0,.39-.09.58-.38.67a5.73,5.73,0,0,1-1.56.11,2.29,2.29,0,0,0-.22-.6l1,0c.53,0,.58,0,.58-.2V46.82H234v-.57h3.78v-1Zm-2.71,4a7.43,7.43,0,0,0-1.25-1.72l.51-.3a7.1,7.1,0,0,1,1.29,1.67Z"/><path class="cls-1" d="M244.19,45.1h-2.84v5.15h-.63V41.81h3.47Zm-.61-2.78h-2.23v.87h2.23Zm-2.23,2.27h2.23v-.91h-2.23Zm5.09,4.74h-3v.51h-.59v-4h3.59Zm-.61-3h-2.39v1h2.39Zm-2.39,2.46h2.39v-1h-2.39Zm5.21-7v7.54c0,.85-.37.89-2,.89a2.5,2.5,0,0,0-.22-.67l.85,0c.69,0,.75,0,.75-.24V45.11H245.1v-3.3Zm-.64.51h-2.3v.87H248Zm-2.3,2.28H248v-.92h-2.3Z"/><path class="cls-1" d="M252.44,43.5a.65.65,0,1,1-.65-.65A.64.64,0,0,1,252.44,43.5Zm0,4.62a.65.65,0,1,1-.65-.63A.64.64,0,0,1,252.44,48.12Z"/><path class="cls-1" d="M256.64,49.43V43h0l-1.17.67-.19-.59,1.48-.82h.67v7.13Z"/><path class="cls-1" d="M259.79,45.89c0-2.5,1-3.71,2.3-3.71s2.18,1.28,2.18,3.61c0,2.48-.86,3.75-2.28,3.75S259.79,48.27,259.79,45.89Zm3.68-.06c0-1.78-.43-3-1.42-3s-1.45,1.13-1.45,3,.52,3.06,1.42,3.06C263.07,48.89,263.47,47.52,263.47,45.83Z"/><path class="cls-1" d="M267.68,43.5a.65.65,0,1,1-.65-.65A.64.64,0,0,1,267.68,43.5Zm0,4.62a.65.65,0,1,1-.65-.63A.64.64,0,0,1,267.68,48.12Z"/><path class="cls-1" d="M269.79,45.89c0-2.5,1-3.71,2.3-3.71s2.18,1.28,2.18,3.61c0,2.48-.86,3.75-2.28,3.75S269.79,48.27,269.79,45.89Zm3.68-.06c0-1.78-.43-3-1.42-3s-1.45,1.13-1.45,3,.52,3.06,1.42,3.06C273.07,48.89,273.47,47.52,273.47,45.83Z"/><path class="cls-1" d="M275,45.89c0-2.5,1-3.71,2.31-3.71s2.18,1.28,2.18,3.61c0,2.48-.87,3.75-2.29,3.75S275,48.27,275,45.89Zm3.69-.06c0-1.78-.43-3-1.43-3s-1.45,1.13-1.45,3,.52,3.06,1.42,3.06C278.32,48.89,278.72,47.52,278.72,45.83Z"/><path class="cls-1" d="M289,45.41a2.83,2.83,0,0,1-2.47,1.65,2.92,2.92,0,0,1-2.13-1,2.2,2.2,0,0,0-1.65-.81,2.17,2.17,0,0,0-1.85,1.28l-.62-.32a2.84,2.84,0,0,1,2.48-1.65,2.88,2.88,0,0,1,2.12,1,2.22,2.22,0,0,0,1.66.81,2.18,2.18,0,0,0,1.85-1.28Z"/><path class="cls-1" d="M294.09,49.43h-4.22v-.49l.7-.73c1.69-1.72,2.55-2.75,2.55-3.91,0-.77-.33-1.47-1.36-1.47a2.36,2.36,0,0,0-1.43.59l-.27-.55a2.81,2.81,0,0,1,1.85-.7,1.9,1.9,0,0,1,2,2c0,1.34-.94,2.49-2.42,4l-.56.59v0h3.15Z"/><path class="cls-1" d="M297.12,49.43V43h0l-1.18.67-.19-.59,1.48-.82h.68v7.13Z"/><path class="cls-1" d="M302.92,43.5a.65.65,0,1,1-.65-.65A.64.64,0,0,1,302.92,43.5Zm0,4.62a.65.65,0,1,1-.65-.63A.64.64,0,0,1,302.92,48.12Z"/><path class="cls-1" d="M305,45.89c0-2.5,1-3.71,2.3-3.71s2.18,1.28,2.18,3.61c0,2.48-.86,3.75-2.28,3.75S305,48.27,305,45.89Zm3.68-.06c0-1.78-.43-3-1.43-3-.84,0-1.44,1.13-1.44,3s.52,3.06,1.42,3.06C308.31,48.89,308.71,47.52,308.71,45.83Z"/><path class="cls-1" d="M310.27,45.89c0-2.5,1-3.71,2.3-3.71s2.18,1.28,2.18,3.61c0,2.48-.86,3.75-2.28,3.75S310.27,48.27,310.27,45.89Zm3.68-.06c0-1.78-.42-3-1.42-3-.85,0-1.45,1.13-1.45,3s.52,3.06,1.42,3.06C313.55,48.89,314,47.52,314,45.83Z"/><path class="cls-1" d="M329.72,47.26v2.07a8.6,8.6,0,0,0,1.66.13h2.44a1.84,1.84,0,0,0-.24.64h-2.23c-2.05,0-3.53-.35-4.42-2.05a5,5,0,0,1-1.5,2.24,2.45,2.45,0,0,0-.48-.42,5.7,5.7,0,0,0,1.82-4l.82.13a.18.18,0,0,1-.19.12c-.06.38-.14.75-.22,1.11a3,3,0,0,0,1.88,1.94V45h-2.43v-.61h5.6V45h-2.51v1.69h2.92v.61ZM326,43.15v1.44h-.62V42.54h3.63V41.37l.87.06c0,.07-.07.11-.2.13v1h3.67v2.05h-.65V43.15Z"/><path class="cls-1" d="M335.79,44.75a11.49,11.49,0,0,1-1.17,1.59,4,4,0,0,0-.33-.6,12.65,12.65,0,0,0,2.38-4.28l.76.25c0,.07-.1.1-.22.09a16.39,16.39,0,0,1-.87,2l.26.07c0,.06-.07.1-.19.11v6.32h-.62Zm7.47-.25h-2.45a10.45,10.45,0,0,0,2.69,4A2.65,2.65,0,0,0,343,49a12.17,12.17,0,0,1-2.61-4v5.29h-.63V45.1A11.26,11.26,0,0,1,337.14,49a3.75,3.75,0,0,0-.47-.5,9.85,9.85,0,0,0,2.72-4H337v-.62h2.78V41.52l.81,0c0,.07-.05.12-.18.14v2.17h2.86Z"/><path class="cls-1" d="M346.7,43.5a.65.65,0,1,1-.65-.65A.64.64,0,0,1,346.7,43.5Zm0,4.62a.65.65,0,1,1-1.29,0,.63.63,0,0,1,.64-.63A.64.64,0,0,1,346.7,48.12Z"/><path class="cls-1" d="M349.77,42H356v8h-.67v-.57h-4.85v.62h-.66Zm5.51.65h-4.85v2.73h4.85Zm-4.85,6.15h4.85V46h-4.85Z"/><path class="cls-1" d="M366.37,49.36v.51h-4.5v.4h-.59V46.85a7.51,7.51,0,0,1-.65.71,3,3,0,0,0-.31-.33v1.15h-1.88v.79h-.57V42h2.45v5a7.41,7.41,0,0,0,1.56-2.36h-1.15v-.48h1.86v-.78h-1.67V43h1.67v-.72h-1.84v-.49h2.4V44.7h-.77l.29.09a.16.16,0,0,1-.19.1q-.17.34-.39.75h1.34c.14-.3.29-.66.39-.94h-.26v-.48h1.9v-.78h-1.72V43h1.72v-.72h-1.88v-.49h2.47V44.7h-2l.53.16a.23.23,0,0,1-.2.09c-.09.19-.22.45-.35.69h2.1v.51H364v.74h1.91v.46H364v.76h1.91v.47H364v.78Zm-6.64-6.77h-1.29v2.26h1.29Zm-1.29,5.21h1.29V45.42h-1.29Zm4.95-.91v-.74h-1.52v.74Zm0,1.22v-.76h-1.52v.76Zm-1.52.47v.78h1.52v-.78Z"/><path class="cls-1" d="M225.69,57h-4.23V70H219.9V57h-4.21V55.66h10Z"/><path class="cls-1" d="M234.08,69.53a7.42,7.42,0,0,1-3.21.64c-3,0-4.78-2.1-4.78-5.17s1.81-5.53,4.57-5.53c3.16,0,4,2.9,4,4.69,0,.35,0,.62,0,.86h-7c0,2.84,1.63,3.91,3.47,3.91a6.36,6.36,0,0,0,2.69-.53Zm-1-5.67c0-1.4-.57-3.2-2.58-3.2s-2.71,1.79-2.86,3.2Z"/><path class="cls-1" d="M238.52,70H237v-15h1.56Z"/><path class="cls-1" d="M241.19,69a1.14,1.14,0,0,1,1.13-1.23A1.12,1.12,0,0,1,243.43,69a1.12,1.12,0,1,1-2.24,0Z"/><path class="cls-1" d="M249.32,63c0-4.92,1.91-7.31,4.55-7.31s4.3,2.52,4.3,7.12c0,4.89-1.71,7.41-4.51,7.41C251.1,70.19,249.32,67.67,249.32,63Zm7.27-.11c0-3.52-.84-5.94-2.82-5.94-1.67,0-2.86,2.24-2.86,5.94s1,6,2.8,6C255.8,68.91,256.59,66.2,256.59,62.86Z"/><path class="cls-1" d="M264.83,62.35A3.61,3.61,0,0,1,267.89,66c0,2.24-1.61,4.19-4.77,4.19a6.25,6.25,0,0,1-3.33-.9l.47-1.21a5.62,5.62,0,0,0,2.88.85,2.86,2.86,0,0,0,3.14-3c0-2.07-1.75-3-3.59-3h-.93V61.81h.93c1.35,0,3.1-.85,3.1-2.62a2.18,2.18,0,0,0-2.43-2.27,4.63,4.63,0,0,0-2.57.92l-.47-1.15a5.91,5.91,0,0,1,3.34-1c2.58,0,3.72,1.64,3.72,3.33a3.55,3.55,0,0,1-2.55,3.32Z"/><path class="cls-1" d="M269.93,63.63h5.13v1.2h-5.13Z"/><path class="cls-1" d="M284.44,55.88v1.3h-5.06l-.58,4a7.29,7.29,0,0,1,1.09-.08c2.5,0,4.74,1.49,4.74,4.33a4.66,4.66,0,0,1-4.85,4.77,6.22,6.22,0,0,1-3.24-.83l.46-1.22a5.17,5.17,0,0,0,2.78.79,3.19,3.19,0,0,0,3.27-3.33c0-1.93-1.24-3.29-3.87-3.29a10.63,10.63,0,0,0-1.81.14l.89-6.57Z"/><path class="cls-1" d="M289.59,62.5a3.52,3.52,0,0,1-2.19-3.18,3.69,3.69,0,0,1,4-3.66,3.45,3.45,0,0,1,3.78,3.42,3.69,3.69,0,0,1-2.31,3.33v.07a4,4,0,0,1,2.8,3.69,4.13,4.13,0,0,1-4.44,4c-2.69,0-4.34-1.71-4.34-3.74a4.17,4.17,0,0,1,2.72-3.87Zm4.46,3.84c0-1.77-1.18-2.67-3.05-3.27a3.3,3.3,0,0,0-2.53,3.13A2.67,2.67,0,0,0,291.23,69,2.63,2.63,0,0,0,294.05,66.34Zm-5.17-7.17c0,1.51,1.05,2.34,2.61,2.81a3,3,0,0,0,2.15-2.77,2.22,2.22,0,0,0-2.32-2.4A2.28,2.28,0,0,0,288.88,59.17Z"/><path class="cls-1" d="M297.61,55.88h8.25v1L300,70h-1.59l5.88-12.74v0h-6.65Z"/><path class="cls-1" d="M309.15,62.5a4,4,0,0,1,3.29-1.73c2.39,0,4,1.79,4,4.5s-1.58,4.92-4.33,4.92-4.58-2.27-4.58-5.92,1.76-7.73,6.33-8.48a9.8,9.8,0,0,1,1.32-.13l0,1.3a5.91,5.91,0,0,0-6.09,5.54Zm5.7,2.88c0-2.16-1.17-3.42-2.86-3.42a3.08,3.08,0,0,0-2.91,2.67c0,2.57,1.11,4.34,3.06,4.34C313.78,69,314.85,67.5,314.85,65.38Z"/><path class="cls-1" d="M317.78,63.63h5.14v1.2h-5.14Z"/><path class="cls-1" d="M331.56,70h-1.48V66h-6.15V65l6-9.14h1.61v8.93h1.92V66h-1.92Zm-6.05-5.15h4.57v-5c0-.77,0-1.52.08-2.25h-.08c-.43.86-.77,1.46-1.13,2.1l-3.44,5.12Z"/><path class="cls-1" d="M334.67,63c0-4.92,1.92-7.31,4.55-7.31s4.3,2.52,4.3,7.12c0,4.89-1.71,7.41-4.51,7.41C336.46,70.19,334.67,67.67,334.67,63Zm7.28-.11c0-3.52-.85-5.94-2.83-5.94-1.67,0-2.85,2.24-2.85,5.94s1,6,2.8,6C341.16,68.91,342,66.2,342,62.86Z"/><path class="cls-1" d="M346.65,62.5a3.94,3.94,0,0,1,3.29-1.73c2.39,0,4,1.79,4,4.5s-1.58,4.92-4.32,4.92S345,67.92,345,64.27s1.77-7.73,6.34-8.48a9.53,9.53,0,0,1,1.31-.13l0,1.3a5.92,5.92,0,0,0-6.09,5.54Zm5.69,2.88c0-2.16-1.16-3.42-2.85-3.42a3.08,3.08,0,0,0-2.92,2.67c0,2.57,1.11,4.34,3.07,4.34C351.27,69,352.34,67.5,352.34,65.38Z"/><path class="cls-1" d="M355.83,55.88h8.25v1L358.19,70H356.6l5.88-12.74v0h-6.65Z"/><path class="cls-1" d="M37.23,112a.24.24,0,0,1-.22.09H36.9a28.57,28.57,0,0,1-3.25,2.73,1.37,1.37,0,0,1,.27.13.29.29,0,0,1-.25.14v6.13h-.83v-5.86a33.27,33.27,0,0,1-4.35,2.54,4.77,4.77,0,0,0-.48-.63,28.81,28.81,0,0,0,8.37-5.9Z"/><path class="cls-1" d="M45.3,117.3a42.81,42.81,0,0,0-4-1.86v5.71h-.86v-9.92l1.15.07c0,.13-.1.21-.29.24v3.33l.17-.24a39.8,39.8,0,0,1,4.29,1.91Z"/><path class="cls-1" d="M47.76,115.6h9.53v.81H48.2a.51.51,0,0,1-.37.22Z"/><path class="cls-1" d="M66.41,112.16V121h-.79v-.65H59.09v-.76h6.53v-3h-6v-.75h6v-2.87H59.41v-.76Z"/><path class="cls-1" d="M68.88,115.6h9.53v.81H69.32a.51.51,0,0,1-.37.22Z"/><path class="cls-1" d="M88.94,113.93a.41.41,0,0,1-.1.14c-.15,3.29-.47,5.36-.92,6.17a1.54,1.54,0,0,1-1.49.82,11.88,11.88,0,0,1-2-.26,3.7,3.7,0,0,0,0-.81,12.28,12.28,0,0,0,2,.28.85.85,0,0,0,.88-.53,17.48,17.48,0,0,0,.74-5.19H84.32a10.4,10.4,0,0,1-3.77,6.54,4.59,4.59,0,0,0-.65-.5,9.45,9.45,0,0,0,3.56-6H80.31v-.76h3.31a20.07,20.07,0,0,0,.26-2.49l1.13.09c0,.13-.11.2-.28.21-.07.83-.13,1.46-.25,2.19h3.7l.18-.07Z"/><path class="cls-1" d="M97.71,117.32a43.06,43.06,0,0,0-4-1.87v5.7h-.85v-9.92l1.15.07c0,.13-.1.21-.3.24v3.36l.17-.25a38.09,38.09,0,0,1,4.29,1.9Zm-1.2-5.38a9.55,9.55,0,0,1,1.57,1.68l-.43.35a9.64,9.64,0,0,0-1.55-1.66ZM98,111a9.28,9.28,0,0,1,1.56,1.66l-.41.36a10.6,10.6,0,0,0-1.56-1.67Z"/><path class="cls-1" d="M100.74,115.6h9.53v.81h-9.1a.51.51,0,0,1-.37.22Z"/></g></g></g></svg>