<svg xmlns="http://www.w3.org/2000/svg" xmlns:xlink="http://www.w3.org/1999/xlink" width="50" height="50" viewBox="0 0 50 50"><defs><style>.cls-1{isolation:isolate;}.cls-2{fill:#e6e6e6;}.cls-3{opacity:0.57;fill:url(#linear-gradient);}.cls-4{fill:url(#linear-gradient-2);}.cls-5{opacity:0.32;fill:url(#linear-gradient-3);}.cls-6{fill:#231815;opacity:0.15;}.cls-11,.cls-6{mix-blend-mode:multiply;}.cls-10,.cls-7,.cls-8,.cls-9{opacity:0.45;}.cls-7{fill:url(#linear-gradient-4);}.cls-8{fill:url(#linear-gradient-5);}.cls-9{fill:url(#linear-gradient-6);}.cls-10{fill:url(#linear-gradient-7);}.cls-11{opacity:0.76;}.cls-12{fill:#89020a;}.cls-13{opacity:0.79;}.cls-14{fill:#fff;}.cls-15{fill:url(#linear-gradient-8);}.cls-16{fill:url(#linear-gradient-9);}.cls-17{fill:url(#linear-gradient-10);}</style><linearGradient id="linear-gradient" x1="1.88" y1="25" x2="48.12" y2="25" gradientUnits="userSpaceOnUse"><stop offset="0" stop-color="#9a9c9c"/><stop offset="1" stop-color="#141414"/></linearGradient><linearGradient id="linear-gradient-2" x1="46.46" y1="4.99" x2="-23.5" y2="70.23" gradientUnits="userSpaceOnUse"><stop offset="0" stop-color="#de0917"/><stop offset="1" stop-color="#8d040c"/></linearGradient><linearGradient id="linear-gradient-3" x1="2.72" y1="36.85" x2="47.28" y2="36.85" gradientUnits="userSpaceOnUse"><stop offset="0" stop-color="#fff"/><stop offset="0.12" stop-color="#fffcf9"/><stop offset="0.29" stop-color="#fef4e8"/><stop offset="0.47" stop-color="#fce6cb"/><stop offset="0.68" stop-color="#fad2a4"/><stop offset="0.9" stop-color="#f7ba72"/><stop offset="1" stop-color="#f5ad58"/></linearGradient><linearGradient id="linear-gradient-4" x1="4.49" y1="3.41" x2="6.82" y2="5.86" gradientUnits="userSpaceOnUse"><stop offset="0" stop-color="#fff"/><stop offset="0.62" stop-color="#f9f9f9"/><stop offset="1" stop-color="#f2f2f2"/></linearGradient><linearGradient id="linear-gradient-5" x1="-2777.75" y1="3.44" x2="-2775.4" y2="5.91" gradientTransform="matrix(-1, 0, 0, 1, -2732.27, 0)" xlink:href="#linear-gradient"/><linearGradient id="linear-gradient-6" x1="102.81" y1="2595" x2="105.16" y2="2597.47" gradientTransform="matrix(1, 0, 0, -1, -98.2, 2641.49)" xlink:href="#linear-gradient"/><linearGradient id="linear-gradient-7" x1="-2695.06" y1="2611.19" x2="-2692.73" y2="2613.64" gradientTransform="translate(-2649.54 2657.7) rotate(180)" xlink:href="#linear-gradient-4"/><linearGradient id="linear-gradient-8" x1="23.43" y1="13.89" x2="23.43" y2="46.24" gradientUnits="userSpaceOnUse"><stop offset="0" stop-color="#f4f6f6"/><stop offset="1" stop-color="#a1a1a1"/></linearGradient><linearGradient id="linear-gradient-9" x1="22.27" y1="13.9" x2="22.27" y2="46.24" xlink:href="#linear-gradient-8"/><linearGradient id="linear-gradient-10" x1="32.92" y1="13.9" x2="32.92" y2="46.24" xlink:href="#linear-gradient-8"/></defs><title>sm_tel_ico</title><g class="cls-1"><g id="レイヤー_2" data-name="レイヤー 2"><g id="レイヤー_1-2" data-name="レイヤー 1"><rect class="cls-2" width="50" height="50" rx="12.49" ry="12.49"/><rect class="cls-3" x="1.88" y="1.88" width="46.23" height="46.23" rx="11.55" ry="11.55"/><rect class="cls-4" x="2.25" y="2.25" width="45.49" height="45.49" rx="11.36" ry="11.36"/><path class="cls-5" d="M47.2,27.76l-.41,8.39A10.89,10.89,0,0,1,35.91,47H14.09A10.89,10.89,0,0,1,3.21,36.15l-.36-8.72-.13-1.25V36.39A11.13,11.13,0,0,0,13.85,47.52h22.3A11.13,11.13,0,0,0,47.28,36.39V26.18Z"/><path class="cls-6" d="M2.82,23.06l.38-9.19A10.88,10.88,0,0,1,14.09,3H35.91A10.88,10.88,0,0,1,46.8,13.87l.46,11.24,0,.28V13.62A11.13,11.13,0,0,0,36.15,2.49H13.85A11.13,11.13,0,0,0,2.71,13.62V25.39Z"/><path class="cls-7" d="M.19,11.46A11.74,11.74,0,0,1,3.62,3.82,12.3,12.3,0,0,1,13.25.05,13.47,13.47,0,0,0,.19,11.46Z"/><path class="cls-8" d="M49.75,11.46a11.68,11.68,0,0,0-3.43-7.64A12.12,12.12,0,0,0,36.73.13,13.27,13.27,0,0,1,46,4,13.48,13.48,0,0,1,49.75,11.46Z"/><path class="cls-9" d="M.33,38.47a11.74,11.74,0,0,0,3.43,7.64,12.13,12.13,0,0,0,9.6,3.68,13.24,13.24,0,0,1-9.24-3.85A13.47,13.47,0,0,1,.33,38.47Z"/><path class="cls-10" d="M49.82,38.46a11.72,11.72,0,0,1-3.44,7.64,12.27,12.27,0,0,1-9.62,3.77A13.47,13.47,0,0,0,49.82,38.46Z"/><g class="cls-11"><path class="cls-12" d="M25,31.43c.59.94,1.47.94,2.75,0,.88,2.25,5,10.36,5,10.36s-2.67.44-6.41-2.18c-2.42-1.7-7.24-6.8-10.1-13.95a34.53,34.53,0,0,1-2.05-13c.1-4.21,1.89-5.41,3.76-6L21.28,17.3s-2.33.76-1.35,3.76A24.34,24.34,0,0,0,25,31.43Z"/><path class="cls-12" d="M19.41,6.35a3.52,3.52,0,0,1,4.33,1.87c1.47,2.91,2.55,7.4-1,8.8C21.77,14.31,19.41,6.35,19.41,6.35Z"/><path class="cls-12" d="M29.34,30.82l5.11,9.6s2.95-2.15,1.77-4.31-2.55-4.84-2.55-4.84S32.28,29.16,29.34,30.82Z"/></g><g class="cls-13"><path class="cls-14" d="M25,32.93c.59.94,1.47.94,2.75,0,.88,2.25,4.91,9.74,4.91,9.74s-2.61,1.06-6.35-1.56c-2.42-1.7-7.24-6.8-10.1-13.95a34.53,34.53,0,0,1-2.05-13c.1-4.21,1.89-5.41,3.76-6L21.28,18.8s-2.33.76-1.35,3.76A24.34,24.34,0,0,0,25,32.93Z"/><path class="cls-14" d="M19.41,7.85a3.52,3.52,0,0,1,4.33,1.87c1.47,2.9,2.55,7.4-1,8.8C21.77,15.81,19.41,7.85,19.41,7.85Z"/><path class="cls-14" d="M29.53,32.08l5.11,9.6s2.76-1.91,1.58-4.07-2.55-4.84-2.55-4.84S32.28,30.66,29.53,32.08Z"/></g><path class="cls-15" d="M25,32.29c.59.93,1.47.93,2.75,0,.88,2.25,4.91,9.73,4.91,9.73s-2.61,1.07-6.35-1.55c-2.42-1.7-7.24-6.8-10.1-14a34.5,34.5,0,0,1-2.05-13c.1-4.21,1.89-5.41,3.76-6l3.34,10.58s-2.33.76-1.35,3.76A24.34,24.34,0,0,0,25,32.29Z"/><path class="cls-16" d="M19.41,7.21a3.52,3.52,0,0,1,4.33,1.87c1.47,2.9,2.55,7.39-1,8.8C21.77,15.16,19.41,7.21,19.41,7.21Z"/><path class="cls-17" d="M29.34,31.68l5.11,9.59s2.95-2.15,1.77-4.3-2.55-4.85-2.55-4.85S32.28,30,29.34,31.68Z"/></g></g></g></svg>