<svg xmlns="http://www.w3.org/2000/svg" width="1170" height="100" viewBox="0 0 1170 100"><defs><style>.cls-1{fill:#333;}.cls-2{fill:none;}</style></defs><title>top_nayami</title><g id="レイヤー_2" data-name="レイヤー 2"><g id="レイヤー_1-2" data-name="レイヤー 1"><path class="cls-1" d="M284.71,24.5c4.36,1,12,1.56,21.31,1.56.89,0,1.85,0,4.07-.08a52.1,52.1,0,0,0-.44-8.06h13c-.37,2-.37,2.51-.59,7.69,9.84-.59,16.72-1.4,21-2.59l.37,11.33c-2.15.14-2.59.14-6.51.66a143.73,143.73,0,0,1-14.88,1.26v4.66a116.55,116.55,0,0,0,19.09-2.22l.3,11.33c-1.55.07-1.55.07-4.74.37s-10.43.88-14.5,1c.07,3.41.07,3.41.22,6.51a42.61,42.61,0,0,1,10.14,4,75.16,75.16,0,0,1,9.92,6.14c1.11.74,1.62,1,2.81,1.78l-7,11.91a39.47,39.47,0,0,0-5-4.73,38.27,38.27,0,0,0-10.5-6.59c0,3.33-.52,5.55-1.78,7.48-2.44,3.77-8.07,5.84-16.13,5.84-12.14,0-19-5-19-13.54,0-5.4,3.4-9.84,9.32-12.06a37.21,37.21,0,0,1,13.17-2h2.3c-.07-2.52-.15-4-.15-4.37-1.55,0-4.59.08-5.7.08-4.29,0-7.69-.08-11.91-.3-3.26-.15-3.63-.22-5.85-.22l.15-11c3.26.67,10.66,1.18,18.21,1.18,1.55,0,2.66,0,4.95-.07V40.34c0-.15,0-.15-.07-1.92V36.64c-1.7.07-2.44.07-3.11.07-4,0-5.25-.07-13.76-.44-2.82-.07-2.82-.07-5.55-.22-1-.08-1.78-.08-2-.08h-1.26Zm21.38,42.19c-4.51,0-7.1,1.25-7.1,3.55,0,1.85,2.07,3,5.77,3,4.15,0,5.92-1.41,5.92-4.74,0-.44-.07-1.26-.07-1.26A16.14,16.14,0,0,0,306.09,66.69Z"/><path class="cls-1" d="M388.9,38.27c7.18-1,10.22-1.11,19.61-1.11.52,0,2.08,0,3.63.07l.22,12.51a65.77,65.77,0,0,0-9.69-.52,99.78,99.78,0,0,0-20.8,1.85l-.74-10.51c-3.55.37-4.59.45-6.73.59-2.89,14.73-4.52,20.73-11.84,43.15l-13.62-5c5-9.69,9.92-24.79,12.43-37.89h-1.18c-1.7,0-3.7-.07-5.11-.15-1.92-.07-2.22-.07-2.81-.07a14.52,14.52,0,0,0-1.63.07l.22-12.06a77.65,77.65,0,0,0,11.25.74h1.41a74,74,0,0,0,1.26-11V17.77l13.84,1a24.52,24.52,0,0,0-1,4.29c-.29,1.55-.66,3.7-1.18,6.36a78.44,78.44,0,0,0,12.14-1.92Zm2.59,20.35c-2.81,3.33-4.07,5.77-4.07,8.07,0,3.4,3,5,9.25,5a55.83,55.83,0,0,0,17.54-2.89l.89,13c-1.48.15-2,.23-4,.45a89.52,89.52,0,0,1-14.43,1.18q-21.75,0-21.75-14c0-4.29,1.7-8.43,5.84-14.35Zm8.66-39.15a51,51,0,0,1,7.48,11l-7,3.41a51.61,51.61,0,0,0-7.48-11.18ZM410,15a55.2,55.2,0,0,1,7.55,10.66L410.73,29a55.43,55.43,0,0,0-7.4-11Z"/><path class="cls-1" d="M462.16,38.27c-1.11.15-1.33.15-2.81.44-2.89.52-7.55,1.11-11.17,1.48v6.52A42.93,42.93,0,0,1,459,45.45c9.1,0,15.91,2.29,20.2,6.73a18.52,18.52,0,0,1,5,13.1c0,10.43-7.92,18.28-18.43,18.28-9.18,0-14.51-6.14-14.51-16.8V64.91a43.75,43.75,0,0,0,11.25-4.51c-.07,1.55-.15,2.36-.15,3.92A12.06,12.06,0,0,0,463,69a3.46,3.46,0,0,0,3.25,2.22c3.19,0,5.33-2.59,5.33-6.36a8,8,0,0,0-3.62-6.52c-2-1.25-4.89-1.92-8.81-1.92a39.48,39.48,0,0,0-10.88,1.48l.07,13.1V72.9c0,4.52-.29,6.14-1.4,7.7-1.41,2.07-4.22,3.26-7.55,3.26a26.36,26.36,0,0,1-16-5.85,12.86,12.86,0,0,1-4.81-9.62c0-4,2.45-8.36,6.89-12.29a39,39,0,0,1,11-6.58V40.78l-5.62.15-7.18-.15a13.4,13.4,0,0,0-1.55.08L422,29.24a56.22,56.22,0,0,0,10.14.67h2.81a13.77,13.77,0,0,1,1.48-.08V27.46c0-5.55-.07-7.25-.52-10h12.8a58.43,58.43,0,0,0-.44,9.25v2.37a80.7,80.7,0,0,0,13.54-2.51ZM436.48,61.73c-3.48,1.63-6.14,4.51-6.14,6.58A2.9,2.9,0,0,0,432,70.68a7.21,7.21,0,0,0,3.33,1.19c1,0,1.18-.52,1.18-3Zm41.37-16.28a64.28,64.28,0,0,0-14.58-17.39L473,21.47a62.76,62.76,0,0,1,14.58,16.35Z"/><path class="cls-1" d="M487.32,50.26a65.78,65.78,0,0,0,1.85-16.06c0-.74,0-1.85-.07-3.33l6.29,1.18v2.74a83.06,83.06,0,0,1-1.71,18.13Zm20.06,26.05c0,4.44.07,7.1.29,9.62H496.13a98.57,98.57,0,0,0,.44-10.22V24.43a63.51,63.51,0,0,0-.44-8.22h11.62a60,60,0,0,0-.37,8.22v6.88l4.07-1.7a93.83,93.83,0,0,1,4.44,11.17l-5.48,2.52a83.43,83.43,0,0,0-3-10Zm37.15-33.08a22.35,22.35,0,0,0-1.26,3.55,84.24,84.24,0,0,1-3.85,9.62c2.29,2.37,2.52,2.66,5.62,6.29V50.18c0-3-.07-5.1-.22-6.44h11.47a55.91,55.91,0,0,0-.29,6.74V77.19a63.1,63.1,0,0,0,.37,8.66H545V83.19H521.36v2.66h-11.1c.22-2.29.37-5.1.37-9.1V50.48a47.28,47.28,0,0,0-.29-6.66h11.24a27.26,27.26,0,0,0-.22,4.74l4.81-4.74c3,2.66,4.15,3.55,6.14,5.47a53.51,53.51,0,0,0,2.82-9.39Zm-26.13-2.3a127.56,127.56,0,0,0-7.62-19.24l9.77-3.48A162.29,162.29,0,0,1,528,36.79Zm3,24.28a35.06,35.06,0,0,0,6.44-7.4,77.39,77.39,0,0,0-6.44-6.07Zm0,8h6a44,44,0,0,0-6-5.63Zm14.43-57.36a138,138,0,0,1,6,17.84,107.7,107.7,0,0,0,5.84-16.5l11,3.48c-4.15,11.39-5.33,14.43-9.25,22.2l-10.07-4.37c1-1.78,1.48-2.74,2-3.77l-9.4,3a116,116,0,0,0-6.07-18.94Zm3.93,56.62a70.24,70.24,0,0,0-5.26-7.25,66.37,66.37,0,0,1-6.51,8H545V66.32Z"/><path class="cls-1" d="M568.28,19.84a42.23,42.23,0,0,0,7.62.37,147.67,147.67,0,0,0,15.32-.74,6.67,6.67,0,0,0,3-.89l8,6.81a12.83,12.83,0,0,0-1.78,3.55c-.67,1.63-3.7,11-4.89,15a61.69,61.69,0,0,1,12.66,3.62c.52-3.62.59-5.55.59-12.13a25.91,25.91,0,0,0-.29-4.22l12.87.44a24.43,24.43,0,0,0-.52,5.4,127.15,127.15,0,0,1-1.33,15.32c5.11,2.59,5.11,2.59,7.7,4a11.43,11.43,0,0,0,2.52,1.18l-4.3,13.84a51.7,51.7,0,0,0-9.17-6.21c-3.7,8.8-9.85,15.24-19.17,20.35a45.87,45.87,0,0,0-9.25-9.62c5.48-2.59,8-4.22,10.88-7a28,28,0,0,0,6.44-9.4,55.05,55.05,0,0,0-13-4.22c-3,9-5.48,14.8-7.62,18.28-2.89,4.67-6.81,7.11-11.32,7.11a13.69,13.69,0,0,1-9.62-4.22,16.93,16.93,0,0,1-4.52-12.14,20.37,20.37,0,0,1,9.55-17.46c3.92-2.52,8.06-3.63,14.65-4,1.33-4.37,2.44-8.14,3.48-12.36-3.26.3-7.33.52-12.29.74a41.88,41.88,0,0,0-5.7.45Zm4.36,38.48A8.46,8.46,0,0,0,570.57,64c0,2.29,1.11,4,2.52,4,1.7,0,3.62-3.84,6.95-13.69C576.57,54.85,574.49,56,572.64,58.32Z"/><path class="cls-1" d="M629.85,25.1c1.25.07,2.22.07,2.81.07,1.92,0,4.59-.15,12.65-.67,10.66-.66,17.84-1,31.9-1.55l7.62-.3,3.11-.14c2.52-.08,3-.15,3.33-.15a6.35,6.35,0,0,0,1.7-.3l.67,13.4a11.11,11.11,0,0,0-2.07-.15,34.67,34.67,0,0,0-17,5.18c-7.4,4.51-11.77,10.73-11.77,16.8,0,4.29,2,7.18,6.22,9.17,3,1.48,9.47,2.67,14.13,2.67.59,0,1.11,0,2.22-.08l-1.7,14.07a16.85,16.85,0,0,0-2.74-.37c-8.43-.74-14-2-18.72-4.15C653.53,74.53,649,67.72,649,58.32A25.31,25.31,0,0,1,655.3,41.6a30.21,30.21,0,0,1,7.26-6.29l-3.48.37c-1.63.15-4.22.37-18.06,1.48-6.88.74-7.25.74-10.43,1.4ZM682.31,42a47,47,0,0,1,7.18,10.73L682.39,56a45.91,45.91,0,0,0-7.18-11Zm9.92-4.29a50.58,50.58,0,0,1,7.25,10.43l-6.88,3.18a52.35,52.35,0,0,0-7-10.65Z"/><path class="cls-1" d="M697.63,25.61c1.85.15,2.66.23,4.52.23s21.9-.52,28.78-.74a41.6,41.6,0,0,0-.51-7.85h13.09a51,51,0,0,0-.37,7.55c12.29-.07,17.77-.22,20.73-.52l.07,12.14a122.19,122.19,0,0,0-13.32-.37c-3.92,0-4.44,0-7.4.07v11a23.64,23.64,0,0,1,3,12.36c0,8.29-4.29,15.54-12.21,20.5-3.63,2.22-7.85,3.93-14.88,6a33.37,33.37,0,0,0-7-11.7c7.48-1.11,11.69-2.29,15.25-4.51a12.23,12.23,0,0,0,5.47-5.85c-3.1,2.59-5.62,3.48-9.91,3.48-8.59,0-14.66-5.62-14.66-13.54,0-8.44,7-14.21,17.17-14.21a16.84,16.84,0,0,1,5.78.81V38.12a11.17,11.17,0,0,0-.08-1.78c-15.32.45-27.38,1.11-33.08,1.93Zm23,27.61c0,2.29,2.07,4,4.88,4,3.18,0,5.63-1.92,5.63-4.44,0-2.29-1.93-3.85-4.89-3.85C723,48.92,720.65,50.7,720.65,53.22Z"/><path class="cls-1" d="M765.93,34.42h.67c2.37,0,9.47-.59,14.28-1.18,1.19-7.77,1.7-12.14,1.7-14.66V17.32L796,18.58a37.93,37.93,0,0,0-1.19,5.85c-.59,3.4-1.11,6.22-1.4,7.92,1.26-.08,2.15-.15,3.18-.15,4.59,0,8,1,10.51,3,3.77,3,5.25,7.55,5.25,15.91,0,11.55-1.7,21.17-4.66,26.27a11.82,11.82,0,0,1-4.73,4.44,14.1,14.1,0,0,1-5.78,1,42.12,42.12,0,0,1-11.76-2,33.29,33.29,0,0,0,.22-4.29,34.36,34.36,0,0,0-1.11-8.81c4.22,1.63,8,2.67,10.14,2.67,1.55,0,2.51-1,3.33-3.33,1.11-3.26,2-10.81,2-16.43,0-3.19-.44-5-1.4-6s-1.85-1.26-4.44-1.26a26.44,26.44,0,0,0-3,.15A146.08,146.08,0,0,1,785.91,62,158.78,158.78,0,0,1,778.07,81c-.59,1.26-.74,1.63-1.18,2.67l-12.22-6.44c4.74-6.29,11-21,13.92-32.71A90.39,90.39,0,0,0,767,46.63Zm54.91-7.92c7.41,9.25,12.14,19.17,15.1,31.6L823.8,63.87c-2.44-13.54-7-24.27-13.83-32.34Z"/><path class="cls-1" d="M855.47,62.76a19.18,19.18,0,0,0,.15-3.4c0-5.11.89-8.07,3.26-11,1.77-2.08,2.37-2.52,7.62-5.7,3.63-2.15,4.81-3.7,4.81-6.14,0-3.48-2.59-5.55-7-5.55-3.33,0-5.77,1.18-7.18,3.47A10,10,0,0,0,855.77,39L840.52,37.6c.74-5.33,1.93-8.21,4.74-11.32,4.29-4.88,10.88-7.4,19.39-7.4,13.62,0,22.13,6.44,22.13,16.65a14,14,0,0,1-4.59,10.88c-1.78,1.63-2.52,2.15-9,6.14-3.11,2-4.22,3.92-4.22,7.33a21.71,21.71,0,0,0,.22,2.88Zm14.36,5v14H855v-14Z"/><rect class="cls-2" width="1170" height="100"/></g></g></svg>