<svg xmlns="http://www.w3.org/2000/svg" viewBox="0 0 1154.9 116.06"><defs><style>.cls-1{fill:#170504;}</style></defs><g id="レイヤー_2" data-name="レイヤー 2"><g id="レイヤー_1-2" data-name="レイヤー 1"><path class="cls-1" d="M18.66,5.5A40.43,40.43,0,0,0,18.38.42h7.85A36.07,36.07,0,0,0,26,5.5V16.88h8.32l-5.4-3.15A48.53,48.53,0,0,0,35.31,2.12l6.91,3.15A88.52,88.52,0,0,1,35.4,16.88h2.44a30.42,30.42,0,0,0,3.81-.19,35.36,35.36,0,0,0-.19,4.23V39a45.53,45.53,0,0,0,.29,5.93H34.22V42.78H8.37a47,47,0,0,0-5.83.28V36a40.49,40.49,0,0,0,5.5.24H34.32V32.91H9.12c-2.4,0-3.62.05-4.84.14V26.47A37.46,37.46,0,0,0,9,26.66H34.32V23.55H8.23c-2.26,0-3.72.05-5.31.19V16.6a47,47,0,0,0,5.31.28H9.4a56.41,56.41,0,0,0-7-11.29L8.65,2.12A65.84,65.84,0,0,1,16,13.68L10,16.88h8.69Z"/><path class="cls-1" d="M64.31,2.77A12.32,12.32,0,0,0,64.12.33h7.76a12.13,12.13,0,0,0-.19,2.54V4.28H82A58.71,58.71,0,0,0,88.62,4v7.24c-1.89-.15-4.42-.24-6.49-.24H55.61v2.07c0,16.31-1.5,24.82-5.54,31.69a23.65,23.65,0,0,0-5.79-5.88c3.2-5.74,4.09-11.89,4.09-27.55,0-3.53,0-5.64-.14-7.29,1.84.14,3.86.24,6.21.24h9.87Zm2.11,14.39A43.61,43.61,0,0,0,66.24,12h7.28c-.09.94-.14,1.64-.18,3.19h9.12A44,44,0,0,0,87.77,15v7c-1.6-.15-3.34-.24-5.08-.24H73.34V25.1h8.18a33.93,33.93,0,0,0,4.32-.18,44.28,44.28,0,0,0-.23,5.26v8a54.52,54.52,0,0,0,.28,6.45H78.41V42.78H63.84v1.79H56.46a47.26,47.26,0,0,0,.28-6V29.15c0-1.79-.05-3.06-.14-4.23a34.61,34.61,0,0,0,4.28.18h5.54ZM63.84,36.29H78.41v-4.6H63.84Z"/><path class="cls-1" d="M103.61,2.59a26.81,26.81,0,0,0-1.36,4.65A85.4,85.4,0,0,0,100,25.48l3.62,1.22a42.77,42.77,0,0,0-2,14.34c0,.24,0,.85.14,1.88l-8,.33c0-.84,0-.84-.37-3.71a91.66,91.66,0,0,1-1-14.25,93.52,93.52,0,0,1,1.88-19,29.15,29.15,0,0,0,.57-4.09V2Zm1.69,7.66a42,42,0,0,0,8.79.75c1,0,1.79,0,3.39-.05V4.84a12.27,12.27,0,0,0-.24-2.63l8.14,0a54.16,54.16,0,0,0-.38,8.23,43.41,43.41,0,0,0,7.48-1.46l.28,7.48a11.48,11.48,0,0,0-1.74.28c-1.46.33-3.57.61-5.92.89,0,3.67.09,4.61.42,10a37,37,0,0,1,7.57,4.28,7.18,7.18,0,0,0,.89.56l-3,8a24,24,0,0,0-5.6-4.47v.38c0,4-4.09,6.68-10.1,6.68-6.91,0-11-3.29-11-8.75a8.27,8.27,0,0,1,3.57-6.91,12.45,12.45,0,0,1,7.24-1.93,13.71,13.71,0,0,1,2.73.29c0-1.32,0-1.56-.15-3.76,0-1.6,0-2.26-.09-3.91-1.08.05-1.74.05-2.68.05-1.41,0-4.14-.09-8.09-.23-.56-.05-.94-.05-1.08-.05h-.56ZM118,32.63a7.45,7.45,0,0,0-2.87-.57c-2.16,0-3.48.85-3.48,2.17s1.22,2,3.1,2c2.26,0,3.29-.85,3.29-2.73Z"/><path class="cls-1" d="M140.51,13.68a64.87,64.87,0,0,1,13.12,6.63l-4,7.38a53.9,53.9,0,0,0-13.44-7.29Zm-3,20.55a47.26,47.26,0,0,0,14.53-3.11A28.32,28.32,0,0,0,165.24,21a36.34,36.34,0,0,0,5.17-10.34,29.53,29.53,0,0,0,6.87,5.83c-2.4,5.64-4.33,8.89-7.34,12.27A38.33,38.33,0,0,1,151.8,40.29a63.48,63.48,0,0,1-8.56,2.07,32.73,32.73,0,0,0-3.34.75ZM144,2.16a79.55,79.55,0,0,1,13.49,6.16l-4.18,7.19a58.55,58.55,0,0,0-13.5-6.72Z"/><path class="cls-1" d="M187,13.45a20.89,20.89,0,0,0-1-4l7.71-1.13a20.84,20.84,0,0,0,.43,4l.56,2.83,13.87-2.31a5.67,5.67,0,0,0,2.77-.89l4.42,4a6.54,6.54,0,0,0-1.17,2.54,29.62,29.62,0,0,1-9.41,13.35,20.5,20.5,0,0,0-6-4.51A20.93,20.93,0,0,0,206.24,20l-10.35,1.79,2.78,14.48a39.75,39.75,0,0,0,1.55,6.53L192,44.19a48.41,48.41,0,0,0-.85-6.53L188.65,23l-3.05.52a34.54,34.54,0,0,0-4.66,1.08l-1.27-7.2a41.79,41.79,0,0,0,5-.51l2.82-.47Z"/><path class="cls-1" d="M220.34,22.57a43.54,43.54,0,0,0,.28-6.16V9.17c0-2.68-.05-3.43-.14-4.8a38.5,38.5,0,0,0,5.36.28h24.3a8.13,8.13,0,0,0,4-.61l4.14,3.81a4.46,4.46,0,0,0-.76,2.4c-1.17,9.82-2.77,15.09-6,20.12A31.89,31.89,0,0,1,240,40.57a48.67,48.67,0,0,1-6.63,3.1,28.94,28.94,0,0,0-5.6-7.8,33.24,33.24,0,0,0,9.55-3.95c7-4.42,10.1-9.82,11-19.51H229.08v4.14a35.82,35.82,0,0,0,.24,6Z"/><path class="cls-1" d="M260.91,17.91a66.48,66.48,0,0,0,9.63.42H293a76.93,76.93,0,0,0,9.63-.42V27A88.53,88.53,0,0,0,293,26.7H270.59c-5.26,0-6.82.05-9.68.29Z"/><path class="cls-1" d="M310.12,28A60.23,60.23,0,0,1,321.6,38.55l-6,6.07a60.54,60.54,0,0,0-11.1-11.19Z"/><path class="cls-1" d="M338.05,38.93v3.24h-8.56a58.38,58.38,0,0,0,.38-7.66V10.34c0-2-.05-3.48-.19-5.4a56.08,56.08,0,0,0,5.69.18h25.34a55.87,55.87,0,0,0,5.83-.18c-.1,1.64-.14,3.33-.14,5.54V34.32a62.38,62.38,0,0,0,.33,7.76h-8.51V38.93Zm20.17-26.28H338.05V31.4h20.17Z"/><path class="cls-1" d="M379,12.18a58.86,58.86,0,0,1,4.56,11.89l-7.33,2.21a59.31,59.31,0,0,0-4.19-12.18Zm27.36.8a19.62,19.62,0,0,0-.7,2.86c-1.41,6.63-3.24,11.43-5.88,15.33A34.06,34.06,0,0,1,390,40.71a62,62,0,0,1-5.69,3.15,24.24,24.24,0,0,0-5.17-6.63c9.45-3.66,14.57-8.36,17.49-16.17a33,33,0,0,0,2.07-9.92Zm-17-2.78A48.51,48.51,0,0,1,394,21.67l-7.2,2.21a55,55,0,0,0-4.23-11.8Z"/><path class="cls-1" d="M424.92,9.78c.15-1.83.24-4.56.24-6A13.24,13.24,0,0,0,425,1.41l8.84.24c-.24,1.08-.24,1.22-.52,5.68,0,1.27,0,1.27-.14,2.4h10.25a6.72,6.72,0,0,0,3.15-.52l3.66,3.2c-.51.94-.61,1.32-.65,3.48-.33,10.06-1,17.91-2,21-1.36,4.37-3.62,5.87-8.84,5.87a57,57,0,0,1-6.16-.37A23,23,0,0,0,431,34.13a27,27,0,0,0,6.11.94c2.25,0,2.82-.75,3.43-4.84a108.63,108.63,0,0,0,.89-13.12h-9a38.55,38.55,0,0,1-.7,4.7c-2.07,9.5-6.54,15.61-16.08,21.91a27.3,27.3,0,0,0-6.11-7.14c6.25-3.29,9.87-6.63,12.22-11.38a24.86,24.86,0,0,0,2.35-8H418.3a49.12,49.12,0,0,0-6.35.28l-.05-8a36.6,36.6,0,0,0,6.54.38Z"/><path class="cls-1" d="M454.17,17.91a66.4,66.4,0,0,0,9.63.42h22.47a77,77,0,0,0,9.64-.42V27a88.53,88.53,0,0,0-9.68-.29H463.85a96.78,96.78,0,0,0-9.68.29Z"/><path class="cls-1" d="M514.38,3.29c-.18,1.6-.18,1.6-.51,10.91-.28,9.82-1.22,15-3.48,20.17a31.38,31.38,0,0,1-6.54,9.4,25.26,25.26,0,0,0-6.72-6.58,21.1,21.1,0,0,0,5.6-7.48c2.21-4.61,3-10.43,3-22.61a34.74,34.74,0,0,0-.19-4.33Zm13.31-.75A34.18,34.18,0,0,0,527.31,8l-.23,24.64a18.18,18.18,0,0,0,5.64-5.17,24,24,0,0,0,3.67-8,31.3,31.3,0,0,0,6.25,6.2c-2.12,5.27-4.56,8.89-8.13,11.94-2.82,2.4-5.13,3.62-9.88,5.36a10.36,10.36,0,0,0-2.3,1l-4-4.23a10.36,10.36,0,0,0,.51-4L519,7.9V6.21a28.1,28.1,0,0,0-.19-3.67Z"/><path class="cls-1" d="M543.67,17.91a66.64,66.64,0,0,0,9.64.42h22.47a77.11,77.11,0,0,0,9.64-.42V27a88.86,88.86,0,0,0-9.69-.29H553.36c-5.27,0-6.82.05-9.69.29Z"/><path class="cls-1" d="M611.56,3.38a18.8,18.8,0,0,0-1.23,3.48c-3.66,12.18-5.69,18.15-8.74,26A142.38,142.38,0,0,0,617.71,31a78.28,78.28,0,0,0-5.92-11.19L619.17,17a101.19,101.19,0,0,1,11.19,22.47l-8,4.09a34.78,34.78,0,0,0-1.74-5.26c-6.72,1.17-11.52,1.83-18.8,2.58l-10.77,1a25.2,25.2,0,0,0-2.58.42l-1.23-8.79c.9,0,1.27,0,1.51,0a11.15,11.15,0,0,0,1.17,0l1.46-.05a10.32,10.32,0,0,0,1.18,0,217.69,217.69,0,0,0,7.8-23.37,41.83,41.83,0,0,0,1.83-8.41Z"/><path class="cls-1" d="M637.41,27.88a41,41,0,0,0-5.36.23V21.2a37.75,37.75,0,0,0,5.36.24h31.17a36.39,36.39,0,0,0,5.22-.24v6.91a40.35,40.35,0,0,0-5.32-.23h-7.75V36.2c0,1.08.51,1.27,3.29,1.27,2.58,0,3.43-.24,3.76-1a18.19,18.19,0,0,0,.42-3.85,8.37,8.37,0,0,0,0-.9,24.31,24.31,0,0,0,6.76,1.79c-.18,5.5-.94,7.94-2.91,9.36-1.46,1-3.53,1.26-9.64,1.26-7.43,0-8.88-.7-8.88-4.41V27.88H650c-.42,4.46-1.13,6.86-2.87,9.45a18.49,18.49,0,0,1-7.85,6.11,28.53,28.53,0,0,1-5,1.69,23.83,23.83,0,0,0-3.76-6.72,19.35,19.35,0,0,0,8.65-3.34c2.12-1.55,3.2-3.67,3.53-7.19ZM648.79,3.71A20.92,20.92,0,0,0,648.6.52h7.9a17.91,17.91,0,0,0-.24,3.15v.56h12.13c2.63,0,4.18-.05,5.69-.19A28,28,0,0,0,673.89,8V12.6a24.54,24.54,0,0,0,.24,4H667V10.67H638.87v5.88h-7.2a23.86,23.86,0,0,0,.29-4V8A29.68,29.68,0,0,0,631.77,4c1.46.14,3,.19,5.59.19h11.43Zm-8.79,9a43.39,43.39,0,0,0,4.79.19h16.27a43.94,43.94,0,0,0,4.84-.19v6.63a43.47,43.47,0,0,0-4.84-.19H644.79a42.81,42.81,0,0,0-4.79.19Z"/><path class="cls-1" d="M700.45,37v2.4a27.27,27.27,0,0,0,.24,5.22H694a38.15,38.15,0,0,0,.24-5.22V25.29a69,69,0,0,1-1.18,9.26,35.21,35.21,0,0,1-3.1,10,29.88,29.88,0,0,0-3.76-5,36,36,0,0,0,.28,5.13H679a42.57,42.57,0,0,0,.28-5.41V27.6c0-1,0-2.07.1-5.22a25.19,25.19,0,0,1-2.21,3.1,46.07,46.07,0,0,0-2.35-8.7,28.2,28.2,0,0,0,5.59-9.07A31.65,31.65,0,0,0,682.68,0l7.1,1.65c-.19.61-.24.8-.52,1.59,1.32.1,2.68.14,4.56.14h.75V2.77a10.15,10.15,0,0,0-.18-2.35h7.19a17.14,17.14,0,0,0-.14,2.31v.65h4.7V2.77A13.39,13.39,0,0,0,706,.42h7.14A16.61,16.61,0,0,0,713,2.73v.65h1.41a30.91,30.91,0,0,0,5-.28V9.59a47.38,47.38,0,0,0-5-.14H713v2.26h1.65a48.14,48.14,0,0,0,5.26-.19V18a39.45,39.45,0,0,0-4.37-.19H694.62v1.36c1.22.1,2.49.15,4.7.15h15a36.42,36.42,0,0,0,4.37-.19A40.34,40.34,0,0,0,718.5,24V39.87c0,3.76-1.08,4.42-7.71,4.56a23.06,23.06,0,0,0-1.12-5.17c.61,0,1.12.09,1.64.09.71,0,.8-.14.8-.94V37h-3v1.79a44.92,44.92,0,0,0,.19,5.31h-6.26a39.9,39.9,0,0,0,.24-5.31V37Zm-14.24-1.46a24.94,24.94,0,0,0,1.17-4.65,108.72,108.72,0,0,0,.71-13.59c0-2.77-.05-4-.19-5.78,1.88.14,2.63.19,5.17.19h1.5V9.45h-.75c-2.77,0-3.52.05-4.93.14v-5a40.69,40.69,0,0,1-2.68,6.91Zm17.11-11.33h-2.87v1.93h2.87Zm0,6.25h-2.87v2h2.87Zm2.82-18.75V9.45h-4.7v2.26Zm6,14.43V24.21h-3v1.93Zm0,6.3v-2h-3v2Z"/><path class="cls-1" d="M739,35.78a8.93,8.93,0,1,1-8.93-8.94A8.93,8.93,0,0,1,739,35.78Zm-13,0a4.09,4.09,0,1,0,4.09-4.09A4.1,4.1,0,0,0,726,35.78Z"/><path class="cls-1" d="M10.11,88.18a42.29,42.29,0,0,1-6.58,3.2A30.89,30.89,0,0,0,0,84.47,35.8,35.8,0,0,0,10.81,79.3a27.91,27.91,0,0,0,7.9-7.62h7.62a27.63,27.63,0,0,0,7.94,7.24,40.37,40.37,0,0,0,11.24,5.22,31.31,31.31,0,0,0-3.29,7.43,43.53,43.53,0,0,1-7-3.43v2.68a38.47,38.47,0,0,0-4.46-.19H14.53a41.16,41.16,0,0,0-4.42.19ZM8,99.89a48.52,48.52,0,0,0-5.73.28V93c1.64.14,3.57.23,5.73.23H37.52c2.25,0,4-.09,5.68-.23v7.19a47.72,47.72,0,0,0-5.68-.28H32.86A102.63,102.63,0,0,1,42.78,112l-6.49,4-2.21-3.47c-5.45.61-5.45.61-8,.84-3.1.33-15.79,1.41-17.77,1.51-1.64.14-3,.28-4.13.47l-.9-7.85c1.23.09,2.07.14,3.11.14.51,0,.51,0,3.29-.1a57.28,57.28,0,0,0,4.09-7.66ZM29.24,84.28A35,35,0,0,1,22.66,78,32.89,32.89,0,0,1,16,84.28ZM22,99.89a59.35,59.35,0,0,1-4.09,7.43c6.87-.28,6.87-.28,11.75-.71-1.31-1.6-2-2.35-4-4.51l5.55-2.21Z"/><path class="cls-1" d="M59.37,110.56a46.09,46.09,0,0,0,.19,5H52a35.48,35.48,0,0,0,.28-5.17v-9.54a32.51,32.51,0,0,1-4.18,3,26.31,26.31,0,0,0-3-7.05,28.34,28.34,0,0,0,7.33-5.36,20.65,20.65,0,0,0,4.89-6.53H50.72a32.25,32.25,0,0,0-4.09.18v-7a24.94,24.94,0,0,0,3.62.18h2.12V74.79a23.08,23.08,0,0,0-.28-3.58h7.47a20.18,20.18,0,0,0-.23,3.62v3.43H60.6a16,16,0,0,0,2.72-.14l3.06,3.25a15.1,15.1,0,0,0-1.08,2.21,39.13,39.13,0,0,1-4.23,7.66,22.75,22.75,0,0,0,7.52,5.64,33.05,33.05,0,0,0-3.53,6.72,21.93,21.93,0,0,1-5.69-4.84Zm20.74-3.29h3.76A51.65,51.65,0,0,0,89.6,107v7.38c-2-.19-3.85-.29-5.69-.29H68.63a53.48,53.48,0,0,0-5.5.29V107a52.82,52.82,0,0,0,5.65.23h3.9V90.06H70.23c-1.6,0-3.1.1-4.6.24V83a30.51,30.51,0,0,0,4.6.24h2.45V76.9a41.84,41.84,0,0,0-.33-5.55h8a38,38,0,0,0-.28,5.55v6.35h3.71A30.42,30.42,0,0,0,88.47,83V90.3c-1.55-.14-3-.24-4.65-.24H80.11Z"/><path class="cls-1" d="M104.64,101.39a26.85,26.85,0,0,0,.15-3.33V93.83c0-1.18,0-1.6-.05-2.17-.47,6.07-1.13,9.4-2.63,13.31a29.25,29.25,0,0,1-6.44,10.72,18.91,18.91,0,0,0-4.89-6,22.52,22.52,0,0,0,6.15-10.34c1.09-3.91,1.51-8.61,1.51-17.63,0-6.45-.1-8.28-.38-10.11h7.29a43.21,43.21,0,0,0-.24,5.92V80.8c0,3.86,0,6.26-.28,9.64,1,.09,2.17.14,3.9.14h21.86a32.17,32.17,0,0,0,4.19-.19c-.09,1-.14,2-.14,3.25V98a30.18,30.18,0,0,0,.19,3.38h-2.4v6.77c0,3.67-1.55,4.75-7,4.75h-1.13a14.54,14.54,0,0,0-1.36-5.64,14.36,14.36,0,0,0,1.88.19c.8,0,.94-.1.94-.71v-2.86h-3.15v6.34c0,2.45,0,4,.19,5.41h-7.15a48.85,48.85,0,0,0,.19-5.45v-6.3h-2.73v4.74a43.64,43.64,0,0,0,.19,4.52H106.1c.14-1.55.24-3.25.24-5.36v-6.4ZM90.87,97.21a35.67,35.67,0,0,0,.23-4.37V80.47a28.26,28.26,0,0,0-.28-4.32h6.11a24.13,24.13,0,0,0-.23,4V93.31c0,2,0,2.91.14,3.9ZM125.19,77.7H111.93c-1.36,0-3.76,0-4.93.14V72.39c1.55.14,3,.19,5.07.19h15.56a43.63,43.63,0,0,0,4.66-.19c-.1,1.31-.14,2.07-.14,4.13v9.27a27,27,0,0,0,.14,3.57c-.8,0-1.93-.1-3.43-.1h-17c-1.36,0-3.47,0-4.88.15V84.52a44.15,44.15,0,0,0,4.74.14h13.45V83.39H112.07c-1.36,0-2.54,0-4.32.09V78.92c1.22.1,1.78.1,4.18.1h13.26Zm-9.31,20.59V96.41h-4.65v1.88Zm11.89,0V96.41h-5.12v1.88Z"/><path class="cls-1" d="M149.63,72.72a62.35,62.35,0,0,0-1.92,10.06c3-5.5,6.86-8.14,11.89-8.14a11.1,11.1,0,0,1,8.51,4.28c2.63,3.29,3.9,7.57,3.9,13.07q0,11.57-7.19,17.21a28.45,28.45,0,0,1-10.72,4.89,48.34,48.34,0,0,1-5.55,1.08,27.94,27.94,0,0,0-3.76-8c13.49-.8,19-5.22,19-15.37,0-5.88-1.88-9.12-5.22-9.12-1.74,0-3.34.84-5.08,2.72a20,20,0,0,0-5.22,10.91,24.25,24.25,0,0,0-.19,3.85l-7.89.1a6.38,6.38,0,0,0,0-.8v-.94c-.09-1.83-.14-4.65-.14-6a136,136,0,0,1,1.08-17.16,23.55,23.55,0,0,0,.19-2.59v-.37Z"/><path class="cls-1" d="M205.34,93.35a7.17,7.17,0,1,1-7.15-7.14A7.16,7.16,0,0,1,205.34,93.35Z"/><path class="cls-1" d="M229.36,78.17a33.06,33.06,0,0,0-2.82-4.84l6.91-1.41A48.89,48.89,0,0,1,237,78.17h3.15a28.5,28.5,0,0,0-2.44-5.45l7.15-1.27a39.85,39.85,0,0,1,2.77,6.72h2.77a33.26,33.26,0,0,0,2.92-6.54l7.19,1.56a55,55,0,0,1-2.63,5h.94c2.91,0,4.28,0,5.87-.19a29.86,29.86,0,0,0-.18,4v5.22a31.64,31.64,0,0,0,.23,3.85h-7.14V84.38H229.5V91h-7.14a22.89,22.89,0,0,0,.23-3.9V81.93a31,31,0,0,0-.19-4c1.7.14,2.92.19,5.79.19ZM247.65,110c0,4.56-1.6,5.59-8.89,5.59-.8,0-2.06,0-4.27-.14a28,28,0,0,0-2.07-6.91c2.58.24,4.37.38,5.69.38,1.88,0,2.2-.14,2.2-1v-4.46H228.84a58.44,58.44,0,0,0-6.48.28V96.55a51.08,51.08,0,0,0,6.39.33h11.56a13.81,13.81,0,0,0-.14-2.21h2.59a17.32,17.32,0,0,0,3.2-2.4h-9.74a48,48,0,0,0-5,.19V86.12c1.55.14,2.78.18,5,.18h14.06a23.56,23.56,0,0,0,3.71-.18l3.43,3.9c-.51.42-.7.61-1.41,1.27a76.88,76.88,0,0,1-6.58,5.59h8.7a60.19,60.19,0,0,0,6.63-.33v7.15a61.07,61.07,0,0,0-6.72-.28H247.65Z"/><path class="cls-1" d="M303.31,82.82a20,20,0,0,0,1.93,3.06,28.6,28.6,0,0,0,5.68,5.69,28.24,28.24,0,0,0-3.85,6.25c-1.18-1-1.69-1.46-2.4-2.07a38,38,0,0,1-4.09,7.29,27.69,27.69,0,0,0,10.53,5.26,31.1,31.1,0,0,0-3.48,7.39A34.54,34.54,0,0,1,296,108.4a33.13,33.13,0,0,1-11.33,7.38,24.21,24.21,0,0,0-4-6.53c5.17-1.74,7.66-3.11,10.91-6.07a36.88,36.88,0,0,1-3.9-7.1c-.71.75-1,1.08-1.93,2a21,21,0,0,0-2.63-3.86,33.08,33.08,0,0,0-1.84,5.17,18.68,18.68,0,0,1-2.35-4.09c.1,2.64.14,4,.14,4.94v9.45a44.2,44.2,0,0,0,.29,6.06h-7.48a50.23,50.23,0,0,0,.33-6.06v-6.16c0-1.69.05-3.24.09-4.61a23.41,23.41,0,0,1-3.66,7.57,41.06,41.06,0,0,0-2.92-7.9,29.84,29.84,0,0,0,5.93-12.78h-.95a23.59,23.59,0,0,0-3.76.23v-7a21.77,21.77,0,0,0,3.76.24h1.46V76.24a34,34,0,0,0-.28-4.89h7.43a34.43,34.43,0,0,0-.24,4.89V79.3h1.18a14.89,14.89,0,0,0,2.58-.19V86a14.32,14.32,0,0,0-2.44-.18h-1.27a16.41,16.41,0,0,0,3.38,5.59,22.32,22.32,0,0,0,6-8.56,42.12,42.12,0,0,0-4.85.29V75.87a44.2,44.2,0,0,0,5.55.28h3.39V74.79a16.8,16.8,0,0,0-.24-3.3h7.66a19.71,19.71,0,0,0-.18,3.15v1.51h4.7a46,46,0,0,0,5.59-.28v7.24a48.44,48.44,0,0,0-5.64-.29Zm-10.2,9.41A23.86,23.86,0,0,0,296,97.92,22.68,22.68,0,0,0,298.65,92l4.56,2.25a34.17,34.17,0,0,1-6-9.16l3.95-2.31H290.38l4.56,2.35a44,44,0,0,1-5.69,9Z"/><path class="cls-1" d="M325.31,101.39a29.54,29.54,0,0,0,.14-3.33V93.83c0-1.18,0-1.6-.05-2.17-.47,6.07-1.13,9.4-2.63,13.31a29.11,29.11,0,0,1-6.44,10.72,18.64,18.64,0,0,0-4.89-6,22.63,22.63,0,0,0,6.16-10.34c1.08-3.91,1.5-8.61,1.5-17.63,0-6.45-.09-8.28-.37-10.11H326a45.45,45.45,0,0,0-.23,5.92V80.8c0,3.86,0,6.26-.28,9.64,1,.09,2.16.14,3.9.14h21.86a32,32,0,0,0,4.18-.19c-.09,1-.14,2-.14,3.25V98a30.18,30.18,0,0,0,.19,3.38h-2.4v6.77c0,3.67-1.55,4.75-7,4.75H345a14.36,14.36,0,0,0-1.37-5.64,14.51,14.51,0,0,0,1.88.19c.8,0,.94-.1.94-.71v-2.86h-3.15v6.34c0,2.45.05,4,.19,5.41h-7.14a49.57,49.57,0,0,0,.18-5.45v-6.3h-2.72v4.74a41,41,0,0,0,.19,4.52h-7.24c.14-1.55.23-3.25.23-5.36v-6.4Zm-13.78-4.18a35.37,35.37,0,0,0,.24-4.37V80.47a29.6,29.6,0,0,0-.28-4.32h6.11a22.93,22.93,0,0,0-.24,4V93.31c0,2,.05,2.91.14,3.9ZM345.85,77.7H332.59c-1.36,0-3.76,0-4.93.14V72.39c1.55.14,3,.19,5.08.19H348.3a43.43,43.43,0,0,0,4.65-.19c-.09,1.31-.14,2.07-.14,4.13v9.27a27,27,0,0,0,.14,3.57c-.8,0-1.93-.1-3.43-.1h-17c-1.37,0-3.48,0-4.89.15V84.52a44.45,44.45,0,0,0,4.75.14h13.44V83.39H332.74c-1.37,0-2.54,0-4.33.09V78.92c1.22.1,1.79.1,4.18.1h13.26Zm-9.31,20.59V96.41h-4.65v1.88Zm11.9,0V96.41h-5.13v1.88Z"/><path class="cls-1" d="M370.3,72.72a62,62,0,0,0-1.93,10.06c3.05-5.5,6.86-8.14,11.89-8.14a11.1,11.1,0,0,1,8.51,4.28c2.64,3.29,3.9,7.57,3.9,13.07q0,11.57-7.19,17.21a28.45,28.45,0,0,1-10.72,4.89,48.34,48.34,0,0,1-5.55,1.08,27.42,27.42,0,0,0-3.76-8c13.5-.8,18.95-5.22,18.95-15.37,0-5.88-1.88-9.12-5.22-9.12-1.74,0-3.34.84-5.08,2.72a19.92,19.92,0,0,0-5.21,10.91,24.25,24.25,0,0,0-.19,3.85l-7.9.1a5.12,5.12,0,0,0,.05-.8v-.94c-.1-1.83-.14-4.65-.14-6a136,136,0,0,1,1.08-17.16,23.55,23.55,0,0,0,.19-2.59v-.37Z"/><path class="cls-1" d="M410.49,73.94c-1.83,5.36-3.24,14.15-3.57,22.71l3.62,1.22A46.09,46.09,0,0,0,408.7,111a13.19,13.19,0,0,0,.14,2.3l-8.08.38a19.19,19.19,0,0,0-.24-2.49,99.73,99.73,0,0,1-1.22-14.86,102,102,0,0,1,1.79-18.1,38.33,38.33,0,0,0,.7-5Zm13,20.54c-2.17,2.78-3.15,4.8-3.15,6.49,0,2.16,2.11,3.34,6.11,3.34a34.89,34.89,0,0,0,11.7-1.93l.47,8.32c-1.22.14-1.22.14-4,.57a58.6,58.6,0,0,1-8.14.61c-4.37,0-7.28-.61-9.73-2a8.7,8.7,0,0,1-4.32-7.47,14.81,14.81,0,0,1,2.25-7.34c.66-1.08.94-1.55,2.21-3.38Zm-9.22-17a39.23,39.23,0,0,0,8.37.71c6.25,0,10.86-.38,14-1.18l.33,8c-.42,0-.9,0-3.48.33-3.24.33-6.68.52-9.92.52a78.22,78.22,0,0,1-8.09-.38c-.37,0-.7,0-1.36-.09Z"/><path class="cls-1" d="M469.25,92.74a24.43,24.43,0,0,0,7.76-1.5c2.73,3.53,3.9,6.68,3.9,10.53a11.69,11.69,0,0,1-4.79,9.31c-2.92,2.21-6.82,3.34-11.43,3.34-4.84,0-8.65-1.27-11.33-3.72-2.25-2.11-3.29-4.89-3.29-8.74,0-1,.05-2.07.14-3.48a52.37,52.37,0,0,1-6.06-.94,10.7,10.7,0,0,0-2-.28l.56-7.52a33.16,33.16,0,0,0,8.18,1.64c.05-.47.29-2.07.66-4.7A64.16,64.16,0,0,1,445,85.6l-1.69-.33.52-7.29a39.12,39.12,0,0,0,8.51,1.6,42,42,0,0,0,.7-6.72V72.2l8.7.7c-.52,1.51-.71,2.54-1.36,6.87a45.42,45.42,0,0,0,10.2-1.18l-.28,7.81-3.39.28a70.47,70.47,0,0,1-7.71.33,21.18,21.18,0,0,1-.33,2.3c-.09.61-.14,1-.33,2.54h1a39.88,39.88,0,0,0,9.73-1.08Zm-.14,5.6c-.47,0-.51,0-1.5.19a62.57,62.57,0,0,1-7.38.47c-.47,0-.8,0-2.12,0,0,.61-.09,1.5-.09,2.26a5,5,0,0,0,1.46,4,7.36,7.36,0,0,0,5.07,1.55c5.13,0,8.18-2.26,8.18-6,0-2.4-1.17-4.93-3.48-7.47Z"/><path class="cls-1" d="M511.05,85.32a17.14,17.14,0,0,0-1.79.28c-1.83.33-4.8.7-7.1.94v4.13a27.55,27.55,0,0,1,6.86-.79c5.79,0,10.11,1.45,12.84,4.27a11.79,11.79,0,0,1,3.2,8.33,11.4,11.4,0,0,1-11.71,11.61c-5.83,0-9.22-3.9-9.22-10.67v-1.18a27.89,27.89,0,0,0,7.15-2.87c0,1-.09,1.51-.09,2.49a7.88,7.88,0,0,0,.37,3,2.21,2.21,0,0,0,2.07,1.41c2,0,3.39-1.65,3.39-4a5,5,0,0,0-2.31-4.13,10.48,10.48,0,0,0-5.59-1.23,25.24,25.24,0,0,0-6.91.94l0,8.33v1.22c0,2.87-.18,3.9-.89,4.89a5.66,5.66,0,0,1-4.79,2.07,16.73,16.73,0,0,1-10.16-3.72,8.13,8.13,0,0,1-3.05-6.11c0-2.54,1.55-5.31,4.37-7.8a24.84,24.84,0,0,1,7-4.19V86.91l-3.57.1-4.56-.1a8.83,8.83,0,0,0-1,0l-.09-7.38A35.74,35.74,0,0,0,492,80h1.79c.65,0,.65,0,.94,0V78.45a34.55,34.55,0,0,0-.33-6.34h8.13a36.38,36.38,0,0,0-.28,5.87v1.51a51.81,51.81,0,0,0,8.6-1.6Zm-16.32,14.9c-2.21,1-3.9,2.87-3.9,4.18a1.85,1.85,0,0,0,1,1.51,4.69,4.69,0,0,0,2.12.75c.61,0,.75-.33.75-1.88ZM521,89.88a41.05,41.05,0,0,0-9.26-11L518,74.64A40,40,0,0,1,527.22,85Z"/><path class="cls-1" d="M536.9,84.19a43.65,43.65,0,0,1-4.32,4.65,24,24,0,0,0-5.18-5.22,30.83,30.83,0,0,0,8.18-9.78,11.34,11.34,0,0,0,1.18-3.1l7.76.89c-.1.19-.52,1-1.23,2.5h20.46a46,46,0,0,0,5.78-.29v7c-1.7-.14-3.43-.23-5.78-.23H539.58c-.37.56-.52.75-1,1.46h22.33a48.48,48.48,0,0,0,5.36-.19v5.87c-1.5-.14-2.91-.18-5.36-.18H541.46a43,43,0,0,0-4.56.18Zm18.48,13.3c-.38.47-.57.71-1.6,2.12A41.19,41.19,0,0,1,550.3,104c3.38,2.59,4.42,3.48,7.24,5.92l-4.94,5.5a98.26,98.26,0,0,0-7.38-6.62,51.5,51.5,0,0,1-12.41,7.28,23.41,23.41,0,0,0-4.7-6.16c5.73-2.11,8.09-3.29,11.38-5.59a81.33,81.33,0,0,0-7.15-4.7l4.8-4.37h-1c-2.77,0-4.47.09-5.92.23V88.84a23.66,23.66,0,0,0,3.66.19h25.34c3.25,0,4.19,0,5.64-.14a37.79,37.79,0,0,0-.23,4.65c0,7,.66,11.38,2.07,13.4.47-.8.7-2.77.7-5.12V101a17.9,17.9,0,0,0,5,3.39c-.47,4.74-1.08,7.28-2.07,9a4.51,4.51,0,0,1-4,2.31c-2.39,0-4.79-2.12-6.3-5.45-1.64-3.81-2.39-8.09-2.44-15H550.3Zm-18.1-2.25c3.38,2,4.89,2.91,7.33,4.6a23.06,23.06,0,0,0,3.39-4.6Z"/><path class="cls-1" d="M612,107.93a33.91,33.91,0,0,0,4.94-.24v7a34.6,34.6,0,0,0-4.94-.23H598.39a36.86,36.86,0,0,0-5,.23v-5a23.91,23.91,0,0,0-2.68-.09H587.3v1.88a36.23,36.23,0,0,0,.23,4.18h-7a32.6,32.6,0,0,0,.28-4.56v-1.5h-3.2a29,29,0,0,0-4.56.23v-6.49a28.05,28.05,0,0,0,4.56.24h3.2v-1.69h-1.65c-2.3,0-3,0-4.93.09.14-1.64.19-3.34.19-5.92v-7.9c0-2.59,0-3.71-.19-5.41,1.45.1,2.25.14,4.93.14h1.65V81.08h-2.87a42.15,42.15,0,0,0-4.61.19V74.93a30.26,30.26,0,0,0,4.61.23h2.87a18.53,18.53,0,0,0-.28-3.85h7.05a18.71,18.71,0,0,0-.28,3.85h2a29.93,29.93,0,0,0,4.56-.23v6.3a35.86,35.86,0,0,0-4.56-.15h-2v1.74H590c2.35,0,2.86,0,3.9-.09a32,32,0,0,0-.19,4.8v1.88a33.5,33.5,0,0,0,6-2.78,39.47,39.47,0,0,1-4.47-5.17l4.38-2.26h-.33a36.85,36.85,0,0,0-4.56.19V72.53a37.51,37.51,0,0,0,5.45.23H609a22.83,22.83,0,0,0,3.66-.18l4,3.85c-.37.66-.61,1-1.31,2.26a40.32,40.32,0,0,1-5.46,7.66A34.57,34.57,0,0,0,617.67,89a27.56,27.56,0,0,0-3,6.44,39.44,39.44,0,0,1-9.78-4.65,26.17,26.17,0,0,1-3.15,2.11h6.44A31.54,31.54,0,0,0,608,97v.29h3.72a21.64,21.64,0,0,0,4-.24v6.77a36.62,36.62,0,0,0-4.19-.19H608v4.33ZM579.59,88V90h2V88Zm0,6.49v2.21h2V94.44Zm9-4.42V88h-2V90Zm0,6.63V94.44h-2v2.21Zm12.5,6.95h-1.88a40.45,40.45,0,0,0-4.47.19V97.07a39.26,39.26,0,0,0,4.66.19h1.69V97c0-1.73-.05-2.58-.14-3.66A36.66,36.66,0,0,1,596,95.56a27.52,27.52,0,0,0-2.35-4.27v5.07a55,55,0,0,0,.19,5.55c-1.08-.09-1.6-.09-4.09-.09H587.3v1.69H591a27.55,27.55,0,0,0,3.53-.14v4.46c1.22.1,1.78.1,3.38.1h3.15Zm.19-24.4a18.21,18.21,0,0,0,3.24,3.67,20.29,20.29,0,0,0,2.78-3.67Z"/><path class="cls-1" d="M631.77,73.94c-1.84,5.36-3.25,14.15-3.58,22.71l3.62,1.22A46.45,46.45,0,0,0,630,111a13.19,13.19,0,0,0,.14,2.3l-8.08.38a19.19,19.19,0,0,0-.24-2.49,99.73,99.73,0,0,1-1.22-14.86,101.07,101.07,0,0,1,1.79-18.1,38.33,38.33,0,0,0,.7-5Zm13,20.54c-2.16,2.78-3.15,4.8-3.15,6.49,0,2.16,2.12,3.34,6.11,3.34a34.91,34.91,0,0,0,11.71-1.93l.47,8.32c-1.22.14-1.22.14-4,.57a58.34,58.34,0,0,1-8.13.61c-4.37,0-7.29-.61-9.73-2a8.71,8.71,0,0,1-4.33-7.47A14.73,14.73,0,0,1,636,95.09c.66-1.08.94-1.55,2.21-3.38Zm-9.21-17a39.23,39.23,0,0,0,8.37.71c6.25,0,10.86-.38,14-1.18l.33,8c-.43,0-.9,0-3.48.33-3.25.33-6.68.52-9.92.52a78.22,78.22,0,0,1-8.09-.38c-.38,0-.71,0-1.36-.09Z"/><path class="cls-1" d="M689.87,85.32a18,18,0,0,0-1.79.28c-1.83.33-4.79.7-7.09.94v4.13a27.5,27.5,0,0,1,6.86-.79c5.78,0,10.11,1.45,12.83,4.27a11.79,11.79,0,0,1,3.2,8.33,11.4,11.4,0,0,1-11.7,11.61c-5.83,0-9.22-3.9-9.22-10.67v-1.18a28.19,28.19,0,0,0,7.15-2.87c-.05,1-.1,1.51-.1,2.49a7.84,7.84,0,0,0,.38,3,2.21,2.21,0,0,0,2.07,1.41c2,0,3.38-1.65,3.38-4a5,5,0,0,0-2.3-4.13,10.5,10.5,0,0,0-5.6-1.23,25.29,25.29,0,0,0-6.91.94l.05,8.33v1.22c0,2.87-.19,3.9-.89,4.89a5.68,5.68,0,0,1-4.8,2.07,16.7,16.7,0,0,1-10.15-3.72,8.14,8.14,0,0,1-3.06-6.11c0-2.54,1.55-5.31,4.37-7.8a24.91,24.91,0,0,1,7-4.19V86.91L670,87l-4.56-.1a8.64,8.64,0,0,0-1,0l-.1-7.38a35.94,35.94,0,0,0,6.45.42h1.78c.66,0,.66,0,.94,0V78.45a34.55,34.55,0,0,0-.33-6.34h8.14A36.11,36.11,0,0,0,681,78v1.51a51.74,51.74,0,0,0,8.61-1.6Zm-16.31,14.9c-2.21,1-3.9,2.87-3.9,4.18a1.85,1.85,0,0,0,1,1.51,4.65,4.65,0,0,0,2.12.75c.61,0,.75-.33.75-1.88Zm26.28-10.34a41.05,41.05,0,0,0-9.26-11l6.2-4.19A39.85,39.85,0,0,1,706,85Z"/><path class="cls-1" d="M729.69,107a113.23,113.23,0,0,0,4.94-15A39.25,39.25,0,0,0,736,85.13l8.22,2.21c-.47,1.41-.47,1.41-1.78,5.73a135.41,135.41,0,0,1-5.08,14h6.3a55.61,55.61,0,0,0,6.77-.33v7.47a56.16,56.16,0,0,0-6.77-.33h-30a57.22,57.22,0,0,0-6.86.33v-7.47a56.22,56.22,0,0,0,6.86.33Zm-5.08-32.21a18.34,18.34,0,0,0-.28-3.34h8.09a17.6,17.6,0,0,0-.29,3.34v2.54h10.11a59.82,59.82,0,0,0,6.68-.33v7.48a51.11,51.11,0,0,0-6.68-.33H715.07a50.77,50.77,0,0,0-6.63.33V77a58.82,58.82,0,0,0,6.63.33h9.54Zm-4.32,10.39a152.08,152.08,0,0,1,5.59,18.15L718.41,106a100.27,100.27,0,0,0-5.27-18.14Z"/><path class="cls-1" d="M753,78.22a48.53,48.53,0,0,0,10.15.8,35.05,35.05,0,0,0,1.08-7.1l8.75.7c-.52,1.69-.52,1.69-1.65,6.3,9.26-.37,14.67-1,17.49-1.93l.33,8c-1.22,0-1.69,0-3.34.24-6.58.66-10.9.94-16.36,1.08a49.67,49.67,0,0,1-2.72,7.05A22.7,22.7,0,0,1,777,91.29c4.42,0,7.66.8,10.16,2.49a9.51,9.51,0,0,1,3.94,7.94c0,7.62-7.19,12.37-18.75,12.37a49,49,0,0,1-11.94-1.51,33.3,33.3,0,0,0-.8-8.13,42.58,42.58,0,0,0,12.64,2.16c6.3,0,10.25-1.93,10.25-5,0-2.21-2.35-3.43-6.63-3.43a20.55,20.55,0,0,0-9.59,2.16,7,7,0,0,0-3,2.44l-7.94-2.53a69.53,69.53,0,0,0,6-14.06c-.47,0-.47,0-1.74,0-.94,0-1,0-4.66-.28-.66,0-1.17,0-1.55,0a2.45,2.45,0,0,0-.52,0Z"/><path class="cls-1" d="M804.44,86.73c-2.36,0-3.67,0-5.27.18V84.52H794.7a23.07,23.07,0,0,0,.29-3.81v-3.2a28.35,28.35,0,0,0-.19-3.71c1.64.14,3.05.19,5.59.19h11.66a12.44,12.44,0,0,0-.19-2.54h7.71a12.86,12.86,0,0,0-.18,2.54h12.22c2.54,0,3.95,0,5.64-.19a25.63,25.63,0,0,0-.19,3.71v3.2a22.78,22.78,0,0,0,.24,3.76h-4.47v2.44c-1.5-.14-3.05-.18-5.36-.18h-4.75c3.34,1.64,7,2.3,13,2.35-1.08,1.59-1.46,2.21-2.35,3.76,1.88,0,3.15-.1,4.61-.24V99c-1.79-.14-3.34-.23-5.5-.23v10.81c0,2.63-.52,4-1.84,4.89-1.17.75-2.82,1-6.11,1-1.13,0-2.44,0-4.51-.09a16.47,16.47,0,0,0-.57-3H806.55v2h-7.19a26.15,26.15,0,0,0,.23-4V103.6a23.36,23.36,0,0,0-.18-3.43c1.31,0,2.2.1,3.62.1h15.42a33.14,33.14,0,0,0,3.76-.1,26.9,26.9,0,0,0-.19,3.62v5.36c.47,0,1.27,0,1.46,0,1.41,0,1.83-.24,1.83-1V98.81H799.64c-2.16,0-3.76.09-5.45.23V92.6c1.31.14,2.44.19,4.32.24a25.64,25.64,0,0,0-2.3-3.43c5.78-.19,9-.94,11.89-2.68ZM801.85,80v1.69c.75,0,1.18,0,2,0h7.81a10.51,10.51,0,0,0,.23-1.74Zm4.65,27.45h8.79V105.2H806.5Zm16.27-14.57a20.35,20.35,0,0,1-7.24-4.47,15.27,15.27,0,0,1-6.72,4.47ZM818.82,80a13.23,13.23,0,0,1-.28,1.74h9.68c.85,0,1.18,0,1.88,0V80Z"/><path class="cls-1" d="M852.71,72.72a63.51,63.51,0,0,0-1.92,10.06c3.05-5.5,6.86-8.14,11.89-8.14a11.1,11.1,0,0,1,8.51,4.28c2.63,3.29,3.9,7.57,3.9,13.07q0,11.57-7.19,17.21a28.45,28.45,0,0,1-10.72,4.89,48.34,48.34,0,0,1-5.55,1.08,27.94,27.94,0,0,0-3.76-8c13.49-.8,19-5.22,19-15.37,0-5.88-1.88-9.12-5.22-9.12-1.74,0-3.34.84-5.08,2.72a20,20,0,0,0-5.22,10.91,24.6,24.6,0,0,0-.18,3.85l-7.9.1a6.38,6.38,0,0,0,0-.8v-.94c-.09-1.83-.14-4.65-.14-6a134.17,134.17,0,0,1,1.09-17.16,22.91,22.91,0,0,0,.18-2.59v-.37Z"/><path class="cls-1" d="M890,75.63a58.52,58.52,0,0,0-.52,8.51c0,10.53,1.51,18.48,3.48,18.48.52,0,1-.62,1.51-1.84A47.67,47.67,0,0,0,897,92.65a29.28,29.28,0,0,0,6.54,5.92,39.88,39.88,0,0,1-3.58,9.08c-1.74,3.1-4.28,4.79-7.14,4.79-2.64,0-4.89-1.36-6.73-4-2.44-3.48-3.71-8.18-4.32-15.66-.24-3.29-.42-7.24-.52-13.77a28.89,28.89,0,0,0-.19-3.34Zm21.67,1.69c6.11,7.39,9.55,16,10.86,27.36l-8.41,3.11c-.52-10.53-3.76-19.79-9.59-27.18Z"/><path class="cls-1" d="M949.27,84.85a79.23,79.23,0,0,1,12.46-.71c.33,0,1.32,0,2.31,0l.14,7.94A42.75,42.75,0,0,0,958,91.8,63.31,63.31,0,0,0,944.81,93l-.47-6.68c-2.26.24-2.82.28-4.28.38-.8,4.42-1.65,7.9-3,12.79-1.18,4.13-1.46,5.17-3.48,11.23-.75,2.26-.75,2.26-1.08,3.39l-8.65-3.15c3.1-6,6.16-15.38,7.9-24.07H931c-1.5,0-2.49-.05-4.51-.14h-.47c-.38,0-.56,0-1.08,0l.14-7.66a49.11,49.11,0,0,0,7.14.47h.9a45.47,45.47,0,0,0,.8-7v-.71l8.79.66a15.18,15.18,0,0,0-.61,2.73c0,.28-.33,1.64-.75,4A53.61,53.61,0,0,0,949.09,78Zm1.65,12.92c-1.79,2.12-2.54,3.67-2.54,5.13,0,2.16,1.93,3.2,5.88,3.2a35.43,35.43,0,0,0,11.09-1.84l.57,8.23c-.94.09-1.37.14-2.5.28a57.67,57.67,0,0,1-9.16.75q-13.83,0-13.82-8.88c0-2.73,1.08-5.36,3.66-9.12Z"/><path class="cls-1" d="M993.18,85.32a75,75,0,0,1,12.46-.71c.33,0,1.32,0,2.3,0l.14,7.94a42.53,42.53,0,0,0-6.15-.33,63.24,63.24,0,0,0-13.21,1.18l-.47-6.68c-2.26.24-2.92.29-4.28.38-1.84,9.35-2.87,13.16-7.52,27.41l-8.66-3.15a99.43,99.43,0,0,0,7.9-24.07h-.75c-1.08,0-2.35,0-3.24-.1-1.23,0-1.41,0-1.79,0a10.15,10.15,0,0,0-1,0l.14-7.66a49.11,49.11,0,0,0,7.14.47h.9a46.82,46.82,0,0,0,.8-7v-.76l8.79.66a15.83,15.83,0,0,0-.61,2.73c-.19,1-.43,2.35-.76,4A50.19,50.19,0,0,0,993,78.5Zm1.65,12.92c-1.79,2.12-2.59,3.67-2.59,5.13,0,2.16,1.93,3.2,5.88,3.2a35.5,35.5,0,0,0,11.14-1.84l.56,8.23c-.94.09-1.27.14-2.53.28a57,57,0,0,1-9.17.75q-13.83,0-13.82-8.88c0-2.73,1.08-5.36,3.71-9.12Zm5.5-24.86a32.51,32.51,0,0,1,4.75,7l-4.47,2.17a32.22,32.22,0,0,0-4.75-7.1Zm6.25-2.83a35.42,35.42,0,0,1,4.8,6.77l-4.33,2.12a35.58,35.58,0,0,0-4.7-7Z"/><path class="cls-1" d="M1025,73.94a76.48,76.48,0,0,0-2.49,13.35A98.48,98.48,0,0,0,1022,98.1s0,.43,0,1.74a33.56,33.56,0,0,1,2.39-5.78l5.5,2.73c-3,4.93-5.69,12-6,16l-7.57.28c-.14-1-.14-1-.65-3.71a83.8,83.8,0,0,1-1.32-14.91c0-5.17.19-7.38,1.6-17.49a24.35,24.35,0,0,0,.28-3.71Zm2,8.18a48.25,48.25,0,0,0,8.46.66,38.9,38.9,0,0,0,4.28-.19c-.33-8-.33-8.09-.7-9.78l8.36-.09a17.28,17.28,0,0,0-.14,1.78,7.1,7.1,0,0,0,0,.9c0,.89.09,3.1.19,6.48a27.36,27.36,0,0,0,6.58-1.59l.42,7.85c-.8.09-1.08.14-2.72.42a30.41,30.41,0,0,1-4,.61c0,2.26,0,2.73,0,3.81,0,6-.94,10.77-2.77,13.91-2.07,3.62-4.42,5.83-9.22,8.61a29.78,29.78,0,0,0-6.44-6.25c4.89-2.12,8-4.94,9.36-8.33.89-2.25,1.22-5,1.22-10.53v-.56c-1.83.14-3,.19-5,.19-1.79,0-3.29,0-4.94-.14s-1.55-.1-3-.1Z"/><path class="cls-1" d="M1057.35,76.57a67.35,67.35,0,0,0,13.54,1c.56,0,1.18,0,2.59,0a32.5,32.5,0,0,0-.29-5.12h8.28a28.41,28.41,0,0,0-.38,4.89c6.25-.38,10.63-.9,13.35-1.65l.24,7.19c-1.37.1-1.65.1-4.14.43a92.78,92.78,0,0,1-9.45.8v3a74.73,74.73,0,0,0,12.13-1.41l.19,7.19c-1,0-1,0-3,.24s-6.63.56-9.21.65c0,2.17,0,2.17.14,4.14a26.91,26.91,0,0,1,6.44,2.54,47.22,47.22,0,0,1,6.3,3.9c.7.47,1,.66,1.78,1.13l-4.46,7.57a25.41,25.41,0,0,0-3.2-3,24.14,24.14,0,0,0-6.68-4.18,8.14,8.14,0,0,1-1.12,4.74c-1.56,2.4-5.13,3.72-10.25,3.72-7.71,0-12.08-3.15-12.08-8.61,0-3.43,2.16-6.25,5.92-7.66a23.9,23.9,0,0,1,8.37-1.27h1.45c0-1.6-.09-2.54-.09-2.77-1,0-2.91,0-3.62,0-2.73,0-4.89,0-7.57-.19-2.07-.1-2.3-.14-3.71-.14l.09-7a71.85,71.85,0,0,0,11.57.75c1,0,1.69,0,3.15,0v-.71c0-.09,0-.09,0-1.22V84.28c-1.08,0-1.55,0-2,0-2.53,0-3.33,0-8.74-.28-1.79,0-1.79,0-3.53-.14-.65,0-1.12,0-1.26,0h-.8Zm13.59,26.8c-2.87,0-4.52.8-4.52,2.25,0,1.18,1.32,1.89,3.67,1.89,2.63,0,3.76-.9,3.76-3,0-.29,0-.8,0-.8A10.15,10.15,0,0,0,1070.94,103.37Z"/><path class="cls-1" d="M1097.78,77.28c1.17.09,1.69.14,2.87.14s13.91-.33,18.28-.47a26.68,26.68,0,0,0-.32-5h8.32a31.56,31.56,0,0,0-.24,4.8c7.81-.05,11.28-.14,13.16-.33l.05,7.71a78.17,78.17,0,0,0-8.46-.23c-2.49,0-2.82,0-4.7,0v7a15,15,0,0,1,1.88,7.85c0,5.27-2.73,9.87-7.76,13a37.64,37.64,0,0,1-9.45,3.81,21.13,21.13,0,0,0-4.46-7.43c4.74-.7,7.42-1.45,9.68-2.86a7.79,7.79,0,0,0,3.48-3.72,8.57,8.57,0,0,1-6.3,2.21c-5.45,0-9.31-3.57-9.31-8.6,0-5.36,4.42-9,10.91-9a10.59,10.59,0,0,1,3.67.52V85.22a7.21,7.21,0,0,0,0-1.13c-9.73.29-17.4.71-21,1.23Zm14.62,17.53c0,1.46,1.32,2.54,3.1,2.54,2,0,3.58-1.22,3.58-2.82s-1.23-2.44-3.11-2.44C1113.9,92.09,1112.4,93.21,1112.4,94.81Z"/><path class="cls-1" d="M1154.9,106.66a8.94,8.94,0,1,1-8.94-8.93A8.93,8.93,0,0,1,1154.9,106.66Zm-13,0a4.09,4.09,0,1,0,4.09-4.09A4.09,4.09,0,0,0,1141.87,106.66Z"/></g></g></svg>