<svg xmlns="http://www.w3.org/2000/svg" xmlns:xlink="http://www.w3.org/1999/xlink" width="1170" height="877.2" viewBox="0 0 1170 877.2"><defs><style>.cls-1{fill:none;}.cls-2{isolation:isolate;}.cls-3{clip-path:url(#clip-path);}.cls-23,.cls-24,.cls-25,.cls-26,.cls-4{mix-blend-mode:multiply;}.cls-5{fill:url(#linear-gradient);}.cls-6{fill:url(#linear-gradient-2);}.cls-7{fill:url(#linear-gradient-3);}.cls-8{fill:url(#linear-gradient-4);}.cls-9{fill:url(#linear-gradient-5);}.cls-10{fill:url(#linear-gradient-6);}.cls-11{fill:url(#linear-gradient-7);}.cls-12{fill:url(#linear-gradient-8);}.cls-13{fill:url(#linear-gradient-9);}.cls-14{fill:url(#linear-gradient-10);}.cls-15{fill:url(#linear-gradient-11);}.cls-16{fill:url(#linear-gradient-12);}.cls-17{fill:url(#linear-gradient-13);}.cls-18{fill:url(#linear-gradient-14);}.cls-19{fill:url(#linear-gradient-15);}.cls-20{fill:url(#linear-gradient-16);}.cls-21{fill:url(#linear-gradient-17);}.cls-22{fill:url(#linear-gradient-18);}.cls-23{fill:url(#linear-gradient-19);}.cls-24{fill:url(#linear-gradient-20);}.cls-25{fill:url(#linear-gradient-21);}.cls-26{fill:url(#linear-gradient-22);}.cls-27{fill:#f8e9b2;}</style><clipPath id="clip-path"><rect class="cls-1" x="72.7" y="539.46" width="1076.15" height="253.2"/></clipPath><linearGradient id="linear-gradient" x1="608.43" y1="875.67" x2="608.43" y2="539.27" gradientUnits="userSpaceOnUse"><stop offset="0" stop-color="#802b3b"/><stop offset="0.08" stop-color="#913143"/><stop offset="0.19" stop-color="#9f354a"/><stop offset="0.32" stop-color="#a7384e"/><stop offset="0.53" stop-color="#aa394f"/><stop offset="0.97" stop-color="#aa394f"/></linearGradient><linearGradient id="linear-gradient-2" x1="613.96" y1="875.67" x2="613.96" y2="539.27" xlink:href="#linear-gradient"/><linearGradient id="linear-gradient-3" x1="616.14" y1="875.67" x2="616.14" y2="539.26" xlink:href="#linear-gradient"/><linearGradient id="linear-gradient-4" x1="657.55" y1="875.66" x2="657.55" y2="539.29" xlink:href="#linear-gradient"/><linearGradient id="linear-gradient-5" x1="589.11" y1="875.67" x2="589.11" y2="539.27" xlink:href="#linear-gradient"/><linearGradient id="linear-gradient-6" x1="813.79" y1="875.67" x2="813.79" y2="518.65" gradientUnits="userSpaceOnUse"><stop offset="0.04" stop-color="#ba6b0e"/><stop offset="0.08" stop-color="#cb740f"/><stop offset="0.14" stop-color="#df8010"/><stop offset="0.21" stop-color="#ed8811"/><stop offset="0.29" stop-color="#f58d12"/><stop offset="0.42" stop-color="#f88e12"/><stop offset="1" stop-color="#f88e12"/></linearGradient><linearGradient id="linear-gradient-7" x1="819.55" y1="874.87" x2="819.55" y2="519.38" xlink:href="#linear-gradient-6"/><linearGradient id="linear-gradient-8" x1="817.72" y1="875.67" x2="817.72" y2="518.65" xlink:href="#linear-gradient-6"/><linearGradient id="linear-gradient-9" x1="803.73" y1="875.67" x2="803.73" y2="518.66" xlink:href="#linear-gradient-6"/><linearGradient id="linear-gradient-10" x1="827.17" y1="875.67" x2="827.17" y2="518.65" xlink:href="#linear-gradient-6"/><linearGradient id="linear-gradient-11" x1="791.42" y1="875.67" x2="791.42" y2="518.65" xlink:href="#linear-gradient-6"/><linearGradient id="linear-gradient-12" x1="407.75" y1="863.64" x2="407.75" y2="509.08" gradientUnits="userSpaceOnUse"><stop offset="0" stop-color="#2e9b88"/><stop offset="0.21" stop-color="#36b7a0"/><stop offset="0.41" stop-color="#3dceb5"/><stop offset="0.97" stop-color="#3dceb5"/></linearGradient><linearGradient id="linear-gradient-13" x1="399.01" y1="862.77" x2="399.01" y2="509.92" xlink:href="#linear-gradient-12"/><linearGradient id="linear-gradient-14" x1="205.96" y1="871.37" x2="205.96" y2="595.86" gradientUnits="userSpaceOnUse"><stop offset="0" stop-color="#bf2b2b"/><stop offset="0.05" stop-color="#d22f2f"/><stop offset="0.12" stop-color="#e63333"/><stop offset="0.2" stop-color="#f43737"/><stop offset="0.29" stop-color="#fc3838"/><stop offset="0.46" stop-color="#ff3939"/><stop offset="0.97" stop-color="#ff3939"/></linearGradient><linearGradient id="linear-gradient-15" x1="211.07" y1="870.59" x2="211.07" y2="596.37" xlink:href="#linear-gradient-14"/><linearGradient id="linear-gradient-16" x1="208.38" y1="871.38" x2="208.38" y2="595.86" xlink:href="#linear-gradient-14"/><linearGradient id="linear-gradient-17" x1="1019.5" y1="883.43" x2="1019.5" y2="558.15" gradientUnits="userSpaceOnUse"><stop offset="0.04" stop-color="#0071bc"/><stop offset="0.07" stop-color="#097ec4"/><stop offset="0.13" stop-color="#1792d1"/><stop offset="0.2" stop-color="#21a0db"/><stop offset="0.28" stop-color="#27a8e0"/><stop offset="0.42" stop-color="#29abe2"/><stop offset="1" stop-color="#29abe2"/></linearGradient><linearGradient id="linear-gradient-18" x1="1004.58" y1="884.27" x2="1004.58" y2="557.46" xlink:href="#linear-gradient-17"/><linearGradient id="linear-gradient-19" x1="-2598.48" y1="420.54" x2="-2563.97" y2="-45.42" gradientTransform="matrix(-1, 0, 0, 1, -2403.11, 0)" xlink:href="#linear-gradient-14"/><linearGradient id="linear-gradient-20" x1="1005.03" y1="560.52" x2="1005.03" y2="92.79" gradientUnits="userSpaceOnUse"><stop offset="0.04" stop-color="#0071bc"/><stop offset="0.14" stop-color="#0579c1"/><stop offset="0.29" stop-color="#158ecf"/><stop offset="0.44" stop-color="#29abe2"/><stop offset="1" stop-color="#29abe2"/></linearGradient><linearGradient id="linear-gradient-21" x1="-116.11" y1="738.37" x2="71.02" y2="418.77" gradientTransform="translate(304.35 -372.56) rotate(-18.23)" gradientUnits="userSpaceOnUse"><stop offset="0" stop-color="#2e9b88"/><stop offset="0.05" stop-color="#30a38f"/><stop offset="0.28" stop-color="#3ac2ab"/><stop offset="0.41" stop-color="#3dceb5"/><stop offset="0.97" stop-color="#3dceb5"/></linearGradient><linearGradient id="linear-gradient-22" x1="710.71" y1="474.22" x2="710.71" y2="-79.23" gradientUnits="userSpaceOnUse"><stop offset="0" stop-color="#ba6b0e"/><stop offset="0.47" stop-color="#f88e12"/><stop offset="1" stop-color="#f88e12"/></linearGradient></defs><title>top_pr2</title><g class="cls-2"><g id="レイヤー_2" data-name="レイヤー 2"><g id="レイヤー_1-2" data-name="レイヤー 1"><g class="cls-3"><g class="cls-4"><path class="cls-5" d="M607.28,539s27.21,2.78,41.79,19.35,8.54,37.71,4.9,51.79c0,0-9.34,25.45-9.49,27s-1.11-20.67-4-27.11,2.12-24.39-8.53-31.56-26.12-4.4-26.12-4.4-22-6.71-32.78,5.16-4.9,21.26-6.56,30.51-2.76,21.08-2.76,21.08-3.87-26.12-4.44-36.18S549.88,548.15,607.28,539Z"/><path class="cls-6" d="M577.89,669.38s-2,9.9,3.51,17.64,19.56,20.3,23.86,19.13,32.51-26.62,34.32-33.51-.38-8.26-.38-8.26,10.86,9.21,11.39,11.75.85,5.28.85,5.28,39.39,4.12,55.46,17.17,26.13,52.86,30.23,82.47,6.1,69.39-6.9,80.86-34.87,10.91-34.87,10.91-18.64,2.08-20.11-2.68,3.61-13.89-.37-24.64-7.78-27.28-4.12-33.47l10.61-2.44s-3-13-13-12.78-12.74,12.64-24.62,12.29-35.46-7.21-35.46-7.21l.07-69.6-2-7.11,5.13-9.5,13.55-9.1-4.14-5-13.2,9.52-5-.1-11.58-7.63-5.56,6,12,7.29-2.1,6-5.53,9.47-6.76,63.17s-16.58-3.5-27.3.12-18,15.21-17.14,22.58c0,0-.92,5.67,7.22,4.93,0,0-3.28,50.81-3.39,52s-13,3.77-25.89,1.38-25.47-19.33-27.91-34.17-.25-58.08,2.55-75.5,7.39-53.51,24.12-59.62,39.9-11.2,46.23-17.14S575.64,669.88,577.89,669.38Z"/><path class="cls-7" d="M678,867.46s-27.67-8.46-45.78-18.24S595.2,830,592.35,829.67s-33-10.52-47.22-6.39l-.15,1.43s24.47-2.59,47.1,8.22,65.52,38.8,86.1,37.57S678,867.46,678,867.46Z"/><path class="cls-8" d="M674.8,812s-24.13-3.06-33.88-5.72l-1.58,2.55L675.76,816S674,812,674.8,812Z"/><path class="cls-9" d="M540.58,871.19s32.35,1.35,59.46-4.73,36.31-11.93,36.31-11.93l4.42,2s-20.2,10.4-43,14-60.29,5.23-60.29,5.23Z"/></g><g class="cls-4"><path class="cls-10" d="M812.72,560s25.48,2.6,39.15,18.12,8,35.33,4.58,48.52c0,0-8.75,23.84-8.88,25.27s-1.05-19.37-3.72-25.39,2-22.86-8-29.57-24.47-4.12-24.47-4.12-20.65-6.28-30.7,4.83-4.59,19.91-6.14,28.58S772,646,772,646s-3.63-24.47-4.17-33.89S759,568.6,812.72,560Z"/><path class="cls-11" d="M781.41,694s26,44.39,33.44,46.25c4.3,1.08,32.06-52,32.06-52s4.43.28,6.44,3.63c0,0,49,11,57.09,23.47s19.49,64,25.53,104.83,3,50.45,3,50.45H699.33s10.08-110.39,10.75-119.11,3.35-29.35,28.87-38.07S775.53,701.85,781.41,694Z"/><path class="cls-12" d="M786.27,593.43a32.15,32.15,0,0,1,25.18.5C824.88,600,831.09,627.5,846.19,629c0,0,14.27-35.41-19.63-45.32S793.78,578,786.27,593.43Z"/><path class="cls-13" d="M812.72,560s-8.66-1.67-14-2.17a9.29,9.29,0,0,1-7.39-4.87s-7.72,11.41.84,18.12,27.19-.67,27.19-.67Z"/><path class="cls-14" d="M842.12,629.85a112.74,112.74,0,0,0-13.34-.84,40.63,40.63,0,0,0-14,2.27c-5.18,1.61-6.65,1.36-6.65,1.36v3.82s3.28-.71,4.64,4.34,6,13,17.86,12.11,12-10.3,12.73-14.44,2.34-4,2.34-4l.56-4.22A35,35,0,0,0,842.12,629.85Zm-1,10c-.39,7.64-5.31,12.56-13.73,11.53s-10.3-6.35-11.21-10.11-.71-6,1.75-8,8.29-2.13,8.29-2.13C837.81,630.63,841.54,632.18,841.15,639.83Z"/><path class="cls-15" d="M772.81,630.3l.52,4.22s1.56-.2,2.27,4,.71,13.6,12.57,14.44,16.33-7.06,17.69-12.11,4.17-4.34,4.17-4.34v-3.82s-1,.25-6.18-1.36A37.33,37.33,0,0,0,790.38,629a113.62,113.62,0,0,0-13.38.84A38.13,38.13,0,0,0,772.81,630.3Zm20,.85s5.83.13,8.29,2.13,2.66,4.21,1.75,8-2.78,9.07-11.21,10.11-13.34-3.89-13.73-11.53S781.28,630.63,792.83,631.15Z"/></g><g class="cls-4"><path class="cls-16" d="M371.74,688.43s6.17,25,29.94,22.88,28.77-27.4,28.77-27.4,4,.21,5.78,2.86c0,0,44,8.7,51.18,18.48s17.46,51.69,22.88,83.81,4.88,85.38,4.88,85.38H300.32s2.27-126.78,7.47-139.46c2.63-6.4,3-23.74,25.88-30.61S366.47,694.64,371.74,688.43Z"/><path class="cls-17" d="M444.41,618c3.7,36.93-13.25,57.87-15,58.91l-1.74,1S427,701.27,458,702.31s32.42-27.53,24.05-35.55c0,0-4.18,8.6-11.62,6.51,0,0,10.58-3,7.09-12.08,0,0-4.42,5.8-9.88,1.39S492.34,561,409.2,553.83c0,0-64.36-6.51-68.08,59.49,0,0-2,9.7-10.51,7.43s-4.36-9.58-4.36-9.58-23.35,15-3.14,32.07c0,0-8,3.07-11.49-4.13,0,0-1.64,25.57,17.18,25.33,0,0-7.2,5.12-13.7,2.33,0,0,23.7,40,61.81,12.31,0,0-8.83-16-7.91-32.3s26-28.58,28.82-50.42c0,0,27.19,0,38.11,19.52,0,0-3.72-14.88-14.18-20.69C421.75,595.19,442.66,600.53,444.41,618Z"/></g><g class="cls-4"><path class="cls-18" d="M204.49,591.86s23.53-.81,35.93,13.28,7.26,32.08,4.16,44.05c0,0-7.94,21.64-8.06,22.95s-1-17.59-3.38-23.06,1.8-20.75-7.25-26.84-22.22-3.75-22.22-3.75-18.74-5.7-27.87,4.39-4.17,18.08-5.58,26-2.35,17.93-2.35,17.93-3.29-22.22-3.78-30.77S157.73,592.93,204.49,591.86Z"/><path class="cls-19" d="M176.45,710.3s21.27,27.41,28,29.11c3.91,1,31.43-34.33,31.43-34.33s4,.25,5.85,3.29c0,0,44.52,10,51.83,21.31s17.69,58.11,23.18,95.14,2.76,45.77,2.76,45.77H101.93s9.15-100.18,9.76-108.11,3-26.63,26.21-34.55S171.11,717.46,176.45,710.3Z"/><path class="cls-20" d="M177,598.78a100.18,100.18,0,0,1,16.67-8.13,30.35,30.35,0,0,0,13.1-9.07s.58,3.83,11.78,9.3,18.64,8.77,21.05,13.61-26.25,3-26.25,3S176.14,598.44,177,598.78Z"/></g><g class="cls-4"><path class="cls-21" d="M984.88,710.3s21.26,27.41,28,29.11c3.91,1,31.42-34.33,31.42-34.33s4,.25,5.85,3.29c0,0,44.53,10,51.84,21.31s17.69,58.11,23.18,95.14,2.76,45.77,2.76,45.77H910.36s9.14-100.18,9.76-108.11,3-26.63,26.2-34.55S979.54,717.46,984.88,710.3Z"/><path class="cls-22" d="M969.88,647.2s0-22.42,38-25.31c0,0,14.1-.91,17.36-7.06,0,0-.18,17.91-19.71,21.88,0,0,30.2,1.63,37.25-10.3,0,0-1.63,13.56-8.14,19.34,0,0,10-.18,13.56-7.59,0,0,8.68,37.07-8.32,52.8,0,0,13.93-8.92,19.48-28.93s19.28-67.75-30.87-79.32c0,0,7.48-1,8.56-11.81,0,0-4.69,6.39-24.47,5.78s-68.35,8.68-66.9,66.54,20.25,88.6-1.81,95.11c0,0,33.63-1.8,37.61-15.91s1.45-22.06,1.45-22.06S969.16,693.49,969.88,647.2Z"/></g></g><path class="cls-23" d="M245,447.81s-32.78,11.12,34.78,106.49c0,0-106.63-30-141.39-108.56,0,0-128.1-19.48-137.78-142.29S101.09,144.51,172.46,149.31s221,41.69,197.41,182.21S245,447.81,245,447.81Z"/><path class="cls-24" d="M847.48,367.8s-37.86-112.43,57.36-162.9,258.1-28.68,265,113.57S980.55,526.1,963.34,526.1c0,0,21.79-28.68,26.38-51.62C989.72,474.48,867,477.92,847.48,367.8Z"/><path class="cls-25" d="M409.14,366.7s45.64-3.73,21.93,80.74c0,0,84.46-48.91,85.95-91.88,0,0,170.58-38.09,169.87-185.88S550.86-10.29,466,2.58,206,74.52,248.21,240.16,409.14,366.7,409.14,366.7Z"/><path class="cls-26" d="M559.38,322.36S483.68,253,496.3,159.74,612-40.72,812.41,57.41s105.15,314-43.45,329.43c0,0,0,42.06,25.23,60.28C794.19,447.12,656.81,433.1,559.38,322.36Z"/><path class="cls-27" d="M52.19,230.72v-4.31H27.79v4.31H23.55v-8.08H37.78v-1.5H42.2v1.5H56.43v8.08Zm-10.54,1.76-3.22,1.68a15.47,15.47,0,0,1,6.81,13.17c0,4.1-1.87,7.28-6.66,7.28H34.37v-3.37H37.7c2,0,3.15-1.61,3.15-4.64a5,5,0,0,0,0-.77l-16.6,8.63v-3.84l15.91-8.3a10,10,0,0,0-.95-2.2l-15,7.87v-3.81l13-6.84a19.52,19.52,0,0,0-1.76-1.64l-11.26,6v-3.88l10.46-5.3H29.11V228.9h21.8v3.58Zm2.86,2.6h4.16c.12,1.13.26,2.37.44,3.54l7.39-4.46v4.32l-6.29,3.77a13.41,13.41,0,0,0,6.48,7.35v4.83C49.08,251.39,45.35,243.6,44.51,235.08Z"/><path class="cls-27" d="M90.88,244.44v4.76H77.32V251c0,2.38-1.14,3.66-3.77,3.66H67.84v-3.15h4a1.06,1.06,0,0,0,1.06-1.06v-1.2H59.28v-2.86H72.89v-1.9H58.41v-2.67H72.89v-2H59.28V237H72.89v-1.91H59.28v-7H72.89v-2H58.41V223H72.89v-1.83h4.43V223H91.8v3.22H77.32v2H90.88v7H77.32V237H90.88v4.75h.92v2.67Zm-18-13.86H63.71v2h9.18Zm13.57,0H77.32v2h9.14Zm.26,9.22h-9.4v2h9.4Zm0,4.64h-9.4v1.9h9.4Z"/><path class="cls-27" d="M111.92,253.58v-4.82c6.14-.52,9-3.73,9-11,0-6.55-3.29-11.34-10.53-11.34-8.71,0-12.14,5.23-12.14,12.95,0,4.94,1.64,8.08,4,8.08,3,0,5.31-6.73,5.74-19.2h4.47c-.48,16.35-4.14,24.43-10.46,24.43-4.76,0-8.12-4.68-8.12-13.31,0-9.73,4.79-17.34,16.71-17.34,9.91,0,15,6.4,15,15.88C125.6,248.79,120,253.07,111.92,253.58Z"/><path class="cls-27" d="M156.72,232.7v3.88H132.48V232.7A35.34,35.34,0,0,1,127.9,234V229.3c5.85-1.17,11.23-4.28,14-8.16h5.41c2.78,3.88,8.15,7,14,8.16V234A30,30,0,0,1,156.72,232.7Zm-27.43,21.47v-14h30.58v14Zm15.29-29.81a25.69,25.69,0,0,1-11.41,8.08H156A25.59,25.59,0,0,1,144.58,224.36Zm10.86,19.82H133.72v6h21.72Z"/><path class="cls-27" d="M168.25,236.5v18.11H163.9V221.73h14.41V236.5Zm6-11.41h-6v2.6h6Zm0,5.71h-6v2.49h6Zm-2,22.24V239h14.92v14Zm10.94-10.9h-7v2.41h7Zm0,5.34h-7v2.45h7Zm8,7.13h-3.62v-4.24H190a1.05,1.05,0,0,0,1.13-1.06V236.5h-10V221.73H195.5v28.56A4.09,4.09,0,0,1,191.18,254.61Zm0-29.52h-6v2.6h6Zm0,5.71h-6v2.49h6Z"/><path class="cls-27" d="M200.62,253.25a73.93,73.93,0,0,1-1.17-13.75c0-5.45.4-10.71,1-17.22H205a154.42,154.42,0,0,0-.91,17.77,68.88,68.88,0,0,0,1.17,13.2Zm17.37-.87c-7,0-9.76-2.64-9.76-7.54a15.81,15.81,0,0,1,1.9-6.91h4.72a12,12,0,0,0-2,5.85c0,3.07,1.82,4.13,6.07,4.13h10.31v4.47Zm7.83-20.85h-5l3.26-3.66H209.69v-4.39h19.53v4Z"/><path class="cls-27" d="M346.22,67.92h.92V87.67H343V72.13a17.73,17.73,0,0,1-4,2.78V69c3.43-1.72,5.7-7,5.7-14.74h4.46A29.2,29.2,0,0,1,346.22,67.92Zm17.67-2.7V82.85h7.42v4.39H351.56V82.85H359V65.22h-8.63V60.83H359V54.21h4.87v6.62h8.52v4.39Z"/><path class="cls-27" d="M406.61,77.51v4.75H393V84c0,2.37-1.13,3.65-3.77,3.65h-5.7V84.53h4a1.06,1.06,0,0,0,1.06-1.06V82.26H375V79.41h13.6v-1.9H374.13V74.84h14.48v-2H375V70.08h13.6v-1.9H375v-7h13.6v-2H374.13V56h14.48V54.21H393V56h14.48v3.21H393v2h13.57v7H393v1.9h13.57v4.76h.91v2.67Zm-18-13.87h-9.18v2h9.18Zm13.57,0H393v2h9.14Zm.26,9.22H393v2h9.4Zm0,4.65H393v1.9h9.4Z"/><path class="cls-27" d="M409.24,87.67V82.88c5-2.16,6.4-5.23,6.4-12.36V54.21h3.92V70.56C419.56,79.52,416.74,85.37,409.24,87.67Zm.59-12V55.16h3.36V75.71Zm28.86-.4v-2.6h-5.23v3.77H442v6.88c0,2.7-1.61,3.88-4,3.88h-2.41V83.8h1.61a1,1,0,0,0,1.13-1.06V79.59h-4.86v8.08h-3.73V79.59h-4.9v7.65h-3.77V76.48h8.67V72.71h-5.45v2.6h-3.81V69.53h22.17v5.78Zm-17-7.72V64.67h15.58V62.51H421.68V59.84h15.58V57.72H421.68V54.79h20v12.8Z"/><path class="cls-27" d="M451.89,86.39h-3.55V81.86h3.73c9.66,0,14.38-3.7,14.38-11.19,0-7-3.22-10.57-8.45-10.57-6.84,0-10.24,5.41-10.86,9.83v5.6h-4.47V55.12h4.47v7.06a11.93,11.93,0,0,1,11-6.66c7.13,0,13.05,4.54,13.05,15.26C471.2,81.2,464,86.39,451.89,86.39Z"/><path class="cls-27" d="M473.55,86.32a74,74,0,0,1-1.17-13.75c0-5.45.4-10.72.95-17.23H478a154.7,154.7,0,0,0-.91,17.78,69,69,0,0,0,1.17,13.2Zm17.37-.88c-7,0-9.76-2.63-9.76-7.53a15.77,15.77,0,0,1,1.9-6.91h4.72a12,12,0,0,0-2,5.85c0,3.07,1.83,4.13,6.07,4.13h10.32v4.46Zm7.83-20.85H493.7L497,60.94H482.62V56.55h19.53v4Z"/><path class="cls-27" d="M589.63,213.35v-4.09h-25v4.09h-4.17v-8.12h4.13a13.32,13.32,0,0,0-1.35-4.35h4.39a20.3,20.3,0,0,1,1.35,4.35h5.85a14.13,14.13,0,0,0-1.39-4.35h4.35a14.23,14.23,0,0,1,1.36,4.35H585l1.64-4.35h4.61l-1.61,4.35h4.21v8.12Zm-9.84,12v4.68a4,4,0,0,1-4.24,4.28h-7.39v-4.17h5.78a1.26,1.26,0,0,0,1.32-1.25v-3.54H560.41v-4.1h14.85V219a17.89,17.89,0,0,0,6.54-2.86H566.15v-4h21.91v3.66c-1.32,1.53-5.12,3.69-8.27,4.61v.91h14v4.1Z"/><path class="cls-27" d="M603.79,208.71v2.81l3.87,4.47v5.74l-3.87-5v17.63h-4.06V221.29a27.44,27.44,0,0,1-4.21,6.18v-6.18c1.54-2,4.21-6.58,4.21-11v-1.57h-4.21v-4h4.21v-3.81h4.06v3.81h3.91v4Zm22.49,8.78a21.78,21.78,0,0,1-4.72,9.07,18.36,18.36,0,0,0,7.35,3.36v4.43a23.54,23.54,0,0,1-10.27-4.83,24,24,0,0,1-10.17,4.83v-4.43a18,18,0,0,0,7.28-3.4,23.58,23.58,0,0,1-4.43-8.41,14.4,14.4,0,0,1-2.6,1.79v-5c1.83-1.13,3.26-4.17,3.52-6.51h4.27a16.91,16.91,0,0,1-3.4,7.83h1.94a18.48,18.48,0,0,0,3.62,7.57,16.59,16.59,0,0,0,3.7-7.57h2l-3.11-7.83h4.31l3.48,9.11ZM608.69,207v-4h7.79v-2.09h4.46V203h8v4Z"/><path class="cls-27" d="M630.63,234.35v-4.79c5-2.16,6.41-5.23,6.41-12.37V200.88H641v16.35C641,226.19,638.13,232,630.63,234.35Zm.59-12V201.83h3.36v20.56Zm28.86-.4v-2.6h-5.23v3.77h8.56V230c0,2.71-1.61,3.88-4,3.88H657v-3.44h1.61a1,1,0,0,0,1.13-1.06v-3.15h-4.86v8.09h-3.73v-8.09h-4.9v7.65h-3.77V223.16h8.67v-3.77h-5.45V222h-3.81v-5.78H664V222Zm-17-7.72v-2.93h15.58v-2.16H643.07v-2.67h15.58v-2.12H643.07v-2.92h20v12.8Z"/><path class="cls-27" d="M673.28,233.07h-3.55v-4.54h3.73c9.66,0,14.38-3.69,14.38-11.19,0-7-3.22-10.57-8.45-10.57-6.84,0-10.24,5.41-10.86,9.84v5.59h-4.46V201.8h4.46v7a11.94,11.94,0,0,1,11-6.65c7.13,0,13.05,4.53,13.05,15.25C692.59,227.87,685.39,233.07,673.28,233.07Z"/><path class="cls-27" d="M694.94,233a73.93,73.93,0,0,1-1.17-13.75c0-5.45.4-10.71,1-17.22h4.64a154.42,154.42,0,0,0-.91,17.77,68.88,68.88,0,0,0,1.17,13.2Zm17.37-.87c-7,0-9.76-2.64-9.76-7.54a15.81,15.81,0,0,1,1.9-6.91h4.72a12.06,12.06,0,0,0-2,5.85c0,3.07,1.83,4.13,6.08,4.13h10.31v4.47Zm7.83-20.85h-5l3.26-3.66H704v-4.39h19.53v3.95Z"/><path class="cls-27" d="M875.23,294.27h1.06v20.59h-4.21V299.1a19.4,19.4,0,0,1-3.65,3v-6c3.44-2.56,4.86-8.08,4.86-14.7h4.43A31.54,31.54,0,0,1,875.23,294.27Zm17.15.69v19.9h-4.31V295c-1.17,7-4.46,13.76-9.44,17.93v-6.44c3.51-3.4,6.26-9.33,7-15.14h-6.83V287h9.25V281.4h4.31V287h9.44v4.36h-7.06c.77,5.81,3.55,11.74,7.06,15.14v6.44C896.85,308.72,893.59,301.91,892.38,295Z"/><path class="cls-27" d="M904,313.91V282.49h30.24v31.42Zm25.75-27.43H908.48v9.73h21.29Zm0,13.72H908.48V310h21.29Z"/><path class="cls-27" d="M939,313.51a74.08,74.08,0,0,1-1.17-13.75c0-5.45.4-10.72,1-17.23h4.64a154.65,154.65,0,0,0-.91,17.77,69,69,0,0,0,1.17,13.21Zm17.37-.88c-7,0-9.76-2.63-9.76-7.53a15.84,15.84,0,0,1,1.9-6.92h4.72a12,12,0,0,0-2,5.86c0,3.07,1.82,4.13,6.07,4.13h10.31v4.46Zm7.83-20.85h-5l3.26-3.66H948v-4.38h19.53v3.95Z"/><path class="cls-27" d="M26.71,287.86a19.2,19.2,0,0,0-2.62.15v-1.8a18.67,18.67,0,0,0,2.65.15h15a19,19,0,0,0,2.65-.15V288a19.46,19.46,0,0,0-2.63-.15H34.92v9.29H42.7a13.94,13.94,0,0,0,2.68-.18v1.88a14,14,0,0,0-2.73-.18H34.92v6.91a18.78,18.78,0,0,0,.18,2.73H33a18.78,18.78,0,0,0,.18-2.73v-6.91H25.76a14.7,14.7,0,0,0-2.75.18V297a14.53,14.53,0,0,0,2.73.18h7.48v-9.29Zm.4,1.2a32.74,32.74,0,0,1,3.23,6.11l-1.57.8a28.27,28.27,0,0,0-3.08-6.23Zm15.52.7a24.88,24.88,0,0,1-3.55,6.51l-1.51-.75A19.1,19.1,0,0,0,41.1,289Z"/><path class="cls-27" d="M49,289.24a17.56,17.56,0,0,0-.12-2.45,20.42,20.42,0,0,0,2.67.12H62.78a18.14,18.14,0,0,0,2.57-.12,15.75,15.75,0,0,0-.12,2.3v16a19.24,19.24,0,0,0,.15,2.68H63.55v-1.63H50.64v1.63H48.81a19.27,19.27,0,0,0,.15-2.65Zm1.68,6.21H63.55v-7H50.64Zm0,9.2H63.55V297H50.64Z"/><path class="cls-27" d="M78.07,299.62c-1.45,3.31-2.93,4.81-4.73,4.81-2.38,0-4.16-2.6-4.16-6.11a10.17,10.17,0,0,1,10.71-10.23,9.67,9.67,0,0,1,6.89,2.48,8.38,8.38,0,0,1,2.42,6.1,9.13,9.13,0,0,1-5.73,8.64,19.82,19.82,0,0,1-3.8,1.15,3.91,3.91,0,0,0-.88-1.68A14.91,14.91,0,0,0,83,303.6a7.56,7.56,0,0,0,4.43-7,6.58,6.58,0,0,0-4-6.28,7,7,0,0,0-2.9-.63A37.8,37.8,0,0,1,78.07,299.62ZM75,290.89a8.65,8.65,0,0,0-4.08,7.46c0,2.4,1,4.25,2.4,4.25,1,0,2-1.17,3.13-3.63a34.32,34.32,0,0,0,2.28-9.26A8,8,0,0,0,75,290.89Z"/><path class="cls-27" d="M93.16,289.24a17.39,17.39,0,0,0-.13-2.45,20.59,20.59,0,0,0,2.68.12H107a18.29,18.29,0,0,0,2.58-.12,15.75,15.75,0,0,0-.12,2.3v16a19.24,19.24,0,0,0,.15,2.68h-1.83v-1.63H94.84v1.63H93a19.27,19.27,0,0,0,.15-2.65Zm1.68,6.21h12.91v-7H94.84Zm0,9.2h12.91V297H94.84Z"/><path class="cls-27" d="M122.69,288a14,14,0,0,0-.18-2.6h2a14.44,14.44,0,0,0-.18,2.55v2.2h7.33a14.6,14.6,0,0,0,1.91-.09,11.83,11.83,0,0,0-.13,2v6.83a15.85,15.85,0,0,0,.15,2.23h-1.8v-1.7h-7.46v5.83a14,14,0,0,0,.18,2.85h-2a16.61,16.61,0,0,0,.18-2.85V299.4h-7.06v1.7h-1.8a15.85,15.85,0,0,0,.15-2.23V292a16.81,16.81,0,0,0-.12-2,14.61,14.61,0,0,0,1.87.09h7Zm-7.06,3.66v6.23h7.06v-6.23Zm16.17,6.23v-6.23h-7.46v6.23Z"/><path class="cls-27" d="M140.79,287.06a35.22,35.22,0,0,0-1.06,4,37.3,37.3,0,0,0-.75,7.83c0,2,.05,3.43.15,4.75a23.49,23.49,0,0,1,1.63-4.88l1.2.58a21.75,21.75,0,0,0-2,6.88v.38l-1.8.15c0-.4-.07-.53-.15-1a36.4,36.4,0,0,1-.65-7.09,41.25,41.25,0,0,1,1.13-9.91,13.69,13.69,0,0,0,.35-2Zm6.38,10.06a5.84,5.84,0,0,0-1.88,3.68c0,1.85,1.58,2.75,4.8,2.75a16.51,16.51,0,0,0,5.76-.87l.25,1.92c-.33,0-.38,0-.88.13a25.77,25.77,0,0,1-5.13.5c-2.85,0-4.65-.6-5.73-1.9a3.55,3.55,0,0,1-.75-2.3c0-1.53.63-2.88,2.18-4.66ZM144,289.71a16.68,16.68,0,0,0,4.25.38,26.41,26.41,0,0,0,6.71-.68l.12,1.78-1.72.23a42.42,42.42,0,0,1-5.38.32,32.51,32.51,0,0,1-4-.25Z"/><path class="cls-27" d="M162.91,289.06a19.47,19.47,0,0,1-3.93,4.83,3.09,3.09,0,0,0-1.18-1.1,17,17,0,0,0,4.78-6.33,5,5,0,0,0,.48-1.47l1.77.4a6,6,0,0,0-.42.87c-.23.45-.33.68-.7,1.35H176a21.4,21.4,0,0,0,3.15-.17v1.8a17.32,17.32,0,0,0-3.15-.18ZM172.52,307a42.53,42.53,0,0,0-4.88-4.36,26.54,26.54,0,0,1-7.84,5.11,4.15,4.15,0,0,0-1.2-1.38,24.18,24.18,0,0,0,7.76-4.68,49.65,49.65,0,0,0-4.78-3.08l1.08-1a47.59,47.59,0,0,1,4.78,3,12.74,12.74,0,0,0,2.8-3.88l1.6.93-.35.42c-.12.18-.12.18-.62.85a27.94,27.94,0,0,1-2.16,2.61,54.54,54.54,0,0,1,5,4.13Zm-10.61-10.86a18.07,18.07,0,0,0-2.58.15v-1.71a13.9,13.9,0,0,0,2.33.15h12a19.88,19.88,0,0,0,2.83-.12,21,21,0,0,0-.1,2.13,23.19,23.19,0,0,0,.93,7.28c.35,1,1,2,1.25,2s.75-1.88.9-4.18a3.75,3.75,0,0,0,1.38,1,15.35,15.35,0,0,1-.68,3.43c-.33,1-.88,1.63-1.5,1.63-1,0-2.2-1.48-2.88-3.51-.63-1.87-.9-4.23-1-8.2Zm.42-5.08a11.82,11.82,0,0,0,2.18.12h10.13a13.84,13.84,0,0,0,2.46-.15v1.7a13.21,13.21,0,0,0-2.46-.15h-10a14.65,14.65,0,0,0-2.33.13Z"/><path class="cls-27" d="M188.06,305.53a16.8,16.8,0,0,0,.15,2.6h-1.7a18,18,0,0,0,.15-2.62v-1.63h-2.23a11.4,11.4,0,0,0-2.28.15v-1.58a14,14,0,0,0,2.28.13h2.23v-2.25h-1.3a22,22,0,0,0-2.46.1,24.09,24.09,0,0,0,.1-2.63v-3.73a22.63,22.63,0,0,0-.1-2.55,21.89,21.89,0,0,0,2.46.1h1.3v-2.23h-2.13a14.91,14.91,0,0,0-2.28.12v-1.57a11.63,11.63,0,0,0,2.28.15h2.13a16.36,16.36,0,0,0-.15-2.63h1.7a16.36,16.36,0,0,0-.15,2.63h1.7a11.35,11.35,0,0,0,2.25-.15v1.57a14.12,14.12,0,0,0-2.25-.12h-1.7v2.23h1.3a23,23,0,0,0,2.5-.1,22,22,0,0,0-.1,2.55v3.73a25.2,25.2,0,0,0,.1,2.63,21.93,21.93,0,0,0-2.53-.1h-1.27v2.25h2.33a12.12,12.12,0,0,0,2.15-.13V304a10.62,10.62,0,0,0-2.18-.15h-2.3Zm-3.73-12.69v2.4h2.33v-2.4Zm0,3.56v2.7h2.33v-2.7Zm6.11-1.16v-2.4H188v2.4Zm0,3.86v-2.7H188v2.7Zm11,.67a12.53,12.53,0,0,0,2.2-.12v1.65a13.49,13.49,0,0,0-2.22-.12h-2.76v4.53h3.43a15.65,15.65,0,0,0,2.41-.15v1.72a16.39,16.39,0,0,0-2.41-.15h-8.28a16.59,16.59,0,0,0-2.43.15v-1.72a13.24,13.24,0,0,0,2.38.15h3.4v-4.53h-2a13.94,13.94,0,0,0-2.28.12v-1.65a13.85,13.85,0,0,0,2.3.12h1.95v-1.1a13.32,13.32,0,0,0-.15-2.62h1.8a13.64,13.64,0,0,0-.15,2.62v1.1Zm1.85-12a7.69,7.69,0,0,0-.67,1,19.4,19.4,0,0,1-3.4,4.25,16.9,16.9,0,0,0,5.65,2.83,4.47,4.47,0,0,0-.88,1.43,19.34,19.34,0,0,1-5.85-3.31,21.36,21.36,0,0,1-5.38,3.26,3.42,3.42,0,0,0-1-1.3,18.42,18.42,0,0,0,5.33-2.91,14.21,14.21,0,0,1-3.22-4.8,13.6,13.6,0,0,0-1.56.1v-1.6a13.26,13.26,0,0,0,2.21.15h6.13a8.62,8.62,0,0,0,1.7-.13Zm-7.88.43a11.44,11.44,0,0,0,2.73,3.9,16.5,16.5,0,0,0,3.13-3.9Z"/><path class="cls-27" d="M210.78,287.06a37.77,37.77,0,0,0-1.05,4,37.3,37.3,0,0,0-.75,7.83c0,2,.05,3.43.15,4.75a23.49,23.49,0,0,1,1.63-4.88l1.2.58a21.75,21.75,0,0,0-2,6.88v.38l-1.8.15c0-.4-.07-.53-.15-1a35.64,35.64,0,0,1-.65-7.09,41.25,41.25,0,0,1,1.13-9.91,13.69,13.69,0,0,0,.35-2Zm6.38,10.06a5.82,5.82,0,0,0-1.87,3.68c0,1.85,1.57,2.75,4.8,2.75a16.51,16.51,0,0,0,5.76-.87l.25,1.92c-.33,0-.38,0-.88.13a25.84,25.84,0,0,1-5.13.5c-2.85,0-4.65-.6-5.73-1.9a3.55,3.55,0,0,1-.75-2.3c0-1.53.63-2.88,2.18-4.66ZM214,289.71a16.68,16.68,0,0,0,4.25.38,26.41,26.41,0,0,0,6.71-.68l.12,1.78-1.73.23a42.3,42.3,0,0,1-5.38.32,32.36,32.36,0,0,1-4-.25Z"/><path class="cls-27" d="M237.26,299.62c-1.45,3.31-2.93,4.81-4.73,4.81-2.38,0-4.15-2.6-4.15-6.11a10.15,10.15,0,0,1,10.71-10.23,9.66,9.66,0,0,1,6.88,2.48,8.34,8.34,0,0,1,2.43,6.1,9.14,9.14,0,0,1-5.73,8.64,20.17,20.17,0,0,1-3.81,1.15,4,4,0,0,0-.87-1.68,15.12,15.12,0,0,0,4.18-1.18,7.55,7.55,0,0,0,4.42-7,6.59,6.59,0,0,0-4-6.28,7.1,7.1,0,0,0-2.91-.63A37,37,0,0,1,237.26,299.62Zm-3.08-8.73a8.67,8.67,0,0,0-4.08,7.46c0,2.4,1.06,4.25,2.41,4.25,1.05,0,2.05-1.17,3.12-3.63a34,34,0,0,0,2.28-9.26A8,8,0,0,0,234.18,290.89Z"/><path class="cls-27" d="M259.56,286.79c-.33.6-.33.6-2.78,6.88a39.66,39.66,0,0,1-1.8,4.13l-.27.55a3.1,3.1,0,0,0-.23.45l.13.05c1.65-2.38,2.92-3.28,4.7-3.28a2.77,2.77,0,0,1,2.5,1.48,6.28,6.28,0,0,1,.43,2.82v1.71a4.23,4.23,0,0,0,.4,2.37,2.3,2.3,0,0,0,1.9.78c1.78,0,3.08-1,4-3.13a11.08,11.08,0,0,0,1-3.55,7,7,0,0,0,1.65,1.27,13.46,13.46,0,0,1-1.78,4.41,5.83,5.83,0,0,1-5,2.73,3.51,3.51,0,0,1-3.65-2.26,10.24,10.24,0,0,1-.23-2.7v-1.42a5.44,5.44,0,0,0-.2-1.91,1.34,1.34,0,0,0-1.43-.92c-1.45,0-3.07,1.32-4.47,3.7a25.51,25.51,0,0,0-2.31,5.76l-1.92-.6c.32-.7.32-.7,3.92-10.31,2.73-7.24,3.28-8.81,3.43-9.56Z"/><path class="cls-27" d="M273.08,288.44a8.17,8.17,0,0,0,1.17.07,21.33,21.33,0,0,0,6.61-.8l1.05,1.58A11.62,11.62,0,0,0,279,292c-2.28,2.75-3.43,5.48-3.43,8a4.9,4.9,0,0,0,4.93,5.13,5.7,5.7,0,0,0,5.16-3.43,13,13,0,0,0,.9-5.21,20.77,20.77,0,0,0-1.55-8.06l1.8-.6a20.42,20.42,0,0,0,2.35,4.56,15.37,15.37,0,0,0,4.53,4.5l-.95,1.73-.43-.38-.12-.1-.48-.42a18.21,18.21,0,0,1-4.52-6,16.23,16.23,0,0,1,1,5.71,12.88,12.88,0,0,1-1,5.1,7.18,7.18,0,0,1-6.71,4.36c-3.93,0-6.65-2.86-6.65-7a13.46,13.46,0,0,1,3.33-8.33,12.38,12.38,0,0,1,2.25-2.23,22,22,0,0,1-5.58.77,4,4,0,0,1-.48,0,2.1,2.1,0,0,1-.25,0Zm16.24-2.5a19.05,19.05,0,0,1,2.57,3.88l-1.27.75a18.47,18.47,0,0,0-2.55-4Zm2.8-1.36a19.21,19.21,0,0,1,2.6,3.88l-1.25.73a20.22,20.22,0,0,0-2.55-3.93Z"/><path class="cls-27" d="M300.48,286.21a14.7,14.7,0,0,0-.58,2.58c-.4,2.53-.75,5.25-.82,6.53l.1,0c.05-.2.05-.2.17-.73a11.09,11.09,0,0,1,1.53-3.73c1.4-2.15,3.05-3.23,5-3.23a4.73,4.73,0,0,1,4,2.23,10.28,10.28,0,0,1,1.5,6.08c0,4.53-2,8-5.78,9.84a18.64,18.64,0,0,1-4.46,1.47,5.21,5.21,0,0,0-1-1.7,13.12,13.12,0,0,0,5.08-1.58c2.93-1.67,4.31-4.3,4.31-8.3s-1.4-6.36-3.81-6.36c-1.9,0-3.5,1.43-4.93,4.35a13.18,13.18,0,0,0-1.35,5.58c0,.1,0,.23,0,.6l-1.8.08v-.28l0-.45,0-2.6v-.57a64,64,0,0,1,.85-9.24,5,5,0,0,0,.08-.8Z"/><path class="cls-27" d="M29.22,320.91a43.63,43.63,0,0,0,1.87,8.29c1.48-.6,2.18-.88,6.06-2.23a14.87,14.87,0,0,0,1.6-.65l.75,1.9A58.4,58.4,0,0,0,32,330.65c-4.28,1.7-6.13,3.35-6.13,5.43,0,2.28,1.92,3.15,6.83,3.15a24.72,24.72,0,0,0,7.16-.85l.2,2.08a13.05,13.05,0,0,0-1.86.15,49.85,49.85,0,0,1-5.53.32,17.05,17.05,0,0,1-5.55-.67,4.16,4.16,0,0,1-3.1-4.11,5.42,5.42,0,0,1,2.22-4.25,15.61,15.61,0,0,1,3.28-2,52.32,52.32,0,0,1-1.83-7,8.2,8.2,0,0,0-.42-1.58Z"/><path class="cls-27" d="M48.21,323.62c-1.55.37-2.33.55-4.18.87a5.14,5.14,0,0,0-.72-1.42,33.52,33.52,0,0,0,7.93-1.91,6.32,6.32,0,0,0,1.63-.72L54,321.76l-1,.36c-1.15.42-2,.72-3.28,1.07v3.9h2.46a14,14,0,0,0,2.17-.12v1.65a13.49,13.49,0,0,0-2.22-.12H49.76a8.66,8.66,0,0,0,1.2,2.2A17.25,17.25,0,0,0,54.07,334a5.33,5.33,0,0,0-.93,1.35,16.49,16.49,0,0,1-3.55-5c.07,1.41.12,3.11.12,4.23v5.21a18.9,18.9,0,0,0,.15,3.05H48a19.54,19.54,0,0,0,.18-3.05V335c0-1.4,0-2.1.12-4.26a20.52,20.52,0,0,1-4.65,7.59,5.55,5.55,0,0,0-1-1.43,17.2,17.2,0,0,0,3.4-4.2A23.86,23.86,0,0,0,48,328.5H45.58a15.25,15.25,0,0,0-2.35.15V327a11.71,11.71,0,0,0,2.38.14h2.6ZM58,321.94a20.73,20.73,0,0,0-.12,2.85v9.66a18.83,18.83,0,0,0,.12,2.91H56.12a19,19,0,0,0,.12-2.91v-9.66a20,20,0,0,0-.15-2.85Zm6.21-1.4a20,20,0,0,0-.18,3.15v16.44c0,1.78-.6,2.2-3,2.2-.7,0-1.75,0-2.55-.07a6.59,6.59,0,0,0-.52-1.65,29.65,29.65,0,0,0,3.22.22c1,0,1.21-.12,1.21-.75V323.69a25.1,25.1,0,0,0-.15-3.15Z"/><path class="cls-27" d="M78.54,339.21a17.72,17.72,0,0,0,.13,2.72h-1.8a18.48,18.48,0,0,0,.12-2.72v-4.73H70.13c-.37,3.78-1,5.83-2.7,8.21A5.83,5.83,0,0,0,66,341.61a10,10,0,0,0,2-4.23c.55-2.3.77-6,.77-12.14a38.22,38.22,0,0,0-.1-4.08,25.37,25.37,0,0,0,2.76.1H84.9a23,23,0,0,0,2.65-.1,22.5,22.5,0,0,0-.1,2.46v16.79c0,1.57-.57,1.95-3,1.95-.8,0-2-.05-3.1-.12a6,6,0,0,0-.38-1.63,33.09,33.09,0,0,0,3.58.27c1.1,0,1.33-.12,1.33-.75v-5.65H78.54Zm-8.18-10.64c0,.7,0,1.3,0,1.65,0,1.55,0,1.65-.1,2.81H77v-4.46Zm6.63-5.8H70.41v3l0,1.41H77Zm8.89,4.38v-4.38H78.54v4.38ZM78.54,333h7.34v-4.46H78.54Z"/><path class="cls-27" d="M94.94,321.41a39.32,39.32,0,0,0-.33,5.28c-.1,3-.17,6.41-.17,7.54,0,.3,0,.92,0,1.5a3.93,3.93,0,0,0,1.17,3,4.71,4.71,0,0,0,3.13,1,7.19,7.19,0,0,0,6.71-4.36,15,15,0,0,0,1.22-3.93,7.11,7.11,0,0,0,1.8,1.21c-1,2.92-1.67,4.4-2.77,5.68a8.77,8.77,0,0,1-7.06,3.12,5.92,5.92,0,0,1-4.7-1.75c-1-1.17-1.38-2.5-1.38-5.13,0-1.67,0-2.3.22-10.18,0-.75,0-1.23,0-1.63a8.33,8.33,0,0,0-.1-1.33Z"/><path class="cls-27" d="M109.05,324.42h.9c.35,0,.65,0,1.43-.08,3-.22,11-.67,14.21-.82a16.22,16.22,0,0,0,3-.28l.15,1.88a11.85,11.85,0,0,0-2.8.32,12.68,12.68,0,0,0-4.81,2.53,7.64,7.64,0,0,0-3.07,5.78,4.9,4.9,0,0,0,3.5,4.63,12.78,12.78,0,0,0,3.75.8h.25l-.32,2-.78-.15a12.56,12.56,0,0,1-5.4-1.93,6.08,6.08,0,0,1-2.78-5.1c0-2.91,1.7-5.68,4.68-7.69a16.11,16.11,0,0,1,2.38-1.32,49.9,49.9,0,0,1-5.51.55,75.08,75.08,0,0,0-8.63.82Z"/><path class="cls-27" d="M148.77,340.68a20.36,20.36,0,0,0-5.11-3.58c-.42-.22-1-.47-1.67-.75a7.27,7.27,0,0,1,0,.9,4.35,4.35,0,0,1-.63,2.73c-.73,1-2.25,1.58-4.23,1.58a6.53,6.53,0,0,1-3.88-1,3.28,3.28,0,0,1-1.35-2.63c0-1.65,1.3-2.95,3.5-3.45a13.27,13.27,0,0,1,4.86-.05c0-.08,0-.08,0-.3a2.76,2.76,0,0,1,0-.28c0-.22,0-.75,0-1.48,0-.32,0-.8-.05-1.45-.9,0-2.15.05-2.95.05-1.51,0-2.68-.05-4.23-.17a5.44,5.44,0,0,0-.63,0h-.2l0-1.65a30.87,30.87,0,0,0,5.74.4c.65,0,1.52,0,2.22,0l0-3.43c-.72,0-1.12,0-1.7,0-1.83,0-3.85-.07-6.1-.25a3.87,3.87,0,0,0-.45,0,2.64,2.64,0,0,0-.36,0l0-1.7a31.17,31.17,0,0,0,6.41.5l2.17,0A19.47,19.47,0,0,0,140,321h1.92a27.43,27.43,0,0,0-.17,3.53,35.16,35.16,0,0,0,7.41-1l.12,1.7a14.85,14.85,0,0,0-1.72.2,53.48,53.48,0,0,1-5.81.6c0,2.05,0,2.05,0,3.38a29.83,29.83,0,0,0,6.93-1l.1,1.73c-.32,0-.57,0-1.45.17-1.73.28-3.7.48-5.56.6.05,1.41.05,1.41.15,3.83a21.79,21.79,0,0,1,7,3.66,7.88,7.88,0,0,0,.85.57ZM140.31,336a9.38,9.38,0,0,0-2.55-.27c-2.48,0-4.11.9-4.11,2.23s1.25,2.07,3.43,2.07a3.6,3.6,0,0,0,2.75-.82,3.29,3.29,0,0,0,.5-2.26Z"/><path class="cls-27" d="M163.43,322.29a7.92,7.92,0,0,0-.1-1.45h1.88a20.44,20.44,0,0,0-.13,3.13v.27c4.73,0,6.66-.07,7.49-.17v1.77a45.3,45.3,0,0,0-4.78-.12c-.38,0-.65,0-2.68,0v5a7.29,7.29,0,0,1,.6,3,8.06,8.06,0,0,1-3.35,6.53,16.33,16.33,0,0,1-4,2,5.2,5.2,0,0,0-1.1-1.58,12.92,12.92,0,0,0,4-1.88,6.47,6.47,0,0,0,2.81-5.28,3.61,3.61,0,0,1-.68,1.23,4.19,4.19,0,0,1-7.26-2.61,4.16,4.16,0,0,1,4.43-4.12,3.86,3.86,0,0,1,2.91,1.12,13.32,13.32,0,0,1,0-1.37c0-.1,0-.35,0-.66v-1.3c-5,.1-10.09.35-11.76.63l-.08-1.83c.45,0,.63,0,1,0,.73,0,.73,0,4.76-.15,2.4-.1,4.35-.15,6-.2Zm-1.07,7.53a3.29,3.29,0,0,0-1.68-.4,2.65,2.65,0,0,0-2.78,2.63,2.42,2.42,0,0,0,2.58,2.48,2.81,2.81,0,0,0,2.93-3A1.82,1.82,0,0,0,162.36,329.82Z"/><path class="cls-27" d="M179,338.81a3.76,3.76,0,1,1-3.75-3.76A3.75,3.75,0,0,1,179,338.81Zm-6.08,0a2.33,2.33,0,1,0,2.33-2.33A2.34,2.34,0,0,0,172.92,338.81Z"/><path class="cls-27" d="M342,126.39c0-1.08,0-1.55.05-3.06a18,18,0,0,1-2.75,3.86c-.2-.35-.3-.53-.45-.75a3.15,3.15,0,0,1-.38-.45,2.51,2.51,0,0,0-.17-.23,24.56,24.56,0,0,0,4.25-6,18.12,18.12,0,0,0,1.78-5l1.75.58c-.18.45-.3.7-.5,1.27a31.14,31.14,0,0,1-2,4.53v13.39a26.26,26.26,0,0,0,.12,2.93h-1.9a24.87,24.87,0,0,0,.15-3Zm10-8.86a15.37,15.37,0,0,0-.15-2.28h2a12.83,12.83,0,0,0-.15,2.3v5.31h5a16.88,16.88,0,0,0,2.7-.18v1.86a18.65,18.65,0,0,0-2.7-.18h-5v10.31h4.18a18.32,18.32,0,0,0,2.7-.17v1.82a19.07,19.07,0,0,0-2.7-.17h-9.56a19,19,0,0,0-2.7.17V134.5a18.13,18.13,0,0,0,2.68.17H352V124.36h-4.31a18.37,18.37,0,0,0-2.7.18v-1.86a17,17,0,0,0,2.73.18H352Z"/><path class="cls-27" d="M373,127h-5.88a15.83,15.83,0,0,0-2.35.12v-1.55a14.38,14.38,0,0,0,2.4.13H373v-1.63h-5.23a16.65,16.65,0,0,0-2.05.1,12.55,12.55,0,0,0,.1-1.68v-1.1a13.39,13.39,0,0,0-.1-1.7,15.74,15.74,0,0,0,2.07.1H373v-1.65h-7.26a21.4,21.4,0,0,0-2.8.15v-1.65a18.51,18.51,0,0,0,2.85.15H373a10.35,10.35,0,0,0-.15-2.25h1.82a8.16,8.16,0,0,0-.17,2.25h7.66a18.81,18.81,0,0,0,2.87-.15v1.65a22.28,22.28,0,0,0-2.82-.15h-7.71v1.65h5.75a15.3,15.3,0,0,0,2.06-.1,11.52,11.52,0,0,0-.1,1.7v1.1a11.08,11.08,0,0,0,.1,1.68,16.63,16.63,0,0,0-2-.1h-5.78v1.63h5.45a25.84,25.84,0,0,0,2.81-.1,19.31,19.31,0,0,0-.08,2.07v1.06a13,13,0,0,0,2.65-.15v1.57a17.09,17.09,0,0,0-2.65-.12v1.62a14.84,14.84,0,0,0,.15,2.51h-1.62v-1h-6.71v2.08c0,1.72-.5,2.07-2.93,2.07-.52,0-1,0-2.38-.1a4.18,4.18,0,0,0-.42-1.57,22.32,22.32,0,0,0,3.1.25c.9,0,1.13-.13,1.13-.68v-2.05h-6a18.53,18.53,0,0,0-2.46.12v-1.55a15.06,15.06,0,0,0,2.41.13H373v-1.8h-7.51a18.39,18.39,0,0,0-2.73.12v-1.57a16.3,16.3,0,0,0,2.73.15H373Zm-5.68-6v1.85H373v-1.85Zm7.18,1.85h6.21v-1.85h-6.21Zm6.71,5.86V127h-6.71v1.73Zm-6.71,3.1h6.71v-1.8h-6.71Z"/><path class="cls-27" d="M392.86,114.83a18.36,18.36,0,0,0-.1,2.42c0,2.26-.05,4.66-.17,8-.23,5.88-1.25,8.53-4.63,11.93a4.63,4.63,0,0,0-1.2-1.25,11,11,0,0,0,3.68-5.7,26.42,26.42,0,0,0,.67-5.36c.1-1.85.15-4.13.15-5.43a34.3,34.3,0,0,0-.17-4.65Zm-5.55,12.78a13.19,13.19,0,0,0,.12-2.17v-5.86a16.93,16.93,0,0,0-.12-2H389a11,11,0,0,0-.12,2v5.86a13.78,13.78,0,0,0,.12,2.17Zm9.38,2.38v3.38a15.91,15.91,0,0,0,.13,2.35H395a16.49,16.49,0,0,0,.15-2.43v-2.82c0-.5,0-.7-.05-1.45h-1.5a9.47,9.47,0,0,0,.1-1.53v-1.18a12.11,12.11,0,0,0-.07-1.47c.67,0,1.35.07,2.27.07h10.91a20,20,0,0,0,2.33-.07,12.45,12.45,0,0,0-.07,1.45v1.2a8.93,8.93,0,0,0,.1,1.53h-1.58c0,.67,0,.9,0,1.42v3.38a1.72,1.72,0,0,1-.35,1.3c-.35.33-.75.43-1.8.43l-1.65-.08a3.49,3.49,0,0,0-.35-1.47,14,14,0,0,0,2.13.22c.47,0,.52-.07.52-.57V130H402v5.06a12.8,12.8,0,0,0,.15,2.47h-1.8a14,14,0,0,0,.15-2.5v-5Zm9.24-12.89h-8.26c-.95,0-1.83.05-2.55.1v-1.57a19.56,19.56,0,0,0,2.57.15h7.61a20.35,20.35,0,0,0,2.23-.1c0,.6-.08,1.07-.08,1.85v4a16.63,16.63,0,0,0,.08,1.75c-.55,0-1.1,0-2.08,0h-7.91a17,17,0,0,0-2.47.12v-1.53a15.86,15.86,0,0,0,2.45.13h8.41v-1.88h-7.81a21.06,21.06,0,0,0-2.43.1v-1.45a20.17,20.17,0,0,0,2.43.1h7.81Zm-5.48,9.16h-5.26v2.33c.63,0,1.2.08,2.05.08h3.21Zm5.35,2.41c.65,0,1.25,0,1.78-.08v-2.33H402v2.41Z"/><path class="cls-27" d="M416.09,115.58a14.25,14.25,0,0,0-.58,2.58c-.4,2.52-.75,5.25-.82,6.53l.1,0c0-.2,0-.2.17-.72a11,11,0,0,1,1.53-3.73c1.4-2.15,3.05-3.23,5-3.23a4.7,4.7,0,0,1,4,2.23,10.28,10.28,0,0,1,1.5,6.08c0,4.53-2,7.95-5.78,9.83a19.08,19.08,0,0,1-4.46,1.48,5.11,5.11,0,0,0-1-1.7,13.12,13.12,0,0,0,5.08-1.58c2.93-1.68,4.31-4.3,4.31-8.31s-1.4-6.35-3.81-6.35c-1.9,0-3.5,1.42-4.93,4.35a13.14,13.14,0,0,0-1.35,5.58c0,.1,0,.23,0,.6l-1.8.08V129l0-.45-.05-2.6v-.58a64,64,0,0,1,.85-9.23,5.13,5.13,0,0,0,.08-.8Z"/><path class="cls-27" d="M430.5,119.08c.48,0,.73,0,.91,0,.34,0,.65,0,1.42-.08,1.4-.1,1.55-.12,4.63-.3l3.93-.25c3.08-.17,3.4-.2,4.23-.22l1.42-.06a16.59,16.59,0,0,0,3-.27l.15,1.85a10.49,10.49,0,0,0-2.8.35,12.36,12.36,0,0,0-4.8,2.5,7.64,7.64,0,0,0-3.08,5.78A4.89,4.89,0,0,0,443,133a12.88,12.88,0,0,0,3.76.81H447l-.33,2-.78-.15a12.66,12.66,0,0,1-5.4-1.92,6.07,6.07,0,0,1-2.78-5.11c0-2.9,1.7-5.65,4.68-7.68a16.23,16.23,0,0,1,2.38-1.33,50.13,50.13,0,0,1-5.51.55,81,81,0,0,0-8.63.83Zm16.75,3.73a19.05,19.05,0,0,1,2.57,3.88l-1.27.75a17.3,17.3,0,0,0-2.56-4Zm2.82-1.38a19.9,19.9,0,0,1,2.58,3.91l-1.25.7a19.89,19.89,0,0,0-2.55-3.93Z"/><path class="cls-27" d="M453.73,125.54a16.86,16.86,0,0,0,4.48,1c.12-1.23.37-3.18.57-4.51a33,33,0,0,1-3.72-.67l-.78-.18.22-1.65a16.24,16.24,0,0,0,4.51,1,39.41,39.41,0,0,0,.6-4.71v-.2l2,.23a13.38,13.38,0,0,0-.4,1.67c0,.23,0,.23-.25,1.61-.07.55-.12.8-.25,1.5.7,0,1.05,0,1.45,0a20.61,20.61,0,0,0,4.58-.42l-.07,1.72-1.75.15a22,22,0,0,1-2.26.1c-.4,0-.82,0-2.2-.05-.4,2.88-.42,3.13-.57,4.53.95,0,1.3,0,1.65,0a21.83,21.83,0,0,0,4.6-.4l-.05,1.67c-.25,0-.32,0-.67,0a29,29,0,0,1-3.53.2c-.63,0-1,0-2.15-.05a3.92,3.92,0,0,1,0,.51c0,.6-.1,1.42-.1,1.85a3.72,3.72,0,0,0,1.15,3,5.26,5.26,0,0,0,3.53,1.08c3.35,0,5.53-1.73,5.53-4.38a5.72,5.72,0,0,0-2.38-4.36,4.88,4.88,0,0,0,1.83-.5c1.78,1.93,2.35,3.16,2.35,5,0,3.53-2.95,5.91-7.33,5.91-2.63,0-4.63-.9-5.61-2.51a6.76,6.76,0,0,1-.77-3.45,12.42,12.42,0,0,1,.1-1.65,5.43,5.43,0,0,1,.05-.6,25.81,25.81,0,0,1-3.78-.63,3,3,0,0,0-.78-.15Z"/><path class="cls-27" d="M485.94,114.93a18.49,18.49,0,0,0,4.68,4.43,24.45,24.45,0,0,0,6.38,3.3,6.25,6.25,0,0,0-.95,1.63,34.29,34.29,0,0,1-6.56-3.78,21.64,21.64,0,0,1-4.48-4.28,24.33,24.33,0,0,1-3.93,3.93,30.3,30.3,0,0,1-6.58,4,4.38,4.38,0,0,0-1-1.48A27.28,27.28,0,0,0,480,119a18.45,18.45,0,0,0,4.08-4Zm-5.13,15.26a19.73,19.73,0,0,1-5.46,6.33,4.17,4.17,0,0,0-1.15-1.25,14.71,14.71,0,0,0,5.16-5.83Zm.15-6.63a13.55,13.55,0,0,0-2.18.13V122a12.87,12.87,0,0,0,2.18.13h8.36a12.52,12.52,0,0,0,2.17-.13v1.66a13,13,0,0,0-2.17-.13h-3.38V127h7.23a17.8,17.8,0,0,0,2.53-.15v1.73a17.6,17.6,0,0,0-2.53-.15h-7.23v7c0,1.55-.5,1.87-3,1.87-.57,0-1.37,0-2.2-.07a5.57,5.57,0,0,0-.4-1.63,20.59,20.59,0,0,0,2.9.23c.93,0,1.08-.1,1.08-.65v-6.76h-7.23a18.09,18.09,0,0,0-2.53.15v-1.73a17.6,17.6,0,0,0,2.53.15h7.23v-3.45Zm9.56,5.91A17.33,17.33,0,0,0,496,135.2a6.15,6.15,0,0,0-1.23,1.37,21.32,21.32,0,0,1-5.6-6.4Z"/><path class="cls-27" d="M502.58,135.07a17.71,17.71,0,0,0,.13,2.5h-1.83A25.23,25.23,0,0,0,501,135v-7.78a23.18,23.18,0,0,1-2.85,2.9,5.22,5.22,0,0,0-.75-1.42,21.72,21.72,0,0,0,4.12-4.36,16.61,16.61,0,0,0,2.11-3.78h-3.73a13.08,13.08,0,0,0-1.9.13V119a14.8,14.8,0,0,0,2,.12h1V116.8a13.69,13.69,0,0,0-.13-2h1.78a14.1,14.1,0,0,0-.1,2v2.35H503a13.59,13.59,0,0,0,1.73-.07l.82.85c-.2.35-.25.47-.47.92a26.73,26.73,0,0,1-2.53,4.31v.42a8.23,8.23,0,0,0,.83.93,14.69,14.69,0,0,0,2-2.95l1.15.82a23.11,23.11,0,0,1-2.33,2.9,13.18,13.18,0,0,0,1.58,1.18,5.9,5.9,0,0,0-.78,1.25,16.22,16.22,0,0,1-2.5-2.43Zm5.48-5.55c0-.43,0-.83,0-1.25-.43.35-.65.55-1.38,1.1a3,3,0,0,0-.9-1.28,18,18,0,0,0,6.5-8.11h1.46a17.84,17.84,0,0,0,7.15,7.76,5.06,5.06,0,0,0-.85,1.5,22.71,22.71,0,0,1-1.87-1.4c0,.6,0,1,0,1.65v5.56a16.33,16.33,0,0,0,.13,2.27h-1.71v-1.45h-6.95v1.4h-1.65a22.57,22.57,0,0,0,.12-2.27Zm3.73-13.62a21.69,21.69,0,0,1-2.35,3.73,15.46,15.46,0,0,1-2.36,2.48,4.19,4.19,0,0,0-1.22-1.13,14,14,0,0,0,4.45-5.75Zm4.55,11.59c.75,0,1,0,1.38,0a18,18,0,0,1-4.7-5.93,18,18,0,0,1-4.16,6h7.48Zm-6.78,7h7v-5.63h-7Zm6-19.37a13.35,13.35,0,0,0,2.11,3,13.86,13.86,0,0,0,2.77,2.38,4.24,4.24,0,0,0-1,1.4,19,19,0,0,1-5.18-6.11Z"/><path class="cls-27" d="M521.83,119.08c.47,0,.72,0,.9,0,.35,0,.65,0,1.42-.08,1.4-.1,1.56-.12,4.63-.3l3.93-.25c3.08-.17,3.41-.2,4.23-.22l1.43-.06a16.75,16.75,0,0,0,3-.27l.15,1.85a10.56,10.56,0,0,0-2.81.35,12.43,12.43,0,0,0-4.8,2.5,7.67,7.67,0,0,0-3.08,5.78,4.9,4.9,0,0,0,3.5,4.63,13,13,0,0,0,3.76.81h.25l-.33,2-.77-.15a12.66,12.66,0,0,1-5.41-1.92,6.07,6.07,0,0,1-2.78-5.11c0-2.9,1.71-5.65,4.68-7.68a16.23,16.23,0,0,1,2.38-1.33,50.13,50.13,0,0,1-5.51.55,81.34,81.34,0,0,0-8.63.83Zm16.74,3.73a19.53,19.53,0,0,1,2.58,3.88l-1.28.75a17.62,17.62,0,0,0-2.55-4Zm2.83-1.38a20.31,20.31,0,0,1,2.57,3.91l-1.25.7a19.45,19.45,0,0,0-2.55-3.93Z"/><path class="cls-27" d="M544,124.74a8.74,8.74,0,0,0,1.77.12h1.15a10.8,10.8,0,0,0,1.88-.12,18.49,18.49,0,0,0-.13,2.62v4.91a4.28,4.28,0,0,0,2,2.15c1.1.65,2.73.88,6.21.88a83.88,83.88,0,0,0,10-.53,10,10,0,0,0-.57,1.85c-2.73.1-5.76.18-8.09.18-5,0-6.43-.18-8-1a6.74,6.74,0,0,1-2.4-2.23,18.8,18.8,0,0,1-1.7,1.83c-.4.35-.5.45-.93.85-.27.22-.35.3-.7.6l-.85-1.63a13.18,13.18,0,0,0,3.55-2.93v-6h-1.5a7.87,7.87,0,0,0-1.67.12Zm1.35-9.46a28.07,28.07,0,0,1,4,4.43l-1.28,1.15a23.41,23.41,0,0,0-3.88-4.56Zm12.16,5a24.84,24.84,0,0,0-3.33-2.1l1.13-.8a36.67,36.67,0,0,1,3.35,2.23,20.89,20.89,0,0,0,3.88-2.63h-9.29a16.91,16.91,0,0,0-2.5.12v-1.57a14.88,14.88,0,0,0,2.65.15h8.74a18.21,18.21,0,0,0,2.55-.1l.63.9a5.32,5.32,0,0,0-.63.47,27.38,27.38,0,0,1-5,3.33h3.25a17.5,17.5,0,0,0,2.73-.12c-.07.7-.1,1.6-.1,3.08v8.25c0,1.58-.4,1.93-2.15,1.93-.58,0-1,0-1.75-.05a5.5,5.5,0,0,0-.35-1.45,13.37,13.37,0,0,0,2.07.17c.58,0,.7-.1.7-.7V129h-5.23v1.57a19.18,19.18,0,0,0,.15,2.7h-1.72a18,18,0,0,0,.15-2.7V129h-4.71v1.92a15.94,15.94,0,0,0,.15,2.63h-1.77a16.8,16.8,0,0,0,.15-2.63V123a24.93,24.93,0,0,0-.1-2.83,19.76,19.76,0,0,0,2.7.12Zm-4.76,1.25v2.48h4.71v-2.48Zm0,6.21h4.71v-2.53h-4.71Zm6.13-3.73h5.23v-2.48h-5.23Zm5.23,1.2h-5.23v2.53h5.23Z"/><path class="cls-27" d="M570.65,122c.63.05,1,.05,1.5.05a85.34,85.34,0,0,0,8.79-.6,4.83,4.83,0,0,0,1.2-.28l1.1,1.38a21.87,21.87,0,0,0-2.23,2.08,56.18,56.18,0,0,1-5,4.5,5.2,5.2,0,0,1,2.5-.82,2.29,2.29,0,0,1,1.7.65c.5.5.68,1.07.78,2.5s.17,2,.45,2.35.92.68,2.07.68a13.43,13.43,0,0,0,5.06-.93l.27,1.93c-.25,0-.25,0-2,.3a20.44,20.44,0,0,1-3.43.32c-1.88,0-3-.45-3.5-1.42a6.27,6.27,0,0,1-.55-2.76,4.35,4.35,0,0,0-.28-1.72,1.22,1.22,0,0,0-1.15-.6c-1.3,0-2.53.7-4.61,2.62-1.22,1.13-2.87,2.83-3.75,3.83l-1.4-1.55a17.46,17.46,0,0,0,2.7-2.3c1.8-1.68,3.88-3.68,5.91-5.68.72-.73,2-2,3.8-3.7a48.63,48.63,0,0,1-7.46.8c-1.2.07-1.72.12-2.37.2Zm2.9-6.16a30.54,30.54,0,0,0,9.06,1.55l-.35,1.68a35.45,35.45,0,0,1-9.33-1.7Z"/><path class="cls-27" d="M592.58,117a11.19,11.19,0,0,0,2.35.15c2.07,0,5.4-.15,7.65-.32a2.52,2.52,0,0,0,1.21-.28l1.05,1.38a4.6,4.6,0,0,0-1.28,1,64.39,64.39,0,0,1-8.23,7.11l0,.07a12.74,12.74,0,0,1,6.13-1.55c4.18,0,6.86,2,6.86,5.26,0,3.9-3.63,6.48-9.19,6.48-3.53,0-5.55-1.3-5.55-3.61,0-1.67,1.55-2.92,3.62-2.92a5,5,0,0,1,4.13,2.05,7.26,7.26,0,0,1,1.16,2.4c2.62-.72,4-2.25,4-4.38,0-2.4-2-3.83-5.38-3.83a16.07,16.07,0,0,0-10.54,4.28l-1.12-1.6a28.94,28.94,0,0,0,3.5-2.55c2.68-2.13,6.63-5.61,8.36-7.31l.35-.35.1-.1.1-.1,0,0a.82.82,0,0,0-.23,0c-.8.15-3.8.32-7.6.45a12.3,12.3,0,0,0-1.35.12Zm4.7,14.24c-1.25,0-2,.6-2,1.55a1.71,1.71,0,0,0,1,1.53,6.41,6.41,0,0,0,2.81.58,9.05,9.05,0,0,0,1.82-.18C600.33,132.44,599.08,131.24,597.28,131.24Z"/><path class="cls-27" d="M344.31,152.86a13.51,13.51,0,0,0-1.9-2.81l1.5-.42a18.7,18.7,0,0,1,2.08,3.23h3.5a14.93,14.93,0,0,0-1.67-3.23l1.55-.35a29.77,29.77,0,0,1,1.77,3.58h2.63a16.14,16.14,0,0,0,2.15-3.56l1.61.58a25.58,25.58,0,0,1-2,3h2c1.33,0,2,0,2.78-.1a14.53,14.53,0,0,0-.1,2.1v2a10,10,0,0,0,.12,1.8h-1.7v-4.5H341.18v4.5h-1.67a14.61,14.61,0,0,0,.12-1.77v-2.08a17.3,17.3,0,0,0-.1-2.1c.83.07,1.51.1,2.76.1Zm1.5,9.21a20.6,20.6,0,0,0-2.67.1,15.43,15.43,0,0,0,.1-2V158a12.66,12.66,0,0,0-.1-1.88,21.56,21.56,0,0,0,2.42.1h8.69a21.18,21.18,0,0,0,2.4-.1,16.72,16.72,0,0,0-.07,1.9v2.15a14.14,14.14,0,0,0,.09,2,25.35,25.35,0,0,0-2.67-.1h-3.76a24.19,24.19,0,0,1-1.2,2.45h7.16a21.24,21.24,0,0,0,2.38-.1,14.54,14.54,0,0,0-.13,2.35v2.88a14.27,14.27,0,0,0,.15,2.43h-1.7v-1h-14v1h-1.71a16.53,16.53,0,0,0,.15-2.4v-2.88a15.36,15.36,0,0,0-.12-2.35,21.64,21.64,0,0,0,2.4.1h3.81a15.09,15.09,0,0,0,1.2-2.45Zm-2.92,7.58h14V165.9h-14Zm1.87-8.88h10.29v-3.26H344.76Z"/><path class="cls-27" d="M366.51,159.09a19.79,19.79,0,0,0-2.68.12v-1.55a18.12,18.12,0,0,0,2.68.13h3.63a15,15,0,0,0-1.33-2.83h-3.15c-1.25,0-2.1,0-2.83.12v-1.6a19.55,19.55,0,0,0,2.78.15h1.73a13.6,13.6,0,0,0-2-2.65l1.42-.67a15,15,0,0,1,2.23,3.32H371v-1.92a12.3,12.3,0,0,0-.15-2.11h1.7a15,15,0,0,0-.1,2.08v1.95h2.66v-1.95a13.7,13.7,0,0,0-.11-2.08h1.71a11.82,11.82,0,0,0-.15,2.11v1.92H379a15.9,15.9,0,0,0,2-3.45l1.52.65a22.83,22.83,0,0,1-1.88,2.8h1.51a19.39,19.39,0,0,0,2.8-.15v1.6c-.73-.07-1.58-.12-2.83-.12h-3a28.12,28.12,0,0,1-1.35,2.83h3.55a18.6,18.6,0,0,0,2.7-.13v1.55a19.76,19.76,0,0,0-2.7-.12h-6.81v1.83h5.26a18.6,18.6,0,0,0,2.7-.13v1.53a19.31,19.31,0,0,0-2.7-.13h-5.26v1.93h7.59A18.87,18.87,0,0,0,385,164v1.62a24.11,24.11,0,0,0-2.83-.14H375.6c2.15,2,5.7,3.57,9.93,4.32a6,6,0,0,0-1,1.56,27.12,27.12,0,0,1-6.13-2.36,16.37,16.37,0,0,1-4-3.05c.08,1.13.1,1.58.1,2.13v1.67a19,19,0,0,0,.15,2.61h-1.8a16,16,0,0,0,.15-2.63v-1.65c0-.58,0-1.13.1-2.1-2.45,2.55-4.83,3.9-9.41,5.38a5.08,5.08,0,0,0-1-1.46,19,19,0,0,0,9.28-4.42h-6.13a23.88,23.88,0,0,0-2.83.14V164a19.11,19.11,0,0,0,2.83.15H373v-1.93h-5a19,19,0,0,0-2.68.13v-1.53a19,19,0,0,0,2.68.13h5v-1.83Zm9.66-1.3a13,13,0,0,0,1.28-2.83h-7a19.8,19.8,0,0,1,1.18,2.83Z"/><path class="cls-27" d="M387.88,153.33a19.63,19.63,0,0,0-.1-2.4c.53,0,.53,0,2.31.08h1.85a21.1,21.1,0,0,0,2.25-.08,19.84,19.84,0,0,0-.07,2.45V167.1c0,1.2,0,1.85.07,2.4h-1.55v-1.25h-3.28v2.05h-1.63a20,20,0,0,0,.15-2.65Zm1.48,5.28h3.28v-6.2h-3.28Zm0,8.24h3.28V160h-3.28Zm8.73-12.92a20.64,20.64,0,0,0-2.4.13v-1.65a14.79,14.79,0,0,0,2.38.15h2.65v-.8a12.9,12.9,0,0,0-.15-2h1.85a12.2,12.2,0,0,0-.15,2v.8h3.56a15.08,15.08,0,0,0,2.37-.15v1.65a19.35,19.35,0,0,0-2.37-.13h-3.56v3.26h4.43a16.48,16.48,0,0,0,2.53-.15v1.67a16.12,16.12,0,0,0-2.43-.15H406v2.93h.77a15.48,15.48,0,0,0,2.46-.15v1.73a16.84,16.84,0,0,0-2.46-.15H406v7c0,1.61-.55,2-2.88,2-.4,0-.8,0-2.25-.1a4.45,4.45,0,0,0-.4-1.65,17.51,17.51,0,0,0,2.85.3c.95,0,1.13-.1,1.13-.65v-6.88h-7.06a18.55,18.55,0,0,0-2.5.15v-1.73a15.81,15.81,0,0,0,2.52.15h7v-2.93h-7a18.24,18.24,0,0,0-2.52.15V157a16.52,16.52,0,0,0,2.52.15h3.33v-3.26ZM400,169a22.67,22.67,0,0,0-3.48-4.2l1.23-.88a27.15,27.15,0,0,1,3.6,4.08Z"/><path class="cls-27" d="M413.46,169.27a18.16,18.16,0,0,0,.15,2.81h-1.85a18.89,18.89,0,0,0,.15-2.81V153.11c0-1.23,0-2-.1-2.75a25,25,0,0,0,2.63.09H418a23.68,23.68,0,0,0,2.55-.09c-.05.7-.08,1.45-.08,2.37v3.11c0,1,0,1.7.08,2.32-.68,0-1.53-.07-2.53-.07h-4.58Zm0-15.59h5.61v-2h-5.61Zm0,3.21h5.61v-2h-5.61Zm13.14,9.48c0,.95,0,1.63.07,2.28-.7-.05-1.52-.08-2.55-.08h-5.48v1.76h-1.55a15.66,15.66,0,0,0,.12-2.36v-5.55c0-.9,0-1.63-.07-2.36a21.3,21.3,0,0,0,2.48.1h4.58a20.9,20.9,0,0,0,2.47-.1c-.05.71-.07,1.36-.07,2.36Zm-8-2.73h6.53v-2.22h-6.53Zm0,3.68h6.53v-2.43h-6.53Zm13.41,2.33c0,1.65-.52,2.08-2.55,2.08-.52,0-1.88,0-2.5-.1a6,6,0,0,0-.45-1.61,27.43,27.43,0,0,0,2.75.25c1,0,1.23-.12,1.23-.72V158.09H425.4c-1,0-1.85,0-2.53.07.05-.65.08-1.4.08-2.32v-3.11c0-.87,0-1.62-.08-2.37a23.44,23.44,0,0,0,2.55.09h4.13a25.15,25.15,0,0,0,2.63-.09,23.49,23.49,0,0,0-.13,2.75Zm-7.68-16h6.16v-2h-6.16Zm0,3.21h6.16v-2h-6.16Z"/><path class="cls-27" d="M434.83,156.56a48.43,48.43,0,0,0,5.54-.65,31.46,31.46,0,0,0,.75-5.3v-.33l2,.23a15,15,0,0,0-.48,2.4c-.1.62-.32,1.77-.52,2.85a14.46,14.46,0,0,1,1.47-.07c1.78,0,2.83.3,3.61,1.05s1.22,2,1.22,4c0,3.82-.65,7.15-1.67,8.6a2.63,2.63,0,0,1-2.46,1.18,9.5,9.5,0,0,1-3.78-1,4.64,4.64,0,0,0,.06-.9,4.31,4.31,0,0,0-.08-1,9.47,9.47,0,0,0,3.73,1.15c.62,0,1.1-.4,1.43-1.2a19.52,19.52,0,0,0,1.05-7c0-2.65-.75-3.5-3.08-3.5a14.09,14.09,0,0,0-1.8.12,48.7,48.7,0,0,1-5.41,13.62l-1.7-1c2.08-2.72,4.23-7.73,5.35-12.46a33.47,33.47,0,0,0-5,.9Zm16.45-2.3a23.06,23.06,0,0,1,5.23,8.86l-1.61.9a21,21,0,0,0-5.1-9ZM452.4,150a19.24,19.24,0,0,1,2.58,3.88l-1.25.75a19.47,19.47,0,0,0-2.58-4Zm2.83-1.35a20.45,20.45,0,0,1,2.58,3.88l-1.25.73a18,18,0,0,0-2.56-3.93Z"/><path class="cls-27" d="M461.26,152.58a18.89,18.89,0,0,0-.17,3,42.42,42.42,0,0,0,.65,7.78c.55,2.56,1.57,4.28,2.52,4.28.45,0,.88-.42,1.26-1.25a18.5,18.5,0,0,0,1.3-4.28,8,8,0,0,0,1.47,1.43c-1.22,4.38-2.37,6-4.15,6-1.4,0-2.7-1.4-3.55-3.8s-1.23-5.58-1.36-11.74a12.58,12.58,0,0,0-.07-1.47Zm12.09,1.33a22.15,22.15,0,0,1,3.58,5.7,24.05,24.05,0,0,1,1.87,6.69L477,167a22.13,22.13,0,0,0-5.21-12.34Z"/><path class="cls-27" d="M483.56,152.58a17.54,17.54,0,0,0-.18,3,42.31,42.31,0,0,0,.66,7.78c.55,2.56,1.57,4.28,2.52,4.28.45,0,.88-.42,1.25-1.25a18,18,0,0,0,1.31-4.28,8,8,0,0,0,1.47,1.43c-1.22,4.38-2.38,6-4.15,6-1.4,0-2.7-1.4-3.56-3.8s-1.22-5.58-1.35-11.74a12.58,12.58,0,0,0-.07-1.47Zm12.09,1.33a22.15,22.15,0,0,1,3.58,5.7,24.05,24.05,0,0,1,1.87,6.69l-1.77.72a22.13,22.13,0,0,0-5.21-12.34Z"/><path class="cls-27" d="M503,155l.6,0c.62,0,1.3,0,3.5-.23.05-1.62.08-3,.08-3.42a10.8,10.8,0,0,0-.05-1.23l1.87,0a37.62,37.62,0,0,0-.25,4.45h.13a1,1,0,0,0,.45-.15l.67.9a11.05,11.05,0,0,0-1.35,1.45l-.07,2.55a20.38,20.38,0,0,1,2.58-2.32c2.32-1.83,4.17-2.66,6.05-2.66,3.45,0,5.46,2.91,5.46,8a16.79,16.79,0,0,1-.38,3.63l1.53,1.18c.2.15.42.32.65.52a5.66,5.66,0,0,0,.6.48l-.8,1.75a18,18,0,0,0-2.55-2.3,4.19,4.19,0,0,1-1.13,1.7,5.38,5.38,0,0,1-3.7,1.35c-2.48,0-4.23-1.35-4.23-3.25s1.7-3.38,4.15-3.38a7.55,7.55,0,0,1,3.9,1.1,17,17,0,0,0,.2-2.68c0-4.15-1.37-6.5-3.82-6.5a8.2,8.2,0,0,0-4.63,2,39,39,0,0,0-3.86,3.38v3.5c0,3.88,0,5.51.15,6.56h-1.92a52.23,52.23,0,0,0,.1-5.75c0-1.53,0-2.11.07-3-.27.35-.85,1-1.58,1.78a25.9,25.9,0,0,0-2.1,2.38l-1.05-1.66c.6-.42.6-.42,4.68-4.52,0-2,0-2,.1-4.43a30.63,30.63,0,0,0-3.9.4Zm13.86,10.55c-1.55,0-2.63.78-2.63,1.88s1.08,1.78,2.55,1.78a3.49,3.49,0,0,0,2.06-.58,3.44,3.44,0,0,0,1.3-1.52,2.47,2.47,0,0,0,.17-.4A6,6,0,0,0,516.87,165.54Z"/><path class="cls-27" d="M533.79,165.45c.05-.78.05-.93.05-1.78v-.9l-.23-8.89c0-1-.05-1.8-.15-2.75h2.48c-.07,1-.12,1.7-.15,2.75l-.2,8.89c0,1,0,1,0,1.15,0,.45,0,.9.07,1.53Zm-.28,4.7V167.8h2.43v2.35Z"/><path class="cls-27" d="M560.07,261a10,10,0,0,0,1.93.13h1.25a12,12,0,0,0,1.93-.13,18.52,18.52,0,0,0-.13,2.65v5a3.87,3.87,0,0,0,2.18,2.25c1.25.55,2.7.73,5.73.73a75.43,75.43,0,0,0,10.09-.46,6.55,6.55,0,0,0-.6,1.76c-2.93.12-5.41.17-8.19.17-4.6,0-6-.15-7.43-.85a6.39,6.39,0,0,1-2.63-2.38,22.37,22.37,0,0,1-2.9,2.53,9.24,9.24,0,0,0-.95.83l-.85-1.65a15.75,15.75,0,0,0,4-3v-6h-1.6a9.89,9.89,0,0,0-1.83.12Zm1.65-9.43a33,33,0,0,1,3.63,4.5l-1.25,1.15a20.45,20.45,0,0,0-3.58-4.65Zm4.58,1.9a9.1,9.1,0,0,0-.1-1.55,21.69,21.69,0,0,0,2.31.1h11.33a22.35,22.35,0,0,0,2.33-.1,8.4,8.4,0,0,0-.1,1.52v1.05a9,9,0,0,0,.1,1.61h-1.6v-2.81H567.76v2.81H566.2a9.44,9.44,0,0,0,.1-1.56Zm3.23,11.91a14,14,0,0,0-1.92.1,11.21,11.21,0,0,0,.1-1.63V259.8a11.15,11.15,0,0,0-.1-1.67,14.74,14.74,0,0,0,1.92.1h3.71v-1.65h-3a10.6,10.6,0,0,0-1.93.12v-1.48a9.19,9.19,0,0,0,1.9.13h3.06a7.83,7.83,0,0,0-.13-1.35h1.65a6.36,6.36,0,0,0-.12,1.35h3.6a11.38,11.38,0,0,0,1.85-.1v1.45a10.3,10.3,0,0,0-1.92-.12h-3.53v1.65h4.13a15,15,0,0,0,2-.1,10.87,10.87,0,0,0-.1,1.67v4.08a10.34,10.34,0,0,0,.1,1.63,14.94,14.94,0,0,0-2-.1h-4.13v1.75h5.28a16.82,16.82,0,0,0,2.15-.12v1.52a13.73,13.73,0,0,0-2.15-.12h-5.28v.32a14.74,14.74,0,0,0,.15,2.18h-1.73a14,14,0,0,0,.18-2.18v-.32h-4.81a12.75,12.75,0,0,0-2.1.15V267a18.07,18.07,0,0,0,2.1.12h4.81v-1.75Zm-.4-6v1.85h4.11v-1.85Zm0,2.95v1.93h4.11v-1.93Zm5.51-1.1h4.55v-1.85h-4.55Zm0,3h4.55v-1.93h-4.55Z"/><path class="cls-27" d="M589.85,253.82c-1.8.25-2.72.33-4.63.48a3.44,3.44,0,0,0-.62-1.33c4-.07,8.73-.87,10.43-1.72l1.11,1.27-1.26.3a32.43,32.43,0,0,1-3.57.78v2h3a11.32,11.32,0,0,0,2.2-.13V257a11.5,11.5,0,0,0-2-.1h-3.2v1.55h2.6c1,0,1.6,0,2.2-.07a13.86,13.86,0,0,0-.1,2.2v2.9a17.94,17.94,0,0,0,.1,2.38c-.6-.05-1.25-.07-2.3-.07h-2.5v1.67h2.52a14.49,14.49,0,0,0,2.28-.1v1.5a13.16,13.16,0,0,0-2.05-.1h-2.75v1.8c1.6-.2,2.45-.32,4.65-.7v1.33c-3.5.6-6,.93-10.26,1.35a13.28,13.28,0,0,0-1.33.2l-.32-1.73c.4,0,.82.05,1.05.05.78,0,2.2-.1,4.75-.35v-2h-2.77a20.18,20.18,0,0,0-2.28.13v-1.55a13.92,13.92,0,0,0,2.3.12h2.75v-1.67h-2.37c-1.05,0-1.73,0-2.33.07.05-.55.07-1.1.07-2.35v-2.93a17.84,17.84,0,0,0-.07-2.2c.65.05,1.33.07,2.38.07h2.32v-1.55h-3.4a13.56,13.56,0,0,0-2.25.13v-1.56a14,14,0,0,0,2.28.16h3.37Zm-3.2,5.78v1.83h3.2V259.6Zm0,3v1.95h3.2v-1.95Zm4.66-1.15h3.3V259.6h-3.3Zm0,3.1h3.3v-1.95h-3.3Zm12.53-7.78a17.44,17.44,0,0,0,2.23-.1c-.05.55-.07,1.05-.13,2.63-.17,7.56-.5,11.08-1.17,12.71-.35.9-1,1.23-2.4,1.23a26.12,26.12,0,0,1-2.66-.2,6.76,6.76,0,0,0-.27-1.68,13.8,13.8,0,0,0,2.7.35c.93,0,1.2-.17,1.38-.93.55-2.15.9-6.93.9-12.56h-3.08a36.74,36.74,0,0,1-1,8,17.23,17.23,0,0,1-3.92,7.35,5.79,5.79,0,0,0-1.43-1.07,12.81,12.81,0,0,0,2.9-4.06c1.15-2.45,1.7-5.4,1.93-10.26h-.65a15.21,15.21,0,0,0-2.33.13v-1.7a13.27,13.27,0,0,0,2.23.12h.82c0-.85,0-1.58,0-2.5a14.43,14.43,0,0,0-.15-2.88h1.85a7.75,7.75,0,0,0-.15,1.9c0,1.78,0,2.63-.05,3.48Z"/><path class="cls-27" d="M611,254.27a23.16,23.16,0,0,0-2.73.15V252.6a20.76,20.76,0,0,0,2.71.15h16.64a19.54,19.54,0,0,0,2.73-.15v1.82a21.53,21.53,0,0,0-2.71-.15h-6.28a20.7,20.7,0,0,1-1.6,2.81v13.86a17.21,17.21,0,0,0,.18,2.7h-2.06a22.79,22.79,0,0,0,.18-2.7V262c0-1,0-1.86.05-2.86a25.58,25.58,0,0,1-3.83,4.06,35.59,35.59,0,0,1-5.4,3.93,6,6,0,0,0-1.16-1.48,30,30,0,0,0,7.74-5.83,19.8,19.8,0,0,0,4-5.56Zm11.26,4.13a23.24,23.24,0,0,0,3.86,3.88,23.8,23.8,0,0,0,5,3.1,6.06,6.06,0,0,0-1.15,1.56,28.08,28.08,0,0,1-8.93-7.51Z"/><path class="cls-27" d="M642.71,260.13H638a24.38,24.38,0,0,0-2.65.1,16.05,16.05,0,0,0,.1-1.88V254a15.14,15.14,0,0,0-.1-1.88,26.39,26.39,0,0,0,2.83.13h10.56a18.76,18.76,0,0,0,2.82-.13,15.14,15.14,0,0,0-.1,1.88v4.35a15.93,15.93,0,0,0,.1,1.88,24.38,24.38,0,0,0-2.65-.1h-4.63v4.25h6.16a13.39,13.39,0,0,0,2.35-.12V266a14.77,14.77,0,0,0-2.35-.13h-6.16v5.26a25,25,0,0,0,4.78.43c1.4,0,3.25-.08,5.23-.23a4.47,4.47,0,0,0-.55,1.75c-1.4,0-2.55.08-4,.08-7.09,0-10.41-1.48-12.84-5.68a19.09,19.09,0,0,1-3.65,6,4.85,4.85,0,0,0-1.36-1.1,15.41,15.41,0,0,0,3.51-5.28,18.2,18.2,0,0,0,1.42-5.48l1.71.37c-.13.43-.2.73-.35,1.35-.31,1.28-.41,1.63-.63,2.35a10.79,10.79,0,0,0,2.05,3,7.48,7.48,0,0,0,3.13,2Zm-5.63-6.43v5h12.81v-5Z"/><path class="cls-27" d="M661,252.62a33.46,33.46,0,0,0-1.05,4,36.65,36.65,0,0,0-.75,7.83c0,2,.05,3.43.15,4.75a23.42,23.42,0,0,1,1.62-4.88l1.21.58a21.75,21.75,0,0,0-2,6.88v.38l-1.8.15c-.05-.4-.08-.53-.15-1a35.64,35.64,0,0,1-.65-7.09,41.74,41.74,0,0,1,1.12-9.91,13.69,13.69,0,0,0,.35-2Zm6.38,10.06a5.84,5.84,0,0,0-1.88,3.68c0,1.85,1.58,2.75,4.81,2.75a16.45,16.45,0,0,0,5.75-.87l.25,1.92c-.32,0-.37,0-.87.13a25.84,25.84,0,0,1-5.13.5c-2.85,0-4.66-.6-5.73-1.9a3.55,3.55,0,0,1-.75-2.3c0-1.53.62-2.88,2.17-4.66Zm-3.18-7.41a16.76,16.76,0,0,0,4.26.38,26.79,26.79,0,0,0,6.7-.68l.13,1.78-1.73.23a42.3,42.3,0,0,1-5.38.32,32.24,32.24,0,0,1-4-.25Z"/><path class="cls-27" d="M686.41,251.82a7.68,7.68,0,0,0-.4,1.6c-.18.85-.33,1.45-.68,2.73a21.2,21.2,0,0,0,4.48-.82l.07,1.72-.87.15a29.49,29.49,0,0,1-4.11.53,46.27,46.27,0,0,1-2.77,7.3c-.6,1.21-.83,1.63-1.78,3.28-.23.35-.38.65-.5.85l-1.7-1a22.37,22.37,0,0,0,2.4-3.9,37.13,37.13,0,0,0,2.6-6.46c-.62,0-1.47.05-1.85.05l-1.65,0a5,5,0,0,0-.55,0h-.33l0-1.72a15.82,15.82,0,0,0,3,.2l1.8,0a25.8,25.8,0,0,0,.85-4.7Zm11.88,19.42a14.2,14.2,0,0,0-4.38-3.4,5.18,5.18,0,0,1,.05.8c0,2.57-1.7,4-4.75,4s-4.88-1.4-4.88-3.63a3.55,3.55,0,0,1,2.33-3.18,7.36,7.36,0,0,1,3-.55,8.14,8.14,0,0,1,2.53.38c-.13-1.63-.18-2.8-.18-3.43a10.19,10.19,0,0,1,.25-2.43l1.7.18a7.69,7.69,0,0,0-.32,2.33,29.92,29.92,0,0,0,.27,3.8,18,18,0,0,1,4.91,3,2.6,2.6,0,0,0,.45.4Zm-8.81-4.48c-2.12,0-3.47.88-3.47,2.25s1.2,2.06,3.17,2.06c2.16,0,3.13-.86,3.13-2.73,0-.3,0-1.08,0-1.08A7.51,7.51,0,0,0,689.48,266.76Zm8.79-6.81a27.24,27.24,0,0,0-6.63-3.4l.92-1.4a34.72,34.72,0,0,1,6.61,3.3Z"/><path class="cls-27" d="M706.1,251.77a14,14,0,0,0-.57,2.58c-.4,2.53-.75,5.25-.83,6.53l.1,0,.18-.73a11.28,11.28,0,0,1,1.52-3.73c1.4-2.15,3-3.23,5-3.23a4.71,4.71,0,0,1,4,2.23,10.28,10.28,0,0,1,1.5,6.08c0,4.53-2,8-5.78,9.84a18.71,18.71,0,0,1-4.45,1.47,5.21,5.21,0,0,0-1-1.7,13.18,13.18,0,0,0,5.08-1.58c2.92-1.67,4.3-4.3,4.3-8.3s-1.4-6.36-3.8-6.36c-1.9,0-3.51,1.43-4.93,4.35a13,13,0,0,0-1.35,5.58c0,.1,0,.23,0,.6l-1.8.08v-.28l0-.45,0-2.6v-.57a64,64,0,0,1,.85-9.24,5,5,0,0,0,.08-.8Z"/><path class="cls-27" d="M720.72,258.1a48.64,48.64,0,0,0,5.53-.65,31.32,31.32,0,0,0,.75-5.3v-.33l2,.23a15.44,15.44,0,0,0-.47,2.4c-.1.62-.33,1.78-.53,2.85a14.66,14.66,0,0,1,1.48-.07c1.77,0,2.82.3,3.6,1s1.23,2,1.23,4c0,3.83-.65,7.15-1.68,8.6a2.6,2.6,0,0,1-2.45,1.18,9.38,9.38,0,0,1-3.78-1,5.74,5.74,0,0,0,.05-.91,4.31,4.31,0,0,0-.08-1,9.47,9.47,0,0,0,3.73,1.15c.63,0,1.1-.4,1.43-1.2a19.52,19.52,0,0,0,1.05-7c0-2.65-.75-3.5-3.08-3.5a14.2,14.2,0,0,0-1.8.12,48.4,48.4,0,0,1-5.41,13.62l-1.7-1c2.08-2.73,4.23-7.74,5.36-12.47a33.19,33.19,0,0,0-5,.9Zm16.44-2.3a22.88,22.88,0,0,1,5.23,8.86l-1.6.9a21.14,21.14,0,0,0-5.11-9Zm1.13-4.25a19.27,19.27,0,0,1,2.57,3.87l-1.25.76a18.49,18.49,0,0,0-2.58-4Zm2.82-1.36a20,20,0,0,1,2.58,3.88l-1.25.73a18.52,18.52,0,0,0-2.55-3.93Z"/><path class="cls-27" d="M744.29,255.6a22.89,22.89,0,0,0,5.41.43,20.22,20.22,0,0,0,.8-4.48l2,.2a14.33,14.33,0,0,0-.4,1.6c-.35,1.45-.43,1.75-.68,2.65,4.91-.17,8.24-.53,9.86-1.08l.13,1.81c-.43,0-.58,0-1.1.12a85.12,85.12,0,0,1-9.29.73,34,34,0,0,1-2.5,6.43l0,.05a12.83,12.83,0,0,1,7.28-2.1c3.95,0,6.48,1.8,6.48,4.6,0,3.4-3.33,5.63-8.38,5.63a18.57,18.57,0,0,1-6.18-1,3.36,3.36,0,0,0,0-.4v-.15c0-.12,0-.57-.12-1.37a15.24,15.24,0,0,0,6.25,1.25c4,0,6.56-1.58,6.56-4,0-1.9-1.8-3.05-4.81-3.05a13.63,13.63,0,0,0-5.8,1.35,5.31,5.31,0,0,0-2.1,1.6l-1.81-.72a37.73,37.73,0,0,0,3.36-8.16c-1.6,0-2.71-.08-4.16-.18-.32,0-.55,0-.7,0h-.2Z"/><path class="cls-27" d="M773.32,251.82a8.4,8.4,0,0,0-.4,1.6c-.17.85-.32,1.45-.67,2.73a21.2,21.2,0,0,0,4.48-.82l.07,1.72-.87.15a29.49,29.49,0,0,1-4.11.53A46.28,46.28,0,0,1,769,265c-.6,1.21-.82,1.63-1.77,3.28-.23.35-.38.65-.5.85l-1.71-1a21.74,21.74,0,0,0,2.41-3.9,37.94,37.94,0,0,0,2.6-6.46c-.63,0-1.48.05-1.85.05l-1.65,0a5,5,0,0,0-.55,0h-.33l0-1.72a15.77,15.77,0,0,0,3,.2l1.81,0a25.8,25.8,0,0,0,.85-4.7Zm11.89,19.42a14.33,14.33,0,0,0-4.38-3.4,5.18,5.18,0,0,1,0,.8c0,2.57-1.7,4-4.75,4s-4.88-1.4-4.88-3.63a3.55,3.55,0,0,1,2.32-3.18,7.44,7.44,0,0,1,3-.55,8.08,8.08,0,0,1,2.52.38c-.12-1.63-.17-2.8-.17-3.43a10.19,10.19,0,0,1,.25-2.43l1.7.18a7.71,7.71,0,0,0-.33,2.33,29.86,29.86,0,0,0,.28,3.8,18.09,18.09,0,0,1,4.9,3,3,3,0,0,0,.46.4Zm-8.81-4.48c-2.13,0-3.48.88-3.48,2.25s1.2,2.06,3.18,2.06c2.15,0,3.13-.86,3.13-2.73,0-.3-.05-1.08-.05-1.08A7.54,7.54,0,0,0,776.4,266.76Zm8.78-6.81a27.06,27.06,0,0,0-6.63-3.4l.93-1.4a34.31,34.31,0,0,1,6.6,3.3Z"/><path class="cls-27" d="M797.8,257.75c.8,0,1.3,0,2-.07,0,.52-.08,1.07-.08,1.8v3.08c0,.72,0,1.27.08,1.8-.58-.05-1.2-.08-2-.08h-1.45v6.23c0,.58.12.76.67.88a23.08,23.08,0,0,0,4.33.2c4.93,0,6.41-.12,7-.55s.62-1.08.65-3a4.39,4.39,0,0,0,1.58.6c-.13,2.15-.4,3.08-1.06,3.58-.85.68-2.5.83-8.9.83a16.2,16.2,0,0,1-4.81-.38c-.72-.27-.95-.7-.95-1.8v-6.61h-1.9a16.18,16.18,0,0,1-.65,4.26c-.7,2.1-1.58,3.23-3.88,5a5.86,5.86,0,0,0-1.13-1.27,8,8,0,0,0,4-6.39c.05-.5.07-.85.1-1.65h-.55c-.7,0-1.4,0-2,.08a16.55,16.55,0,0,0,.08-1.8v-3.81l-.85.9a4.3,4.3,0,0,0-.93-1.27,14,14,0,0,0,3-3.36,13.4,13.4,0,0,0,1.93-4.15l1.75.35c-.25.5-.25.5-.45.88s-.25.52-.43.92h2.51c.77,0,1.17,0,1.75-.07l.67.77a7.6,7.6,0,0,0-.67,1.1c-.7,1.23-1.28,2.13-1.83,2.93Zm-4.06,0a23.68,23.68,0,0,0,2.06-3.4h-3.56a22.22,22.22,0,0,1-2.45,3.4Zm-3.4,5.23h3.23V259.1h-3.23Zm4.58,0h3.35V259.1h-3.35Zm12.36-6.75a18.22,18.22,0,0,0,2.18-.1c-.08.67-.08.75-.15,2.47a52.17,52.17,0,0,1-.9,9.26c-.35,1.43-.93,1.8-2.73,1.8a17.59,17.59,0,0,1-2.33-.17,6.53,6.53,0,0,0-.27-1.63,14.14,14.14,0,0,0,2.63.38c1,0,1.07-.05,1.6-2.86.12-.62.35-3.2.42-4.9,0-.83,0-1.4.08-2.83H804.3a29.68,29.68,0,0,1-1,5.73,14.46,14.46,0,0,1-1.7,3.81,15.69,15.69,0,0,1-2.8,3.22,4.31,4.31,0,0,0-1.2-1.22,11,11,0,0,0,3-3.28c1.25-2.05,1.87-4.48,2.17-8.26h-.7a12.3,12.3,0,0,0-2.22.13v-1.7a11.6,11.6,0,0,0,2.3.15h.72c0-1,0-1.83,0-2.58a11.73,11.73,0,0,0-.15-2.4h1.83a10.31,10.31,0,0,0-.15,1.92c0,1.15,0,2.16,0,3.06Z"/><path class="cls-27" d="M817.07,263.26a17.6,17.6,0,0,0,1.88-.08c-.05.43-.05.63-.08,1.18-.12,4.15-.55,6.93-1.23,7.93-.45.7-1.07.95-2.3.95-.8,0-1.65-.05-2.63-.12a5.67,5.67,0,0,0-.3-1.65,22.22,22.22,0,0,0,2.81.25c.82,0,1.15-.18,1.35-.78a23.27,23.27,0,0,0,.75-6.31H814c-.72,0-1.25,0-1.7.05a35.88,35.88,0,0,0,.83-7,16.3,16.3,0,0,0,2.4.1h1.92v-4.08h-2.92a20.11,20.11,0,0,0-2.31.1v-1.65a12.91,12.91,0,0,0,2.33.15h2.83c.6,0,1.15,0,1.65-.07,0,.55-.07,1.07-.07,1.75v3.3c0,.75,0,1.45.07,2-.52-.05-1.08-.08-1.78-.08h-2.65c-.07.88-.35,3.11-.52,4.11Zm8.78-5.53c-1.05.07-1.65.12-3.28.2a17.14,17.14,0,0,0-2.6.2l-.25-1.63c.4,0,.78.05,1.15.05l1.1,0a22.73,22.73,0,0,0,2.68-5.33l1.73.45a36.66,36.66,0,0,1-2.78,4.83c2.4-.08,4.81-.25,7.13-.5a33.15,33.15,0,0,0-2.52-2.86l1.17-.72a45.12,45.12,0,0,1,4.81,5.65l-1.28,1c-.6-.9-.75-1.13-1.25-1.83-1.73.2-3.18.33-4.33.43v2.75h3.75a15.14,15.14,0,0,0,1.95-.1,10.77,10.77,0,0,0-.1,1.65V265a15.33,15.33,0,0,0,.1,1.93,16.9,16.9,0,0,0-2.1-.1h-3.6v3.8c1.7-.23,2.5-.35,3.88-.6a24.1,24.1,0,0,0-1.48-2l1.2-.65a38,38,0,0,1,3.68,5.53l-1.35.7a22.76,22.76,0,0,0-1.33-2.43,105.19,105.19,0,0,1-11.56,1.58c-.37,0-.55.08-.87.13l-.33-1.73c.3,0,.45,0,.68,0,1,0,3.7-.17,6-.4v-4h-3.18a17.46,17.46,0,0,0-2.22.1,16.27,16.27,0,0,0,.1-2v-2.8a14.11,14.11,0,0,0-.1-1.85,17.49,17.49,0,0,0,2.17.1h3.23Zm-3.88,4v3.8h3.88v-3.8Zm5.36,3.8h4.15v-3.8h-4.15Z"/><path class="cls-27" d="M561,296.38a16.57,16.57,0,0,0,4.48,1c.13-1.22.38-3.17.58-4.5a33.4,33.4,0,0,1-3.73-.68l-.78-.17.23-1.65a16.19,16.19,0,0,0,4.5,1,38,38,0,0,0,.61-4.7v-.2l2,.22a12.38,12.38,0,0,0-.4,1.68c0,.23,0,.23-.25,1.6-.08.55-.13.8-.25,1.5.7,0,1,0,1.45,0a20.07,20.07,0,0,0,4.58-.43l-.08,1.73-1.75.15c-.78.07-1.53.1-2.25.1-.4,0-.83,0-2.2,0-.4,2.88-.43,3.13-.58,4.53l1.65,0a22,22,0,0,0,4.61-.4l0,1.68c-.25,0-.33,0-.68.05a28.93,28.93,0,0,1-3.53.2c-.62,0-1,0-2.15-.05,0,.18,0,.18,0,.5-.05.6-.1,1.43-.1,1.85a3.7,3.7,0,0,0,1.15,3,5.25,5.25,0,0,0,3.52,1.07c3.36,0,5.54-1.72,5.54-4.38a5.71,5.71,0,0,0-2.38-4.35,5,5,0,0,0,1.82-.5c1.78,1.92,2.36,3.15,2.36,5,0,3.53-3,5.9-7.34,5.9-2.62,0-4.62-.9-5.6-2.5a6.78,6.78,0,0,1-.78-3.45,14.12,14.12,0,0,1,.1-1.65c0-.38,0-.38,0-.6a25.81,25.81,0,0,1-3.78-.63,2.3,2.3,0,0,0-.77-.15Z"/><path class="cls-27" d="M596.84,304.57a6.56,6.56,0,0,1-2.31,1.52,7.27,7.27,0,0,1-2.6.5c-2.75,0-4.43-1.42-4.43-3.8,0-2,1.25-3.45,3.58-4.1a20.12,20.12,0,0,1,5.76-.65v-1.46c0-1.7-1.08-2.57-3.16-2.57a4.13,4.13,0,0,0-3.1,1.07,3.46,3.46,0,0,0-.78,1.45l-1.95-.42a5,5,0,0,1,1.4-2.23,6.32,6.32,0,0,1,4.41-1.43c3.3,0,5,1.41,5,4.11v7a16,16,0,0,0,.2,2.75h-2Zm0-5.06c-3,.08-4.41.25-5.53.73a2.65,2.65,0,0,0-1.91,2.57c0,1.38,1,2.26,2.66,2.26a5.65,5.65,0,0,0,4-1.78,2.72,2.72,0,0,0,.78-2.15Z"/><path class="cls-27" d="M610.9,297c-.72-2-1.93-2.87-3.78-2.87-2.75,0-4.5,2.15-4.5,5.5s1.8,5.41,4.6,5.41a3.7,3.7,0,0,0,3.26-1.61,4.09,4.09,0,0,0,.55-1.27l1.87.5a7,7,0,0,1-1,1.93,5.79,5.79,0,0,1-4.73,2.1c-3.93,0-6.46-2.73-6.46-7s2.5-7.16,6.33-7.16a5.67,5.67,0,0,1,4.83,2.31,6.56,6.56,0,0,1,.88,1.6Z"/><path class="cls-27" d="M618.61,289.13a17.39,17.39,0,0,0-.18,2.77v1h1.21a14.87,14.87,0,0,0,2.55-.15v1.91a14.55,14.55,0,0,0-2.55-.15h-1.21v8.7c0,.73.1,1.11.33,1.33a1.69,1.69,0,0,0,1.23.43,3.44,3.44,0,0,0,2-.65l.55,1.75a6.78,6.78,0,0,1-2.82.57,3.43,3.43,0,0,1-2.46-.77,3.19,3.19,0,0,1-.7-2.41v-9h-1a16.67,16.67,0,0,0-2.25.15V292.7a11,11,0,0,0,2.25.15h1v-1a19.61,19.61,0,0,0-.17-2.77Z"/><path class="cls-27" d="M626,287.32v2.23h-2.42v-2.23Zm-.1,5.53a18.73,18.73,0,0,0-.17,2.83v7.84a20.35,20.35,0,0,0,.17,2.82h-2.25a20.74,20.74,0,0,0,.18-2.82v-7.84a17.77,17.77,0,0,0-.18-2.83Z"/><path class="cls-27" d="M629.4,292.85a12.77,12.77,0,0,0,.77,2.46l2.85,7.35c.13.33.4,1.13.56,1.63.2-.63.35-1.05.57-1.6l2.85-7.38a11.21,11.21,0,0,0,.75-2.46h2.36a28.64,28.64,0,0,0-1.23,2.76l-3.5,8.43a11.92,11.92,0,0,0-.8,2.3h-2a15.6,15.6,0,0,0-.83-2.3l-3.48-8.43c-.47-1.1-.72-1.65-1.25-2.76Z"/><path class="cls-27" d="M642.43,299.89a5.67,5.67,0,0,0,1,3.5,4.17,4.17,0,0,0,3.52,1.7,4.09,4.09,0,0,0,4.13-2.93l1.75.7a5.86,5.86,0,0,1-1.37,2.08,6.25,6.25,0,0,1-4.53,1.75c-3.93,0-6.41-2.75-6.41-7.08s2.46-7.08,6.21-7.08a5.91,5.91,0,0,1,6,5.43c0,.28.13,1.25.18,1.93Zm8.54-1.58a4.59,4.59,0,0,0-1.33-3.08,4,4,0,0,0-2.95-1.12,3.9,3.9,0,0,0-3.55,2.17,5.28,5.28,0,0,0-.63,2Z"/><path class="cls-27" d="M660.48,289.93l.9,0c.35,0,.65,0,1.43-.07,1.4-.1,1.55-.13,4.63-.3l3.93-.25c3.07-.18,3.4-.2,4.22-.23l1.43-.05a16.75,16.75,0,0,0,3-.27l.15,1.85a10.49,10.49,0,0,0-2.8.35,12.2,12.2,0,0,0-4.81,2.5,7.66,7.66,0,0,0-3.08,5.78,4.91,4.91,0,0,0,3.51,4.63,12.78,12.78,0,0,0,3.75.8H677l-.32,2c-.28-.05-.33-.08-.78-.15a12.66,12.66,0,0,1-5.41-1.93,6.07,6.07,0,0,1-2.77-5.1c0-2.91,1.7-5.66,4.68-7.69a16.5,16.5,0,0,1,2.37-1.32,52.21,52.21,0,0,1-5.5.55,86.33,86.33,0,0,0-8.64.82Zm16.74,3.73a18.91,18.91,0,0,1,2.58,3.87l-1.28.76a17.4,17.4,0,0,0-2.55-4Zm2.83-1.38a21.09,21.09,0,0,1,2.58,3.9l-1.25.7a20.56,20.56,0,0,0-2.56-3.93Z"/><path class="cls-27" d="M690.76,291.85a15.91,15.91,0,0,0,2.3-.12A17.93,17.93,0,0,0,693,294v12.21c0,1.37-.47,1.7-2.47,1.7-.36,0-.53,0-1.93-.08a4.83,4.83,0,0,0-.3-1.52,22.52,22.52,0,0,0,2.32.2c.78,0,1-.1,1-.53v-4.2h-5.93a16.24,16.24,0,0,1-1.5,6.4,5,5,0,0,0-1.4-1,11,11,0,0,0,1.42-5.08c.15-1.7.2-3.22.2-7.43,0-.7,0-1.38,0-1.93l-.65.83a3.91,3.91,0,0,0-1.18-1,15.47,15.47,0,0,0,3.63-5.53,10.19,10.19,0,0,0,.5-1.63l1.58.38a6.53,6.53,0,0,0-.3.67c-.25.63-.4.95-.43,1h2.38a7.91,7.91,0,0,0,1.4-.07l.75.82a13.74,13.74,0,0,0-.9,1.58c-.28.6-.82,1.55-1.15,2.1Zm-2.35,0a29.42,29.42,0,0,0,1.67-3.12h-3.2a22.32,22.32,0,0,1-1.88,3.1c.66,0,.93,0,1.81,0Zm-.4,8.59v-3.11h-2.23c0,2,0,2-.07,3.11Zm-2.2-7.26v1.65l0,1.23H688v-2.88Zm5.75,0h-2.25v2.88h2.25Zm0,4.15h-2.25v3.11h2.25Zm4.56-9.23a13.64,13.64,0,0,0-2.38.15v-1.6a15.11,15.11,0,0,0,2.5.15H702a20.87,20.87,0,0,0,2.3-.1c0,.4,0,.47-.1.95-.1,1.3-.28,2.75-.45,3.68-.33,1.72-.83,2.18-2.33,2.18a19.73,19.73,0,0,1-2.3-.18,5.2,5.2,0,0,0-.3-1.48,11.35,11.35,0,0,0,2.23.3c.72,0,1-.15,1.12-.7a17.1,17.1,0,0,0,.48-3.35h-3.68a7.91,7.91,0,0,1-1.08,3.13,8.37,8.37,0,0,1-3.48,3.2,4.17,4.17,0,0,0-1-1.23,7.35,7.35,0,0,0,3.15-2.6,5.35,5.35,0,0,0,.85-2.5Zm0,10a9.92,9.92,0,0,1-1.18,2.31,5.19,5.19,0,0,0-1.35-.68,10,10,0,0,0,1.83-3.83,5,5,0,0,0,.25-1.2l1.52.35c-.42,1.25-.42,1.25-.57,1.68h2.32v-.63a12.33,12.33,0,0,0-.15-2h1.73a15.27,15.27,0,0,0-.13,2v.63h1.91a12.21,12.21,0,0,0,2.35-.15v1.65a14.38,14.38,0,0,0-2.35-.13h-1.91v3H703a15.8,15.8,0,0,0,2.35-.15v1.65a18.56,18.56,0,0,0-2.27-.1h-2.66V306a13.81,13.81,0,0,0,.15,2.22h-1.75a14.35,14.35,0,0,0,.15-2.22v-3.46h-3.12a14.08,14.08,0,0,0-2.16.13V301a13.8,13.8,0,0,0,2.18.15h3.1v-3Z"/><path class="cls-27" d="M708,292a25.21,25.21,0,0,1,4.33,3.28l-1,1.37a19.35,19.35,0,0,0-4.3-3.5Zm4.53,8.23a40.93,40.93,0,0,1-3.43,7.11,5,5,0,0,1-.33.6l-1.47-1.3a4.75,4.75,0,0,0,.7-.88,25.55,25.55,0,0,0,3.2-6.5Zm-3.2-14.09a22.32,22.32,0,0,1,4,3.33l-1,1.3a18.85,18.85,0,0,0-4-3.53Zm6,.35a21.6,21.6,0,0,1,2.77,4.68l-1.4.75a19.08,19.08,0,0,0-2.78-4.7Zm4.75,1.33a16.09,16.09,0,0,0-.15-2.35h1.88a16.09,16.09,0,0,0-.15,2.35v4.75h3.8a14.73,14.73,0,0,0,2.3-.12,21.25,21.25,0,0,0-.1,2.35v11.44c0,1.35-.55,1.75-2.4,1.75-.73,0-1.85-.08-2.93-.18a6.33,6.33,0,0,0-.35-1.62,19.69,19.69,0,0,0,3.18.32c.73,0,.93-.12.93-.55v-3.18h-9.86v2.66a20.16,20.16,0,0,0,.15,2.8h-1.85a27.87,27.87,0,0,0,.12-2.8V294.71a22.26,22.26,0,0,0-.07-2.26,16.68,16.68,0,0,0,2.3.1h3.2Zm6,6.16h-9.86v3h9.86Zm-9.86,7.4h9.86v-3.05h-9.86Zm11.68-14.26A31.07,31.07,0,0,1,725.2,292l-1.38-.73a18.14,18.14,0,0,0,2.55-4.85Z"/><path class="cls-27" d="M738.81,301.64c.05-.78.05-.93.05-1.78V299l-.22-8.88c0-1.05,0-1.8-.15-2.76H741c-.07,1-.12,1.71-.15,2.76l-.2,8.88c0,1.05,0,1.05,0,1.15,0,.45,0,.9.07,1.53Zm-.27,4.7V304H741v2.35Z"/><path class="cls-27" d="M878.52,347.14c0-1.15,0-1.88.08-3.05a18.65,18.65,0,0,1-2.71,3.8,4.85,4.85,0,0,0-1-1.43,24.07,24.07,0,0,0,4.58-6.78,18.53,18.53,0,0,0,1.38-4.23l1.77.55c-.32.85-.65,1.65-.92,2.41a33.68,33.68,0,0,1-1.56,3.47v13.54a25.75,25.75,0,0,0,.13,2.93h-1.88a25.82,25.82,0,0,0,.15-3Zm5.73-4.41a18.14,18.14,0,0,0-2.5.15v-1.8a17.74,17.74,0,0,0,2.5.15h4.56v-2.78a19.2,19.2,0,0,0-.18-2.45h1.93a19.54,19.54,0,0,0-.15,2.45v2.78h5.3a18.47,18.47,0,0,0,2.58-.15v1.8a18.61,18.61,0,0,0-2.55-.15h-4.86c2.51,5,4.66,7.71,8,10.19a6.49,6.49,0,0,0-1.35,1.32,23,23,0,0,1-3.23-3.25,24.33,24.33,0,0,1-4-6.93c.05,1,.07,1.73.07,2.83v8.88a15.67,15.67,0,0,0,.18,2.58h-1.95a18.09,18.09,0,0,0,.2-2.58V347c0-1,0-2,.05-2.83a23.42,23.42,0,0,1-6.93,10,5,5,0,0,0-1.21-1.31,23,23,0,0,0,5.24-5.75,27.28,27.28,0,0,0,2.37-4.41Z"/><path class="cls-27" d="M901.8,339.51a17.54,17.54,0,0,0-.13-2.46,20.37,20.37,0,0,0,2.68.13h11.26a18.14,18.14,0,0,0,2.58-.13,15.85,15.85,0,0,0-.13,2.31v16a19,19,0,0,0,.15,2.67h-1.82v-1.62H903.47v1.62h-1.82a19.16,19.16,0,0,0,.15-2.65Zm1.67,6.2h12.92v-7H903.47Zm0,9.21h12.92v-7.68H903.47Z"/><path class="cls-27" d="M926.37,337.33a38.15,38.15,0,0,0-1,4,37.4,37.4,0,0,0-.75,7.84c0,1.95,0,3.42.15,4.75a23.29,23.29,0,0,1,1.63-4.88l1.2.58a21.68,21.68,0,0,0-2,6.88v.37l-1.8.15c-.05-.4-.07-.52-.15-1a35.47,35.47,0,0,1-.65-7.08,41.2,41.2,0,0,1,1.13-9.91,14.16,14.16,0,0,0,.35-2Zm6.38,10.06a5.82,5.82,0,0,0-1.87,3.68c0,1.85,1.57,2.75,4.8,2.75a16.48,16.48,0,0,0,5.76-.88l.25,1.93c-.33,0-.38.05-.88.13a25.84,25.84,0,0,1-5.13.5c-2.85,0-4.65-.6-5.73-1.91a3.51,3.51,0,0,1-.75-2.3c0-1.52.63-2.88,2.18-4.65ZM929.58,340a16.68,16.68,0,0,0,4.25.38,26.88,26.88,0,0,0,6.71-.68l.12,1.78-1.73.22a42.15,42.15,0,0,1-5.38.33,34.43,34.43,0,0,1-4-.25Z"/><path class="cls-27" d="M959.18,354.62a6.49,6.49,0,0,1-2.3,1.53,7.49,7.49,0,0,1-2.6.5c-2.75,0-4.43-1.43-4.43-3.81,0-2,1.25-3.45,3.58-4.1a20,20,0,0,1,5.75-.65v-1.45c0-1.7-1.07-2.58-3.15-2.58a4.07,4.07,0,0,0-3.1,1.08,3.46,3.46,0,0,0-.78,1.45l-1.95-.43a4.89,4.89,0,0,1,1.4-2.22,6.27,6.27,0,0,1,4.4-1.43c3.31,0,5,1.4,5,4.1v7a16,16,0,0,0,.2,2.75h-2Zm0-5.05c-3,.07-4.4.25-5.53.72a2.67,2.67,0,0,0-1.9,2.58c0,1.37,1,2.25,2.65,2.25a5.67,5.67,0,0,0,4-1.78,2.73,2.73,0,0,0,.77-2.15Z"/><path class="cls-27" d="M973.25,347c-.73-2-1.93-2.88-3.78-2.88-2.75,0-4.51,2.15-4.51,5.51s1.81,5.4,4.61,5.4a3.68,3.68,0,0,0,3.25-1.6,4,4,0,0,0,.55-1.28l1.88.5a6.76,6.76,0,0,1-1,1.93,5.75,5.75,0,0,1-4.73,2.1c-3.92,0-6.45-2.73-6.45-7s2.5-7.16,6.33-7.16a5.68,5.68,0,0,1,4.83,2.3,7,7,0,0,1,.87,1.6Z"/><path class="cls-27" d="M981,339.18a17.44,17.44,0,0,0-.18,2.78v1H982a15.89,15.89,0,0,0,2.55-.15v1.9a15.51,15.51,0,0,0-2.55-.15h-1.2v8.71c0,.73.1,1.1.33,1.33a1.7,1.7,0,0,0,1.22.42,3.49,3.49,0,0,0,2-.65l.55,1.75a6.68,6.68,0,0,1-2.83.58,3.42,3.42,0,0,1-2.45-.78,3.17,3.17,0,0,1-.7-2.4v-9h-1a16.93,16.93,0,0,0-2.26.15v-1.9a11.9,11.9,0,0,0,2.26.15h1v-1a18.38,18.38,0,0,0-.18-2.78Z"/><path class="cls-27" d="M988.34,337.38v2.23h-2.43v-2.23Zm-.1,5.53a17.36,17.36,0,0,0-.18,2.83v7.83a19.07,19.07,0,0,0,.18,2.83H986a22.73,22.73,0,0,0,.17-2.83v-7.83a19.17,19.17,0,0,0-.17-2.83Z"/><path class="cls-27" d="M991.74,342.91a13.61,13.61,0,0,0,.78,2.45l2.85,7.36c.13.32.4,1.12.55,1.63.2-.63.35-1.06.58-1.61l2.85-7.38a11.74,11.74,0,0,0,.75-2.45h2.35a29.11,29.11,0,0,0-1.22,2.75l-3.51,8.44a12.18,12.18,0,0,0-.8,2.3h-2a16,16,0,0,0-.83-2.3l-3.48-8.44c-.47-1.1-.72-1.65-1.25-2.75Z"/><path class="cls-27" d="M1004.78,349.94a5.72,5.72,0,0,0,1,3.5,4.17,4.17,0,0,0,3.53,1.71,4.09,4.09,0,0,0,4.13-2.93l1.75.7a6.06,6.06,0,0,1-1.38,2.08,6.23,6.23,0,0,1-4.52,1.75c-3.93,0-6.41-2.76-6.41-7.08s2.45-7.09,6.2-7.09a5.92,5.92,0,0,1,6.06,5.43c0,.28.13,1.26.18,1.93Zm8.53-1.57a4.54,4.54,0,0,0-1.32-3.08,4.07,4.07,0,0,0-3-1.13,3.92,3.92,0,0,0-3.55,2.18,5.18,5.18,0,0,0-.62,2Z"/><path class="cls-27" d="M1031.26,336.53a7.33,7.33,0,0,0-.4,1.6c-.18.85-.33,1.45-.68,2.73a20.52,20.52,0,0,0,4.48-.83l.08,1.73-.88.15a31.31,31.31,0,0,1-4.1.52,47,47,0,0,1-2.78,7.31c-.6,1.2-.83,1.63-1.78,3.28-.22.35-.37.65-.5.85l-1.7-1a21.78,21.78,0,0,0,2.4-3.9,37.13,37.13,0,0,0,2.6-6.46c-.62,0-1.47.05-1.85.05l-1.65,0c-.27,0-.47,0-.55,0h-.32l0-1.73a15.82,15.82,0,0,0,3,.2l1.8,0a25.89,25.89,0,0,0,.85-4.71ZM1043.15,356a14.47,14.47,0,0,0-4.38-3.41,5.18,5.18,0,0,1,0,.8c0,2.58-1.71,4-4.76,4s-4.88-1.4-4.88-3.63a3.56,3.56,0,0,1,2.33-3.18,7.36,7.36,0,0,1,3-.55,8.14,8.14,0,0,1,2.53.38c-.13-1.63-.18-2.81-.18-3.43a10.19,10.19,0,0,1,.25-2.43l1.71.18a7.65,7.65,0,0,0-.33,2.32,29.88,29.88,0,0,0,.28,3.81,17.83,17.83,0,0,1,4.9,3,2.46,2.46,0,0,0,.45.4Zm-8.81-4.48c-2.13,0-3.48.87-3.48,2.25s1.2,2,3.18,2c2.15,0,3.12-.85,3.12-2.73,0-.3-.05-1.07-.05-1.07A7.3,7.3,0,0,0,1034.34,351.47Zm8.78-6.81a27.06,27.06,0,0,0-6.63-3.4l.92-1.4a34.42,34.42,0,0,1,6.61,3.3Z"/><path class="cls-27" d="M1058.49,345.51c0-.17,0-.55.07-1.62a15.65,15.65,0,0,1-1.87,2.8,29.58,29.58,0,0,1-5.94,5.53,39,39,0,0,1-4.12,2.58,4.06,4.06,0,0,0-1.25-1.51,28.45,28.45,0,0,0,8.48-6,23.74,23.74,0,0,0,3.6-4.55l-8.21.05a19.6,19.6,0,0,0-2.77.1V341a14,14,0,0,0,2.82.18l9.11,0,0-2.46a12.2,12.2,0,0,0-.13-2h2a10.38,10.38,0,0,0-.1,1.37v.61l0,2.5h3.31a13,13,0,0,0,2.5-.15v1.82c-.53-.05-1-.07-2.08-.07h-3.73l.18,12.19a24.31,24.31,0,0,0,.12,2.55h-2a15.75,15.75,0,0,0,.1-2V355l-.1-9.21v-.25Z"/><path class="cls-27" d="M1086.07,339.88c-.18.28-.18.28-.53,1.55-1.33,4.81-3.23,8.09-6.28,10.86a22.87,22.87,0,0,1-7.86,4.71,4.62,4.62,0,0,0-1.22-1.75,18.54,18.54,0,0,0,5.65-2.66c4.11-2.72,6.46-6.3,7.88-11.91H1071a18.13,18.13,0,0,0-2.81.15v-2a15.17,15.17,0,0,0,2.83.17h12.31a3.36,3.36,0,0,0,1.61-.2Z"/><path class="cls-27" d="M1098.15,336.45a9,9,0,0,0-.87,1.65,12.73,12.73,0,0,1-.78,1.38c.35-.05.35-.05,7.74-.12a4.51,4.51,0,0,0,1.45-.25l1.12,1.12a5.73,5.73,0,0,0-.72,1.65,28.48,28.48,0,0,1-6.53,10.76,27.92,27.92,0,0,1-7.91,5.16,4.41,4.41,0,0,0-1.23-1.55,22.48,22.48,0,0,0,5.18-2.73,17.57,17.57,0,0,0,4.33-3.95,31.69,31.69,0,0,0-5.6-4.06l1.15-1.27a36.2,36.2,0,0,1,5.53,3.87,30.16,30.16,0,0,0,3.48-7.25l-8.76.12a24.82,24.82,0,0,1-6,6.66,4.47,4.47,0,0,0-1.45-1.2,21.78,21.78,0,0,0,6.38-7.13,13.88,13.88,0,0,0,1.48-3.43Z"/><path class="cls-27" d="M1128.16,337.9a5.94,5.94,0,0,0-1.1,1.06,44.59,44.59,0,0,1-5.86,5v10.66a16.52,16.52,0,0,0,.13,2.65h-2.18a12.68,12.68,0,0,0,.15-2.6v-9.51a39.45,39.45,0,0,1-9.66,4.38,5.74,5.74,0,0,0-1-1.68,35.31,35.31,0,0,0,13-6.48,21,21,0,0,0,4.78-4.73Z"/><path class="cls-27" d="M1138.5,337.18a9.84,9.84,0,0,0-.68,1.8,137.66,137.66,0,0,1-5.2,14.64c3.32-.23,9.21-1,12.16-1.58a49,49,0,0,0-3.86-6.48l1.56-.85a65,65,0,0,1,6.23,11.31l-1.75,1c-.56-1.42-.91-2.22-1.48-3.38a152.12,152.12,0,0,1-15.39,2.08,18.49,18.49,0,0,0-2.13.28l-.25-2.08.7,0c.18,0,1.55-.08,2.13-.13a96.69,96.69,0,0,0,3.78-9.91,47.85,47.85,0,0,0,2-7.21Z"/><path class="cls-27" d="M882.63,374.36a10.89,10.89,0,0,0,1.2-3.43l2,.35a5.15,5.15,0,0,0-.65,1.35,18.25,18.25,0,0,1-.78,1.7l.53,0a35.2,35.2,0,0,0,7.88-.95l.15,1.7a7.73,7.73,0,0,0-1,.12,75.5,75.5,0,0,1-8.26.65,18.29,18.29,0,0,1-2.25,3.56c-.25.3-.75.87-.85.95a2.74,2.74,0,0,0-.33.25s0,0,0,0v0c0,.05,0,.05,0,.07.9-.7.9-.7,1.15-.87a6.67,6.67,0,0,1,3.78-1.23,3,3,0,0,1,3.3,2.78c1.83-.73,3.26-1.25,4.36-1.65a5.52,5.52,0,0,0,1.7-.73l.8,1.75a42,42,0,0,0-6.68,2.21c0,.65,0,.9,0,1.52,0,.33,0,.88,0,1.38s0,.9,0,1.13a5.43,5.43,0,0,0,0,.9l-1.7,0c.07-.55.15-2.08.15-3.6a5.48,5.48,0,0,0,0-.75c-3.4,1.6-4.7,2.78-4.7,4.28s1.55,2.37,5.08,2.37a21.19,21.19,0,0,0,6.68-1l.22,1.92c-.37,0-.5.06-1,.13a38.16,38.16,0,0,1-6.08.5c-4.48,0-6.66-1.28-6.66-3.85,0-1.38.86-2.68,2.56-4a19.89,19.89,0,0,1,3.73-2c-.2-1.37-.8-2-2-2-1.58,0-3.55.93-5.58,2.66a8.21,8.21,0,0,0-1.93,2.07l-1.4-1.4a24.9,24.9,0,0,0,5.61-7.15l.22-.38a3.39,3.39,0,0,1-.47.05l-3.68-.07h-.4a5.43,5.43,0,0,0-.55,0l0-1.73a34.2,34.2,0,0,0,5.36.28Z"/><path class="cls-27" d="M902.4,385.07a53.48,53.48,0,0,1-3.13,6.81c-.4.65-.4.67-.53.9l-1.42-1.33c1.35-1.45,2.6-3.93,3.78-7.33Zm-3.93-8.26a25.43,25.43,0,0,1,4,3.18l-1.07,1.28a19.4,19.4,0,0,0-4-3.38Zm1-6.06a23.55,23.55,0,0,1,3.8,3.23l-1.05,1.23a19.15,19.15,0,0,0-3.83-3.43Zm12.36,9.94h4.51a23.7,23.7,0,0,0,2.5-.1,16.7,16.7,0,0,0-.1,2.35v8.11c0,1.33-.53,1.68-2.5,1.68-.63,0-1.53-.05-2.16-.1a5.67,5.67,0,0,0-.35-1.58,20.64,20.64,0,0,0,2.58.2c.68,0,.9-.13.9-.53V382h-5.38v5.75H914v-2.18a15.57,15.57,0,0,0-.1-2h1.6a10.51,10.51,0,0,0-.13,2v2.48a14.83,14.83,0,0,0,0,1.78H914v-.8h-5.51v1.52H907a11.89,11.89,0,0,0,.13-1.95v-3a11.94,11.94,0,0,0-.13-2h1.6a16.22,16.22,0,0,0-.1,2v2.18h2V382h-5.13v8.45a19.85,19.85,0,0,0,.15,2.68h-1.83a21.2,21.2,0,0,0,.15-2.73v-7.6c0-1,0-1.6-.07-2.2.52,0,1.13.07,2,.07h4.73v-2.2h-5a17.69,17.69,0,0,0-2.58.15V377a16.83,16.83,0,0,0,2.56.15h1.92v-2.8h-1.22a17.78,17.78,0,0,0-2.38.12v-1.65a15.69,15.69,0,0,0,2.4.15h1.2v-.52a10.41,10.41,0,0,0-.15-2H909a15,15,0,0,0-.12,2V373h4.83v-.52a14.06,14.06,0,0,0-.13-2h1.75a10.74,10.74,0,0,0-.15,2V373h1.63a15.94,15.94,0,0,0,2.43-.15v1.65a23.28,23.28,0,0,0-2.38-.12h-1.68v2.8h2.38a12.51,12.51,0,0,0,2.61-.15v1.63a17.6,17.6,0,0,0-2.63-.15h-5.66Zm1.83-3.53v-2.8h-4.83v2.8Z"/><path class="cls-27" d="M925.67,372.23c.8,0,1.33,0,1.93-.07a22.53,22.53,0,0,0-.08,2.72v11.34a20.56,20.56,0,0,0,.08,2.63h-1.5v-1.8h-2.53v2.8h-1.63a22,22,0,0,0,.15-2.9V375a27.72,27.72,0,0,0-.1-2.8c.55,0,1.13.07,1.8.07Zm-2.1,13.41h2.53v-12h-2.53Zm13.19.73c1.55,2.5,3.88,4.05,7.61,5.08a5.79,5.79,0,0,0-.83,1.53c-3.95-1.43-6.31-3.21-7.81-5.86a7.78,7.78,0,0,1-3.15,3.85,16.07,16.07,0,0,1-4.83,2,5.54,5.54,0,0,0-.88-1.43c4.33-.8,6.71-2.43,7.59-5.18H931.1a21.23,21.23,0,0,0-2.55.12v-1.62a15.61,15.61,0,0,0,2.58.12h3.65a7.26,7.26,0,0,0,.13-1.2c0-.17,0-.37,0-.52h1.7c-.05.3-.15.87-.3,1.72h5.08a16.36,16.36,0,0,0,2.6-.15v1.68a14.73,14.73,0,0,0-2.6-.15Zm-5.58-13.89a10.53,10.53,0,0,0-.18-2.07h1.65a9,9,0,0,0-.15,1.82l0,.25v.33h1.4a8.14,8.14,0,0,0,1.58-.1v1.5a8.28,8.28,0,0,0-1.55-.1h-1.43l0,2.38h1.2a8.05,8.05,0,0,0,1.48-.1v1.45a7.93,7.93,0,0,0-1.48-.1h-1.17l0,2.4c1-.25,1.38-.38,2.58-.78l.08,1.26c-1.91.67-2.91,1-5.48,1.67-.7.2-1,.3-1.28.4l-.4-1.55a22,22,0,0,0,3.15-.65l0-2.75h-1a8.73,8.73,0,0,0-1.56.1v-1.45a9,9,0,0,0,1.56.1h1l0-2.38H929.7a7.34,7.34,0,0,0-1.45.1v-1.5a8.2,8.2,0,0,0,1.45.1h1.48Zm6.5.8a12.29,12.29,0,0,0-1.67.1v-1.6a11,11,0,0,0,2,.13h3.76a17.64,17.64,0,0,0,1.85-.08c-.1.78-.1.9-.2,2.9a30,30,0,0,1-.8,6.46c-.33.93-.85,1.25-2.1,1.25a14.74,14.74,0,0,1-2.08-.17,4.93,4.93,0,0,0-.28-1.48,14.19,14.19,0,0,0,2.28.25c.85,0,.93-.17,1.2-2.28.18-1.4.23-2,.4-5.48h-2.67a17.26,17.26,0,0,1-1,5.63,9.7,9.7,0,0,1-3.23,4.11,4.86,4.86,0,0,0-1.1-1,8.13,8.13,0,0,0,3.13-3.76,14,14,0,0,0,.72-4.93Z"/><path class="cls-27" d="M950.37,371.68a38.15,38.15,0,0,0-.32,5.28c-.1,3-.18,6.41-.18,7.53,0,.3,0,.93,0,1.5a4,4,0,0,0,1.18,3,4.76,4.76,0,0,0,3.13,1,7.17,7.17,0,0,0,6.7-4.35,14.7,14.7,0,0,0,1.23-3.93,7.07,7.07,0,0,0,1.8,1.2c-1,2.93-1.67,4.41-2.78,5.68a8.76,8.76,0,0,1-7,3.13,5.94,5.94,0,0,1-4.71-1.75c-1-1.18-1.37-2.5-1.37-5.13,0-1.68,0-2.3.22-10.19,0-.75,0-1.22,0-1.62a8.24,8.24,0,0,0-.1-1.33Z"/><path class="cls-27" d="M964.49,374.68h.9c.35,0,.65,0,1.43-.07,3-.23,11-.68,14.21-.83a17.54,17.54,0,0,0,3-.27l.15,1.87a12,12,0,0,0-2.81.33,12.71,12.71,0,0,0-4.8,2.53,7.64,7.64,0,0,0-3.08,5.78,4.91,4.91,0,0,0,3.51,4.63,12.78,12.78,0,0,0,3.75.8H981l-.33,2-.77-.15a12.79,12.79,0,0,1-5.41-1.93,6.1,6.1,0,0,1-2.77-5.11c0-2.9,1.7-5.68,4.68-7.68a16.52,16.52,0,0,1,2.37-1.33,45.15,45.15,0,0,1-5.5.55,77.12,77.12,0,0,0-8.64.83Z"/><path class="cls-27" d="M1004.2,391a20,20,0,0,0-5.1-3.58c-.43-.22-1-.47-1.68-.75a7.27,7.27,0,0,1,.05.9,4.35,4.35,0,0,1-.62,2.73c-.73,1-2.26,1.58-4.23,1.58a6.51,6.51,0,0,1-3.88-1,3.29,3.29,0,0,1-1.35-2.63c0-1.65,1.3-3,3.5-3.46a11.16,11.16,0,0,1,2.6-.25,11.59,11.59,0,0,1,2.26.2c0-.07,0-.07,0-.3a1.5,1.5,0,0,1,0-.27c0-.23,0-.75-.05-1.48,0-.32,0-.8,0-1.45-.9,0-2.15.05-3,.05-1.5,0-2.68-.05-4.23-.17a5.21,5.21,0,0,0-.62,0h-.2l0-1.65a30.82,30.82,0,0,0,5.73.4c.65,0,1.53,0,2.23,0l-.05-3.42c-.73,0-1.13,0-1.7,0-1.83,0-3.86-.07-6.11-.25a2.48,2.48,0,0,0-.45,0,1.73,1.73,0,0,0-.35,0l0-1.7a31,31,0,0,0,6.4.5c.5,0,1.35,0,2.18,0a19.77,19.77,0,0,0-.13-3.6h1.93a27.43,27.43,0,0,0-.17,3.53,35.44,35.44,0,0,0,7.4-1l.13,1.71a16,16,0,0,0-1.73.19,50.76,50.76,0,0,1-5.8.61c0,2,0,2,.05,3.37a30.64,30.64,0,0,0,6.93-1l.1,1.72c-.33,0-.58.05-1.45.18-1.73.28-3.71.48-5.56.6,0,1.4,0,1.4.15,3.83a21.8,21.8,0,0,1,7,3.65,9.34,9.34,0,0,0,.85.58Zm-8.45-4.73a9.11,9.11,0,0,0-2.56-.27c-2.48,0-4.1.9-4.1,2.22s1.25,2.08,3.43,2.08a3.63,3.63,0,0,0,2.75-.83,3.27,3.27,0,0,0,.5-2.25Z"/><path class="cls-27" d="M1018.87,372.56a8.92,8.92,0,0,0-.1-1.45h1.88a20.36,20.36,0,0,0-.13,3.12v.28c4.73,0,6.66-.08,7.48-.18v1.78a45.05,45.05,0,0,0-4.78-.12c-.37,0-.65,0-2.67.05V381a7.24,7.24,0,0,1,.6,2.95,8,8,0,0,1-3.36,6.53,15.39,15.39,0,0,1-3.95,2,5.88,5.88,0,0,0-1.1-1.58,12.71,12.71,0,0,0,4-1.87,6.46,6.46,0,0,0,2.8-5.28,3.39,3.39,0,0,1-.67,1.22,4.18,4.18,0,0,1-7.26-2.6,4.16,4.16,0,0,1,4.43-4.13,3.86,3.86,0,0,1,2.91,1.13,13.44,13.44,0,0,1,0-1.38c0-.1,0-.35,0-.65v-1.3c-5,.1-10.08.35-11.76.63l-.07-1.83c.45,0,.62,0,1,0,.72,0,.72,0,4.75-.15,2.41-.1,4.36-.15,6.06-.2Zm-1.08,7.53a3.13,3.13,0,0,0-1.67-.4,2.65,2.65,0,0,0-2.78,2.63,2.41,2.41,0,0,0,2.58,2.47,2.8,2.8,0,0,0,2.92-3A1.81,1.81,0,0,0,1017.79,380.09Z"/><path class="cls-27" d="M1037.29,386.35c0-.78,0-.93,0-1.78v-.9l-.22-8.89c0-1,0-1.8-.16-2.75h2.48c-.07,1-.12,1.7-.15,2.75l-.2,8.89c0,1.05,0,1.05,0,1.15,0,.45,0,.9.07,1.53Zm-.28,4.7V388.7h2.43v2.35Z"/></g></g></g></svg>