<svg xmlns="http://www.w3.org/2000/svg" xmlns:xlink="http://www.w3.org/1999/xlink" width="1170" height="260.17" viewBox="0 0 1170 260.17"><defs><style>.cls-1{fill:url(#radial-gradient);}.cls-2{fill:url(#radial-gradient-2);}.cls-3{isolation:isolate;}.cls-4{mask:url(#mask);}.cls-5,.cls-8{mix-blend-mode:multiply;}.cls-5{fill:url(#linear-gradient);}.cls-6{fill:#ff6f6f;}.cls-7{mask:url(#mask-2);}.cls-8{fill:url(#linear-gradient-2);}.cls-9{fill:#fff;}.cls-10{fill:#ccc;}</style><radialGradient id="radial-gradient" cx="-1572.32" cy="-1101.1" r="19.34" gradientTransform="translate(-38684.81 -15575.77) rotate(180) scale(24.92 14.35)" gradientUnits="userSpaceOnUse"><stop offset="0" stop-color="#fff"/><stop offset="0.16" stop-color="#fcfcfc"/><stop offset="0.29" stop-color="#f2f2f2"/><stop offset="0.41" stop-color="#e1e1e1"/><stop offset="0.52" stop-color="#c9c9c9"/><stop offset="0.63" stop-color="#aaa"/><stop offset="0.74" stop-color="#848484"/><stop offset="0.84" stop-color="#575757"/><stop offset="0.94" stop-color="#242424"/><stop offset="1"/></radialGradient><radialGradient id="radial-gradient-2" cx="-2269.4" cy="-1102.11" r="19.34" gradientTransform="translate(-17795.41 -15575.77) rotate(180) scale(8.29 14.35)" xlink:href="#radial-gradient"/><mask id="mask" x="0" y="181.7" width="989.2" height="88.34" maskUnits="userSpaceOnUse"><rect class="cls-1" x="11.78" y="182.74" width="977.42" height="87.3"/></mask><linearGradient id="linear-gradient" x1="13612.78" y1="1341.08" x2="13612.78" y2="1412.62" gradientTransform="translate(-13124.07 -1165.03)" gradientUnits="userSpaceOnUse"><stop offset="0" stop-color="#9a9e99"/><stop offset="0.03" stop-color="#a8aca8"/><stop offset="0.11" stop-color="#c3c6c3"/><stop offset="0.19" stop-color="#d9dbd9"/><stop offset="0.29" stop-color="#eaebea"/><stop offset="0.41" stop-color="#f6f7f6"/><stop offset="0.57" stop-color="#fdfdfd"/><stop offset="1" stop-color="#fff"/></linearGradient><mask id="mask-2" x="856.91" y="196.16" width="329.13" height="88.34" maskUnits="userSpaceOnUse"><rect class="cls-2" x="860.83" y="197.2" width="325.21" height="87.3"/></mask><linearGradient id="linear-gradient-2" x1="14137.53" y1="1355.54" x2="14137.53" y2="1427.08" xlink:href="#linear-gradient"/></defs><title>top_parsonal</title><g class="cls-3"><g id="レイヤー_2" data-name="レイヤー 2"><g id="レイヤー_1-2" data-name="レイヤー 1"><g class="cls-4"><rect class="cls-5" y="181.7" width="977.42" height="64.01"/></g><rect class="cls-6" y="21.41" width="1169.89" height="161.96"/><g class="cls-7"><rect class="cls-8" x="856.91" y="196.16" width="313.09" height="64.01"/></g><polygon class="cls-9" points="1170 55.64 979.72 55.64 856.91 198.89 1170 198.89 1170 55.64"/><path class="cls-9" d="M74.07,71.57l0,.16c0,.15-.08.27-.12.38l-.23,1c-3.15,12.33-9.83,20.09-22,25.54A20.47,20.47,0,0,0,46.8,92.2C57,89,63.93,82.21,66.12,73.26H50.06a57.76,57.76,0,0,0-6.34.23V66.58a37,37,0,0,0,6.46.31H69.76a4.33,4.33,0,1,1,4.34,4.53Zm-2.19-4.49a2.19,2.19,0,1,0,2.19-2.19A2.21,2.21,0,0,0,71.88,67.08Z"/><path class="cls-9" d="M79.44,74.26a40.65,40.65,0,0,0,6.18.31H104.9a6.28,6.28,0,0,0,3.07-.42l3,3.22a7.61,7.61,0,0,0-1.07,2.42c-2,5.72-4.77,10-8.53,13.17-2.92,2.46-5.69,4-11,6a21.36,21.36,0,0,0-4.3-6.3c4.61-1.19,7.38-2.42,10.14-4.5a16.77,16.77,0,0,0,5.92-7.68H85.55a58.16,58.16,0,0,0-6.11.23Zm3.19-9.6a34.92,34.92,0,0,0,5.64.31h12.25a36.72,36.72,0,0,0,6-.31v6.45c-1.46-.11-3.26-.19-5.91-.19H88.2a51.15,51.15,0,0,0-5.57.19Z"/><path class="cls-9" d="M145.26,68a13.94,13.94,0,0,0-1.49,1.42,64.47,64.47,0,0,1-8.88,7.72V91.93a55.31,55.31,0,0,0,.23,6.22h-7.45a50.13,50.13,0,0,0,.24-6.18V81.37a65.86,65.86,0,0,1-12.56,5.68,20.73,20.73,0,0,0-3.69-6.18,55.79,55.79,0,0,0,20.39-10c3.31-2.5,5.88-5.11,7-7Z"/><path class="cls-9" d="M142.54,82.83c1.26-.77,3.76-3.58,8.64-9.76a12,12,0,0,1,3.22-3.19,6,6,0,0,1,2.92-.73c2.27,0,3.38.73,6.53,4.3a141.11,141.11,0,0,0,11.71,12,35,35,0,0,0,4.15,3.45l-3.42,7.38c-5.64-5.23-9-8.8-17.43-18.4-.58-.65-1-.92-1.39-.92s-.53,0-2,2c-2.19,2.88-4.23,5.45-6.91,8.68-.43.5-.77,1-1.42,1.76Zm27.53-14.21a26.71,26.71,0,0,1,3.8,5.49l-3.64,1.76a25.79,25.79,0,0,0-3.81-5.6Zm5.11-2.31A27.08,27.08,0,0,1,179,71.65l-3.53,1.73a29.68,29.68,0,0,0-3.77-5.5Z"/><path class="cls-9" d="M180.9,77.33a54,54,0,0,0,7.87.35h18.36a62.58,62.58,0,0,0,7.87-.35v7.42a71.92,71.92,0,0,0-7.91-.23H188.81a78.52,78.52,0,0,0-7.91.23Z"/><path class="cls-9" d="M221.8,98a55.86,55.86,0,0,0,.23-5.88V69.73a36.36,36.36,0,0,0-.27-5.57h7.41a50.63,50.63,0,0,0-.19,5.61V75a81.73,81.73,0,0,1,17.48,8l-3.65,6.53a71.47,71.47,0,0,0-12.1-6.69A9.39,9.39,0,0,1,229,82.1v10a57.47,57.47,0,0,0,.23,5.88Z"/><path class="cls-9" d="M262.62,67.88a2.43,2.43,0,0,0-.11.62,5.33,5.33,0,0,0-.16,1.08l-.11.76-.16.89c-1.53,11.75-4.45,19.74-9.52,26a26.9,26.9,0,0,0-6.26-4.57c5.22-5.3,8.83-15.79,9-26Zm11.22-1.34v.12A51,51,0,0,0,275.22,75c1.92,7.41,4.34,12.4,8.41,17.32a27,27,0,0,0-6.07,4.84c-5.11-6.72-8.45-15.59-9.91-26.35,0-.38-.07-.65-.07-.73l-.27-1.46,0-.38s-.08-.23-.15-.46Zm10.1,2.92a4.32,4.32,0,1,1-4.3-4.34A4.33,4.33,0,0,1,283.94,69.46Zm-6.49,0a2.17,2.17,0,1,0,2.19-2.19A2.2,2.2,0,0,0,277.45,69.46Z"/><path class="cls-9" d="M284.82,77.33a54,54,0,0,0,7.87.35h18.36a62.58,62.58,0,0,0,7.87-.35v7.42a71.92,71.92,0,0,0-7.91-.23H292.73a78.52,78.52,0,0,0-7.91.23Z"/><path class="cls-9" d="M328.14,66a57.14,57.14,0,0,1,5.14,12.64L326.1,81a55.28,55.28,0,0,0-4.72-12.94Zm24.31,1.62c-.35.76-.35.76-1,3.88-1.5,7-4.49,13.48-8.26,17.89a38.4,38.4,0,0,1-11.9,9.18,21.5,21.5,0,0,0-5.07-5.91,31.53,31.53,0,0,0,7.91-4.61c5.22-4.15,8.26-9.22,10.14-16.75a27.31,27.31,0,0,0,.84-5.37Z"/><path class="cls-9" d="M382.06,72.8a32.09,32.09,0,0,0,5.76-.31v6.76c-1.89-.15-2.81-.19-5.65-.19h-6.8c-.38,5-1,7.57-2.69,10.49a21.33,21.33,0,0,1-6.14,6.72,38.71,38.71,0,0,1-3.92,2.46,18.39,18.39,0,0,0-5.07-5.88c4.5-1.88,7.3-4.11,9.07-7.11a12,12,0,0,0,1.61-4.83c.08-.58.08-.58.19-1.85H360.2c-2.76,0-3.65,0-5.57.19V72.49a30,30,0,0,0,5.69.31h8.45c0-.54,0-.54,0-1.54V68.35a30,30,0,0,0-.23-4.07H376a27.23,27.23,0,0,0-.23,4.18c0,1.46,0,1.46,0,3,0,.5,0,1,0,1.34Z"/><path class="cls-9" d="M400.72,65.39c-.16,1.3-.16,1.3-.42,8.91-.23,8-1,12.29-2.85,16.48a25.49,25.49,0,0,1-5.33,7.68,20.78,20.78,0,0,0-5.5-5.38A17.11,17.11,0,0,0,391.19,87c1.81-3.76,2.42-8.52,2.42-18.47a27.24,27.24,0,0,0-.15-3.53Zm10.87-.62a27.75,27.75,0,0,0-.31,4.46l-.19,20.12a14.92,14.92,0,0,0,4.61-4.22,19.51,19.51,0,0,0,3-6.57,25.5,25.5,0,0,0,5.11,5.07,23.58,23.58,0,0,1-6.64,9.76c-2.31,2-4.19,3-8.07,4.38a8.44,8.44,0,0,0-1.88.8l-3.3-3.45a8.57,8.57,0,0,0,.42-3.23l.19-22.74V67.77a24,24,0,0,0-.15-3Z"/><path class="cls-9" d="M428.67,98a52.67,52.67,0,0,0,.24-5.88V69.73a36.36,36.36,0,0,0-.27-5.57h7.41a50.63,50.63,0,0,0-.19,5.61V75a81.43,81.43,0,0,1,17.47,8l-3.65,6.53a70.71,70.71,0,0,0-12.1-6.69,8.76,8.76,0,0,1-1.72-.76v10a54.69,54.69,0,0,0,.23,5.88Z"/><path class="cls-9" d="M466.54,65a37.44,37.44,0,0,0-.27,4.72L466,90.05a24,24,0,0,0,17-13.06,21.22,21.22,0,0,0,5.19,5.53c-5.57,8.6-12.67,13.06-24,15a5.42,5.42,0,0,0-2.31.69l-3.42-4c.39-.8.43-1.23.46-3.15l.16-21.35v-.62a31.12,31.12,0,0,0-.23-4.18Z"/><path class="cls-9" d="M490.08,77.33a54,54,0,0,0,7.87.35h18.36a62.58,62.58,0,0,0,7.87-.35v7.42a71.92,71.92,0,0,0-7.91-.23H498a78.52,78.52,0,0,0-7.91.23Z"/><path class="cls-9" d="M526.83,87.09a40.64,40.64,0,0,0,6.41.31H553.1a40.33,40.33,0,0,0,6.8-.31v7.18a64.09,64.09,0,0,0-6.68-.19H533.13a61,61,0,0,0-6.3.19ZM530.71,68a40.47,40.47,0,0,0,6,.27h13A49.63,49.63,0,0,0,556.1,68v7c-2.19-.15-3.19-.19-6.3-.19H536.62c-2.84,0-4.57.07-5.91.19Z"/><path class="cls-9" d="M567.12,66a56.76,56.76,0,0,1,10.56,7.53l-4.54,6a41,41,0,0,0-10.44-8.1Zm-4,23.86a38.54,38.54,0,0,0,11.56-2.77,23.13,23.13,0,0,0,11.26-9.49A35.24,35.24,0,0,0,589.66,70a24.79,24.79,0,0,0,5.64,5.14c-3.49,7.57-7.14,12.1-12.52,15.56-4.14,2.69-7.79,4.11-14.94,5.76-1.49.34-1.72.38-2.76.69Z"/><path class="cls-9" d="M628,72.69a16.6,16.6,0,0,0-1,2.61C623.38,86.82,616.89,94,605.37,99.15a19.65,19.65,0,0,0-4.61-5.88c10.14-3.65,16.4-9.75,19.24-18.7l-10.22.11a36.71,36.71,0,0,1-8.72,9.64,19.73,19.73,0,0,0-5.45-4.61A30.65,30.65,0,0,0,605.83,68a14.68,14.68,0,0,0,1.65-4.61l7.26,1.31c-.2.38-.23.42-.46.92,0,.11-.16.34-.27.61s-.31.69-.35.81c-.27.58-.42,1-.46,1a4.21,4.21,0,0,1-.31.65l8.72-.07h.85a23.36,23.36,0,0,0-2.19-3.69l3.8-1.23a23.06,23.06,0,0,1,3.19,5.88l-1.19.42Zm1.42-10.6a25.7,25.7,0,0,1,3.18,5.72L629,69.15a28.74,28.74,0,0,0-3.15-5.87Z"/><path class="cls-9" d="M642.31,99.34a57.85,57.85,0,0,1-3.65-7.07,31.36,31.36,0,0,1-2-11,32.57,32.57,0,0,1,1.45-9.64,36.75,36.75,0,0,1,4.27-8.76h7.07c-3,4.57-4,6.76-5,10.18a32.14,32.14,0,0,0-1,8.07,31.36,31.36,0,0,0,2,10.9,43.38,43.38,0,0,0,4,7.34Z"/><path class="cls-9" d="M656.4,73.19a60.75,60.75,0,0,0-6.22.19V66.62a48.54,48.54,0,0,0,6.34.3l21,0a7.23,7.23,0,0,0,2.65-.39l3.69,4.15a9.07,9.07,0,0,0-1.77,2.46c-4,6.64-7.1,10.44-12.17,14.71,1.65,2,2.73,3.34,4.57,5.84l-5.76,4.49a65.75,65.75,0,0,0-7.41-10,57.36,57.36,0,0,0-7.72-7.65l5.26-3.68a58.74,58.74,0,0,1,6.64,6.1,42.16,42.16,0,0,0,6-6.07A26.6,26.6,0,0,0,674,73.11Z"/><path class="cls-9" d="M689.81,66a56.52,56.52,0,0,1,10.57,7.53l-4.54,6a41,41,0,0,0-10.44-8.1Zm-4,23.86a38.54,38.54,0,0,0,11.56-2.77,23.07,23.07,0,0,0,11.25-9.49A35.26,35.26,0,0,0,712.36,70,24.79,24.79,0,0,0,718,75.18c-3.49,7.57-7.14,12.1-12.52,15.56-4.15,2.69-7.79,4.11-14.94,5.76-1.5.34-1.73.38-2.76.69Z"/><path class="cls-9" d="M725.07,67.12a52.56,52.56,0,0,1,4.61,11.94l-6.65,2a49.56,49.56,0,0,0-4.3-12.25Zm27.57.8a23.37,23.37,0,0,0-.88,3.65,38.73,38.73,0,0,1-7,16.17c-3.38,4.34-7.61,7.57-14,10.68a19.56,19.56,0,0,0-4.72-6.15,29.63,29.63,0,0,0,11.1-6.64c4.11-3.88,6.37-8.34,7.68-15.09a23.14,23.14,0,0,0,.5-4.34Zm-17.28-2.61a51.57,51.57,0,0,1,4.57,11.49l-6.6,2A56.7,56.7,0,0,0,729.06,67Z"/><path class="cls-9" d="M754.44,77.33a54.18,54.18,0,0,0,7.88.35h18.35a62.65,62.65,0,0,0,7.88-.35v7.42a71.92,71.92,0,0,0-7.91-.23H762.36a78.75,78.75,0,0,0-7.92.23Z"/><path class="cls-9" d="M796.88,73.19a60.75,60.75,0,0,0-6.22.19V66.62a48.47,48.47,0,0,0,6.33.3l21,0a7.27,7.27,0,0,0,2.65-.39l3.69,4.15a8.86,8.86,0,0,0-1.77,2.46c-4,6.64-7.1,10.44-12.17,14.71,1.65,2,2.72,3.34,4.57,5.84l-5.76,4.49a65.17,65.17,0,0,0-7.42-10,56.78,56.78,0,0,0-7.72-7.65l5.27-3.68A59.62,59.62,0,0,1,806,82.9a41.55,41.55,0,0,0,6-6.07,26.77,26.77,0,0,0,2.46-3.72Z"/><path class="cls-9" d="M830.29,66a56.42,56.42,0,0,1,10.56,7.53l-4.53,6a41,41,0,0,0-10.45-8.1Zm-4,23.86a38.61,38.61,0,0,0,11.56-2.77,23.11,23.11,0,0,0,11.25-9.49A35.24,35.24,0,0,0,852.83,70a25.07,25.07,0,0,0,5.65,5.14C855,82.75,851.34,87.28,846,90.74c-4.15,2.69-7.8,4.11-14.94,5.76-1.5.34-1.73.38-2.77.69Z"/><path class="cls-9" d="M858.9,99.34c3.15-4.92,4.15-7,5-10.37a33.59,33.59,0,0,0,1-8.22,30.45,30.45,0,0,0-2.15-11,37.17,37.17,0,0,0-3.88-6.92H866c2.62,4.34,3.65,6.57,4.54,9.76a30.6,30.6,0,0,1,1.15,8.49,31.36,31.36,0,0,1-2,11.17A51.19,51.19,0,0,1,866,99.34Z"/><path class="cls-9" d="M878.6,67a37.61,37.61,0,0,0,7.95.54h1.08a14.35,14.35,0,0,0,1.19-4.27l7,.54a12.32,12.32,0,0,0-.8,1.81c-.5,1.11-.73,1.73-.77,1.8.38,0,.38,0,2.34-.15a55.87,55.87,0,0,0,9.72-1.23l.23,6.11-3.46.34c-2.72.27-7.52.54-11.44.66A20,20,0,0,1,889.81,76a11.35,11.35,0,0,1,4.88-1.15c3.19,0,5.11,1.22,5.88,3.72l2.69-.92c.11,0,1.15-.39,2.38-.77a16.41,16.41,0,0,0,3.07-1.15l2.34,6.07a63.59,63.59,0,0,0-9.79,2.61c0,1,0,1.07,0,2.76a24.94,24.94,0,0,0,.15,3.31l-6.26.19a29.33,29.33,0,0,0,.19-4.07l-.34.15a8.88,8.88,0,0,0-2.69,1.61,2.67,2.67,0,0,0-1,2c0,1.46,1.42,2,5.15,2a36.37,36.37,0,0,0,12.29-1.92l.42,6.91a25,25,0,0,0-3.42.35,76.54,76.54,0,0,1-9.25.57c-4.34,0-7.07-.53-9.14-1.76a6.17,6.17,0,0,1-3-5.46,7.19,7.19,0,0,1,1.88-4.84,16.93,16.93,0,0,1,5.53-4.11c.93-.46,1.31-.61,2.85-1.3a1.58,1.58,0,0,0-1.54-1c-2,0-4.61,1.34-7.3,3.68a25.22,25.22,0,0,0-3.69,3.88l-4.87-4.84a26.15,26.15,0,0,0,4.07-4c.84-1,2.38-3.26,3-4.19l.73-1.22h-1.23c-1.66,0-1.66,0-3.31,0-.53,0-.8,0-1.34,0h-.58Z"/><path class="cls-9" d="M53.6,116.73a44.21,44.21,0,0,0-.2,5.14v7.65a48.36,48.36,0,0,0,.2,5.49H46.14a38.3,38.3,0,0,0,.24-5.61v-7.6a36.88,36.88,0,0,0-.24-5.07Zm17.86,0c-.16,2.15-.2,2.72-.2,5.18v4.49c0,5.27-.3,8.95-.88,11.18-1.15,4.19-3.76,7.34-8,9.76a32.57,32.57,0,0,1-8,3.15,17.5,17.5,0,0,0-3.91-6.57,25,25,0,0,0,7.6-2.34c3.38-1.81,5.11-4.08,5.72-7.46a65.38,65.38,0,0,0,.42-8.14v-4a36,36,0,0,0-.23-5.26Z"/><path class="cls-9" d="M76.17,129.09a54.18,54.18,0,0,0,7.88.35h18.36a62.58,62.58,0,0,0,7.87-.35v7.41a75.54,75.54,0,0,0-7.91-.22H84.09c-4.3,0-5.57,0-7.92.22Z"/><path class="cls-9" d="M135.43,118.57a27.25,27.25,0,0,0-1.57-2.38l3.8-1.23a28.14,28.14,0,0,1,3.38,6.11l-2.5.88.35.81a9.91,9.91,0,0,0-.85,1.88,42.22,42.22,0,0,1-5.26,9.56A94.53,94.53,0,0,1,145,144.61l-5.38,5.72a63.31,63.31,0,0,0-11-10.94A42.81,42.81,0,0,1,114.46,150a20.28,20.28,0,0,0-4.3-6.07c9.33-3.53,16.82-10.6,20.16-19.09l-10,.19a50,50,0,0,0-6.11.35l-.19-6.8a36.43,36.43,0,0,0,4,.23h2.15l12.25-.19Zm7.76-4.92a26.88,26.88,0,0,1,3.42,5.92l-3.69,1.3a27.2,27.2,0,0,0-3.34-6Z"/><path class="cls-9" d="M173.8,124.56a32.09,32.09,0,0,0,5.76-.31V131c-1.88-.15-2.81-.19-5.65-.19h-6.8c-.38,5-1,7.57-2.68,10.49a21.48,21.48,0,0,1-6.15,6.72,38.71,38.71,0,0,1-3.92,2.46,18.39,18.39,0,0,0-5.07-5.88c4.5-1.88,7.3-4.11,9.07-7.11a12,12,0,0,0,1.61-4.83c.08-.58.08-.58.19-1.85h-8.22c-2.76,0-3.65,0-5.57.19v-6.76a30,30,0,0,0,5.69.31h8.45c0-.54,0-.54,0-1.54v-2.91a31.67,31.67,0,0,0-.23-4.07h7.37a30.38,30.38,0,0,0-.23,4.18c0,1.46,0,1.46,0,3,0,.5,0,1,0,1.34Z"/><path class="cls-9" d="M211.24,123.52a8.42,8.42,0,0,0-.27.81c0,.12-.11.46-.27,1-3.22,12.21-9.83,19.82-22,25.23a20.76,20.76,0,0,0-4.87-6.45c10.25-3.23,17.28-10.1,19.31-18.93H186.66a36.44,36.44,0,0,0-5.84.23v-6.88a33.68,33.68,0,0,0,6,.31h16.52a25.48,25.48,0,0,0,3-.12l-.08-.11-.15-.27a15.94,15.94,0,0,0-1.58-2.54l3.5-1a22.86,22.86,0,0,1,3.26,6.14l-1.61.54Zm2-9.79a17,17,0,0,1,3,5.8L213,120.64a23.07,23.07,0,0,0-3-5.91Z"/><path class="cls-9" d="M227.21,117.15c-.15,1.3-.15,1.3-.42,8.91-.23,8-1,12.29-2.84,16.48a25.71,25.71,0,0,1-5.34,7.68,20.75,20.75,0,0,0-5.49-5.38,17.11,17.11,0,0,0,4.57-6.11c1.81-3.76,2.42-8.52,2.42-18.47a29.18,29.18,0,0,0-.15-3.53Zm10.87-.62a26.79,26.79,0,0,0-.3,4.46l-.2,20.12a14.7,14.7,0,0,0,4.61-4.22,19.33,19.33,0,0,0,3-6.57,25.5,25.5,0,0,0,5.11,5.07,23.6,23.6,0,0,1-6.65,9.76c-2.3,2-4.18,2.95-8.06,4.38a8,8,0,0,0-1.88.8l-3.31-3.45a8.37,8.37,0,0,0,.42-3.23l.2-22.74v-1.38a22.06,22.06,0,0,0-.16-3Z"/><path class="cls-9" d="M266.5,115.77a16.67,16.67,0,0,0-.73,3.07c-.19.92-.27,1.27-.46,2.15a30.07,30.07,0,0,0,5.34-.92l.11,6.22c-.92.08-.92.08-2.84.31-1,.11-3.15.3-4.11.38a79.58,79.58,0,0,1-4.18,11.14c-.81,1.76-1.16,2.46-2.65,5.45a15,15,0,0,0-.73,1.5L250,141.65a52.41,52.41,0,0,0,7.1-14.52h-2.15c-.88,0-.88,0-1.77,0h-1.49V121a31.27,31.27,0,0,0,5.6.38c.43,0,.62,0,1.39,0a10.4,10.4,0,0,1,.34-1.62,25.39,25.39,0,0,0,.58-4.57ZM283,148.14a20.73,20.73,0,0,0-5-4.18,5.63,5.63,0,0,1-1.61,4c-1.5,1.5-4.19,2.38-7.26,2.38a10.09,10.09,0,0,1-7.26-2.53A6.71,6.71,0,0,1,260,143c0-4.45,3.73-7.56,9.06-7.56a15.85,15.85,0,0,1,2.69.23c-.11-1.46-.15-2.19-.15-3.07,0-1.58.08-2.81.23-4.54l6.34.27a17.73,17.73,0,0,0-.43,4.34,34.32,34.32,0,0,0,.31,4.46,28.21,28.21,0,0,1,5.92,3.42c.11.07.73.57,1.88,1.49Zm-13.75-7.22c-1.81,0-3,.77-3,2s1.07,1.84,2.73,1.84c1.92,0,2.92-.84,2.92-2.45a3.82,3.82,0,0,0-.08-.85A6.76,6.76,0,0,0,269.27,140.92Zm14.13-10.79a54.29,54.29,0,0,0-11.94-5.53l3.18-5.3a64.4,64.4,0,0,1,11.56,5.18Z"/><path class="cls-9" d="M302.41,121.83c-2.08,0-3.84.08-5.07.2v-3.11a49,49,0,0,1-2.42,6v21.66a39.48,39.48,0,0,0,.15,4.42h-5.91a42.39,42.39,0,0,0,.23-4.38v-10c0-.23,0-1.49,0-3.76-.42.65-1.19,1.73-1.68,2.38a41.61,41.61,0,0,0-1.81-7,24.16,24.16,0,0,0,5.11-8.75,24.28,24.28,0,0,0,1.34-5.15l5,2a1.45,1.45,0,0,1,.42.07c.73.08,2.8.16,4.61.16h15.17a45,45,0,0,0,5.3-.23V122c-1.16-.12-3-.2-5.07-.2h-2.42v3.73h2.95a33.89,33.89,0,0,0,3.65-.19,30.3,30.3,0,0,0-.19,3.92v16.16c0,2.15.08,3.81.23,5.38h-5.8v-1.69H302v1.69h-5.64c.11-1.34.19-3,.19-4.38V129.29c0-1.5,0-2.66-.15-3.92a23.61,23.61,0,0,0,3.57.19h2.88v-3.73Zm-.7,9v13.1h1.89v-13.1Zm8.3-5.22v-3.73h-1.8v3.73Zm0,18.32v-13.1h-1.8v13.1Zm6.49,0v-13.1h-1.88v13.1Z"/><path class="cls-9" d="M337.12,137.7a18.79,18.79,0,0,0-.69-2.69,16.8,16.8,0,0,0-.84,2.19,28.12,28.12,0,0,1-1.5-2.85c.07.89.11,2.89.11,3.88v7.84a46,46,0,0,0,.23,5h-6.06a47.07,47.07,0,0,0,.23-5v-5c0-1.89.07-3.12.11-3.73a19.16,19.16,0,0,1-2.76,5.88,23.47,23.47,0,0,0-2.5-6.11,26.89,26.89,0,0,0,4.76-10.52h-.92a16.07,16.07,0,0,0-2.92.19V121.1a16.58,16.58,0,0,0,3,.2h1.23v-2.5a28.37,28.37,0,0,0-.23-4h6.1a28.78,28.78,0,0,0-.23,4v2.5h.54a9,9,0,0,0,2-.16v2.11c2.84-2.84,4.65-5.91,5.15-8.75l6.06.84-.8,2h4.57a17.26,17.26,0,0,0,3.11-.19l3.15,3.46a18.43,18.43,0,0,0-1.19,1.84,35.63,35.63,0,0,1-4.61,6.22,36.87,36.87,0,0,0,8.45,3,29.7,29.7,0,0,0-2.15,5.91c-.66-.23-.69-.23-1.27-.42V147a26.62,26.62,0,0,0,.19,3.88h-6.07v-1.65h-7.6V151h-6a26,26,0,0,0,.19-3.77v-9.79Zm-2.84-11.1a15.42,15.42,0,0,0,3.23,5A36.08,36.08,0,0,0,343,129a28.34,28.34,0,0,1-2-2.11,26.74,26.74,0,0,1-2.34,2.15,21,21,0,0,0-2-2.27,8.78,8.78,0,0,0-1.88-.15Zm18.47,8.79a34.13,34.13,0,0,1-5.22-2.84,28.1,28.1,0,0,1-4.8,2.84ZM343.69,144h7.6v-3.34h-7.6Zm.58-21.28a15.74,15.74,0,0,0,3.11,3.11,15,15,0,0,0,2.91-3.46H344.5Z"/><path class="cls-9" d="M360.55,119.41c.65,0,1.15,0,1.46,0,1,0,2.38-.07,6.56-.34,5.53-.35,9.26-.54,16.56-.81l3.95-.15,1.62-.08c1.3,0,1.53-.08,1.72-.08a3.05,3.05,0,0,0,.89-.15l.34,7a5.59,5.59,0,0,0-1.07-.08,18,18,0,0,0-8.8,2.69c-3.84,2.35-6.11,5.57-6.11,8.72a4.9,4.9,0,0,0,3.23,4.76,20.28,20.28,0,0,0,7.34,1.39c.3,0,.57,0,1.15,0l-.88,7.3a9.61,9.61,0,0,0-1.43-.2,28.78,28.78,0,0,1-9.71-2.15c-4.53-2.11-6.88-5.64-6.88-10.52a13.14,13.14,0,0,1,3.27-8.68,15.83,15.83,0,0,1,3.76-3.27l-1.8.2c-.85.07-2.19.19-9.37.76a44.64,44.64,0,0,0-5.42.73Zm27.23,8.76a25.19,25.19,0,0,1,3.72,5.57l-3.69,1.69a23.87,23.87,0,0,0-3.72-5.68Zm5.14-2.23a27,27,0,0,1,3.77,5.42L393.11,133a27.8,27.8,0,0,0-3.64-5.53Z"/><path class="cls-9" d="M403.79,128.79a22.44,22.44,0,0,0-3.5.15v-2.23h-3.72a17,17,0,0,0,.19-3v-3.15c0-1,0-1.81-.15-3.11,1.23.11,2.49.15,4.61.15h9.33v-.27a15.39,15.39,0,0,0-.16-2.49h6.46a13.68,13.68,0,0,0-.19,2.45v.31h9.9c2.12,0,3.35,0,4.61-.15a29.86,29.86,0,0,0-.15,3v3.31a25.9,25.9,0,0,0,.15,3h-3.68v2.23a25.08,25.08,0,0,0-3.58-.15H416.5c0,.69,0,.69,0,1.34h7.68a33.69,33.69,0,0,0,3.61-.12v4.69a25.14,25.14,0,0,0-3.61-.15h-7.91c-.07.73-.07.84-.15,1.42H427a32,32,0,0,0,4.41-.19V141a45.63,45.63,0,0,0-4.72-.23h-8.1a10.74,10.74,0,0,0,3.49,2.38c2.31,1,5.19,1.73,10.14,2.34a17.7,17.7,0,0,0-2.61,5.76,33.67,33.67,0,0,1-8.95-2.68,18.94,18.94,0,0,1-7.14-5.54A15.27,15.27,0,0,1,408,148.1a25.47,25.47,0,0,1-9.56,3.15,16.31,16.31,0,0,0-2.69-5.57,25.06,25.06,0,0,0,6.95-1.3,12,12,0,0,0,5.42-3.61h-7c-1.61,0-3,.08-4.65.23v-5.22a30.39,30.39,0,0,0,4.3.19h9.41c.12-.62.16-.89.23-1.42h-6.91a24.57,24.57,0,0,0-3.57.15V130a33.81,33.81,0,0,0,3.57.12h7.18c0-.73,0-.73,0-1.34Zm-1.38-6.15v1.65h8.33c0-.84,0-1,0-1.65Zm14.17,0c0,1.08,0,1.11,0,1.65h8.83v-1.65Z"/><path class="cls-9" d="M436.51,121.72c-1.23,0-1.81,0-3.31.15v-5.6a27.38,27.38,0,0,0,3.69.19h5.84a27.38,27.38,0,0,0,3.69-.19v5.6a28.23,28.23,0,0,0-3.19-.15h-.5v6.07h.77a17.6,17.6,0,0,0,2.38-.12V133c-.85-.07-1.61-.11-2.38-.11h-.77v5c1.38-.54,1.84-.73,3.69-1.5l.11,5.42a86,86,0,0,1-11.14,4.61c-.73.23-1,.34-1.53.53l-1.35-6.1a35.19,35.19,0,0,0,4.53-1.12v-6.83h-.76a20.14,20.14,0,0,0-2.65.15v-5.38a18.63,18.63,0,0,0,2.8.16H437v-6.07Zm19.12,16.44a15.18,15.18,0,0,1-.8,4.18c-1.5,4.27-4.92,7.15-10.91,9.11a15.92,15.92,0,0,0-3.11-4.92c3.38-.88,5.95-2.15,7.37-3.65a7,7,0,0,0,1.85-4.72c-.46,0-1.39,0-2.81.11,0-1.27.08-2.46.08-3.88V119.53c0-2.19,0-2.73-.08-3.84a29.33,29.33,0,0,0,3.73.15h12.4a32.68,32.68,0,0,0,3.73-.15,31.4,31.4,0,0,0-.16,3.84V134a38.68,38.68,0,0,0,.2,4.3,9.37,9.37,0,0,0-1.19,0c-.23,0-.69,0-1.42-.11l-1,0h-1.08v6.76c0,.38.19.5.81.5.42,0,.77-.12.84-.27a18.86,18.86,0,0,0,.35-4.46,16.79,16.79,0,0,0,4.76,2.08c-.34,4.49-.65,5.83-1.5,6.72s-2.15,1.15-5.41,1.15c-4.46,0-5.46-.58-5.46-3.15v-9.33Zm-2.72-15.9h8.37v-1.65h-8.37Zm0,5.6h8.37v-1.61h-8.37Zm0,5.61h8.37v-1.61h-8.37Z"/><path class="cls-9" d="M481.78,138.77a16.64,16.64,0,0,0,.08-2c0-.42,0-.42-.15-2.72l-.77-12.18c-.12-1.92-.31-4-.46-5.18h8.95c-.2,1.5-.31,3.11-.46,5.18l-.77,12.18c-.08,1.53-.12,2.42-.12,3a16.13,16.13,0,0,0,.08,1.69Zm-.65,9.87v-7.26h7.72v7.26Z"/><path class="cls-10" d="M993.44,98.38s14,1.7,18.74,1.7c4.33,0,10.77.17,20.7-7.28a24.1,24.1,0,0,0,9.84,14.23s2.75,5.3,5.9,10.84h54.64a77.86,77.86,0,0,0-.91-13.38s11.87-22.55,5-37.11a48.1,48.1,0,0,0,29.3-27.21s9.29-8.14,4.2-13.26c0,0-5.6-10-21.4-16.73,0,0-10.47-6-12.07-8.15,0,0-4.42-7-20.47,4.91,0,0-2.78,9.05,2.55,13,0,0,8.14,1.39,11.86-5.81,0,0,.67-.94-.69-1.39a5.15,5.15,0,0,0,4.63-2.79,20.23,20.23,0,0,1,10.23,11.17c3.27,8.35,2.78,9.05,4.66,10.44,0,0-14.41,4-17.68,14.9,0,0-15.59,2.54-18.13,12.32,0,0-12.32,1.84-9.78-9.78,0,0,2.12-2.54,7.75-2.24,0,0,2.85.14.79-5.27-.18-.51.48-1.12.85-2s0-1-1.55-2.3c-.51-.43.43-1.4.82-2.43.21-.6-.82-2.87-.82-2.87s2.43-1.88,2.33-2.79c-.27-2.12-5.9-3.21-6.84-5.11-.36-.76,1-2.45.79-3.24-.63-3-3.75-9.2-8-11.62-5.72-3.3-21.37-4.33-28.18,9.47-1.85,3.72-.37,12.74,1.24,16.59,1.48,3.63,8.23,13.44,8.23,13.44.34.94,2.48,14.59-9.29,18,0,0-10.72-.62-18.46,6.5,0,0-13.17-1-16.71,6.7,0,0-.94-13.51,7.59-21.71,0,0,4.94,1.21,7,0,0,0,1.54,5,5,3.08,0,0,2.42.71,2.79-1.53,0,0,3.57-.25,2.87-3.73,0,0,1.79-5-1.09-6.35,0,0,.12-4.33-3.72-4.18,0,0-7.05.51-9.39.3a12.27,12.27,0,0,0-11.62,6.51L995.59,68s-7.9,10.53-9,20.91c0,0-3.24,7.75,6.84,9.45Z"/></g></g></g></svg>