<svg xmlns="http://www.w3.org/2000/svg" width="1170" height="240.66" viewBox="0 0 1170 240.66"><defs><style>.cls-1{isolation:isolate;}.cls-2{mix-blend-mode:multiply;}.cls-3{fill:none;}.cls-4{fill:#cce8ea;}.cls-5{fill:#fadedc;fill-rule:evenodd;}.cls-6{fill:#170504;}.cls-7{fill:#c81d1d;}</style></defs><title>top_risou</title><g class="cls-1"><g id="レイヤー_2" data-name="レイヤー 2"><g id="レイヤー_1-2" data-name="レイヤー 1"><g class="cls-2"><rect class="cls-3" x="77.86" y="40.25" width="178.42" height="178.42"/><path class="cls-4" d="M205,210.19A89.19,89.19,0,1,1,247.8,91.55,89.2,89.2,0,0,1,205,210.19"/></g><g class="cls-2"><rect class="cls-3" x="62.3" width="178.42" height="178.42"/><path class="cls-4" d="M189.43,169.93A89.19,89.19,0,1,1,232.25,51.3a89.19,89.19,0,0,1-42.82,118.63"/></g><g class="cls-2"><rect class="cls-3" x="39.52" y="62.24" width="178.43" height="178.42"/><path class="cls-4" d="M166.64,232.18a89.19,89.19,0,1,1,42.82-118.64,89.18,89.18,0,0,1-42.82,118.64"/></g><g class="cls-2"><rect class="cls-3" x="42.65" y="24.71" width="178.42" height="178.41"/><path class="cls-4" d="M169.77,194.65A89.19,89.19,0,1,1,212.59,76a89.2,89.2,0,0,1-42.82,118.65"/></g><g class="cls-2"><rect class="cls-3" y="48.89" width="178.42" height="178.42"/><path class="cls-4" d="M127.12,218.83A89.19,89.19,0,1,1,169.94,100.2a89.19,89.19,0,0,1-42.82,118.63"/></g><g class="cls-2"><rect class="cls-3" x="956.06" y="36.76" width="163.8" height="163.8"/><path class="cls-5" d="M1119.69,118.8A81.78,81.78,0,1,1,1037.91,37a81.77,81.77,0,0,1,81.78,81.78"/></g><g class="cls-2"><rect class="cls-3" x="1002.86" y="10.01" width="163.8" height="163.8"/><path class="cls-5" d="M1166.52,92.36a81.78,81.78,0,1,1-81.78-81.78,81.79,81.79,0,0,1,81.78,81.78"/></g><g class="cls-2"><rect class="cls-3" x="927.64" y="48.46" width="163.8" height="163.8"/><path class="cls-5" d="M1092,130.4a81.78,81.78,0,1,1-81.78-81.78A81.79,81.79,0,0,1,1092,130.4"/></g><g class="cls-2"><rect class="cls-3" x="1006.2" y="53.47" width="163.8" height="163.8"/><path class="cls-5" d="M1170,135.47a81.78,81.78,0,1,1-81.78-81.78A81.77,81.77,0,0,1,1170,135.47"/></g><path class="cls-6" d="M183,97.57c-.85,1.35-1.75,3-2.67,4.79a18.15,18.15,0,0,1,8.68,4.55c4.47,4.21,6.12,9.89,5,17-1.71,11.24-9.36,20.69-21.47,26.49-5.4,2.57-10.75,4.13-19.6,5.57A40.32,40.32,0,0,0,149.64,144c-7.39,6.48-16.1,10.66-23.23,11.15-11.07.76-17-6.11-15.23-17.73,1.2-7.9,5.64-15.75,12.65-22.2a49.35,49.35,0,0,1,14.32-9.36c.48-3.16.62-4.09,1.32-8.09-4,.18-4,.18-10.95.56-1.39,0-2.89.11-4.58.22-1.31.09-1.69.12-3,.3l2-14.67a84.88,84.88,0,0,0,17.24.2l.56,0,1.33-.18c.28-1.22.28-1.22.89-4,.23-.93.39-2,.54-3a24,24,0,0,0,.4-3.89l16-.45a60.44,60.44,0,0,0-3,9.86c15.32-1.87,28-4.39,35.88-7l-1.62,15c-1.52.19-1.89.22-4.09.64-9.2,1.92-23.63,4-33.07,5-.23.94-.23.94-.57,2.52-.08.56-.13.84-.51,2.8a53.93,53.93,0,0,1,9.22-1.46,35.25,35.25,0,0,1,4.38-.11,23.87,23.87,0,0,0,2-5.39ZM126.2,135.13c-.52,3.44.59,5.29,3.22,5.11a10.75,10.75,0,0,0,5.42-2.11A103.83,103.83,0,0,1,136,121.4C130.38,125.28,127,130,126.2,135.13Zm23.36-7.76a81.44,81.44,0,0,0,11-14.92,12.88,12.88,0,0,0-2,0A27.25,27.25,0,0,0,151,114,114.82,114.82,0,0,0,149.56,127.37Zm18,9.53c5.82-2.87,10-8,10.8-13.06.63-4.18-.76-6.66-4.65-8.52a99.53,99.53,0,0,1-20.1,25.39C159.84,139.82,163.7,138.82,167.52,136.9Z"/><path class="cls-6" d="M245.69,67.07c-.82,1.71-.91,1.72-2.91,7.56-.8,2.26-1.12,3.11-1.91,5.28a82.24,82.24,0,0,0,13.38-3.12l-2,15c-2.29.34-2.29.34-7.06,1.22-2.57.45-7.8,1.27-10.18,1.62a241.36,241.36,0,0,1-14.31,27.65c-2.62,4.42-3.71,6.15-8.47,13.65-1.57,2.4-1.57,2.4-2.33,3.75l-14-7.23c8-9.29,16.47-22.93,22.68-36.33l-5.25.36c-2.16.15-2.16.15-4.3.2l-3.66.25,2.25-14.87a75.64,75.64,0,0,0,13.56,0c1-.07,1.5-.1,3.39-.32a34.4,34.4,0,0,1,1.43-4,69.76,69.76,0,0,0,3.09-11.16Zm28.46,75.62a35.87,35.87,0,0,0-10.56-9.31,17.47,17.47,0,0,1-5.41,9.94c-4.21,3.87-11.1,6.46-18.6,7S226,149,222.78,145.37a13.29,13.29,0,0,1-2.94-11.21c1.63-10.78,11.87-18.94,24.91-19.83a38.16,38.16,0,0,1,6.48.11c.26-3.51.43-5.27.75-7.41.58-3.81,1.22-6.8,2.23-11l15.38-.4A47.4,47.4,0,0,0,267,106.19a83.14,83.14,0,0,0-.88,10.73,51.65,51.65,0,0,1,13.19,7.29c.26.17,1.57,1.27,4.05,3.31ZM243.22,127.5c-4.41.3-7.51,2.36-7.94,5.24-.41,2.69,1.95,4.28,6,4,4.69-.32,7.44-2.53,8-6.43a9,9,0,0,0,.12-2A14.81,14.81,0,0,0,243.22,127.5ZM281.7,99a103.93,103.93,0,0,0-27.15-11.39l9.73-13.36c11.19,3.37,18.37,6.19,26.34,10.62Z"/><path class="cls-6" d="M343,84.62a169.6,169.6,0,0,1,25.07-3.09c.66,0,2.63-.18,4.58-.22L370.57,97a82.75,82.75,0,0,0-12.19.19,136.29,136.29,0,0,0-26.71,4.12l1.07-13.14c-4.58.78-5.72,1-8.65,1.33-2.92,8.85-5.65,15.84-9.75,25.69-3.58,8.34-4.45,10.42-10.3,22.69-2.18,4.57-2.18,4.57-3.18,6.84l-16.31-5.05c8-12.32,16.89-31.23,23-48.67l-1.5.1c-3,.21-5,.25-9,.34l-.94.06c-.75.06-1.13.08-2.17.24l2.57-15.17a96.11,96.11,0,0,0,14.12,0l1.78-.13c2.35-7.51,3.27-11.16,3.71-14.05,0-.28.11-.74.21-1.39l17.35.1a34.39,34.39,0,0,0-2,5.48c-.18.56-1.15,3.29-2.71,8.09a119.71,119.71,0,0,0,15.75-3.46ZM342.43,110c-4.2,4.43-6.16,7.6-6.6,10.48-.65,4.28,2.89,6.06,10.77,5.52a80.27,80.27,0,0,0,22.69-5.14L368,137c-1.91.32-2.77.47-5.06.9a124.11,124.11,0,0,1-18.52,2.74Q316.8,142.53,319.45,125c.82-5.39,3.77-10.74,10.06-18.53Z"/><path class="cls-6" d="M409.2,116.47c-6,10.22-11.93,14.92-19,15.41-10.48.71-16.32-8.7-14.17-22.88a43.15,43.15,0,0,1,12.57-24.24,46.81,46.81,0,0,1,30-13.32c10.48-.72,19.17,2.14,24,7.79,4.21,4.92,5.72,12.25,4.4,21A42.29,42.29,0,0,1,432.83,126c-6,5.09-12.58,8-23.79,10.44a29.6,29.6,0,0,0-4.71-12.25c7.43-1,12.46-2.61,17-5.07,6.5-3.59,10.85-10.33,12.1-18.61,1-6.59-.55-11.7-4.56-14.79a10.47,10.47,0,0,0-6.16-2.27C419,96.86,414.81,107,409.2,116.47ZM400.05,89c-5.81,4.69-10.26,12.13-11.31,19-.83,5.5.62,9.7,3.36,9.51,1.95-.13,4.39-3,7.63-9a120.07,120.07,0,0,0,9.44-24A20.09,20.09,0,0,0,400.05,89Z"/><path class="cls-7" d="M465.41,66.32a62.76,62.76,0,0,0-6.63.82l2.07-13.66a77.83,77.83,0,0,0,8.94-.15l12.38-.85a79.07,79.07,0,0,0,9-1.07l-2.07,13.66a52.6,52.6,0,0,0-6.41.07l-1.22.09-2.2,14.5.56,0a39.66,39.66,0,0,0,5.78-.76l-2,13c-2.13,0-3.62,0-5.68.11l-.57,0-2,13c3.3-1.52,4.29-2,7.92-3.86l-2,13.85c-8.07,4.23-14,7-27.72,13.21-.7.32-.79.33-2.21,1.07L450.32,115a75.61,75.61,0,0,0,10.51-3.75L463.59,93l-1.13.08a50.67,50.67,0,0,0-6.62.82l2-13.11a48,48,0,0,0,6.8-.09l.84-.06,2.2-14.5Zm36.93,47.25-8.63.59a91.1,91.1,0,0,0-10.47,1.08l2-13.1a77,77,0,0,0,10.26-.34l8.73-.59.7-4.65-8.35.57c-6.28.43-8.27.66-10.83,1,.68-2.63,1.29-6.07,2.26-12.49l3.38-22.31a110.21,110.21,0,0,0,1.52-13.07,126.22,126.22,0,0,0,13.16-.44L532.89,48c7.41-.5,10.14-.78,12.45-1.31-.72,2.9-1.61,7.56-2.55,13.79l-3.19,21c-1.08,7.16-1.44,10.13-1.5,13-2.79,0-3.63.06-9.17.44l-10.78.73-.71,4.65,9.95-.68a76.26,76.26,0,0,0,10.76-1.19l-2,13.29a74.9,74.9,0,0,0-10.44.26l-10.13.69-.82,5.39,12.57-.86A78.22,78.22,0,0,0,538.09,116L536,129.67a78.9,78.9,0,0,0-11.73.25l-36.87,2.52a90.12,90.12,0,0,0-12.09,1.38l2.07-13.67a66,66,0,0,0,10-.22l14.17-1Zm-.41-34.65-.87,5.76,5.72-.39.87-5.76Zm2.48-16.37L503.58,68l5.72-.39.83-5.49ZM520,83.38l5.72-.39.87-5.76-5.72.39Zm2.52-16.64,5.72-.39.83-5.48-5.72.39Z"/><path class="cls-7" d="M539.1,120.35c6-7.22,8.34-11.52,12.14-21.9l11.27,4.66c-4.57,11.81-6.19,15.15-12.7,25ZM587.45,93.5c.08-.47.08-.47.59-2.62l.46-2.42,2.15-14.23a62,62,0,0,0-7.74,12.49,32.54,32.54,0,0,1-7.16-7.88c-.41,3.34-.74,6.12-1,7.52l-.45,3a40.46,40.46,0,0,0-.63,6.58l-14.63,1a43.12,43.12,0,0,0,1.44-6.45l.42-2.79c.23-1.49.74-4.28,1.33-6.9a80.36,80.36,0,0,1-12.45,13.55,49.9,49.9,0,0,0-5.73-11.85c7.81-4.94,13.78-10.69,17.86-17.41l-2.81.19a95.94,95.94,0,0,0-9.81,1l2-13.57a67.42,67.42,0,0,0,10-.22l5-.34.41-2.7a45.94,45.94,0,0,0,.52-6.47L582,42a43.14,43.14,0,0,0-1.54,7.1l-.33,2.14,3.47-.24a60.69,60.69,0,0,0,8.52-1l-2.06,13.57a77.83,77.83,0,0,0-8.1.19l-2.26.15c2.16,4.18,5.86,7.33,11.08,9.64l3.32-21.94A70.1,70.1,0,0,0,595,43.4a69.59,69.59,0,0,0,8.48-.22L627,41.58a70.62,70.62,0,0,0,8.4-.95c-.7,2.81-1.14,5.14-1.61,8.21l-5.18,34.21a80.44,80.44,0,0,0-1,8.81c-1.58,0-2.24.06-3.08.11a32.49,32.49,0,0,1-4.29.11L596,93.74a75.92,75.92,0,0,1,5.9,9.44l-3.36,2A40.73,40.73,0,0,0,609.64,107a68.14,68.14,0,0,0-3.53-7.31l13.14-6.51a108.64,108.64,0,0,1,9.69,21.24l-14,8.22a109.09,109.09,0,0,0-4.59-13.85c-1.81,8.31-3.5,12.1-6.56,14.52s-8,3.4-20.23,4.23c-8.26.57-12,.64-14.7.18-5.71-.9-7.26-2.91-6.36-8.86l1.72-11.34a54.16,54.16,0,0,0,.9-9l15-1a67.77,67.77,0,0,0-1.75,9l-.88,5.86c-.37,2.42.62,2.63,9,2,8.82-.6,9.23-.9,10.67-8.54l-8.25,4.79a58.11,58.11,0,0,0-7.6-14.11Zm15.33-11.08,12.57-.86.53-3.53-12.57.86Zm1.87-12.36,12.57-.86.55-3.63-12.57.86Zm1.89-12.46,12.57-.86.55-3.63L607.09,54Z"/><path class="cls-7" d="M674.64,95.27c-7.24,12.27-14.31,17.9-22.85,18.49-12.57.86-19.59-10.44-17-27.45a51.78,51.78,0,0,1,15.09-29.09,56.19,56.19,0,0,1,36-16c12.57-.86,23,2.57,28.85,9.35,5,5.91,6.87,14.71,5.28,25.21a50.7,50.7,0,0,1-17,30.88c-7.24,6.11-15.1,9.59-28.54,12.53-1.24-6.54-2.51-9.76-5.66-14.7,8.91-1.25,15-3.14,20.41-6.09,7.81-4.3,13-12.39,14.53-22.33,1.2-7.91-.66-14-5.48-17.75a12.58,12.58,0,0,0-7.39-2.72C686.38,71.74,681.37,84,674.64,95.27Zm-11-32.92c-7,5.62-12.32,14.55-13.57,22.82-1,6.6.74,11.63,4,11.41,2.35-.16,5.28-3.58,9.17-10.84A144.22,144.22,0,0,0,674.61,56.9,24.06,24.06,0,0,0,663.66,62.35Z"/><path class="cls-7" d="M757.92,48.09c.83-3.65,1.84-9.05,2.27-11.94a26,26,0,0,0,.43-4.62l17.56-.75c-.79,2.18-.83,2.46-2.73,11.32-.48,2.52-.48,2.52-1,4.76l20.44-1.39A15.51,15.51,0,0,0,801.33,44l6.36,5.82c-1.31,1.93-1.61,2.68-2.35,7-3.67,19.94-7.43,35.56-10.24,41.82-4,8.83-9,12.11-19.39,12.82a107.79,107.79,0,0,1-12.18.1c.75-7.41.56-10.43-.71-16.14a49.82,49.82,0,0,0,11.91,1c4.51-.3,5.86-1.87,8.3-10a232.25,232.25,0,0,0,5.71-26.06l-17.91,1.23A90.12,90.12,0,0,1,768,71c-7,19.06-17.72,31.75-38.64,45.51-3.23-6.31-5.56-9.28-10.06-13.3C732.77,95.8,741,88.71,747.11,79c3.06-4.9,4.6-8.32,7.1-16.22l-11.73.8A100.52,100.52,0,0,0,729.74,65l2.31-15.89A71.86,71.86,0,0,0,745,49Z"/><path class="cls-7" d="M815.81,52.69a98.16,98.16,0,0,0,15-.29l47.09-3.22c4.5-.31,5.17-.44,7.66-1.53L891.68,55c-1.38,1.75-1.62,2.13-3.51,6-7,14.19-15.31,25.06-25.66,33.31-8,6.44-15.33,10.52-28.93,16.33-1.61-5.32-3.66-8.95-8.2-14.53,11.7-3.65,18.9-7.09,26.42-12.57A55.3,55.3,0,0,0,869.06,64l-40.62,2.78a148.72,148.72,0,0,0-15,1.58Zm11.31-23.78a84.52,84.52,0,0,0,13.67-.19l29.93-2c7.41-.51,11.47-1,14.84-1.75l-2.37,15.62c-3.52,0-7.9.08-14.38.52l-30.39,2.08a131,131,0,0,0-13.67,1.39Z"/><path class="cls-7" d="M974.62,36.41c-1.41,1.94-1.54,2.13-3.6,6.59-14.36,29.78-33.49,48.84-63.23,63.11a37.8,37.8,0,0,0-8.86-13.19c14-5.47,26.08-12.83,34.69-21.23a75.16,75.16,0,0,0-15.7-10.34L929.54,49a97.62,97.62,0,0,1,15.66,9.42,92.16,92.16,0,0,0,10.64-17.56l-26,2c-6.06,8.79-15.46,18.72-25.2,26.66a34.1,34.1,0,0,0-11.92-9.59c15.88-11.66,28.6-27,34.81-41.66l16.3,2.11c-1.2,1.83-2.91,4.52-5.26,8.36L960.35,27l1.6-.11a45.58,45.58,0,0,0-3-7.52l9.86-3.16a48.55,48.55,0,0,1,4.53,13.58L970,30.93Zm8-24.37a53,53,0,0,1,4.67,13.29l-9.52,3.41c-1.54-6.42-2.61-9.75-4.52-13.67Z"/><path class="cls-6" d="M978.94,66.43c3.57-2.62,8.57-7.56,16.76-16.71,6-6.7,6.42-7.11,8.46-8.86a16.12,16.12,0,0,1,9.21-4.08,10,10,0,0,1,8.2,3c1.62,1.57,1.62,1.57,6.6,8.51A158.44,158.44,0,0,0,1046.55,69a25.59,25.59,0,0,0,5.89,4.5l-9.18,15.65c-.86-.93-1.27-1.29-2.42-2.44-9.1-8.81-14.22-14.9-25.94-31-2.12-2.85-2.66-3.35-3.84-3.27s-1.34.17-7.74,7.74c-3.67,4.31-9.44,10.69-12.9,14.14l-3.21,3.29-1.66,1.8Z"/><path class="cls-6" d="M222.2,172.79a31.26,31.26,0,0,0-3.42.43l1.07-7.05a39.08,39.08,0,0,0,4.6-.08l6.39-.43a41.34,41.34,0,0,0,4.63-.56l-1.07,7.05a26.07,26.07,0,0,0-3.31,0l-.63,0-1.13,7.48.29,0a20.19,20.19,0,0,0,3-.4l-1,6.71c-1.09,0-1.86,0-2.92.06l-.29,0-1,6.71c1.7-.78,2.21-1,4.08-2l-1,7.13c-4.16,2.18-7.2,3.63-14.29,6.81-.36.17-.41.17-1.14.56l-.55-7.41a39,39,0,0,0,5.41-1.94l1.43-9.39-.58,0a24.4,24.4,0,0,0-3.42.42l1-6.76a23.35,23.35,0,0,0,3.5-.05l.43,0,1.14-7.47Zm19,24.36-4.45.31a43.81,43.81,0,0,0-5.4.56l1-6.76a40.13,40.13,0,0,0,5.3-.17l4.49-.31.37-2.4-4.31.3c-3.24.22-4.26.34-5.58.52.35-1.35.66-3.13,1.17-6.43l1.74-11.51a57.32,57.32,0,0,0,.78-6.74,63.33,63.33,0,0,0,6.78-.23l13.84-.94a44,44,0,0,0,6.42-.68c-.37,1.5-.83,3.9-1.32,7.11l-1.64,10.84a52.62,52.62,0,0,0-.78,6.69c-1.43,0-1.87,0-4.72.23l-5.56.38-.37,2.4,5.13-.36a39.07,39.07,0,0,0,5.55-.61l-1,6.85a39,39,0,0,0-5.38.13l-5.22.36-.42,2.78,6.48-.44a41.46,41.46,0,0,0,5.55-.62l-1.07,7.05a40.4,40.4,0,0,0-6.05.12l-19,1.3a47.29,47.29,0,0,0-6.23.71l1.07-7a35,35,0,0,0,5.13-.11l7.31-.5ZM241,179.29l-.45,3,2.95-.2.45-3Zm1.27-8.44-.42,2.83,3-.2.42-2.83Zm8,10.74,3-.2.45-3-2.95.2Zm1.3-8.58,2.95-.2L255,170l-2.95.2Z"/><path class="cls-6" d="M258.25,200.78c3.1-3.72,4.3-5.93,6.26-11.29l5.81,2.41a51.91,51.91,0,0,1-6.55,12.87Zm24.93-13.84a10.66,10.66,0,0,1,.3-1.35l.23-1.25,1.12-7.33a31.94,31.94,0,0,0-4,6.44,16.92,16.92,0,0,1-3.69-4.07c-.21,1.72-.38,3.16-.49,3.88l-.23,1.53a20.52,20.52,0,0,0-.32,3.39l-7.55.52a21.37,21.37,0,0,0,.74-3.33l.22-1.44c.12-.76.38-2.2.68-3.55a40.78,40.78,0,0,1-6.41,7,25.51,25.51,0,0,0-3-6.1,28,28,0,0,0,9.21-9l-1.45.1a48.72,48.72,0,0,0-5.05.53l1.05-7a33.71,33.71,0,0,0,5.14-.11l2.57-.17.21-1.39a23.81,23.81,0,0,0,.26-3.34l7.6-.52a21.53,21.53,0,0,0-.8,3.66l-.16,1.1,1.79-.12a31.32,31.32,0,0,0,4.39-.54l-1.06,7a41.46,41.46,0,0,0-4.18.09l-1.16.08a11.07,11.07,0,0,0,5.7,5l1.72-11.31a36.25,36.25,0,0,0,.44-4.2,35.06,35.06,0,0,0,4.38-.11l12.14-.83a35.09,35.09,0,0,0,4.33-.49,40.61,40.61,0,0,0-.83,4.23l-2.68,17.64a41.64,41.64,0,0,0-.49,4.54c-.82,0-1.16,0-1.59.06a16.36,16.36,0,0,1-2.21.06l-12.53.86a37.63,37.63,0,0,1,3,4.86l-1.73,1a21.2,21.2,0,0,0,5.75.94,36.07,36.07,0,0,0-1.83-3.77l6.78-3.35a56.63,56.63,0,0,1,5,10.94l-7.2,4.24a57.41,57.41,0,0,0-2.37-7.14c-.93,4.29-1.8,6.24-3.38,7.49s-4.14,1.75-10.43,2.18c-4.26.29-6.18.33-7.58.09-2.94-.46-3.74-1.5-3.28-4.56l.89-5.85a26.85,26.85,0,0,0,.46-4.63l7.74-.53a35.11,35.11,0,0,0-.9,4.66l-.46,3c-.19,1.25.33,1.35,4.63,1.06,4.55-.31,4.76-.47,5.5-4.41l-4.25,2.47a30.33,30.33,0,0,0-3.92-7.27Zm7.9-5.71,6.48-.45.28-1.82-6.49.45Zm1-6.38,6.49-.44.28-1.87-6.48.44Zm1-6.42,6.48-.44.28-1.87-6.48.44Z"/><path class="cls-6" d="M326.19,188c-3.74,6.33-7.39,9.24-11.79,9.54-6.48.44-10.09-5.39-8.77-14.16a26.85,26.85,0,0,1,7.78-15A29.05,29.05,0,0,1,332,160.12c6.48-.44,11.86,1.33,14.87,4.82,2.6,3.05,3.54,7.59,2.72,13a26.12,26.12,0,0,1-8.78,15.92c-3.73,3.15-7.78,4.95-14.71,6.46a18.39,18.39,0,0,0-2.92-7.58,29.62,29.62,0,0,0,10.52-3.13c4-2.22,6.72-6.39,7.49-11.52.62-4.07-.34-7.24-2.82-9.15a6.52,6.52,0,0,0-3.81-1.4A80.83,80.83,0,0,1,326.19,188Zm-5.66-17a19.87,19.87,0,0,0-7,11.77c-.52,3.4.38,6,2.07,5.88,1.21-.08,2.72-1.85,4.73-5.59a74.59,74.59,0,0,0,5.84-14.86A12.33,12.33,0,0,0,320.53,171Z"/><path class="cls-6" d="M367.18,163.79c.43-1.88.95-4.67,1.17-6.15a13.89,13.89,0,0,0,.22-2.39l9.06-.38c-.41,1.12-.43,1.26-1.41,5.84-.25,1.29-.25,1.29-.52,2.45l10.54-.72a7.83,7.83,0,0,0,3.32-.75l3.28,3c-.67,1-.83,1.39-1.21,3.6-1.89,10.28-3.83,18.33-5.28,21.56-2.08,4.55-4.63,6.25-10,6.61a56,56,0,0,1-6.28,0,21.55,21.55,0,0,0-.36-8.32,25.78,25.78,0,0,0,6.14.53c2.32-.16,3-1,4.28-5.18a118.45,118.45,0,0,0,2.94-13.44l-9.24.64a44,44,0,0,1-1.45,4.84c-3.59,9.82-9.13,16.37-19.92,23.46a20.06,20.06,0,0,0-5.19-6.85c7-3.8,11.18-7.45,14.34-12.46a31.24,31.24,0,0,0,3.66-8.36l-6,.41a53.1,53.1,0,0,0-6.57.73l1.19-8.19a37.67,37.67,0,0,0,6.67-.07Z"/><path class="cls-6" d="M395.08,166.3a53.09,53.09,0,0,0,7.73-.15l24.28-1.66a8.91,8.91,0,0,0,4-.79l3.16,3.76a12.66,12.66,0,0,0-1.81,3.12c-3.6,7.31-7.89,12.92-13.23,17.17-4.14,3.32-7.9,5.43-14.91,8.42a19.84,19.84,0,0,0-4.23-7.49c6-1.88,9.74-3.65,13.62-6.48a28.6,28.6,0,0,0,8.9-10.1l-20.94,1.43c-3.82.27-4.65.37-7.74.82ZM400.91,154a43.88,43.88,0,0,0,7-.1l15.43-1.06A49.61,49.61,0,0,0,431,152L429.82,160c-1.81,0-4.07,0-7.41.27l-15.67,1.07a65.45,65.45,0,0,0-7.05.72Z"/><path class="cls-6" d="M475,158a14,14,0,0,0-1.86,3.4c-7.4,15.35-17.26,25.18-32.59,32.53a19.61,19.61,0,0,0-4.57-6.8,53.67,53.67,0,0,0,17.88-10.95,39.5,39.5,0,0,0-8.09-5.33l6-6.38a49.3,49.3,0,0,1,8.07,4.86,47.73,47.73,0,0,0,5.49-9.06l-13.41,1a71.09,71.09,0,0,1-13,13.74,17.52,17.52,0,0,0-6.14-4.94c8.18-6,14.74-13.91,17.95-21.48l8.4,1.09c-.62.94-1.5,2.33-2.71,4.31l11.23-.86.83-.06a25.06,25.06,0,0,0-1.57-3.88l5.08-1.62a24.86,24.86,0,0,1,2.34,7l-1.72.59Zm4.1-12.57a27.33,27.33,0,0,1,2.41,6.86l-4.91,1.75a30.59,30.59,0,0,0-2.33-7.05Z"/><path class="cls-6" d="M479.12,152.4c.81,0,1.44-.06,1.83-.08,1.26-.09,3-.3,8.34-1,7-.91,11.75-1.47,21-2.43l5-.53,2.05-.24c1.65-.16,1.95-.22,2.19-.24a4.21,4.21,0,0,0,1.14-.27l-.88,8.65a7.55,7.55,0,0,0-1.34,0,27.61,27.61,0,0,0-11.58,4.12c-5.28,3.25-8.74,7.47-9.34,11.4a4.75,4.75,0,0,0,3.16,5.67c1.79.82,5.93,1.3,9,1.09.39,0,.72-.05,1.46-.15l-2.49,9.19a11.43,11.43,0,0,0-1.76-.12c-5.44-.1-8.94-.67-11.83-1.85-5.3-2.24-7.59-6.45-6.67-12.54A20.62,20.62,0,0,1,494.14,162a27.1,27.1,0,0,1,5.35-4.4l-2.3.39c-1.08.17-2.8.43-11.95,1.77a59.33,59.33,0,0,0-7,1.38ZM511.75,161a22.5,22.5,0,0,1,3.64,6.63l-5,2.43a22.25,22.25,0,0,0-3.62-6.78Zm6.91-3.22a24.32,24.32,0,0,1,3.71,6.43l-4.81,2.37A25.49,25.49,0,0,0,514,160Z"/><path class="cls-6" d="M549.17,142.72a21.38,21.38,0,0,0-.88,3.91,45.25,45.25,0,0,0-.16,14,23.56,23.56,0,0,0,7.07,12.75,23.92,23.92,0,0,0,7.63,4.89,38,38,0,0,0-6.08,7.91c-4.78-2.85-7.78-5.49-10.3-9.07a27.19,27.19,0,0,1-4.72-11.49c-3,6.42-5.66,10.21-10,14.35a57.88,57.88,0,0,1-11.6,8.66,17,17,0,0,0-3.86-6.71c7.69-4,12.24-7.85,16-13.23,3.85-5.53,6.48-12.78,7.82-21.64a21.64,21.64,0,0,0,.33-3.72Z"/><path class="cls-6" d="M575.52,155.49a59.3,59.3,0,0,1-8.13,10.37,18.76,18.76,0,0,0-3.89-5.9c5.1-4.62,9.87-12.44,11.16-18.36l7.27,1.26c-.83,1.67-.83,1.67-1.41,3-.39,1-.74,1.71-1.24,2.79l5.81-.4.33-2.21a54.31,54.31,0,0,0,.69-6.4l8.26-.56a47.6,47.6,0,0,0-1.26,6.44l-.33,2.2,8.41-.57c2.86-.2,5.24-.45,7.59-.8l-1.1,7.23c-2.38,0-4.64,0-7.25.21l-8.66.6-1.09,7.19,7.11-.49c2.71-.19,4.9-.43,6.81-.75l-1.09,7.24c-2.15,0-4.12,0-6.68.17l-7.16.49L588.49,176l10-.68a77.25,77.25,0,0,0,7.74-.86l-1.13,7.43c-2.72-.05-4.73,0-7.39.17L569.47,184c-2.76.19-5.19.45-8,.88l1.13-7.43c2.43.07,4.83,0,7.63-.19l10.6-.72,1.18-7.82-6,.41c-2.56.18-4.56.41-6.67.74l1.09-7.19a57.88,57.88,0,0,0,6.45-.2l6.14-.42,1.09-7.19Z"/><path class="cls-6" d="M612.8,142.5c2,.34,4.88.33,9.91,0l1.36-.09a21.14,21.14,0,0,0,2.3-5.42l8.75.06a18.75,18.75,0,0,0-1.36,2.32c-.84,1.44-1.24,2.22-1.3,2.32.49-.08.49-.08,3-.39a78,78,0,0,0,12.46-2.37l-.86,7.6-4.42.73c-3.48.57-9.58,1.32-14.54,1.8a35.58,35.58,0,0,1-2.85,3.7,16.7,16.7,0,0,1,6.36-1.85c4-.28,6.2,1.09,6.69,4.14l3.56-1.38c.15-.06,1.52-.58,3.15-1.16a24.75,24.75,0,0,0,4.08-1.71l1.8,7.37a96.18,96.18,0,0,0-12.82,4.11c-.15,1.29-.16,1.34-.48,3.44a32.18,32.18,0,0,0-.43,4.11l-7.92.78a40.38,40.38,0,0,0,1-5.1l-.46.23a14.35,14.35,0,0,0-3.69,2.24,4.29,4.29,0,0,0-1.63,2.53c-.27,1.82,1.41,2.42,6.1,2.1a51.83,51.83,0,0,0,15.84-3.46l-.78,8.59a36,36,0,0,0-4.37.73A103.24,103.24,0,0,1,629.48,180c-5.47.37-8.8-.07-11.18-1.42-2.21-1.23-3.22-3.67-2.79-6.55a11.17,11.17,0,0,1,3.29-6.2,28.85,28.85,0,0,1,7.74-5.6c1.25-.66,1.76-.88,3.82-1.88a1.53,1.53,0,0,0-1.75-1.06c-2.47.17-6.06,2.07-9.89,5.23a41.86,41.86,0,0,0-5.37,5.15L608.12,162A45.64,45.64,0,0,0,614,156.7c1.26-1.37,3.62-4.28,4.52-5.48l1.15-1.6-1.55.11c-2.08.14-2.08.14-4.15.24-.67,0-1,0-1.69.06l-.72.05Z"/><path class="cls-6" d="M696.49,139.82a8.18,8.18,0,0,0-1.88,2.6,44.46,44.46,0,0,1-15.9,16.78,18.13,18.13,0,0,0-4.62-4.85,32.41,32.41,0,0,1-4.57,11.84,33,33,0,0,1-8.77,8.61,58.17,58.17,0,0,1-7.38,4.16c-1.36-3.65-2-4.75-4.34-7.39,5.57-2,9.38-4.39,12.08-7.42s4.11-6.59,5.08-13a12.93,12.93,0,0,0,.21-3.29l9.09-.62a27.81,27.81,0,0,0-.86,4.14c0,.05-.23,1.2-.31,1.68a8.59,8.59,0,0,1,1.2-.65,25,25,0,0,0,9.36-8.71l-23.07,1.58a67.82,67.82,0,0,0-7.74.86l1.27-8.39a44.77,44.77,0,0,0,7.77-.1L688.46,136c2.7-.18,3-.26,4.24-.81Z"/><path class="cls-6" d="M718.61,132.15a7.86,7.86,0,0,0-.76,1.23c-.12.15-.26.45-.45.74-.27.5-.46.84-.59,1-.84,1.43-.84,1.43-1.28,2.13l12.16-1a9.11,9.11,0,0,0,3.66-.78l3.42,3.66a15.45,15.45,0,0,0-1.92,3.5c-3.67,8.12-7.9,14.58-12.89,19.66-5.15,5.29-11.19,9.45-19.67,13.58a16.2,16.2,0,0,0-4.7-6.89,56.46,56.46,0,0,0,17.64-10.88A45.26,45.26,0,0,0,723.37,144l-12.89,1a62.27,62.27,0,0,1-12.8,12.78,17.34,17.34,0,0,0-6-5.28A51.85,51.85,0,0,0,706.76,137a22.43,22.43,0,0,0,3-5.89Z"/><path class="cls-6" d="M759.94,150c-1.24,5.64-2.64,8.86-5.36,12.61-3.31,4.49-7.35,7.47-14.43,10.61a16.34,16.34,0,0,0-4.51-7.18c9.24-3.2,13.71-7.72,15.26-15.42l-9.92.68a65.78,65.78,0,0,0-7.34.74l1.22-8.05a41.18,41.18,0,0,0,7.39-.13L769.19,142a51.2,51.2,0,0,0,7.74-.86l-1.21,8a65.12,65.12,0,0,0-7.51.28Zm-18.28-18.67a39.86,39.86,0,0,0,7.44-.13L766,130a44.25,44.25,0,0,0,7.79-.92l-1.22,8.1a62.7,62.7,0,0,0-7.56.28l-17.22,1.18a66.11,66.11,0,0,0-7.39.74Z"/><path class="cls-6" d="M813.51,136.9a18.34,18.34,0,0,0-2,1.79,73.91,73.91,0,0,1-10.13,8.43l-2.24,14.76a48.25,48.25,0,0,0-.71,6.6l-8.61.58a46.11,46.11,0,0,0,1.34-6.63l1.52-10c-4.48,2.73-6.13,3.5-13.48,6.52a17.89,17.89,0,0,0-3.08-6.53,78.8,78.8,0,0,0,21-10.44c4.55-3.21,8.43-6.65,10.3-9.2Z"/><path class="cls-6" d="M853.8,131.87c-.26.49-.34.69-.49,1-.07.15-.23.59-.53,1.27-6.37,15.52-16.12,25.58-32.43,33.38a19,19,0,0,0-4.92-7.63c13.52-4.91,23.67-14.09,27.9-25.29l-20.79,1.42a49.66,49.66,0,0,0-7.4.79l1.3-8.58a41.59,41.59,0,0,0,7.44-.13l20.8-1.42a34.79,34.79,0,0,0,3.74-.4l-.07-.14-.15-.32a14.66,14.66,0,0,0-1.5-3l4.6-1.59a22.07,22.07,0,0,1,3,7.39l-2.14.81Zm4.32-12.39a16.55,16.55,0,0,1,2.68,7l-4.23,1.67a22.42,22.42,0,0,0-2.65-7.13Z"/><path class="cls-6" d="M873,122.45c-2.71,5.59-5.52,14.65-7.18,23.4l3.53,1a53.64,53.64,0,0,0-3.92,13.55,13.4,13.4,0,0,0-.21,2.34l-8.38,1a19.37,19.37,0,0,0,.15-2.52,100.37,100.37,0,0,1,1-15.06,115.19,115.19,0,0,1,4.64-18.58,43.5,43.5,0,0,0,1.5-5.18Zm10.17,20c-2.65,3-4,5.11-4.24,6.84-.33,2.2,1.66,3.25,5.77,3a40.48,40.48,0,0,0,12.34-2.79l-.8,8.45c-1.28.23-1.28.23-4.2.86a62.64,62.64,0,0,1-8.46,1.19c-4.49.31-7.4-.11-9.7-1.33a6.91,6.91,0,0,1-3.3-7.31,18.43,18.43,0,0,1,3.46-7.64c.84-1.15,1.2-1.65,2.79-3.6Zm-6.85-16.65a39.25,39.25,0,0,0,8.5.13,68.57,68.57,0,0,0,14.59-2.18l-.9,8.17c-.44,0-.93.11-3.63.58-3.39.56-6.95,1-10.29,1.22a81.61,81.61,0,0,1-8.26.19c-.38,0-.72,0-1.38,0Z"/><path class="cls-6" d="M910.66,159,912,150l9.72-.66-1.37,9.06Zm2.68-12.37a22.44,22.44,0,0,0,.48-2.5c.08-.53.08-.53.32-3.39l1.34-15.13c.21-2.39.36-5,.4-6.43l11.26-.77c-.52,1.89-1,3.91-1.56,6.51l-3.27,15.26c-.38,1.92-.6,3-.71,3.8a20.63,20.63,0,0,0-.23,2.1Z"/></g></g></g></svg>