<svg xmlns="http://www.w3.org/2000/svg" width="343.07" height="299.24" viewBox="0 0 343.07 299.24"><defs><style>.cls-1{fill:#f58466;}.cls-2{fill:#a6ce39;}.cls-3{fill:#f6ad1b;}.cls-4{fill:#231815;}.cls-5{fill:#666;}.cls-6{fill:#7dccf3;}.cls-7{fill:#fff;}</style></defs><title>concept</title><g id="レイヤー_2" data-name="レイヤー 2"><g id="レイヤー_1-2" data-name="レイヤー 1"><path class="cls-1" d="M188.26,101.67a53.36,53.36,0,1,1,25.61-71,53.36,53.36,0,0,1-25.61,71"/><path class="cls-2" d="M81.51,257.25a53.36,53.36,0,1,1,25.61-71,53.37,53.37,0,0,1-25.61,71"/><path class="cls-3" d="M312.38,258.94A53.36,53.36,0,1,1,338,188a53.38,53.38,0,0,1-25.61,71"/><path class="cls-4" d="M102.58,70.27a2.71,2.71,0,0,0,1.31-.18l1.22,1.23a2.1,2.1,0,0,0-.27,1,13.65,13.65,0,0,1-1.24,4.45,9.92,9.92,0,0,1-4.11,4.31,17.44,17.44,0,0,1-3.2,1.39,9,9,0,0,0-1.79-2.71,10.32,10.32,0,0,0,5.12-2.37,7,7,0,0,0,2.14-4.59H94.83V74.2a15,15,0,0,0,.07,1.69h-3a13.23,13.23,0,0,0,.1-1.77V71.9c0-.66,0-1.1-.08-1.73a16,16,0,0,0,2,.1h2.87v-1a11.2,11.2,0,0,0-.1-1.47h3.07a9.14,9.14,0,0,0-.06,1.46v1Z"/><path class="cls-4" d="M114.9,78.08H118a15.47,15.47,0,0,0,2.64-.13v2.82a23.23,23.23,0,0,0-2.59-.1h-9a25.34,25.34,0,0,0-2.57.08V78a17.89,17.89,0,0,0,2.62.13H112V72h-1.76a25,25,0,0,0-2.59.08V69.32a16.17,16.17,0,0,0,2.64.13h6.52a17.51,17.51,0,0,0,2.64-.13v2.77a25.66,25.66,0,0,0-2.6-.08H114.9Z"/><path class="cls-4" d="M135.2,69.58a6,6,0,0,0-.62.59,26.29,26.29,0,0,1-3.7,3.22v6.16a22.65,22.65,0,0,0,.1,2.59h-3.11a21.43,21.43,0,0,0,.1-2.57V75.15a27.43,27.43,0,0,1-5.24,2.37,8.7,8.7,0,0,0-1.53-2.58,23.37,23.37,0,0,0,8.5-4.16,11.76,11.76,0,0,0,2.91-2.93Z"/><path class="cls-4" d="M138.5,82.06a24.31,24.31,0,0,0,.09-2.45V70.3a14.62,14.62,0,0,0-.11-2.32h3.09a21.65,21.65,0,0,0-.08,2.34v2.19a33.91,33.91,0,0,1,7.28,3.33l-1.52,2.72a30.33,30.33,0,0,0-5-2.79,3.32,3.32,0,0,1-.72-.32v4.16a21.57,21.57,0,0,0,.1,2.45Z"/><path class="cls-4" d="M152.29,82.06a24.31,24.31,0,0,0,.09-2.45V70.3a14.62,14.62,0,0,0-.11-2.32h3.09a21.65,21.65,0,0,0-.08,2.34v2.19a33.91,33.91,0,0,1,7.28,3.33L161,78.56a30.33,30.33,0,0,0-5-2.79,3.32,3.32,0,0,1-.72-.32v4.16a21.57,21.57,0,0,0,.1,2.45Z"/><path class="cls-4" d="M168.71,68.32a14,14,0,0,0-.12,2l-.09,8.49a10,10,0,0,0,7.09-5.45,8.57,8.57,0,0,0,2.16,2.31c-2.32,3.59-5.28,5.44-10,6.26a2.36,2.36,0,0,0-1,.29l-1.42-1.67a2.58,2.58,0,0,0,.19-1.31l.07-8.9V70a13.27,13.27,0,0,0-.1-1.74Z"/><path class="cls-4" d="M179.15,73.47a23.16,23.16,0,0,0,3.28.14h7.65a27,27,0,0,0,3.29-.14v3.09a30.69,30.69,0,0,0-3.3-.1h-7.62c-1.79,0-2.32,0-3.3.1Z"/><path class="cls-4" d="M195.1,77.53a16.16,16.16,0,0,0,2.68.13h8.27a15.9,15.9,0,0,0,2.83-.13v3a24.46,24.46,0,0,0-2.78-.08h-8.37a23.34,23.34,0,0,0-2.63.08Zm1.62-8a16.4,16.4,0,0,0,2.5.11h5.42a20.69,20.69,0,0,0,2.66-.11v2.93c-.91-.07-1.33-.08-2.62-.08h-5.49c-1.19,0-1.91,0-2.47.08Z"/><path class="cls-4" d="M212.53,68.73a23.5,23.5,0,0,1,4.4,3.14L215,74.36A17.06,17.06,0,0,0,210.69,71Zm-1.68,9.94a16.32,16.32,0,0,0,4.82-1.15,9.67,9.67,0,0,0,4.69-4,14.84,14.84,0,0,0,1.56-3.14,10.6,10.6,0,0,0,2.36,2.14,14,14,0,0,1-5.22,6.49,17.41,17.41,0,0,1-6.23,2.4c-.62.14-.72.16-1.15.28Z"/><path class="cls-4" d="M238.55,71.53a7.62,7.62,0,0,0-.42,1.09c-1.52,4.8-4.22,7.78-9,9.94a8.18,8.18,0,0,0-1.93-2.45c4.23-1.52,6.84-4.06,8-7.79l-4.25,0a15.52,15.52,0,0,1-3.64,4A8.17,8.17,0,0,0,225,74.46a12.79,12.79,0,0,0,4.26-4.88,6.34,6.34,0,0,0,.69-1.92l3,.54c-.08.16-.1.18-.19.39a2.42,2.42,0,0,0-.11.25l-.15.34c-.11.24-.17.4-.19.42a2,2,0,0,1-.13.27l3.64,0h.35a9.85,9.85,0,0,0-.91-1.54l1.58-.51a9.3,9.3,0,0,1,1.33,2.45l-.5.17Zm.59-4.42a10.7,10.7,0,0,1,1.33,2.39l-1.52.56a12.22,12.22,0,0,0-1.31-2.45Z"/><path class="cls-4" d="M34.43,228.34A14.1,14.1,0,0,0,35.82,231a13.07,13.07,0,0,0,2.8,3.07,12.24,12.24,0,0,0-1.52,2.53,14,14,0,0,1-1.81-2.05,14.29,14.29,0,0,1-1.63-2.9c0,.4,0,.82,0,1.43v3.28a14.33,14.33,0,0,0,.1,1.92H31.18c.06-.58.11-1.28.11-1.91v-2.91c0-.46,0-1.07.05-1.55a14.5,14.5,0,0,1-3.17,4.66,10.44,10.44,0,0,0-1.06-1.85v1.7c0,.67,0,1.2.08,1.84H24.58a15.84,15.84,0,0,0,.1-1.84v-3.73c0-.24,0-.8,0-1.68a10.29,10.29,0,0,1-.89,1.14,16.88,16.88,0,0,0-.79-3,12.64,12.64,0,0,0,3-6.15l2.5.72c-.14.37-.14.37-.38,1.08-.13.35-.28.72-.44,1.15.55.05,1.14.06,1.72.06h1.85v-1.26a12.91,12.91,0,0,0-.09-1.52H33.8a11.83,11.83,0,0,0-.08,1.52V226h2.55c.69,0,1.39,0,2-.09v2.54c-.56-.06-1.28-.09-1.89-.09Zm-5,0c-.5,0-1.24,0-1.86.08V226.3c-.22.53-.27.63-.5,1.14v6.26a14.74,14.74,0,0,0,3.51-5.36Z"/><path class="cls-4" d="M39.14,236.5a8.58,8.58,0,0,0,1.51-3.43l2.22.82A14.15,14.15,0,0,1,41.21,238Zm3.61-3.73c-.85,0-1.3,0-1.75,0a18.88,18.88,0,0,0,.06-1.91v-4.67c0-.9,0-1.41-.06-1.92.51.05,1,.06,2,.06h1.89a8.28,8.28,0,0,0,.48-1.37l2.75.17-.3.66c-.16.35-.16.35-.26.54h3c1,0,1.5,0,2-.06a18.24,18.24,0,0,0-.07,1.92v4.67a17.41,17.41,0,0,0,.07,1.91c-.45,0-.93,0-1.75,0H48.33c.32.35.74.88,1.25,1.55l-.72.4a8.35,8.35,0,0,0,2.15.56c-.18,1.38-.29,1.81-.6,2.13-.48.48-1.49.67-3.74.67-2.9,0-3.44-.27-3.44-1.76v-1.93a6.86,6.86,0,0,0-.08-1.17h2.54a7.27,7.27,0,0,0-.06,1.17v1.12c0,.4.14.46,1.13.46,1.75,0,1.8,0,1.81-1.07l-1,.59a12,12,0,0,0-1.6-2.06l1.44-.66Zm.72-6.07h6.7v-.56h-6.7Zm0,2.16h6.7v-.59h-6.7Zm0,2.17h6.7v-.6h-6.7Zm8.72,6.72A16.77,16.77,0,0,0,50.25,234l2.07-.91a17.9,17.9,0,0,1,2.13,3.51Z"/><path class="cls-4" d="M61.28,230.69a2.45,2.45,0,1,1-2.44-2.43A2.44,2.44,0,0,1,61.28,230.69Z"/><path class="cls-4" d="M69.5,228.61a2.75,2.75,0,0,0-.56,0v-2.2a14.45,14.45,0,0,0,1.73.07h1.57v-.71c-.48,0-1.4.1-2.76.16a8.8,8.8,0,0,0-.78-1.89c3.46-.06,6.59-.49,7.84-1.07L78,225.09c-1.57.27-2.21.36-3.54.51v.93h1.84c.66,0,1.2,0,1.72-.08v2.21a4.14,4.14,0,0,0-.74,0v.91c.46,0,.69,0,1-.06v2.27c-.36,0-.52,0-1-.06v1a5,5,0,0,0,.74,0v2.18l-.56,0h-3v.86h1.88a17.36,17.36,0,0,0,1.85-.08v2.37a16.56,16.56,0,0,0-1.92-.09H70.43a16,16,0,0,0-1.92.09v-1.26H66.63V236h-.8v1.44H63.66c.05-.74.08-1.39.08-2.1v-9.81a14.79,14.79,0,0,0-.07-1.73c.32,0,.69.05,1.27.05h2.45c.59,0,1,0,1.29-.05,0,.34-.05.79-.05,1.63v4.07h.87Zm-3.7-1.33h.85v-1.23H65.8Zm0,3.25h.85V229.3H65.8Zm0,3.33h.85v-1.31H65.8Zm2.83-2.19v3.85a14.06,14.06,0,0,0,1.51.08h2.1v-.86H70.51a14.58,14.58,0,0,0-1.57,0v-2.18c.21,0,.26,0,.56,0v-1Zm3.65-2.15v-.91h-.81v.91Zm-.81,3.14h.81v-1h-.81Zm3.86-3.14v-.91h-.85v.91Zm-.85,3.14h.85v-1h-.85Z"/><path class="cls-4" d="M90.12,237c-1.87.51-2.59.68-4.78,1.15l-.61.13-.26-1.6H83V236h-.93v1.39H79.74a13.73,13.73,0,0,0,.08-1.7V225.66a17.64,17.64,0,0,0-.07-1.81,10.9,10.9,0,0,0,1.27.05h2.81a10.42,10.42,0,0,0,1.25-.05c0,.34,0,.9,0,1.67v10.24l.63-.09V225.41a16.39,16.39,0,0,0-.06-1.73,12.14,12.14,0,0,0,1.51.06h5.17a11.29,11.29,0,0,0,1.44-.06,13.22,13.22,0,0,0-.07,1.71v2.27a9.75,9.75,0,0,0,.07,1.49,11.9,11.9,0,0,0-1.25-.05h-1l0,1.09h1.33a8,8,0,0,0,1.57-.09v2.3c-.45,0-.82-.05-1.38-.05H91.74a8.13,8.13,0,0,0,.66,2.36,1.87,1.87,0,0,0,.33.56c.1,0,.21-.66.29-1.8a6.31,6.31,0,0,0,1.6,1.14,6.28,6.28,0,0,1-.61,2.75,1.18,1.18,0,0,1-1.08.76c-1.06,0-2.1-1.09-2.81-2.92ZM82,227.3h1v-1.22H82Zm0,3.26h1v-1.23H82Zm0,3.31h1v-1.28H82Zm6-6.86h3.22v-1.12H88.06Zm1.22,3.2c0-.08,0-.45-.07-1.11H88.06v1.13Zm-1.22,5c.7-.15.7-.15,1.92-.45a13.61,13.61,0,0,1-.51-2.42l-1.41,0Z"/><path class="cls-4" d="M287,230A13.64,13.64,0,0,0,289,230v2.36a15.6,15.6,0,0,0-1.92-.1h-2.88a8.55,8.55,0,0,0,2.21,1.86,11.89,11.89,0,0,0,3,1.39,9.88,9.88,0,0,0-1.57,2.32,12.94,12.94,0,0,1-5-4,5.24,5.24,0,0,0,0,.56v.32c0,.21,0,.35,0,.39v1.65a9.3,9.3,0,0,0,.09,1.56h-2.65a10.18,10.18,0,0,0,.09-1.53V235c0-.56,0-.83,0-1.25a10.67,10.67,0,0,1-2.14,2.29,14.28,14.28,0,0,1-2.71,1.69,7.31,7.31,0,0,0-1.5-2.16,12,12,0,0,0,5-3.39h-2.6a16.06,16.06,0,0,0-2,.1V230a14.69,14.69,0,0,0,2,.08h3.95v-.86a5.31,5.31,0,0,0-.06-1h2.59a5.43,5.43,0,0,0-.06,1V230ZM276.9,225.7a15.49,15.49,0,0,0-1.11-1.86l2.35-.55a12.46,12.46,0,0,1,1.21,2l-1.81.4h3.07a13.87,13.87,0,0,0-1-2.1l2.4-.51a14.8,14.8,0,0,1,1,2.17l-1.94.44H284a12.36,12.36,0,0,0,1.13-2.47l2.45.51c-.35.74-.72,1.44-1,2h.61a14.22,14.22,0,0,0,1.66-.07,10.49,10.49,0,0,0-.06,1.43v1.05a11.15,11.15,0,0,0,.06,1.41h-2.43v-1.71H277v1.71h-2.43c0-.43.06-.85.06-1.36V227a13.25,13.25,0,0,0-.06-1.35,16.41,16.41,0,0,0,1.64.07Z"/><path class="cls-4" d="M304.41,234.72l-1,.82c-.17.14-.38.29-.69.5a13.37,13.37,0,0,0,2.21.16c.1,0,.31,0,.53,0a8.33,8.33,0,0,0-1.22,2.22,12.42,12.42,0,0,1-5.81-1.71v.75c-2.41.37-3.66.53-6.19.8-.27,0-.53.07-.9.13l-.25-2.19.3,0c.3,0,.72,0,1.46-.07V233a14.33,14.33,0,0,1-1.73,1.07,9,9,0,0,0-1.2-2.13,8.51,8.51,0,0,0,3.53-2.22h-1.37a14,14,0,0,0-1.67.06v-1.74a10.17,10.17,0,0,0,1.67.08h4.37v-.47H293.2a14.42,14.42,0,0,0-1.62.05v-1.44a12.51,12.51,0,0,0,1.62,0h3.22v-.45H292.5a16.21,16.21,0,0,0-1.65.07v-1.73a11.46,11.46,0,0,0,1.65.08h1.34a7.1,7.1,0,0,0-.69-1l2.52-.37a8.11,8.11,0,0,1,.89,1.33h2.32a8.69,8.69,0,0,0,.63-1.32l2.57.31-.22.41c-.1.16-.18.31-.35.6h1.41a11.64,11.64,0,0,0,1.65-.08v1.73a15.7,15.7,0,0,0-1.65-.07h-4.07v.45h3.36a12.69,12.69,0,0,0,1.62,0v1.44a14.51,14.51,0,0,0-1.62-.05h-3.36v.47h4.52a10.1,10.1,0,0,0,1.66-.08v1.76a10.59,10.59,0,0,0-1.66-.08h-1.46a8.11,8.11,0,0,0,3.63,1.92,8,8,0,0,0-1.13,2.16,9.91,9.91,0,0,1-2.37-1.34v1.74a5,5,0,0,0,.57-.62Zm-9.22-2.51h4.57v-.45h-4.57Zm0,1.5h4.57v-.44h-4.57Zm0,2.25c1-.08,1.42-.13,2-.2a7.39,7.39,0,0,1-.75-.83h-1.26Zm1.44-5.41a1.83,1.83,0,0,0-.07-.53h2.19a4.08,4.08,0,0,0-.06.53h1.2a9.84,9.84,0,0,1-.67-.82h-3.09a9.72,9.72,0,0,1-.61.82Zm2.32,4.38a4.4,4.4,0,0,0,1.37.64,7.9,7.9,0,0,0,.88-.64H299Z"/><path class="cls-5" d="M125.78,118.75a12.36,12.36,0,0,1-.45,2.48,6.83,6.83,0,0,1-1.75,2.86,5.7,5.7,0,0,0-.86-.84c-.13.55-.47.69-1.61.69-.25,0-.42,0-.74,0a4.79,4.79,0,0,0-.25-1.24,5.77,5.77,0,0,0,1.11.11c.26,0,.35-.06.35-.23v-1.24h-1.87a6.1,6.1,0,0,1-1,2.8,5.57,5.57,0,0,0-1.08-.91c.81-1.2,1-2.34,1-5.39a10.5,10.5,0,0,0,0-1.11,3.79,3.79,0,0,0-.92-.77,6.41,6.41,0,0,0,1.86-3l1.26.35-.35.72H122a8.48,8.48,0,0,0,1.16-.06v1.19a7.49,7.49,0,0,0-1-.05h-.55a7.65,7.65,0,0,1,.53,1l-1.16.28a7.09,7.09,0,0,0-.56-1.23h-.54a10.21,10.21,0,0,1-1,1.33c.28,0,.45,0,.93,0h1.8a10.07,10.07,0,0,0,1.14,0c0,.26,0,.48,0,1v5.43a.5.5,0,0,1,0,.16,5,5,0,0,0,1.23-1.67,7.17,7.17,0,0,0,.57-2.59h-.48a4.69,4.69,0,0,0-.92.06v-1.26a5.89,5.89,0,0,0,.92,0h.54c0-.4,0-.4,0-.58a3.19,3.19,0,0,0-.06-.76h1.32a8.86,8.86,0,0,0-.56-1.13h-.72a9.17,9.17,0,0,1-1,1.35,4.7,4.7,0,0,0-1-.67,6.12,6.12,0,0,0,1.05-1.35,6,6,0,0,0,.55-1.43l1.25.34s-.12.26-.32.68h2.25a9.09,9.09,0,0,0,1.3-.06v1.2a11.58,11.58,0,0,0-1.3-.06h-.89a8.39,8.39,0,0,1,.6,1l-1.14.39c0-.11,0-.15-.07-.22a8.86,8.86,0,0,0-.06,1.26h1.69a5.61,5.61,0,0,0,1,0,5.21,5.21,0,0,0-.06.85c0,1.06-.15,2.58-.25,3.45-.12,1.05-.29,1.52-.64,1.79s-.59.28-1.34.28l-.76,0a3.66,3.66,0,0,0-.27-1.25,8.69,8.69,0,0,0,1.12.08c.39,0,.52-.14.62-.7a24.57,24.57,0,0,0,.25-3.28Zm-5.92.67c0,.31,0,.51-.06.88h1.78v-.88Zm1.72-1.9h-1.69v.88h1.69Z"/><path class="cls-5" d="M135.74,115.79a6.47,6.47,0,0,0,3.15,2.15,6,6,0,0,0-.67,1.27,8.71,8.71,0,0,1-3.05-2.27,3.56,3.56,0,0,1-.71.92,6.62,6.62,0,0,1-1.81,1.33,4.93,4.93,0,0,0-.86-1,6.17,6.17,0,0,0,1.8-1.2,3.55,3.55,0,0,0,.78-1.2h-2.64v6.94a9.72,9.72,0,0,0,.06,1.43h-1.47a9.59,9.59,0,0,0,.08-1.38v-7.09a9.52,9.52,0,0,0-.05-1.15,12.42,12.42,0,0,0,1.37,0h2.95c0-.35.07-.88.07-1.1v-.41l1.4.07c0,.28-.07.4-.13.94a4.92,4.92,0,0,1-.06.5H139a9.87,9.87,0,0,0,1.29,0,10.73,10.73,0,0,0-.05,1.31v7.06a1,1,0,0,1-.4.93,2.79,2.79,0,0,1-1.28.19l-1.27-.06a3.5,3.5,0,0,0-.27-1.25,13.37,13.37,0,0,0,1.54.13c.29,0,.35,0,.35-.27v-6.79Zm.34,2.3a6.34,6.34,0,0,0-.19.64c0,.14-.07.24-.13.42a4.39,4.39,0,0,0,.74.76,6.59,6.59,0,0,0,2.32,1.28,5.88,5.88,0,0,0-.76,1.17,7.78,7.78,0,0,1-1.9-1.13,5,5,0,0,1-.93-.91,5.6,5.6,0,0,1-2.49,2.34,4.33,4.33,0,0,0-.94-1,5.89,5.89,0,0,0,1.77-1.13,4.23,4.23,0,0,0,1.21-2.56Z"/><path class="cls-5" d="M141.88,116.8a10.35,10.35,0,0,0,1.26.06h8.37a9.52,9.52,0,0,0,1.25-.06v1a7.39,7.39,0,0,0-1.2-.06h-8.43a8.26,8.26,0,0,0-1.25.06Zm2.43,4.37c-.48,0-.78,0-1.11,0a7.75,7.75,0,0,0,0-1v-1.19a7.45,7.45,0,0,0,0-.88,10.42,10.42,0,0,0,1.14,0h6a11,11,0,0,0,1.11,0c0,.27,0,.46,0,.86v1.22c0,.45,0,.73,0,.95-.33,0-.68,0-1.1,0H147.9v.44h3a7.32,7.32,0,0,0,1,0v1a7.71,7.71,0,0,0-1.07-.05H147.9v.43h3.49a10.21,10.21,0,0,0,1.37-.06v1.07a10.42,10.42,0,0,0-1.37-.08h-8.14a9.27,9.27,0,0,0-1.37.08v-1.07a10.12,10.12,0,0,0,1.37.06h3.4v-.43h-2.8a7.62,7.62,0,0,0-1.07.05v-1a7.5,7.5,0,0,0,1,0h2.87v-.44Zm-.15-4.76a11.46,11.46,0,0,0-1.21,0,6.57,6.57,0,0,0,.05-1v-1.15a6.54,6.54,0,0,0-.05-1,10.9,10.9,0,0,0,1.27.05h6.2a10.61,10.61,0,0,0,1.26-.05,7.81,7.81,0,0,0-.05,1v1.15a8.5,8.5,0,0,0,.05,1,11.34,11.34,0,0,0-1.21,0Zm.06-.75h6.16v-.4h-6.16Zm0-1.08h6.16v-.4h-6.16Zm.22,4.4v.42h2.2V119Zm0,1.08v.39h2.2v-.39Zm3.45-.66h2.3V119h-2.3Zm0,1h2.3v-.39h-2.3Z"/><path class="cls-5" d="M160.74,118.59a1.43,1.43,0,1,1-1.42-1.42A1.41,1.41,0,0,1,160.74,118.59Z"/><path class="cls-5" d="M167.36,119.42c0-.61,0-.92,0-1.38a7.77,7.77,0,0,1-1.22,1.5,5.14,5.14,0,0,0-.63-1.38A10.5,10.5,0,0,0,168,114.6a7.1,7.1,0,0,0,.46-1.57l1.37.47a18.87,18.87,0,0,1-1.11,2.55v6.65a10.45,10.45,0,0,0,.08,1.45h-1.47a11.27,11.27,0,0,0,.08-1.48Zm5.62-1.88a9.47,9.47,0,0,0,1.23,3.69c.41.68,1,1.28,1.17,1.28s.4-.59.52-2a4.74,4.74,0,0,0,1.14.78c-.28,2-.7,2.82-1.55,2.82a2.59,2.59,0,0,1-1.83-1.23,10.37,10.37,0,0,1-2-5.21l-1.27.11a8.28,8.28,0,0,0-1.2.14l0-1.34h.38c.22,0,.61,0,.91,0l1.09-.08a21.2,21.2,0,0,1-.11-2.28,8.13,8.13,0,0,0-.06-.89l1.45,0a4.42,4.42,0,0,0-.06.9,20.69,20.69,0,0,0,.12,2.17l2.57-.21a8.27,8.27,0,0,0,1.31-.17l0,1.36h-.35a8.8,8.8,0,0,0-.88,0Zm1.26-4.31a16.91,16.91,0,0,1,1.84,1.86l-1,.91a7,7,0,0,0-.87-1c-.57-.61-.57-.61-.9-.92Z"/><path class="cls-5" d="M177.84,115.08a4.11,4.11,0,0,0,.86.06h1.76a5.16,5.16,0,0,0,.91,0v1.2c-.25,0-.4,0-.86,0H178.7a6.49,6.49,0,0,0-.86,0Zm3.27,7a10.37,10.37,0,0,0,2.12-2c-.3.06-.42.08-1.34.22l-.47.09-.19-1.17h.18l.2,0v-4a9.17,9.17,0,0,0-.06-1.11c.28,0,.5,0,.94,0h.07a5.49,5.49,0,0,0,.35-1.24l1.21.2c-.22.59-.26.71-.41,1h.42c.43,0,.65,0,.9,0a10,10,0,0,0-.05,1.09v2.56l.21.19.86-.46a16.9,16.9,0,0,1,.87,3l-1,.47a14.56,14.56,0,0,0-.59-2.43,8,8,0,0,1-.39.71v3.63c0,.9-.27,1.14-1.35,1.14l-.85,0a3.89,3.89,0,0,0-.25-1.21,6.21,6.21,0,0,0,1.06.09c.27,0,.31,0,.31-.26v-1.2a4.09,4.09,0,0,1,0-.63,13.62,13.62,0,0,1-2.35,2.41,5.52,5.52,0,0,0-.47-.92V123a8.94,8.94,0,0,0,0,1h-1v-.4h-1v.6h-1.06a8.9,8.9,0,0,0,.06-1.17v-1.74c0-.39,0-.63,0-1a3.92,3.92,0,0,0,.78,0h1.47a5.51,5.51,0,0,0,.8,0c0,.35,0,.43,0,1Zm-2.91-5.22a7.37,7.37,0,0,0,.84,0h1.15c.45,0,.61,0,.86,0V118a7.5,7.5,0,0,0-.86,0H179c-.42,0-.58,0-.84,0Zm0,1.66a4.16,4.16,0,0,0,.84,0h1.15a4.76,4.76,0,0,0,.86,0v1.12a5.84,5.84,0,0,0-.86,0H179a8.22,8.22,0,0,0-.84,0Zm0-5.15a3.91,3.91,0,0,0,.83.06h1.18a3.9,3.9,0,0,0,.84-.06v1.22a5.87,5.87,0,0,0-.84,0h-1.18a5.71,5.71,0,0,0-.83,0Zm.89,9.16h1v-1.25h-1Zm4.79-7.39h-1.25v.64h1.25Zm-1.25,2.2h1.25v-.64h-1.25Zm0,1.75c.6-.07.75-.1,1.25-.18v-.65h-1.25Zm3.46-2.48a6.13,6.13,0,0,0-.89.06v-1.3a4.59,4.59,0,0,0,.9.06h.93v-.85a10.37,10.37,0,0,0-.08-1.42h1.35a9.26,9.26,0,0,0-.07,1.42v.85a3.21,3.21,0,0,0,.73-.06v1.3a3.91,3.91,0,0,0-.73-.06v6.18c0,1-.32,1.26-1.51,1.26-.33,0-.53,0-1,0a5.56,5.56,0,0,0-.28-1.25,8,8,0,0,0,1.15.09c.36,0,.42,0,.42-.34v-5.92Z"/><path class="cls-5" d="M195.68,116.4a4.83,4.83,0,0,0-.05,1,6.51,6.51,0,0,1-1.19,4.25,7,7,0,0,1-3.09,2.16,4.16,4.16,0,0,0-.95-1.37,5.56,5.56,0,0,0,2.1-1c1.22-1,1.61-2,1.61-4.27a3.52,3.52,0,0,0-.06-.72Zm4.87-1.51a3.21,3.21,0,0,0-.48.84,7.66,7.66,0,0,1-3.29,3.4A4.14,4.14,0,0,0,195.7,118a5.54,5.54,0,0,0,1.75-1.1,5,5,0,0,0,1.14-1.52h-6.3a11.72,11.72,0,0,0-1.63.07V114a9.75,9.75,0,0,0,1.66.1h6.26a3.39,3.39,0,0,0,1.16-.11Z"/><path class="cls-5" d="M204.51,116.26a14.48,14.48,0,0,1,1.18,2.84l-1.36.43a11.83,11.83,0,0,0-1.09-2.9Zm6.88.08a2.63,2.63,0,0,0-.16.61,10.32,10.32,0,0,1-1.66,4,9.21,9.21,0,0,1-3.66,2.89,4.19,4.19,0,0,0-1-1.19,8,8,0,0,0,2-1.1,6.91,6.91,0,0,0,2.73-4.17,5.44,5.44,0,0,0,.21-1.38Zm-4.33-.58a11.76,11.76,0,0,1,1.17,2.76l-1.33.42a13.68,13.68,0,0,0-1.09-2.82Z"/><path class="cls-5" d="M221.67,114.43c.36,0,.5,0,.71,0a1.38,1.38,0,0,1,1.37-1.39,1.39,1.39,0,1,1,0,2.77l-.22,0a10.79,10.79,0,0,1-6.89,8,4.33,4.33,0,0,0-1-1.43,8.7,8.7,0,0,0,6.26-6.45h-5.71a8.63,8.63,0,0,0-1.51.07v-1.56a8.44,8.44,0,0,0,1.53.08Zm1.3,0a.79.79,0,1,0,.78-.78A.78.78,0,0,0,223,114.4Z"/><path class="cls-5" d="M.32,280.63a6.69,6.69,0,0,0-.1-1A23.33,23.33,0,0,1,0,276.36a27.42,27.42,0,0,1,.55-5.13,3.51,3.51,0,0,0,.11-.78l1.56.16A22.75,22.75,0,0,0,1.31,276c0,.17,0,.76,0,1.12,0,.14,0,.27,0,.39v.24h0a4.59,4.59,0,0,0,.17-.44,8.14,8.14,0,0,1,.33-.79,2.09,2.09,0,0,0,.16-.4l1,.47a9.08,9.08,0,0,0-1.16,3.74,2.09,2.09,0,0,0,0,.24Zm9.26-.75a6.08,6.08,0,0,0-1.45-1.13l-.27-.17a1.7,1.7,0,0,1,0,.24,1.58,1.58,0,0,1-.24.86,2.55,2.55,0,0,1-2.2.87c-1.53,0-2.49-.75-2.49-1.93s1-1.92,2.49-1.92a3.59,3.59,0,0,1,1.07.14c0-.14,0-.27-.07-1.7l-1.26,0-1.62-.05H3.08l0-1.32a9.19,9.19,0,0,0,2.09.16l1.19,0c0-.54,0-.65,0-.81s0-.36,0-.67c-.39,0-.9,0-1.22,0-.48,0-.66,0-1.64-.06h-.4l0-1.31a10.19,10.19,0,0,0,2.16.16,19.07,19.07,0,0,0,4.23-.42l0,1.29a5.51,5.51,0,0,0-.77.1l-1.09.13a5.92,5.92,0,0,0,0,.88s0,.33,0,.6a11.05,11.05,0,0,0,1.95-.35l.05,1.31-.41,0c-.6.1-1.17.17-1.58.21,0,.88,0,1.15.08,2.08a9.42,9.42,0,0,1,2,1.1l.32.21Zm-4.13-2c-.66,0-1.13.31-1.13.75s.41.72,1.1.72,1.12-.3,1.12-.95c0-.09,0-.36,0-.36A3.14,3.14,0,0,0,5.45,277.89Z"/><path class="cls-5" d="M15.85,270.43a21.1,21.1,0,0,0,.79,3.75c.74-.29,1.2-.44,2.71-.92a4.14,4.14,0,0,0,.85-.32l.52,1.52a26.4,26.4,0,0,0-4,1.15c-1.75.64-2.63,1.4-2.63,2.26s.82,1.25,2.75,1.25a13.63,13.63,0,0,0,3.88-.48l.13,1.63c-.26,0-.34,0-1,.09a26,26,0,0,1-2.81.18,6.78,6.78,0,0,1-3.48-.66,2.26,2.26,0,0,1-1-2,2.81,2.81,0,0,1,1.07-2.14,6.87,6.87,0,0,1,1.63-1,29.26,29.26,0,0,1-.81-3.25,6.18,6.18,0,0,0-.19-.79Zm4,0a7.75,7.75,0,0,1,1.26,1.76l-.84.44A7.71,7.71,0,0,0,19,270.85Zm1.86,1.45a8.57,8.57,0,0,0-1.22-1.74l.8-.42a6.92,6.92,0,0,1,1.25,1.69Z"/><path class="cls-5" d="M29.52,270.29a13.51,13.51,0,0,0-.09,1.86c0,.17,0,.21,0,.78a12.6,12.6,0,0,0,3.51-.41l.12,1.46c-.24,0-.24,0-.78.07a25.34,25.34,0,0,1-2.82.21c0,.94.05,1.48.13,2.65a8.86,8.86,0,0,1,1.87.82,14.23,14.23,0,0,1,1.55,1c.16.11.22.16.36.24l-.93,1.35a5,5,0,0,0-.86-.79,7.42,7.42,0,0,0-1.58-1,3.44,3.44,0,0,1-.38-.22,3.53,3.53,0,0,1,0,.39c0,1.34-.95,2.05-2.73,2.05a2.8,2.8,0,0,1-2.52-1,2.18,2.18,0,0,1-.3-1.07c0-1.25,1.23-2.15,3-2.15a4.59,4.59,0,0,1,1.12.12s0,0,0-.12c0-.43-.15-3.7-.16-5.2a10.49,10.49,0,0,0-.06-1.06Zm-2.43,7.54c-.89,0-1.49.36-1.49.88a.67.67,0,0,0,.4.63,2.12,2.12,0,0,0,.88.18,1.69,1.69,0,0,0,1.09-.33.83.83,0,0,0,.25-.67c0-.21,0-.55,0-.56A3.82,3.82,0,0,0,27.09,277.83Z"/><path class="cls-5" d="M43.58,271.25c-.2.15-.43.35-1.48,1.32-.61.57-1.45,1.24-2.85,2.31-.37.27-.46.37-.46.5s0,.2,1.08,1a39.35,39.35,0,0,1,3.78,3.14,3.85,3.85,0,0,0,.35.29l-1.24,1.25a11.42,11.42,0,0,0-1.55-1.64,39.72,39.72,0,0,0-3.1-2.56c-.79-.61-1-.93-1-1.48a1.41,1.41,0,0,1,.4-1,8,8,0,0,1,1-.87,26.82,26.82,0,0,0,2.78-2.34,5.67,5.67,0,0,0,.87-1Z"/><path class="cls-5" d="M55,277.59A22.43,22.43,0,0,1,48.24,281a4.61,4.61,0,0,0-.68-1.19,18.6,18.6,0,0,0,5.94-2.64c-2.5.3-2.88.34-4.91.5a6.83,6.83,0,0,0-.76.08l-.18-1.28.39,0,1.23,0v-4.29a10,10,0,0,0-.05-1.15c.38,0,.66,0,1.3,0h1a5.11,5.11,0,0,0,.54-1.18l1.4.18c-.23.43-.39.73-.55,1h2.22a12.16,12.16,0,0,0,1.28,0,9.26,9.26,0,0,0-.06,1.3v2.55a9.25,9.25,0,0,0,1.08-1.37l.9.94a5.42,5.42,0,0,0-.58.62,17,17,0,0,1-1.4,1.44v3.33c0,.85-.42,1.12-1.76,1.12l-1.31,0a4.29,4.29,0,0,0-.32-1.31,7.55,7.55,0,0,0,1.37.12c.61,0,.74,0,.74-.23Zm0-5.4H50.55v.67H55Zm-4.48,2.37H55v-.69H50.55Zm0,1.85c2.57-.18,2.57-.18,4.48-.38v-.46H50.55Z"/><path class="cls-5" d="M61.8,279.76a10.45,10.45,0,0,0,.06,1.39H60.44a11.2,11.2,0,0,0,.08-1.41v-3.31c0-.63,0-.82,0-1.35a6.32,6.32,0,0,1-.94,1.28,7.44,7.44,0,0,0-.52-1.45A10,10,0,0,0,61.6,270l1.33.36a27.27,27.27,0,0,1-1.13,2.8v4.7A10.17,10.17,0,0,0,65,273.53H63.67c-.41,0-.88,0-1.27.07v-1.34a12.84,12.84,0,0,0,1.31.06h1.75v-1.09a6.81,6.81,0,0,0-.09-1.13H66.8a8.21,8.21,0,0,0-.07,1.14v1.08H69a11.22,11.22,0,0,0,1.38-.07v1.35c-.41,0-.89-.07-1.35-.07H67.22a10.51,10.51,0,0,0,1.4,2.41,9.74,9.74,0,0,0,2,2,6.54,6.54,0,0,0-.83,1.23,12.06,12.06,0,0,1-1.34-1.39v1.14a5.36,5.36,0,0,0-.87-.05h-.9v1a9.22,9.22,0,0,0,.08,1.31H65.37a9.72,9.72,0,0,0,.09-1.31v-1h-.84a5.32,5.32,0,0,0-.85.05V277.8a8.6,8.6,0,0,1-1.26,1.31,4.59,4.59,0,0,0-.71-1Zm3.66-3.52c0-.62,0-.87,0-1.44a10.52,10.52,0,0,1-1.61,2.87c.24,0,.45,0,.8,0h.79Zm2.13,1.47c.35,0,.53,0,.81,0a13.13,13.13,0,0,1-1.71-2.9c0,.67,0,1,0,1.44v1.5Z"/><path class="cls-5" d="M72.17,271.53a14.17,14.17,0,0,0,2.78.16,4.91,4.91,0,0,0,.48-1.49l1.57.17a10.25,10.25,0,0,0-.48,1.08,1.65,1.65,0,0,1-.11.21l.76-.05a16.16,16.16,0,0,0,3.14-.4l.09,1.36-1,.1c-.88.11-2.4.2-3.61.24a6.26,6.26,0,0,1-1.11,1.59l0,0,.24-.18a2.86,2.86,0,0,1,1.69-.54,1.57,1.57,0,0,1,1.71,1.27c.93-.34,1.54-.55,1.84-.65a4,4,0,0,0,.89-.36l.56,1.38a9.21,9.21,0,0,0-1.33.33c-.17,0-.77.25-1.8.61v.13c0,.31,0,.31,0,.48v.48c0,.2,0,.31,0,.39a5.85,5.85,0,0,0,0,.64l-1.39,0a9.07,9.07,0,0,0,.08-1.4v-.28a7.31,7.31,0,0,0-1.16.62,1.26,1.26,0,0,0-.62,1c0,.63.58.88,2,.88a10.48,10.48,0,0,0,3.52-.5l.12,1.54a3.16,3.16,0,0,0-.55.05,21.91,21.91,0,0,1-3.07.22,5.12,5.12,0,0,1-2.67-.51,1.72,1.72,0,0,1-.88-1.54,1.9,1.9,0,0,1,.53-1.34,5.91,5.91,0,0,1,2.58-1.69.65.65,0,0,0-.73-.64,4.06,4.06,0,0,0-2.46,1.23,5.5,5.5,0,0,0-1,1.09l-1.09-1.08a7.43,7.43,0,0,0,1.08-1.06,16,16,0,0,0,1.44-2.06.65.65,0,0,1,.1-.15h-.21l-1.51,0-.33,0a.87.87,0,0,0-.2,0Z"/><path class="cls-5" d="M85.79,279.72a12,12,0,0,0,.06,1.39H84.41a11.45,11.45,0,0,0,.07-1.4v-3.37c0-.6,0-.85,0-1.34a7.51,7.51,0,0,1-1,1.33,6.83,6.83,0,0,0-.54-1.47,9.34,9.34,0,0,0,1.87-2.8,8.47,8.47,0,0,0,.7-2.14l1.37.41c-.15.36-.21.5-.34.86a17.33,17.33,0,0,1-.8,2v5.08A11.45,11.45,0,0,0,89,273.69H87.66a11.09,11.09,0,0,0-1.3.07v-1.39a12.5,12.5,0,0,0,1.3.06h1.77V271.3a7.37,7.37,0,0,0-.08-1.16h1.44a7.16,7.16,0,0,0-.07,1.16v1.13H93a11.14,11.14,0,0,0,1.35-.07v1.4a10.63,10.63,0,0,0-1.32-.07H91.1a9.75,9.75,0,0,0,1.37,2.4,12.14,12.14,0,0,0,2.14,2.16,5.89,5.89,0,0,0-.88,1.29A11,11,0,0,1,92.24,278a10.49,10.49,0,0,1-1.57-2.74c0,.39,0,.71,0,1.21v3.35a8.81,8.81,0,0,0,.07,1.34H89.34c0-.4.08-.88.08-1.33V276.6c0-.39,0-.86,0-1.26a10.83,10.83,0,0,1-2.88,4.19,4.26,4.26,0,0,0-.78-1.09Z"/><path class="cls-5" d="M104.79,280.28a8.32,8.32,0,0,0-2.22-1.64,5.56,5.56,0,0,0-.65-.3v.13a1.86,1.86,0,0,1-.67,1.62,3.16,3.16,0,0,1-2,.52c-1.75,0-2.75-.69-2.75-1.87s1.18-2.08,3.2-2.08a5.54,5.54,0,0,1,.8,0c0-.14,0-.14,0-.29v-.26c0-.17,0-.17,0-.65l-1.2,0c-.74,0-1.18,0-2.17-.08h-.46l0-1.3a15.44,15.44,0,0,0,2.8.21l1,0c0-.1,0-.51,0-1.2l-.76,0c-.58,0-2.13-.06-2.93-.12l-.27,0H96.3v-1.33a15.38,15.38,0,0,0,3.23.26l.9,0a8.08,8.08,0,0,0-.06-1.51h1.52a7.37,7.37,0,0,0-.08,1.46,15.76,15.76,0,0,0,3.45-.45l.06,1.33a6.74,6.74,0,0,0-1,.11c-1,.14-1.52.18-2.58.24,0,.3,0,.44,0,1.18.6,0,.6,0,1.7-.15a8.57,8.57,0,0,0,1.49-.27l0,1.32-.77.09-1.62.17-.82,0c0,1.17,0,1.17,0,1.45a10.75,10.75,0,0,1,3.28,1.7c.21.13.27.18.44.27Zm-5.24-2.43c-1,0-1.56.31-1.56.83s.52.72,1.37.72a1.25,1.25,0,0,0,1-.39,1.44,1.44,0,0,0,.14-.76V278A3.85,3.85,0,0,0,99.55,277.85Z"/><path class="cls-5" d="M117.2,280.19l-.54.06c-.88.09-2.46.18-3.25.18-2.24,0-3.21-.43-3.58-1.58a12.43,12.43,0,0,1-.21-3.28c0-.18,0-.23,0-1.16a18.28,18.28,0,0,0-2.22.21l-.09-1.4h.34c.11,0,.77,0,2-.11,0-.19,0-.3,0-.37a12.33,12.33,0,0,0-.08-2h1.6a14.24,14.24,0,0,0-.1,2.34l3.46-.17a13.33,13.33,0,0,0-.07-2.37h1.5a5.21,5.21,0,0,0-.06.83v1.5a22.15,22.15,0,0,0,2.33-.11l0,1.43a3.71,3.71,0,0,0-.68,0h-1.67a7.66,7.66,0,0,1-.31,2.54,1.47,1.47,0,0,1-1.47.9,4,4,0,0,1-1.71-.4c0-.24,0-.32,0-.48a6.32,6.32,0,0,0-.08-1,3.72,3.72,0,0,0,1.57.59c.31,0,.44-.16.51-.62a10.05,10.05,0,0,0,.11-1.5c-1.82.07-1.82.07-3.49.17v.32c0,.06,0,.06,0,.7v.25c0,.62,0,1.93.06,2.17.1,1,.61,1.26,2.57,1.26a9.74,9.74,0,0,0,3.46-.46Z"/><path class="cls-5" d="M19.28,293.75a13.11,13.11,0,0,1-.44,2.48,6.93,6.93,0,0,1-1.75,2.86,6.29,6.29,0,0,0-.87-.84c-.13.55-.47.69-1.6.69-.26,0-.42,0-.75,0a4.4,4.4,0,0,0-.25-1.24,5.91,5.91,0,0,0,1.11.11c.27,0,.35-.06.35-.23v-1.24H13.21a6,6,0,0,1-1,2.8,5.28,5.28,0,0,0-1.08-.91c.82-1.2,1-2.34,1-5.39,0-.48,0-.86,0-1.11a3.85,3.85,0,0,0-.93-.77,6.41,6.41,0,0,0,1.86-3l1.26.35-.34.72h1.52a8.42,8.42,0,0,0,1.15-.06v1.19a7.4,7.4,0,0,0-1-.05h-.55a7.65,7.65,0,0,1,.53.95l-1.15.28a9,9,0,0,0-.56-1.23h-.54a10.22,10.22,0,0,1-1,1.33c.29,0,.46,0,.94,0h1.8a10.3,10.3,0,0,0,1.14,0,7.8,7.8,0,0,0,0,1v5.43a1,1,0,0,1,0,.16,4.93,4.93,0,0,0,1.22-1.67,7.36,7.36,0,0,0,.58-2.59h-.48a4.87,4.87,0,0,0-.93.06v-1.26a6,6,0,0,0,.93.05h.54c0-.4,0-.4,0-.58a3.19,3.19,0,0,0-.06-.76h1.32a9.16,9.16,0,0,0-.57-1.13H18.1a8.5,8.5,0,0,1-1,1.35,4.62,4.62,0,0,0-1-.67,5.77,5.77,0,0,0,1-1.35,5.61,5.61,0,0,0,.55-1.43l1.25.34s-.12.26-.31.68h2.24a9.25,9.25,0,0,0,1.31-.06v1.2a11.78,11.78,0,0,0-1.31-.06H20a6.45,6.45,0,0,1,.6,1l-1.14.39a1.44,1.44,0,0,0-.07-.22c0,.2,0,.28-.06,1.26H21a5.54,5.54,0,0,0,1-.05c0,.34,0,.42-.06.85,0,1.06-.14,2.58-.25,3.45-.12,1-.29,1.52-.64,1.79s-.58.28-1.34.28l-.75,0a3.93,3.93,0,0,0-.28-1.25,8.72,8.72,0,0,0,1.13.08c.38,0,.51-.14.61-.7a24.57,24.57,0,0,0,.25-3.28Zm-5.91.67c0,.31,0,.51-.06.88h1.77v-.88Zm1.71-1.9H13.39v.88h1.69Z"/><path class="cls-5" d="M32,290.45a12.39,12.39,0,0,0,1.54-.06,15,15,0,0,0-.07,1.81c0,1.65-.16,3.67-.28,4.47-.15,1.1-.32,1.52-.69,1.78a2.36,2.36,0,0,1-1.43.33,13.22,13.22,0,0,1-1.83-.14,5.94,5.94,0,0,0-.34-1.45,10.28,10.28,0,0,0,2.06.24c.57,0,.75-.21.88-1a35.42,35.42,0,0,0,.28-4.67H28.85a10.37,10.37,0,0,1-1.1,4,8.25,8.25,0,0,1-3.45,3.2,4.06,4.06,0,0,0-1-1.25,6.3,6.3,0,0,0,3.39-3,8.73,8.73,0,0,0,.75-3H25.36a12.28,12.28,0,0,0-1.49.07v-1.44a10.43,10.43,0,0,0,1.52.08h2.14c0-.48,0-.6,0-1.22a6.11,6.11,0,0,0-.07-1.16h1.59a15.31,15.31,0,0,0-.13,2.38Z"/><path class="cls-5" d="M36.17,289.53a14.17,14.17,0,0,0,2.78.16,4.91,4.91,0,0,0,.48-1.49l1.57.17a10.25,10.25,0,0,0-.48,1.08,1.65,1.65,0,0,1-.11.21l.76-.05a16.16,16.16,0,0,0,3.14-.4l.09,1.36-.95.1c-.88.11-2.4.2-3.61.24a6.26,6.26,0,0,1-1.11,1.59l0,0,.24-.18a2.86,2.86,0,0,1,1.69-.54,1.57,1.57,0,0,1,1.71,1.27c.93-.34,1.54-.55,1.84-.65a4,4,0,0,0,.89-.36l.56,1.38a9.21,9.21,0,0,0-1.33.33c-.17,0-.77.25-1.8.61v.13c0,.31,0,.31,0,.48v.48c0,.2,0,.31,0,.39a5.85,5.85,0,0,0,0,.64l-1.39,0a9.07,9.07,0,0,0,.08-1.4v-.28a7.31,7.31,0,0,0-1.16.62,1.26,1.26,0,0,0-.62,1c0,.63.58.88,2,.88a10.48,10.48,0,0,0,3.52-.5l.12,1.54a3.16,3.16,0,0,0-.55.05,21.91,21.91,0,0,1-3.07.22,5.12,5.12,0,0,1-2.67-.51,1.72,1.72,0,0,1-.88-1.54,1.9,1.9,0,0,1,.53-1.34,5.91,5.91,0,0,1,2.58-1.69.65.65,0,0,0-.73-.64,4.06,4.06,0,0,0-2.46,1.23,5.5,5.5,0,0,0-1,1.09l-1.09-1.08a7.43,7.43,0,0,0,1.08-1.06,16,16,0,0,0,1.44-2.06.65.65,0,0,1,.1-.15h-.21l-1.51,0-.33,0a.87.87,0,0,0-.2,0Z"/><path class="cls-5" d="M56.58,299.15v-.66H49.1v.66H47.71a12.89,12.89,0,0,0,.07-1.56V290a12.27,12.27,0,0,0-.07-1.44,11.82,11.82,0,0,0,1.41.06h7.43a12.18,12.18,0,0,0,1.43-.06,11.94,11.94,0,0,0-.07,1.44v7.6a11.88,11.88,0,0,0,.07,1.55ZM49.1,297.3h7.48v-7.48H49.1Zm5-6.12c.53,0,.86,0,1.17,0a6.79,6.79,0,0,0-.05,1V295a7,7,0,0,0,.05,1c-.35,0-.66-.05-1.17-.05H51.55a10.89,10.89,0,0,0-1.16.05c0-.32,0-.6,0-1V292.1c0-.35,0-.65,0-1a11.59,11.59,0,0,0,1.16,0Zm-2.41,3.57H54v-2.44H51.69Z"/><path class="cls-5" d="M61.78,297.55a13.59,13.59,0,0,0,.07,1.53H60.43a12.57,12.57,0,0,0,.07-1.5v-2c0-.44,0-.6,0-1.28a4.83,4.83,0,0,1-.89.92,4,4,0,0,0-.55-1.31,9.08,9.08,0,0,0,2-2.17,5.13,5.13,0,0,0,.54-.94l1.08.75a2.11,2.11,0,0,0-.18.27,1.55,1.55,0,0,0-.08.15s0,0-.13.2a9.27,9.27,0,0,1-.55.8Zm1-8.86-.19.24A10.32,10.32,0,0,1,60,291.41a3.38,3.38,0,0,0-.74-1.13A6.25,6.25,0,0,0,61.67,288Zm6.66,6.76c-.18.18-.22.23-.39.42a9.76,9.76,0,0,1-1.5,1.37,10,10,0,0,0,3,.55,4.2,4.2,0,0,0-.5,1.31A10.78,10.78,0,0,1,66.38,298a11.78,11.78,0,0,1-3.79,1.14,3.45,3.45,0,0,0-.54-1.16,10.65,10.65,0,0,0,3.16-.71,6.23,6.23,0,0,1-1.07-1,7.88,7.88,0,0,1-1.38.88,2.93,2.93,0,0,0-.73-1,6.22,6.22,0,0,0,2.53-1.76c-.59,0-.79,0-1.07,0a8.45,8.45,0,0,0,0-1.17v-1.91l-.34.37a3.74,3.74,0,0,0-1-.93,6.83,6.83,0,0,0,1.92-2.88l1.37.35c-.1.16-.15.25-.36.64h3.59a10,10,0,0,0,1.46-.07v1.29a9.76,9.76,0,0,0-1.42-.08H64.51l-.31.48h4a8.35,8.35,0,0,0,1.18-.05,9.65,9.65,0,0,0,0,1.19v1.57a11.12,11.12,0,0,0,0,1.2c-.3,0-.53,0-1,0H65.91a5.46,5.46,0,0,1-.36.45h2.29a5.28,5.28,0,0,0,.93,0ZM64.77,292h3.36v-.5H64.77Zm0,1.44h3.36v-.52H64.77Zm.41,2.41a7.05,7.05,0,0,0,1.2.88,7.09,7.09,0,0,0,1.16-.88Z"/><path class="cls-5" d="M72.3,290.55a7.9,7.9,0,0,0,1.16.06c.9,0,2.5-.11,3.24-.2-.2-.53-.72-1.8-.78-1.9l1.55-.2a10.07,10.07,0,0,0,.66,1.91,18,18,0,0,0,2.94-.7l.16,1.42c-.31.05-.44.09-.85.17-.18.05-.76.17-1.76.36.43.81.71,1.31.83,1.53a22.33,22.33,0,0,0,1.27,1.89l-1.39.64a2.07,2.07,0,0,0-.83-.52,6,6,0,0,0-1.89-.28c-1.64,0-2.59.5-2.59,1.35s.88,1.21,2.51,1.21a8.34,8.34,0,0,0,3.61-.8l.2,1.53a12.32,12.32,0,0,1-3.81.65,5,5,0,0,1-3.33-.91,2.24,2.24,0,0,1-.71-1.62,2.31,2.31,0,0,1,.87-1.79,4.55,4.55,0,0,1,3-.86,5.6,5.6,0,0,1,2.08.36,13.07,13.07,0,0,1-1.3-2.19,38.93,38.93,0,0,1-4.25.29,3.17,3.17,0,0,0-.53,0Z"/><path class="cls-5" d="M93.2,298.19l-.54.06c-.88.09-2.46.18-3.25.18-2.24,0-3.21-.43-3.58-1.58a12.43,12.43,0,0,1-.21-3.28c0-.18,0-.23,0-1.16a18.28,18.28,0,0,0-2.22.21l-.09-1.4h.34c.11,0,.77,0,2-.11,0-.19,0-.3,0-.37a12.33,12.33,0,0,0-.08-2h1.6a14.24,14.24,0,0,0-.1,2.34l3.46-.17a13.33,13.33,0,0,0-.07-2.37h1.5a5.21,5.21,0,0,0-.06.83v1.5a22.15,22.15,0,0,0,2.33-.11l0,1.43a3.71,3.71,0,0,0-.68,0H91.88a7.66,7.66,0,0,1-.31,2.54,1.47,1.47,0,0,1-1.47.9,4,4,0,0,1-1.71-.4c0-.24,0-.32,0-.48a6.32,6.32,0,0,0-.08-1,3.72,3.72,0,0,0,1.57.59c.31,0,.44-.16.51-.62a10.05,10.05,0,0,0,.11-1.5c-1.82.07-1.82.07-3.49.17v.32c0,.06,0,.06,0,.7v.25c0,.62,0,1.93.06,2.17.1,1,.61,1.26,2.57,1.26a9.74,9.74,0,0,0,3.46-.46Z"/><path class="cls-5" d="M99.57,293.2a5.91,5.91,0,0,1,2.52-.55c2,0,3.37,1.05,3.37,2.7a2.92,2.92,0,0,1-1.63,2.65,6,6,0,0,1-2.9.68,4.06,4.06,0,0,1-2.33-.55,1.74,1.74,0,0,1-.72-1.38A1.85,1.85,0,0,1,100,295a2.56,2.56,0,0,1,2.07,1,3.19,3.19,0,0,1,.55,1.08c1-.37,1.43-.89,1.43-1.74s-.92-1.55-2.38-1.55a7.38,7.38,0,0,0-4.94,2l-.81-1.3a10.47,10.47,0,0,0,1.69-1.13,39.24,39.24,0,0,0,3.58-3.12l.22-.21h0c-.46.06-1.22.1-3.39.2a3.34,3.34,0,0,0-.58.06l-.06-1.44a10.49,10.49,0,0,0,1.41.07c1,0,2.49-.06,3.65-.14a1.72,1.72,0,0,0,.74-.16l.75,1.06a2.61,2.61,0,0,0-.63.49c-.6.55-1.47,1.33-1.88,1.68-.22.18-1.08.83-1.32,1a4.68,4.68,0,0,1-.49.32Zm.36,3c-.43,0-.7.21-.7.55s.54.75,1.42.75a4,4,0,0,0,.63,0C101.06,296.62,100.61,296.19,99.93,296.19Z"/><path class="cls-5" d="M243.1,271.83a4.84,4.84,0,0,0-.9.06v-1.3a6.07,6.07,0,0,0,1.09.08H245a5.17,5.17,0,0,0,1.07-.08v1.29a6.28,6.28,0,0,0-.89-.05h-.36v2.34h.28a3.51,3.51,0,0,0,.75-.06v1.22a5.9,5.9,0,0,0-.75-.05h-.28v2.37c.5-.22.65-.28,1.18-.54l0,1.27c-1,.51-1.51.72-3.37,1.47l-.24.1-.32-1.36a9,9,0,0,0,1.47-.45v-2.86h-.39a5,5,0,0,0-.82.06v-1.23a4.24,4.24,0,0,0,.84.06h.37v-2.34Zm5.79,6.52h-1.33a11.09,11.09,0,0,0-1.25,0v-1.22a7,7,0,0,0,1.24.06h1.34v-1h-1.14c-.8,0-1.08,0-1.44,0a14.07,14.07,0,0,0,.05-1.49v-2.71a12.52,12.52,0,0,0-.06-1.6c.46,0,.84.06,1.62.06h3.31a11.75,11.75,0,0,0,1.55-.06c0,.34-.05.91-.05,1.64v2.55a14.87,14.87,0,0,0,.05,1.61,11.14,11.14,0,0,0-1.31,0h-1.38v1h1.54a8.08,8.08,0,0,0,1.27-.06v1.23a9.91,9.91,0,0,0-1.26-.06h-1.55v1.24H252a8,8,0,0,0,1.27-.06v1.28a9.62,9.62,0,0,0-1.35-.06h-5.05a10.13,10.13,0,0,0-1.36.06v-1.28a7.38,7.38,0,0,0,1.21.06h2.15Zm-1.33-6.64v1.2h1.33v-1.2Zm0,2.21v1.21h1.33v-1.21Zm2.53-1h1.39v-1.2h-1.39Zm0,2.22h1.39v-1.21h-1.39Z"/><path class="cls-5" d="M257.87,272.67a4.12,4.12,0,0,0,1.75,1.64,4.53,4.53,0,0,0-.61,1.15,6.19,6.19,0,0,1-1.42-1.53c0,.49.06,1,.06,1.29v.66a8.9,8.9,0,0,0,.05,1.05h-1.34a5.67,5.67,0,0,0,.07-1.05v-.63c0-.47,0-.47,0-.72s0-.13,0-.54a8.39,8.39,0,0,1-1.75,2.32,6.17,6.17,0,0,0-.72-1.11,5.68,5.68,0,0,0,1.27-1.24,5.94,5.94,0,0,0,.79-1.29h-.61a7.69,7.69,0,0,0-1.08.05v-1.27a9.82,9.82,0,0,0,1.1,0h1V271a4.82,4.82,0,0,0-.07-.93h1.35a4.18,4.18,0,0,0-.06,1v.43h.72a9.83,9.83,0,0,0,1,0v1.27a7.72,7.72,0,0,0-1-.05Zm-3.68,7.25a6,6,0,0,0,1.26-2.72l1.14.51a8.82,8.82,0,0,1-1.3,3Zm4.29-.61c0,.23,0,.31.24.36a3.34,3.34,0,0,0,.86.07c1.28,0,1.63,0,1.8-.2s.2-.49.21-1.16a4.15,4.15,0,0,0,1.28.35c-.18,2.13-.3,2.21-3.18,2.21a6.09,6.09,0,0,1-1.89-.16c-.47-.16-.61-.41-.61-1v-1.41a7.16,7.16,0,0,0-.08-1.14h1.43a6.17,6.17,0,0,0-.06,1.14Zm1.21-2.64c0-.32,0-.63,0-1v-4.09c0-.47,0-.83-.05-1.12a9.73,9.73,0,0,0,1.15.05h2.62a9.83,9.83,0,0,0,1.15-.05,8.71,8.71,0,0,0-.05,1.12v4.1a10.12,10.12,0,0,0,.05,1.16l-1.11,0h-2.73c-.29,0-.49,0-.79,0a11.07,11.07,0,0,1,1.34,1.51l-1,.77a8.81,8.81,0,0,0-1.47-1.85Zm1.26-4.4h2.36v-.68H261Zm0,1.72h2.36v-.7H261Zm0,1.73h2.36V275H261Zm3.14,4.88a12.73,12.73,0,0,0-1.68-2.91l1.13-.55a17.14,17.14,0,0,1,1.74,2.72Z"/><path class="cls-5" d="M271.38,277.36c-.68,1.55-1.45,2.25-2.43,2.25-1.37,0-2.36-1.39-2.36-3.32a5.17,5.17,0,0,1,1.32-3.49,5.41,5.41,0,0,1,4.13-1.68c2.88,0,4.75,1.75,4.75,4.45a4.61,4.61,0,0,1-2.91,4.47,8.23,8.23,0,0,1-1.89.51,3.74,3.74,0,0,0-.73-1.4,6.65,6.65,0,0,0,2.39-.66,3.37,3.37,0,0,0,1.66-3,3,3,0,0,0-1.47-2.67,2.7,2.7,0,0,0-1.21-.36A17.44,17.44,0,0,1,271.38,277.36Zm-1.76-4.3A4,4,0,0,0,268,276.3c0,1,.42,1.77.94,1.77s.81-.51,1.24-1.54a15.91,15.91,0,0,0,1-4A3.08,3.08,0,0,0,269.62,273.06Z"/><path class="cls-5" d="M288.29,273.06a2,2,0,0,0-.14.81c0,1.35-.16,3.2-.28,4-.32,2.08-.74,2.57-2.17,2.57a9.79,9.79,0,0,1-1.49-.13,3.66,3.66,0,0,0-.28-1.54,6.38,6.38,0,0,0,1.59.28c.51,0,.69-.27.88-1.31a26,26,0,0,0,.27-3.84h-2.8a8.8,8.8,0,0,1-1,3.43,8.7,8.7,0,0,1-3.24,3.33,4.56,4.56,0,0,0-1.08-1.28,6.68,6.68,0,0,0,3.12-3,5.81,5.81,0,0,0,.61-2.08c0-.17.05-.29.06-.38l-2,0a8.14,8.14,0,0,0-1.29.06V272.5a6.93,6.93,0,0,0,1.33.1l2.1,0c0-.45.06-1.15.06-1.49v-.3a2.07,2.07,0,0,0,0-.47l1.61,0a2.32,2.32,0,0,0,0,.38c0,.07,0,.14,0,.22a7.73,7.73,0,0,0,0,.88c0,.26,0,.37-.05.75h2.66a2.35,2.35,0,0,0,1-.11Z"/><path class="cls-5" d="M300.41,274.36a4.82,4.82,0,0,0-.34.76,8.44,8.44,0,0,1-2.78,4.05,10.5,10.5,0,0,1-3.15,1.63,4.08,4.08,0,0,0-.93-1.39,7.83,7.83,0,0,0,3.33-1.58,6.21,6.21,0,0,0,1.93-2.81h-5.84a11.74,11.74,0,0,0-1.53.06v-1.46a8.76,8.76,0,0,0,1.56.08h5.71a4.93,4.93,0,0,0,1.35-.11Zm-8.29-3.63a7,7,0,0,0,1.4.08h4.19a7.06,7.06,0,0,0,1.4-.08v1.47a8.94,8.94,0,0,0-1.38-.06H293.5a8.94,8.94,0,0,0-1.38.06Z"/><path class="cls-5" d="M312,272.6a2.6,2.6,0,0,0-.37.8,11.93,11.93,0,0,1-6.91,7.66,4.15,4.15,0,0,0-1-1.24A10.81,10.81,0,0,0,308,277a13.41,13.41,0,0,0-2.46-1.7l.92-1.07a17.14,17.14,0,0,1,2.41,1.61A12,12,0,0,0,310.2,273l-3.73,0a12.94,12.94,0,0,1-2.81,3.23,3.84,3.84,0,0,0-1.2-1,10.36,10.36,0,0,0,3-3.43,6.54,6.54,0,0,0,.71-1.67l1.56.35a6.83,6.83,0,0,0-.36.68c-.21.42-.23.47-.29.58l.34,0h.28l2.5,0a5,5,0,0,0,.66-.05,7.4,7.4,0,0,0-.87-1.35l.93-.28a7.54,7.54,0,0,1,1.1,1.86l-.44.15Zm.76-.83a9.11,9.11,0,0,0-1.07-1.84l.89-.28a6.53,6.53,0,0,1,1.1,1.8Z"/><path class="cls-5" d="M314.19,276.12a15.49,15.49,0,0,0,2.61-2.94,3.72,3.72,0,0,1,.74-.75,1.49,1.49,0,0,1,2,.09,7.72,7.72,0,0,1,.81.87,38.52,38.52,0,0,0,3.58,3.67,8,8,0,0,0,1.31,1l-.73,1.7a2.3,2.3,0,0,0-.35-.35c-.62-.55-1.57-1.45-2.45-2.33s-.93-1-2.21-2.43c-.75-.85-.82-.91-1.05-.91s-.31.11-.72.65a33,33,0,0,1-2.36,2.9,1.75,1.75,0,0,0-.25.32Z"/><path class="cls-5" d="M331.38,277.36c-.68,1.55-1.45,2.25-2.43,2.25-1.37,0-2.36-1.39-2.36-3.32a5.17,5.17,0,0,1,1.32-3.49,5.41,5.41,0,0,1,4.13-1.68c2.88,0,4.75,1.75,4.75,4.45a4.61,4.61,0,0,1-2.91,4.47,8.23,8.23,0,0,1-1.89.51,3.74,3.74,0,0,0-.73-1.4,6.65,6.65,0,0,0,2.39-.66,3.37,3.37,0,0,0,1.66-3,3,3,0,0,0-1.47-2.67,2.7,2.7,0,0,0-1.21-.36A17.44,17.44,0,0,1,331.38,277.36Zm-1.76-4.3A4,4,0,0,0,328,276.3c0,1,.42,1.77.94,1.77s.81-.51,1.24-1.54a15.91,15.91,0,0,0,1-4A3.08,3.08,0,0,0,329.62,273.06Z"/><path class="cls-5" d="M251.35,295.53v2c1.15-.18,1.25-.19,2.34-.43v1.15c-1.27.3-2.2.48-4.35.84l-.55.12-.23-1.38h.18c.15,0,.87-.06,1.35-.12v-5.4c0-.15,0-.23,0-.54-.56.28-.83.4-1.5.68a5.73,5.73,0,0,0-.58-1.31,10.39,10.39,0,0,0,4.89-3.08h1.41a8.22,8.22,0,0,0,2.14,1.79,11.81,11.81,0,0,0,2.91,1.26,5.63,5.63,0,0,0-.6,1.33,12.26,12.26,0,0,1-1.58-.71v2.93c0,.24,0,.34,0,.54l.23-.27,1.21.65a17.31,17.31,0,0,1-2.13,1.65,9.82,9.82,0,0,0,2.72.62,6.41,6.41,0,0,0-.61,1.33,9.22,9.22,0,0,1-4.2-1.73,6.72,6.72,0,0,1-1.75-2ZM253,291.1v-.35a2.79,2.79,0,0,0-.06-.72h1.32a4.75,4.75,0,0,0,0,.72v.35H256a11,11,0,0,1-2.43-2,10.65,10.65,0,0,1-2.36,2Zm-1.63,1.68h4.56v-.6h-4.56Zm0,1.69h4.56v-.67h-4.56Zm2.73,1.06a4.32,4.32,0,0,0,1.24,1.16,9.36,9.36,0,0,0,1.54-1.15h-2.78Z"/><path class="cls-5" d="M265,294.1h-2.84a9.12,9.12,0,0,0-1.11,0v-1a8.23,8.23,0,0,0,1.13,0H265v-.45h-2.54c-.44,0-.74,0-1,0,0-.25,0-.5,0-.8v-.79c0-.34,0-.56,0-.84.31,0,.56,0,1,0H265v-.45h-3.29a11.13,11.13,0,0,0-1.4.07v-1.19a10.8,10.8,0,0,0,1.47.07H265a5,5,0,0,0-.07-.81h1.45a3.71,3.71,0,0,0-.09.81h3.37a11,11,0,0,0,1.48-.07V290a11.24,11.24,0,0,0-1.4-.07h-3.45v.45H269c.46,0,.72,0,1,0,0,.26,0,.46,0,.84v.79c0,.36,0,.54,0,.8-.26,0-.57,0-1,0h-2.76v.45h2.69c.71,0,.95,0,1.28,0a9.63,9.63,0,0,0,0,1.09v.42a7.66,7.66,0,0,0,1-.06v1.14a6.54,6.54,0,0,0-1-.06v.69a8.76,8.76,0,0,0,.06,1.3h-1.35v-.47h-2.65v.67c0,1.08-.3,1.31-1.76,1.31-.29,0-.77,0-1.15,0a3.35,3.35,0,0,0-.37-1.19,14.19,14.19,0,0,0,1.52.11c.37,0,.47-.06.47-.28v-.57h-2.82a7.93,7.93,0,0,0-1.19.06v-1.12a8,8,0,0,0,1.14.05H265v-.51h-3.44a8.28,8.28,0,0,0-1.32.06v-1.14a9.3,9.3,0,0,0,1.29.06H265Zm-2.24-2.83v.49H265v-.49Zm3.53.49h2.41v-.49h-2.41Zm2.65,2.87v-.53h-2.65v.53Zm-2.65,1.53h2.65v-.51h-2.65Z"/><path class="cls-5" d="M278.05,291.4a7.51,7.51,0,0,0-.05,1,6.51,6.51,0,0,1-1.18,4.25,7,7,0,0,1-3.1,2.16,4.28,4.28,0,0,0-.94-1.37,5.44,5.44,0,0,0,2.09-1c1.23-1,1.61-2,1.61-4.27a2.93,2.93,0,0,0-.06-.72Zm4.87-1.51a3.21,3.21,0,0,0-.48.84,7.43,7.43,0,0,1-1.85,2.41,7.14,7.14,0,0,1-1.43,1,4.29,4.29,0,0,0-1.08-1.09,5.65,5.65,0,0,0,1.75-1.1,5.19,5.19,0,0,0,1.14-1.52h-6.3a11.55,11.55,0,0,0-1.63.07V289a9.62,9.62,0,0,0,1.65.1H281a3.5,3.5,0,0,0,1.17-.11Z"/><path class="cls-5" d="M286.67,298.69a8.48,8.48,0,0,0,.07-1.34v-7.69a7.46,7.46,0,0,0-.07-1.22h1.64a11.05,11.05,0,0,0-.05,1.26v2.23a34,34,0,0,1,5.45,2.53l-.84,1.41a29.08,29.08,0,0,0-4.25-2.29,3.34,3.34,0,0,1-.4-.2c0,.34,0,.54,0,.81v3.17c0,.65,0,1,.05,1.33Zm4.94-9.63a8,8,0,0,1,1.26,1.76l-.84.45a8.32,8.32,0,0,0-1.26-1.79Zm1.86,1.45a9.3,9.3,0,0,0-1.22-1.74l.8-.42a7,7,0,0,1,1.25,1.7Z"/><path class="cls-5" d="M300.66,289.47a.93.93,0,0,0-.06.24l0,.2-.06.35,0,.29c-.5,3.44-1.44,5.8-3.05,7.65a5.14,5.14,0,0,0-1.36-1,8,8,0,0,0,1.71-2.56,14.32,14.32,0,0,0,1.13-4.11,9.23,9.23,0,0,0,.11-1.16v-.17Zm3.41-.3a14.31,14.31,0,0,0,.5,2.76,11.59,11.59,0,0,0,2.68,5.18,4.75,4.75,0,0,0-1.32,1.1,15.73,15.73,0,0,1-3.18-7.89,4.75,4.75,0,0,0-.17-.86Zm1-.72a7.31,7.31,0,0,1,1,1.93l-.91.29a8.36,8.36,0,0,0-1-2Zm1.65,1.74a8.44,8.44,0,0,0-1-1.9l.89-.25a7.21,7.21,0,0,1,1,1.86Z"/><path class="cls-5" d="M318.24,289.37a4.55,4.55,0,0,0-.45.42,20.61,20.61,0,0,1-2.83,2.47v5.12a9,9,0,0,0,.06,1.34h-1.68a6.62,6.62,0,0,0,.08-1.3V293.2a19.52,19.52,0,0,1-4.29,1.94,4.35,4.35,0,0,0-.8-1.36,17.64,17.64,0,0,0,6.3-3.12,9.58,9.58,0,0,0,2.23-2.25Z"/><path class="cls-5" d="M329.73,298.55a22.2,22.2,0,0,0-3.68-3.56,14.15,14.15,0,0,1-4.57,3.46,4.83,4.83,0,0,0-1-1.33,9.85,9.85,0,0,0,2.4-1.32,11.57,11.57,0,0,0,4-4.88l.13-.31-4,.07a9.21,9.21,0,0,0-1.31.1l0-1.54a5.18,5.18,0,0,0,1.05.07h.29l4.22-.06a2.56,2.56,0,0,0,1.07-.13l.79.82a2.12,2.12,0,0,0-.38.64,16.07,16.07,0,0,1-1.87,3.31,19.41,19.41,0,0,1,2.21,1.74c.3.27.3.27,1.75,1.67Z"/><rect class="cls-6" x="49.38" y="115.49" width="52.5" height="15.33" transform="translate(-64.93 89.55) rotate(-45)"/><polygon class="cls-6" points="101.72 118.36 104.39 94.4 80.42 97.07 101.72 118.36"/><rect class="cls-6" x="243.9" y="92.13" width="15.33" height="52.5" transform="translate(-10.02 212.56) rotate(-45)"/><polygon class="cls-6" points="256.36 144.46 280.32 147.13 277.65 123.17 256.36 144.46"/><rect class="cls-6" x="152.28" y="204.32" width="52.5" height="15.33"/><polygon class="cls-6" points="156.69 196.93 137.86 211.98 156.69 227.04 156.69 196.93"/><path class="cls-7" d="M143.89,31.15h1.87v4.29a2.55,2.55,0,0,0,2.57,2.18c.38,0,1.43-.11,1.43-.28V38.4a2.52,2.52,0,0,0,5,0V31.15h1.56l2.44-1.82V27.15h-4V21.23a2.52,2.52,0,0,0-5,0v1.06c0-.17-1-.28-1.43-.28a2.55,2.55,0,0,0-2.57,2.18v3h-1.87a2,2,0,0,0,0,4Z"/><path class="cls-7" d="M188.16,27.15h-2.4v-3A2.56,2.56,0,0,0,183.18,22c-.37,0-1.42.11-1.42.28V21.23a2.52,2.52,0,0,0-5,0v6.3h0v4.19h0V38.4a2.52,2.52,0,0,0,5,0V37.34c0,.17,1.05.28,1.43.28a2.55,2.55,0,0,0,2.57-2.18V31.15h2.4a2,2,0,0,0,0-4Z"/><path class="cls-7" d="M162.26,20.8a1.52,1.52,0,0,0-1.5,1.67v6.8l-3,2.84a4,4,0,0,0-.44,4.92l2,2.76a7.33,7.33,0,0,1,1.3,3.52,3.09,3.09,0,0,0,3.31,2.84h6.6a3.27,3.27,0,0,0,3.22-3.37v-.73a15.13,15.13,0,0,1,1.29-4.36A6.84,6.84,0,0,0,175.5,36a5.86,5.86,0,0,0-.53-2.19s-.21-.09-.21-.14V25.46a1.51,1.51,0,1,0-3,0v4.61a8.75,8.75,0,0,0-1.9-.37,8.22,8.22,0,0,0-4,.92,2.46,2.46,0,0,0-1.33,1.79,3.28,3.28,0,0,0,.86,2.76c.11.11.22.24.32.36l0,0a9,9,0,0,1-3.13-3l2.17-3.26c.28-.36.89-1.12,1.35-1.12h3.84c.92,0,1.61-.29,1.61-1.21,0-.56-.76-.6-.76-.9V23.52a1.51,1.51,0,1,0-3,0v1.63h-1V23.52a1.51,1.51,0,1,0-3,0v2.29s-.06.09-.17.15h.17V22.47a1.53,1.53,0,0,0-1.5-1.67Z"/><path class="cls-7" d="M173.76,53.45V50.1c0-1.38-.59-2-2-2H162c-1.39,0-2.19.57-2.19,2v3.35c0,1.39.8,2.7,2.19,2.7h9.84c1.38,0,2-1.31,2-2.7Z"/><path class="cls-7" d="M286.43,178a7.58,7.58,0,1,1-7.58-7.57,7.58,7.58,0,0,1,7.58,7.57Z"/><path class="cls-7" d="M309.17,176.08a1.9,1.9,0,1,1-1.9-1.89,1.9,1.9,0,0,1,1.9,1.89Z"/><path class="cls-7" d="M296.58,197.77l-6.43-9.45c-.93-.92-5.35-.89-6-.89l-5.29,20.85-5.11-20.84a23.27,23.27,0,0,0-4,.26v26.45h20V198.09l4.85,6.16a2.85,2.85,0,0,0,2.06.89,3,3,0,0,0,2.11-.89l6.51-9c1.19-1.2,7.66-2.09,7.66-4.09H301.59Z"/><path class="cls-7" d="M317.69,185.15h-1.14a9.47,9.47,0,0,0-18.56,0h-1.14c-.52,0-1.09.82-1.09,1.35v1.9c0,.52.57.75,1.09.75h20.84c.52,0,1.07-.23,1.07-.75v-1.9c0-.53-.55-1.35-1.07-1.35Z"/><path class="cls-7" d="M88.54,200.83c-1.34-2.62-2.69-5.24-4-7.87a6.08,6.08,0,0,1-2.91,5l.89,1.72H74.73a5.59,5.59,0,0,0-.78-3.2,2.42,2.42,0,0,0-.24-.52c-3.25-5.52-9.27-6.11-15-7.07-3.06-.51-4.37,4.16-1.29,4.68,1.43.24,3,.4,4.56.67H50.42l-4.52-4.08a2.45,2.45,0,0,0-3.43,0l-7.08,8.09a2.41,2.41,0,0,0-.62,1.4H31.18c-3.14,0-3.14,4.85,0,4.85H49.63v0H69.72l.35,0H86.43a2.21,2.21,0,0,0,2.23-1.66,2.39,2.39,0,0,0-.12-2Zm-47.94-1.2,3.78-4.33,4.36,3.93a2.79,2.79,0,0,0,.59.4Z"/><path class="cls-7" d="M83.59,192a5.16,5.16,0,1,1-5.15-5.16A5.16,5.16,0,0,1,83.59,192Z"/></g></g></svg>