<svg xmlns="http://www.w3.org/2000/svg" width="414" height="354.8" viewBox="0 0 414 354.8"><defs><style>.cls-1{fill:#999;}</style></defs><title>diet</title><g id="レイヤー_2" data-name="レイヤー 2"><g id="レイヤー_1-2" data-name="レイヤー 1"><path class="cls-1" d="M406.13,62.11H318.6c13.3-30,30.12-48.84,30.27-49A7.82,7.82,0,0,0,337.33,2.49c-.92,1-21.1,23.41-35.77,59.62H151.81A7.87,7.87,0,0,0,144,70V170.29a7.83,7.83,0,0,0,7.8,7.78h140.5a203,203,0,0,0,26.6,60.87c2.75,4.19,6,9.38,9.32,15-38,15.29-80.79,23.54-124.36,23.54h-.08c-45.18,0-89.36-8.86-128.42-25.22,3-4.89,5.89-9.46,8.33-13.28C164.42,113.56,66.28,3.64,65.28,2.49A7.92,7.92,0,0,0,54.2,2.05a7.82,7.82,0,0,0-.46,11c3.74,4.11,90.89,102.26,16.82,217.38C55.34,254,27.14,297.78,31.88,347.7a7.86,7.86,0,0,0,7.79,7.1,2.53,2.53,0,0,0,.77-.08,7.73,7.73,0,0,0,7-8.48c-2.83-30,8.18-58.17,20-80.18,41.35,17.67,88.36,27.06,136.29,27.06h.08c46.24,0,91.8-8.87,132.16-25.38,11.47,21.73,21.86,49.25,19.11,78.5a7.73,7.73,0,0,0,7,8.48,2.28,2.28,0,0,0,.77.08,7.74,7.74,0,0,0,7.72-7.1c4.81-49.92-23.47-93.72-38.6-117.34a187.42,187.42,0,0,1-23.62-52.29h97.69a7.9,7.9,0,0,0,7.87-7.85V69.93a7.86,7.86,0,0,0-7.87-7.82Zm-7.8,100.29H382v-32a7.84,7.84,0,0,0-15.67,0v32H344.44v-32a7.8,7.8,0,1,0-15.59,0v32H307v-32a7.84,7.84,0,0,0-15.67,0v32H269.45v-32a7.84,7.84,0,0,0-15.67,0v32H232v-32a7.84,7.84,0,0,0-15.67,0v32H194.46v-32a7.83,7.83,0,0,0-15.66,0v32H159.61V77.78H398.33ZM201.27,243.51a16.55,16.55,0,1,1,16.51-16.59,16.61,16.61,0,0,1-16.51,16.59ZM26.53,141.15V124.51H0V82.92H26.53V66.17L64.06,103.7Z"/></g></g></svg>