<svg xmlns="http://www.w3.org/2000/svg" width="264" height="400" viewBox="0 0 264 400"><defs><style>.cls-1{fill:#999;}</style></defs><title>sleep_img</title><g id="レイヤー_2" data-name="レイヤー 2"><g id="レイヤー_1-2" data-name="レイヤー 1"><path class="cls-1" d="M254.39,0H9.61A9.64,9.64,0,0,0,0,9.65v380.7A9.64,9.64,0,0,0,9.61,400H254.39a9.64,9.64,0,0,0,9.61-9.65V9.65A9.64,9.64,0,0,0,254.39,0Zm-9.61,380.76H19.23V19.3H244.78ZM106.69,199.08a15.81,15.81,0,0,0-5.2-2.35,11.84,11.84,0,0,1,22.07-3.3,122.3,122.3,0,0,0,7,11.08c-.47,3-.94,5.59-1.46,7.7a165.05,165.05,0,0,1-22.4-13.13ZM49.22,110.65a20.52,20.52,0,0,0,1.59,9l19.41,45.79a20.66,20.66,0,0,0,5.39,7.44c-2.43,7.39-1.79,14.21,1.92,15.71s9-3,12.32-10.25a20.52,20.52,0,0,0,8.07-1.7l40-17c-.19.38-.57.67-.75,1-2.07,2.54-2.77,5.27-2.72,9.27,0,.19.51,7.72,1.17,11.63,2.72,15.62.75,30.87-1.36,36.85-6-1.27-18.75-6.69-29.49-12.76a12,12,0,0,0-11.76,21c25.45,14.36,38.91,16.71,46.22,16a17.19,17.19,0,0,0,7.31-2.42c5-3,8.44-8.42,10.64-15.25l12.14,23.54-27.14,11.73a14.47,14.47,0,0,0-6.65,20.65l30.75,51.91a14.42,14.42,0,0,0,13.78,7,14.37,14.37,0,0,0,11-21.74l-22.36-37.73,42.79-18.51a14.39,14.39,0,0,0,7.5-19c-.46-1.21-2.86-5.93-3.65-7.43L179.91,167c-4.64-8.94-12.24-15-20-16.74l20.2-8.62a21,21,0,0,0,6.8-4.66c7.41,2.54,14.39,1.93,15.89-1.83s-2.95-8.94-9.89-12.29a21.16,21.16,0,0,0-1.64-9L171.89,68a20.26,20.26,0,0,0-5.44-7.44c2.44-7.39,1.83-14.2-1.87-15.71S155.53,48,152.2,55.11a20.93,20.93,0,0,0-8.11,1.7L62,91.82a20.51,20.51,0,0,0-6.79,4.71C47.76,94,40.82,94.6,39.32,98.36s2.92,9,9.9,12.29Zm83-12.76a28.73,28.73,0,1,1-25.73,31.4,28.65,28.65,0,0,1,25.73-31.4Z"/></g></g></svg>