<svg xmlns="http://www.w3.org/2000/svg" xmlns:xlink="http://www.w3.org/1999/xlink" width="745.6" height="334.96" viewBox="0 0 745.6 334.96"><defs><style>.cls-1{fill:#fff;}.cls-2{clip-path:url(#clip-path);}.cls-3,.cls-6,.cls-8{fill:none;}.cls-3,.cls-8{stroke:#231815;stroke-width:0.75px;}.cls-3{stroke-miterlimit:8;}.cls-4{fill:#231815;}.cls-5{fill:#888;}.cls-6{stroke:#888;stroke-linecap:round;stroke-linejoin:round;stroke-width:4px;}.cls-7{fill:#cf121b;}.cls-8{stroke-miterlimit:10;}</style><clipPath id="clip-path"><rect class="cls-1" x="33.73" y="39.96" width="700" height="295"/></clipPath></defs><title>access_map</title><g id="レイヤー_2" data-name="レイヤー 2"><g id="レイヤー_1-2" data-name="レイヤー 1"><rect class="cls-1" x="33.73" y="39.96" width="700" height="295"/><g class="cls-2"><rect class="cls-3" x="34.92" y="301.11" width="697.63" height="3.67"/><rect class="cls-4" x="34.92" y="301.11" width="26.85" height="3.67"/><rect class="cls-4" x="88.61" y="301.11" width="26.84" height="3.67"/><rect class="cls-4" x="142.29" y="301.11" width="26.84" height="3.67"/><rect class="cls-4" x="195.98" y="301.11" width="26.85" height="3.67"/><rect class="cls-4" x="249.67" y="301.11" width="26.84" height="3.67"/><rect class="cls-4" x="303.36" y="301.11" width="26.84" height="3.67"/><rect class="cls-4" x="357.05" y="301.11" width="26.84" height="3.67"/><rect class="cls-4" x="410.74" y="301.11" width="26.84" height="3.67"/><rect class="cls-4" x="464.43" y="301.11" width="26.84" height="3.67"/><rect class="cls-4" x="518.12" y="301.11" width="26.84" height="3.67"/><rect class="cls-4" x="571.8" y="301.11" width="26.84" height="3.67"/><rect class="cls-4" x="625.49" y="301.11" width="26.84" height="3.67"/><rect class="cls-4" x="679.18" y="301.11" width="26.84" height="3.67"/><rect class="cls-4" x="526.43" y="277.99" width="146.38" height="45.89"/><path class="cls-1" d="M556.19,305.56c0,5-2.39,6.55-5.53,6.55a7,7,0,0,1-2.45-.42l.31-1.75a5.83,5.83,0,0,0,2,.34c2.27,0,3.55-1,3.55-4.9V292.2h2.14Z"/><path class="cls-1" d="M568,302.4c1.52.49,2.42,2,2.89,4.09a27.81,27.81,0,0,0,1.44,5.31h-2.21a26,26,0,0,1-1.27-4.74c-.56-2.73-1.64-3.94-4-3.94H562.5v8.68h-2.14V292.45a23.83,23.83,0,0,1,4.45-.41c2.55,0,4.22.52,5.38,1.6a4.94,4.94,0,0,1,1.47,3.66,5.15,5.15,0,0,1-3.66,5Zm-3-.93c2.73,0,4.48-1.55,4.48-3.92,0-2.91-2.19-3.81-4.58-3.81a11.52,11.52,0,0,0-2.42.21v7.52Z"/><path class="cls-1" d="M586.66,305v6.6h10.4v1.54H574.72v-1.54h10.14V305h-9v-1.54h9v-3.61h-5.53v-1.47a37.64,37.64,0,0,1-4.38,2.94,10.46,10.46,0,0,0-1.08-1.37,30.1,30.1,0,0,0,11-10l2.52.16a.61.61,0,0,1-.52.38A32.91,32.91,0,0,0,598,299.59a9.48,9.48,0,0,0-1.15,1.52,36.53,36.53,0,0,1-11-9.38,29.55,29.55,0,0,1-6.3,6.52H592.4v1.57h-5.74v3.61h9.19V305Zm-6.07,6.16a18,18,0,0,0-2.42-4.87l1.41-.54a16.64,16.64,0,0,1,2.53,4.76Zm13.23-4.64c-.08.16-.28.23-.57.21a37.68,37.68,0,0,1-3,4.48l-1.28-.64a31,31,0,0,0,2.88-4.9Z"/><path class="cls-1" d="M611.76,291.4v17.67H602v2h-1.52V291.4ZM605.35,293H602v6.31h3.32ZM602,300.83v6.67h3.32v-6.67Zm8.16-1.55V293h-3.4v6.31Zm-3.4,8.22h3.4v-6.67h-3.4Zm17-14.27v1.67H620v16.69c0,2.37-1.06,2.4-6.16,2.4a7.73,7.73,0,0,0-.64-1.75c1,0,1.93.05,2.73.05,2.32,0,2.32,0,2.32-.7V294.9h-6v-1.67Z"/><path class="cls-1" d="M627.56,306.23c-.13,2.37-.41,4.95-1.44,6.39l-1-.59c.92-1.37,1.23-3.71,1.33-6Zm8.06-3.27.82.13,0,.52c-.36,6.64-.65,8.93-1.32,9.71-.49.56-1,.69-2.16.69-.49,0-1.08,0-1.67-.05a4,4,0,0,0-.41-1.44c1,.08,1.85.1,2.21.1.75,0,1.13-.1,1.49-3.76l-.87.39a15.54,15.54,0,0,0-1.57-3.45l.87-.34a16.66,16.66,0,0,1,1.55,3.25h0c.11-1.11.21-2.5.31-4.25h-6.74v.67h-1.5v-14h9.61v1.49h-3.92v2.48h3.38v1.41h-3.38V299h3.38v1.42h-3.38V303h2.94Zm-4.79-10.33h-2.7v2.48h2.7Zm0,6.39v-2.5h-2.7V299Zm-2.7,1.42V303h2.7v-2.57Zm.54,10.92a26.92,26.92,0,0,0-.39-4.82l1-.13a25.35,25.35,0,0,1,.47,4.8Zm2.47-5.31a16.72,16.72,0,0,1,1.16,4.18l-1,.25a18.34,18.34,0,0,0-1.08-4.22Zm17.25-4.37h-4.28c.8,5,2.4,9.06,5.43,11a6.07,6.07,0,0,0-1.18,1.42c-3.29-2.37-5-6.8-5.79-12.41h-2.63c-.05,3.91-.49,9-3,12.33a6.38,6.38,0,0,0-1.39-.9c2.5-3.4,2.73-8.27,2.73-12.05v-9.92h10.07Zm-1.6-8.92h-6.85v7.29h6.85Z"/><rect class="cls-5" x="548.05" y="214.39" width="103.85" height="63.6"/><path class="cls-1" d="M583.77,241.24V235l2.29.16c0,.18-.18.31-.51.36v22.69h-1.78v-6c-2.39,1-4.76,2-6.36,2.68a.47.47,0,0,1-.31.44l-.92-2c1.93-.65,4.76-1.75,7.59-2.89v-7.54H577v-1.7Zm8.08,13.26c0,1.34.26,1.62,1.42,1.62h4.06c1.27,0,1.45-1.13,1.63-5.48a4.44,4.44,0,0,0,1.67.8c-.23,4.74-.7,6.38-3.19,6.38h-4.33c-2.34,0-3-.72-3-3.34V235l2.31.16c0,.18-.18.31-.54.36v8.37a39.45,39.45,0,0,0,6.69-4.87l1.5,1.62a.41.41,0,0,1-.31.11.58.58,0,0,1-.23,0,55.24,55.24,0,0,1-7.65,4.95Z"/><path class="cls-1" d="M604.08,236.81h20.28v21.32h-1.85v-2.21H605.85v2.34h-1.77Zm1.77,17.36h16.66V238.53H605.85Z"/><path class="cls-6" d="M548.05,250.61H318.92c-26.19,0-95.26-45.08-95.26-45.08L46.26,30"/><path class="cls-4" d="M290.55,269.94a8,8,0,1,1-8-8.05A8,8,0,0,1,290.55,269.94Z"/><path class="cls-4" d="M542.42,267.52a8,8,0,1,1-8-8A8,8,0,0,1,542.42,267.52Z"/><path class="cls-4" d="M419.3,231.3a8,8,0,1,1-8-8.06A8,8,0,0,1,419.3,231.3Z"/><path class="cls-4" d="M204.46,152.67a8,8,0,1,1-8.05-8A8,8,0,0,1,204.46,152.67Z"/><path class="cls-7" d="M166.63,109.07A11.67,11.67,0,1,1,155,97.4,11.67,11.67,0,0,1,166.63,109.07Z"/><path class="cls-4" d="M312.44,272.38l.29,0,.75.13-.06.41c-.29,4.13-.58,5.68-1.12,6.26s-1.08.52-1.87.52c-.48,0-1.1,0-1.72-.06a2.39,2.39,0,0,0-.27-1,2.35,2.35,0,0,1-1.37.29h-4.38c-2,0-2.51-.31-2.51-1.65v-2.74a18.12,18.12,0,0,1-2.7,2,3.42,3.42,0,0,0-.89-.89,15.24,15.24,0,0,0,4.87-4.4H299.6v-5.51h12.53v5.51h-8.9a.6.6,0,0,1-.31.09c-.23.35-.48.7-.77,1.06Zm-2.67-9.11h4.68v1.14h-4.68v1H308.5v-1H303v1h-1.28v-1h-4.49v-1.14h4.49v-1.59l1.66.1c0,.13-.13.23-.38.27v1.22h5.46v-1.59l1.66.1c0,.13-.12.23-.39.27Zm-8.91,3.36V268h10v-1.39Zm0,2.26v1.43h10v-1.43Zm.52,8.34c0,.51.17.6,1.35.6H307c.79,0,.94-.17,1-1.37a3.64,3.64,0,0,0,1.08.43,2.78,2.78,0,0,1-.48,1.56c.85.06,1.62.08,1.93.08s.52,0,.67-.2c.37-.36.64-1.66.87-4.88H301.22l-.32.34.83.06c0,.14-.1.23-.35.25v1.39a33.53,33.53,0,0,0,5.88-1.33l1,.89a.34.34,0,0,1-.2.06.47.47,0,0,1-.15,0,42.09,42.09,0,0,1-6.56,1.31Z"/><path class="cls-4" d="M318.66,276.9l3.08-.71a19.19,19.19,0,0,0-1.48-1.8l1-.54a18.13,18.13,0,0,1,3.17,4.29l-1.07.62a14.69,14.69,0,0,0-.92-1.64c-2,.56-4.07,1.1-5.42,1.43a.35.35,0,0,1-.24.29l-.61-1.39,1.33-.29V267.11c-.2.19-.39.39-.58.56a3.43,3.43,0,0,0-.95-.83,17,17,0,0,0,4-5.18l1.54.23c0,.16-.15.24-.36.26a23.74,23.74,0,0,1,3.33,3l-.92.85a22,22,0,0,0-3-2.9,23.87,23.87,0,0,1-2.78,3.71H320V265l1.48.09c0,.14-.11.22-.36.25v1.51h2.47v6.3h-4.88Zm3.68-9.06h-3.68v1.59h3.68Zm-3.68,4.25h3.68v-1.66h-3.68ZM334,265.68h-4.19v2.8h3.57v6.92c0,1.12-.48,1.31-2.26,1.31a4.11,4.11,0,0,0-.38-1.1c1.35,0,1.41,0,1.41-.21v-5.72h-2.34v9.95h-1.24v-9.95H326.4v7.09h-1.2V268.5c-.18.27-.35.54-.54.79a8.2,8.2,0,0,0-.85-.92,18.93,18.93,0,0,0,2.57-6.71l1.58.43c0,.13-.18.21-.41.21-.17.73-.38,1.47-.59,2.18H334Zm-5.43,2.8v-2.8h-2.08a16.55,16.55,0,0,1-1.33,2.8Z"/><path class="cls-4" d="M339.27,273.62l2.24-.89.25,1.12c-2,.93-4.15,1.84-5.5,2.42a.35.35,0,0,1-.21.33l-.68-1.47c.73-.25,1.66-.62,2.67-1v-6.41H335.7v-1.24H338v-4.61l1.62.11c0,.14-.14.21-.39.25v4.25h2.18v1.24h-2.18Zm5.06,3.09c0,1.06.25,1.31,1.6,1.31h4.92c1.16,0,1.35-.54,1.51-2.85a3.46,3.46,0,0,0,1.18.52c-.22,2.66-.64,3.51-2.67,3.51h-5c-2.18,0-2.8-.48-2.8-2.51v-6.51l-1.95.83-.5-1.16,2.45-1v-5.29l1.62.11c0,.14-.13.24-.38.27v4.37l2.8-1.2v-5.39l1.6.1c0,.13-.12.23-.37.27v4.5l3.09-1.33.27-.22,1.06.39a.35.35,0,0,1-.19.21,72.9,72.9,0,0,1-.21,7.46c-.18,1.18-.83,1.37-2.88,1.37a4.31,4.31,0,0,0-.31-1.16c.48,0,1.16,0,1.37,0s.52-.1.62-.56a59,59,0,0,0,.15-6.12l-3,1.27v7.42h-1.23v-6.88l-2.8,1.2Z"/><path class="cls-4" d="M372.55,277.25v1.24h-15.4v1.18h-1.3V262.92h16.27v1.25h-15v13.08Zm-12.41-10.83a53.84,53.84,0,0,1,4.71,3.16,29.5,29.5,0,0,0,3.09-4.67c.88.38,1.23.52,1.56.65-.06.14-.25.2-.48.16a32.94,32.94,0,0,1-3.15,4.64,32.79,32.79,0,0,1,4.52,4.11l-1,1a29.24,29.24,0,0,0-4.3-4.1,29.58,29.58,0,0,1-5.54,4.93,9.3,9.3,0,0,0-1-.89,26.63,26.63,0,0,0,5.56-4.85,54.13,54.13,0,0,0-4.79-3.3Z"/><path class="cls-4" d="M390.81,266.63a.7.7,0,0,1-.31.23,20.48,20.48,0,0,1-4,6.3,9.13,9.13,0,0,0-1.16-.7,13.9,13.9,0,0,0,3.3-4.79l-7.39,1.93v5c0,1.89,1.14,2.53,2.68,2.53h3.15a26.89,26.89,0,0,0,2.87-.22c0,.43,0,.95,0,1.36-.77.09-2.12.15-2.86.15h-3.22c-2.43,0-4.05-1.14-4.05-3.8V270L375,271.21l-.32-1.3,5.19-1.29v-5.88l1.87.08c0,.23-.21.35-.48.39v5l8.16-2.11.21-.15Z"/><path class="cls-4" d="M394.34,263.79a24,24,0,0,1,5.76,2.63l-.74,1.21a24.54,24.54,0,0,0-5.63-2.68Zm-.07,13.38c6.85-2.12,11.4-6,13.72-11.31a8.71,8.71,0,0,0,1.26.79c-2.42,5.29-7.13,9.4-13.67,11.59a.66.66,0,0,1-.27.44Z"/><path class="cls-4" d="M425,265.49a.35.35,0,0,1-.23.21,25.16,25.16,0,0,1-2.84,6.39c.83.49,1.78,1.09,2.49,1.61l-.81,1.27c-.7-.54-1.68-1.18-2.49-1.68a18.2,18.2,0,0,1-7,5.87,4.05,4.05,0,0,0-1.06-1,18.18,18.18,0,0,0,6.83-5.56,31.49,31.49,0,0,0-4.26-2l.73-1.08a32,32,0,0,1,4.34,1.95,19.82,19.82,0,0,0,2.34-5.12h-6.54a20.93,20.93,0,0,1-4.46,5.31,11.1,11.1,0,0,0-1.1-.87,20.06,20.06,0,0,0,6.08-8.71l1.83.42c-.08.22-.27.27-.52.25-.27.64-.72,1.59-1.08,2.3h6.41l.27-.07Z"/><path class="cls-4" d="M428.55,269.62h16.12V271H429.28a.85.85,0,0,1-.61.37Z"/><path class="cls-4" d="M52.16,328h8.15v1.24H42.86V328h8v-4H44.57v-1.22h6.26v-2.9l1.72.12c0,.13-.14.23-.39.27v2.51h6.52V324H52.16ZM58.9,321a17.2,17.2,0,0,0-1.37-1.45c-4.79.2-10,.37-13.09.45a.39.39,0,0,1-.31.27l-.44-1.59c.86,0,1.89,0,3,0a33.34,33.34,0,0,0,2.1-4H43.28v-1.22H60v1.22H50.77c-.08.11-.21.15-.43.15a39.23,39.23,0,0,1-2.14,3.79c2.47,0,5.31-.12,8.11-.2-1-.81-2-1.62-2.91-2.29l1.06-.74A32.3,32.3,0,0,1,60,320.16Z"/><path class="cls-4" d="M71.41,327.66c0,1,0,1.33,1.44,1.33h4.54c.94,0,1.12-.39,1.23-2.16a4.32,4.32,0,0,0,1.16.46c-.17,2.09-.56,2.72-2.35,2.72H72.78c-2.32,0-2.67-.59-2.67-2.35H64.8v1.08H63.55V322h6.56v-1H64.46v-4.27c-.51.35-1,.7-1.61,1a4.75,4.75,0,0,0-.92-.87,13.76,13.76,0,0,0,5.34-4.79l1.63.27c0,.13-.16.23-.41.23l-.48.67h4.61l.19-.05,1,.61a.3.3,0,0,1-.27.16,11.16,11.16,0,0,1-1.14,1.6h4.88V321H71.41v1h6.92v5.66Zm-1.3-4.72H64.8v1.43h5.31Zm-5.31,3.77h5.31v-1.45H64.8Zm5.31-8.83v-1.37H65.69v1.37Zm-4.42,2.26h4.42v-1.41H65.69Zm5.19-4.52a8.1,8.1,0,0,0,1-1.29H67.18c-.39.42-.83.87-1.29,1.29ZM76,317.88v-1.37H71.41v1.37Zm0,2.26v-1.41H71.41v1.41Zm1.1,2.8H71.41v1.43h5.65Zm-5.65,3.77h5.65v-1.45H71.41Z"/><path class="cls-4" d="M98.74,316H88.22c-.37.81-.77,1.6-1.22,2.38h9.33v10c0,1.64-.78,1.68-4.23,1.68a4.93,4.93,0,0,0-.44-1.29c.67,0,1.31,0,1.83,0,1.39,0,1.54,0,1.54-.43v-2.2H86.87v3.9h-1.3v-9.56A16.4,16.4,0,0,1,82.12,324a8.35,8.35,0,0,0-.87-1.05A17.25,17.25,0,0,0,86.73,316H81.66v-1.26h5.61a21.46,21.46,0,0,0,.85-2.57l1.68.43c0,.13-.19.21-.42.21-.2.64-.41,1.28-.66,1.93h10ZM95,321.71v-2.17H86.87v2.17Zm-8.16,3.34H95v-2.2H86.87Z"/><path class="cls-4" d="M683.08,328h8.14v1.24H673.77V328h8v-4h-6.25v-1.22h6.25v-2.9l1.72.12c0,.13-.13.23-.38.27v2.51h6.52V324h-6.52Zm6.73-7.05a15.71,15.71,0,0,0-1.37-1.45c-4.79.2-9.94.37-13.09.45a.37.37,0,0,1-.31.27l-.44-1.59c.87,0,1.89,0,3,0a32,32,0,0,0,2.11-4H674.2v-1.22h16.71v1.22h-9.23c-.07.11-.21.15-.42.15a39.23,39.23,0,0,1-2.14,3.79c2.47,0,5.31-.12,8.1-.2-.94-.81-2-1.62-2.91-2.29l1.06-.74a32.3,32.3,0,0,1,5.58,4.79Z"/><path class="cls-4" d="M697.28,319.47c.62.67,2.32,2.84,2.72,3.38l-.83,1a32.66,32.66,0,0,0-1.89-2.88v9.08H696v-9.62a21.75,21.75,0,0,1-2.76,5.93,5,5,0,0,0-.72-1.16,21.34,21.34,0,0,0,3.32-7.61H693v-1.22h3v-4.24l1.62.11c0,.14-.12.21-.37.25v3.88h2.61v1.22h-2.61Zm7.14-6.63c0,.14-.17.21-.4.19a19.82,19.82,0,0,1-3.44,7.58,6.66,6.66,0,0,0-1-.8,17.19,17.19,0,0,0,3.22-7.41Zm1.49,7.44a.53.53,0,0,1-.46.23,74.6,74.6,0,0,1-2.7,7.36c1.77-.08,3.82-.17,5.86-.29a34.38,34.38,0,0,0-2.16-3.65l1.12-.54a34.81,34.81,0,0,1,3.4,6.12l-1.22.64a13.93,13.93,0,0,0-.6-1.43l-8.84.6a.38.38,0,0,1-.29.27l-.46-1.6,1.85-.08a51.67,51.67,0,0,0,2.74-8.15Zm1.7-7.92a22.59,22.59,0,0,0,3.36,7.16,6.19,6.19,0,0,0-1.06,1.05,29.33,29.33,0,0,1-3.48-7.83Z"/><path class="cls-4" d="M728,316.88v7.86h-1.31v-1H715.78a10.78,10.78,0,0,1-2.74,6.49,4.55,4.55,0,0,0-1-.89c2.3-2.3,2.57-5.51,2.57-8v-4.46Zm-15.38-3.5h16.91v1.26H712.65Zm14.07,4.71H715.89v3.25c0,.37,0,.73,0,1.12h10.85Z"/><path class="cls-4" d="M224.31,156.43h-5.23a19.1,19.1,0,0,0,7.24,4.52,6.47,6.47,0,0,0-.91,1.12,20.74,20.74,0,0,1-7.47-5.19v5.48h-1.33V157A21.19,21.19,0,0,1,209.3,162a5.92,5.92,0,0,0-.91-1.09,19.33,19.33,0,0,0,7.1-4.52h-4.92v-7.12h6v-1.76h-7.76v-1.24h7.76v-1.87l1.72.09c0,.14-.12.24-.39.27v1.51h8v1.24h-8v1.76h6.37Zm-12.47-6.06v2h4.77v-2Zm0,3v2h4.77v-2Zm11.16-3h-5.06v2H223Zm0,5v-2h-5.06v2Z"/><path class="cls-4" d="M233,157.32a.39.39,0,0,1-.43.18,17.38,17.38,0,0,1-3.76,4.13,5.38,5.38,0,0,0-1-.77,13,13,0,0,0,3.63-4.06Zm12.2-10.56V148H228.08v-1.25h7.84V144.4l1.73.1c0,.15-.11.25-.38.27v2Zm-2.36,8.84h-5.61v5.2c0,1.55-.68,1.56-4.33,1.56a5.29,5.29,0,0,0-.46-1.23c.83,0,1.58,0,2.16,0,1.18,0,1.28,0,1.28-.39V155.6h-5.35v-5.71h12.31Zm-11-4.56v3.4h9.67V151ZM244,161.73a32.47,32.47,0,0,0-3.67-4.33l1.16-.56a34.49,34.49,0,0,1,3.77,4.21Z"/><path class="cls-4" d="M247.44,159.58h17v1.32h-17Zm1.12-13.27h14.77v1.32H248.56Zm1.25,6.43h12v1.32h-12Z"/><path class="cls-4" d="M280,155.91l.93.51a.87.87,0,0,1-.21.15,9.85,9.85,0,0,1-4.08,3.46A28,28,0,0,0,284,161.3a6.14,6.14,0,0,0-.68,1.1,25.37,25.37,0,0,1-8.08-1.74,32.24,32.24,0,0,1-8.42,1.74,4.6,4.6,0,0,0-.5-1.14,31.84,31.84,0,0,0,7.53-1.29,9.32,9.32,0,0,1-2.59-2.16,17.64,17.64,0,0,1-3.17,1.46,3.68,3.68,0,0,0-.77-.9,12.8,12.8,0,0,0,6.2-3.83l1.54.29c0,.14-.15.23-.4.23a9.14,9.14,0,0,1-.87.91h6Zm-7.45-3.32.77.08c0,.11-.15.21-.34.23-.74,1.78-2.15,2.94-6,3.53a4.09,4.09,0,0,0-.65-1c3.43-.44,4.82-1.28,5.38-2.86h-5.21v-1.08h8V150h-5.63v-1.06h5.63v-1.28l1.66.1c0,.14-.11.23-.37.27v.91h6V150h-6v1.49h8.11v1.08h-5.65v1.35c0,.39.11.45.92.45h2.88c.58,0,.69-.1.75-1.08a3.07,3.07,0,0,0,1,.38c-.13,1.37-.5,1.72-1.64,1.72h-3.1c-1.64,0-2.05-.27-2.05-1.47v-1.35h-4.5Zm-1.37-4.23v-1.31h-4.65v-1.14h4.65v-1.49l1.66.1c0,.13-.11.23-.37.27v1.12h5.39v-1.49l1.66.1c0,.15-.12.23-.37.27v1.12h4.73v1.14h-4.73v1.35H277.9v-1.35h-5.39v1.31Zm1.39,8.6-.36.25a8.28,8.28,0,0,0,3,2.24A9.42,9.42,0,0,0,278.9,157Z"/><path class="cls-4" d="M296.66,154.81c0,4.43-2.27,6.14-5.21,6.14-2.74,0-4.92-1.6-4.92-6V146h1.6v8.91c0,3.34,1.47,4.69,3.4,4.69,2.12,0,3.53-1.43,3.53-4.69V146h1.6Z"/><path class="cls-4" d="M300,160.72V146h7.41v1.36h-5.81v5.23h5.34v1.33h-5.34v6.8Z"/><path class="cls-4" d="M314.42,156.05c0,3.76-1.79,4.9-4.15,4.9a5.5,5.5,0,0,1-1.83-.3l.23-1.32a4.31,4.31,0,0,0,1.49.25c1.7,0,2.66-.75,2.66-3.67V146h1.6Z"/><path class="cls-4" d="M324.56,158.79l.05,1.1-7.21,1.39a.33.33,0,0,1-.27.27l-.45-1.46c1-.14,2.16-.33,3.48-.57v-5.69h-3.31v-1.18h3.31v-2.2H318V150c-.23.25-.46.5-.71.74a3.75,3.75,0,0,0-.91-.87,17.11,17.11,0,0,0,3.86-5.45l1.59.25c0,.14-.16.23-.39.23v0a28.7,28.7,0,0,1,3.51,3.31,9.82,9.82,0,0,0-.79,1,27.27,27.27,0,0,0-3.28-3.27,21.28,21.28,0,0,1-2.3,3.37h5.12v1.14h-2.32v2.2h3.15v1.18h-3.15v5.5Zm-6.33,0a16.15,16.15,0,0,0-.87-3.67l1-.25a15.8,15.8,0,0,1,.91,3.63Zm6.19-3.61a.4.4,0,0,1-.38.17,33.69,33.69,0,0,1-1.18,3.27l-.89-.33a25.18,25.18,0,0,0,1.12-3.57Zm5.39-1.49a17.63,17.63,0,0,0,1,3.15,21.57,21.57,0,0,0,2.61-2.32l1.12,1a.48.48,0,0,1-.43.09,32.31,32.31,0,0,1-2.82,2.21,8.07,8.07,0,0,0,3.42,3.49,4.23,4.23,0,0,0-.85,1.08c-2.74-1.56-4.36-4.77-5.19-8.71h-1.93v6.55c1.25-.21,2.62-.48,4-.73l.1,1.14c-2.24.5-4.56,1-6,1.29a.4.4,0,0,1-.27.29l-.53-1.51,1.49-.25v-15.2h8v8.42Zm2.52-7.24h-5.55v2.41h5.55ZM326.78,150v2.49h5.55V150Z"/><path class="cls-4" d="M341.83,145.06c0,.09-.19.17-.42.13a26.22,26.22,0,0,1-4.85,4.46,6.22,6.22,0,0,0-.75-1,18.6,18.6,0,0,0,4.52-4.19Zm-2.95,17.3v-8.5a25.52,25.52,0,0,1-2.2,2.21,7.66,7.66,0,0,0-.83-1,24.49,24.49,0,0,0,5.29-6.47l1.5.62c-.05.12-.21.19-.44.15a28.81,28.81,0,0,1-2,2.9l.35.12c0,.11-.15.21-.39.25v9.73Zm14.92-11.1v1.25h-3.07v8.17c0,1.63-.62,1.67-4.51,1.67a5.22,5.22,0,0,0-.43-1.28c.85,0,1.64,0,2.24,0,1.25,0,1.39,0,1.39-.45v-8.15H342.7v-1.25Zm-.73-5.62v1.23h-9.63v-1.23Z"/><path class="cls-4" d="M438.48,228.09a.54.54,0,0,1-.56.35,37.43,37.43,0,0,1-.85,3.94c1,.44,2.14.94,3.24,1.5l-.62,1.3c-1-.52-2-1-3-1.45a11.13,11.13,0,0,1-4.3,6.16,6.51,6.51,0,0,0-1.1-.81,10.28,10.28,0,0,0,4.17-5.91,19.52,19.52,0,0,0-5.16-1.43c-1.33,4.87-2.52,6.14-4.84,6.14s-2.76-1.85-2.76-3c0-3,3.11-4.39,6.56-4.4a45.75,45.75,0,0,0,1-5.45c-.9.08-4,.29-5.46.38a.57.57,0,0,1-.4.27l-.18-1.56c1.66-.06,5.25-.29,6.41-.41a.7.7,0,0,0,.43-.21l1.19.72a.82.82,0,0,1-.48.31,59.24,59.24,0,0,1-1.2,6,20.07,20.07,0,0,1,5.19,1.37,30.74,30.74,0,0,0,.83-4.21Zm-9.56,3.57c-2.78,0-5,1.14-5,3.19,0,1.08.52,1.82,1.43,1.82C426.76,236.67,427.69,236.18,428.92,231.66Z"/><path class="cls-4" d="M453,223.12c0,.18-.13.33-.5.39,0,.56,0,1.64,0,2.61l6.27-.16v1.3c-1.7,0-4,0-6.23.08,0,.71.09,3.49.15,4a9.14,9.14,0,0,1,.27,2.13,5.74,5.74,0,0,1-.23,1.78c-.44,2-2.22,4.25-5.6,5.39a7.07,7.07,0,0,0-1-1.09c2.76-.79,4.61-2.72,5-4.38h0a2.33,2.33,0,0,1-2,1,3.19,3.19,0,0,1-3.23-3.32,3.5,3.5,0,0,1,3.5-3.63,2.48,2.48,0,0,1,1.77.66c0-.35-.09-2.11-.09-2.5l-4.36.16c-1.26,0-3.07.1-4.35.15l0-1.27c1.14,0,2.82-.08,4.29-.12l4.4-.13-.1-3.13Zm-1.45,9.76a9.24,9.24,0,0,0-.05-1,2,2,0,0,0-1.95-1.54,2.29,2.29,0,0,0-2.28,2.47,2.19,2.19,0,0,0,2.12,2.24A2.1,2.1,0,0,0,451.58,232.88Zm5.06-7.15a12.88,12.88,0,0,0-2.28-2.74l.72-.52a13.59,13.59,0,0,1,2.33,2.7Zm2.82-.54a14.2,14.2,0,0,0-2.28-2.72l.7-.54a14,14,0,0,1,2.33,2.68Z"/><path class="cls-4" d="M463.05,239.31a20,20,0,0,1-.93-6.55,48.45,48.45,0,0,1,1.18-9.13l1.86.34a.52.52,0,0,1-.53.31,40.44,40.44,0,0,0-1.21,8.46,23.49,23.49,0,0,0,.21,3.52c.23-.81,1-2.74,1.54-4l.85.79c-.67,1.41-1.85,4-1.85,5.12a2.32,2.32,0,0,0,.16.83Zm5-14.76h2.61A32,32,0,0,0,477,224l.15,1.24a28.36,28.36,0,0,1-3.32.37h0l.27,0c0,.16-.15.24-.38.27,0,.8.05,2.17.13,3.56a22.26,22.26,0,0,0,3.92-.64l.15,1.26a23.27,23.27,0,0,1-4,.58l.25,4.09a16.82,16.82,0,0,1,3.94,2.46l-.72,1.19a18.14,18.14,0,0,0-3.22-2.24c.11,2.05-.5,3.36-3.05,3.36-2.14,0-3.78-.94-3.78-2.68s1.73-2.69,3.8-2.69a6.94,6.94,0,0,1,1.72.25c0-.94-.14-2.39-.22-3.67-.92.06-3.86.06-4.92.06v-1.2h3.05c.6,0,1.22,0,1.8,0-.08-1.41-.14-2.84-.18-3.87-.56,0-1.23.06-1.79.06h-2.57Zm4.88,11.11a5.3,5.3,0,0,0-1.79-.37c-1.47,0-2.59.55-2.59,1.59s1.08,1.58,2.53,1.58,1.87-.67,1.87-2Z"/><path class="cls-4" d="M488.28,236.88l.06,1.1-7.22,1.39a.34.34,0,0,1-.27.27l-.44-1.47c1-.13,2.16-.33,3.47-.56v-5.7h-3.3v-1.17h3.3v-2.21H481.7v-.46a9.9,9.9,0,0,1-.72.73,3.9,3.9,0,0,0-.9-.87,17.4,17.4,0,0,0,3.86-5.44l1.58.25c0,.13-.15.23-.39.23v0a28.09,28.09,0,0,1,3.52,3.3,7.43,7.43,0,0,0-.79,1,28,28,0,0,0-3.28-3.27,22.41,22.41,0,0,1-2.3,3.36h5.11v1.14h-2.31v2.21h3.14v1.17h-3.14v5.51Zm-6.33,0a15.52,15.52,0,0,0-.87-3.67l1-.25a15.62,15.62,0,0,1,.9,3.63Zm6.2-3.61a.42.42,0,0,1-.39.17,29.12,29.12,0,0,1-1.18,3.27l-.89-.33a24.91,24.91,0,0,0,1.12-3.58Zm5.38-1.49a17.63,17.63,0,0,0,1,3.15,23.42,23.42,0,0,0,2.61-2.32l1.12,1a.45.45,0,0,1-.43.1,31.68,31.68,0,0,1-2.81,2.2,8.07,8.07,0,0,0,3.41,3.5,4.27,4.27,0,0,0-.85,1.08c-2.74-1.56-4.36-4.77-5.19-8.71H490.5v6.55c1.25-.21,2.63-.49,4-.74l.09,1.14c-2.24.51-4.55,1-6,1.3a.4.4,0,0,1-.27.29l-.52-1.51,1.48-.25v-15.2h8.05v8.42Zm2.53-7.24H490.5v2.41h5.56Zm-5.56,3.55v2.49h5.56v-2.49Z"/><path class="cls-4" d="M505.56,223.14c0,.1-.2.18-.43.14a26.5,26.5,0,0,1-4.84,4.46,6.85,6.85,0,0,0-.75-1,18.37,18.37,0,0,0,4.51-4.19Zm-3,17.31V232a24,24,0,0,1-2.2,2.2,6.87,6.87,0,0,0-.83-1,24.61,24.61,0,0,0,5.29-6.47l1.51.62a.4.4,0,0,1-.45.15,30.43,30.43,0,0,1-2,2.9l.34.11c0,.12-.15.22-.38.26v9.73Zm14.93-11.11v1.26h-3.07v8.17c0,1.62-.62,1.66-4.52,1.66a4.77,4.77,0,0,0-.43-1.27c.85,0,1.65,0,2.24,0,1.26,0,1.39,0,1.39-.45V230.6h-6.71v-1.26Zm-.74-5.62V225h-9.63v-1.24Z"/><path class="cls-4" d="M405,178.82a.44.44,0,0,1-.29.19,32.15,32.15,0,0,1-7.8,7.77,37.53,37.53,0,0,1,4,3.76l-1.18,1a40.06,40.06,0,0,0-9.09-7.48l.93-1a37.26,37.26,0,0,1,4.3,2.86,29.21,29.21,0,0,0,6.78-6.59H388.47v-1.31h15.19l.23-.12Z"/><path class="cls-4" d="M409.2,178a23.32,23.32,0,0,1,1.86,5.14l-1.3.42a26.18,26.18,0,0,0-1.81-5.16Zm14.46.23c-.06.17-.25.25-.5.25-2,6.82-5.19,11-11.24,13.64a8.7,8.7,0,0,0-.92-1.06c5.91-2.49,8.94-6.38,10.85-13.41Zm-8.34-1.33a31.24,31.24,0,0,1,1,5.48l-1.37.22a31.46,31.46,0,0,0-1-5.47Z"/><path class="cls-4" d="M433.54,184.27v4.36c0,1,.49,1.72,1.9,1.72H439a19.73,19.73,0,0,0,2.33-.13c0,.36,0,1,0,1.31a18.44,18.44,0,0,1-2.37.12h-3.65c-2.35,0-3.18-1.24-3.18-3v-4.36h-5.53V183h5.53v-4.77H428V177h12.44v1.27h-6.92V183h8.75v1.28Z"/><path class="cls-4" d="M456.46,185.93a69.68,69.68,0,0,0-6.78-3.15v9.66h-1.44V175.65l1.94.12c0,.21-.17.34-.5.4v5.64l.29-.4a67.52,67.52,0,0,1,7.26,3.22Z"/><path class="cls-4" d="M469.49,186.28l.69,6.06-1.39.16-.67-6.05-7.24.93-.17-1.28,7.27-.93-.5-4.34-6.06.79-.17-1.29,6.08-.78-.43-3.82,1.89-.08c0,.19-.17.35-.44.43l.35,3.28,5.87-.77.15,1.31-5.87.75.5,4.33,7.26-.91.17,1.28Z"/><path class="cls-4" d="M492.15,177.22v14.91H490.8V191h-11v-1.28h11v-5.12H480.74v-1.27H490.8v-4.85H480.3v-1.29Z"/><path class="cls-4" d="M496.71,181.19a28.66,28.66,0,0,1,5.19,1.74l-.58,1.22a28.11,28.11,0,0,0-5.19-1.78Zm1.16,9.45c6.27-2.1,10.55-5.45,13.12-11.24a14.48,14.48,0,0,0,1.18.85c-2.59,5.74-7.09,9.31-13,11.42a.46.46,0,0,1-.23.48Zm1-14.24a31,31,0,0,1,5.17,1.9l-.63,1.18a30.53,30.53,0,0,0-5.12-2Z"/><rect class="cls-5" x="531.16" y="130.67" width="100.32" height="74.87"/><path class="cls-1" d="M553.08,173.07h-5.24a19.3,19.3,0,0,0,7.24,4.52,5.4,5.4,0,0,0-.9,1.12,20.65,20.65,0,0,1-7.47-5.19V179h-1.34v-5.41a20.93,20.93,0,0,1-7.31,5.08,5.49,5.49,0,0,0-.91-1.08,19.59,19.59,0,0,0,7.1-4.52h-4.92v-7.13h6v-1.75h-7.76V163h7.76v-1.87l1.72.09c0,.14-.11.23-.38.27V163h8v1.24h-8v1.75h6.37ZM540.61,167v2h4.76v-2Zm0,3v2h4.76v-2Zm11.15-3h-5v2h5Zm0,5v-2h-5v2Z"/><path class="cls-1" d="M559.06,166.83v-.37a17.27,17.27,0,0,1-1.62,1.24,3.91,3.91,0,0,0-.93-.93A14.66,14.66,0,0,0,561.8,161l1.66.27a.37.37,0,0,1-.4.23c-.2.33-.39.68-.62,1H568l.21-.07,1,.65a.47.47,0,0,1-.27.16,20.35,20.35,0,0,1-1.62,2.41h4.31v6.82h-7.46a11.45,11.45,0,0,1,3.11,1.84l-.87.94a12.7,12.7,0,0,0-3.55-2.14l.62-.64h-4.88v-1.14h11.75v-1.76H559.23v-1.06h11.16v-1.72Zm1.35,7.42a7,7,0,0,1-2.84,4.08l-1.06-.78a6.42,6.42,0,0,0,2.72-3.73Zm5.44-8.56a14.54,14.54,0,0,0,1.41-2.05h-5.59a18.22,18.22,0,0,1-1.78,2.05Zm-3,11.26c0,.51.18.58,1.16.58h3.38c.83,0,1-.27,1.06-2.26a3.61,3.61,0,0,0,1.14.47c-.15,2.37-.56,2.93-2.08,2.93h-3.59c-1.88,0-2.34-.36-2.34-1.7V174l1.64.09c0,.14-.12.24-.37.27Zm10.39,1.34a17.8,17.8,0,0,0-3.57-4.06l1.06-.62a17.64,17.64,0,0,1,3.65,4Z"/><path class="cls-1" d="M589.13,163.59a.39.39,0,0,1-.25.21,29.41,29.41,0,0,1-3.86,6.64,72,72,0,0,1,7.07,6.55l-1.18,1a62.77,62.77,0,0,0-6.78-6.49A30.49,30.49,0,0,1,576.7,178a7,7,0,0,0-1-1.05A27.66,27.66,0,0,0,587,164.36h-9.48v-1.31h10.23l.25-.1Z"/><path class="cls-1" d="M605.58,171.87a70.54,70.54,0,0,0-6.77-3.14v9.65h-1.45V161.6l1.95.11c0,.22-.18.35-.5.41v5.64l.28-.41a66.69,66.69,0,0,1,7.26,3.23Z"/><path class="cls-1" d="M625.46,163.35a.48.48,0,0,1-.25.18,16.51,16.51,0,0,1-4.57,6.18,8.09,8.09,0,0,0-1.18-.79,11.62,11.62,0,0,0,3.84-4.79H609.48v-1.32H624l.21-.09Zm-7.52,3.52c0,.15-.2.29-.45.33-.56,4.56-2.12,8.9-6.1,11.2a10,10,0,0,0-1.14-.89c3.94-2.16,5.35-6.2,5.81-10.85Z"/><polyline class="cls-6" points="643.81 219.22 643.81 110.28 743.6 110.28"/><line class="cls-6" x1="643.81" y1="152.4" x2="743.6" y2="152.4"/><line class="cls-6" x1="643.81" y1="197.08" x2="743.6" y2="197.08"/><line class="cls-6" x1="647.88" y1="250.61" x2="743.6" y2="250.61"/><line class="cls-6" x1="25.35" y1="130.67" x2="151.35" y2="26.82"/><line class="cls-6" x1="126.17" y1="105.85" x2="252.17" y2="2"/><line class="cls-6" x1="166.63" y1="149.32" x2="305.5" y2="32.59"/><polygon class="cls-5" points="91.56 88.81 212.75 212.78 265.03 244.18 265.03 271.55 96.76 271.72 0 163.93 91.56 88.81"/><polyline class="cls-8" points="534.37 261.89 512.76 197.08 388.89 197.08"/><polygon class="cls-4" points="215.16 59.82 215.16 77.22 165.03 103.19 215.16 97.88 215.16 125.84 631.47 125.84 631.47 59.82 215.16 59.82"/><path class="cls-1" d="M228.07,106.29a11.07,11.07,0,0,1,3.68-8.57,11.39,11.39,0,0,1,8-3.12,9.08,9.08,0,0,1,8.54,4.84V95.18h2.84v22l-2.84,0V113a8.35,8.35,0,0,1-3.74,3.52,11.28,11.28,0,0,1-16.44-10.21Zm3-.66a9.4,9.4,0,0,0,2.32,6.39,7.71,7.71,0,0,0,6.08,2.76,8.71,8.71,0,0,0,6.17-2.47,8,8,0,0,0,2.61-6,8.65,8.65,0,0,0-2.41-6.2,7.91,7.91,0,0,0-6-2.53,8.59,8.59,0,0,0-6.34,2.7A7.58,7.58,0,0,0,231.07,105.63Z"/><path class="cls-1" d="M255.29,106.13a11.11,11.11,0,0,1,3.56-8.49,10.77,10.77,0,0,1,7.58-3,13.2,13.2,0,0,1,6.49,1.6,10.67,10.67,0,0,1,4.88,5.58h-3.36q-2.51-4.22-8-4.22a7.72,7.72,0,0,0-6,2.66,8.66,8.66,0,0,0-2.2,5.91,8.44,8.44,0,0,0,2.46,6.15,8.25,8.25,0,0,0,6.1,2.5,8.64,8.64,0,0,0,7.75-4.07h3.28a13,13,0,0,1-4.53,5.21,12.05,12.05,0,0,1-14.42-1.46,10.75,10.75,0,0,1-3.64-8.21Z"/><path class="cls-1" d="M284.3,117.16V97.88h-4.54v-2.7h4.54V87.43h3v7.75h5v2.7h-5v19.28Z"/><path class="cls-1" d="M295.28,92.53v-5.1h3v5.1Zm0,24.63v-22h3v22Z"/><path class="cls-1" d="M310.17,117.16l-9.15-22h3.16l7.56,18.2,7.54-18.2h3.19l-9.26,22Z"/><path class="cls-1" d="M324.47,106.05a11.27,11.27,0,0,1,18.88-8.49,11.64,11.64,0,0,1,3.7,9v.6H327.39a6.83,6.83,0,0,0,2.86,5.73,8.68,8.68,0,0,0,5.36,1.84,9,9,0,0,0,4.6-1.34,6.74,6.74,0,0,0,3.18-3.51h3a11.39,11.39,0,0,1-4.76,5.91,11.6,11.6,0,0,1-6.22,1.82,10.32,10.32,0,0,1-7.92-3.44A11.66,11.66,0,0,1,324.47,106.05Zm19.7-1.52a8.55,8.55,0,0,0-3-5,8.13,8.13,0,0,0-5.42-2,7.94,7.94,0,0,0-6.44,3,7.82,7.82,0,0,0-2,4.07Z"/><path class="cls-1" d="M270.94,70.29c0,.07-.13.11-.21.15a13.85,13.85,0,0,1-3.81,5.15,6.72,6.72,0,0,0-1-.66,9.69,9.69,0,0,0,3.2-4H257.62V69.84h12.13l.18-.08Zm-6.27,2.93c0,.13-.16.24-.37.27-.47,3.8-1.77,7.43-5.08,9.34a9.5,9.5,0,0,0-1-.74c3.28-1.8,4.45-5.17,4.84-9Z"/><path class="cls-1" d="M283.6,71.88a.88.88,0,0,1-.24.23c-1.69,5.22-4.33,8.56-8.77,10.82a4,4,0,0,0-.82-.89,15.1,15.1,0,0,0,8.16-9.53h-5.74a16.76,16.76,0,0,1-3.61,4,5.84,5.84,0,0,0-.91-.74,16.5,16.5,0,0,0,5.13-7l1.53.44c-.07.16-.26.21-.47.21-.32.7-.66,1.38-1,2h5.66l.19-.09Z"/><path class="cls-1" d="M299,75.15h-5.44l.27.08c0,.1-.14.18-.32.2-.43,3-1.53,5.66-5,7.35a7.64,7.64,0,0,0-.87-.8c3.35-1.61,4.28-3.87,4.65-6.83H286V74.07H299Zm-1.6-4.54h-9.87V69.53h9.87Z"/><path class="cls-1" d="M310.82,72.59a.34.34,0,0,1-.27.12.85.85,0,0,1-.23,0,29.69,29.69,0,0,1-3.54,3,1.86,1.86,0,0,1,.36.15.5.5,0,0,1-.28.17v7h-1V76.25a43.08,43.08,0,0,1-5.29,3.07,5,5,0,0,0-.58-.75,32.22,32.22,0,0,0,9.7-6.77Z"/><path class="cls-1" d="M324.22,70.74a15.36,15.36,0,0,0-1.56-1.7l.56-.46a12.58,12.58,0,0,1,2.06,2.32l-.31.23.13.06a.43.43,0,0,1-.22.18c-1.24,6.07-4.38,9.69-9.63,11.54a7.08,7.08,0,0,0-.75-.93,12.65,12.65,0,0,0,9-10H313.23V70.84H323.9l.21-.15Zm2.48-.09a11,11,0,0,0-2-2.32l.6-.47a11.7,11.7,0,0,1,2,2.32Z"/><path class="cls-1" d="M374.07,76l.8.47a.34.34,0,0,1-.22.16,10.63,10.63,0,0,1-3.73,4.06,20.88,20.88,0,0,0,6.16,1.67,4.69,4.69,0,0,0-.7,1,20.06,20.06,0,0,1-6.56-2.08,22.47,22.47,0,0,1-6.4,2.08,4.72,4.72,0,0,0-.64-1,21.87,21.87,0,0,0,6-1.7,11.17,11.17,0,0,1-3.25-3.32l.85-.35h-1.64V76h9.14Zm-10.21-1.91v2.43h-1v-3.4h2.62A11.25,11.25,0,0,0,364.34,71l1-.29a9.73,9.73,0,0,1,1.19,2.22l-.61.21h6.82a23.05,23.05,0,0,0,1.63-2.87l1.28.49a.37.37,0,0,1-.34.13,21.27,21.27,0,0,1-1.43,2.25h2.91v3.4h-1.06V74.06Zm11.94-4.74a.22.22,0,0,1-.17.05l-.16,0a93.84,93.84,0,0,1-12.23,1.21,3.84,3.84,0,0,0-.25-.94,85.53,85.53,0,0,0,12-1.22ZM366.51,77a9.71,9.71,0,0,0,3.34,3.1,9.26,9.26,0,0,0,3.29-3.1Zm3.06-6.59a11.46,11.46,0,0,1,.9,2.4l-1.05.27a10.87,10.87,0,0,0-.84-2.46Z"/><path class="cls-1" d="M380.76,74.09a17.47,17.47,0,0,1-2.07,2.75,8.49,8.49,0,0,0-.58-1,20.45,20.45,0,0,0,4.16-7.34l1.32.43c-.06.11-.17.16-.37.16a28.74,28.74,0,0,1-1.53,3.4l.46.13c0,.11-.12.17-.31.21V83.33h-1.08ZM393.34,72v1.08h-2.25V81.8c0,.85-.24,1.19-.81,1.37a12.5,12.5,0,0,1-3.29.19,5.67,5.67,0,0,0-.42-1.09l1.85,0c1.49,0,1.59,0,1.59-.5V73.09h-6.8V72H390V68.57l1.4.08c0,.11-.1.19-.32.22V72Zm-8.22,2.83a17.28,17.28,0,0,1,2.51,4l-1,.51a18.27,18.27,0,0,0-2.44-4.1Z"/><path class="cls-1" d="M399.63,69.44V80.09h-3.54V81.4h-1v-12Zm-1,1h-2.53v3.79h2.53Zm-2.53,8.66h2.53V75.2h-2.53Zm9.09-5.53h4.23v1h-9.49v-1h4.2V71.35h-3.51v-1h3.51v-2l1.38.08c0,.11-.11.19-.32.23v1.69h3.58v1h-3.58ZM407.74,75c0,.11-.1.19-.31.21v1.38h1.95v1h-1.95v4.51c0,.66-.14,1-.64,1.12a10.22,10.22,0,0,1-2.64.18,3.75,3.75,0,0,0-.37-1l1.61,0c.9,0,1,0,1-.34V77.55H400v-1h6.39V74.91Zm-4.59,6.68a12.89,12.89,0,0,0-2.1-2.9l.86-.51a11.71,11.71,0,0,1,2.17,2.83Z"/><path class="cls-1" d="M417.25,74.64h-4.8v8.7h-1.06V69.08h5.86Zm-1-4.71h-3.77v1.49h3.77Zm-3.77,3.85h3.77V72.24h-3.77Zm8.59,8H416v.85h-1V75.91H421Zm-1-5h-4v1.61h4Zm-4,4.15h4V79.24h-4Zm8.8-11.85V81.83c0,1.43-.63,1.5-3.41,1.5A3.84,3.84,0,0,0,421,82.2l1.43,0c1.18,0,1.27,0,1.27-.4V74.65h-4.92V69.08Zm-1.08.85h-3.87v1.49h3.87Zm-3.87,3.87h3.87V72.24h-3.87Z"/><path class="cls-1" d="M431.19,71.93a1.1,1.1,0,1,1-1.09-1.09A1.08,1.08,0,0,1,431.19,71.93Zm0,7.82a1.1,1.1,0,1,1-1.09-1.07A1.08,1.08,0,0,1,431.19,79.75Z"/><path class="cls-1" d="M438.3,82V71.16h0l-2,1.14-.32-1,2.49-1.4h1.14V82Z"/><path class="cls-1" d="M443.63,76c0-4.22,1.64-6.26,3.89-6.26s3.68,2.16,3.68,6.1c0,4.19-1.46,6.34-3.86,6.34C445.16,82.15,443.63,80,443.63,76Zm6.22-.09c0-3-.72-5.09-2.41-5.09-1.43,0-2.45,1.91-2.45,5.09s.89,5.18,2.4,5.18C449.18,81.06,449.85,78.74,449.85,75.88Z"/><path class="cls-1" d="M457,71.93a1.1,1.1,0,1,1-1.09-1.09A1.08,1.08,0,0,1,457,71.93Zm0,7.82a1.1,1.1,0,1,1-1.09-1.07A1.08,1.08,0,0,1,457,79.75Z"/><path class="cls-1" d="M460.53,76c0-4.22,1.64-6.26,3.9-6.26s3.68,2.16,3.68,6.1c0,4.19-1.46,6.34-3.86,6.34C462.06,82.15,460.53,80,460.53,76Zm6.23-.09c0-3-.73-5.09-2.41-5.09-1.44,0-2.45,1.91-2.45,5.09s.89,5.18,2.4,5.18C466.08,81.06,466.76,78.74,466.76,75.88Z"/><path class="cls-1" d="M469.4,76c0-4.22,1.64-6.26,3.89-6.26s3.68,2.16,3.68,6.1c0,4.19-1.46,6.34-3.86,6.34C470.92,82.15,469.4,80,469.4,76Zm6.22-.09c0-3-.72-5.09-2.41-5.09-1.43,0-2.45,1.91-2.45,5.09s.89,5.18,2.4,5.18C475,81.06,475.62,78.74,475.62,75.88Z"/><path class="cls-1" d="M493,75.17a4.58,4.58,0,0,1-7.76,1.09,3.78,3.78,0,0,0-2.8-1.37,3.67,3.67,0,0,0-3.12,2.18l-1-.55a4.81,4.81,0,0,1,4.18-2.79,4.86,4.86,0,0,1,3.59,1.69,3.78,3.78,0,0,0,2.8,1.37A3.67,3.67,0,0,0,492,74.62Z"/><path class="cls-1" d="M501.62,82h-7.13v-.82l1.18-1.24c2.86-2.9,4.31-4.65,4.31-6.62a2.18,2.18,0,0,0-2.3-2.48,4.08,4.08,0,0,0-2.42,1l-.45-.93a4.72,4.72,0,0,1,3.12-1.18,3.22,3.22,0,0,1,3.4,3.43c0,2.27-1.59,4.2-4.09,6.72l-.95,1v0h5.33Z"/><path class="cls-1" d="M506.75,82V71.16h0l-2,1.14-.32-1,2.49-1.4h1.14V82Z"/><path class="cls-1" d="M516.54,71.93a1.09,1.09,0,1,1-1.09-1.09A1.08,1.08,0,0,1,516.54,71.93Zm0,7.82a1.09,1.09,0,1,1-1.09-1.07A1.08,1.08,0,0,1,516.54,79.75Z"/><path class="cls-1" d="M520.12,76c0-4.22,1.64-6.26,3.89-6.26s3.68,2.16,3.68,6.1c0,4.19-1.46,6.34-3.86,6.34C521.65,82.15,520.12,80,520.12,76Zm6.22-.09c0-3-.72-5.09-2.41-5.09-1.43,0-2.45,1.91-2.45,5.09s.89,5.18,2.4,5.18C525.67,81.06,526.34,78.74,526.34,75.88Z"/><path class="cls-1" d="M529,76c0-4.22,1.64-6.26,3.89-6.26s3.69,2.16,3.69,6.1c0,4.19-1.47,6.34-3.86,6.34C530.51,82.15,529,80,529,76Zm6.22-.09c0-3-.72-5.09-2.41-5.09-1.43,0-2.44,1.91-2.44,5.09s.88,5.18,2.39,5.18C534.53,81.06,535.2,78.74,535.2,75.88Z"/><path class="cls-1" d="M561.86,78.29V81.8a15.26,15.26,0,0,0,2.8.21c.56,0,3.39,0,4.13,0a3.34,3.34,0,0,0-.42,1.1h-3.76c-3.46,0-6-.6-7.46-3.48a8.29,8.29,0,0,1-2.53,3.78,4.82,4.82,0,0,0-.82-.71c1.77-1.3,2.7-3.76,3.07-6.77l1.39.22c0,.12-.13.2-.33.2-.09.64-.22,1.27-.36,1.88a5.09,5.09,0,0,0,3.18,3.28V74.41h-4.1v-1h9.46v1h-4.25v2.85h4.94v1Zm-6.21-6.94v2.43h-1.06V70.32h6.14v-2l1.47.1c0,.11-.12.19-.34.22v1.66h6.21v3.46H567V71.35Z"/><path class="cls-1" d="M572.12,74.06a18.56,18.56,0,0,1-2,2.68,7.89,7.89,0,0,0-.56-1,21.44,21.44,0,0,0,4-7.24l1.29.43a.36.36,0,0,1-.37.15,30.73,30.73,0,0,1-1.48,3.33l.43.11c0,.1-.11.18-.32.19V83.38h-1Zm12.63-.44h-4.13a17.55,17.55,0,0,0,4.53,6.73,4,4,0,0,0-.82.87,20.42,20.42,0,0,1-4.41-6.81v8.93h-1.07v-8.7a19,19,0,0,1-4.44,6.64,6.23,6.23,0,0,0-.79-.83,17,17,0,0,0,4.6-6.83h-4.07V72.57h4.7v-4l1.38.1c0,.11-.1.19-.31.22v3.67h4.83Z"/><path class="cls-1" d="M590.57,71.93a1.09,1.09,0,1,1-1.09-1.09A1.08,1.08,0,0,1,590.57,71.93Zm0,7.82a1.09,1.09,0,1,1-1.09-1.07A1.08,1.08,0,0,1,590.57,79.75Z"/><path class="cls-1" d="M595.77,69.42h10.44V83h-1.13V82h-8.2v1.06h-1.11Zm9.31,1.09h-8.2v4.62h8.2Zm-8.2,10.4h8.2V76.2h-8.2Z"/><path class="cls-1" d="M623.82,81.85v.87h-7.6v.66h-1V77.6a13,13,0,0,1-1.09,1.2c-.12-.14-.33-.38-.52-.56v2h-3.18v1.34h-1V69.44h4.15V78a12.76,12.76,0,0,0,2.64-4h-2v-.83h3.14V71.83h-2.82v-.78h2.82V69.82h-3.11V69h4.06v5h-1.31l.49.14a.27.27,0,0,1-.32.16c-.18.4-.41.82-.65,1.27h2.25a16.59,16.59,0,0,0,.66-1.57h-.43v-.83h3.21V71.83h-2.91v-.78h2.91V69.82h-3.18V69h4.17v5h-3.4l.9.25a.34.34,0,0,1-.33.16c-.17.33-.37.76-.6,1.16h3.55v.87h-3.65v1.24H623v.79h-3.22v1.29H623v.79h-3.22v1.32ZM612.61,70.4h-2.18v3.82h2.18Zm-2.18,8.81h2.18v-4h-2.18Zm8.36-1.55V76.42h-2.57v1.24Zm0,2.08V78.45h-2.57v1.29Zm-2.57.79v1.32h2.57V80.53Z"/><path class="cls-1" d="M381.61,94.72h-7.15v22h-2.64v-22H364.7V92.49h16.91Z"/><path class="cls-1" d="M395.79,116a12.43,12.43,0,0,1-5.43,1.09c-5.06,0-8.08-3.57-8.08-8.76,0-5.44,3.05-9.36,7.73-9.36,5.34,0,6.71,4.91,6.71,7.93a14.24,14.24,0,0,1-.07,1.46H384.86c0,4.81,2.76,6.63,5.88,6.63a10.87,10.87,0,0,0,4.55-.9Zm-1.68-9.61c0-2.35-.95-5.41-4.36-5.41-3.18,0-4.58,3-4.83,5.41Z"/><path class="cls-1" d="M403.3,116.72h-2.64V91.25h2.64Z"/><path class="cls-1" d="M407.81,115.09a1.92,1.92,0,0,1,1.91-2.07,1.9,1.9,0,0,1,1.88,2.07,1.9,1.9,0,1,1-3.79,0Z"/><path class="cls-1" d="M421.55,104.88c0-8.34,3.24-12.39,7.69-12.39s7.29,4.27,7.29,12.07c0,8.27-2.9,12.54-7.64,12.54C424.57,117.1,421.55,112.83,421.55,104.88Zm12.3-.2c0-6-1.43-10.05-4.77-10.05-2.83,0-4.83,3.78-4.83,10.05S426,114.93,429,114.93C432.52,114.93,433.85,110.35,433.85,104.68Z"/><path class="cls-1" d="M447.78,103.82A6.11,6.11,0,0,1,453,110c0,3.79-2.73,7.1-8.07,7.1a10.55,10.55,0,0,1-5.63-1.53l.79-2a9.43,9.43,0,0,0,4.87,1.44c4,0,5.31-2.81,5.31-5,0-3.5-3-5.09-6.07-5.09H442.6v-2h1.56c2.28,0,5.24-1.43,5.24-4.42,0-2.07-1.24-3.85-4.1-3.85a7.85,7.85,0,0,0-4.36,1.56l-.79-2a10,10,0,0,1,5.66-1.78c4.36,0,6.29,2.77,6.29,5.64a6,6,0,0,1-4.32,5.63Z"/><path class="cls-1" d="M456.4,106h8.68v2H456.4Z"/><path class="cls-1" d="M480.94,92.88v2.19h-8.55l-1,6.75a13.42,13.42,0,0,1,1.84-.13c4.23,0,8,2.52,8,7.32a7.89,7.89,0,0,1-8.2,8.09,10.57,10.57,0,0,1-5.47-1.4l.76-2.07a8.86,8.86,0,0,0,4.71,1.34,5.41,5.41,0,0,0,5.53-5.64c0-3.28-2.1-5.57-6.55-5.57A20,20,0,0,0,469,104l1.49-11.1Z"/><path class="cls-1" d="M489.66,104.08a6,6,0,0,1-3.73-5.38c0-3.69,2.9-6.21,6.75-6.21,4.32,0,6.39,2.93,6.39,5.8a6.24,6.24,0,0,1-3.91,5.63v.13c2.92,1.24,4.74,3.37,4.74,6.24,0,4-3.31,6.81-7.51,6.81-4.55,0-7.35-2.9-7.35-6.34,0-3.08,1.85-5.31,4.62-6.55Zm7.53,6.49c0-3-2-4.52-5.15-5.54-2.8.93-4.29,3-4.29,5.32a4.51,4.51,0,0,0,4.67,4.77A4.43,4.43,0,0,0,497.19,110.57Zm-8.74-12.12c0,2.54,1.78,3.94,4.42,4.74a5.1,5.1,0,0,0,3.62-4.68c0-2-1.11-4.07-3.91-4.07A3.86,3.86,0,0,0,488.45,98.45Z"/><path class="cls-1" d="M503.2,92.88h14v1.68l-9.95,22.16H504.5l10-21.58v-.07H503.2Z"/><path class="cls-1" d="M522.72,104.08a6.71,6.71,0,0,1,5.57-2.93c4,0,6.74,3,6.74,7.61,0,4.36-2.67,8.34-7.31,8.34s-7.76-3.85-7.76-10c0-6.4,3-13.08,10.71-14.35a17.69,17.69,0,0,1,2.23-.23l0,2.2c-6.61,0-9.76,4.81-10.3,9.39Zm9.64,4.87c0-3.66-2-5.79-4.83-5.79a5.21,5.21,0,0,0-4.93,4.52c0,4.36,1.87,7.35,5.18,7.35C530.55,115,532.36,112.55,532.36,109Z"/><path class="cls-1" d="M537.32,106H546v2h-8.68Z"/><path class="cls-1" d="M560.63,116.72h-2.52V110h-10.4v-1.69l10.18-15.46h2.74V108h3.24v2h-3.24ZM550.39,108h7.72V99.53c0-1.31.07-2.58.13-3.82h-.13c-.73,1.46-1.3,2.48-1.9,3.56l-5.82,8.66Z"/><path class="cls-1" d="M565.87,104.88c0-8.34,3.24-12.39,7.7-12.39s7.28,4.27,7.28,12.07c0,8.27-2.9,12.54-7.63,12.54C568.89,117.1,565.87,112.83,565.87,104.88Zm12.31-.2c0-6-1.43-10.05-4.77-10.05-2.83,0-4.84,3.78-4.84,10.05s1.75,10.25,4.74,10.25C576.84,114.93,578.18,110.35,578.18,104.68Z"/><path class="cls-1" d="M586.13,104.08a6.68,6.68,0,0,1,5.56-2.93c4,0,6.74,3,6.74,7.61,0,4.36-2.67,8.34-7.31,8.34s-7.76-3.85-7.76-10c0-6.4,3-13.08,10.72-14.35a17.56,17.56,0,0,1,2.22-.23l0,2.2c-6.61,0-9.76,4.81-10.3,9.39Zm9.63,4.87c0-3.66-2-5.79-4.83-5.79a5.21,5.21,0,0,0-4.93,4.52c0,4.36,1.88,7.35,5.18,7.35C594,115,595.76,112.55,595.76,109Z"/><path class="cls-1" d="M601.64,92.88h14v1.68l-10,22.16H603l9.95-21.58v-.07H601.64Z"/><path class="cls-1" d="M63,187.79a.44.44,0,0,1-.37.15.65.65,0,0,1-.19,0,46.23,46.23,0,0,1-5.51,4.62c.16.06.39.17.47.21a.49.49,0,0,1-.43.25v10.38H55.52v-9.93a55.9,55.9,0,0,1-7.35,4.31,6.84,6.84,0,0,0-.81-1.07,48.91,48.91,0,0,0,14.15-10Z"/><path class="cls-1" d="M76.6,196.83a70.61,70.61,0,0,0-6.77-3.15v9.66H68.38V186.55l2,.12c0,.21-.17.35-.5.4v5.64l.29-.4a65.64,65.64,0,0,1,7.26,3.23Z"/><path class="cls-1" d="M80.75,194H96.87v1.37H81.49a.89.89,0,0,1-.62.37Z"/><path class="cls-1" d="M112.3,188.12V203h-1.36v-1.1h-11v-1.28h11v-5.11h-10v-1.28h10v-4.85h-10.5v-1.29Z"/><path class="cls-1" d="M116.47,194h16.11v1.37H117.2a.89.89,0,0,1-.62.37Z"/><path class="cls-1" d="M150.38,191.11a.66.66,0,0,1-.17.25c-.25,5.57-.79,9.06-1.55,10.43a2.62,2.62,0,0,1-2.52,1.39,20.39,20.39,0,0,1-3.46-.44,6.32,6.32,0,0,0-.06-1.37,20,20,0,0,0,3.38.48,1.44,1.44,0,0,0,1.49-.91c.58-1.17,1.06-4.42,1.25-8.77h-6.18c-1,4.62-2.87,8.45-6.37,11.07a6.35,6.35,0,0,0-1.1-.85c3.34-2.51,5.1-5.81,6-10.22h-5.33v-1.29h5.6a39,39,0,0,0,.44-4.21l1.91.15c0,.22-.19.33-.48.35-.12,1.41-.21,2.47-.43,3.71h6.26l.31-.12Z"/><path class="cls-1" d="M165.21,196.85a69.68,69.68,0,0,0-6.78-3.15v9.64H157V186.55l1.94.12c0,.21-.17.35-.5.4v5.68l.29-.42a67.52,67.52,0,0,1,7.26,3.22Zm-2-9.1a16.14,16.14,0,0,1,2.66,2.84l-.73.6a16.49,16.49,0,0,0-2.62-2.82Zm2.59-1.66a16.52,16.52,0,0,1,2.64,2.82l-.69.6a17.94,17.94,0,0,0-2.65-2.82Z"/><path class="cls-1" d="M170.32,194h16.12v1.37H171.06a.89.89,0,0,1-.62.37Z"/></g></g></g></svg>