<svg xmlns="http://www.w3.org/2000/svg" width="308.02" height="42.49" viewBox="0 0 308.02 42.49"><defs><style>.cls-1{fill:#231815;}</style></defs><title>active_training</title><g id="レイヤー_2" data-name="レイヤー 2"><g id="レイヤー_1-2" data-name="レイヤー 1"><path class="cls-1" d="M0,21a12.36,12.36,0,0,1,4.1-9.54A12.72,12.72,0,0,1,13,8q6.51,0,9.53,5.39V8.63h3.16V33.15l-3.16,0V28.46a9.33,9.33,0,0,1-4.18,3.93,12.32,12.32,0,0,1-5.62,1.29,12.36,12.36,0,0,1-9.06-3.62A12.21,12.21,0,0,1,0,21Zm3.35-.73a10.48,10.48,0,0,0,2.58,7.11,8.62,8.62,0,0,0,6.78,3.08,9.7,9.7,0,0,0,6.89-2.76A8.87,8.87,0,0,0,22.51,21a9.64,9.64,0,0,0-2.69-6.9,8.82,8.82,0,0,0-6.66-2.82,9.57,9.57,0,0,0-7.07,3A8.43,8.43,0,0,0,3.35,20.28Z"/><path class="cls-1" d="M30.36,20.83a12.33,12.33,0,0,1,4-9.45A12,12,0,0,1,42.78,8,14.73,14.73,0,0,1,50,9.77,11.84,11.84,0,0,1,55.45,16H51.7q-2.78-4.7-8.92-4.7a8.58,8.58,0,0,0-6.71,3,9.59,9.59,0,0,0-2.46,6.58,9.39,9.39,0,0,0,2.75,6.85,9.16,9.16,0,0,0,6.8,2.79,9.6,9.6,0,0,0,8.63-4.53h3.66a14.48,14.48,0,0,1-5.05,5.8,13.43,13.43,0,0,1-16.07-1.63A11.91,11.91,0,0,1,30.27,21Z"/><path class="cls-1" d="M62.7,33.12V11.64H57.64v-3H62.7V0H66V8.63h5.62v3H66V33.12Z"/><path class="cls-1" d="M75,5.69V0h3.3V5.69Zm0,27.43V8.63h3.3V33.12Z"/><path class="cls-1" d="M91.54,33.12,81.35,8.63h3.53l8.41,20.29L101.7,8.63h3.56L94.93,33.12Z"/><path class="cls-1" d="M107.49,20.74a12.57,12.57,0,0,1,21.06-9.45,13,13,0,0,1,4.12,10.08V22H110.75a7.6,7.6,0,0,0,3.19,6.38,9.63,9.63,0,0,0,6,2A10.11,10.11,0,0,0,125.05,29a7.55,7.55,0,0,0,3.54-3.91H132a12.69,12.69,0,0,1-5.31,6.58,12.82,12.82,0,0,1-6.93,2,11.53,11.53,0,0,1-8.84-3.83A13,13,0,0,1,107.49,20.74Zm22-1.69a9.52,9.52,0,0,0-3.3-5.6,9.08,9.08,0,0,0-6-2.25,8.89,8.89,0,0,0-7.19,3.32,8.74,8.74,0,0,0-2.18,4.53Z"/><path class="cls-1" d="M154.6,33.12V2.94h-7.54V0h18.25V2.94h-7.45V33.12Z"/><path class="cls-1" d="M168.41,33.12V8.54h3.05V12.2Q173.52,8,178.56,8v3.39a6.79,6.79,0,0,0-4.6,1.83A6.14,6.14,0,0,0,171.67,18V33.12Z"/><path class="cls-1" d="M180.77,21a12.32,12.32,0,0,1,4.1-9.54A12.72,12.72,0,0,1,193.75,8q6.51,0,9.52,5.39V8.63h3.17V33.15l-3.17,0V28.46a9.25,9.25,0,0,1-4.17,3.93A12.58,12.58,0,0,1,180.77,21Zm3.34-.73a10.44,10.44,0,0,0,2.59,7.11,8.59,8.59,0,0,0,6.78,3.08,9.66,9.66,0,0,0,6.88-2.76,8.87,8.87,0,0,0,2.91-6.7,9.59,9.59,0,0,0-2.69-6.9,8.82,8.82,0,0,0-6.65-2.82,9.59,9.59,0,0,0-7.08,3A8.47,8.47,0,0,0,184.11,20.28Z"/><path class="cls-1" d="M212,5.69V0h3.31V5.69Zm0,27.43V8.63h3.31V33.12Z"/><path class="cls-1" d="M220.83,33.12V8.63h3.1v3.66a8.47,8.47,0,0,1,3.3-3.09,9.27,9.27,0,0,1,4.44-1.13A10.27,10.27,0,0,1,239,11a10.94,10.94,0,0,1,3.35,8.32V33.12h-3.19V19.27A7.92,7.92,0,0,0,237,13.6a7.28,7.28,0,0,0-5.54-2.22,7.11,7.11,0,0,0-5.32,2.09,7.46,7.46,0,0,0-2,5.4V33.12Z"/><path class="cls-1" d="M247.84,5.69V0h3.3V5.69Zm0,27.43V8.63h3.3V33.12Z"/><path class="cls-1" d="M256.67,33.12V8.63h3.1v3.66a8.61,8.61,0,0,1,3.3-3.09,9.27,9.27,0,0,1,4.44-1.13,10.28,10.28,0,0,1,7.3,2.88,10.93,10.93,0,0,1,3.34,8.32V33.12H275V19.27a7.92,7.92,0,0,0-2.1-5.67,7.26,7.26,0,0,0-5.54-2.22A7.07,7.07,0,0,0,262,13.47a7.43,7.43,0,0,0-2,5.4V33.12Z"/><path class="cls-1" d="M282.84,20.83a12.52,12.52,0,0,1,3.88-9.45A11.44,11.44,0,0,1,294.86,8a12.77,12.77,0,0,1,5.82,1.33,9,9,0,0,1,4.22,4.15v-5l3.12,0V31a10.86,10.86,0,0,1-3.36,8.33,12.05,12.05,0,0,1-8.57,3.13,13.63,13.63,0,0,1-7.79-2.25,10.69,10.69,0,0,1-4.59-6.56h3.21a8.92,8.92,0,0,0,3.57,4.24,10,10,0,0,0,5.42,1.49,9.31,9.31,0,0,0,6.27-2.11,8,8,0,0,0,2.72-6.38V28.24q-2.88,5.45-9.44,5.44a12.57,12.57,0,0,1-12.62-12.85Zm3.25-.64a10.49,10.49,0,0,0,2.69,7.35,8.58,8.58,0,0,0,6.57,2.93,9.33,9.33,0,0,0,6.09-2.23,9.51,9.51,0,0,0,3.46-7.79A8.63,8.63,0,0,0,302,14.07a9.7,9.7,0,0,0-6.9-2.78,8.3,8.3,0,0,0-6.2,2.41A9,9,0,0,0,286.09,20.19Z"/></g></g></svg>