<svg xmlns="http://www.w3.org/2000/svg" width="280" height="205" viewBox="0 0 280 205"><defs><style>.cls-1,.cls-2{fill:#b3b3b3;}.cls-1{fill-rule:evenodd;}.cls-3{fill:#fff;}.cls-4{fill:none;}</style></defs><title>weight_training</title><g id="レイヤー_2" data-name="レイヤー 2"><g id="レイヤー_1-2" data-name="レイヤー 1"><path class="cls-1" d="M135.81,2.33S112.33-1,122.47,40.11c0,0,7.74,11.11-12.81,12.5,0,0-21.08-12.5-33.62,11.12,0,0-18.41,1.38-19.21,16.39a65.66,65.66,0,0,1-10.14,6.11c-5.34,2.5-10.94,16.67-9.61,22.23s1.61,13.33-.53,19.17-2.4,16.11.8,18.89,1.6,4.45,4.8,6.39,13.61-3.61,10.41-5.56l-3.2-1.94s5.34-7.23,3.2-10.28-8.81-6.39-6.14-10.28,15.48-11.11,14.41-24.17c0,0,20.64-10.37,27.22-14.45s21.17,49.64,15.48,57.79c-5.7,8.52-10.68,43.06-11.74,46.68s-2.41,14.16-2.41,14.16h39.76s6.94-11.94,6.94-18.05Z"/><path class="cls-1" d="M133.56,2.33S157-1,146.9,40.11c0,0-7.74,11.11,12.81,12.5,0,0,21.08-12.5,33.62,11.12,0,0,18.41,1.38,19.21,16.39a66.25,66.25,0,0,0,10.14,6.11c5.34,2.5,10.94,16.67,9.61,22.23s-1.6,13.33.53,19.17,2.4,16.11-.8,18.89-1.6,4.45-4.8,6.39-13.61-3.61-10.41-5.56l3.2-1.94s-5.33-7.23-3.2-10.28,8.81-6.39,6.14-10.28-15.48-11.11-14.41-24.17c0,0-20.64-10.37-27.22-14.45S160.15,135.87,165.85,144c5.69,8.52,10.67,43.06,11.74,46.68s2.4,14.16,2.4,14.16H140.23s-6.94-11.94-6.94-18.05Z"/><path class="cls-2" d="M3,151.51V136.3H0v15.21Z"/><path class="cls-2" d="M24.53,168.8V119H14.4V168.8Z"/><path class="cls-2" d="M12.79,161.16c0-.18,0-34.32,0-34.5H4.65v34.5Z"/><path class="cls-2" d="M267.09,136.3c0,.18,0,15,0,15.22h3V136.3Z"/><path class="cls-2" d="M245.59,119V168.8h10.13V119Z"/><path class="cls-2" d="M257.34,126.66v34.5h8.13v-34.5Z"/><rect class="cls-2" x="55.58" y="139.29" width="42.58" height="9.24" rx="3" ry="3"/><rect class="cls-2" x="170.69" y="139.29" width="42.58" height="9.24" rx="3" ry="3"/><rect class="cls-2" x="237" y="139.29" width="9.42" height="9.24" rx="3" ry="3"/><rect class="cls-2" x="23.06" y="139.29" width="9.42" height="9.24" rx="3" ry="3"/><path class="cls-3" d="M91.21,75.62,94,65.51h1.17L92,77.11H90.44l-2.52-9.49-2.56,9.49H83.88l-3.27-11.6h1.18L84.62,75.6l2.75-10.09h1.1Z"/><path class="cls-3" d="M96,72.78a4.4,4.4,0,0,1,7.37-3.32A4.54,4.54,0,0,1,104.86,73v.23H97.18a2.64,2.64,0,0,0,1.12,2.23,3.35,3.35,0,0,0,2.09.72,3.51,3.51,0,0,0,1.8-.52,2.66,2.66,0,0,0,1.24-1.37h1.19a4.59,4.59,0,0,1-4.29,3A4,4,0,0,1,97.23,76,4.56,4.56,0,0,1,96,72.78Zm7.69-.6a3.34,3.34,0,0,0-1.15-2,3.22,3.22,0,0,0-2.12-.79A3.08,3.08,0,0,0,98,70.6a3,3,0,0,0-.77,1.58Z"/><path class="cls-3" d="M106.45,67.5v-2h1.15v2Zm0,9.61V68.53h1.15v8.58Z"/><path class="cls-3" d="M109.24,72.81a4.41,4.41,0,0,1,1.36-3.31,4,4,0,0,1,2.85-1.19,4.37,4.37,0,0,1,2,.47A3.11,3.11,0,0,1,117,70.23V68.5h1.09v7.88a3.83,3.83,0,0,1-1.17,2.92,4.25,4.25,0,0,1-3,1.09,4.73,4.73,0,0,1-2.72-.79,3.7,3.7,0,0,1-1.61-2.29h1.12a3.14,3.14,0,0,0,1.25,1.48,3.53,3.53,0,0,0,1.9.53,3.24,3.24,0,0,0,2.2-.75,2.79,2.79,0,0,0,1-2.23V75.4a3.46,3.46,0,0,1-3.31,1.91,4.41,4.41,0,0,1-4.42-4.5Zm1.14-.23a3.72,3.72,0,0,0,.94,2.58,3,3,0,0,0,2.3,1A3.37,3.37,0,0,0,117,72.67a3,3,0,0,0-1-2.23,3.41,3.41,0,0,0-2.42-1,2.92,2.92,0,0,0-2.17.85A3.16,3.16,0,0,0,110.38,72.58Z"/><path class="cls-3" d="M120,77.11V65.51h1.18v4.24a2.88,2.88,0,0,1,2.6-1.41,3.74,3.74,0,0,1,3.76,3.81v5h-1.14v-5a2.7,2.7,0,0,0-4.5-2A2.42,2.42,0,0,0,121.2,72v5.09Z"/><path class="cls-3" d="M130.46,77.11V69.59h-1.77V68.53h1.77v-3h1.16v3h2v1.06h-2v7.52Z"/><path class="cls-3" d="M140.84,77.11V66.54H138.2v-1h6.39v1H142V77.11Z"/><path class="cls-3" d="M145.68,77.11V68.5h1.07v1.28a2.54,2.54,0,0,1,2.48-1.47V69.5a2.39,2.39,0,0,0-1.61.64,2.15,2.15,0,0,0-.8,1.68v5.29Z"/><path class="cls-3" d="M150,72.87a4.32,4.32,0,0,1,1.44-3.34,4.4,4.4,0,0,1,3.1-1.22,3.54,3.54,0,0,1,3.34,1.89V68.53H159v8.59h-1.11V75.48a3.24,3.24,0,0,1-1.46,1.37,4.23,4.23,0,0,1-2,.46A4.34,4.34,0,0,1,151.29,76,4.26,4.26,0,0,1,150,72.87Zm1.17-.26a3.63,3.63,0,0,0,.91,2.49,3,3,0,0,0,2.37,1.08,3.39,3.39,0,0,0,2.41-1,3.13,3.13,0,0,0,1-2.35,3.37,3.37,0,0,0-.94-2.42,3.1,3.1,0,0,0-2.33-1,3.37,3.37,0,0,0-2.48,1.06A3,3,0,0,0,151.18,72.61Z"/><path class="cls-3" d="M161,67.5v-2h1.15v2Zm0,9.61V68.53h1.15v8.58Z"/><path class="cls-3" d="M164,77.11V68.53h1.08v1.29a3.12,3.12,0,0,1,1.16-1.09,3.28,3.28,0,0,1,1.56-.39,3.55,3.55,0,0,1,2.55,1,3.83,3.83,0,0,1,1.17,2.91v4.85h-1.11V72.26a2.78,2.78,0,0,0-.74-2,2.54,2.54,0,0,0-1.94-.77,2.46,2.46,0,0,0-1.86.73,2.58,2.58,0,0,0-.71,1.89v5Z"/><path class="cls-3" d="M173.5,67.5v-2h1.16v2Zm0,9.61V68.53h1.16v8.58Z"/><path class="cls-3" d="M176.59,77.11V68.53h1.09v1.29a3,3,0,0,1,1.16-1.09,3.24,3.24,0,0,1,1.55-.39,3.59,3.59,0,0,1,2.56,1,3.83,3.83,0,0,1,1.17,2.91v4.85H183V72.26a2.78,2.78,0,0,0-.74-2,2.52,2.52,0,0,0-1.94-.77,2.49,2.49,0,0,0-1.86.73,2.62,2.62,0,0,0-.71,1.89v5Z"/><path class="cls-3" d="M185.76,72.81a4.37,4.37,0,0,1,1.36-3.31A4,4,0,0,1,190,68.31a4.37,4.37,0,0,1,2,.47,3,3,0,0,1,1.47,1.45V68.5h1.1v7.88a3.81,3.81,0,0,1-1.18,2.92,4.21,4.21,0,0,1-3,1.09,4.74,4.74,0,0,1-2.73-.79,3.74,3.74,0,0,1-1.61-2.29h1.13a3.14,3.14,0,0,0,1.25,1.48,3.51,3.51,0,0,0,1.9.53,3.23,3.23,0,0,0,2.19-.75,2.76,2.76,0,0,0,.95-2.23V75.4a3.45,3.45,0,0,1-3.3,1.91,4.32,4.32,0,0,1-3-1.16A4.26,4.26,0,0,1,185.76,72.81Zm1.14-.23a3.68,3.68,0,0,0,.94,2.58,3,3,0,0,0,2.3,1,3.26,3.26,0,0,0,2.13-.78,3.33,3.33,0,0,0,1.21-2.73,3,3,0,0,0-1-2.23,3.39,3.39,0,0,0-2.41-1,2.91,2.91,0,0,0-2.17.85A3.12,3.12,0,0,0,186.9,72.58Z"/><rect id="_スライス_" data-name="&lt;スライス&gt;" class="cls-4" width="280" height="205"/></g></g></svg>